<svg width="20" height="20" viewBox="0 0 20 20" fill="none" xmlns="http://www.w3.org/2000/svg">
<path d="M19 10C19.5523 10 20.0052 10.4488 19.95 10.9984C19.787 12.6234 19.2277 14.1893 18.3147 15.5557C17.2159 17.2002 15.6541 18.4819 13.8268 19.2388C11.9996 19.9957 9.98891 20.1937 8.0491 19.8079C6.10929 19.422 4.32746 18.4696 2.92893 17.0711C1.53041 15.6725 0.577999 13.8907 0.192147 11.9509C-0.193705 10.0111 0.00432837 8.00043 0.761205 6.17317C1.51808 4.3459 2.79981 2.78412 4.4443 1.6853C6.08879 0.58649 8.02219 -2.35852e-08 10 0V2C8.41775 2 6.87103 2.46919 5.55544 3.34824C4.23984 4.22729 3.21446 5.47672 2.60896 6.93853C2.00346 8.40034 1.84504 10.0089 2.15372 11.5607C2.4624 13.1126 3.22433 14.538 4.34315 15.6569C5.46197 16.7757 6.88743 17.5376 8.43928 17.8463C9.99113 18.155 11.5997 17.9965 13.0615 17.391C14.5233 16.7855 15.7727 15.7602 16.6518 14.4446C17.3449 13.4072 17.7832 12.2262 17.9376 10.9974C18.0064 10.4494 18.4477 10 19 10Z" fill="url(#paint0_angular_11543_63247)"/>
<defs>
<radialGradient id="paint0_angular_11543_63247" cx="0" cy="0" r="1" gradientUnits="userSpaceOnUse" gradientTransform="translate(10 10) rotate(90) scale(10)">
<stop offset="0.499906" stop-color="white" stop-opacity="0"/>
<stop offset="0.75041" stop-color="white"/>
</radialGradient>
</defs>
</svg>
