<?xml version="1.0" encoding="utf-8"?>
<!-- Generator: Adobe Illustrator 24.1.0, SVG Export Plug-In . SVG Version: 6.00 Build 0)  -->
<svg version="1.1" id="_x30_XBTC" xmlns="http://www.w3.org/2000/svg" xmlns:xlink="http://www.w3.org/1999/xlink" x="0px" y="0px"
	 viewBox="0 0 500 500" style="enable-background:new 0 0 500 500;" xml:space="preserve">
<style type="text/css">
	.st0{fill:#FF7E00;}
	.st1{fill:#FFFFFF;}
</style>
<path class="st0" d="M250.7,477.13C126.29,477.22,25.32,376.01,25.26,251.16C25.19,125.02,125.61,23.86,250.85,23.89
	c124.55,0.03,224.94,101.32,224.92,226.92C475.74,375.87,375.14,477.03,250.7,477.13z"/>
<path class="st0" d="M250.07,498.88c-66.42,0-128.88-25.82-175.89-72.71C27.12,379.23,1.19,316.83,1.16,250.44
	C1.12,183.39,26.95,120.56,73.86,73.53C120.77,26.51,183.45,0.61,250.34,0.61c0.02,0,0.05,0,0.07,0
	c66.56,0.02,129.03,25.94,175.89,72.98c46.85,47.03,72.65,109.71,72.63,176.48c-0.01,66.49-25.86,128.96-72.78,175.91
	c-46.93,46.96-109.4,72.84-175.9,72.89l0-4.98l0,4.98C250.2,498.88,250.13,498.88,250.07,498.88z M250.34,10.56
	c-64.21,0-124.36,24.85-169.38,69.98c-45.04,45.16-69.83,105.49-69.8,169.9c0.03,63.73,24.93,123.64,70.1,168.7
	c45.12,45.01,105.07,69.79,168.82,69.79c0.06,0,0.12,0,0.18,0c63.82-0.05,123.77-24.89,168.81-69.96
	c45.05-45.07,69.86-105.06,69.87-168.9c0.01-64.13-24.75-124.31-69.74-169.47c-44.97-45.15-104.91-70.02-168.79-70.04
	C250.39,10.56,250.36,10.56,250.34,10.56z"/>
<path class="st1" d="M357.85,280.18c0.59,6.13-2.96,10.39-6.55,14.26c-11.43,12.33-22.75,24.82-34.8,36.52
	c-29.77,28.9-60.42,56.85-93.45,82.06c-2.12,1.62-4.32,3.12-6.53,4.61c-10.69,7.17-12.06,6.98-16.79-4.78
	c-4.52-11.25-8.69-22.68-12.35-34.24c-14.71-46.46-27.79-93.37-37.11-141.26c-1.02-5.22-2.27-10.56-2.06-15.79
	c0.17-4.03,1.43-8.88,3.99-11.79c11.54-13.11,23.27-26.13,35.77-38.33c30.18-29.44,61.32-57.84,94.92-83.39
	c3.57-2.71,7.35-5.19,11.23-7.43c5.17-2.99,6.89-2.69,9.26,2.9c4.6,10.86,9.11,21.81,12.75,33.02
	c14.87,45.89,27.74,92.34,37.6,139.59C355.38,264.09,356.49,272.16,357.85,280.18z"/>
</svg>
