<?xml version="1.0" encoding="utf-8"?>
<!-- Generator: Adobe Illustrator 25.0.1, SVG Export Plug-In . SVG Version: 6.00 Build 0)  -->
<svg version="1.1" id="_x31_inch" xmlns="http://www.w3.org/2000/svg" xmlns:xlink="http://www.w3.org/1999/xlink" x="0px" y="0px"
	 viewBox="0 0 500 500" style="enable-background:new 0 0 500 500;" xml:space="preserve">
<style type="text/css">
	.st0{fill:#ECF3FF;}
	.st1{fill:#FFFFFF;}
	.st2{fill:#94A6C4;}
	.st3{fill:#1C324F;}
	.st4{fill:#FFD925;}
	.st5{fill:#D82423;}
</style>
<path class="st0" d="M250,499.5c133.3,0,241.4-107.2,241.4-239.4c0-132.2-108.1-239.4-241.4-239.4C116.7,20.8,8.6,127.9,8.6,260.1
	C8.6,392.3,116.7,499.5,250,499.5z"/>
<path class="st1" d="M184.8,114.1l-84.5-33.5v12l72.4,64.6l-4.8,67l-21.7,91l-29,40.7l7.2,57.4l36.2,4.8l29-4.8l29,4.8l50.7-31.1
	l9.7-50.3l60.3-57.4l26.5,19.1l26.5,38.3v76.6l36.2-9.6l36.2-79l9.7-100.5L344.1,35.1l-21.7-4.8L184.8,114.1z"/>
<path class="st2" d="M56.9,252.5c1-8.1,1.4-16.3,3.9-23.9c6.8-31.6,19.8-61.8,39.1-86.2c3.4-4.3,6.3-8.1,10.1-12l-21.7-20.1
	c-3.9,5.7-7.7,11.5-11.1,17.2c-17.9,30.6-27.5,65.1-29.9,99.1c-1,8.6-0.5,17.2-0.5,25.4c0,8.6,1,16.8,2.4,25.4
	c2.4,16.8,6.8,33,12.6,48.4c-3.9-16.3-5.8-32.6-6.3-49.3C55.4,268.7,55.4,260.6,56.9,252.5z"/>
<path class="st2" d="M155.9,97.4c-12.1-5.7-29-13.4-41-19.1c11.1-10.5,31.4-21.5,48.3-28.7C151,59.1,151,79.2,155.9,97.4z"/>
<path class="st2" d="M107.1,178.7c-6.8,16.8-11.1,34.5-12.6,51.7c-0.5,4.3-1,8.6-0.5,12.9c0,4.3,0,8.6,0.5,12.9L95,263
	c0,1.9,0.5,4.3,1,6.2l1.9,12.9l0.5-12.9c0-1.9,0-4.3,0.5-6.2l1-6.2c0.5-4.3,1.4-8.6,1.9-12.4c0.5-4.3,1.9-8.1,2.9-12
	c4.3-16.3,11.6-31.1,20.3-45c5.8-9.1,12.6-17.2,19.8-24.9l-18.8-17.7C117.7,155.8,111.9,166.8,107.1,178.7z"/>
<path class="st2" d="M386.6,96.9c-25.6-9.1-35.7-6.2-35.7-6.2s-15.9,42.6-76.8,45.5C274.6,136.6,329.2,168.2,386.6,96.9z"/>
<path class="st2" d="M404,181.6c-2.4,52.7-43.4,72.3-75.3,68.5c-17.4-2.4-43,5.7-43,5.7l-32.3,55.5l-10.6,3.8l18.3-33.5
	c0,0-43.4,15.8-46.8,17.2c-3.4,1.4-16.9,21.1-28,41.6c-2.4-14.4-11.6-24.4-11.6-24.9c0,2.4,4.8,45.5-0.5,57.4
	c-5.3,12.4-29,20.6-29,20.6l34.8,12.9l2.4,1l26.1-24.4l9.7-36.4l12.1-8.6c0,0,29.9-3.4,25.6,23.5c-1.9,12.9-16.4,12-32.8,22
	c-9.7,5.7-22.2,14.8-28.5,21.1l17.4,12.4c0,0,20.8-3.4,50.2-26.3c29.9-23.9,15-49.8,15-49.8l48.8-57.9l31.9,2.4
	c0,0,55,13.9,72.9,65.6C466.3,252,408.8,186.4,404,181.6z"/>
<path class="st3" d="M460,140.5c8.7,3.8,15.4,9.6,21.7,14.8C438.3,5.9,297.3,22.7,294.4,23.6c3.4-5.3,15.9-13.4,27.5-17.7
	c0,0-59.9-21.1-114.4,16.3c1-8.6,11.6-21.5,11.6-21.5C143.8,32.7,139,71,153.5,94c-12.1-5.7-24.1-11-36.2-16.8
	c-37.2-17.7-69-32.6-71-33c-3.4-1-4.8,0.5-4.8,0.5S40,46.1,42.9,49c43.9,43.6,71.9,69.9,118.7,112.5c-7.7,17.2-8.7,25.9-4.8,34.9
	c5.3,12.4,4.8,18.7,2.9,26.8c-2.4,8.1-21.7,80.4-25.1,88.6c-3.4,8.6-29,37.3-29.4,46.9c-0.5,9.6,7.2,51.7,17.9,57.9
	c8.2,4.3,28,13.4,42.5,15.3c4.8,1,9.7,0.5,12.1-1.4c9.7-6.2,12.1-7.2,18.3-6.7l1.4,0.5c2.4,0.5,5.3,1.4,9.2,1.9
	c8.2,1,18.8,1,27.5-4.8c12.6-9.6,33.8-21.5,41-27.8c8.7-8.6,14.5-20.6,14.5-34c0-12,8.2-21.5,17.4-31.1c8.7-8.6,30.4-29.7,39.1-38.8
	c22.2,7.7,30.4,39.3,30.4,56.5c0,47.9-39.1,117.8-128.9,123c-3.4,0-6.8,0.5-10.6,0.5c-116.8,0-212.4-102.4-212.4-222.6
	c0-94.8,57.4-159,57.9-159.5C36.1,131.3,8.6,192.1,8.6,260.1c0,132.1,108.1,239.4,241.4,239.4s241.4-107.3,241.4-239.4
	C491.4,217,480.3,175.4,460,140.5z M130.3,109.8c-6.8-5.7-13.5-11.5-20.3-17.2c9.2,4.8,18.3,9.6,26.5,13.9
	c25.1,12.9,45.9,24.4,49.7,27.3c0,0,0.5,0.5,1,1c2.4,2.9,4.8,7.7,0.5,13.9c-2.4,3.4-5.3,2.4-9.7-0.5
	C174.2,145.7,153.5,129.4,130.3,109.8z M270.8,358.7c0,8.1-3.9,15.3-8.7,20.6c-2.4,2.4-12.1,8.6-18.8,12.9
	c-6.8,4.8-14,9.1-19.8,13.4c-2.4,1.4-6.3,2.4-12.6,1.4l-15-1.9c9.2-9.1,34.3-28.7,42.5-32.6c9.7-4.8,15.4-10.1,11.1-21.1
	c-3.9-11.5-18.8-11-18.8-11s9.2-2.4,16.4-1.4c-9.2-3.8-21.7-2.9-28,1.4c-6.8,4.8-8.7,24.4-13,36.4c-4.3,12.4-14,17.7-28.5,27.8
	c-8.2,5.3-13.5,6.7-17.4,6.2c-8.2-2.4-17.9-6.7-24.6-10.1c-3.9-7.2-8.7-29.7-9.2-38.8c1.9-4.8,9.7-14.4,13.5-20.1
	c7.7-10.5,12.1-16.8,14-22.5c3.4-8.1,17.4-59.4,22.7-80.9c5.3,9.1,12.6,24.4,9.2,33c17.4-18.2,9.7-39.7,5.8-48.4
	c-3.4-8.6-7.2-25.4,0.5-41.6c7.2-16.3,32.3-60.3,32.3-60.3s4.3,11.5,13.5,10.5c8.7-1,92.2-93.8,92.2-93.8s13,43.1-11.1,69.4
	c-24.1,26.3-44.4,29.2-44.4,29.2s27,8.6,55-5.7c7.2,25.9,13.5,52.7,13.5,56c-1.9,3.4-29,48.4-31.4,51.2c-1,1-8.7,1.9-13.5,1.9
	c-8.7,1.4-14,1.9-16.4,3.4c-3.9,2.4-26.1,44-36.7,64.1c-9.7,1.4-19.3,4.8-27,13.9c3.9-1.9,15-1.9,23.2-1.9
	c7.2,0.5,27,14.8,29.4,37.3C270.8,358.3,270.8,358.3,270.8,358.7z M214.3,378.8c5.3-5.7,6.3-16.8,7.2-20.1c1-3.4,2.9-9.6,7.2-10.1
	c4.3-0.5,13.5,2.4,12.6,9.6c-1,6.7-8.2,7.2-14,10.5C223.5,371.2,215.2,377.9,214.3,378.8z M424.3,385.1c-5.8-61.3-48.3-90-67.1-99.6
	c21.7-2.4,77.7-19.1,46.8-103.9c1,3.8,9.7,46-15,68c-25.1,22.5-61.8,12.9-66.1,12.9c-3.9-0.5-22.2,17.2-47.3,51.2
	c-2.4-1.4-12.6-5.3-25.1-4.8c12.6-23.5,31.4-57,34.3-59.8c1-1,9.2-1.9,14-2.4c9.7-1,14.5-1.9,16.4-3.8c1-1.4,7.7-12,14.5-23.5
	c4.3,0.5,15.9,1.4,17.4,1c1-1,14-23.9,14.5-26.8c0.5-1.9-8.7-37.8-14.5-60.8C466.3,188.8,485.1,312.3,424.3,385.1z"/>
<path class="st3" d="M309.4,100.2c13.5-12,11.6-32.6,11.6-32.6l-40.5,44.5C279.9,112.2,292.5,114.6,309.4,100.2z"/>
<path class="st3" d="M157.8,353.5l6.8-19.1c0,0-20.8,26.3-22.7,30.2c-1.9,4.3-1,12.4,5.8,12.9c6.8,0.5,15.9-8.1,16.9-14.8
	C166,353.5,157.8,353.5,157.8,353.5z"/>
<path class="st3" d="M221.5,237.6c14.5-1.4,40.5-12.9,51.7-22c11.1-9.6,9.2-30.6-8.2-36.9c5.8-9.6,15.4-29.7,15.4-29.7
	s-62.3,72.3-67.1,73.2c-4.8,1-6.8-17.2-6.8-17.2C192.1,240,216.7,248.6,221.5,237.6z"/>
<path class="st4" d="M226.8,228.5l32.3-40.7c0,0,14,9.6,4.8,20.6C252.4,221.3,226.8,228.5,226.8,228.5z"/>
<path class="st5" d="M312.8,47.1L290.6,71c-17.9,5.3-35.2,14.8-51.7,30.6C238.9,92.6,265.5,52.8,312.8,47.1z"/>
<path class="st5" d="M340.8,67.7c0.5-6.2,0-13.4-1-20.1c29,3.8,63.2,20.6,102.3,58.4C409.8,88.3,375.5,72,340.8,67.7z"/>
<path class="st5" d="M349.5,98.8c0,0,107.6,46.9,127.4,178.6C479.8,106,357.2,97.4,349.5,98.8z"/>
<path class="st5" d="M192.6,23.2c-1.4,3.8-62.3,68.5,13.5,93.8C164.6,80.1,192.1,23.6,192.6,23.2z"/>
<path class="st5" d="M224.9,106.9c0,0,6.3-73.2,50.7-92.9C272.2,15,182,42.3,224.9,106.9z"/>
</svg>
