<?xml version="1.0" encoding="utf-8"?>
<!-- Generator: Adobe Illustrator 23.0.2, SVG Export Plug-In . SVG Version: 6.00 Build 0)  -->
<svg version="1.1" id="Layer_1" xmlns="http://www.w3.org/2000/svg" xmlns:xlink="http://www.w3.org/1999/xlink" x="0px" y="0px"
	 viewBox="0 0 500 500" style="enable-background:new 0 0 500 500;" xml:space="preserve">
<style type="text/css">
	.st0{fill:#F79E24;}
	.st1{fill:#191B2D;}
</style>
<ellipse class="st0" cx="250.8" cy="249.3" rx="246.6" ry="244.6"/>
<path class="st1" d="M247.7,246.4c0.4-2.6,1.1-5.2,1.1-7.7c0.1-17.8,0-35.6,0-53.4c0-3,0.1-6.1,0.8-9c2-9.4,9.1-16.1,18.5-17.8
	c5.6-1,7.4,0.3,7.5,6c0.2,6.1,0.1,12.1,0.1,18.2c0,12.5,0,25,0,37.5c0,2,0,4.1,0,6.9c35.4-12.8,60.6-2.2,76,32.2
	c7.4-6.5,14.4-12.4,21.2-18.7c7.2-6.6,15-12.1,24.5-15c23.7-7.3,51.4,5.1,61.5,27.6c2.3,5.2,2,7.1-1.9,11.1
	c-5.1,5.2-10.3,10.3-15.8,15.7c-0.9-5.1-1-9.8-2.5-13.9c-6.6-18.5-28.7-24.7-43.7-12c-11.2,9.6-21.7,20-32.3,30.3
	c-7.3,7.1-14.3,14.6-21.4,22c-14.1,14.6-30.7,22-51.2,17.6c-16.6-3.6-28.6-13.2-36.1-28.5c-1.6-3.3-1.5-6,1.6-8.5
	c5.5-4.5,10.9-9.2,17.1-14.5c0.7,2.9,1.1,4.9,1.6,6.8c3.6,14.7,18.9,24.6,32.8,21.1c16.4-4.1,25.4-18.6,21.5-34.4
	c-4.4-17.8-27.3-26.7-41.9-15.6c-11.3,8.6-21.6,18.4-32.1,28c-1.9,1.7-2.8,4.9-3.5,7.6c-5.5,21.7-22.4,36.7-45.6,39.1
	c-19.8,2-40-7.5-50.6-27.1c-3.7-6.9-3.6-7.5,2.1-12.4c4.9-4.2,9.8-8.3,15.6-13.3c0.5,2.9,0.8,4.6,1.1,6.3
	c2.9,16.2,18,26.3,34.2,22.9c14.8-3.1,24.3-18.8,20.5-34.1c-4.8-19.4-28.3-28-43.8-15.6c-10.9,8.7-21.4,18.2-31.7,27.7
	c-2,1.9-3.3,5.6-3.4,8.5c-0.4,10-0.2,20.1-0.3,30.1c0,2.2-0.5,4.3-0.8,6.7c-9.3,1.4-15.9-2.4-21.8-8.9c-16.4,9.2-33.2,10.6-50.3,3
	c-11.4-5.1-19.3-13.9-24.7-24.9c-10.8-21.8-3.9-48.8,16.2-64c8.1-6.1,17.4-9,27.5-9.7c10.1-0.7,19.6,1.3,28.5,6.1
	c8.8,4.8,15.1,12.3,20.8,20.5c0.5-0.1,1.1-0.1,1.6-0.2c0.3-2.6,0.9-5.2,0.9-7.8c0.1-23.7,0-47.4,0-71.1c0-2.6,0.2-5.2,0.3-7.7
	c6.4-2.8,15.3-0.1,20.5,6c3.7,4.3,5.6,9.3,5.6,15.1c-0.1,13.1,0,26.2,0,39.2c0,2.4,0.2,4.7,0.4,7.8c29.3-12.8,53.2-7,71.9,18.5
	C246.4,246.6,247,246.5,247.7,246.4z M71,271.8c-0.1,15.4,12.1,28,27.4,28.2c15.7,0.2,28.4-12.3,28.4-27.8c0-15.6-11.9-28-26.7-28.1
	C83.7,243.9,71.1,256,71,271.8z"/>
<path class="st1" d="M416.4,305.1c-6.1,6.1-12.1,12.2-18.3,18.1c-0.8,0.8-3,0.8-4.3,0.4c-13.9-5-23.8-14.5-29.4-28.1
	c-0.5-1.3-0.2-3.7,0.7-4.6c5.8-5.4,11.8-10.5,18.8-16.6c2.8,19.2,13.2,28.9,31.7,29.5C415.9,304.2,416.2,304.6,416.4,305.1z"/>
</svg>
