<?xml version="1.0" encoding="iso-8859-1"?>
<!-- Generator: Adobe Illustrator 19.0.0, SVG Export Plug-In . SVG Version: 6.00 Build 0)  -->
<svg version="1.1" id="Layer_1" xmlns="http://www.w3.org/2000/svg" xmlns:xlink="http://www.w3.org/1999/xlink" x="0px" y="0px"
	 viewBox="0 0 500 500" style="enable-background:new 0 0 500 500;" xml:space="preserve">
<linearGradient id="SVGID_1_" gradientUnits="userSpaceOnUse" x1="35.8592" y1="249.9523" x2="463.5714" y2="249.9523">
	<stop  offset="0" style="stop-color:#1EFCAE"/>
	<stop  offset="1" style="stop-color:#40FFF9"/>
</linearGradient>
<path style="fill:url(#SVGID_1_);" d="M36.601,126.394C107.117,85.526,178.032,44.426,249.509,3
	c23.886,13.07,189.363,109.104,213.576,123.138c0.153,2.076,0.487,4.502,0.487,6.927c0.009,65.548-0.365,238.316-0.553,240.748
	c-71.226,41.111-142.067,81.998-213.261,123.091c-71.169-41.237-142.234-82.414-212.942-123.384
	C35.679,368.699,35.492,133.048,36.601,126.394z M240.433,31.682C238.425,32.387,66.604,132.64,66.604,132.64l129.098,73.57
	c0,0,29.563-51.583,42.402-73.555c1.519-2.599,2.335-5.102,2.329-8.084C240.375,95.434,240.676,33.954,240.433,31.682z
	 M55.984,148.985l0.694,200.913c0,0,68.151-39.166,80.437-45.747c7.163-3.837,4.314-2.93,8.303-10.165
	c11.718-21.255,38.489-68.428,39.264-70.401C141.829,198.745,55.984,148.985,55.984,148.985z M442.69,149.767l-127.524,75.141
	c0,0,28.764,50.584,41.582,73.015c1.396,2.443,3.201,4.19,5.579,5.557c10.436,5.999,81.099,46.387,81.099,46.387L442.69,149.767z
	 M260.374,31.682c0,0-0.685,64.045-0.543,93.554c0.012,2.555,0.804,5.298,1.932,7.613c2.006,4.115,43.481,73.675,43.481,73.675
	l127.5-74.528L260.374,31.682z M241.95,467.501v-92.93l-93.309-54.025l-81.915,47.174L241.95,467.501z M259.483,374.885
	l-0.452,92.616l174.578-100.015c0,0-54.846-32.08-81.655-47.077C337.07,327.487,259.483,374.885,259.483,374.885z M241.986,352.012
	v-85.999c0,0-50.032,28.093-73.204,42.135C169.547,309.359,241.986,352.012,241.986,352.012z M330.259,308.692l-70.013-42.679
	l0.373,85.999L330.259,308.692z M239.188,172.561l-26.784,43.91l26.784,15.542V172.561z M176.512,280.673l51.927-31.787
	l-24.777-14.389L176.512,280.673z M323.097,279.711l-26.997-45.182l-26.088,14.912L323.097,279.711z M260.414,172.561
	c-0.258,1.434-0.039,58.285,0.502,59.578c7.43-4.253,24.31-14.781,25.939-16.184C278.465,201.353,261.34,172.918,260.414,172.561z"
	/>
</svg>
