<?xml version="1.0" encoding="iso-8859-1"?>
<!-- Generator: Adobe Illustrator 19.0.0, SVG Export Plug-In . SVG Version: 6.00 Build 0)  -->
<svg version="1.1" id="Layer_1" xmlns="http://www.w3.org/2000/svg" xmlns:xlink="http://www.w3.org/1999/xlink" x="0px" y="0px"
	 viewBox="0 0 500 500" style="enable-background:new 0 0 500 500;" xml:space="preserve">
<g>
	<g>
		<g>
			<path style="fill:#5A51FA;" d="M7.083,350.503c-0.59,5.491,0.739,10.971,4.068,16.502c16.85,27.998,33.665,56.021,50.199,84.206
				c2.305,3.929,5.015,6.933,8.163,9.101l64.167-109.809H7.083z"/>
		</g>
		<g>
			<path style="fill:#5564FB;" d="M364.301,350.503c-0.018,0-0.035,0-0.053,0l64.543,111.377c3.36-1.709,6.268-4.334,8.558-8.214
				c17.702-30.005,35.472-59.969,53.219-89.947c2.609-4.406,3.9-8.813,3.939-13.217H364.301z"/>
		</g>
		<g>
			<path style="fill:#7087FE;" d="M249.671,152.786c0.439-0.751,0.875-1.499,1.314-2.251
				c37.949,66.968,75.347,132.964,113.316,199.967h130.205c0.04-4.604-1.29-9.205-3.955-13.801
				C452.423,270.951,342.58,81.717,325.927,52.769c-3.051-5.304-6.765-9.339-11.144-12.189l-65.339,111.814L249.671,152.786z"/>
		</g>
		<g>
			<path style="fill:#6B85FE;" d="M314.783,40.581c-5.433-3.536-11.892-5.242-19.407-5.226c-31.387,0.067-62.775-0.071-94.161,0.071
				c-6.458,0.029-12.133,1.516-16.984,4.435l65.213,112.533L314.783,40.581z"/>
		</g>
		<g>
			<path style="fill:#8186FE;" d="M172.573,52.281c-8.411,14.923-135.256,240.178-161.83,287.33
				c-2.056,3.647-3.271,7.272-3.66,10.892H133.68l94.872-162.354l-44.32-148.288C179.562,42.671,175.658,46.808,172.573,52.281z"/>
		</g>
		<g>
			<polygon style="fill:#484EC0;" points="184.231,39.861 228.551,188.149 249.444,152.395 			"/>
		</g>
		<g>
			<path style="fill:#4233C6;" d="M364.248,350.503c-11.602,0-23.168,0-34.72,0l97.533,112.153c0.588-0.236,1.167-0.489,1.73-0.775
				L364.248,350.503z"/>
		</g>
		<g>
			<path style="fill:#6C66FC;" d="M134.261,350.503h-0.581L69.513,460.312c4.329,2.981,9.492,4.373,15.619,4.333
				c17.375-0.116,309.701,0.005,330.721-0.058c4.048-0.012,7.825-0.572,11.208-1.931l-97.533-112.153
				C264.229,350.503,199.604,350.503,134.261,350.503z"/>
		</g>
	</g>
</g>
</svg>
