<svg width="24" height="21" viewBox="0 0 24 21" fill="currentColor" xmlns="http://www.w3.org/2000/svg">
<path fill-rule="evenodd" clip-rule="evenodd" d="M1.46447 13.9791C2.40215 13.0414 3.67392 12.5146 5 12.5146H12C13.3261 12.5146 14.5979 13.0414 15.5355 13.9791C16.4732 14.9167 17 16.1885 17 17.5146V19.5146C17 20.0669 16.5523 20.5146 16 20.5146C15.4477 20.5146 15 20.0669 15 19.5146V17.5146C15 16.7189 14.6839 15.9559 14.1213 15.3933C13.5587 14.8307 12.7956 14.5146 12 14.5146H5C4.20435 14.5146 3.44129 14.8307 2.87868 15.3933C2.31607 15.9559 2 16.7189 2 17.5146V19.5146C2 20.0669 1.55228 20.5146 1 20.5146C0.447715 20.5146 0 20.0669 0 19.5146V17.5146C0 16.1885 0.526784 14.9167 1.46447 13.9791Z"/>
<path fill-rule="evenodd" clip-rule="evenodd" d="M8.5 2.51459C6.84315 2.51459 5.5 3.85773 5.5 5.51459C5.5 7.17144 6.84315 8.51459 8.5 8.51459C10.1569 8.51459 11.5 7.17144 11.5 5.51459C11.5 3.85773 10.1569 2.51459 8.5 2.51459ZM3.5 5.51459C3.5 2.75316 5.73858 0.514587 8.5 0.514587C11.2614 0.514587 13.5 2.75316 13.5 5.51459C13.5 8.27601 11.2614 10.5146 8.5 10.5146C5.73858 10.5146 3.5 8.27601 3.5 5.51459Z"/>
<path fill-rule="evenodd" clip-rule="evenodd" d="M20 5.51459C20.5523 5.51459 21 5.9623 21 6.51459V12.5146C21 13.0669 20.5523 13.5146 20 13.5146C19.4477 13.5146 19 13.0669 19 12.5146V6.51459C19 5.9623 19.4477 5.51459 20 5.51459Z"/>
<path fill-rule="evenodd" clip-rule="evenodd" d="M16 9.51459C16 8.9623 16.4477 8.51459 17 8.51459H23C23.5523 8.51459 24 8.9623 24 9.51459C24 10.0669 23.5523 10.5146 23 10.5146H17C16.4477 10.5146 16 10.0669 16 9.51459Z"/>
</svg>
