<?xml version="1.0" encoding="iso-8859-1"?>
<!-- Generator: Adobe Illustrator 19.0.0, SVG Export Plug-In . SVG Version: 6.00 Build 0)  -->
<svg version="1.1" id="Layer_1" xmlns="http://www.w3.org/2000/svg" xmlns:xlink="http://www.w3.org/1999/xlink" x="0px" y="0px"
	 viewBox="-814 816 370 370" style="enable-background:new -814 816 370 370;" xml:space="preserve">
<path style="fill:#DB3369;" d="M-739.926,915.435c-14.211,3.094-28.422,10.634-39.732,20.978
	c-16.918,15.661-26.585,37.509-26.585,60.614c-0.097,23.201,7.25,41.569,23.105,58.197c14.307,14.984,31.322,23.491,52.01,25.908
	c19.528,2.32,37.122-1.933,54.233-13.147c9.377-6.187,34.125-31.322,34.125-34.705c0-0.387-2.513-4.254-5.704-8.701l-5.607-8.12
	l-5.124,6.38c-23.588,29.388-41.666,40.022-66.027,38.669c-22.331-1.257-41.376-12.954-52.783-32.385
	c-5.994-10.247-8.314-19.044-8.314-31.612c0.097-15.178,3.867-26.295,12.954-38.476c14.984-20.108,42.439-29.968,66.317-23.878
	c21.945,5.607,37.992,21.268,70.088,68.637c17.401,25.618,26.102,36.735,38.186,48.916c14.888,15.081,26.778,22.621,41.569,26.585
	c9.184,2.513,28.518,2.997,37.702,0.967c20.108-4.447,38.669-16.434,50.85-32.675c5.22-7.057,10.441-16.144,10.537-18.368
	c0-0.773-2.997-1.16-10.537-1.16h-10.441l-3.674,5.317c-8.797,12.761-23.975,23.201-39.249,26.875
	c-7.347,1.837-19.818,2.03-27.165,0.483c-21.848-4.64-41.763-23.685-71.344-68.057c-15.564-23.395-27.745-39.056-39.636-50.753
	c-13.051-12.857-23.588-19.914-36.542-24.458c-7.637-2.707-9.667-2.997-22.428-3.287
	C-729.002,913.985-735.189,914.371-739.926,915.435z M-556.538,915.821c-7.927,2.127-17.884,6.864-26.778,12.857
	c-6.767,4.544-22.525,20.011-28.422,27.938l-4.157,5.51l5.704,8.217c3.094,4.544,5.8,8.217,6.09,8.217c0.29,0,1.74-1.547,3.19-3.577
	c25.135-33.255,48.723-45.823,76.081-40.409c21.461,4.157,40.409,19.528,48.336,39.249c1.45,3.48,2.9,7.927,3.287,9.861l0.677,3.674
	h-40.216h-40.119v10.151v10.151h50.173h50.076l0.58-4.737c1.353-11.794-2.32-30.452-8.604-42.923
	c-8.701-17.304-26.198-33.159-44.856-40.602C-519.996,913.695-542.231,912.148-556.538,915.821z"/>
</svg>
