<?xml version="1.0" encoding="utf-8"?>
<!-- Generator: Adobe Illustrator 23.0.3, SVG Export Plug-In . SVG Version: 6.00 Build 0)  -->
<svg version="1.1" id="aeon" xmlns="http://www.w3.org/2000/svg" xmlns:xlink="http://www.w3.org/1999/xlink" x="0px" y="0px"
	 viewBox="0 0 500 500" style="enable-background:new 0 0 500 500;" xml:space="preserve">
<style type="text/css">
	.st0{fill:#5FBCD2;}
	.st1{fill:#2C89A0;}
	.st2{fill:#154450;}
	.st3{fill:#FFFFFF;}
</style>
<ellipse transform="matrix(0.3209 -0.9471 0.9471 0.3209 -66.4884 407.2434)" class="st0" cx="250.8" cy="250" rx="246.1" ry="117.8"/>
<ellipse transform="matrix(0.7958 -0.6056 0.6056 0.7958 -100.1825 202.9209)" class="st1" cx="250.8" cy="250" rx="246.1" ry="117.8"/>
<ellipse transform="matrix(0.994 -0.1094 0.1094 0.994 -25.8372 28.9249)" class="st2" cx="250.8" cy="250" rx="246.1" ry="117.8"/>
<path class="st3" d="M231.9,231.7c3.9-9.9,1.2-19-12.2-22.1c-15.1-3.4-30.2-1.9-45,1.7c-7.4,1.8-14.5,4.6-22.4,7.2
	c2.1-11.1,4.1-21.8,6.3-33.2c6.9-1.4,13.8-3,20.7-4.1c16.4-2.6,32.9-4.3,49.6-2.2c15.7,1.9,28.7,8,37.2,21.9
	c0.2,0.3,0.7,0.4,1.4,0.8c1.6-1.3,3.4-2.7,5.2-4.1c17.4-14,37.1-21.8,59.8-20.8c4.3,0.2,8.7,0.7,12.9,1.7
	c20.5,5,31.1,21.2,28.3,42.6c-2.6,20.2-14.2,33.1-32.5,40.5c-12.7,5.1-26,7.2-39.5,7.5c-10.8,0.2-21.5,0-32,0
	c-4.1,10.8-1.2,17.7,9,21.1c10.9,3.8,22.1,3,33.3,1.8c11.6-1.2,22.8-4.1,33.5-9c0.9-0.4,1.9-0.5,3.6-1c-2.2,11.3-4.2,22-6.3,33.4
	c-7,1.4-13.8,3-20.7,4.1c-16.2,2.5-32.5,4.2-49,2.3c-15.9-1.9-29.1-7.9-37.8-22c-0.2-0.3-0.7-0.4-1.5-0.9c-1.7,1.4-3.6,3-5.5,4.5
	c-20.3,16.1-43.1,23.7-69.1,19.3c-22.5-3.8-34.5-21-31.3-43.8c3.2-23.2,17.9-35.5,38.9-42.2c10.9-3.5,22.2-5.1,33.7-5.2
	C210.7,231.6,221.2,231.7,231.9,231.7z M226.6,257.4c-12.1,0.7-23.6,1.1-35.1,2.2c-3.7,0.4-7.6,2.3-10.9,4.2
	c-6.6,3.9-9.1,11.2-7.2,19c1.5,6.3,7.1,10.6,14.7,11.3C209.2,296.1,226.4,280.3,226.6,257.4z M274.3,242.9c12.2,0,24,1,35.6-1.6
	c3.6-0.8,7.2-2.2,10.3-4.1c6.7-4.1,9.3-11.8,7.2-19.6c-1.7-6.2-7.4-10.3-15.1-10.9C291.3,205.2,274.8,220.6,274.3,242.9z"/>
</svg>
