<?xml version="1.0" encoding="utf-8"?>
<!-- Generator: Adobe Illustrator 23.0.3, SVG Export Plug-In . SVG Version: 6.00 Build 0)  -->
<svg version="1.1" id="aergo" xmlns="http://www.w3.org/2000/svg" xmlns:xlink="http://www.w3.org/1999/xlink" x="0px" y="0px"
	 viewBox="0 0 500 500" style="enable-background:new 0 0 500 500;" xml:space="preserve">
<style type="text/css">
	.st0{fill:url(#SVGID_1_);}
	.st1{fill:url(#SVGID_2_);}
	.st2{fill:#FF36AF;}
</style>
<linearGradient id="SVGID_1_" gradientUnits="userSpaceOnUse" x1="222.0431" y1="492.958" x2="222.0431" y2="237.8842">
	<stop  offset="0" style="stop-color:#8D8D8D"/>
	<stop  offset="0.9996" style="stop-color:#504D4F"/>
</linearGradient>
<path class="st0" d="M22.2,493c-0.5-5-4-42.8,32.2-92.9c32.3-44.7,110.7-74.2,181.6-98.4l6.3-2.1c47.7-16.3,115.2-46.8,130.8-61.6
	l49.1,51.8c-32,30.3-124,66.1-156.7,77.3l-6.4,2.2c-34.2,11.7-125.2,42.7-146.8,72.7c-20,27.7-19,50.7-19,50.9L22.2,493z"/>
<linearGradient id="SVGID_2_" gradientUnits="userSpaceOnUse" x1="250.2235" y1="495.2887" x2="250.2235" y2="56.7237">
	<stop  offset="0" style="stop-color:#D3D3D3"/>
	<stop  offset="0.9996" style="stop-color:#3B3A3C"/>
</linearGradient>
<path class="st1" d="M355.4,495.3H284c0-29-9.8-53.4-17.6-73.1c-1.1-2.7-2.1-5.3-3.1-7.8c-4.3-11.1-22.3-37.9-36.7-59.3
	c-8.1-12.1-16.6-24.6-23.5-35.7c-2.3-3.6-4.7-7.3-7.1-11.1c-21.4-32.9-50.7-78-50.7-145.6c0-38.6,15.1-77.2,41.5-106l52.6,48.3
	c-14.2,15.5-22.7,37.1-22.7,57.7c0,46.4,19.9,77.1,39.2,106.7c2.7,4.1,5.3,8.1,7.7,12c6.4,10.2,14.2,21.7,22.4,33.9
	c18.9,28.2,36.8,54.8,44,73.3c0.9,2.3,1.8,4.7,2.8,7.2C341.7,418.4,355.4,452.6,355.4,495.3z"/>
<path class="st2" d="M422.2,289.7l-49.1-51.8c19-18,32.4-33.7,32.4-72.8c0-55.5-45.8-89.8-88.2-89.8c-33.8,0-60,10-78,29.6
	l-52.6-48.3c22.1-24.1,62.7-52.8,130.7-52.8c45.1,0,86.6,18.4,116.8,51.7c27.2,30.1,42.9,70,42.9,109.5
	C476.9,229.1,450.6,262.8,422.2,289.7z"/>
</svg>
