<?xml version="1.0" encoding="iso-8859-1"?>
<!-- Generator: Adobe Illustrator 19.0.0, SVG Export Plug-In . SVG Version: 6.00 Build 0)  -->
<svg version="1.1" id="Layer_1" xmlns="http://www.w3.org/2000/svg" xmlns:xlink="http://www.w3.org/1999/xlink" x="0px" y="0px"
	 viewBox="633.5 0 500 500" style="enable-background:new 633.5 0 500 500;" xml:space="preserve">
<g id="SingularityNET">
	<g id="Group">
		<g id="Vector" transform="translate(59.406 -33)">
			<path id="path0_fill" style="fill:#263238;" d="M851.419,45.996c12.405,12.405,24.811,26.362,34.115,40.318
				c37.216,63.578,4.652,119.402-3.101,134.909c-3.101,6.203-3.101,12.405,1.551,18.608c4.652,7.753,17.057,9.304,23.26,4.652
				c29.463-24.811,31.014-77.534,32.564-88.389c0-10.855-1.551-21.71-4.652-32.564c-3.101-10.855-7.753-20.159-12.405-29.463
				c-4.652-9.304-10.855-17.057-18.608-24.811c-12.405-13.956-29.463-24.811-46.52-32.564c-3.101-1.551-6.203-1.551-7.753,0
				C848.317,39.794,848.317,42.895,851.419,45.996L851.419,45.996z"/>
		</g>
		<g id="Vector_1_" transform="translate(50.918 -14.644)">
			<path id="path1_fill" style="fill:#263238;" d="M815.123,503.017c-12.405-12.405-24.811-26.362-34.115-40.318
				c-37.216-63.578-4.652-119.402,3.101-134.909c4.652-6.203,4.652-12.405,0-18.608c-4.652-7.753-17.057-9.304-23.26-4.652
				c-29.463,24.811-31.014,77.534-32.564,88.389c0,10.855,1.551,21.71,4.652,32.564c3.101,10.855,7.753,20.159,12.405,29.463
				c4.652,9.304,10.855,17.057,18.608,24.811c12.405,13.956,29.463,24.811,46.52,32.564c1.551,1.551,4.652,0,6.203-1.551
				C818.224,509.22,818.224,506.118,815.123,503.017L815.123,503.017z"/>
		</g>
		<g id="Vector_2_" transform="translate(50.751 -32.996)">
			<path id="path2_fill" style="fill:#6916FF;" d="M949.16,393.407c-1.551-27.912-13.956-58.926-32.564-80.635
				c-20.159-21.71-43.419-37.216-65.129-49.622c-21.71-13.956-43.419-26.362-58.926-41.868
				c-15.507-15.507-24.811-32.564-29.463-54.274c-3.101-21.71-1.551-43.419,7.753-63.578c9.304-21.71,24.811-40.318,43.419-57.375
				c1.551-1.551,3.101-4.652,1.551-7.753c-1.551-3.101-6.203-4.652-9.304-1.551c-23.26,10.855-44.97,27.912-60.477,52.723
				c-17.057,23.26-23.26,54.274-21.71,83.737c1.551,15.507,4.652,29.463,10.855,43.419c6.203,13.956,15.507,26.362,24.811,37.216
				c20.159,21.71,44.97,35.666,66.679,48.071c21.71,12.405,41.868,24.811,58.926,40.318c15.507,13.956,26.362,34.115,29.463,55.824
				c4.652,21.71,1.551,44.97-7.753,66.679s-26.362,40.318-44.97,55.824c-3.101,1.551-3.101,6.203-1.551,7.753
				c1.551,3.101,6.203,4.652,9.304,1.551c21.71-13.956,43.419-31.014,58.926-54.274C944.508,452.332,950.711,422.869,949.16,393.407
				L949.16,393.407z"/>
		</g>
	</g>
</g>
</svg>
