<?xml version="1.0" encoding="utf-8"?>
<!-- Generator: Adobe Illustrator 24.1.0, SVG Export Plug-In . SVG Version: 6.00 Build 0)  -->
<svg version="1.1" id="AION" xmlns="http://www.w3.org/2000/svg" xmlns:xlink="http://www.w3.org/1999/xlink" x="0px" y="0px"
	 viewBox="0 0 500 500" style="enable-background:new 0 0 500 500;" xml:space="preserve">
<path d="M187.4,2.6c41.6,0,83.2,0,124.7,0c0.2,0.4,0.4,0.8,0.5,1.2c9.3,26.3,18.7,52.6,28,78.8c13.4,37.8,26.8,75.6,40.3,113.3
	c19.7,55.5,39.4,111,59.1,166.4c15,42.3,30.1,84.7,45.1,127c0.3,0.8,0.6,1.7,0.9,2.6c-35.2,0-70.3,0-105.4,0
	C337.1,369.5,293.5,246.9,250,124.3c-0.1,0-0.2,0-0.3,0c-43.5,122.6-87.1,245.2-130.7,367.8c-0.7,0-1.2,0-1.8,0
	c-15.3,0-30.6,0-45.8,0c-19.3,0-38.5,0-57.8,0c0-0.2,0-0.4,0-0.6c0.2-0.4,0.4-0.8,0.6-1.2c1.5-4.1,2.9-8.3,4.4-12.4
	c14-39.5,28.1-79,42.1-118.5c14.6-41.2,29.3-82.5,43.9-123.7c11.1-31.3,22.3-62.6,33.4-93.9c15.4-43.4,30.8-86.8,46.2-130.1
	C185.3,8.7,186.3,5.7,187.4,2.6z"/>
<path d="M249.8,384.4c31.4,0,56.6,25.2,56.4,56.9c-0.2,31.3-26,56.5-57.6,55.8c-30-0.6-55.1-25.1-55.1-56.4
	C193.5,409.5,218.7,384.4,249.8,384.4z"/>
</svg>
