<svg width="25" height="25" viewBox="0 0 25 25" fill="none" xmlns="http://www.w3.org/2000/svg">
<g clip-path="url(#clip0_1113_10450)">
<path d="M19.1629 9.0478C19.1629 12.9671 12.0717 16.139 12.0717 16.139C12.0717 16.139 4.98047 12.9671 4.98047 9.0478C4.98047 5.12845 8.16241 1.9566 12.0818 1.9566C16.0011 1.9566 19.173 5.12845 19.173 9.0478H19.1629Z" stroke="#A8AFB7" stroke-width="1.71724" stroke-miterlimit="10"/>
<path d="M15.4255 9.0478C15.4255 12.9671 12.082 16.139 12.082 16.139C12.082 16.139 8.7384 12.9671 8.7384 9.0478C8.7384 5.12845 10.2334 1.9566 12.082 1.9566C13.9305 1.9566 15.4255 5.12845 15.4255 9.0478V9.0478Z" stroke="#A8AFB7" stroke-width="1.71724" stroke-miterlimit="10"/>
<path d="M14.4255 16.9067H9.72831C9.24295 16.9067 8.84949 17.3002 8.84949 17.7856V21.1493C8.84949 21.6347 9.24295 22.0282 9.72831 22.0282H14.4255C14.9108 22.0282 15.3043 21.6347 15.3043 21.1493V17.7856C15.3043 17.3002 14.9108 16.9067 14.4255 16.9067Z" stroke="#A8AFB7" stroke-width="1.71724" stroke-miterlimit="10"/>
<path d="M19.1629 9.04783C17.9608 8.09829 16.7082 8.20941 15.4152 9.04783C13.0919 8.06799 10.8595 8.01748 8.72809 9.04783C7.47552 8.1387 6.22294 7.94677 4.98047 9.04783" stroke="#A8AFB7" stroke-width="1.71724" stroke-miterlimit="10"/>
</g>
<defs>
<clipPath id="clip0_1113_10450">
<rect width="15.8895" height="21.7887" fill="white" transform="translate(4.13232 1.09802)"/>
</clipPath>
</defs>
</svg>
