<svg width="24" height="24" viewBox="0 0 24 24" fill="none" xmlns="http://www.w3.org/2000/svg">
<g clip-path="url(#clip0_21006_47238)">
<path fill-rule="evenodd" clip-rule="evenodd" d="M8.73223 3.45112C6.87564 4.53084 5.6274 6.5395 5.6274 8.84038C5.6274 9.55677 5.95298 10.3069 6.55266 11.0723C7.14311 11.8259 7.94912 12.529 8.79103 13.1408C8.17335 11.9349 7.66814 10.4573 7.66814 8.84039C7.66814 6.78332 8.05862 4.88006 8.72856 3.45891C8.72978 3.45632 8.73101 3.45372 8.73223 3.45112ZM11.8701 0.890564C7.47811 0.890564 3.91016 4.44523 3.91016 8.84038C3.91016 10.0837 4.47097 11.1997 5.20089 12.1314C5.9338 13.0668 6.88977 13.8847 7.81101 14.5513C8.73698 15.2214 9.65785 15.7601 10.3443 16.1304C10.6886 16.3161 10.9763 16.4607 11.1795 16.5596C11.2664 16.6019 11.3379 16.6359 11.3919 16.6612L11.8703 17.1151L12.3692 16.6419C12.4167 16.6194 12.4741 16.592 12.5405 16.5596C12.7436 16.4607 13.0314 16.3161 13.3756 16.1304C14.0621 15.7601 14.983 15.2214 15.9089 14.5513C16.8302 13.8847 17.7861 13.0668 18.519 12.1314C19.0766 11.4197 19.5355 10.6004 19.7211 9.699H19.8199V8.84038C19.8199 4.44682 16.2636 0.890564 11.8701 0.890564ZM11.8701 2.6078C11.4724 2.6078 10.8527 2.98029 10.2819 4.19115C9.74228 5.33577 9.38538 6.97811 9.38538 8.84039C9.38538 10.5644 10.1258 12.1713 10.9179 13.387C11.2564 13.9065 11.5953 14.3407 11.8703 14.6655C12.1453 14.3407 12.4843 13.9065 12.8227 13.387C13.6148 12.1713 14.3553 10.5644 14.3553 8.84039C14.3553 6.97815 13.9983 5.33583 13.4586 4.19121C12.8877 2.98037 12.2678 2.6078 11.8701 2.6078ZM14.9619 13.1167C15.574 11.9153 16.0725 10.4465 16.0725 8.84039C16.0725 6.78328 15.6819 4.88 15.0118 3.45885C15.011 3.45707 15.0101 3.45529 15.0093 3.45351C16.7635 4.47705 17.971 6.33302 18.0925 8.48205V8.84038C18.0925 9.55677 17.767 10.3069 17.1673 11.0723C16.5845 11.8161 15.7919 12.5107 14.9619 13.1167Z" fill="#E35EA3"/>
<path fill-rule="evenodd" clip-rule="evenodd" d="M9.49728 17.5706C9.49677 17.5718 9.49605 17.5738 9.49605 17.5782V20.942C9.49605 20.9463 9.49677 20.9484 9.49728 20.9496C9.49804 20.9514 9.49951 20.9538 9.50197 20.9563C9.50442 20.9587 9.50686 20.9602 9.50865 20.9609C9.50987 20.9615 9.51188 20.9622 9.51625 20.9622H14.2134C14.2178 20.9622 14.2198 20.9615 14.221 20.9609C14.2228 20.9602 14.2252 20.9587 14.2277 20.9563C14.2301 20.9538 14.2316 20.9514 14.2324 20.9496C14.2329 20.9483 14.2336 20.9463 14.2336 20.942V17.5782C14.2336 17.5738 14.2329 17.5718 14.2324 17.5706C14.2316 17.5688 14.2301 17.5664 14.2277 17.5639C14.2252 17.5615 14.2228 17.56 14.221 17.5592C14.2198 17.5587 14.2178 17.558 14.2134 17.558H9.51625C9.51188 17.558 9.50988 17.5587 9.50865 17.5592C9.50686 17.56 9.50442 17.5615 9.50197 17.5639C9.49951 17.5664 9.49804 17.5688 9.49728 17.5706ZM7.77881 17.5782C7.77881 16.6186 8.55669 15.8408 9.51625 15.8408H14.2134C15.173 15.8408 15.9509 16.6186 15.9509 17.5782V20.942C15.9509 21.9015 15.173 22.6794 14.2134 22.6794H9.51625C8.55669 22.6794 7.77881 21.9015 7.77881 20.942V17.5782Z" fill="#8A0F55"/>
<path fill-rule="evenodd" clip-rule="evenodd" d="M8.59756 7.86287C10.7158 6.98108 12.9122 7.04504 15.1276 7.88531C15.7481 7.54345 16.4059 7.32684 17.0923 7.31159C17.942 7.29271 18.7464 7.58466 19.4833 8.16671L18.4188 9.51425C17.9536 9.14677 17.5307 9.01951 17.1304 9.02841C16.7129 9.03768 16.2307 9.19768 15.6706 9.5609L15.2889 9.80839L14.8698 9.63162C12.7365 8.73191 10.765 8.70709 8.89 9.61351L8.4276 9.83704L8.01196 9.53536C7.46304 9.13695 6.99942 8.95976 6.60577 8.94465C6.23903 8.93057 5.82398 9.05255 5.33814 9.48308L4.19922 8.19788C4.95585 7.52736 5.78834 7.19477 6.67164 7.22867C7.36032 7.25511 8.00539 7.50171 8.59756 7.86287Z" fill="#E35EA3"/>
</g>
<defs>
<clipPath id="clip0_21006_47238">
<rect width="15.8895" height="21.7887" fill="white" transform="translate(3.92041 0.890625)"/>
</clipPath>
</defs>
</svg>
