<?xml version="1.0" encoding="utf-8"?>
<!-- Generator: Adobe Illustrator 23.0.3, SVG Export Plug-In . SVG Version: 6.00 Build 0)  -->
<svg version="1.1" id="ait" xmlns="http://www.w3.org/2000/svg" xmlns:xlink="http://www.w3.org/1999/xlink" x="0px" y="0px"
	 viewBox="0 0 500 500" style="enable-background:new 0 0 500 500;" xml:space="preserve">
<style type="text/css">
	.st0{fill:url(#SVGID_1_);}
	.st1{fill:url(#SVGID_2_);}
	.st2{fill:url(#SVGID_3_);}
	.st3{fill:url(#SVGID_4_);}
</style>
<linearGradient id="SVGID_1_" gradientUnits="userSpaceOnUse" x1="292.2639" y1="374.9876" x2="50.3534" y2="374.9876">
	<stop  offset="0" style="stop-color:#00AAE7"/>
	<stop  offset="0.8002" style="stop-color:#14418D"/>
</linearGradient>
<path class="st0" d="M50.4,408.6h232.8c7.3,0,11.6-8.1,7.6-14.2l-35.4-53H50.4V408.6z"/>
<linearGradient id="SVGID_2_" gradientUnits="userSpaceOnUse" x1="126.0773" y1="408.6054" x2="126.0773" y2="88.4357">
	<stop  offset="0" style="stop-color:#00AAE7"/>
	<stop  offset="1" style="stop-color:#02509C"/>
</linearGradient>
<path class="st1" d="M38,408.6c0,0,160.9,0,96.2,0c-19.3,0-27.3-12-30.6-24c-3.2-11.8-1.4-24.4,4.5-35.2l141.2-261H183
	c-18.9,0-36.2,10.3-45.2,26.9L7.2,356.9C-5.4,380.3,11.5,408.6,38,408.6z"/>
<linearGradient id="SVGID_3_" gradientUnits="userSpaceOnUse" x1="324.3208" y1="88.4357" x2="324.3208" y2="408.6054">
	<stop  offset="0" style="stop-color:#00AAE7"/>
	<stop  offset="1" style="stop-color:#02509C"/>
</linearGradient>
<path class="st2" d="M471.9,408.6h-82.5c-8.8,0-17-4.8-21.2-12.6L226.1,133.2c0,0-26.5-44.8-42.2-44.8c-37.8,0,85.5,0,85.5,0
	c18.1,0,34.7,9.9,43.3,25.8L471.9,408.6z"/>
<linearGradient id="SVGID_4_" gradientUnits="userSpaceOnUse" x1="443.0663" y1="408.6054" x2="443.0663" y2="88.4357">
	<stop  offset="0" style="stop-color:#01AAE1"/>
	<stop  offset="1" style="stop-color:#005DA3"/>
</linearGradient>
<path class="st3" d="M482.5,408.6c0,0-113.7,0-90.4,0c21.1,0,20.5-25.3,20.5-25.3l2.8-280.3c0-8.1,6.6-14.7,14.7-14.7h52.5
	c8.1,0,14.7,6.6,14.7,14.7v290.8C497.2,402,490.6,408.6,482.5,408.6z"/>
</svg>
