<?xml version="1.0" encoding="utf-8"?>
<!-- Generator: Adobe Illustrator 24.2.2, SVG Export Plug-In . SVG Version: 6.00 Build 0)  -->
<svg version="1.1" id="Layer_1" xmlns="http://www.w3.org/2000/svg" xmlns:xlink="http://www.w3.org/1999/xlink" x="0px" y="0px"
	 viewBox="0 0 500 500" style="enable-background:new 0 0 500 500;" xml:space="preserve">
<style type="text/css">
	.st0{fill:url(#SVGID_1_);}
</style>
<linearGradient id="SVGID_1_" gradientUnits="userSpaceOnUse" x1="25.54" y1="252.248" x2="474.46" y2="252.248" gradientTransform="matrix(1 0 0 -1 0 502.74)">
	<stop  offset="0" style="stop-color:#E168FD"/>
	<stop  offset="1" style="stop-color:#7B00FC"/>
</linearGradient>
<path class="st0" d="M250,498.9c-12.2,0-24.3-3.2-34.9-9.3L60.4,400.2c-21.6-12.5-34.9-35.5-34.9-60.5V161.2
	c0-24.9,13.3-48,34.9-60.5l154.7-89.3c21.6-12.4,48.2-12.4,69.8,0l154.7,89.3c21.6,12.5,34.9,35.5,34.9,60.5v178.6
	c0,24.9-13.3,48-34.9,60.5l-154.7,89.3C274.3,495.7,262.2,498.9,250,498.9z M250,26.3c-8,0-15.9,2.1-22.8,6L72.5,121.7
	c-14.1,8.2-22.8,23.2-22.8,39.5v178.6c0.1,16.2,8.7,31.2,22.8,39.3l154.7,89.4c14.1,8.1,31.4,8.1,45.5,0l154.7-89.3
	c14-8.1,22.7-23.1,22.8-39.3V161.2c0-16.3-8.7-31.3-22.8-39.5L272.8,32.4C265.8,28.4,258,26.3,250,26.3z M250,417.8
	c-6.6,0-13.1-1.7-18.8-5.1L118.8,348c-11.6-6.8-18.7-19.2-18.7-32.6V185.6c0-13.4,7.1-25.8,18.7-32.6l112.4-64.8
	c11.7-6.7,26-6.7,37.7,0L381.2,153c11.6,6.7,18.8,19.2,18.8,32.6v129.7c0,13.4-7.2,25.9-18.8,32.6l-112.4,64.8
	C263.1,416.1,256.6,417.8,250,417.8L250,417.8z M250,101.3c-3.4,0-6.8,0.9-9.7,2.6l-112.4,64.9c-6,3.5-9.6,10-9.6,16.9v129.7
	c0,7,3.7,13.4,9.8,16.9l112.3,64.8c6,3.5,13.5,3.5,19.5,0l112.4-64.8c6-3.5,9.7-9.9,9.7-16.9V185.6c0-7-3.7-13.4-9.8-16.9
	l-112.5-64.8C256.8,102.2,253.4,101.3,250,101.3L250,101.3z M250,335.6c-3.4,0-6.7-0.9-9.6-2.6l-57-32.9c-6-3.5-9.6-9.9-9.6-16.8
	v-65.8c0-6.9,3.7-13.3,9.6-16.7l57-32.9c6-3.4,13.3-3.4,19.3,0l57,32.9c6,3.4,9.6,9.8,9.6,16.7v65.8c0,6.9-3.7,13.3-9.6,16.7
	l-57,32.9C256.7,334.7,253.4,335.6,250,335.6L250,335.6z M250,177.5c-1.3,0-2.5,0.3-3.6,0.9l-57,33c-2.2,1.3-3.5,3.5-3.6,6v66
	c0,2.6,1.4,4.9,3.6,6.2l57,33.1c2.2,1.3,5,1.3,7.2,0l57-32.9c2.3-1.3,3.6-3.8,3.6-6.4v-65.8c-0.1-2.5-1.4-4.8-3.6-6l-57-33.1
	C252.5,177.8,251.3,177.5,250,177.5L250,177.5z"/>
</svg>
