<?xml version="1.0" encoding="utf-8"?>
<!-- Generator: Adobe Illustrator 26.0.3, SVG Export Plug-In . SVG Version: 6.00 Build 0)  -->
<svg version="1.1" id="alcx" xmlns="http://www.w3.org/2000/svg" xmlns:xlink="http://www.w3.org/1999/xlink" x="0px" y="0px"
	 viewBox="0 0 500 500" style="enable-background:new 0 0 500 500;" xml:space="preserve">
<style type="text/css">
	.st0{fill:#EFC9A9;}
</style>
<path class="st0" d="M424.8,75.2C378.1,28.5,316,2.8,250,2.8c-66,0-128.1,25.7-174.8,72.4C28.5,121.9,2.8,184,2.8,250
	c0,66,25.7,128.1,72.4,174.8c46.7,46.7,108.8,72.4,174.8,72.4c66,0,128.1-25.7,174.8-72.4S497.2,316,497.2,250
	C497.2,184,471.5,121.9,424.8,75.2z M159.9,377.6H95.5l19.4-36.2L159.9,377.6z M90.2,308.2V199.5l154.5,122.9v110L90.2,308.2z
	 M255.2,388.1h53.3l-53.3,44V388.1z M255.2,377.6v-57.8c0-1.6-0.7-3.1-2-4.1l-84.3-67l81-138.4l155.7,267.3H255.2z M344.8,252.3
	l64.8-51.5v107.9l-21.8,17.4L344.8,252.3z M339.4,243.1L254.5,97.3c-0.9-1.6-2.7-2.6-4.5-2.6c0,0,0,0,0,0c-1.9,0-3.6,1-4.5,2.6
	l-84.8,144.8l-67.3-53.5L250,65.8l156.4,124.1L339.4,243.1z M13.3,250c0-63.2,24.6-122.7,69.3-167.4
	c43.5-43.5,100.9-67.9,162.1-69.3v43.2l-163,127.9c-1.3,1-2,2.5-2,4.1c0,0,0,0,0,0h0v122.1c0,1.6,0.7,3.1,2,4.1l24.8,19.9
	l-24.4,45.7c-0.9,1.6-0.8,3.6,0.1,5.2c0.9,1.6,2.7,2.5,4.5,2.5H173l71.8,57.7v40.9c-61.3-1.3-118.7-25.8-162.1-69.3
	C37.9,372.7,13.3,313.2,13.3,250z M417.4,417.4c-43.5,43.5-100.9,67.9-162.1,69.3v-40.9l69.7-57.6h89.8c1.9,0,3.6-1,4.5-2.6
	c0.9-1.6,0.9-3.6,0-5.2l-26.2-45l25-20c1.2-1,2-2.5,2-4.1V189.9c0-1.6-0.7-3.1-2-4.1L255.2,56.6V13.4
	c61.3,1.3,118.7,25.8,162.1,69.3c44.7,44.7,69.3,104.1,69.3,167.4C486.7,313.2,462.1,372.7,417.4,417.4z"/>
</svg>
