<?xml version="1.0" encoding="utf-8"?>
<!-- Generator: Adobe Illustrator 24.2.2, SVG Export Plug-In . SVG Version: 6.00 Build 0)  -->
<svg version="1.1"
	 id="aleph" xmlns:cc="http://creativecommons.org/ns#" xmlns:dc="http://purl.org/dc/elements/1.1/" xmlns:rdf="http://www.w3.org/1999/02/22-rdf-syntax-ns#" xmlns:svg="http://www.w3.org/2000/svg"
	 xmlns="http://www.w3.org/2000/svg" xmlns:xlink="http://www.w3.org/1999/xlink" x="0px" y="0px" viewBox="0 0 500 500"
	 style="enable-background:new 0 0 500 500;" xml:space="preserve">
<style type="text/css">
	.st0{fill:#539BEF;}
</style>
<path id="path1830" class="st0" d="M378,378c-15.7,15.7-41.2,15.7-56.9,0c-15.7-15.7-15.7-41.2,0-56.9c15.7-15.7,41.2-15.7,56.9,0
	C393.7,336.8,393.7,362.3,378,378z M207.3,463.3l56.9-56.9c7.9-7.9,20.6-7.9,28.4,0c7.9,7.9,7.9,20.6,0,28.4l-56.9,56.9
	c-7.9,7.9-20.6,7.9-28.4,0C199.5,483.9,199.5,471.2,207.3,463.3z M434.9,406.5l56.9,56.9c7.9,7.9,7.9,20.6,0,28.4
	c-7.9,7.9-20.6,7.9-28.4,0l-56.9-56.9c-7.9-7.9-7.9-20.6,0-28.4C414.3,398.6,427,398.6,434.9,406.5z M178.9,178.9
	c-15.7,15.7-41.2,15.7-56.9,0c-15.7-15.7-15.7-41.2,0-56.9c15.7-15.7,41.2-15.7,56.9,0C194.6,137.7,194.6,163.2,178.9,178.9z
	 M207.3,65.1l56.9-56.9c7.9-7.9,20.6-7.9,28.4,0c7.9,7.9,7.9,20.6,0,28.4l-56.9,56.9c-7.9,7.9-20.6,7.9-28.4,0
	C199.5,85.7,199.5,73,207.3,65.1z M235.8,207.3l56.9,56.9c7.9,7.9,7.9,20.6,0,28.4s-20.6,7.9-28.4,0l-56.9-56.9
	c-7.9-7.9-7.9-20.6,0-28.4C215.2,199.5,227.9,199.5,235.8,207.3z M36.7,8.2l56.9,56.9c7.9,7.9,7.9,20.6,0,28.4
	c-7.9,7.9-20.6,7.9-28.4,0L8.2,36.7c-7.9-7.9-7.9-20.6,0-28.4C16.1,0.3,28.8,0.3,36.7,8.2z"/>
</svg>
