<svg width="24" height="24" viewBox="0 0 24 24" fill="none" xmlns="http://www.w3.org/2000/svg">
<path fill-rule="evenodd" clip-rule="evenodd" d="M10.8962 4.71229C11.2332 4.52258 11.6134 4.42291 12.0001 4.42291C12.3868 4.42291 12.767 4.52258 13.1039 4.71229C13.4409 4.90201 13.7233 5.17537 13.9238 5.506L13.926 5.50956L20.2785 16.1146L20.2846 16.1249C20.481 16.4652 20.585 16.8509 20.5861 17.2438C20.5872 17.6366 20.4854 18.0229 20.2908 18.3643C20.0963 18.7056 19.8158 18.99 19.4771 19.1893C19.1385 19.3885 18.7537 19.4956 18.3608 19.4999L18.3526 19.5L5.63933 19.5C5.24648 19.4957 4.86161 19.3885 4.52301 19.1893C4.1844 18.99 3.90387 18.7056 3.70931 18.3643C3.51476 18.0229 3.41297 17.6366 3.41407 17.2438C3.41517 16.8509 3.51912 16.4652 3.71558 16.1249L3.72168 16.1146L10.0742 5.50957L10.7176 5.89496L10.0763 5.506C10.2769 5.17537 10.5593 4.90201 10.8962 4.71229ZM11.3597 6.28245L5.01209 16.8793C4.94821 16.9917 4.91443 17.1187 4.91407 17.248C4.9137 17.3789 4.94763 17.5077 5.01248 17.6215C5.07733 17.7352 5.17084 17.83 5.28371 17.8965C5.39559 17.9623 5.52262 17.9979 5.65237 18H18.3478C18.4775 17.9979 18.6046 17.9623 18.7164 17.8965C18.8293 17.83 18.9228 17.7352 18.9877 17.6215C19.0525 17.5077 19.0865 17.3789 19.0861 17.248C19.0857 17.1187 19.052 16.9917 18.9881 16.8794L12.6413 6.28394C12.641 6.28344 12.6407 6.28295 12.6404 6.28245C12.5736 6.17291 12.4798 6.08233 12.368 6.01937C12.2557 5.95613 12.129 5.92291 12.0001 5.92291C11.8712 5.92291 11.7445 5.95613 11.6321 6.01937C11.5203 6.08233 11.4265 6.17291 11.3597 6.28245Z" fill="black"/>
<path fill-rule="evenodd" clip-rule="evenodd" d="M12 9C12.4142 9 12.75 9.33579 12.75 9.75V12.75C12.75 13.1642 12.4142 13.5 12 13.5C11.5858 13.5 11.25 13.1642 11.25 12.75V9.75C11.25 9.33579 11.5858 9 12 9Z" fill="black"/>
<path fill-rule="evenodd" clip-rule="evenodd" d="M11.25 15.75C11.25 15.3358 11.5858 15 12 15H12.0075C12.4217 15 12.7575 15.3358 12.7575 15.75C12.7575 16.1642 12.4217 16.5 12.0075 16.5H12C11.5858 16.5 11.25 16.1642 11.25 15.75Z" fill="black"/>
</svg>
