<?xml version="1.0" encoding="utf-8"?>
<!-- Generator: Adobe Illustrator 23.0.3, SVG Export Plug-In . SVG Version: 6.00 Build 0)  -->
<svg version="1.1" id="alis" xmlns="http://www.w3.org/2000/svg" xmlns:xlink="http://www.w3.org/1999/xlink" x="0px" y="0px"
	 viewBox="0 0 500 500" style="enable-background:new 0 0 500 500;" xml:space="preserve">
<style type="text/css">
	.st0{fill:#848DE0;}
	.st1{fill:#5B639B;}
	.st2{fill:#676FB0;}
	.st3{fill:#444A74;}
	.st4{fill:#52578B;}
	.st5{fill:#7780CB;}
	.st6{fill:#5B639C;}
</style>
<polygon class="st0" points="135.7,473 250.7,177.6 366.3,473 496,473 309.5,27.9 190.5,27.9 3.7,473 "/>
<polygon class="st1" points="309.5,27.9 250.7,177.6 393.3,229 "/>
<polygon class="st2" points="250.7,177.6 298.8,300.1 393.3,229 "/>
<polygon class="st3" points="393.3,229 496,473 298.8,300.1 "/>
<polygon class="st4" points="298.8,300.1 366.3,473 496,473 "/>
<polygon class="st0" points="250.7,177.6 190.5,27.9 309.5,27.9 "/>
<polygon class="st5" points="250.7,177.6 190.5,27.9 157,108.4 "/>
<polygon class="st2" points="250.7,177.6 157,108.4 107,227.2 "/>
<polygon class="st6" points="250.7,177.6 107,227.2 203.1,299.9 "/>
<polygon class="st4" points="203.1,299.9 3.7,473 107,227.2 "/>
<polygon class="st3" points="203.1,299.9 135.7,473 3.7,473 "/>
</svg>
