<?xml version="1.0" encoding="iso-8859-1"?>
<!-- Generator: Adobe Illustrator 19.0.0, SVG Export Plug-In . SVG Version: 6.00 Build 0)  -->
<svg version="1.1" id="Layer_1" xmlns="http://www.w3.org/2000/svg" xmlns:xlink="http://www.w3.org/1999/xlink" x="0px" y="0px"
	 viewBox="0 0 500 500" style="enable-background:new 0 0 500 500;" xml:space="preserve">
<linearGradient id="XMLID_2_" gradientUnits="userSpaceOnUse" x1="5.6118" y1="255.821" x2="495.3235" y2="255.821">
	<stop  offset="0" style="stop-color:#29B6FF"/>
	<stop  offset="0.5062" style="stop-color:#053EC3"/>
	<stop  offset="1" style="stop-color:#6416B9"/>
</linearGradient>
<path id="XMLID_4_" style="fill:url(#XMLID_2_);" d="M495.322,257.956c-12.839,24.449-30.661,45.015-50.609,63.749
	c-44.751,42.025-97.519,67.857-158.62,74.77c-87.559,9.907-164.701-14.04-229.943-74.053C38.6,306.278,23.61,287.96,10.251,268.18
	c-6.02-8.913-6.3-16.458-0.146-25.42c47.09-68.578,110.294-112.654,193.135-125.827c64.517-10.26,126.186-0.667,183.662,31.336
	c40.774,22.703,74.02,53.755,100.081,92.462c3.021,4.487,5.571,9.29,8.341,13.946C495.322,255.771,495.322,256.863,495.322,257.956z
	 M335.641,154.202c0.518,0.624,0.965,1.33,1.565,1.86c19.975,17.622,33.83,39.123,40.897,64.858
	c0.933,3.397,2.785,5.454,5.637,7.474c6.413,4.544,7.801,12.584,3.87,18.83c-3.964,6.301-12.194,8.506-18.69,5.009
	c-6.551-3.526-9.631-11.32-5.959-18.219c2.404-4.517,1.679-8.177,0.346-12.396c-24.184-76.5-112.208-106.487-177.54-65.248
	c-1.845,1.165-3.599,2.523-5.556,3.454c-4.144,1.972-7.444,0.895-9.609-3.124c-0.863-1.602-1.268-3.451-2.121-5.866
	c-57.252,19.833-101.86,55.206-136.582,104.487c33.186,47.602,75.499,82.358,130.844,103.419c-1.259-2.052-1.475-2.579-1.84-2.963
	c-0.941-0.987-1.941-1.917-2.931-2.857c-18.267-17.353-30.7-38.183-37.089-62.56c-1.181-4.509-2.43-8.443-6.331-11.85
	c-5.895-5.15-5.645-13.434-0.606-19.124c4.716-5.325,12.706-6.274,18.592-2.206c6.045,4.177,8.266,12.496,3.796,18.787
	c-2.863,4.028-2.529,7.388-1.383,11.402c18.241,63.931,81.454,102.1,152.394,81.004c11.027-3.278,21.068-10.07,31.323-15.68
	c7.225-3.953,10.562-2.901,13.152,5.183c0.214,0.668,0.815,1.211,1.584,2.308c55.944-19.954,99.783-55.081,134.098-103.656
	C433.962,208.424,391.034,173.435,335.641,154.202z M357.545,256.128c0.02,59.551-48.135,107.858-107.703,108.045
	c-59.304,0.186-108.077-48.418-108.099-107.723c-0.021-59.564,48.185-107.827,107.777-107.902
	C309.178,148.474,357.526,196.622,357.545,256.128z M343.114,256.857c0.131-51.595-41.34-93.622-92.643-93.884
	c-51.917-0.265-94.261,41.537-94.325,93.121c-0.065,51.317,41.868,93.384,93.151,93.451
	C300.944,349.612,342.984,308.078,343.114,256.857z M375.495,264.229c-4.013-0.32-7.107,1.948-7.756,6.658
	c-3.366,24.436-13.125,45.864-29.42,64.392c-3.521,4.003-3.435,8.112-0.484,10.913c3.184,3.024,7.384,2.462,11.445-1.547
	c0.58-0.572,1.12-1.19,1.649-1.812c12.343-14.503,21.526-30.749,26.604-49.154c1.949-7.065,3.313-14.292,4.517-19.576
	C381.931,267.48,379.514,264.55,375.495,264.229z M123.706,244.451c3.953,0.835,7.12-1.661,8.522-6.79
	c0.359-1.311,0.544-2.671,0.806-4.009c4.065-20.81,13.147-39.158,27.026-55.162c1.599-1.843,3.28-3.677,4.514-5.757
	c1.757-2.964,1.235-6.409-1.458-8.033c-2.199-1.326-5.587-1.511-8.218-1.007c-1.814,0.348-3.548,2.514-4.782,4.249
	c-6.305,8.863-13.023,17.507-18.484,26.877c-7.332,12.58-11.421,26.476-13.476,40.269
	C117.957,240.587,119.915,243.649,123.706,244.451z M250.332,322.002c6.008,0,12.017,0.048,18.024-0.01
	c9.776-0.096,12.339-2.883,10.898-12.403c-2.288-15.112-4.634-30.22-7.325-45.264c-0.926-5.182-0.535-8.748,3.738-12.897
	c13.976-13.573,13.536-35.645-0.169-49.255c-13.631-13.537-35.762-13.684-49.528-0.329c-13.815,13.403-14.472,35.602-0.734,49.299
	c4.12,4.108,4.874,7.664,3.893,12.958c-2.882,15.564-5.476,31.187-7.791,46.847c-1.133,7.666,1.701,10.742,9.33,10.994
	c6.547,0.216,13.107,0.045,19.661,0.045C250.332,321.993,250.332,321.997,250.332,322.002z"/>
</svg>
