<?xml version="1.0" encoding="utf-8"?>
<!-- Generator: Adobe Illustrator 23.0.3, SVG Export Plug-In . SVG Version: 6.00 Build 0)  -->
<svg version="1.1" id="amlt" xmlns="http://www.w3.org/2000/svg" xmlns:xlink="http://www.w3.org/1999/xlink" x="0px" y="0px"
	 viewBox="0 0 500 500" style="enable-background:new 0 0 500 500;" xml:space="preserve">
<style type="text/css">
	.st0{fill:#0047BB;}
</style>
<path class="st0" d="M486.5,226.5L273.3,13.3C260,0,238.4,0,225.1,13.3L11.9,226.5c-13.3,13.3-13.3,34.9,0,48.2l213.2,213.2
	c13.3,13.3,34.9,13.3,48.2,0l213.2-213.2C499.8,261.4,499.8,239.8,486.5,226.5z M119.5,314.6l-47.9-47.9c-8.6-8.6-8.6-22.5,0-31.1
	l47.9-47.9c8.6-8.6,22.5-8.6,31.1,0l47.9,47.9c8.6,8.6,8.6,22.5,0,31.1l-47.9,47.9C142,323.2,128.1,323.2,119.5,314.6z M313.3,386.9
	l-47.9,47.9c-8.6,8.6-22.5,8.6-31.1,0l-47.9-47.9c-8.6-8.6-8.6-22.5,0-31.1l47.9-47.9c8.6-8.6,22.5-8.6,31.1,0l47.9,47.9
	C321.9,364.4,321.9,378.3,313.3,386.9z M433.6,266.6l-47.9,47.9c-8.6,8.6-22.5,8.6-31.1,0l-47.9-47.9c-8.6-8.6-8.6-22.5,0-31.1
	l47.9-47.9c8.6-8.6,22.5-8.6,31.1,0l47.9,47.9C442.2,244.1,442.2,258,433.6,266.6z"/>
</svg>
