<?xml version="1.0" encoding="utf-8"?>
<!-- Generator: Adobe Illustrator 25.4.1, SVG Export Plug-In . SVG Version: 6.00 Build 0)  -->
<svg version="1.1" baseProfile="tiny" id="amp" xmlns="http://www.w3.org/2000/svg" xmlns:xlink="http://www.w3.org/1999/xlink"
	 x="0px" y="0px" viewBox="0 0 500 500" overflow="visible" xml:space="preserve">
<circle fill="#D9327C" cx="249.5" cy="249.5" r="249.5"/>
<path fill-rule="evenodd" fill="#FFFFFF" d="M239.4,127.5c-2.1,1.5-4.4,4.4-6.3,10c-1.7,5.2-10.9,31.9-22.4,65.2h77.6
	c-11.5-33.3-20.7-60-22.4-65.2c-1.9-5.6-4.2-8.5-6.3-10c-2-1.5-5-2.7-10.1-2.7C244.4,124.8,241.4,126,239.4,127.5z M124.8,202.7h53
	c13.1-37.9,23.9-69.5,25.8-75.1c3.3-10,8.8-18.8,17.1-25.1c8.4-6.3,18.4-9,28.8-9c10.5,0,20.4,2.7,28.8,9
	c8.3,6.3,13.8,15.1,17.1,25.1c1.9,5.6,12.7,37.2,25.8,75.1h52.9c8.6,0,15.6,7,15.6,15.6s-7,15.6-15.6,15.6h-42.2h-33h-99.1h-33
	h-42.2c-8.6,0-15.6-7-15.6-15.6S116.1,202.7,124.8,202.7z M124.8,265.1c-8.6,0-15.6,7-15.6,15.6s7,15.6,15.6,15.6h20.7l-8.3,24.1
	l-8.3,24.1l-3.1,9.1c-2.8,8.1,1.5,17,9.6,19.8c8.1,2.8,17-1.5,19.8-9.6l3.1-9.1l8.3-24.1c3.5-10,7.5-21.7,11.9-34.3h142.2
	c4.4,12.6,8.4,24.3,11.9,34.3l8.3,24.1l3.1,9.1c2.8,8.1,11.7,12.5,19.8,9.6c8.1-2.8,12.5-11.7,9.6-19.8l0,0l-3.1-9.1l-8.3-24.1
	l-8.3-24.1h20.6c8.6,0,15.6-7,15.6-15.6s-7-15.6-15.6-15.6h-31.4h-33H189.2h-33H124.8z M358.7,358.7l14.7-5.1
	C373.4,353.6,373.4,353.6,358.7,358.7z M358.7,358.7c-14.7,5.1-14.7,5.1-14.7,5.1L358.7,358.7z M140.3,358.7l14.7,5.1
	C155.1,363.8,155.1,363.8,140.3,358.7z M140.3,358.7c-14.7-5.1-14.7-5.1-14.7-5.1L140.3,358.7z"/>
</svg>
