<?xml version="1.0" encoding="utf-8"?>
<!-- Generator: Adobe Illustrator 24.1.2, SVG Export Plug-In . SVG Version: 6.00 Build 0)  -->
<svg version="1.1" id="AMPL" xmlns="http://www.w3.org/2000/svg" xmlns:xlink="http://www.w3.org/1999/xlink" x="0px" y="0px"
	 viewBox="0 0 500 500" style="enable-background:new 0 0 500 500;" xml:space="preserve">
<path d="M5.5,500c-0.4-6.9-0.4-13.9-0.1-20.8c2.3-0.7,4.7-1.2,7.1-1.5c7-1.2,13.9-2.9,20.6-4.9c1.9-0.6,3.7-1.2,5.5-2
	c8.9-3.5,16.8-9.2,22.8-16.7c4.2-5.2,7.8-10.8,10.9-16.8c4.4-8.1,8.3-16.5,11.7-25.1c6.9-17.3,13.9-34.7,20.7-52
	c23.6-59.7,47.2-119.5,70.8-179.2c22.4-56.8,44.3-113.7,65.9-170.8c0.4-1.2,0.9-2.3,1.4-3.5c7.9-2.2,15.8-4.5,23.9-6.7
	c0.5,1.2,0.9,2.2,1.3,3.2c9.1,25.5,18.2,51,27.3,76.5c31.1,86.9,62.3,173.8,94.3,260.4c8.7,23.7,17.6,47.3,26.5,70.9
	c3.5,9.6,7.6,19.1,12.3,28.2c2.1,3.9,4.3,7.7,6.7,11.4c7.4,11.5,18.9,19.8,32.2,23.3c7.1,1.9,14.4,3.3,21.7,4.3l5.2,0.8
	c0.7,2.3,0.3,4.6,0.4,6.8s0,4.7,0,7.1c0.1,2.3,0,4.6-0.1,6.8c-0.7,0.1-1.3,0.3-1.9,0.3c-0.8,0-1.6,0-2.5,0H309.4
	c-0.2-0.4-0.3-0.8-0.4-1.3c0-6.3,0-12.5,0-18.8c0.1-0.3,0.1-0.6,0.2-0.8c1.5-0.4,3.1-0.7,4.6-0.9c7.5-1,15-2.5,22.3-4.4
	c3-0.8,5.9-1.9,8.7-3c1.4-0.6,2.8-1.2,4.1-2c7.2-4.1,10.1-10.4,9.5-18.5c-0.3-3.7-1-7.3-1.9-10.9c-1.4-5.6-3.5-11-5.4-16.4
	c-38-105.9-75.5-212-112.6-318.2c-0.4-1.2-0.5-2.4-1.7-3.5c-0.4,0.2-0.9,0.4-1.2,0.8c-0.3,0.5-0.5,1.1-0.7,1.7
	c-18.1,52.2-37.5,104-56.7,155.9c-14.2,38.4-28.4,76.8-41.7,115.5c-5.3,15.5-10.4,31.1-15.4,46.8c-1.9,6-3.4,12.1-4.3,18.3
	c-0.7,4.2-0.8,8.4-0.4,12.6c0.6,5.5,3.5,10.5,8,13.7c2.9,2.1,6.1,3.7,9.6,4.9c5.4,1.9,11,3.3,16.7,4.3c6.3,1.2,12.6,2,18.8,3
	c0.4,0.1,0.8,0.2,1.3,0.3c0.2,0.5,0.3,0.9,0.3,1.4c0,6.1,0,12.1,0,18.2c0,0.4-0.1,0.7-0.2,1.1c-0.6,0.1-1.1,0.2-1.7,0.3
	c-0.8,0-1.6,0-2.5,0L5.5,500L5.5,500z"/>
</svg>
