<?xml version="1.0" encoding="utf-8"?>
<!-- Generator: Adobe Illustrator 25.2.0, SVG Export Plug-In . SVG Version: 6.00 Build 0)  -->
<svg version="1.1" id="anc" xmlns="http://www.w3.org/2000/svg" xmlns:xlink="http://www.w3.org/1999/xlink" x="0px" y="0px"
	 viewBox="0 0 500 500" style="enable-background:new 0 0 500 500;" xml:space="preserve">
<style type="text/css">
	.st0{fill:#4BDB4B;}
	.st1{opacity:0.4;enable-background:new    ;}
	.st2{opacity:0.65;enable-background:new    ;}
</style>
<path id="Path" class="st0" d="M250,500L250,500C112.5,500,0,387.5,0,250l0,0C0,112.5,112.5,0,250,0l0,0c137.5,0,250,112.5,250,250
	l0,0C500,387.5,387.5,500,250,500z"/>
<path id="Path_1_" class="st1" d="M395.4,298.9c12.5,22.9,4.2,52.1-16.7,64.6c-22.9,12.5-52.1,4.2-64.6-16.7L214.1,176
	c-12.5-22.9-4.2-52.1,18.8-64.6c22.9-14.6,50-6.2,64.6,16.7L395.4,298.9z"/>
<path id="Path_2_" class="st2" d="M198.9,346.8c-12.5,22.9-41.7,31.2-64.6,16.7c-22.9-12.5-31.3-41.7-16.7-64.6l97.9-170.8
	c12.5-22.9,41.7-31.2,64.6-16.7c22.9,12.5,31.2,41.7,16.7,64.6L198.9,346.8z"/>
<path id="Path_3_" d="M303.1,152.1c0,27.1-47.9,93.8-47.9,93.8s-45.8-66.7-45.8-93.8s20.8-47.9,47.9-47.9
	C284.4,104.2,303.1,127.1,303.1,152.1z"/>
</svg>
