<?xml version="1.0" encoding="utf-8"?>
<!-- Generator: Adobe Illustrator 23.0.4, SVG Export Plug-In . SVG Version: 6.00 Build 0)  -->
<svg version="1.1" id="ANKR" xmlns="http://www.w3.org/2000/svg" xmlns:xlink="http://www.w3.org/1999/xlink" x="0px" y="0px"
	 viewBox="0 0 500 500" style="enable-background:new 0 0 500 500;" xml:space="preserve">
<style type="text/css">
	.st0{fill:#2A8BCB;}
	.st1{fill:#35ADDD;}
	.st2{fill:#3D4599;}
</style>
<polygon class="st0" points="461.5,299.8 461.5,373.8 274.1,483.6 274.1,430.8 416,347.7 416,299.8 "/>
<polygon class="st1" points="230.9,432.2 230.9,485 41.1,373.8 41.1,299.8 86.6,299.8 86.6,347.7 "/>
<polygon class="st1" points="274.1,342 274.1,483.6 251.3,496.9 230.9,485 230.9,342 "/>
<path class="st0" d="M252.5,196.1c31.3,0,56.6,25.4,56.6,56.6s-25.4,56.6-56.6,56.6s-56.6-25.4-56.6-56.6S221.2,196.1,252.5,196.1
	 M252.5,150.6c-56.3,0-102.2,45.8-102.2,102.2s45.8,102.2,102.2,102.2s102.2-45.8,102.2-102.2S308.8,150.6,252.5,150.6L252.5,150.6z
	"/>
<polygon class="st1" points="86.6,203.9 86.6,153.6 251.3,57.2 416,153.6 416,203.9 461.5,203.9 461.5,127.5 251.3,4.4 41.1,127.5 
	41.1,203.9 "/>
<polygon class="st0" points="86.6,203.9 41.1,127.5 86.6,153.6 "/>
<polygon class="st0" points="251.3,57.2 251.3,4.4 86.6,153.6 "/>
<polygon class="st2" points="416,153.6 251.3,4.4 251.3,57.2 "/>
<polygon class="st2" points="461.5,127.5 416,203.9 461.5,203.9 "/>
<polygon class="st0" points="251.3,4.4 461.5,127.5 416,153.6 "/>
<polygon class="st0" points="41.1,299.8 86.6,347.7 41.1,373.8 "/>
<polygon class="st2" points="416,299.8 461.5,299.8 416,347.7 "/>
<polygon class="st2" points="416,347.7 274.1,483.6 461.5,373.8 "/>
<polygon class="st0" points="86.6,347.7 230.9,432.2 230.9,485 "/>
<polygon class="st1" points="461.5,299.8 416,347.7 461.5,373.8 "/>
</svg>
