<?xml version="1.0" encoding="utf-8"?>
<!-- Generator: Adobe Illustrator 24.2.0, SVG Export Plug-In . SVG Version: 6.00 Build 0)  -->
<svg version="1.1" id="Layer_1" xmlns="http://www.w3.org/2000/svg" xmlns:xlink="http://www.w3.org/1999/xlink" x="0px" y="0px"
	 viewBox="0 0 500 500" style="enable-background:new 0 0 500 500;" xml:space="preserve">
<style type="text/css">
	.st0{fill:url(#SVGID_1_);fill-opacity:5.000000e-02;}
	.st1{fill:url(#SVGID_2_);}
	.st2{fill-rule:evenodd;clip-rule:evenodd;fill:url(#SVGID_3_);}
	.st3{fill-rule:evenodd;clip-rule:evenodd;fill:url(#SVGID_4_);}
</style>
<linearGradient id="SVGID_1_" gradientUnits="userSpaceOnUse" x1="250" y1="326.4437" x2="250" y2="-2.5196" gradientTransform="matrix(1 0 0 -1 0 502)">
	<stop  offset="0" style="stop-color:#01E8F8"/>
	<stop  offset="1" style="stop-color:#01E8F8;stop-opacity:0"/>
</linearGradient>
<ellipse class="st0" cx="250" cy="250" rx="247.1" ry="248"/>
<linearGradient id="SVGID_2_" gradientUnits="userSpaceOnUse" x1="404.6282" y1="304.564" x2="414.0749" y2="183.0667" gradientTransform="matrix(1 0 0 -1 0 502)">
	<stop  offset="0" style="stop-color:#01E8F7"/>
	<stop  offset="1" style="stop-color:#00C2FF"/>
</linearGradient>
<path class="st1" d="M443.1,233.6c1.7-35.7-23.2-59.4-51.2-75.7l-18.2,107.6c12.6-0.7,18.8,4.1,21.1,6.4c2.8,2.8,9.8,11.3,1.4,24.8
	C413.7,293.7,441.1,276.8,443.1,233.6z"/>
<linearGradient id="SVGID_3_" gradientUnits="userSpaceOnUse" x1="187.5128" y1="383.1892" x2="315.4651" y2="180.8282" gradientTransform="matrix(1 0 0 -1 0 502)">
	<stop  offset="0" style="stop-color:#01E8F7"/>
	<stop  offset="1" style="stop-color:#00B3EC"/>
</linearGradient>
<path class="st2" d="M203.8,108.4l-21.8-21.9c32.7-4,119.1,1.1,202.8,53.8c1.4,5.7,0,14.2,0,14.2l7,3.5c6.1,8.7,16.4,33.5,9.1,63
	s-19.9,42-25.3,44.6c-11.2,0-30.3,6.5-36.5,35.4c-6.2,28.9-18,35.1-23.2,34.7l-123.5,1.4l-81.4-48.1L99.3,189l23.2-31.1l41.4-34
	l29.5-12L203.8,108.4L203.8,108.4z M349.7,149.6c-5.4,5.7-10.5,8.4-12,9.2c-31.8-6.8-43.3-23.3-43.3-23.3c30-0.2,57.1,7,76.9,19.1
	C371.3,154.5,360.6,151.1,349.7,149.6L349.7,149.6z"/>
<linearGradient id="SVGID_4_" gradientUnits="userSpaceOnUse" x1="239.4137" y1="288.8504" x2="250.8601" y2="-38.2913" gradientTransform="matrix(1 0 0 -1 0 502)">
	<stop  offset="0" style="stop-color:#01E8F7"/>
	<stop  offset="1" style="stop-color:#00C2FF"/>
</linearGradient>
<path class="st3" d="M338.2,300.9c-21.8,10.7-47.6,16.9-75.4,16.9c-77.9,0-141-49.1-141-109.7c0-44.7,34.5-83.2,83.9-100.3
	c-94,5.4-169.5,81.2-169.5,174.6c0,107.9,95.8,197,214,197c88.3,0,161.7-51.3,200.1-120.1C397.5,371.3,334.9,348.7,338.2,300.9
	L338.2,300.9z"/>
</svg>
