<?xml version="1.0" encoding="iso-8859-1"?>
<!-- Generator: Adobe Illustrator 19.0.0, SVG Export Plug-In . SVG Version: 6.00 Build 0)  -->
<svg version="1.1" id="Layer_1" xmlns="http://www.w3.org/2000/svg" xmlns:xlink="http://www.w3.org/1999/xlink" x="0px" y="0px"
	 viewBox="750 -750 2000 2000" style="enable-background:new 750 -750 2000 2000;" xml:space="preserve">
<path style="fill:#59018C;" d="M1759.941-736.845c534.48,7.502,973.808,434.797,976.402,985.629
	c2.539,538.942-444.132,985.417-983.434,983.892c-544.463-1.54-980.124-433.97-985.44-972.326
	C761.975-296.015,1204.249-736.281,1759.941-736.845z M1867.645,741.928c-247.179,0-492.985,0-745.635,0
	c201.996,231.621,447.332,335.845,747.017,294.748c207.208-28.416,374.385-130.842,511.428-297.168c-96.638,0-185.272,0-274.967,0
	c-38.992-80.026-77.513-159.085-118.519-243.243C1946.009,580.594,1907.822,659.214,1867.645,741.928z M1947.395-522.594
	c170.777,378.021,340.738,754.233,512.561,1134.569C2706.074,130.388,2410.737-416.946,1947.395-522.594z M1521.586-514.339
	c-221.406,61.465-450.949,251.922-533.85,531.044c-60.1,202.355-42.381,398.336,52.745,593.856
	C1202.19,232.459,1360.847-138.506,1521.586-514.339z M1962.361,313.339c-70.486-145.087-139.283-286.698-211.048-434.42
	c-71.807,148.107-140.297,289.372-210.621,434.42C1682.482,313.339,1819.26,313.339,1962.361,313.339z"/>
</svg>
