<?xml version="1.0" encoding="iso-8859-1"?>
<!-- Generator: Adobe Illustrator 19.0.0, SVG Export Plug-In . SVG Version: 6.00 Build 0)  -->
<svg version="1.1" id="Layer_1" xmlns="http://www.w3.org/2000/svg" xmlns:xlink="http://www.w3.org/1999/xlink" x="0px" y="0px"
	 viewBox="1000 -1000 2500 2500" style="enable-background:new 1000 -1000 2500 2500;" xml:space="preserve">
<linearGradient id="SVGID_1_" gradientUnits="userSpaceOnUse" x1="1370.0193" y1="-616.1383" x2="3108.9109" y2="1095.3998">
	<stop  offset="0" style="stop-color:#FC9351"/>
	<stop  offset="0.9995" style="stop-color:#FC6D79"/>
</linearGradient>
<circle style="fill:url(#SVGID_1_);" cx="2250" cy="250" r="1223.389"/>
<path style="fill:#FEFEFE;" d="M2091.017,380.853l162.75-495.283l165.764,495.283H2091.017z M2780.947,694.047l-134.621-369.704
	h80.371c32.026-0.275,57.881-26.242,58.017-58.269c0-30.516-24.738-55.255-55.254-55.255h-125.579l-20.093-57.515h142.909
	c31.324,0.011,56.949-24.946,57.766-56.259c0.139-31.903-25.611-57.878-57.514-58.017c-0.168-0.001-0.335-0.001-0.503,0h-185.605
	l-100.463-276.274c-15.009-39.472-39.815-74.477-72.082-101.719c-31.879-26.217-72.281-39.804-113.523-38.176
	c-41.35-1.314-81.802,12.23-114.026,38.176c-32.286,27.28-57.166,62.266-72.333,101.719L1963.178,41.539h-184.601
	c-30.696,0-55.619,24.81-55.757,55.506c0,31.903,25.863,57.766,57.766,57.766h140.146l-21.6,56.008h-125.579
	c-30.794,0-55.757,24.963-55.757,55.757l0,0c0,31.528,25.485,57.126,57.013,57.264h80.621l-136.881,370.206
	c-8.413,20.872-13.089,43.061-13.814,65.552c1.427,31.549,15.127,61.292,38.176,82.882c25.364,21.968,57.868,33.934,91.421,33.655
	c58.087,3.184,110.469-34.741,125.579-90.919l52.994-157.978h487.497l52.994,161.746c17.072,54.206,68.852,89.83,125.579,86.398
	c21.107,0.423,41.935-4.871,60.278-15.321c15.912-11.81,30.038-25.852,41.943-41.692c10.374-17.825,15.672-38.15,15.321-58.771
	c-3.326-21.923-8.536-43.519-15.572-64.548v-1.003L2780.947,694.047L2780.947,694.047z"/>
</svg>
