<?xml version="1.0" encoding="utf-8"?>
<!-- Generator: Adobe Illustrator 25.4.1, SVG Export Plug-In . SVG Version: 6.00 Build 0)  -->
<svg version="1.1" id="apw" xmlns="http://www.w3.org/2000/svg" xmlns:xlink="http://www.w3.org/1999/xlink" x="0px" y="0px"
	 viewBox="0 0 500 500" style="enable-background:new 0 0 500 500;" xml:space="preserve">
<style type="text/css">
	.st0{fill:#39D86E;}
	.st1{fill:#C336D8;}
	.st2{fill:#5B41F5;}
</style>
<path class="st0" d="M484.4,112.7c-15.8,29.3-42.2,51.7-73.8,62.9c-31.7,11.1-66.4,10.2-97.4-2.6c15.8-29.3,42.2-51.7,73.8-62.9
	C418.6,98.9,453.4,99.9,484.4,112.7z"/>
<path class="st1" d="M104.9,312.7c10.6,29.2,31.3,53.8,58.5,69.4c27.2,15.6,59,21.3,90,16c31-5.3,59-21.3,79.3-45
	c20.2-23.8,31.3-53.8,31.4-84.9v-0.8c0-1.9,0-3.9,0-5.7v-0.6c-1.2-17.1-9-33.1-21.9-44.6c-12.9-11.5-29.8-17.5-47.2-16.9
	c-17.3,0.6-33.8,7.9-45.7,20.4c-12,12.4-18.6,28.9-18.5,46.1c0,17.2-6.8,33.7-18.9,46c-12.1,12.3-28.7,19.5-46.1,19.9H162
	C141.4,331.6,121.4,324.9,104.9,312.7z"/>
<path class="st1" d="M163.9,314.9c27.3,0,49.5-21.9,49.5-48.9S191.2,217,163.9,217s-49.5,21.9-49.5,48.9S136.5,314.9,163.9,314.9z"
	/>
<path class="st2" d="M115.2,465.5C62.3,435.2,23.7,385.4,7.9,327.1c-15.8-58.4-7.6-120.6,22.8-172.9c6.4-10.9,13.6-21.2,21.7-30.9
	l0.4-0.4L155.9,3c12.8,10.8,20.7,26.1,22,42.6s-4,32.9-14.9,45.5l-61.9,71.8c-14.7,17.7-25.5,38.2-31.8,60.2
	c-6.3,22-7.8,45.1-4.6,67.8c3.2,22.7,11.1,44.4,23.3,63.9c12.1,19.5,28.3,36.3,47.3,49.3s40.6,22,63.3,26.4c22.7,4.4,46.1,4,68.7-1
	c22.6-5,43.9-14.6,62.5-28.2c18.7-13.6,34.3-30.8,45.8-50.6c4.6-7.9,8.5-16.2,11.8-24.7l32-89c5.7-15.5,17.4-28.1,32.5-35.2
	c15.1-7,32.4-7.9,48.1-2.4l-53.3,148.6c-11.8,31-30.3,59.1-54.1,82.3c-23.9,23.2-52.6,41.1-84.1,52.2
	c-31.5,11.2-65.2,15.4-98.5,12.5S144.2,482.1,115.2,465.5z"/>
</svg>
