<?xml version="1.0" encoding="utf-8"?>
<!-- Generator: Adobe Illustrator 25.2.0, SVG Export Plug-In . SVG Version: 6.00 Build 0)  -->
<svg version="1.1" id="ar" xmlns="http://www.w3.org/2000/svg" xmlns:xlink="http://www.w3.org/1999/xlink" x="0px" y="0px"
	 viewBox="0 0 500 500" style="enable-background:new 0 0 500 500;" xml:space="preserve">
<style type="text/css">
	.st0{fill:#222326;}
</style>
<path class="st0" d="M249.5,495.1c-65.5,0-127-25.5-173.3-71.8C29.9,377,4.4,315.5,4.4,250S29.9,123,76.2,76.7S184,4.9,249.5,4.9
	s127,25.5,173.3,71.8c46.3,46.3,71.8,107.8,71.8,173.3s-25.5,127-71.8,173.3C376.5,469.6,315,495.1,249.5,495.1z M249.5,43.4
	C135.6,43.4,42.9,136.1,42.9,250s92.7,206.6,206.6,206.6S456.1,363.9,456.1,250S363.4,43.4,249.5,43.4z"/>
<path class="st0" d="M291.7,331.6c-1.1-2.2-2-4.7-2.8-7.6c-0.8-2.9-1.4-5.9-2-9c-2.5,2.7-5.4,5.3-8.7,7.7c-3.3,2.4-7,4.6-11,6.4
	c-3.9,1.8-8.3,3.1-13.2,4.1c-4.8,1.1-10,1.6-15.6,1.6c-9.1,0-17.5-1.3-25.2-3.9c-7.6-2.6-14.1-6.3-19.6-11
	c-5.5-4.7-9.8-10.3-12.8-16.8c-3.1-6.6-4.6-13.7-4.6-21.4c0-18.8,7-33.2,20.9-43.4c14-10.3,34.9-15.5,62.7-15.5h25.5v-10.5
	c0-8.6-2.8-15.3-8.4-20.2c-5.6-5-13.7-7.6-24.2-7.6c-9.3,0-16.1,2-20.4,6.1c-4.3,3.9-6.4,9.3-6.4,16h-45.7c0-7.6,1.6-14.7,4.9-21.5
	c3.4-6.8,8.3-12.8,14.6-17.9c6.5-5.2,14.3-9.2,23.5-12.2c9.3-3.1,20-4.6,31.9-4.6c10.7,0,20.7,1.3,29.9,3.9
	c9.3,2.6,17.4,6.5,24.2,11.7c6.8,5.2,12.1,11.7,16,19.6c3.8,7.8,5.8,16.8,5.8,27.1V289c0,9.5,0.6,17.4,1.8,23.7
	c1.2,6.3,3,11.6,5.3,16.1v2.8H291.7z M248.1,299.5c4.6,0,8.9-0.5,12.8-1.6c3.9-1.1,7.5-2.5,10.7-4.3c3.2-1.8,5.9-3.7,8.2-5.9
	c2.3-2.3,4.1-4.6,5.4-6.9v-30.6h-23.4c-7.1,0-13.2,0.7-18.3,2.1c-5,1.3-9.2,3.2-12.3,5.8c-3.2,2.4-5.5,5.4-7.1,8.9
	c-1.5,3.4-2.3,7.1-2.3,11.2c0,6.1,2.1,11.2,6.4,15.3C232.7,297.5,239.3,299.5,248.1,299.5z"/>
</svg>
