<svg width="24" height="24" viewBox="0 0 24 24" fill="currentColor" xmlns="http://www.w3.org/2000/svg">
<path d="M4.5225 4.54869C4.6927 4.21216 5.03775 4 5.41487 4H18.5854C18.9624 4 19.3073 4.212 19.4776 4.54833L20.8922 7.34259C20.9631 7.4826 21 7.63733 21 7.79426V19.1111C21 19.3469 20.9052 19.573 20.7364 19.7397C20.5676 19.9064 20.3387 20 20.1 20H3.9C3.66131 20 3.43239 19.9064 3.2636 19.7397C3.09482 19.573 3 19.3469 3 19.1111V7.7976C3 7.64081 3.03687 7.48621 3.10763 7.34629L4.5225 4.54869ZM19.2 9.33333H4.8V18.2222H19.2V9.33333ZM18.9876 7.55556L18.0876 5.77778H5.9133L5.0133 7.55556H18.9876ZM12.9 13.7778H15.6L12 17.3333L8.4 13.7778H11.1V10.2222H12.9V13.7778Z"/>
</svg>
