<?xml version="1.0" encoding="iso-8859-1"?>
<!-- Generator: Adobe Illustrator 19.0.0, SVG Export Plug-In . SVG Version: 6.00 Build 0)  -->
<svg version="1.1" id="Layer_1" xmlns="http://www.w3.org/2000/svg" xmlns:xlink="http://www.w3.org/1999/xlink" x="0px" y="0px"
	 viewBox="-749 751 500 500" style="enable-background:new -749 751 500 500;" xml:space="preserve">
<path id="XMLID_4_" style="fill:#FC0016;" d="M-499.162,946.35c-80.923,84.039-161.349,167.561-241.774,251.083
	c-0.593-0.473-1.185-0.946-1.778-1.419c80.905-129.508,161.81-259.017,243.567-389.888
	c81.778,130.888,162.71,260.42,243.641,389.952c-0.575,0.482-1.15,0.963-1.724,1.445
	C-337.652,1114.029-418.073,1030.536-499.162,946.35z M-388.684,1119.17c-74.283,0-146.058,0-220.931,0
	c14.364-14.741,27.154-28.198,40.459-41.124c1.787-1.736,6.177-1.047,9.362-1.051c40.052-0.048,129.398-0.129,129.398-0.129
	S-400.807,1106.631-388.684,1119.17z M-541.498,1048.398c14.842-15.513,28.137-29.41,39.044-40.81
	c15.069,13.098,29.82,25.92,46.95,40.81C-485.632,1048.398-512.093,1048.398-541.498,1048.398z"/>
</svg>
