<?xml version="1.0" encoding="utf-8"?>
<!-- Generator: Adobe Illustrator 25.4.1, SVG Export Plug-In . SVG Version: 6.00 Build 0)  -->
<svg version="1.1" id="armor" xmlns="http://www.w3.org/2000/svg" xmlns:xlink="http://www.w3.org/1999/xlink" x="0px" y="0px"
	 viewBox="0 0 500 500" style="enable-background:new 0 0 500 500;" xml:space="preserve">
<style type="text/css">
	.st0{fill:#1890FF;}
	.st1{fill-rule:evenodd;clip-rule:evenodd;fill:#1890FF;}
</style>
<path class="st0" d="M257.7,320.8L257.7,320.8L377.3,227c1.6-1.2,2.5-3.1,2.5-5.1v-41.4c0-3.4-3.8-5.2-6.5-3.2L250.1,274
	l-123.3-96.8c-2.6-2.1-6.5-0.2-6.5,3.2v41.5c0,2,0.9,3.9,2.5,5.1l119.6,93.8l0,0c2.2,1.7,4.9,2.5,7.7,2.5
	C252.7,323.4,255.5,322.5,257.7,320.8z"/>
<path class="st1" d="M438.9,65.7L438.9,65.7L258.6,3.9c-2.4-0.8-5.5-1.2-8.5-1.2c-3,0-6.1,0.4-8.5,1.2L61.3,65.7l0,0
	c-2.6,0.9-4.8,2.8-6.4,5.1c-1.6,2.3-2.7,5.1-2.7,7.8v257.6c0,2.7,0.8,5.6,2.1,8.3c1.3,2.7,3.1,5.2,5.2,6.8l0,0l182.9,143.5l0,0
	c2.2,1.7,4.9,2.5,7.7,2.5c2.7,0,5.5-0.8,7.7-2.5l0,0l182.9-143.4l0,0c2.1-1.6,3.9-4.1,5.2-6.8c1.3-2.7,2.1-5.6,2.1-8.3V78.6
	c0.1-2.8-1-5.5-2.6-7.8C443.7,68.5,441.4,66.6,438.9,65.7z M406.5,98.8v226.4L250.1,447.9L93.6,325.2V98.8L250.1,45L406.5,98.8z"/>
</svg>
