<?xml version="1.0" encoding="iso-8859-1"?>
<!-- Generator: Adobe Illustrator 19.0.0, SVG Export Plug-In . SVG Version: 6.00 Build 0)  -->
<svg version="1.1" id="Layer_1" xmlns="http://www.w3.org/2000/svg" xmlns:xlink="http://www.w3.org/1999/xlink" x="0px" y="0px"
	 viewBox="0 0 500 500" style="enable-background:new 0 0 500 500;" xml:space="preserve">
<g>
	<path style="fill:#FAFAFB;" d="M29.328,249.266c0-28.284,0.149-56.57-0.058-84.852c-0.117-15.901,4.195-30.055,12.909-43.498
		c4.444-6.855,9.918-11.338,16.645-15.212c52.137-30.025,104.17-60.23,156.338-90.2c22.327-12.827,44.965-12.841,67.322,0.029
		c50.957,29.333,101.871,58.74,152.727,88.248c21.856,12.681,32.861,32.157,33,57.159c0.329,58.967,0.326,117.938,0.002,176.905
		c-0.139,25.219-11.326,44.698-33.383,57.455c-51.49,29.78-102.977,59.565-154.55,89.201c-20.36,11.7-41.725,11.698-61.678,0.504
		c-53.208-29.852-105.985-60.486-158.563-91.438c-20.415-12.018-30.316-31.229-30.618-54.82
		C29.039,308.924,29.328,279.093,29.328,249.266z M220.134,25.235c-0.64,0.243-1.327,0.404-1.912,0.742
		c-50.371,29.04-100.74,58.085-151.092,87.159c-5.505,3.179-10.408,7.106-14.199,12.095c0.079,3.034,1.268,5.357,3.607,6.689
		c12.745,7.257,25.565,14.383,38.337,21.542c5.694-4.397,11.665-5.525,18.208-3.139c1.77-3.644,4.824-5.643,7.144-8.325
		c15.752-18.204,31.576-36.347,47.371-54.514c7.374-8.481,14.775-16.938,22.092-25.468c10.348-12.064,21.254-23.65,31.031-36.203
		c0.235-0.256,0.469-0.513,1.448-1.582C220.823,24.894,220.479,25.065,220.134,25.235z M253.445,398.938
		c40.806-73.581,81.542-147.036,122.174-220.304c-1.732-2.655-3.219-4.932-4.79-7.34c-82.8,0-165.556,0-248.236,0
		c-1.248,2.174-2.353,4.098-3.647,6.352c41.072,74.033,82.223,148.206,123.521,222.646
		C246.009,398.456,249.467,399.12,253.445,398.938z M265.67,410.604c1.662-0.265,3.014-0.411,4.333-0.701
		c14.679-3.228,29.346-6.511,44.03-9.717c41.05-8.963,82.12-17.834,123.145-26.91c5.884-1.302,10.571-4.741,12.554-10.831
		c1.503-4.615,0.573-9.091-1.028-13.554c-16.393-45.713-32.736-91.445-49.098-137.169c-3.446-9.631-6.911-19.256-10.223-28.483
		c-3.888-1.517-4.724,1.085-5.867,3.128c-6.346,11.336-12.692,22.671-19.005,34.025c-28.982,52.122-57.956,104.249-86.924,156.379
		c-5.138,9.245-10.231,18.515-15.232,27.569C263.53,406.56,264.482,408.359,265.67,410.604z M109.607,182.42
		c-4.264-0.341-4.3,2.43-4.976,4.371c-8.947,25.685-17.823,51.394-26.729,77.093c-10.388,29.974-20.803,59.938-31.174,89.918
		c-3.276,9.469,0.41,16.366,9.889,18.672c6.948,1.69,13.876,3.473,20.861,4.995c38.994,8.5,78.002,16.937,117.007,25.387
		c12.773,2.767,25.552,5.51,38.142,8.225c3.242-3.894,0.399-6.579-1.053-9.195c-34.514-62.198-69.102-124.355-103.673-186.521
		C121.768,204.337,115.649,193.301,109.607,182.42z M122.698,160.385c82.899,0,165.662,0,248.294,0
		c0.992-1.548,1.894-2.791,1.933-4.647c-0.265-0.412-0.566-1.028-0.999-1.533c-35.899-41.893-71.781-83.802-107.735-125.648
		c-9.742-11.338-21.7-11.079-31.492,0.245c-15.238,17.623-30.589,35.148-45.896,52.712c-21.163,24.282-42.32,48.569-63.512,72.825
		C121.71,156.149,120.403,157.812,122.698,160.385z M456.725,340.166c0.298-0.013,0.597-0.025,0.895-0.038
		c0.083-0.44,0.238-0.88,0.238-1.321c-0.023-59.118,0.01-118.237-0.171-177.355c-0.025-8.118-1.036-16.254-5.376-23.848
		c-16.264,8.801-32.19,17.42-48.45,26.219c1.16,5.764-1.593,10.287-4.85,14.7C418.281,232.494,437.503,286.33,456.725,340.166z
		 M45.267,136.77c-3.991,7.984-5.563,16.456-5.573,25.23c-0.064,57.563-0.069,115.127-0.093,172.69c-0.001,1.613,0,3.225,0,4.838
		c0.397,0.082,0.794,0.165,1.19,0.247c18.452-53.412,36.904-106.824,55.4-160.361c-5.052-4.543-7.13-10.115-6.325-16.613
		C75.242,153.744,59.727,146.795,45.267,136.77z M275.276,24.949c35.767,41.772,71.289,83.257,106.765,124.688
		c6.827-1.629,12.523,0.045,17.493,4.33c15.929-8.629,31.593-17.114,47.48-25.72c-4.912-6.727-10.624-11.507-17.233-15.32
		c-49.978-28.839-99.942-57.704-149.926-86.531C278.596,25.669,277.501,24.3,275.276,24.949z M253.634,431.78
		c0,12.686-0.081,25.335,0.03,37.982c0.068,7.763,5.995,12.07,13.002,9.427c3.659-1.38,7.229-3.114,10.622-5.065
		c26.682-15.335,53.311-30.762,79.959-46.158c22.132-12.787,44.276-25.554,66.378-38.393c1.174-0.682,3.025-0.831,3.251-3.367
		c-54.054,11.806-107.881,23.563-161.545,35.283C262.535,425.832,259.561,429.531,253.634,431.78z M70.12,386.128
		c-0.074,0.43-0.148,0.86-0.222,1.291c47.869,27.606,95.741,55.206,143.602,82.826c6.515,3.76,12.876,7.841,20.2,9.916
		c4.65,1.317,9.235-1.284,9.334-5.975c0.303-14.349,0.11-28.708,0.11-42.913c-4.389-2.431-7.136-5.656-9.351-8.963
		C178.987,410.194,124.553,398.161,70.12,386.128z"/>
	<linearGradient id="SVGID_1_" gradientUnits="userSpaceOnUse" x1="132.2458" y1="382.6788" x2="268.925" y2="143.5571">
		<stop  offset="0" style="stop-color:#4F3F60"/>
		<stop  offset="0.514" style="stop-color:#3F659F"/>
		<stop  offset="0.9995" style="stop-color:#3BAABC"/>
	</linearGradient>
	<path style="fill:url(#SVGID_1_);" d="M253.445,398.938c-3.978,0.181-7.437-0.482-10.978,1.354
		c-41.298-74.44-82.449-148.613-123.521-222.646c1.294-2.254,2.399-4.178,3.647-6.352c82.68,0,165.436,0,248.236,0
		c1.571,2.408,3.058,4.685,4.79,7.34C334.987,251.902,294.251,325.357,253.445,398.938z M306.163,272.826
		c7.066-2.869,8.875-8.313,8.994-14.588c0.182-9.589,0.28-19.185,0.095-28.771c-0.082-4.235,1.476-7.086,4.857-9.486
		c3.617-2.567,7.074-5.409,10.324-8.429c2.54-2.361,4.825-5.333,2.525-8.978c-2.357-3.736-6.027-2.415-9.296-1.491
		c-3.836,1.083-6.784,3.833-9.725,6.272c-4.453,3.693-8.797,4.335-14.21,2.274c-7.659-2.916-15.567-5.173-23.356-7.752
		c-4.117-1.363-8.265-2.12-12.614-1.312c-2.781,0.516-5.16,1.438-6.113,4.817c11.599,5.899,23.127,11.762,34.633,17.614
		c-0.306,0.711-0.358,1.079-0.568,1.287c-7.528,7.442-16.872,12.715-24.253,20.356c-1.89,1.957-4.288,1.566-6.644,0.313
		c-2.739-1.456-5.115-1.151-6.917,2.319c7.25,2.831,10.629,8.381,11.372,16.086c3.184-1.552,5.058-3.344,4.154-6.585
		c-0.946-3.394,0.969-5.187,3.367-6.706c3.613-2.288,7.338-4.398,10.985-6.634c5.337-3.273,10.648-6.59,16.461-10.192
		C302.266,246.794,304.158,259.432,306.163,272.826z M202.804,213.156c-1.815-1.853-3.636-1.381-5.537-0.989
		c-1.364,1.805-1.847,3.663-0.048,5.423c0.982,0.961,2.212,1.406,3.71,0.813C203.514,217.379,203.185,215.405,202.804,213.156z
		 M242.816,323.976c-2.544,0.747-3.815,2.112-3.182,4.6c0.367,1.446,1.439,2.366,2.94,2.47c1.761,0.122,2.996-0.891,3.458-2.483
		C246.756,326.061,245.357,324.738,242.816,323.976z M206.839,283.128c-2.176,1.481-3.334,2.949-2.067,5.273
		c0.865,1.586,2.291,1.902,3.884,1.591c1.476-0.288,2.405-1.346,2.523-2.786C211.421,284.259,209.121,283.787,206.839,283.128z
		 M151.279,192c-0.84,1.311-0.992,2.712-0.256,4.218c2.065,1.555,4.151,2.315,6.561,0.257c0.122-1.57,0.712-3.261-1.019-4.759
		C154.933,191.024,153.17,190.951,151.279,192z M234.391,194.322c-0.245-1.709-1.225-3.128-3.526-3.139
		c-2.038-0.009-3.148,1.119-3.298,3.124c-0.169,2.265,1.05,3.685,3.173,3.847C232.928,198.322,234.162,196.943,234.391,194.322z"/>
	<linearGradient id="SVGID_2_" gradientUnits="userSpaceOnUse" x1="283.3633" y1="340.2861" x2="459.8357" y2="255.2387">
		<stop  offset="0" style="stop-color:#3F659F"/>
		<stop  offset="1" style="stop-color:#3698BC"/>
	</linearGradient>
	<path style="fill:url(#SVGID_2_);" d="M265.67,410.604c-1.188-2.245-2.14-4.044-3.315-6.264
		c5.001-9.054,10.095-18.323,15.232-27.569c28.968-52.13,57.942-104.256,86.924-156.379c6.313-11.354,12.659-22.69,19.005-34.025
		c1.144-2.043,1.979-4.645,5.867-3.128c3.312,9.227,6.777,18.852,10.223,28.483c16.362,45.725,32.705,91.456,49.098,137.169
		c1.601,4.464,2.53,8.94,1.028,13.554c-1.983,6.09-6.67,9.529-12.554,10.831c-41.025,9.076-82.095,17.947-123.145,26.91
		c-14.684,3.206-29.351,6.489-44.03,9.717C268.684,410.193,267.333,410.339,265.67,410.604z"/>
	<linearGradient id="SVGID_3_" gradientUnits="userSpaceOnUse" x1="42.7157" y1="375.3932" x2="171.1301" y2="296.0801">
		<stop  offset="0" style="stop-color:#4E4365"/>
		<stop  offset="1" style="stop-color:#3F659E"/>
	</linearGradient>
	<path style="fill:url(#SVGID_3_);" d="M109.607,182.42c6.042,10.881,12.161,21.917,18.294,32.945
		c34.571,62.166,69.159,124.323,103.673,186.521c1.452,2.616,4.296,5.3,1.053,9.195c-12.59-2.714-25.369-5.457-38.142-8.225
		c-39.005-8.45-78.013-16.887-117.007-25.387c-6.985-1.523-13.914-3.305-20.861-4.995c-9.479-2.306-13.165-9.203-9.889-18.672
		c10.37-29.98,20.786-59.944,31.174-89.918c8.906-25.699,17.782-51.408,26.729-77.093
		C105.307,184.85,105.343,182.079,109.607,182.42z"/>
	<linearGradient id="SVGID_4_" gradientUnits="userSpaceOnUse" x1="121.4588" y1="90.283" x2="372.9248" y2="90.283">
		<stop  offset="0" style="stop-color:#3B71AE"/>
		<stop  offset="0.9995" style="stop-color:#379DBC"/>
	</linearGradient>
	<path style="fill:url(#SVGID_4_);" d="M122.698,160.385c-2.295-2.573-0.988-4.237,0.592-6.045
		c21.192-24.256,42.349-48.543,63.512-72.825c15.307-17.563,30.659-35.088,45.896-52.712c9.792-11.325,21.75-11.584,31.492-0.245
		c35.955,41.846,71.836,83.754,107.735,125.648c0.432,0.505,0.734,1.121,0.999,1.533c-0.039,1.856-0.942,3.099-1.933,4.647
		C288.36,160.385,205.597,160.385,122.698,160.385z"/>
	<path style="fill:#38A1BD;" d="M456.725,340.166c-19.222-53.836-38.444-107.671-57.714-161.642c3.257-4.414,6.01-8.936,4.85-14.7
		c16.26-8.799,32.186-17.418,48.45-26.219c4.34,7.594,5.351,15.73,5.376,23.848c0.182,59.118,0.148,118.236,0.171,177.355
		c0,0.44-0.155,0.88-0.238,1.321C457.322,340.14,457.024,340.153,456.725,340.166z"/>
	<linearGradient id="SVGID_5_" gradientUnits="userSpaceOnUse" x1="3.3844" y1="332.8612" x2="64.9143" y2="185.8274">
		<stop  offset="0" style="stop-color:#4E4365"/>
		<stop  offset="1" style="stop-color:#3F659E"/>
	</linearGradient>
	<path style="fill:url(#SVGID_5_);" d="M45.267,136.77c14.46,10.025,29.975,16.974,44.599,26.031
		c-0.806,6.498,1.272,12.07,6.325,16.613c-18.495,53.537-36.948,106.949-55.4,160.361c-0.397-0.082-0.794-0.165-1.19-0.247
		c0-1.613-0.001-3.225,0-4.838c0.024-57.563,0.03-115.127,0.093-172.69C39.703,153.226,41.276,144.754,45.267,136.77z"/>
	<path style="fill:#3AA7BC;" d="M275.276,24.949c2.225-0.648,3.319,0.72,4.579,1.446c49.985,28.828,99.948,57.693,149.926,86.531
		c6.609,3.813,12.321,8.594,17.233,15.32c-15.887,8.606-31.551,17.091-47.48,25.72c-4.97-4.285-10.666-5.959-17.493-4.33
		C346.566,108.206,311.043,66.72,275.276,24.949z"/>
	<path style="fill:#3A74B3;" d="M220.721,25.813c-9.777,12.553-20.683,24.139-31.031,36.203
		c-7.317,8.53-14.718,16.987-22.092,25.468c-15.795,18.167-31.619,36.31-47.371,54.514c-2.32,2.681-5.374,4.681-7.144,8.325
		c-6.543-2.386-12.514-1.258-18.208,3.139c-12.772-7.159-25.592-14.285-38.337-21.542c-2.339-1.332-3.528-3.655-3.607-6.689
		c3.791-4.989,8.694-8.916,14.199-12.095c50.352-29.074,100.72-58.119,151.092-87.159c0.585-0.337,1.272-0.498,1.912-0.742
		C220.328,25.43,220.523,25.622,220.721,25.813z"/>
	<path style="fill:#426197;" d="M253.634,431.78c5.926-2.25,8.9-5.948,11.697-10.29c53.664-11.721,107.491-23.477,161.545-35.283
		c-0.226,2.536-2.077,2.685-3.251,3.367c-22.102,12.839-44.245,25.606-66.378,38.393c-26.647,15.395-53.276,30.823-79.959,46.158
		c-3.394,1.95-6.963,3.685-10.622,5.065c-7.007,2.643-12.934-1.664-13.002-9.427C253.553,457.115,253.634,444.467,253.634,431.78z"
		/>
	<linearGradient id="SVGID_6_" gradientUnits="userSpaceOnUse" x1="71.223" y1="420.5452" x2="243.7541" y2="447.5579">
		<stop  offset="0" style="stop-color:#4E4365"/>
		<stop  offset="1" style="stop-color:#3F659E"/>
	</linearGradient>
	<path style="fill:url(#SVGID_6_);" d="M70.12,386.128c54.434,12.033,108.867,24.065,163.673,36.18
		c2.215,3.307,4.962,6.532,9.351,8.963c0,14.205,0.193,28.564-0.11,42.913c-0.099,4.691-4.684,7.292-9.334,5.975
		c-7.323-2.075-13.684-6.156-20.2-9.916c-47.861-27.62-95.733-55.22-143.602-82.826C69.972,386.989,70.046,386.558,70.12,386.128z"
		/>
	<path style="fill:#3786BA;" d="M220.134,25.235c0.345-0.17,0.689-0.341,2.034-1.006c-0.979,1.07-1.213,1.326-1.448,1.583
		C220.523,25.622,220.328,25.43,220.134,25.235z"/>
	<path style="fill:#FAFAFB;" d="M306.163,272.826c-2.005-13.394-3.897-26.032-5.927-39.587c-5.814,3.603-11.124,6.92-16.461,10.192
		c-3.647,2.236-7.372,4.346-10.985,6.634c-2.398,1.519-4.314,3.312-3.367,6.706c0.904,3.241-0.97,5.033-4.154,6.585
		c-0.743-7.705-4.122-13.254-11.372-16.086c1.802-3.47,4.178-3.775,6.917-2.319c2.356,1.253,4.754,1.644,6.644-0.313
		c7.381-7.641,16.725-12.914,24.253-20.356c0.21-0.208,0.263-0.575,0.568-1.287c-11.506-5.852-23.034-11.715-34.633-17.614
		c0.953-3.379,3.332-4.301,6.113-4.817c4.348-0.807,8.496-0.051,12.614,1.312c7.789,2.579,15.697,4.836,23.356,7.752
		c5.413,2.061,9.757,1.419,14.21-2.274c2.941-2.439,5.889-5.189,9.725-6.272c3.269-0.923,6.939-2.244,9.296,1.491
		c2.3,3.645,0.015,6.617-2.525,8.978c-3.25,3.02-6.707,5.862-10.324,8.429c-3.382,2.4-4.939,5.251-4.857,9.486
		c0.186,9.587,0.087,19.183-0.095,28.771C315.038,264.513,313.229,269.957,306.163,272.826z"/>
	<path style="fill:#FAFAFB;" d="M202.804,213.156c0.381,2.248,0.71,4.223-1.876,5.247c-1.498,0.594-2.728,0.148-3.71-0.813
		c-1.799-1.76-1.316-3.618,0.048-5.423C199.168,211.776,200.989,211.304,202.804,213.156z"/>
	<path style="fill:#FAFAFB;" d="M242.816,323.976c2.541,0.762,3.94,2.085,3.216,4.587c-0.461,1.592-1.696,2.605-3.458,2.483
		c-1.502-0.104-2.573-1.024-2.94-2.47C239.001,326.087,240.272,324.723,242.816,323.976z"/>
	<path style="fill:#FAFAFB;" d="M206.839,283.128c2.282,0.659,4.582,1.132,4.34,4.078c-0.118,1.439-1.047,2.498-2.523,2.786
		c-1.593,0.311-3.019-0.005-3.884-1.591C203.504,286.077,204.662,284.609,206.839,283.128z"/>
	<path style="fill:#FAFAFB;" d="M151.279,192c1.892-1.049,3.654-0.976,5.287-0.285c1.731,1.499,1.14,3.189,1.019,4.759
		c-2.41,2.058-4.497,1.298-6.561-0.257C150.286,194.712,150.439,193.311,151.279,192z"/>
	<path style="fill:#FAFAFB;" d="M234.391,194.322c-0.229,2.621-1.464,4-3.651,3.833c-2.123-0.162-3.342-1.582-3.173-3.847
		c0.15-2.006,1.26-3.134,3.298-3.124C233.167,191.193,234.147,192.612,234.391,194.322z"/>
</g>
</svg>
