<?xml version="1.0" encoding="utf-8"?>
<!-- Generator: Adobe Illustrator 23.0.3, SVG Export Plug-In . SVG Version: 6.00 Build 0)  -->
<svg version="1.1" id="aro" xmlns="http://www.w3.org/2000/svg" xmlns:xlink="http://www.w3.org/1999/xlink" x="0px" y="0px"
	 viewBox="0 0 500 500" style="enable-background:new 0 0 500 500;" xml:space="preserve">
<style type="text/css">
	.st0{fill:url(#SVGID_1_);}
	.st1{fill:url(#SVGID_2_);}
</style>
<linearGradient id="SVGID_1_" gradientUnits="userSpaceOnUse" x1="3.2954" y1="364.7144" x2="449.1676" y2="364.7144">
	<stop  offset="0" style="stop-color:#0EAFE5"/>
	<stop  offset="1" style="stop-color:#23469B"/>
</linearGradient>
<path class="st0" d="M180.6,475.1H36.9c-24,0-40.2-24.4-30.9-46.5c7.4-17.6,18-36.2,28.6-51.1c59.8-83.7,123.9-123.2,194.1-123.2
	c115.8,0,219.6,141.6,220.5,143.1l-32.8,22.2c-19-26.5-107.1-124.7-187.8-124.7c-56.4,0-110.6,35.7-161.1,106.2
	c-7.9,11-14.4,23-19.4,33.5h113.5l-37.4-52.9l33.1-23.4l48.3,68.4C220.1,447,205.5,475.1,180.6,475.1z"/>
<linearGradient id="SVGID_2_" gradientUnits="userSpaceOnUse" x1="145.9017" y1="247.1596" x2="496.6551" y2="247.1596">
	<stop  offset="0" style="stop-color:#0EAFE5"/>
	<stop  offset="0.8539" style="stop-color:#273791"/>
</linearGradient>
<path class="st1" d="M227.2,106.1l197.6,327.5h-77.3c-5.7,0-11.1-2.9-14.2-7.7l-144-219.8c-3.2-5-3.7-11.2-1.2-16.6L227.2,106.1
	 M222.8,20.2l-32.3,68.7l-39.2,83.4c-8.4,18-6.9,39.5,4,56.1l144,219.8c10.7,16.3,28.7,26,48.2,26h77.3h71.8l-37.1-61.5L261.9,85.1
	L222.8,20.2L222.8,20.2z"/>
</svg>
