<?xml version="1.0" encoding="utf-8"?>
<!-- Generator: Adobe Illustrator 23.0.4, SVG Export Plug-In . SVG Version: 6.00 Build 0)  -->
<svg version="1.1" id="ARRR" xmlns="http://www.w3.org/2000/svg" xmlns:xlink="http://www.w3.org/1999/xlink" x="0px" y="0px"
	 viewBox="0 0 500 500" style="enable-background:new 0 0 500 500;" xml:space="preserve">
<style type="text/css">
	.st0{fill:url(#SVGID_1_);}
	.st1{fill:#FFFFFF;}
</style>
<linearGradient id="SVGID_1_" gradientUnits="userSpaceOnUse" x1="2.1197" y1="249.5" x2="496.8803" y2="249.5">
	<stop  offset="0" style="stop-color:#B28E39"/>
	<stop  offset="1" style="stop-color:#F0DE9E"/>
</linearGradient>
<circle class="st0" cx="249.5" cy="249.5" r="247.4"/>
<path class="st1" d="M139,386.4V306l62.8-32.3h108.6c9.1,0,16.4-7.3,16.4-16.4v-48.8l49.3-25.2v84.9c0,30.6-24.8,55.4-55.4,55.4
	H186.5v48.5c0,8-6.5,14.5-14.5,14.4L139,386.4z"/>
<path class="st1" d="M138.4,260.3v-74c0-30.6,24.8-55.4,55.4-55.4h124.7c16.9,0,32,5.4,41.3,16.2l0,0l-64.4,32h-91.9
	c-9.2,0-16.7,7.5-16.7,16.7v39.4L138.4,260.3z"/>
</svg>
