<?xml version="1.0" encoding="iso-8859-1"?>
<!-- Generator: Adobe Illustrator 19.0.0, SVG Export Plug-In . SVG Version: 6.00 Build 0)  -->
<svg version="1.1" id="Layer_1" xmlns="http://www.w3.org/2000/svg" xmlns:xlink="http://www.w3.org/1999/xlink" x="0px" y="0px"
	 viewBox="1000 -981 2500 2463" style="enable-background:new 1000 -981 2500 2463;" xml:space="preserve">
<linearGradient id="SVGID_1_" gradientUnits="userSpaceOnUse" x1="1030.2109" y1="-102.1577" x2="3473" y2="-102.1577">
	<stop  offset="0" style="stop-color:#0027FF"/>
	<stop  offset="1" style="stop-color:#00A2FF"/>
</linearGradient>
<path style="fill:url(#SVGID_1_);" d="M2252.826-953.573L1163.917,132.686l-133.706,133.669l46.975,40.941
	c10.846,9.637,21.68,19.274,33.723,28.898c37.338,31.317,77.094,61.424,116.839,90.322
	c150.491,106.047,316.744,187.733,492.649,242.056c172.217,54.193,351.761,80.685,532.406,80.685
	c142.843,0.108,285.186-16.872,423.995-50.578c199.954-48.172,389.063-131.263,561.316-245.671
	c42.163-27.701,84.276-59.006,124.069-90.322c22.889-18.064,44.569-36.129,65.039-55.402L3473,266.355L2252.826-953.573z
	 M3320.044,306.099c-38.157,31.034-77.963,59.982-119.245,86.719c-164.787,109.448-347.396,189.322-539.624,236.034
	c-133.669,32.633-270.754,49.203-408.349,49.357c-352.751,1.39-697.163-107.214-985.311-310.698
	c-38.547-26.492-75.885-56.599-113.223-86.719l-22.889-19.274L2251.605-856.033L3371.819,261.543
	c-15.658,15.658-33.723,30.107-51.799,44.556H3320.044z"/>
<linearGradient id="SVGID_2_" gradientUnits="userSpaceOnUse" x1="1430.108" y1="325.979" x2="3114.092" y2="325.979">
	<stop  offset="0" style="stop-color:#0027FF"/>
	<stop  offset="1" style="stop-color:#00A2FF"/>
</linearGradient>
<path style="fill:url(#SVGID_2_);" d="M1484.313,248.279l-54.205,22.877h66.248c361.796,0.006,716.548,100.034,1025.055,289.031
	l3.664,2.443l4.812-1.221c201.557-36.185,394.209-111.023,567.337-220.388l16.868-10.834l-16.868-9.637
	c-261.378-151.734-560.107-231.222-863.648-231.222C1975.586,90.57,1720.587,144.667,1484.313,248.279z M2539.488,489.137
	c-234.268-141.048-495.022-232.451-766.083-268.536c149.543-40.891,303.894-61.55,458.927-61.424
	c257.714,0,510.726,59.006,740.788,174.659c-134.903,74.664-280.652,126.451-433.595,155.349L2539.488,489.137z"/>
<linearGradient id="SVGID_3_" gradientUnits="userSpaceOnUse" x1="1889.047" y1="1089.483" x2="2943.012" y2="1089.483">
	<stop  offset="0" style="stop-color:#0027FF"/>
	<stop  offset="1" style="stop-color:#00A2FF"/>
</linearGradient>
<path style="fill:url(#SVGID_3_);" d="M2943.012,726.393c0,0-178.323,110.793-245.72,143.306
	c-224.244,126.305-474.253,200.014-731.151,215.564l-77.094,4.812l363.78,362.498l516.747-515.428
	C2830.986,869.7,2888.806,798.651,2943.012,726.393 M2045.641,1147.896c198.745-20.471,392.678-73.467,573.359-158.964
	l-366.174,366.101"/>
</svg>
