<?xml version="1.0" encoding="iso-8859-1"?>
<!-- Generator: Adobe Illustrator 19.0.0, SVG Export Plug-In . SVG Version: 6.00 Build 0)  -->
<svg version="1.1" id="Layer_1" xmlns="http://www.w3.org/2000/svg" xmlns:xlink="http://www.w3.org/1999/xlink" x="0px" y="0px"
	 viewBox="0 0 500 500" style="enable-background:new 0 0 500 500;" xml:space="preserve">
<circle style="fill:#2B9FDA;" cx="249.785" cy="249.125" r="245.853"/>
<path style="fill:#FFFFFF;" d="M307.678,322.513c-40.324,0-80.497,0-121.34,0c-8.404,15.873-16.964,31.536-25.006,47.461
	c-3.558,7.046-8.497,11.199-16.41,11.947c-16.138,1.525-44.542,1.606-49.814-2.468c-6.514-5.291,23.613-56.772,23.613-56.772
	l-22.61,0.102c0,0-0.104-21.343-0.104-31.562c14.106,0,27.276,0,40.817,0c2.389-4.409,7.025-12.963,7.025-12.963l-47.84-0.033
	c0,0,0-21.392,0-31.612c22.647,0,44.265,0,65.987,0c7.694-13.774,14.854-26.484,21.913-39.251
	c22.502-40.701,45.125-81.338,67.328-122.202c5.245-9.652,12.623-14.621,23.33-14.698c15.615-0.112,31.247-0.378,46.843,0.195
	c15.168,0.557,17.668,3.745,19.749,18.41c8.679,61.149,17.672,122.253,26.389,183.396c4.449,31.204,8.867,62.42,12.672,93.706
	c1.507,12.393-2.019,16.389-14.13,17.009c-12.642,0.647-25.35,0.249-38.022-0.026c-8.043-0.175-12.087-4.337-12.916-12.746
	c-1.434-14.547-3.764-29.006-5.767-43.495C309.259,325.988,308.711,325.124,307.678,322.513z M299.527,245.363
	c-4.613-36.828-9.095-72.607-13.577-108.387c-0.686-0.178-1.371-0.356-2.057-0.535c-18.837,35.885-37.675,71.771-57.177,108.922
	C251.665,245.363,274.725,245.363,299.527,245.363z M203.576,290.133c34.785,0,67.588,0,101.408,0
	c-0.744-4.456-1.303-7.801-1.989-11.909c-31.37,0-62.001,0-93.222,0C207.876,281.872,206.006,285.465,203.576,290.133z"/>
</svg>
