<svg aria-hidden="true" data-testid="test-icon" fill="currentColor" viewBox="0 0 24 24" xmlns="http://www.w3.org/2000/svg"><path d="M12.313 21.967a9.591 9.591 0 01-4.599-1.208 9.868 9.868 0 01-3.501-3.285 10.24 10.24 0 01-.86-9.397.822.822 0 01.438-.413.796.796 0 01.596.004c.199.086.356.25.437.455.08.205.079.435-.005.638a8.537 8.537 0 00.287 6.1 8.243 8.243 0 004.264 4.267 7.965 7.965 0 005.959.15 8.215 8.215 0 004.463-4.048.828.828 0 01.445-.45.8.8 0 01.626.004c.2.086.358.25.44.456a.856.856 0 01-.004.641 9.965 9.965 0 01-3.584 4.438A9.61 9.61 0 0112.338 22l-.024-.033z"/><path d="M20.55 16.39a.813.813 0 01-.751-.52.851.851 0 01.001-.64c.293-.7.488-1.439.579-2.195a.846.846 0 01.313-.558.807.807 0 011.152.153c.133.177.192.4.164.622-.117.904-.35 1.788-.692 2.63a.83.83 0 01-.307.374.801.801 0 01-.46.135zm.456-5.726a.801.801 0 01-.517-.17.837.837 0 01-.298-.464 8.698 8.698 0 00-.814-2.112.851.851 0 01.301-1.143.803.803 0 011.116.308c.436.785.765 1.628.978 2.505a.855.855 0 01-.097.633.826.826 0 01-.506.377l-.163.066zM18.041 5.79a.803.803 0 01-.522-.192 8.109 8.109 0 00-1.882-1.16.817.817 0 01-.429-.466.857.857 0 01.203-.907.815.815 0 01.584-.228.8.8 0 01.31.073c.811.374 1.57.857 2.257 1.436a.854.854 0 01.246.927.832.832 0 01-.299.4.801.801 0 01-.468.15V5.79zM7.173 5.339a.801.801 0 01-.484-.159.834.834 0 01-.298-.422.854.854 0 01.004-.521.833.833 0 01.305-.417l.261-.176a.804.804 0 01.91.008.826.826 0 01.223.234.852.852 0 01.11.628.835.835 0 01-.355.524l-.204.15a.801.801 0 01-.472.15zm3.259-1.453a.806.806 0 01-.601-.182.854.854 0 01-.121-1.18.814.814 0 01.55-.307A9.715 9.715 0 0112.909 2a.807.807 0 01.56.277.844.844 0 01-.049 1.158.804.804 0 01-.56.226 8.147 8.147 0 00-2.207.184.662.662 0 01-.261.041h.04zM4.884 5.33a.499.499 0 01.717.098.525.525 0 01.098.253l.847 2.93a.538.538 0 01-.193.487.507.507 0 01-.508.072L2.318 7.643a.525.525 0 01-.106-.902l2.672-1.41zM15.654 15.99a.823.823 0 01-.364-.52.853.853 0 01.103-.632.816.816 0 01.505-.369.798.798 0 01.844.325.845.845 0 01.14.624.847.847 0 01-.409.593.8.8 0 01-.396.104.801.801 0 01-.423-.125zm-2.078-1.327a.851.851 0 01.276-1.512.798.798 0 01.612.101c.183.116.314.3.365.515a.822.822 0 01-.392.917.8.8 0 01-.396.104.744.744 0 01-.465-.125zm-2.444-2.045c0-.222.086-.434.239-.59a.805.805 0 011.152 0 .845.845 0 010 1.18.804.804 0 01-.576.244.806.806 0 01-.566-.25.846.846 0 01-.232-.584h-.017zm0-2.505c0-.22.086-.433.239-.59a.805.805 0 011.152 0 .845.845 0 010 1.18.804.804 0 01-.576.245.806.806 0 01-.566-.25.846.846 0 01-.232-.585h-.017zm0-2.504c0-.221.086-.433.239-.59a.805.805 0 011.152 0 .845.845 0 010 1.18.805.805 0 01-.576.245.806.806 0 01-.566-.25.846.846 0 01-.232-.585h-.017z"/><path d="M17.137 16.783a.8.8 0 01-.424-.125l-3.112-1.979a.852.852 0 01-.178-1.063.82.82 0 01.432-.364.796.796 0 01.56.008l3.113 1.979a.83.83 0 01.33.409.854.854 0 01-.27.968.802.802 0 01-.492.167h.04zM11.963 10.99a.805.805 0 01-.576-.245.846.846 0 01-.239-.59V5.94c0-.221.086-.434.239-.59a.805.805 0 011.152 0 .846.846 0 01.239.59v4.215a.846.846 0 01-.239.59.805.805 0 01-.576.245z"/><defs><clipPath id="prefix__clip0_12659_107960"><rect width="20" fill="#fff" transform="translate(2 2)"/></clipPath></defs></svg>
