<?xml version="1.0" encoding="utf-8"?>
<!-- Generator: Adobe Illustrator 24.1.0, SVG Export Plug-In . SVG Version: 6.00 Build 0)  -->
<svg version="1.1" id="Layer_1" xmlns="http://www.w3.org/2000/svg" xmlns:xlink="http://www.w3.org/1999/xlink" x="0px" y="0px"
	 viewBox="0 0 500 500" style="enable-background:new 0 0 500 500;" xml:space="preserve">
<style type="text/css">
	.st0{fill-rule:evenodd;clip-rule:evenodd;fill:#2E3148;}
	.st1{fill-rule:evenodd;clip-rule:evenodd;fill:#1B1E36;}
	.st2{fill:none;stroke:#6F7390;stroke-width:9.7844;}
	.st3{fill-rule:evenodd;clip-rule:evenodd;fill:#B7B9C8;}
</style>
<path class="st0" d="M250,0c138.1,0,250,111.9,250,250S388.1,500,250,500S0,388.1,0,250S111.9,0,250,0z"/>
<path class="st1" d="M249.5,105.8c79.7,0,144.2,64.6,144.2,144.2s-64.6,144.2-144.2,144.2c-79.7,0-144.2-64.6-144.2-144.2
	S169.9,105.8,249.5,105.8z"/>
<path class="st2" d="M250,36.5c1.7,0,3.9,0.8,6.4,3.1c2.6,2.4,5.3,6.1,8.1,11.4c5.5,10.5,10.6,26,14.9,45.6
	c8.6,39.1,14,93.3,14,153.3s-5.4,114.3-14,153.3c-4.3,19.6-9.4,35.1-14.9,45.6c-2.7,5.3-5.5,9-8.1,11.4c-2.6,2.4-4.7,3.1-6.4,3.1
	c-1.7,0-3.9-0.8-6.4-3.1c-2.6-2.4-5.3-6.1-8.1-11.4c-5.5-10.5-10.6-26-14.9-45.6c-8.6-39.1-14-93.3-14-153.3s5.4-114.3,14-153.3
	c4.3-19.6,9.4-35.1,14.9-45.6c2.7-5.3,5.5-9,8.1-11.4C246.2,37.3,248.3,36.5,250,36.5z"/>
<path class="st2" d="M436.2,143c0.9,1.5,1.3,3.8,0.5,7.2c-0.8,3.5-2.7,7.7-5.8,12.7c-6.4,10-17.3,22.3-32.1,35.9
	c-29.6,27.1-74,59-126.1,89.1c-52.2,30.1-102,52.6-140.3,64.6c-19.2,6-35.2,9.4-47.1,9.8c-5.9,0.2-10.6-0.3-14-1.3
	c-3.3-1-5.1-2.5-6-4c-0.9-1.5-1.3-3.8-0.5-7.2c0.8-3.5,2.7-7.7,5.8-12.7c6.4-10,17.3-22.3,32.1-35.9c29.6-27.1,74-59,126.1-89.1
	s102-52.6,140.3-64.6c19.2-6,35.2-9.4,47.1-9.8c5.9-0.2,10.6,0.3,14,1.3C433.5,140,435.3,141.5,436.2,143z"/>
<path class="st2" d="M430.2,361c3.3-1,5.1-2.5,6-4c0.9-1.5,1.3-3.8,0.5-7.2c-0.8-3.5-2.7-7.7-5.8-12.7c-6.4-10-17.3-22.3-32.1-35.9
	c-29.6-27.1-74-59-126.1-89.1s-102-52.6-140.3-64.6c-19.2-6-35.2-9.4-47.1-9.8c-5.9-0.2-10.6,0.3-14,1.3c-3.3,1-5.1,2.5-6,4
	L430.2,361z M430.2,361c-3.4,1.1-8,1.5-14,1.3 M430.2,361l-14,1.3 M416.2,362.4c-11.9-0.5-27.9-3.8-47.1-9.8 M416.2,362.4l-47.1-9.8
	 M369.1,352.5c-38.3-12-88.1-34.5-140.3-64.6 M369.1,352.5l-140.3-64.6 M228.9,287.9c-52.2-30.1-96.5-62-126.1-89.1 M228.9,287.9
	l-126.1-89.1 M102.7,198.8C87.9,185.2,77,173,70.6,162.9 M102.7,198.8l-32.1-35.9 M70.6,162.9c-3.2-5-5.1-9.3-5.8-12.7 M70.6,162.9
	l-5.8-12.7 M64.8,150.2c-0.8-3.4-0.4-5.7,0.5-7.2L64.8,150.2z"/>
<path class="st3" d="M110.8,188.7c8.5,0,15.4,6.9,15.4,15.4c0,8.5-6.9,15.4-15.4,15.4c-8.5,0-15.4-6.9-15.4-15.4
	C95.4,195.6,102.3,188.7,110.8,188.7z"/>
<path class="st3" d="M355.5,136c8.5,0,15.4,6.9,15.4,15.4c0,8.5-6.9,15.4-15.4,15.4c-8.5,0-15.4-6.9-15.4-15.4
	C340.1,142.9,347,136,355.5,136z"/>
<path class="st3" d="M219.7,377.7c8.5,0,15.4,6.9,15.4,15.4c0,8.5-6.9,15.4-15.4,15.4c-8.5,0-15.4-6.9-15.4-15.4
	C204.3,384.6,211.2,377.7,219.7,377.7z"/>
<path class="st3" d="M249.9,223.8c14.4,0,26.1,11.7,26.1,26.1c0,14.4-11.7,26.1-26.1,26.1c-14.4,0-26.1-11.7-26.1-26.1
	C223.8,235.5,235.5,223.8,249.9,223.8z"/>
</svg>
