<?xml version="1.0" encoding="utf-8"?>
<!-- Generator: Adobe Illustrator 23.0.3, SVG Export Plug-In . SVG Version: 6.00 Build 0)  -->
<svg version="1.1" id="aura" xmlns="http://www.w3.org/2000/svg" xmlns:xlink="http://www.w3.org/1999/xlink" x="0px" y="0px"
	 viewBox="0 0 500 500" style="enable-background:new 0 0 500 500;" xml:space="preserve">
<style type="text/css">
	.st0{fill:#FFFFFF;}
	.st1{fill:url(#SVGID_1_);}
	.st2{fill:url(#SVGID_2_);}
	.st3{fill:url(#SVGID_3_);}
</style>
<path class="st0" d="M377,45.7c-79.6-40.6-173.8-40.6-253.4,0C87,65.1,56.4,94.1,35.1,129.6C13.6,165.9,2.5,207.5,3,249.7
	c-0.5,42.6,10.5,84.6,32.1,121.4c21.2,35.8,51.8,65.1,88.4,84.8c79.5,41,173.9,41,253.4,0c36.8-19.6,67.5-49,88.8-84.8
	c21.5-36.8,32.6-78.8,32.1-121.4c0.5-42.2-10.6-83.8-32.1-120.1C444.3,94,413.6,65.1,377,45.7z"/>
<radialGradient id="SVGID_1_" cx="444.4217" cy="675.3041" r="369.6155" gradientTransform="matrix(0.38 0.92 0.63 -0.26 -139.1407 -107.2593)" gradientUnits="userSpaceOnUse">
	<stop  offset="0" style="stop-color:#785AC8"/>
	<stop  offset="0.49" style="stop-color:#47A1EE"/>
	<stop  offset="1" style="stop-color:#18DFC6"/>
</radialGradient>
<path class="st1" d="M318.6,194.7c8,18.3,27.4,38.8,47.9,60.8c27.9,30,60.1,64.5,67.3,99.6c0.1,0.7,0.8,1.2,1.6,1.1
	c0.4-0.1,0.7-0.3,0.9-0.6c29.8-40,17.6-66,4.8-93.3s-27.4-59.1,13.2-94.8c-3.4-8.4-7.5-16.5-12.1-24.3
	c-15.3-25.4-36.1-47.1-60.9-63.4C335.6,108.8,300.1,153.4,318.6,194.7z"/>
<linearGradient id="SVGID_2_" gradientUnits="userSpaceOnUse" x1="147.0096" y1="103.9699" x2="227.0031" y2="291.566" gradientTransform="matrix(1 0 0 -1 0 502.43)">
	<stop  offset="0" style="stop-color:#47A1EE"/>
	<stop  offset="1" style="stop-color:#18DFC6"/>
</linearGradient>
<path class="st2" d="M34.1,269.4c3.6,9.6,33.3,78.3,163.2,80.3c48.4,0.7,89.6,20,107.6,50.4c7.4,12.1,10.6,26.3,9.1,40.4
	c0,0.5,0.4,0.9,0.9,1c1.5,0,3-0.5,4.2-1.4c14.7-9.1,25.9-29.9,16.1-56.5c-9.1-28.8-38.1-54.9-80.8-75h-0.5
	c-11.1-5.7-22.9-11.1-35.3-15.9c-3.3-1.3-6.3-2.7-9.1-4.1h-0.9c-39.7-22.1-62.7-52.7-68.5-91.4v-0.5c-4.4-40.9,11.4-90.5,42.4-132.9
	c3.9-5.2,8.1-10.1,12.3-14.8c-20.3,4.3-40,11.4-58.3,21.2c-31.4,16.7-57.8,41.5-76.5,71.8c-18.3,31.7-27.7,67.7-27.4,104.2
	C33,253.8,33.4,262.1,34.1,269.4z"/>
<radialGradient id="SVGID_3_" cx="381.5163" cy="492.3275" r="387.3512" gradientTransform="matrix(0.9998 -1.745241e-02 -1.745241e-02 -0.9998 8.8976 501.8243)" gradientUnits="userSpaceOnUse">
	<stop  offset="0" style="stop-color:#18DFC6"/>
	<stop  offset="0.51" style="stop-color:#47A1EE"/>
	<stop  offset="1" style="stop-color:#785AC8"/>
</radialGradient>
<path class="st3" d="M253.2,44c-5.8,0-11.5,0.9-17.2,1.7c-39.2,30.5-75.8,96.7-68.9,149.7c4.3,33,25,57.1,61.5,71.7
	c115.5,45.7,135.7,102.1,137.1,131.6c0.4,6.1,0,12.3-1.1,18.3c-0.2,0.7,0.3,1.5,1,1.7c0.4,0.1,0.8,0,1.1-0.2
	c9-5.4,17.5-11.5,25.5-18.3c34.6-34.3,4.2-72.3-45.7-126.3c-22.1-23.8-43-46.2-52.8-68.2c-16.3-36.6-8.5-93,60.8-140.9
	c-24.9-11.5-51.6-18.5-78.9-20.8c-3,0-6,0-9.1,0C262.1,43.6,257.3,43.7,253.2,44z"/>
</svg>
