<?xml version="1.0" encoding="utf-8"?>
<!-- Generator: Adobe Illustrator 25.4.1, SVG Export Plug-In . SVG Version: 6.00 Build 0)  -->
<svg version="1.1" id="auto" xmlns="http://www.w3.org/2000/svg" xmlns:xlink="http://www.w3.org/1999/xlink" x="0px" y="0px"
	 viewBox="0 0 500 500" style="enable-background:new 0 0 500 500;" xml:space="preserve">
<style type="text/css">
	.st0{fill:#4958C5;}
	.st1{fill:#FFFFFF;}
</style>
<path class="st0" d="M500,250c0,138.3-112.2,250.5-250.5,250.5C111.2,500.5-1,388.3-1,250S111.2-0.5,249.5-0.5
	C387.8-0.5,500,111.7,500,250z"/>
<path class="st1" d="M351.6,146.2h-68.5v-19.3c0-21.2,22-37,36.7-38.3c12.9-1.2,19.8-2.8,45.3,5.5V59.4c-17.4-4.3-38.3-3.7-55.7-2.1
	c-19,1.1-62.2,21.2-62.2,67.8v21.2H222v31.6h25.2V297c0,0-16.3-15.5-49.8-15.5c-46.6,0-87.9,35.9-87.9,87.3
	c0,51.4,38.3,88.3,88.9,88.3c50.6,0,86-43.3,87.1-88.3c1.1-45,0-96.2,0-96.2v-94.8h66V146.2z"/>
<ellipse class="st0" cx="198.8" cy="367.4" rx="51.4" ry="51.4"/>
</svg>
