<?xml version="1.0" encoding="utf-8"?>
<!-- Generator: Adobe Illustrator 23.0.2, SVG Export Plug-In . SVG Version: 6.00 Build 0)  -->
<svg version="1.1" id="axp" xmlns="http://www.w3.org/2000/svg" xmlns:xlink="http://www.w3.org/1999/xlink" x="0px" y="0px"
	 viewBox="0 0 500 500" style="enable-background:new 0 0 500 500;" xml:space="preserve">
<style type="text/css">
	.st0{fill:#0263E1;}
</style>
<g id="Logo_aXpire_White1x" transform="translate(-12.006 -29.624)">
	<g id="aXpire_Transparent" transform="translate(6.704 29.624)">
		<g id="Group_1">
			<g id="_045de4ff" transform="translate(5.302)">
				<path id="Shape" class="st0" d="M196.2,2.5h13.6C291.9,5.2,366,52.2,403.4,125.3c1.7,3.2,1.9,6.9,0.4,10.3
					c-2.3,5.2-8,8-13.6,6.8c-3.4-1.3-6.4-3.4-8.7-6.2c-70.3-65.4-164.3-99-260.1-93.2c-5.3,0.8-10.4-2.2-12.4-7.2
					c-2.4-5.8,0.2-12.4,5.8-15.1C140.7,9.6,168.2,3.5,196.2,2.5z"/>
				<path id="Shape-2" class="st0" d="M405.6,32.7c4.5-1.9,9.7-0.7,12.9,3c19.7,22.9,34.7,49.5,44,78.2
					c11.5,35.6,14.2,73.5,7.7,110.4c-7.9,45.6-29.6,87.8-62.2,120.7c-4.5,4.1-11.4,4-15.8-0.2c-3.9-3.6-4.9-9.4-2.4-14.1
					c26.4-56.1,37.7-118.2,32.8-180C420,115.3,412,80.5,398.9,47.4C396.7,41.5,399.7,34.9,405.6,32.7z"/>
				<path id="Shape-3" class="st0" d="M189.3,61.9c3.1-0.9,6.4-0.7,9.4,0.7c5.8,3.2,8,10.3,5,16.2c-1.3,2.3-3.4,4.2-5.8,5.3
					C112.4,131.6,50.4,212.2,26.3,306.9c-1,4.7-4.8,8.4-9.6,9c-6.3,1-12.2-3.3-13.2-9.7c0,0,0,0,0-0.1
					c-6.9-75.3,24.1-149.1,82.6-197C115.8,84.9,151.4,68.6,189.3,61.9z"/>
				<path id="Shape-4" class="st0" d="M76.7,232c6.2-1.7,12.5,2,14.2,8.2c0.1,0.3,0.1,0.6,0.2,0.9c13.4,72.6,49.1,139.3,102.1,190.8
					c17,16.5,35.6,31.2,55.6,44c2.8,1.7,4.8,4.6,5.4,7.9c0.9,5.8-2.4,11.4-8,13.4c-4.2,0.7-8.5,0.2-12.5-1.4
					c-49.2-13.1-92.6-42.5-122.9-83.4c-36.5-49-51.8-110.6-42.5-171C68.9,236.8,72.2,233.1,76.7,232z"/>
				<path id="Shape-5" class="st0" d="M482.7,314.7c6.4-1.6,12.9,2.3,14.5,8.8c0.2,0.6,0.3,1.2,0.3,1.9c-0.4,4.6-2.2,9-5.2,12.5
					c-61.8,97.7-187.8,132.3-290.8,80c-3.6-1.8-6-5.3-6.4-9.3c-0.5-5.1,2.3-10,6.9-12.1c2.6-1,5.5-1.2,8.3-0.6
					c66.2,8.3,133.4-2.5,193.7-31.2c26.5-12.6,51.3-28.4,73.8-47.2C479.2,316.2,480.9,315.2,482.7,314.7z"/>
			</g>
		</g>
	</g>
</g>
</svg>
