<?xml version="1.0" encoding="utf-8"?>
<!-- Generator: Adobe Illustrator 24.2.2, SVG Export Plug-In . SVG Version: 6.00 Build 0)  -->
<svg version="1.1" id="Layer_1" xmlns="http://www.w3.org/2000/svg" xmlns:xlink="http://www.w3.org/1999/xlink" x="0px" y="0px"
	 viewBox="0 0 500 500" style="enable-background:new 0 0 500 500;" xml:space="preserve">
<path d="M353.7,283c-31.2,6.2-66.7,9.5-103.7,9.5s-72.5-3.3-103.7-9.5C62.6,296.2,4.6,324.9,4.6,358.1c0,45.8,109.9,82.8,245.4,82.8
	s245.4-37.1,245.4-82.8C495.4,324.9,437.4,296.2,353.7,283z"/>
<ellipse cx="249.8" cy="88.6" rx="146.4" ry="48"/>
<path d="M314.9,147.6c-20.8,3.2-43.2,4.8-65.1,4.8c-21.8,0-44.1-1.6-64.9-4.8c-75.8,8.9-130.2,33-130.2,61.2
	c0,35.9,87.4,64.9,195.3,64.9s195.3-29.1,195.3-64.9C445.3,180.6,390.8,156.5,314.9,147.6z"/>
</svg>
