<svg width="49" height="48" viewBox="0 0 49 48" fill="none" xmlns="http://www.w3.org/2000/svg">
<g clip-path="url(#clip0_4239_27166)">
<path fill-rule="evenodd" clip-rule="evenodd" d="M24.7002 0C37.953 0 48.7002 10.7472 48.7002 24C48.7002 37.2528 37.953 48 24.7002 48C11.4474 48 0.700195 37.2528 0.700195 24C0.700195 10.7472 11.4474 0 24.7002 0Z" fill="#1E1E1E"/>
<path d="M25.0601 34.0324C17.3849 34.0324 11.1641 31.8148 11.1641 28.8436C11.1641 27.2932 12.8585 25.8964 15.5705 24.9124C17.6873 26.2708 21.2393 26.9668 25.2665 26.9668C29.1977 26.9668 32.6729 26.1172 34.8089 24.8164C37.3673 25.7908 38.9561 27.1492 38.9561 28.6468C38.9561 31.6228 32.7353 34.0324 25.0601 34.0324Z" fill="white"/>
<path d="M25.1415 26.2989C19.3239 26.2989 14.6055 24.4749 14.6055 22.2237C14.6055 20.9757 16.0599 19.8573 18.3399 19.1133C19.9671 19.9629 22.4055 20.5053 25.1415 20.5053C27.8775 20.5053 30.3159 19.9629 31.9431 19.1133C34.2279 19.8621 35.6775 20.9757 35.6775 22.2237C35.6823 24.4749 30.9639 26.2989 25.1415 26.2989Z" fill="white"/>
<path d="M25.1036 19.8294C20.606 19.8294 16.958 18.3222 16.958 16.4694C16.958 14.6166 20.606 13.1094 25.1036 13.1094C29.6012 13.1094 33.2492 14.6166 33.2492 16.4694C33.2492 18.3222 29.6012 19.8294 25.1036 19.8294Z" fill="white"/>
</g>
<defs>
<clipPath id="clip0_4239_27166">
<rect width="48" height="48" fill="white" transform="translate(0.700195)"/>
</clipPath>
</defs>
</svg>
