<?xml version="1.0" encoding="utf-8"?>
<!-- Generator: Adobe Illustrator 24.1.0, SVG Export Plug-In . SVG Version: 6.00 Build 0)  -->
<svg version="1.1" id="BAM" xmlns="http://www.w3.org/2000/svg" xmlns:xlink="http://www.w3.org/1999/xlink" x="0px" y="0px"
	 viewBox="0 0 500 500" style="enable-background:new 0 0 500 500;" xml:space="preserve">
<style type="text/css">
	.st0{fill:#3200F7;}
	.st1{fill:#FFFFFF;}
</style>
<circle class="st0" cx="249.54" cy="248.84" r="247.7"/>
<rect x="303.09" y="177.39" transform="matrix(0.3504 -0.9366 0.9366 0.3504 56.5606 463.1625)" class="st1" width="118.16" height="26.83"/>
<rect x="206.92" y="230.47" transform="matrix(0.3504 -0.9366 0.9366 0.3504 -62.7529 397.2844)" class="st1" width="96.21" height="26.83"/>
<path class="st1" d="M348.86,261.36l-34.04,91.04c-0.55,1.48-1.97,2.46-3.55,2.46l-20.57-0.03c-2.64,0-4.46-2.64-3.54-5.11
	l36.57-97.76c0.73-1.96,2.91-2.95,4.87-2.22l18.04,6.75C348.6,257.22,349.6,259.4,348.86,261.36z"/>
<path class="st1" d="M165.66,284.92l-25.69,67.48c-0.55,1.48-1.97,2.46-3.55,2.46l-20.57-0.03c-2.64,0-4.46-2.64-3.54-5.11
	l28.22-74.2c0.73-1.96,2.91-2.95,4.87-2.22l18.04,6.75C165.4,280.78,166.39,282.96,165.66,284.92z"/>
<path class="st1" d="M245.73,305.96l-17.22,47.63c-0.55,1.48-1.97,2.46-3.55,2.46l-20.57-0.03c-2.64,0-4.46-2.64-3.54-5.11
	l19.75-54.35c0.73-1.96,2.91-2.95,4.87-2.22l18.04,6.75C245.47,301.82,246.46,304,245.73,305.96z"/>
<path class="st1" d="M194.47,163.12c0,0,15.96,3.55,33.2,20.78s23.57,34.46,23.57,34.46s-22.05-9.12-35.22-22.3
	C202.83,182.89,194.47,163.12,194.47,163.12z"/>
<path class="st1" d="M203.43,218.49c0,0,8.29-5.28,22.94-5.28c14.65,0,24.66,4.63,24.66,4.63s-13.25,5.49-24.45,5.49
	S203.43,218.49,203.43,218.49z"/>
</svg>
