<?xml version="1.0" encoding="utf-8"?>
<!-- Generator: Adobe Illustrator 26.0.3, SVG Export Plug-In . SVG Version: 6.00 Build 0)  -->
<svg version="1.1" id="band" xmlns="http://www.w3.org/2000/svg" xmlns:xlink="http://www.w3.org/1999/xlink" x="0px" y="0px"
	 viewBox="0 0 500 500" style="enable-background:new 0 0 500 500;" xml:space="preserve">
<style type="text/css">
	.st0{fill:#4520E7;}
</style>
<path id="Logo1" class="st0" d="M421.5,159.2c0-35.4-17.1-66.7-43.4-85.9l70.9-72l-42.4,0.2l-56.4,57.2c-10.5-3.6-21.6-5.5-33.2-5.5
	h-194V332L356.6,95c21,13.4,35.1,37.2,35.1,64.2c0,41.7-33.5,75.7-74.6,75.7h-6.2L51,498.8h42.2l51-51.7H317
	c57.6,0,104.4-47.6,104.4-106c0-38.6-20.4-72.3-50.8-90.8C401,231.5,421.5,197.7,421.5,159.2z M152.9,258.9V83.4H317
	c2.8,0,5.6,0.2,8.3,0.5L152.9,258.9z M391.7,340.8c0,41.7-33.5,75.7-74.6,75.7H174l148.7-150.9C361.1,268.7,391.7,301.1,391.7,340.8
	z"/>
</svg>
