<?xml version="1.0" encoding="utf-8"?>
<!-- Generator: Adobe Illustrator 25.2.0, SVG Export Plug-In . SVG Version: 6.00 Build 0)  -->
<svg version="1.1" id="bao" xmlns="http://www.w3.org/2000/svg" xmlns:xlink="http://www.w3.org/1999/xlink" x="0px" y="0px"
	 viewBox="0 0 500 500" style="enable-background:new 0 0 500 500;" xml:space="preserve">
<style type="text/css">
	.st0{fill:#59251B;}
	.st1{fill:#F1E3D6;}
	.st2{fill:#FBF7EC;}
	.st3{fill:#FF8884;}
</style>
<path class="st0" d="M250,47.6c15,0,28,8.9,33.9,21.7c5.4-3,11.6-4.7,18.2-4.7c20.7,0,37.4,16.7,37.4,37.4c0,2-0.2,4-0.5,5.9
	c12.5,5.6,134.8,64.2,130.8,191.8c-3.5,110.6-116.1,152-214.1,152c-91.2,0-215.9-22.5-226.3-154.7c-8.2-104.5,89-175.5,130.2-189.3
	c-0.3-1.9-0.4-3.8-0.4-5.7c0-20.7,16.7-37.4,37.4-37.4c7,0,13.6,1.9,19.2,5.3C221.6,56.8,234.7,47.6,250,47.6 M250,33.6
	c-15.6,0-30.1,7.1-39.8,18.8c-4.4-1.2-9-1.8-13.7-1.8c-27.1,0-49.4,21.1-51.3,47.7c-23.1,10.2-54.2,31.5-79.8,60.8
	c-25.5,29.2-54.9,77-50,139c2.7,33.7,12.6,62.9,29.4,86.9c14.9,21.2,35.5,38.5,61.1,51.4c38.5,19.4,88.9,29.3,149.8,29.3
	c56.7,0,109.9-13,149.6-36.5c49.6-29.4,76.7-74,78.5-129.1c1-31.5-5.2-61.6-18.3-89.4c-10.6-22.5-25.8-43.5-45-62.6
	c-25.8-25.5-52.9-41.4-67-48.7c-1.4-27.1-23.9-48.8-51.3-48.8c-4.3,0-8.5,0.5-12.6,1.6C279.9,40.6,265.4,33.6,250,33.6L250,33.6z"/>
<path class="st1" d="M469.8,299.7c-3.5,110.6-116.1,152-214.1,152c-81.3,0-189.4-17.9-219.1-115.6C77,408.9,171,423.2,243.8,423.2
	c97.9,0,210.6-41.4,214.1-152c0.7-22.6-2.6-43.1-8.5-61.5C462.5,234.7,470.9,264.6,469.8,299.7z"/>
<path class="st2" d="M457.8,271.2c-3.5,110.6-116.1,152-214.1,152c-72.7,0-166.7-14.3-207.1-87.1c-3.6-11.8-6.1-24.8-7.2-39
	c-8.2-104.5,89-175.5,130.2-189.3c-0.3-1.9-0.4-3.8-0.4-5.7c0-20.7,16.8-37.4,37.4-37.4c7,0,13.6,1.9,19.2,5.3
	c5.8-13.1,18.9-22.3,34.2-22.3c15,0,28,8.9,34,21.7c5.4-3,11.6-4.7,18.2-4.7c9.8,0,18.7,3.8,25.4,9.9c2.6,2.5,4.9,5.3,6.8,8.4
	c3.3,5.6,5.2,12.1,5.2,19.1c0,2-0.2,4-0.5,5.9c9,4.1,75.8,36,110.3,101.8C455.3,228.1,458.5,248.5,457.8,271.2z"/>
<path class="st0" d="M211,113.6c0,0.1,0,0.2,0,0.3c-1.5,14.5-13.3,26-27.8,27.2c-3.9,0.3-7.7-0.1-11.2-1.1c-3.3-1-5.6,3.3-2.8,5.4
	c5.8,4.4,13.2,6.8,21.2,6.1c14.9-1.3,26.8-13.6,27.7-28.5c0.2-3.4-0.2-6.8-1-9.9C216.2,109.7,211.3,110.2,211,113.6z"/>
<path class="st0" d="M292.9,117.1c0.1,0,0.2,0,0.3,0.1c13,3.2,22,16,21.3,30.1c-0.2,3.8-1.1,7.4-2.5,10.7c-1.3,3.1,2.3,5.8,4.5,3.4
	c4.7-5.1,7.9-12,8.2-19.8c0.7-14.6-9-27.5-22.5-30.1c-3.1-0.6-6.2-0.7-9.2-0.2C290,111.7,289.8,116.4,292.9,117.1z"/>
<path class="st0" d="M256.2,125.8c0.1,0.1,0.1,0.2,0.2,0.3c6.3,11.2,3.6,25.5-6.2,33.7c-2.7,2.2-5.6,3.8-8.7,4.9
	c-2.9,1-2.3,5.2,0.7,5.3c6.4,0.2,13-1.8,18.4-6.4c10.1-8.5,12.4-23.4,5.4-34.7c-1.6-2.6-3.6-4.8-5.8-6.6
	C258,120.3,254.7,123.1,256.2,125.8z"/>
<circle class="st0" cx="167.7" cy="267.9" r="17.9"/>
<circle class="st0" cx="332.6" cy="267.9" r="17.9"/>
<path class="st0" d="M294.4,291c-2.3,5.9-6.1,13-12.5,18.8c-7.1,6.5-17.2,11.4-31.9,11.4c-14.7,0-24.8-4.9-31.9-11.4
	c-6.4-5.8-10.2-12.9-12.5-18.8c-2.2-5.6,2-11.5,7.9-11.5h72.9C292.4,279.5,296.6,285.5,294.4,291z"/>
<path class="st3" d="M281.9,309.9c-7.1,6.5-17.2,11.4-31.9,11.4c-14.7,0-24.8-4.9-31.9-11.4c8.4-7.8,19.6-12.5,31.9-12.5
	C262.3,297.3,273.5,302.1,281.9,309.9z"/>
</svg>
