<svg width="24" height="24" viewBox="0 0 24 24" fill="currentColor" xmlns="http://www.w3.org/2000/svg">
<path fill-rule="evenodd" clip-rule="evenodd" d="M3 11C3 9.89543 3.89543 9 5 9H9C10.1046 9 11 9.89543 11 11V19C11 20.1046 10.1046 21 9 21H5C3.89543 21 3 20.1046 3 19V11ZM9 11H5V19H9V11Z" />
<path fill-rule="evenodd" clip-rule="evenodd" d="M13 5C13 3.89543 13.8954 3 15 3H19C20.1046 3 21 3.89543 21 5V19C21 20.1046 20.1046 21 19 21H15C13.8954 21 13 20.1046 13 19V5ZM19 5H15V19H19V5Z" />
<path d="M1 20C1 19.4477 1.44772 19 2 19H22C22.5523 19 23 19.4477 23 20C23 20.5523 22.5523 21 22 21H2C1.44772 21 1 20.5523 1 20Z"/>
</svg>
