<?xml version="1.0" encoding="utf-8"?>
<!-- Generator: Adobe Illustrator 23.0.3, SVG Export Plug-In . SVG Version: 6.00 Build 0)  -->
<svg version="1.1" id="bay" xmlns="http://www.w3.org/2000/svg" xmlns:xlink="http://www.w3.org/1999/xlink" x="0px" y="0px"
	 viewBox="0 0 500 500" style="enable-background:new 0 0 500 500;" xml:space="preserve">
<style type="text/css">
	.st0{fill:#6356AB;}
</style>
<path class="st0" d="M417,249.5c1.4-1.6,3.1-3.2,4.7-4.9c5.2-5.6,11-11.5,16.4-17.3c21.8-22.7,33.8-52.1,33.8-83.1
	c0-2.2,0.4-11,0.4-12.2c-2.5-70.9-62.8-128.6-134-128.6H114v89.6H23.7v403.7h318.1c70.7,0,130.4-62.2,130.4-135.9
	C472.4,308.1,439.5,270.9,417,249.5z M159,138l178.6,0.2L225.3,250.8l111,111.5H159C159,362.3,159,138,159,138z M341.8,451.6H68.7
	V137.8H114V407h222.3c18.3,0,34.7-11,41.7-27.9c7-16.9,3.2-36.1-9.7-49.1L289,250.6l80.6-80.7c12.9-12.9,16.7-32.2,9.7-49.1
	c-7-16.9-23.4-27.9-41.7-27.9H159.1V48.3h179.3c47.5,0,87.4,38.3,89,84.9c0,2-0.4,9.7-0.4,9.9v0.9c0,26.3-13.3,44.1-21.4,52.3
	c-5.6,5.8-11.3,11.9-16.5,17.3c-8.8,9.2-16.4,17.1-20,20.7L353,250.1l16,16c2.2,2.2,4.9,4.7,8.1,7.7c18.7,17.3,50.2,46,50.2,86.7
	C427.4,409,387.5,451.6,341.8,451.6z"/>
</svg>
