<?xml version="1.0" encoding="utf-8"?>
<!-- Generator: Adobe Illustrator 23.0.3, SVG Export Plug-In . SVG Version: 6.00 Build 0)  -->
<svg version="1.1" id="bbr" xmlns="http://www.w3.org/2000/svg" xmlns:xlink="http://www.w3.org/1999/xlink" x="0px" y="0px"
	 viewBox="0 0 500 500" style="enable-background:new 0 0 500 500;" xml:space="preserve">
<style type="text/css">
	.st0{fill:#0597FF;}
</style>
<path class="st0" d="M120.6,132.2V70.3c-24.7,16.8-45.9,38-61.8,61.8H120.6z"/>
<path class="st0" d="M18.1,263.8v0.9C18.1,392.7,122.4,497,250.4,497c129.8,0,234.1-104.2,234.1-233.2
	c0-128.1-104.2-232.3-234.1-232.3c-15,0-29.1,0.9-42.4,4.4v60.1c14.1-4.4,28.3-6.2,42.4-6.2c97.2,0,174.9,78.6,174.9,174.9
	s-77.7,174.9-174.9,174.9c-96.3,0-174-78.6-174-174.9c0-15.9-14.1-29.1-30-29.1S18.1,247.9,18.1,263.8z"/>
<path class="st0" d="M134.7,263.8c0,64.5,53,116.6,116.6,116.6c64.5,0,117.5-52.1,117.5-116.6s-53-116.6-117.5-116.6H76.4l29.1,58.3
	h144.9c32.7,0,58.3,25.6,58.3,57.4c0,32.7-25.6,58.3-58.3,58.3c-31.8,0-57.4-25.6-57.4-58.3v-44.2h-58.3
	C134.7,218.7,134.7,263.8,134.7,263.8z"/>
<path class="st0" d="M193,30.6c0-15.9-13.2-28.3-29.1-28.3s-29.1,13.2-29.1,28.3v101.6H193C193,132.2,193,31.5,193,30.6z"/>
</svg>
