<?xml version="1.0" encoding="iso-8859-1"?>
<!-- Generator: Adobe Illustrator 19.0.0, SVG Export Plug-In . SVG Version: 6.00 Build 0)  -->
<svg version="1.1" id="Layer_1" xmlns="http://www.w3.org/2000/svg" xmlns:xlink="http://www.w3.org/1999/xlink" x="0px" y="0px"
	 viewBox="750 -750 2000 2000" style="enable-background:new 750 -750 2000 2000;" xml:space="preserve">
<g>
	<polygon style="fill:#FFFFFF;" points="2109.19,-570.147 2407.698,-430.196 2703.779,-29.759 1750,1061.534 783.297,-30.568 
		1093.131,-426.152 1412.672,-570.147 	"/>
	<path style="fill:#494949;" d="M2732.656-27.901c-326.909,371.328-653.202,741.956-982.73,1116.258
		C1421.14,714.876,1094.417,343.738,766.861-28.346c62.182-81.775,123.759-162.602,185.163-243.56
		c37.304-49.183,75.124-98.006,111.154-148.111c16.871-23.462,42.096-32.163,65.763-43.461
		c81.881-39.091,164.437-76.766,246.449-115.586c13.255-6.274,26.421-9.597,40.882-9.595c228.19,0.042,456.38,0.078,684.57-0.109
		c36.378-0.03,64.026,22.647,94.639,36.532c73.488,33.332,145.344,70.25,218.206,104.992c9.576,4.566,17.066,10.444,22.997,18.466
		C2534.806-296.056,2632.784-163.228,2732.656-27.901z M1655.186,919.741c0.268,1.235,0.536,2.469,0.155,0.715
		c0.144,1.934,0.061,0.821-0.022-0.292c-19.206-33.425-39.447-66.209-58.325-99.873
		c-103.085-183.825-207.689-366.797-310.936-550.532c-16.348-29.093-35.418-51.99-66.692-67.079
		c-78.805-38.02-156.153-79.064-234.024-119.014c-41.169-21.121-82.211-42.488-128.831-66.598c6.39,9.725,8.62,14.199,11.814,17.822
		c85.514,97.015,171.336,193.758,256.678,290.924c163.416,186.058,326.403,372.493,490.179,558.233
		C1626.801,897.224,1635.912,914.563,1655.186,919.741z M1290.512,208.753c152.129,267.952,304.209,535.818,458.234,807.109
		c6.242-9.014,8.819-12.153,10.772-15.642c37.843-67.585,75.644-135.194,113.391-202.833
		c107.185-192.066,214.171-384.245,321.866-576.025c7.817-13.92,8.14-26.044,4.167-40.398
		c-25.579-92.404-50.699-184.936-76.107-277.388c-14.312-52.077-28.888-104.082-43.641-157.185c-217.781,0-433.911,0-655.041,0
		C1380.136-101.323,1335.814,52.021,1290.512,208.753z M2370.218-423.6c-6.498-5.787-8.549-8.59-11.311-9.931
		c-69.729-33.884-139.429-67.828-209.393-101.222c-17.815-8.503-34.613-18.834-56.173-18.781
		c-223.173,0.547-446.347,0.367-669.521,0.314c-11.804-0.003-22.723,1.672-33.767,6.979
		c-45.797,22.006-92.107,42.941-138.114,64.515c-42.587,19.97-85.028,40.253-126.699,60.003c0.914,8.765,5.572,10.617,10.266,12.606
		c89.839,38.044,179.696,76.05,269.437,114.324c7.999,3.411,16.029,4.327,24.404,4.315c189.737-0.264,379.512-2.788,569.191,0.39
		c66.72,1.118,126.504-12.057,183.504-44.35c10.13-5.739,21.089-10.012,31.643-15.009
		C2264.622-373.567,2315.549-397.701,2370.218-423.6z M2233.95,177.477c152.228-72.39,299.375-142.365,449.169-213.597
		c-91.619-123.685-180.792-244.066-272.105-367.338c-100.07,47.123-198.262,93.36-297.432,140.059
		C2153.825-115.997,2193.233,28.341,2233.95,177.477z M1086.853-391.361c-89.102,117.41-176.818,232.993-266.107,350.65
		c148.31,76.279,292.169,150.27,439.954,226.278c43.71-152.146,86.218-300.109,128.925-448.763
		C1285.729-307.175,1187.041-348.95,1086.853-391.361z M1850.005,907.711c2.519,1.747,5.038,3.493,7.557,5.24
		c256.903-291.832,513.807-583.663,771.013-875.839c-9.533-6.673-15.165-1.253-20.766,1.405
		c-113.634,53.944-226.991,108.476-340.943,161.737c-20.072,9.381-33.6,22.317-44.21,41.449
		c-105.776,190.737-212.093,381.175-318.415,571.609C1886.553,844.995,1868.104,876.255,1850.005,907.711z"/>
	<path style="fill:#FCC72B;" d="M1522.637,391.758c72.381-5.012,72.091,10.523,71.502-75.5
		c-0.51-74.365-0.226-148.736-0.302-223.104c-0.04-38.793-10.353-49.175-48.563-49.938c-11.556-0.231-23.368,2.252-37.593-3.188
		c-4.433-19.807-3.17-40.775-0.161-65.396c42.995,0,85.096,0,128.493,0c10.699-36.905-0.519-72.442,7.431-107.351
		c21.029-4.361,41.212-4.552,64.573,0.481c0,32.659,0,64.796,0,96.63c18.025,7.631,33.253,5.562,50.119,2.731
		c7.077-32.998-1.705-66.603,5.027-99.834c20.59-5.539,40.315-2.029,62.304-2.487c7.811,35.463-0.453,70.678,5.499,106.456
		c28.623,5.541,57.545,8.585,84.615,19.852c85.611,35.631,103.652,126.5,37.533,191.744c-3.701,3.652-6.845,7.099-6.962,13.888
		c20.946,9.425,42.809,17.746,58.301,36.21c61.96,73.848,20.517,197.064-74.717,221.189c-31.454,7.968-62.663,17.778-97.453,14.669
		c-7.334,36.251,0.759,71.45-5.164,107.684c-21.363,6.257-42.189,4.534-65.451-0.037c0-33.213,0-65.373,0-95.938
		c-15.352-15.676-31.452-8.609-48.724-10.473c-8.297,36.088,1.992,71.368-5.091,106.877c-21.685,3.353-42.693,4.181-66.545-1.448
		c0-34.492,0-68.342,0-105.77c-44.826,0-86.893,0-132.087,0C1511.285,440.791,1512.033,415.818,1522.637,391.758z M1711.442,390.035
		c49.159,0.557,95.07,3.826,139.348-11.951c25.05-8.926,43.584-24.812,47.443-52.95c3.303-24.087-6.661-43.821-26.433-55.558
		c-49.748-29.531-104.367-26.387-160.357-23.387C1711.442,295.526,1711.442,340.977,1711.442,390.035z M1711.165,178.731
		c38.986,2.715,74.597,2.468,109.268-8.221c27.706-8.542,44.698-29.307,45.655-53.359c1.083-27.23-12.721-48.205-41.271-59.023
		c-36.609-13.872-74.516-11.872-113.651-8.807C1711.165,93.052,1711.165,134.28,1711.165,178.731z"/>
</g>
</svg>
