<?xml version="1.0" encoding="iso-8859-1"?>
<!-- Generator: Adobe Illustrator 19.0.0, SVG Export Plug-In . SVG Version: 6.00 Build 0)  -->
<svg version="1.1" id="Layer_1" xmlns="http://www.w3.org/2000/svg" xmlns:xlink="http://www.w3.org/1999/xlink" x="0px" y="0px"
	 viewBox="0 0 2000 2000" style="enable-background:new 0 0 2000 2000;" xml:space="preserve">
<path style="fill:#4CC847;" d="M265.12,981.315c-0.818,2.914-0.663,5.849-0.185,8.791c-1.864,9.005-0.615,18.108-0.772,27.161
	c-0.223,12.913,0.029,25.831,1.684,38.674c-0.27,3.292-0.291,6.571,0.49,9.811c0.49,19.326,3.26,38.416,6.198,57.47
	c1.572,10.198,2.321,20.57,5.597,30.463c0.077,0.832,0.154,1.664,0.231,2.495c-0.025,3.417,0.757,6.642,2.317,9.68
	c0.133,0.847,0.267,1.695,0.4,2.542c2.604,17.721,8.08,34.74,12.852,51.921c3.743,13.478,7.55,26.965,13.365,39.76
	c0,0-0.005-0.012-0.005-0.012c6.098,19.806,14.008,38.879,23.251,57.411c0,0,0.005,0.008,0.005,0.008
	c4.63,11.971,9.953,23.6,16.971,34.392c0,0-0.083-0.1-0.082-0.1c-0.009,1.89,0.81,3.355,2.298,4.477c0,0-0.027,0.358-0.026,0.358
	c1.912,4.992,4.464,9.637,7.553,13.993c-0.062,0.343,0.076,0.558,0.413,0.645c3.511,8.121,8.118,15.598,13.37,22.693l-0.116,0.3
	c0,0,0.268,0.178,0.268,0.178c0.29,0.443,0.579,0.887,0.869,1.331c0,0-0.029-0.026-0.029-0.026
	c7.056,12.984,14.956,25.414,24.283,36.904c0,0-0.085-0.065-0.084-0.066c0.427,0.892,0.752,1.852,1.292,2.669
	c11.095,16.756,23.508,32.547,36.341,47.957c11.771,14.136,23.503,28.382,37.24,40.756c0,0,0.019,0.039,0.019,0.039
	c1.945,2.924,4.361,5.378,7.295,7.315c0.416,0.418,0.833,0.837,1.249,1.255c0.391,0.407,0.783,0.815,1.174,1.223
	c0,0,0.014,0.017,0.014,0.017c0.408,0.393,0.816,0.786,1.224,1.179c0,0,0.028,0.018,0.028,0.018
	c0.819,1.611,2.097,2.765,3.642,3.651c0,0,0.018,0.026,0.018,0.026c0.397,0.405,0.794,0.811,1.19,1.216c0,0,0.014,0.01,0.014,0.01
	c1.949,2.919,4.6,5.114,7.391,7.165c0,0,0.112,0.092,0.112,0.092c0.498,1.047,1.072,2.013,2.368,2.2c0,0,0.36,0.256,0.359,0.256
	c-0.001,0,0.211,0.522,0.211,0.522l0.545,0.058c-0.064,0.405,0.108,0.631,0.515,0.678c0.207,0.26,0.414,0.52,0.622,0.781
	c0.18,0.399,0.488,0.591,0.926,0.577c0.396,1.419,1.234,2.337,2.779,2.455c0,0-0.065-0.042-0.065-0.042
	c0.333,1.764,1.774,2.704,2.959,3.76c20.751,18.488,42.216,36.096,64.815,52.294c1.714,1.228,3.8,2.109,4.281,5.267
	c-2.434,0-4.425,0-6.415,0c-178.68-0.022-357.36-0.042-536.04-0.075c-3.658-0.001-7.316-0.144-10.974-0.22
	c0-402.461,0-804.922,0-1207.383c184.196,0.019,368.391,0.038,552.587,0.053c0.405,0,0.811-0.065,1.216-0.099
	c-0.026,2.501-2.38,2.929-3.785,4.156c-4.305,3.759-9.608,6.257-13.47,10.588c0,0-0.04,0.028-0.04,0.028
	c-16.976,11.674-32.724,24.842-47.584,39.092c0,0-0.062,0.05-0.062,0.05c-0.691,0.394-1.482,0.677-2.06,1.198
	c-35.981,32.39-68.482,67.983-97.456,106.75c-8.106,10.845-16.637,21.458-22.965,33.545c0,0,0.066-0.058,0.067-0.057
	c-4.086,3.499-6.173,8.439-8.922,12.838c-7.923,12.679-16.365,25.072-22.587,38.748c0,0-0.053,0.065-0.053,0.065
	c-2.103,1.956-2.947,4.571-3.766,7.198c0,0,0.023-0.015,0.023-0.015c-8.087,12.255-14.391,25.405-19.616,39.097
	c0,0,0.04-0.028,0.04-0.028c-0.459,0.616-1.034,1.177-1.359,1.857c-15.993,33.461-28.507,68.235-38.842,103.803
	c-9.829,33.826-17.152,68.216-21.729,103.145c-2.296,17.526-5.056,35.037-4.891,52.803c-0.056,1.241-0.111,2.483-0.167,3.724
	c-1.101,2.686-0.853,5.456-0.507,8.232c-0.954,1.722-0.779,3.496-0.247,5.286C264.841,980.644,264.819,980.968,265.12,981.315z
	 M1732.262,955.775c0.587,1.827,0.773,3.661,0.102,5.511c2.506,9.394,2.027,18.979,1.82,28.546c0.822,4.142,0.639,8.299,0.175,12.46
	c0.512,6.456,0.52,12.911-0.016,19.365c-0.001,0.879-0.001,1.758-0.001,2.637c-0.01,12.451,1.081,24.96-1.978,37.252
	c0.655,1.244,0.477,2.487,0.006,3.731c0.534,0.646,0.49,1.267-0.08,1.866c-0.004,0.714-0.008,1.427-0.013,2.14
	c0.085,14.953-2.517,29.651-4.349,44.413c-0.665,5.357-0.939,10.842-2.911,15.986c0.252,0.283,0.244,0.556-0.024,0.821
	c-0.068,0.406-0.136,0.812-0.204,1.219c-0.074,0.821-0.147,1.641-0.221,2.462c-2.235,15.656-4.797,31.246-9.453,46.409
	c-0.043,0.415-0.085,0.83-0.128,1.245c-0.297,2.99-0.826,5.915-2.418,8.538c-0.088,0.822-0.176,1.644-0.264,2.466
	c-4.026,18.985-10.073,37.389-16.109,55.793c-2.25,6.862-4.193,13.857-7.876,20.165c0.109,0.395,0.03,0.747-0.236,1.058
	c-4.351,15.475-11.398,29.881-17.847,44.509c-1.932,4.383-3.244,9.143-6.405,12.943c0,0,0.009-0.011,0.009-0.011
	c-5.037,12.767-11.355,24.884-18.557,36.552c0.029,1.054-0.322,1.911-1.27,2.461c-9.068,18.048-19.35,35.357-31.375,51.608
	c0.001,0.001,0.067-0.056,0.067-0.056c-5.88,11.161-13.628,21.072-21.091,31.148c-11.44,15.445-22.746,31.019-36.29,44.766
	c0.002,0.001,0.054-0.031,0.054-0.031c-10.94,13.832-22.969,26.656-35.825,38.714c0,0-0.076,0.062-0.076,0.062
	c-2.979,3.481-5.928,6.992-9.739,9.633l-0.158,0.092c-3.276,3.639-6.317,7.529-10.699,9.982c0,0,0.048-0.043,0.048-0.043
	c-0.365,1.311-1.084,2.244-2.544,2.388c0,0-0.005,0.003-0.005,0.003c-2.333,3.041-4.82,5.906-8.477,7.438
	c0,0,0.037-0.027,0.037-0.027c-8.92,10.042-19.797,17.865-30.078,26.349c-5.289,4.365-10.977,8.245-16.485,12.343
	c-0.143,0.377-0.414,0.533-0.812,0.467c-4.103,3.931-8.519,7.426-13.697,9.863c0.001,0.001,0.073-0.068,0.073-0.067
	c-1.13,1.321-2.26,2.643-4.247,4.967c4.401,0,7.752,0,11.102,0c178.307-0.004,356.614-0.007,534.92-0.022
	c2.641,0,5.282-0.143,7.922-0.219c0-402.461,0-804.922,0-1207.383c-184.263,0-368.527,0-554.356,0
	c1.984,1.663,2.537,2.193,3.153,2.633c21.487,15.326,42.062,31.805,61.799,49.311c41.183,36.528,77.759,77.25,109.855,121.952
	c25.294,35.228,47.255,72.461,65.973,111.599c18.099,37.844,32.883,76.943,44.245,117.316c4.012,14.257,8.162,28.505,10.262,43.227
	c4.1,13.945,6.458,28.216,7.963,42.645c0.128,0.887,0.256,1.775,0.384,2.663C1729.6,918.168,1731.959,936.856,1732.262,955.775z
	 M1009.021,1615.474c322.842-4.349,596.542-270.046,592.199-613.112c-4.085-322.68-268.961-599.124-612.501-593.88
	c-322.718,4.927-591.33,270.011-590.95,603.935C397.176,1342.069,665.938,1620.097,1009.021,1615.474z M1190.158,926.667
	c26.976,3.716,51.499,12.539,70.681,33.149c13.062,14.034,21.174,30.688,27.044,48.569c12.417,37.818,13.344,75.475-2.795,112.592
	c-13.748,31.616-37.663,53.382-67.514,69.479c-26.028,14.035-53.723,23.983-81.394,34.033c-0.745,0.271-1.458,0.628-3.192,1.382
	c5.134,36.535,16.549,71.685,25.583,108.218c-21.664,7.304-43.77,11.839-66.458,16.961c-10.361-35.049-17.486-70.28-27.497-105.418
	c-17.84,0.308-33.793,7.234-51.116,10.589c6.615,36.714,18.685,71.371,25.531,108.056c-21.127,6.98-43.299,9.016-64.982,16.778
	c-11.468-35.568-18.704-71.767-27.983-108.604c-44.218,8.762-87.731,19.754-131.78,31.818c-4.554-27.235-4.515-54.276-7.432-81.184
	c4.123-4.163,9.534-4.665,14.554-5.736c8.149-1.739,16.433-2.842,24.608-4.473c23.254-4.64,31.074-16.384,26.535-39.714
	c-3.927-20.182-10.912-39.555-15.832-59.475c-7.211-29.195-14.373-58.403-21.641-87.585c-6.039-24.245-12.226-48.453-18.3-72.688
	c-5.187-20.694-9.921-41.51-15.573-62.075c-5.169-18.807-15.743-26.305-34.596-26.04c-7.186,0.101-14.078,1.959-20.958,3.747
	c-12.137,3.154-23.743,8.195-36.768,10.506c-8.453-22.743-11.893-46.782-19.597-70.878c44.05-12.071,88.33-22.346,132.933-33.44
	c-9.083-36.189-17.964-71.576-26.948-107.368c21.884-6.897,44.106-10.794,66.324-17.373c9.499,34.821,18.082,69.613,26.184,105.261
	c16.637-4.299,32.811-7.809,49.486-13.247c-4.064-35.502-17.173-68.856-23.652-104.419c21.557-6.356,42.973-12.028,65.117-16.558
	c11.71,35.388,18.133,71.459,28.496,106.791c12.868-1.013,25.384-2.027,37.904-2.977c26.052-1.977,51.993-2.298,77.52,4.696
	c26.402,7.234,46.185,22.9,60.112,46.334c12.785,21.513,21.551,44.209,21.051,69.681c-0.549,27.977-11.228,51.652-30.781,71.478
	c-1.569,1.591-3.102,3.219-4.605,4.872c-0.232,0.255-0.211,0.74-0.499,1.874C1175.413,925.07,1182.815,925.656,1190.158,926.667z
	 M1023.654,1168.219c28.369-6.982,56.784-13.837,83.156-26.954c18.954-9.427,36.039-20.793,46.587-40.266
	c16.971-31.332,7.285-67.749-23.049-83.579c-16.309-8.511-34.017-10.758-52.103-10.08c-33.557,1.257-65.814,9.675-97.975,18.459
	c-7.364,2.011-14.665,4.252-22.865,6.641c14.765,47.347,23.786,95.492,36.906,143.082
	C1004.764,1172.919,1014.203,1170.545,1023.654,1168.219z M942.59,965.234c7.191-1.567,13.721-2.902,20.209-4.419
	c30.428-7.115,59.635-17.353,85.745-34.951c11.844-7.983,22.26-17.629,28.538-30.831c10.078-21.192,3.825-40.262-9.158-57.509
	c-12.967-17.227-32.041-22.638-52.64-23.585c-21.37-0.982-42.095,3.402-62.643,8.478c-14.156,3.497-28.127,7.747-43.141,11.928
	C919.36,878.89,930.274,922.056,942.59,965.234z"/>
</svg>
