<?xml version="1.0" encoding="utf-8"?>
<!-- Generator: Adobe Illustrator 25.4.1, SVG Export Plug-In . SVG Version: 6.00 Build 0)  -->
<svg version="1.1" id="bcha" xmlns="http://www.w3.org/2000/svg" xmlns:xlink="http://www.w3.org/1999/xlink" x="0px" y="0px"
	 viewBox="0 0 500 500" style="enable-background:new 0 0 500 500;" xml:space="preserve">
<style type="text/css">
	.st0{fill:url(#SVGID_1_);}
</style>
<linearGradient id="SVGID_1_" gradientUnits="userSpaceOnUse" x1="250.235" y1="496.8972" x2="250.235" y2="2.9191">
	<stop  offset="0" style="stop-color:#1DADE2"/>
	<stop  offset="1" style="stop-color:#2155AC"/>
</linearGradient>
<path class="st0" d="M470.4,261.7L261.1,382.8c-6.9,4-15.4,4-22.3,0.1L143.4,329c-9.3-5.3-15-15.1-15-25.8V197.8
	c0-10.3,5.4-19.8,14.3-25l92.7-54.7c7.7-4.5,17.1-4.6,24.9-0.3l48.8,27.2c2.4,1.3,2.4,4.8,0,6.1l-108.5,62.1
	c-4.2,2.4-6.8,6.8-6.8,11.6v50.7c0,3.6,1.9,7,5,8.9l44.8,26.7c3.9,2.4,8.9,2.4,12.8,0.1l186-107.4c37.3-21.5,37.2-75.4-0.1-96.8
	L270.5,8.4c-12.7-7.3-28.3-7.3-41,0L52.8,110C38.7,118.1,30,133.1,30,149.4v202.9c0,14.7,7.8,28.3,20.5,35.8l173.7,102
	c15.4,9,34.4,9.1,49.9,0.2l173.8-100.5c14-8.1,22.6-23,22.6-39.2V261.7z"/>
</svg>
