<?xml version="1.0" encoding="utf-8"?>
<!-- Generator: Adobe Illustrator 19.0.0, SVG Export Plug-In . SVG Version: 6.00 Build 0)  -->
<svg version="1.1" id="Layer_1" xmlns="http://www.w3.org/2000/svg" xmlns:xlink="http://www.w3.org/1999/xlink" x="0px" y="0px"
	 viewBox="250 -250 2500 2500" style="enable-background:new 250 -250 2500 2500;" xml:space="preserve">
<style type="text/css">
	.st0{fill:#F04086;}
	.st1{fill:#FFFFFF;}
</style>
<circle class="st0" cx="1500.1" cy="1000.1" r="1219"/>
<path class="st1" d="M2081.2,1059.1c-49.2-54-120-87.8-212.5-101.3v-2c81-13.1,144.7-46.3,188-99.4c43.9-52.8,67.8-119.3,67.4-188
	c0-114.1-36.8-191.7-112.9-252.7c-76-61-190.3-81-345-81h-584.6v544H745.9v208.3h916.2c72.1,0,126.3,5.1,162,33.9
	c35.8,28.8,54.1,66.1,54.1,121.2s-18.1,102.1-54.1,131.6c-36,29.5-90.2,49-162,49h-314.3v-162h-266.2v370.4h603.6
	c153.5,0,270.8-40,352.2-102.3c81.4-62.3,119.6-154.3,119.6-267.1C2158.1,1187,2131,1114.7,2081.2,1059.1L2081.2,1059.1z
	 M1628.7,878.3h-280.8V542.6h280.8c144.3,0,216.4,56.4,216.4,167.8S1773,878.3,1628.7,878.3L1628.7,878.3z"/>
</svg>
