<?xml version="1.0" encoding="utf-8"?>
<!-- Generator: Adobe Illustrator 23.0.3, SVG Export Plug-In . SVG Version: 6.00 Build 0)  -->
<svg version="1.1" id="bco" xmlns="http://www.w3.org/2000/svg" xmlns:xlink="http://www.w3.org/1999/xlink" x="0px" y="0px"
	 viewBox="0 0 500 500" style="enable-background:new 0 0 500 500;" xml:space="preserve">
<style type="text/css">
	.st0{fill:#00FFF4;}
	.st1{fill:#02CEC8;}
	.st2{fill:#007C82;}
</style>
<path class="st0" d="M249.6,216.9c18.3,0,33.1,14.8,33.1,33.1S267.9,283,249.6,283c-18.3,0-33.1-14.8-33.1-33.1
	S231.3,216.9,249.6,216.9 M249.6,197.3c-29,0-52.7,23.6-52.7,52.7c0,29,23.6,52.7,52.7,52.7s52.7-23.6,52.7-52.7
	C302.3,220.9,278.6,197.3,249.6,197.3L249.6,197.3z"/>
<path class="st1" d="M249.6,82.7c18.3,0,33.1,14.8,33.1,33.1s-14.8,33.1-33.1,33.1c-18.3,0-33.1-14.8-33.1-33.1
	S231.3,82.7,249.6,82.7 M249.6,63.1c-29,0-52.7,23.6-52.7,52.7s23.6,52.7,52.7,52.7s52.7-23.6,52.7-52.7S278.6,63.1,249.6,63.1
	L249.6,63.1z"/>
<path class="st1" d="M249.6,351c18.3,0,33.1,14.8,33.1,33.1c0,18.3-14.8,33.1-33.1,33.1c-18.3,0-33.1-14.8-33.1-33.1
	C216.5,365.8,231.3,351,249.6,351 M249.6,331.5c-29,0-52.7,23.6-52.7,52.7c0,29,23.6,52.7,52.7,52.7s52.7-23.6,52.7-52.7
	C302.3,355.1,278.6,331.5,249.6,331.5L249.6,331.5z"/>
<path class="st1" d="M393.8,166.7c9.3,15.8,4,36-11.7,45.3c-15.8,9.3-36,4-45.3-11.7c-9.3-15.8-4-36,11.7-45.3
	C364.2,145.7,384.5,150.9,393.8,166.7 M410.7,156.7c-14.7-25-47.1-33.4-72.1-18.7c-25,14.7-33.4,47.1-18.7,72.1
	c14.7,25,47.1,33.4,72.1,18.7C417,214.1,425.4,181.8,410.7,156.7L410.7,156.7z"/>
<path class="st1" d="M161,301.2c9.3,15.8,4,36-11.7,45.3s-36,4-45.3-11.7c-9.3-15.8-4-36,11.7-45.3
	C131.4,280.2,151.7,285.4,161,301.2 M177.8,291.3c-14.7-25-47.1-33.4-72.1-18.7c-25,14.7-33.4,47.1-18.7,72.1
	c14.7,25,47.1,33.4,72.1,18.7C184.2,348.6,192.6,316.3,177.8,291.3L177.8,291.3z"/>
<path class="st1" d="M394.2,334.1c-9,15.9-29.2,21.5-45.1,12.5s-21.5-29.2-12.5-45.1c9-15.9,29.2-21.5,45.1-12.5
	C397.6,298,403.2,318.1,394.2,334.1 M411.2,343.7c14.3-25.3,5.4-57.5-19.9-71.8s-57.5-5.4-71.8,19.9c-14.3,25.3-5.4,57.5,19.9,71.8
	C364.7,377.9,396.9,369,411.2,343.7L411.2,343.7z"/>
<path class="st1" d="M161.1,199.9c-9,15.9-29.2,21.5-45.1,12.5c-15.9-9-21.5-29.2-12.5-45.1c9-15.9,29.2-21.5,45.1-12.5
	C164.5,163.8,170.1,184,161.1,199.9 M178.2,209.6c14.3-25.3,5.4-57.5-19.9-71.8s-57.5-5.4-71.8,19.9s-5.4,57.5,19.9,71.8
	C131.7,243.8,163.9,234.8,178.2,209.6L178.2,209.6z"/>
<circle class="st2" cx="249.5" cy="21.4" r="18.4"/>
<circle class="st2" cx="448.1" cy="136.9" r="18.4"/>
<circle class="st2" cx="448.1" cy="363.6" r="18.4"/>
<circle class="st2" cx="249.8" cy="478.8" r="18.4"/>
<circle class="st2" cx="51.3" cy="363.2" r="18.4"/>
<circle class="st2" cx="51.3" cy="136.6" r="18.4"/>
</svg>
