<svg width="24" height="24" viewBox="0 0 24 24" fill="none" xmlns="http://www.w3.org/2000/svg">
<path fill-rule="evenodd" clip-rule="evenodd" d="M9.95093 8.83784C9.10042 9.56757 7.71834 10.3415 6.74025 10.6069C3.48704 11.6241 1.70096 13.7912 2.04117 16.2678C2.46642 19.3636 5.69837 21 8.67516 21H8.73895C14.5012 20.9337 20.3059 16.3784 21.6667 10.828C22.3046 8.70516 22.0069 6.25061 20.9438 4.74693C20.1358 3.59705 18.9238 3 17.4142 3C15.3262 3 13.9705 4.52292 12.3924 6.29555L12.3536 6.33907C12.295 6.40521 12.2365 6.47149 12.1778 6.53787C11.4912 7.31472 10.7933 8.10443 9.95093 8.83784ZM13.8493 7.66688C13.7895 7.73437 13.7289 7.80299 13.6674 7.8726C12.9918 8.63756 12.2103 9.52251 11.2643 10.3462L11.2588 10.351L11.2533 10.3557C10.2284 11.235 8.61116 12.1611 7.30607 12.5255C4.55978 13.3938 3.8712 14.8938 4.02256 15.9956C4.1404 16.8535 4.63855 17.5675 5.48601 18.1145C6.35893 18.678 7.52495 19 8.67516 19H8.7268C13.5889 18.9382 18.5853 14.9971 19.7243 10.3518L19.7365 10.3018L19.7513 10.2525C20.2502 8.59229 19.9486 6.80367 19.3107 5.90154L19.3074 5.89679C18.9078 5.32815 18.3338 5 17.4142 5C16.9127 5 16.4608 5.16542 15.9038 5.58937C15.287 6.05875 14.6835 6.72985 13.8493 7.66688Z" fill="black"/>
</svg>
