<?xml version="1.0" encoding="utf-8"?>
<!-- Generator: Adobe Illustrator 25.4.1, SVG Export Plug-In . SVG Version: 6.00 Build 0)  -->
<svg version="1.1" baseProfile="tiny" id="BEL" xmlns="http://www.w3.org/2000/svg" xmlns:xlink="http://www.w3.org/1999/xlink"
	 x="0px" y="0px" viewBox="0 0 500 500" overflow="visible" xml:space="preserve">
<path fill="#00CDAA" d="M169.2,173H315c26.1,0,50.8,6.2,72.7,17.1c1.4-8.6,2.2-17.5,2.2-26.6v0C389.9,73.2,316.7,0,226.4,0H80.6
	C47.9,0,21.5,26.5,21.5,59.1v208.8c0,32.6,26.5,59.1,59.1,59.1h29.5v-94.9C110.1,199.5,136.5,173,169.2,173z"/>
<path fill="#00B2F9" d="M387.8,190.1C375.1,267.7,307.7,327,226.4,327H110.1v113.9c0,32.6,26.5,59.1,59.1,59.1H315
	c90.3,0,163.5-73.2,163.5-163.5v0C478.5,272.3,441.6,216.8,387.8,190.1z"/>
</svg>
