<?xml version="1.0" encoding="utf-8"?>
<!-- Generator: Adobe Illustrator 25.2.1, SVG Export Plug-In . SVG Version: 6.00 Build 0)  -->
<svg version="1.1" id="bifi" xmlns="http://www.w3.org/2000/svg" xmlns:xlink="http://www.w3.org/1999/xlink" x="0px" y="0px"
	 viewBox="0 0 500 500" style="enable-background:new 0 0 500 500;" xml:space="preserve">
<style type="text/css">
	.st0{fill:#C6BCB0;}
	.st1{fill:#F8F0E5;}
</style>
<circle class="st0" cx="250" cy="250" r="244.3"/>
<circle class="st1" cx="250" cy="250" r="217"/>
<path d="M173.9,160.3c0-6.9-0.1-12.7,0-18.5c0.4-17.2,13.1-29.4,30.7-29.4c17.7,0,30.4,12,30.7,29.3c0.1,5.8,0,11.6,0,18
	c11,0,21.7,0,33.4,0c0-5.4,0-11,0-16.5c0.1-18.4,12.4-30.7,30.5-30.8c18.4,0,30.8,12.5,30.9,31.1c0,5.4,0,10.7,0,16.8
	c13.3,0,25.9,0,38.6,0c15.3,0,21.5,7.6,18.4,22.8c-2.7,13-8.6,24.4-17.8,33.8c-7.3,7.5-14.9,14.5-22.6,21.5
	c-5.2,4.8-7.8,10.1-7.7,17.5c0.4,23.8,0.2,47.5,0.1,71.3c-0.1,39.9-30.1,70.2-69.9,70.3c-17.5,0-35.1,0.9-52.4-1.2
	c-33-4-57.7-33.2-58-66.6c-0.2-24.8-0.2-49.6,0.1-74.4c0.1-6.4-2.3-11.3-6.6-15.5c-7.8-7.5-15.8-14.8-23.5-22.4
	c-8.4-8.4-14-18.6-17.2-30c-1-3.8-1.5-7.8-1.4-11.7c0.2-10.1,5.5-15.3,15.6-15.4c13.5-0.1,27.1,0,40.6,0
	C168.6,160.3,170.9,160.3,173.9,160.3z M221.6,189.9c-18,0-35.6-0.2-53.3,0.3c-2.1,0.1-5.1,3.4-5.9,5.8c-0.8,2.7-0.4,6.7,1.1,9
	c4.9,7.3,10,14.7,16.1,21c5.4,5.6,8.5,11.1,8.4,19.1c-0.3,27.5-0.2,55-0.1,82.5c0.1,22.8,16.4,39.8,38.9,40.5c15,0.4,30,0.4,45-0.1
	c17.7-0.5,32.7-12.7,36.6-29.6c1.3-5.6,0.8-11.6,1.6-17.3c0.8-6.1-1.4-8.8-7.4-11.1c-43.9-17.1-71.5-48.3-79.3-95.4
	C222,206.7,222.2,198.5,221.6,189.9z M307.8,267.8c0.4-7.3-5.1-13.4-12.3-13.8c-7.1-0.4-13.4,5.3-13.8,12.4
	c-0.4,7.1,5.2,13.4,12.4,13.7C301.4,280.5,307.5,275,307.8,267.8z M214.9,160c0-6.5,0.4-12.8-0.1-18.9c-0.5-5.7-4.6-8.1-10.1-8.1
	c-5.4,0-9.6,2.4-10,8.2c-0.4,6.2-0.1,12.4-0.1,18.8C201.6,160,207.9,160,214.9,160z M309.4,160c0-6.5,0.3-12.7-0.1-18.9
	c-0.4-5.9-4.5-8.1-10-8.1c-5.5,0-9.6,2.4-10,8.1c-0.5,6.1-0.1,12.4-0.1,18.9C296.2,160,302.5,160,309.4,160z"/>
<path d="M226.9,267.1c0.1,7.3-5.6,13.1-12.9,13.2c-7.2,0.1-13.1-5.6-13.4-12.8c-0.2-7.3,5.9-13.6,13.3-13.5
	C221.1,254,226.8,259.8,226.9,267.1z"/>
</svg>
