<svg aria-hidden="true" data-testid="test-icon" fill="currentColor" viewBox="0 0 24 24" xmlns="http://www.w3.org/2000/svg"><path fill-rule="evenodd" clip-rule="evenodd" d="M10 3.505a.25.25 0 00-.25.25v.755h4.5v-.755a.25.25 0 00-.25-.25h-4zm5.75 1.005v-.755A1.75 1.75 0 0014 2.005h-4a1.75 1.75 0 00-1.75 1.75v.755h-3.5a.75.75 0 000 1.5h.5v14.248c0 .966.783 1.75 1.75 1.75h10a1.75 1.75 0 001.75-1.75V6.01h.5a.75.75 0 000-1.5h-3.5zm1.5 1.5H6.75v14.248c0 .138.112.25.25.25h10a.25.25 0 00.25-.25V6.01zM10 18.5a.75.75 0 01-.75-.75v-8.5a.75.75 0 011.5 0v8.5a.75.75 0 01-.75.75zm4 0a.75.75 0 01-.75-.75v-8.5a.75.75 0 111.5 0v8.5a.75.75 0 01-.75.75z"/></svg>
