<svg width="24" height="24" viewBox="0 0 24 24" fill="currentColor" xmlns="http://www.w3.org/2000/svg">
<path d="M2.64817 3.00006C2.55512 2.9988 2.46291 3.01805 2.37784 3.05648C2.29277 3.09491 2.21686 3.15162 2.15531 3.22273C2.09445 3.29305 2.04967 3.37627 2.02423 3.46638C1.99878 3.55648 1.9933 3.65122 2.00817 3.74375L4.72819 20.2723C4.79819 20.6899 5.15676 20.9971 5.57962 20.9999H18.6297C18.7821 21.0029 18.9305 20.9503 19.0481 20.8516C19.1659 20.7528 19.2449 20.6144 19.2711 20.4614L21.9911 3.74811C22.0066 3.65591 22.0017 3.56136 21.9771 3.47127C21.9524 3.38119 21.9084 3.29779 21.8482 3.22709C21.7876 3.15575 21.7126 3.09856 21.6282 3.05938C21.544 3.02021 21.4524 2.99997 21.3597 3.00006H2.64817ZM14.1025 14.9456H9.93821L8.80964 9.05144H15.1125L14.1025 14.9456Z" />
</svg>
