<?xml version="1.0" encoding="iso-8859-1"?>
<!-- Generator: Adobe Illustrator 19.0.0, SVG Export Plug-In . SVG Version: 6.00 Build 0)  -->
<svg version="1.1" id="Layer_1" xmlns="http://www.w3.org/2000/svg" xmlns:xlink="http://www.w3.org/1999/xlink" x="0px" y="0px"
	 viewBox="0 0 500 500" style="enable-background:new 0 0 500 500;" xml:space="preserve">
<path style="fill:#101341;" d="M497.5,250L375.235,462.85h-242.55l123.916-212.767L135.655,37.15l238.85,0.576L497.5,250z
	 M257.706,108.213c0,0,54.083,94.622,80.911,141.561c-27.071,47.192-54.048,94.22-81.265,141.666c25.737,0,50.924,0,76.161,0
	c27.556-47.351,55.089-94.664,82.652-142.028c-27.857-47.292-83.17-141.198-83.17-141.198H257.706z"/>
<polygon style="fill:#8F8886;" points="113.687,56.192 154.05,128.348 84.841,248.597 152.962,368.392 112.023,438.664 2.5,249.01 
	"/>
</svg>
