<?xml version="1.0" encoding="utf-8"?>
<!-- Generator: Adobe Illustrator 23.0.3, SVG Export Plug-In . SVG Version: 6.00 Build 0)  -->
<svg version="1.1" id="blt" xmlns="http://www.w3.org/2000/svg" xmlns:xlink="http://www.w3.org/1999/xlink" x="0px" y="0px"
	 viewBox="0 0 500 500" style="enable-background:new 0 0 500 500;" xml:space="preserve">
<style type="text/css">
	.st0{fill:#6066F1;}
</style>
<path class="st0" d="M496.1,250.2c0,7.3-60.7,75.8-122.6,75.8c-41.9,0-75.8-33.9-75.8-75.8s33.9-75.8,75.8-75.8
	C432,174.4,496.2,242.1,496.1,250.2z"/>
<path class="st0" d="M249.6,4.5c7.3,0,75.8,60.7,75.8,122.6c0,41.9-33.9,75.8-75.8,75.8s-75.8-33.9-75.8-75.8
	C173.8,68.6,241.5,4.5,249.6,4.5z"/>
<path class="st0" d="M3.8,250.4c0-7.3,60.7-75.8,122.6-75.8c41.9,0,75.8,33.9,75.8,75.8s-33.9,75.8-75.8,75.8
	C67.9,326.2,3.7,258.5,3.8,250.4z"/>
<path class="st0" d="M250.3,496.1c-7.3,0-75.8-60.7-75.8-122.6c0-41.9,33.9-75.8,75.8-75.8s75.8,33.9,75.8,75.8
	C326.1,432,258.4,496.1,250.3,496.1z"/>
</svg>
