<?xml version="1.0" encoding="utf-8"?>
<!-- Generator: Adobe Illustrator 23.0.3, SVG Export Plug-In . SVG Version: 6.00 Build 0)  -->
<svg version="1.1" id="blue" xmlns="http://www.w3.org/2000/svg" xmlns:xlink="http://www.w3.org/1999/xlink" x="0px" y="0px"
	 viewBox="0 0 500 500" style="enable-background:new 0 0 500 500;" xml:space="preserve">
<style type="text/css">
	.st0{fill:url(#SVGID_1_);}
	.st1{fill:#FFFFFF;}
	.st2{fill:url(#SVGID_2_);}
	.st3{fill:url(#SVGID_3_);}
</style>
<linearGradient id="SVGID_1_" gradientUnits="userSpaceOnUse" x1="251.1289" y1="495.0778" x2="251.1289" y2="13.5466">
	<stop  offset="0" style="stop-color:#0086FF"/>
	<stop  offset="1" style="stop-color:#0EACFC"/>
</linearGradient>
<path class="st0" d="M457.4,191.3c0,22.4-0.7,44.9,0.1,67.2c1.9,49-14.4,91.7-42.7,130.9c-21.4,29.6-49.3,51.5-80.2,70
	c-24.4,14.6-50.1,26.7-76.8,36.5c-4.6,1.7-8.6,1.8-13.4,0c-42-15.9-81.9-35.5-116.7-64.1C86.9,398.1,59.3,355.8,48,303.7
	c-2.4-11-3.2-22.4-3.3-33.7c-0.3-53.9-0.1-107.9-0.1-161.8c0-2.4,0.1-4.9,0.4-7.3c2.4-18,10.2-26.1,28.2-29.4
	c20.3-3.6,40.8-6.4,60.8-11c30-6.9,59-16.8,84.5-34.5c8.1-5.7,15.5-12.5,22.9-19.2c7-6.2,13.1-6.8,19.9-0.2
	c21.1,20.3,46.5,33.1,73.5,43.1C363,60,392,66.2,421.5,70.3c3.1,0.4,6.2,0.9,9.2,1.5c17.6,3.8,25.9,13.5,26.6,31.5
	c0.3,8,0.1,16,0.1,24C457.4,148.7,457.4,170,457.4,191.3C457.4,191.3,457.4,191.3,457.4,191.3z M171.1,149.6c0,3.7,0,6.5,0,9.3
	c0,50.6,0,101.2,0,151.8c0,7.8,0.1,15.5-0.1,23.3c-0.2,7.9-3.1,11.1-11.1,12.2c-4.1,0.6-8.2,1.2-12.5,1.8c0,10.6,0,20.6,0,31
	c2.6,0.2,4.6,0.5,6.6,0.5c38.2,0,76.3,0.1,114.5-0.1c14.3-0.1,28.3-2.7,41.8-7.3c13.2-4.5,24.9-11.5,34-22.4
	c12.7-15.2,16.3-33.1,15.9-52.2c-0.5-27.7-15.8-48.8-42.1-57.7c-1.9-0.7-3.8-1.6-6.7-2.8c2.5-1.8,3.8-2.8,5.3-3.7
	c20.8-13.3,31.4-31.9,30-56.9c-1.5-25.9-13.3-44.5-38.2-54c-14.8-5.7-30.1-7.4-45.7-7.6c-35.5-0.3-71-0.1-106.5-0.1
	c-2.4,0-4.7,0.3-7.5,0.5c0,11.3,0,22,0,33.3C156.5,148.7,163.4,149.1,171.1,149.6z"/>
<path class="st1" d="M171.1,149.6c-7.7-0.5-14.7-0.9-22.1-1.3c0-11.3,0-22,0-33.3c2.7-0.2,5.1-0.5,7.5-0.5c35.5,0,71-0.2,106.5,0.1
	c15.5,0.1,30.9,1.9,45.7,7.6c24.8,9.6,36.6,28.1,38.2,54c1.5,25-9.2,43.7-30,56.9c-1.4,0.9-2.8,2-5.3,3.7c2.9,1.2,4.7,2.2,6.7,2.8
	c26.2,8.9,41.6,30.1,42.1,57.7c0.3,19.2-3.2,37.1-15.9,52.2c-9.1,10.9-20.8,17.8-34,22.4c-13.5,4.7-27.5,7.2-41.8,7.3
	c-38.2,0.2-76.3,0.1-114.5,0.1c-2,0-3.9-0.3-6.6-0.5c0-10.3,0-20.4,0-31c4.2-0.6,8.4-1.2,12.5-1.8c7.9-1.2,10.9-4.3,11.1-12.2
	c0.2-7.8,0.1-15.5,0.1-23.3c0-50.6,0-101.2,0-151.8C171.1,156.1,171.1,153.3,171.1,149.6z M220.3,342.9c18.7-0.7,36.8-1.3,54.9-2
	c0.9,0,1.7-0.3,2.6-0.5c25.6-6.4,38.2-30,29.3-55.1c-5.8-16.5-19.1-23.7-35.1-25.4c-14.7-1.5-29.6-1-44.5-1.3
	c-2.3,0-4.7,0.6-7.2,0.9C220.3,287.2,220.3,314.2,220.3,342.9z M220.6,223.6c8,0,15.1,0.3,22.2-0.1c9.5-0.6,19.1-0.7,28.3-2.8
	c17.9-4.1,27.3-18.4,26.7-38.4c-0.5-16.7-9.1-26.8-28.5-29.2c-15.5-1.9-31.3-1-47-1.3c-0.4,0-0.7,0.4-1.6,1
	C220.6,175.8,220.6,199.1,220.6,223.6z"/>
<linearGradient id="SVGID_2_" gradientUnits="userSpaceOnUse" x1="265.1313" y1="495.0778" x2="265.1313" y2="13.5466">
	<stop  offset="0" style="stop-color:#0086FF"/>
	<stop  offset="1" style="stop-color:#0EACFC"/>
</linearGradient>
<path class="st2" d="M220.3,342.9c0-28.7,0-55.7,0-83.3c2.6-0.3,4.9-1,7.2-0.9c14.8,0.3,29.7-0.2,44.5,1.3
	c16,1.7,29.3,8.8,35.1,25.4c8.9,25.1-3.7,48.7-29.3,55.1c-0.9,0.2-1.7,0.5-2.6,0.5C257.1,341.5,239,342.2,220.3,342.9z"/>
<linearGradient id="SVGID_3_" gradientUnits="userSpaceOnUse" x1="259.1521" y1="495.0778" x2="259.1521" y2="13.5466">
	<stop  offset="0" style="stop-color:#0086FF"/>
	<stop  offset="1" style="stop-color:#0EACFC"/>
</linearGradient>
<path class="st3" d="M220.6,223.6c0-24.5,0-47.8,0-70.8c0.9-0.6,1.3-1,1.6-1c15.7,0.3,31.5-0.6,47,1.3c19.4,2.4,28,12.5,28.5,29.2
	c0.6,20-8.8,34.3-26.7,38.4c-9.2,2.1-18.8,2.2-28.3,2.8C235.7,223.9,228.6,223.6,220.6,223.6z"/>
</svg>
