<?xml version="1.0" encoding="iso-8859-1"?>
<!-- Generator: Adobe Illustrator 19.0.0, SVG Export Plug-In . SVG Version: 6.00 Build 0)  -->
<svg version="1.1" id="Layer_1" xmlns="http://www.w3.org/2000/svg" xmlns:xlink="http://www.w3.org/1999/xlink" x="0px" y="0px"
	 viewBox="960 -1000 2420 2500" style="enable-background:new 960 -1000 2420 2500;" xml:space="preserve">
<g id="Group">
	<g id="Ellipse" transform="rotate(-45 200.916 -438.075)">
		<path id="path0_fill" style="fill:#FDBA4D;" d="M136.852,1219.484c116.919,0,211.494,94.575,211.494,211.494
			s-94.575,211.494-211.494,211.494s-211.494-94.055-211.494-210.974S19.933,1219.484,136.852,1219.484z"/>
	</g>
	<g id="Ellipse_1_" transform="rotate(-45 232.464 -451.144)">
		<path id="path0_fill_1_" style="fill:#FDBA4D;" d="M2128.64,1245.498c116.919,0,211.494,94.575,211.494,211.494
			s-94.575,211.494-211.494,211.494c-116.919,0-211.494-94.575-211.494-211.494
			C1917.666,1340.592,2012.24,1245.498,2128.64,1245.498z"/>
	</g>
	<g id="Subtract" transform="rotate(-45 208.877 -442.426)">
		<path id="path1_fill" style="fill:#FDBA4D;" d="M442.929,1289.506v315.422h288.92c-20.786-48.327-32.218-101.33-32.218-157.971
			c0-55.602,11.432-109.125,32.218-157.971L442.929,1289.506L442.929,1289.506z"/>
	</g>
	<g id="Subtract_1_" transform="rotate(-45 226.004 -449.52)">
		<path id="path2_fill" style="fill:#FDBA4D;" d="M1537.292,1598.474h288.92v-315.422h-288.92
			c20.786,48.327,32.218,101.33,32.218,157.971C1569.509,1497.144,1558.077,1550.147,1537.292,1598.474z"/>
	</g>
</g>
<g id="Group_1_">
	<g id="Ellipse_2_" transform="rotate(45 184.016 477.075)">
		<path id="path0_fill_2_" style="fill:#5DA9DD;" d="M2427.405-930.805c-116.919,0-211.494-94.575-211.494-211.494
			s94.574-211.494,211.494-211.494c116.919,0,211.494,94.575,211.494,211.494C2638.898-1025.9,2543.804-930.805,2427.405-930.805
			L2427.405-930.805z"/>
	</g>
	<g id="Ellipse_3_" transform="rotate(45 152.468 464.008)">
		<path id="path0_fill_3_" style="fill:#5DA9DD;" d="M449.653-931.296c-116.919,0-211.494-94.575-211.494-211.494
			s94.575-211.494,211.494-211.494s211.494,94.575,211.494,211.494S566.572-931.296,449.653-931.296z"/>
	</g>
	<g id="Subtract_2_" transform="rotate(45 175.31 474.522)">
		<path id="path3_fill" style="fill:#5DA9DD;" d="M2117.706-963.671v-315.422h-288.92c20.786,48.327,32.218,101.33,32.218,157.971
			c0,55.602-11.432,109.125-32.218,157.971L2117.706-963.671z"/>
	</g>
	<g id="Subtract_3_" transform="rotate(45 158.183 467.428)">
		<path id="path4_fill" style="fill:#5DA9DD;" d="M1045.167-1311.529h-288.92v315.422h288.92
			c-20.786-48.327-32.218-101.33-32.218-157.971C1012.95-1209.68,1024.382-1263.203,1045.167-1311.529L1045.167-1311.529z"/>
	</g>
</g>
<g id="Group_2_">
	<g id="Ellipse_4_" transform="translate(379.068 7)">
		<path id="path0_fill_4_" style="fill:#18568C;" d="M2037.593-766.92c0,116.919-94.575,211.494-211.494,211.494
			c-116.919,0-211.494-94.575-211.494-211.494s94.575-211.494,211.494-211.494C1943.018-978.414,2037.593-883.839,2037.593-766.92
			L2037.593-766.92z"/>
	</g>
	<g id="Ellipse_5_" transform="translate(379.068 33.136)">
		<path id="path0_fill_5_" style="fill:#18568C;" d="M2037.593,1226.976c0,116.919-94.575,211.494-211.494,211.494
			c-116.919,0-211.494-94.575-211.494-211.494c0-116.919,94.575-211.494,211.494-211.494
			C1943.018,1015.482,2037.593,1110.056,2037.593,1226.976L2037.593,1226.976z"/>
	</g>
	<g id="Subtract_4_" transform="translate(381.076 13.903)">
		<path id="path5_fill" style="fill:#18568C;" d="M1901.04-451.63h-133.028v261.899c21.825-3.637,43.65-5.716,66.514-5.716
			s44.689,2.079,66.514,5.716V-451.63z"/>
	</g>
	<g id="Subtract_5_" transform="translate(381.076 28.465)">
		<path id="path6_fill" style="fill:#18568C;" d="M1901.04,659.153c-21.825,3.638-43.65,5.716-66.514,5.716
			s-44.689-2.079-66.514-5.716v261.899h133.028V659.153z"/>
	</g>
</g>
<g id="Group_3_">
	<g id="Ellipse_6_" transform="rotate(90 188.966 209.034)">
		<path id="path0_fill_6_" style="fill:#18578C;" d="M383.841-2742.687c0,116.919-94.575,211.494-211.494,211.494
			s-211.494-94.575-211.494-211.494s94.575-211.494,211.494-211.494S383.841-2859.606,383.841-2742.687L383.841-2742.687z"/>
	</g>
	<g id="Ellipse_7_" transform="rotate(90 175.898 195.966)">
		<path id="path0_fill_7_" style="fill:#18578C;" d="M419.697-827.257c0,116.919-94.575,211.494-211.494,211.494
			S-3.291-710.338-3.291-827.257s94.575-211.494,211.494-211.494S419.697-944.176,419.697-827.257z"/>
	</g>
	<g id="Subtract_6_" transform="rotate(90 184.51 206.587)">
		<path id="path7_fill" style="fill:#18578C;" d="M272.755-2211.746v-261.899H139.727v261.899
			c21.825-3.637,43.65-5.716,66.514-5.716S250.93-2215.384,272.755-2211.746z"/>
	</g>
	<g id="Subtract_7_" transform="rotate(90 177.23 199.306)">
		<path id="path8_fill" style="fill:#18578C;" d="M272.75-1412.752c-21.825,3.637-43.65,5.716-66.514,5.716
			s-44.689-2.078-66.514-5.716v261.899H272.75V-1412.752L272.75-1412.752z"/>
	</g>
</g>
<g id="Ellipse_8_" transform="translate(377.844 18.844)">
	<path id="path9_fill" style="fill:#18568B;" d="M2120.796,224.891c0,165.246-134.068,299.833-299.833,299.833
		S1521.13,390.657,1521.13,224.891s134.067-299.833,299.833-299.833S2120.795,59.646,2120.796,224.891L2120.796,224.891z"/>
</g>
</svg>
