<?xml version="1.0" encoding="iso-8859-1"?>
<!-- Generator: Adobe Illustrator 19.0.0, SVG Export Plug-In . SVG Version: 6.00 Build 0)  -->
<svg version="1.1" id="Layer_1" xmlns="http://www.w3.org/2000/svg" xmlns:xlink="http://www.w3.org/1999/xlink" x="0px" y="0px"
	 viewBox="0 0 500 500" style="enable-background:new 0 0 500 500;" xml:space="preserve">
<path id="XMLID_4_" style="fill:#0B102A;" d="M406.676,263.554c0,9.878,0,18.736,0,27.594c0.002,34.887,0.146,69.776-0.223,104.66
	c-0.035,3.35-2.383,8.173-5.134,9.775c-48.393,28.175-97.015,55.957-145.598,83.806c-0.754,0.432-1.639,0.636-3.586,1.369
	c-0.239-2.846-0.62-5.287-0.622-7.728c-0.035-41.149-0.157-82.3,0.21-123.446c0.033-3.652,2.338-8.964,5.246-10.661
	c48.364-28.22,96.992-55.987,145.572-83.836C403.293,264.656,404.183,264.466,406.676,263.554z M216.673,491.786
	c-19.745-11.251-37.817-21.496-55.838-31.83c-19.395-11.123-38.834-22.174-58.002-33.676c-2.702-1.621-5.642-5.605-5.666-8.517
	c-0.345-43.26-0.219-86.523-0.179-129.786c0.001-0.822,0.312-1.643,0.641-3.267c2.873,1.427,5.501,2.569,7.972,3.985
	c34.655,19.858,69.344,39.659,103.836,59.798c3.082,1.799,6.899,5.819,6.929,8.843C216.813,401.453,216.673,445.577,216.673,491.786
	z M251.486,315.93c0-14.246,0.001-26.698,0-39.151c-0.002-30.129-0.163-60.259,0.209-90.383c0.042-3.437,2.139-8.425,4.852-10.013
	c37.036-21.681,74.348-42.891,111.603-64.197c0.469-0.268,1.086-0.277,2.435-0.597c0.189,2.613,0.523,5.096,0.525,7.579
	c0.027,39.973-0.095,79.946,0.123,119.918c0.033,5.968-1.424,9.486-7.044,12.639c-34.565,19.391-68.837,39.304-103.214,59.03
	C258.427,312.216,255.819,313.571,251.486,315.93z M216.668,315.425c-2.685-1.098-4.078-1.494-5.299-2.193
	c-36.475-20.897-72.979-41.744-109.291-62.92c-2.464-1.437-4.912-5.369-4.932-8.158c-0.31-43.26-0.216-86.524-0.216-130.557
	c1.998,0.635,3.656,0.864,5.005,1.635c36.238,20.711,72.494,41.391,108.555,62.407c2.784,1.623,5.891,5.662,5.917,8.603
	C216.786,227.495,216.668,270.752,216.668,315.425z M115.214,74.703c39.176-22.472,77.105-44.287,115.159-65.881
	c1.861-1.056,5.348-1.111,7.188-0.066c37.802,21.471,75.476,43.168,113.155,64.855c0.413,0.237,0.558,0.938,1.165,2.024
	c-2.11,1.388-4.181,2.913-6.396,4.184c-35.124,20.153-70.22,40.357-105.496,60.241c-2.772,1.563-7.68,2.356-10.163,0.96
	c-37.114-20.869-73.988-42.164-110.905-63.382C117.967,77.089,117.172,76.267,115.214,74.703z"/>
</svg>
