<?xml version="1.0" encoding="utf-8"?>
<!-- Generator: Adobe Illustrator 25.4.1, SVG Export Plug-In . SVG Version: 6.00 Build 0)  -->
<svg version="1.1" id="bondly" xmlns="http://www.w3.org/2000/svg" xmlns:xlink="http://www.w3.org/1999/xlink" x="0px" y="0px"
	 viewBox="0 0 500 500" style="enable-background:new 0 0 500 500;" xml:space="preserve">
<style type="text/css">
	.st0{fill:#1940B0;}
	.st1{fill-rule:evenodd;clip-rule:evenodd;fill:#FFFFFF;}
</style>
<path class="st0" d="M250,500c138.1,0,250-111.9,250-250S388.1,0,250,0S0,111.9,0,250S111.9,500,250,500z"/>
<path class="st1" d="M251.4,49.6l173.7,102.8v44.7L338.8,249l86.3,51.5v48.7L260,449.2l-47.5-28.5V325l-82.6,49.7l-48.7-29.1V152.1
	l47.4-28.5l84,50.1V73.1C212.6,73.1,251.4,49.6,251.4,49.6z M212.6,224.3l-83.9-50l-4,2.4v144.2l5.2,3.1l82.7-49.8L212.6,224.3
	L212.6,224.3z M256,298.8l40.6-24.4l84.7,50.5l-121.4,73.6l-3.9-2.3V298.8L256,298.8z M296.5,223.7L256,199.6v-96.7l121.7,72
	C377.7,174.9,296.5,223.7,296.5,223.7z"/>
</svg>
