<svg aria-hidden="true" data-testid="test-icon" fill="currentColor" viewBox="0 0 24 24" xmlns="http://www.w3.org/2000/svg"><path d="M7.496 6.75c0 .156.094.25.25.25h8.506c.125 0 .25-.094.25-.25v-1a.269.269 0 00-.25-.25H7.746a.246.246 0 00-.25.25v1zm.25 3.25h8.506c.125 0 .25-.094.25-.25v-1a.269.269 0 00-.25-.25H7.746a.246.246 0 00-.25.25v1c0 .156.094.25.25.25zm11.848 8.5c.218-.031.406-.25.406-.5V2.5c0-.25-.25-.5-.5-.5h-13A2.487 2.487 0 004 4.5v15C4 20.906 5.094 22 6.5 22h13c.25 0 .5-.219.5-.5V21a.5.5 0 00-.406-.469c-.157-.406-.157-1.625 0-2.031zm-1.282 0c-.093.563-.093 1.469 0 2H6.5c-.563 0-1-.438-1-1 0-.531.438-1 1-1h11.813zm.188-15V17h-12c-.375 0-.719.094-1 .219V4.5c0-.531.438-1 1-1h12z"/></svg>
