<?xml version="1.0" encoding="utf-8"?>
<!-- Generator: Adobe Illustrator 23.0.4, SVG Export Plug-In . SVG Version: 6.00 Build 0)  -->
<svg version="1.1" id="Layer_1" xmlns="http://www.w3.org/2000/svg" xmlns:xlink="http://www.w3.org/1999/xlink" x="0px" y="0px"
	 viewBox="0 0 500 500" style="enable-background:new 0 0 500 500;" xml:space="preserve">
<style type="text/css">
	.st0{fill:url(#SVGID_1_);}
	.st1{fill:#FFFFFF;}
</style>
<linearGradient id="SVGID_1_" gradientUnits="userSpaceOnUse" x1="250.103" y1="498.3893" x2="250.103" y2="1.8168">
	<stop  offset="0" style="stop-color:#EF4425"/>
	<stop  offset="1" style="stop-color:#FBB769"/>
</linearGradient>
<circle class="st0" cx="250.1" cy="250.1" r="248.3"/>
<path class="st1" d="M384.1,163.5L260.4,94.3c-2.8-1.6-6-2.4-9.1-2.4c-3.1,0-6.3,0.8-9.1,2.4l-123.7,69.2c-5.9,3.3-9.6,9.6-9.6,16.3
	v137.4c0,6.8,3.7,13,9.6,16.3l123.7,69.2c2.8,1.6,6,2.4,9.1,2.4c3.1,0,6.3-0.8,9.1-2.4l123.7-69.2c5.9-3.3,9.6-9.6,9.6-16.3V179.8
	C393.6,173,390,166.8,384.1,163.5z M249.2,251.2L180.4,214l70.5-37.5l69.8,37.2L249.2,251.2z M177.5,228.9l64.4,34.8v62.2
	l-64.4-34.3V228.9z M256.4,263.8l67.7-35.6v63.4l-67.7,36.1V263.8z M338.6,220.6l38.5-20.2v99.8l-38.5-21.9V220.6z M126.5,177.9
	l123.7-69.2c0.3-0.2,0.7-0.3,1.1-0.3c0.4,0,0.7,0.1,1.1,0.3L376,177.9c0.7,0.4,1.1,1.1,1.1,1.9v4.2l-41.6,21.9
	c-0.8-0.9-1.8-1.6-2.9-2.2l-76.5-40.8c-1.7-0.9-3.5-1.3-5.3-1.3c-1.8,0-3.6,0.4-5.3,1.3L169,203.7c-3.7,2-6,5.8-6,9.9v65l-37.6,20.5
	V179.8C125.4,179,125.9,178.3,126.5,177.9z M125.4,317.3v-1.7l37.7-20.5c0.5,3.6,2.6,6.8,5.9,8.5l72.9,38.8v41.4l-115.4-64.6
	C125.9,318.8,125.4,318,125.4,317.3z M376,319.2l-119.6,66.9v-42l76.2-40.6c3.3-1.8,5.5-5,5.9-8.7l38.4,21.9l0.2-0.3v0.9
	C377.1,318,376.7,318.8,376,319.2z"/>
</svg>
