<?xml version="1.0" encoding="utf-8"?>
<!-- Generator: Adobe Illustrator 23.0.3, SVG Export Plug-In . SVG Version: 6.00 Build 0)  -->
<svg version="1.1" id="bpt" xmlns="http://www.w3.org/2000/svg" xmlns:xlink="http://www.w3.org/1999/xlink" x="0px" y="0px"
	 viewBox="0 0 500 500" style="enable-background:new 0 0 500 500;" xml:space="preserve">
<style type="text/css">
	.st0{fill:#0189FB;}
	.st1{fill:#016DC4;}
</style>
<path class="st0" d="M249.2,123.1c69.6,0,126.1,56.4,126.1,126.1s-56.4,126.1-126.1,126.1s-126.1-56.4-126.1-126.1
	S179.5,123.1,249.2,123.1 M249.2,60.6c-25.4,0-50.1,5-73.4,14.8c-22.5,9.5-42.6,23.1-59.9,40.4c-17.3,17.3-30.9,37.5-40.4,59.9
	c-9.9,23.3-14.8,48-14.8,73.4s5,50.1,14.8,73.4c9.5,22.5,23.1,42.6,40.4,59.9c17.3,17.3,37.5,30.9,59.9,40.4
	c23.3,9.9,48,14.8,73.4,14.8s50.1-5,73.4-14.8c22.5-9.5,42.6-23.1,59.9-40.4c17.3-17.3,30.9-37.5,40.4-59.9
	c9.9-23.3,14.8-48,14.8-73.4s-5-50.1-14.8-73.4c-9.5-22.5-23.1-42.6-40.4-59.9c-17.3-17.3-37.5-30.9-59.9-40.4
	C299.3,65.6,274.6,60.6,249.2,60.6L249.2,60.6z"/>
<path class="st1" d="M249.2,22.3C374.4,22.3,476,123.9,476,249.2S374.4,476,249.2,476S22.3,374.4,22.3,249.2S123.9,22.3,249.2,22.3
	 M249.2,2.8c-33.2,0-65.5,6.5-95.9,19.4C123.9,34.6,97.6,52.3,75,75s-40.4,49-52.8,78.3C9.3,183.6,2.8,215.9,2.8,249.2
	s6.5,65.5,19.4,95.9c12.4,29.3,30.2,55.7,52.8,78.3c22.6,22.6,49,40.4,78.3,52.8c30.4,12.9,62.6,19.4,95.9,19.4s65.5-6.5,95.9-19.4
	c29.3-12.4,55.7-30.2,78.3-52.8c22.6-22.6,40.4-49,52.8-78.3c12.9-30.4,19.4-62.6,19.4-95.9s-6.5-65.5-19.4-95.9
	C463.7,123.9,446,97.6,423.3,75c-22.6-22.6-49-40.4-78.3-52.8C314.7,9.3,282.4,2.8,249.2,2.8L249.2,2.8z"/>
</svg>
