<?xml version="1.0" encoding="iso-8859-1"?>
<!-- Generator: Adobe Illustrator 19.0.0, SVG Export Plug-In . SVG Version: 6.00 Build 0)  -->
<svg version="1.1" id="Layer_1" xmlns="http://www.w3.org/2000/svg" xmlns:xlink="http://www.w3.org/1999/xlink" x="0px" y="0px"
	 viewBox="999 -1000 2498 2500" style="enable-background:new 999 -1000 2498 2500;" xml:space="preserve">
<g id="Vector" transform="translate(204.834 -372)">
	<path id="path0_fill" style="fill:#00FFBA;" d="M2254.801-139.814c-46.614-110.949-120.195-208.415-213.423-284.307
		c-93.613-75.892-204.177-127.514-322.06-150.629c-118.269-23.114-240.004-16.565-355.191,18.491
		c-115.572,35.057-220.357,97.851-305.495,182.989c-103.244,103.244-103.244,270.438,0,373.683s270.438,103.244,373.297,0
		c18.877-18.877,41.221-33.901,65.491-44.303c25.426-10.787,52.778-16.18,80.13-16.18c27.737,0,54.704,5.393,80.13,16.18
		c36.983,15.795,68.573,41.991,90.917,75.122c23.114,33.901,35.442,73.966,35.057,115.187
		c0,146.006,118.269,264.274,263.889,264.274s263.889-118.269,263.889-264.274C2312.587,47.798,2292.939-49.283,2254.801-139.814
		L2254.801-139.814z"/>
</g>
<g id="Group">
	<g id="Vector_1_" transform="translate(203.003 -359.5)">
		<path id="path1_fill" style="fill:#00CFAB;" d="M2039.622,821.187c-146.006,0-263.889,118.269-263.889,264.274
			c0,27.737-5.393,54.704-16.18,80.13c-15.795,36.983-41.606,68.573-75.122,90.916c-16.565,11.172-34.672,20.033-53.548,25.811
			c-36.598,11.557-75.507,12.328-112.49,3.082c-36.983-9.631-70.884-29.278-97.08-56.63c-18.106-18.877-32.36-40.835-42.376-64.72
			c-20.803-50.852-20.418-107.867,0.771-158.719c15.795-36.983,41.606-68.573,75.122-90.917
			c33.901-23.114,73.966-35.057,115.187-35.057c146.006,0,263.889-118.269,263.889-264.274
			c0-146.006-118.269-264.274-263.889-264.274c-144.08,0-285.078,42.376-405.272,121.736
			c-120.195,79.359-214.579,192.62-270.824,325.528c-56.245,132.523-72.425,278.914-46.229,420.682
			c26.196,141.768,93.613,272.75,193.776,376.379c101.703,105.556,232.3,177.981,375.609,208.8
			c143.309,30.434,292.397,17.721,428.001-37.368c135.604-54.704,251.947-149.088,334.003-270.438
			c81.671-121.351,125.588-264.66,125.588-411.051C2303.511,939.455,2185.243,821.187,2039.622,821.187L2039.622,821.187z"/>
	</g>
	<g id="Vector_2_" transform="translate(215.509 -371.999)">
		<path id="path2_fill" style="fill:#00CFAB;" d="M3162.056-189.122c-51.237-99.777-124.818-186.841-214.964-253.873l-0.385-0.385
			c-109.408-81.286-238.849-130.596-374.453-142.539c-135.604-11.942-271.979,14.254-393.715,75.507
			c-121.736,61.253-223.824,154.866-295.479,270.824c-71.263,116.004-108.999,249.481-109.023,385.625
			c0,146.006,118.269,264.274,263.889,264.274s263.889-118.269,263.889-264.274c0-27.737,5.393-54.704,16.18-80.13
			c15.795-36.983,41.606-68.573,75.122-90.916c16.565-11.172,34.672-20.033,53.548-25.811c31.204-9.631,63.95-11.942,95.925-6.549
			c31.975,5.393,62.409,18.491,88.22,37.753c25.426,18.877,46.229,43.532,60.868,71.655c13.483,26.967,21.188,56.245,22.344,86.294
			c1.156,30.049-4.238,60.097-15.795,87.835c-15.795,36.983-41.606,68.573-75.122,90.916
			c-16.565,11.172-34.672,20.033-53.548,25.811c-20.032,6.164-40.45,9.246-61.638,9.246c-146.006,0-263.889,118.269-263.889,264.274
			c0,146.006,118.269,264.274,263.889,264.274c125.973,0,249.635-32.36,359.429-93.999
			c109.793-61.638,201.865-150.243,267.356-257.725c65.491-107.482,102.474-229.988,107.097-355.576
			C3247.194,47.8,3219.457-77.018,3162.056-189.122L3162.056-189.122z"/>
	</g>
</g>
<g id="Group_1_">
	<g id="Vector_3_" transform="translate(215.509 -359.5)">
		<path id="path3_fill" style="fill:#00FFBA;" d="M3181.318,791.523c-56.245-132.908-150.243-246.553-270.438-326.298
			s-261.578-122.506-406.043-122.121c-146.006,0-263.889,118.269-263.889,264.274c0,146.006,118.269,264.274,263.889,264.274
			c27.737,0,54.704,5.393,80.13,16.18c36.983,15.795,68.573,41.991,90.917,75.122c18.877,28.122,30.819,60.868,33.901,94.769
			c3.467,33.901-1.541,68.188-14.639,99.392c-10.016,24.27-24.655,46.229-42.761,64.72c-18.877,19.647-41.606,35.057-66.261,45.844
			c-25.426,10.787-53.163,16.565-80.9,16.565s-55.475-5.394-80.9-16.18c-36.983-15.795-68.573-41.991-90.917-75.122
			c-23.115-33.901-35.057-74.351-35.057-115.187c0-146.006-118.269-264.274-263.889-264.274S1770.57,931.75,1770.57,1077.756
			c0,146.391,43.532,289.315,124.818,410.666c81.671,121.351,197.628,215.349,333.232,270.438
			c135.604,55.089,284.307,68.188,427.231,38.139c142.924-30.049,273.906-102.089,375.609-207.259
			c100.548-103.63,168.35-234.611,194.931-376.379C3252.972,1071.207,3237.177,924.43,3181.318,791.523L3181.318,791.523z"/>
	</g>
	<g id="Vector_4_" transform="translate(203 -370.169)">
		<path id="path4_fill" style="fill:#00FFBA;" d="M1572.703,357.745c-27.737,0-54.704-5.393-80.13-16.18
			c-36.983-15.795-68.573-41.606-90.917-75.122c-26.967-39.68-38.909-87.449-34.286-135.219
			c4.623-47.77,25.811-92.072,59.712-125.973c103.244-103.244,103.244-270.438,0-373.683
			c-103.244-103.244-270.438-103.244-373.297,0C950.926-265.573,880.812-134.977,852.305,7.562
			c-28.508,142.538-13.869,290.471,41.606,424.534c55.475,134.449,149.858,248.865,270.824,329.765
			c120.965,80.9,263.119,123.662,408.354,123.662c146.006,0,263.889-118.269,263.889-264.274
			C1836.978,476.013,1718.709,357.745,1572.703,357.745L1572.703,357.745z"/>
	</g>
</g>
</svg>
