<?xml version="1.0" encoding="iso-8859-1"?>
<!-- Generator: Adobe Illustrator 19.0.0, SVG Export Plug-In . SVG Version: 6.00 Build 0)  -->
<svg version="1.1" id="Layer_1" xmlns="http://www.w3.org/2000/svg" xmlns:xlink="http://www.w3.org/1999/xlink" x="0px" y="0px"
	 viewBox="0 0 500 500" style="enable-background:new 0 0 500 500;" xml:space="preserve">
<linearGradient id="SVGID_1_" gradientUnits="userSpaceOnUse" x1="11.0146" y1="250.1713" x2="491.1373" y2="250.1713">
	<stop  offset="0" style="stop-color:#F8A438"/>
	<stop  offset="0.9995" style="stop-color:#FE4F92"/>
</linearGradient>
<path style="fill:url(#SVGID_1_);" d="M491.127,249.923c1.235,131.759-109.031,244.164-247.546,240.324
	C118.468,486.78,7.375,382.015,11.106,242.377C14.338,121.397,116.122,4.208,263.138,10.222
	C383.36,15.14,491.318,115.152,491.127,249.923z M315.416,248.148c3.924-1.365,7.428-2.707,11.007-3.808
	c19.908-6.128,35.003-21.7,34.182-47.2c-0.813-25.252-16.785-41.114-37.933-47.647c-20.214-6.244-41.33-6.616-62.189-7.043
	c-34.969-0.716-69.964-0.151-104.947-0.15c-11.44,0-17.156,5.707-17.156,17.282c-0.002,60.774,0.005,121.549,0.004,182.323
	c0,10.323,6.148,16.116,17.106,16.059c36.765-0.192,73.531-0.242,110.293-0.647c19.156-0.211,38.259-1.622,56.643-7.608
	c22.426-7.302,38.341-20.524,41.183-45.722c2.546-22.582-6.165-39.176-26.697-48.488
	C330.267,252.486,323.059,250.718,315.416,248.148z M270.92,311.523c7.376-0.167,14.904-2.183,21.985-4.503
	c7.277-2.384,9.947-8.752,9.807-16.116c-0.135-7.087-2.659-13.479-9.816-15.559c-8.123-2.361-16.624-4.144-25.045-4.588
	c-13.956-0.736-27.98-0.158-41.975-0.219c-7.416-0.032-10.668-3.172-10.767-10.463c-0.1-7.395-0.058-14.794,0.076-22.188
	c0.137-7.543,3.098-10.469,10.618-10.506c12.995-0.064,25.999,0.252,38.983-0.126c7.143-0.208,14.366-0.978,21.353-2.445
	c8.954-1.88,13.317-7.815,13.507-16.595c0.174-8.024-3.666-13.486-12.29-16.077c-5.278-1.586-10.848-2.923-16.314-3.033
	c-21.779-0.438-43.569-0.352-65.354-0.456c-2.732-0.013-5.464-0.002-8.548-0.002c0,41.484,0,82.187,0,123.086
	C222.228,311.731,246.584,312.075,270.92,311.523z"/>
</svg>
