<?xml version="1.0" encoding="utf-8"?>
<!-- Generator: Adobe Illustrator 24.1.2, SVG Export Plug-In . SVG Version: 6.00 Build 0)  -->
<svg version="1.1" id="BTC_x2B__x2B_" xmlns="http://www.w3.org/2000/svg" xmlns:xlink="http://www.w3.org/1999/xlink" x="0px"
	 y="0px" viewBox="0 0 500 500" style="enable-background:new 0 0 500 500;" xml:space="preserve">
<style type="text/css">
	.st0{fill:#2BCDFE;}
	.st1{fill:#DA0C9B;}
	.st2{fill:#A708BE;}
	.st3{fill:#644EDE;}
	.st4{fill:#FFFFFF;}
	.st5{fill:#040404;}
</style>
<path class="st0" d="M443.59,181.12c-1.62,2.25-3.37,4.41-5.06,6.6c2.38,11.9,5.94,23.52,7.56,35.62
	c5.18,38.88-0.44,76.06-17.18,111.49c-17.08,36.15-42.95,64.44-77.11,85.19c-1.59,0.96-3.05,2.13-4.58,3.21
	c-0.22,0.83-0.59,1.53-1.58,1.59c-1.05,5.15-5.26,8.24-8.52,11.56c-11.13,11.32-23.91,20.11-38.34,27.37
	c-26.51,13.33-55.26,18.38-83.36,26.01c-5.92,1.61-12.04,2.53-17.84,4.55c16.91,3.61,34.44,5.52,52.42,5.52
	c138.07,0,250-111.93,250-250c0-38.19-8.57-74.36-23.88-106.74C463.83,154.51,453.38,167.53,443.59,181.12z"/>
<path class="st1" d="M52.39,265.57c-1.19-21.37,0.41-42.47,5.58-63.3c6.8-27.43,19.13-52.1,36.43-74.34
	c14.03-18.03,30.98-32.83,50.14-45.19c2.48-1.6,5.67-2.38,7.08-5.42c6.64-13.83,14.55-26.96,22.43-40.08
	c6.42-10.69,13.64-20.91,20.61-31.27C83.22,31.16,0,130.77,0,249.82c0,16.56,1.63,32.75,4.7,48.41
	c16.11-7.72,30.64-17.78,43.66-30.05C49.55,267.06,50.67,265.86,52.39,265.57z"/>
<path class="st2" d="M151.63,77.33c5.98-0.77,10.54-4.75,15.86-7.03c63.99-27.45,126.02-23.73,186.18,11.34
	c1,0.58,2.09,0.99,3.14,1.48c9.95-8.75,21.59-15.08,32.43-22.55c4.4-3.03,8.99-5.8,13.53-8.63C360.52,19.27,307.53-0.18,250-0.18
	c-19.02,0-37.53,2.13-55.33,6.16c-6.97,10.36-14.19,20.58-20.61,31.27C166.18,50.36,158.26,63.5,151.63,77.33z"/>
<path class="st3" d="M298.78,463.74c14.43-7.26,27.21-16.05,38.34-27.37c3.26-3.32,7.47-6.41,8.52-11.56c-0.01,0-0.01,0-0.02,0.01
	c0-0.02,0.01-0.03,0-0.05c-4.2-0.08-7.29,2.71-10.81,4.32c-44.23,20.28-89.83,24.98-137,12.34c-6.93-1.86-14.16-3.19-20.58-6.2
	c-14.69-6.89-29.16-14.31-42.66-23.43c-9.16,14.51-18.96,28.5-31.53,40.28c27.74,20.19,59.8,34.82,94.53,42.23
	c5.8-2.02,11.92-2.94,17.84-4.55C243.52,482.12,272.27,477.06,298.78,463.74z"/>
<path class="st3" d="M356.81,83.11c0.85,0.77,1.62,1.67,2.57,2.3c30.9,20.55,53.96,47.81,70,81.21c3.33,6.93,5.17,14.48,9.15,21.11
	c1.69-2.2,3.44-4.36,5.06-6.6c9.8-13.59,20.24-26.61,32.53-38.03c-16.98-35.9-42.25-67.11-73.35-91.15
	c-4.54,2.83-9.13,5.59-13.53,8.63C378.4,68.03,366.76,74.36,356.81,83.11z"/>
<path class="st3" d="M345.63,424.77c0,0.02-0.01,0.03,0,0.05c0.01,0,0.01,0,0.02-0.01c0.99-0.07,1.35-0.76,1.58-1.59
	C346.4,423.44,345.47,423.57,345.63,424.77z"/>
<path class="st2" d="M134.58,411.79c-6.01-6.42-13.86-10.51-20.12-16.87c-14.39-14.62-27.29-30.19-37.36-48.07
	c-14.22-25.27-21.98-52.51-24.71-81.28c-1.72,0.28-2.84,1.48-4.03,2.6c-13.03,12.27-27.56,22.33-43.66,30.05
	c12.36,62.96,48.34,117.44,98.35,153.84C115.62,440.29,125.42,426.3,134.58,411.79z"/>
<circle class="st4" cx="249.96" cy="252.12" r="203.33"/>
<path class="st5" d="M160.13,187.15c0-8.34,0-16,0-24.33c15.27,0,30.35,0,46.18,0c0-12.91,0-25.19,0-37.72c7.95,0,15.14,0,23.23,0
	c0,11.99,0,24,0,36.29c6.45,0,12,0,18.22,0c0-11.87,0-23.71,0-36.05c7.98,0,15.33,0,23.26,0c0,12.06,0,24.16,0,36.34
	c4.85,1.98,9.59,1.86,14.1,2.72c8.34,1.6,16.2,4.23,23.8,8.14c23.9,12.28,25.48,53.21,2.08,66.02c-0.6,0.33-1.08,0.86-1.62,1.3
	c0.84,2.29,3.09,1.93,4.7,2.54c18.69,7.05,27.01,19.04,26.97,39.07c-0.05,28.54-14.52,46.12-42.54,51.86
	c-8.71,1.78-17.46,3.11-27.17,3.2c0,13.08,0,25.58,0,38.41c-7.99,0.56-15.14,0.47-22.9,0.1c0-12.43,0-24.52,0-37
	c-6.25-1.17-12-0.39-18.51-0.74c0,12.56,0,24.84,0,37.52c-8.11,0.85-15.46,0.38-23.51,0.39c0-13.06,0-25.58,0-38.8
	c-15.83,0-30.96,0-46.51,0c1.56-9.26,2.98-17.76,4.45-26.5c4.77-1.53,9.7-0.55,14.53-0.73c8.48-0.32,10.91-2.57,10.92-10.98
	c0.05-32.6,0.05-65.2,0-97.79c-0.01-8.25-3.4-12.04-11.53-13c-3.01-0.36-6.09-0.2-9.13-0.24
	C166.38,187.12,163.58,187.15,160.13,187.15z M230.53,258.61c0,16.95,0,33.47,0,50.41c14.82,0.66,29.25,0.6,43.43-3.09
	c4.55-1.18,8.87-3.03,12.72-5.81c10.05-7.28,11.26-21.99,2.58-30.86c-3.89-3.98-8.68-6.29-13.94-7.76
	C260.67,257.43,245.76,258.06,230.53,258.61z M230.45,235.01c14.27,0.26,27.89,0.89,40.77-4.56c10.47-4.43,14.98-13.14,12.39-23.81
	c-2.06-8.49-8.49-12.66-16.2-14.97c-12.03-3.59-24.36-3.41-36.96-2.56C230.45,204.49,230.45,219.39,230.45,235.01z"/>
<path class="st5" d="M147.61,243.09c0.68,5.2,1.5,9.53-0.83,14.32c-7.06,0-14.23,0-22.17,0c0,8.18,0,15.79,0,23.36
	c-5.48,1.87-10.24,1.43-15.49,0.56c-1.77-7.69-0.01-15.45-1.19-23.78c-7.28,0-14.67,0-22.01,0c-1.64-5.05-1.1-9.39-0.67-13.73
	c3.51-2.73,7.39-1.25,10.99-1.48c3.7-0.23,7.43-0.05,11.47-0.05c1.8-7.73-0.68-15.55,1.63-23.13c5.04-0.56,9.81-1.33,14.72,0.66
	c1.39,7.25-0.08,14.51,0.92,22.01C132.32,243.2,139.84,241.26,147.61,243.09z"/>
<path class="st5" d="M374.3,241.92c1.02-7.63-0.44-14.91,0.97-22.34c4.86-1.74,9.6-0.81,14.65-0.47c1.87,7.69,0.1,15.2,1.31,23.21
	c7.25,0,14.4,0,21.28,0c3.29,5.03,1.58,9.56,1.61,14.3c-7.86,1.84-15.36-0.01-23.35,1.28c0,7.75,0,15.37,0,22.98
	c-5.47,1.66-10.24,1.42-15.34,0.44c-1.73-7.75-0.01-15.51-1.18-23.86c-7.34,0-14.73,0-22.35,0c-1.23-5.04-0.89-9.36-0.37-14.29
	C358.86,241.17,366.39,243.08,374.3,241.92z"/>
</svg>
