<?xml version="1.0" encoding="iso-8859-1"?>
<!-- Generator: Adobe Illustrator 19.0.0, SVG Export Plug-In . SVG Version: 6.00 Build 0)  -->
<svg version="1.1" id="Layer_1" xmlns="http://www.w3.org/2000/svg" xmlns:xlink="http://www.w3.org/1999/xlink" x="0px" y="0px"
	 viewBox="1500 0 500 500" style="enable-background:new 1500 0 500 500;" xml:space="preserve">
<g transform="translate(0-115.87)">
	<path style="stroke:#000000;stroke-width:0.25;stroke-miterlimit:10;" d="M1776.402,331.938
		c124.684-37.813,80.178-164.921,0-169.749c20.372,0,37.005-57.386,37.005-128.451c195.754,13.676,287.73,330.918-5.891,430.139
		c1.878-25.744-8.848-97.612-31.107-131.939"/>
	<path style="fill:#FF6600;" d="M1504.494,294.386c146.145,0,264.401-116.385,264.401-260.39h-136.489
		c0.267,70.527-56.849,128.184-127.644,128.451h-0.268V294.386z M1683.354,270.519c-36.995,32.717-57.654,49.611-159.016,65.699
		c59.799,0,108.068,58.997,108.068,131.939h136.492c0-21.989-4.558-132.207-85.541-197.638l0,0H1683.354z"/>
</g>
</svg>
