<?xml version="1.0" encoding="iso-8859-1"?>
<!-- Generator: Adobe Illustrator 19.0.0, SVG Export Plug-In . SVG Version: 6.00 Build 0)  -->
<svg version="1.1" id="Layer_1" xmlns="http://www.w3.org/2000/svg" xmlns:xlink="http://www.w3.org/1999/xlink" x="0px" y="0px"
	 viewBox="0 0 500 500" style="enable-background:new 0 0 500 500;" xml:space="preserve">
<g>
	<path style="fill:#272E63;" d="M495.385,246.912c1.288,134.017-102.69,241.905-232.752,248.348
		C122.084,502.223,10.467,393.665,4.676,261.298C-1.466,120.886,106.997,9.28,239.857,4.19
		C382.701-1.282,493.99,112.144,495.385,246.912z M340.448,85.716c-11.09-2.768-21.972-5.483-32.997-8.234
		c-4.413,17.706-8.743,35.079-13.1,52.561c-8.834-2.074-17.438-4.094-26.174-6.145c4.427-17.792,8.784-35.306,13.168-52.928
		c-11.159-2.785-21.982-5.487-32.964-8.228c-4.522,18.12-8.977,35.968-13.472,53.979c-22.331-4.858-44.155-11.003-66.279-16.32
		c-2.953,11.86-5.83,23.415-8.76,35.182c3.045,0.716,5.996,1.375,8.929,2.106c6.619,1.649,13.387,2.821,19.7,5.501
		c8.443,3.585,12.126,11.278,9.907,20.163c-5.582,22.348-11.151,44.699-16.723,67.049c-6.408,25.703-12.8,51.409-19.229,77.107
		c-1.548,6.188-6.165,9.633-12.46,9.312c-3.136-0.16-6.15-1.074-9.179-1.849c-5.798-1.484-11.6-2.957-17.567-4.478
		c-5.47,12.633-10.875,25.117-16.318,37.688c22.158,5.592,44.068,11.122,66.182,16.703c-4.561,18.367-9.053,36.456-13.595,54.749
		c11.041,2.756,21.926,5.473,32.989,8.235c13.353-55.737,29.103-110.51,41.971-165.984c0.654,0.056,0.902,0.04,1.13,0.101
		c19.922,5.351,40.331,7.023,60.819,8.382c21.043,1.396,41.391-1.193,61.02-9.028c7.137-2.849,14.125-5.956,19.697-11.468
		c7.948-7.861,12.154-17.67,14.582-28.371c5.348-23.569-0.757-43.281-19.753-58.673c-11.931-9.667-25.657-15.935-39.904-21.239
		c-1.658-0.617-3.312-1.243-5.054-1.897C331.507,121.633,335.936,103.84,340.448,85.716z M241.777,340.387
		c-7.687,31.473-15.309,62.678-22.97,94.043c10.945,2.732,21.759,5.431,32.746,8.173c4.574-18.319,9.086-36.385,13.598-54.454
		c0.494,0.041,0.737,0.04,0.972,0.084c16.8,3.109,33.679,5.322,50.823,4.218c10.175-0.655,20.054-2.653,29.347-7.012
		c15.156-7.109,25.161-19.069,31.721-34.133c6.592-15.138,10.114-30.802,6.989-47.375c-2.351-12.472-8.453-22.849-18.064-31.486
		c-20.776,8.582-42.635,11.529-64.934,12.275c2.728,2.256,5.198,4.416,7.57,6.712c16.101,15.594,9.946,43.53-11.398,50.48
		c-11.079,3.607-22.357,3.496-33.734,2.316C256.909,343.444,249.478,342.02,241.777,340.387z"/>
	<path style="fill:#FEFEFE;" d="M340.448,85.716c-4.512,18.124-8.941,35.917-13.436,53.976c1.742,0.654,3.397,1.28,5.054,1.897
		c14.246,5.304,27.972,11.572,39.904,21.239c18.996,15.391,25.101,35.104,19.753,58.673c-2.428,10.702-6.635,20.51-14.582,28.371
		c-5.572,5.512-12.56,8.619-19.697,11.468c-19.629,7.835-39.977,10.425-61.02,9.028c-20.488-1.36-40.897-3.031-60.819-8.382
		c-0.228-0.061-0.476-0.046-1.13-0.101c-12.867,55.474-28.618,110.246-41.971,165.984c-11.064-2.762-21.948-5.479-32.989-8.235
		c4.542-18.293,9.034-36.382,13.595-54.749c-22.114-5.581-44.024-11.111-66.182-16.703c5.443-12.571,10.848-25.055,16.318-37.688
		c5.968,1.52,11.769,2.993,17.567,4.478c3.029,0.775,6.043,1.689,9.179,1.849c6.296,0.32,10.912-3.125,12.46-9.312
		c6.43-25.697,12.821-51.404,19.229-77.107c5.572-22.35,11.141-44.701,16.723-67.049c2.219-8.884-1.463-16.577-9.907-20.163
		c-6.313-2.681-13.081-3.852-19.7-5.501c-2.934-0.731-5.885-1.39-8.929-2.106c2.93-11.767,5.807-23.322,8.76-35.182
		c22.124,5.317,43.948,11.463,66.279,16.32c4.495-18.011,8.949-35.859,13.472-53.979c10.982,2.741,21.805,5.443,32.964,8.228
		c-4.384,17.622-8.742,35.136-13.168,52.928c8.736,2.051,17.34,4.071,26.174,6.145c4.357-17.482,8.687-34.855,13.1-52.561
		C318.475,80.233,329.358,82.948,340.448,85.716z M242.965,228.422c12.09,3.354,23.996,6.57,36.263,8.088
		c9.177,1.136,18.326,1.307,27.477-0.818c22.869-5.311,28.592-33.724,14.354-47.902c-4.191-4.173-8.915-7.512-14.141-10.21
		c-14.928-7.707-31.217-10.915-47.655-14.595C253.826,184.808,248.431,206.472,242.965,228.422z"/>
	<path style="fill:#FEFEFE;" d="M241.777,340.387c7.701,1.633,15.132,3.058,22.667,3.84c11.377,1.181,22.656,1.292,33.734-2.316
		c21.344-6.95,27.499-34.886,11.398-50.48c-2.372-2.297-4.842-4.456-7.57-6.712c22.299-0.746,44.158-3.693,64.934-12.275
		c9.611,8.637,15.713,19.014,18.064,31.486c3.124,16.573-0.397,32.238-6.989,47.375c-6.56,15.064-16.565,27.024-31.721,34.133
		c-9.293,4.359-19.172,6.357-29.347,7.012c-17.144,1.104-34.023-1.109-50.823-4.218c-0.235-0.043-0.478-0.043-0.972-0.084
		c-4.512,18.069-9.023,36.135-13.598,54.454c-10.987-2.742-21.802-5.441-32.746-8.173
		C226.468,403.065,234.09,371.86,241.777,340.387z"/>
	<path style="fill:#272E63;" d="M242.965,228.422c5.466-21.95,10.862-43.613,16.297-65.438c16.438,3.681,32.727,6.888,47.655,14.595
		c5.226,2.698,9.95,6.038,14.141,10.21c14.238,14.178,8.515,42.591-14.354,47.902c-9.151,2.125-18.299,1.954-27.477,0.818
		C266.961,234.992,255.055,231.776,242.965,228.422z"/>
</g>
</svg>
