<?xml version="1.0" encoding="iso-8859-1"?>
<!-- Generator: Adobe Illustrator 19.0.0, SVG Export Plug-In . SVG Version: 6.00 Build 0)  -->
<svg version="1.1" id="Layer_1" xmlns="http://www.w3.org/2000/svg" xmlns:xlink="http://www.w3.org/1999/xlink" x="0px" y="0px"
	 viewBox="0 0 500 500" enable-background="new 0 0 500 500" xml:space="preserve">
<g>
	<path fill="#FCB207" d="M492.739,289.324c-0.744,11.1-4.326,21.732-7.419,32.155c-12.335,41.569-34.3,77.665-66.201,107.246
		c-33.296,30.875-72.012,51.575-116.72,60.855c-5.86,1.216-57.282,7.414-105.699-0.354c-23.141-5.041-44.906-13.508-65.437-24.965
		c-15.19-8.476-29.919-17.876-42.554-30.089c-9.81-9.482-21.011-17.957-28.95-28.813c-7.066-9.663-14.509-19.345-20.266-30.057
		c-10.39-19.332-17.738-39.52-25.362-60.396C-1.74,271.449,7.756,219.241,11.1,196.546c1.227-8.325,4.379-16.132,6.625-24.184
		c7.66-27.462,22.278-51.217,39.362-73.407c18.056-23.452,40.205-42.597,65.412-58.399c24.298-15.233,50.694-23.531,78.352-30.953
		c30.828-8.273,97.351-1.525,104.737,0.669c13.189,3.918,26.898,6.258,39.383,12.273c23.223,11.188,45.484,23.513,64.919,41.23
		c9.532,8.69,19.282,16.987,27.635,26.855c25.152,29.713,44.718,62.785,52.022,101.175
		C498.878,240.861,492.928,286.503,492.739,289.324z M61.33,248.057c0.056,104.703,83.515,192.09,192.386,190.33
		c101.569-1.642,183.32-81.183,185.676-184.463c2.484-108.879-83.527-190.924-185.482-193.414
		C145.271,57.858,62.478,146.356,61.33,248.057z"/>
	<path fill="#06236B" d="M248.792,416.696c-87.216,1.026-164.364-73.044-165.54-164.617
		C82.156,166.768,145.374,97.024,220.638,84.93c56.324-9.051,106.158,5.273,147.221,45.397
		c34.412,33.625,50.516,75.19,49.911,123.412C416.643,343.661,339.932,419.01,248.792,416.696z M250.926,400.029
		c82.614-0.251,150.541-68.101,150.004-150.697c-0.537-82.687-66.307-149.97-150.949-150.098
		c-82.08-0.125-150.175,68.394-149.791,150.149C100.588,334.306,169.267,399.788,250.926,400.029z"/>
	<path fill="#06236B" d="M320.907,242.094c20.257,16.151,28.758,36.585,20.101,61.453c-9.231,26.514-30.327,36.209-57.743,35.705
		c0,7.97,0,15.49,0,23.63c-8.458,0-16.207,0-24.674,0c0-7.565,0-15.113,0-22.692c-5.686-1.721-10.733-0.841-16.544-0.922
		c0,8.053,0,15.56,0,23.79c-8.455,0.622-16.149,0.819-24.657-0.126c0-7.83,0-15.349,0-23.629c-19.181,0-37.588,0-57.486,0
		c5.39-10.828,10.167-20.425,15.026-30.187c5.72,0,10.831,0,16.344,0c0-40.496,0-80.487,0-120.898
		c-3.148-1.411-6.716-0.773-10.104-0.622c-4.267,0.189-7.308-1.1-9.111-5.065c-3.683-8.098-7.406-16.178-11.596-25.32
		c18.963,0,37.277,0,56.036,0c1.674-8.822,0.04-17.006,1.213-25.277c7.932,0,15.496,0,24.027,0c0,8.095,0,16.115,0,24.72
		c5.959,0.266,10.944,0.581,16.488-0.34c0-8.308,0-16.12,0-24.327c8.36,0,16.133,0,24.664,0c0,8.305,0,16.371,0,24.856
		c20.545,3.032,35.785,12.917,44.075,31.637C335.286,207.265,332.268,225.163,320.907,242.094z M221.658,263.62
		c0,15.415,0,30.021,0,45.148c24.702,0,49.123,0.572,73.496-0.254c11.312-0.383,19.41-11.301,19.279-22.675
		c-0.132-11.393-8.7-21.572-21.023-21.987C269.807,263.055,246.158,263.62,221.658,263.62z M221.758,232.753
		c19.858,0,39.168,0.581,58.424-0.201c13.179-0.535,22.138-11.574,21.507-24.161c-0.607-12.127-10.187-21.074-23.388-21.523
		c-7.35-0.25-14.715-0.068-22.074-0.071c-11.361-0.005-22.722-0.001-34.47-0.001C221.758,202.372,221.758,217.003,221.758,232.753z"
		/>
</g>
</svg>
