<?xml version="1.0" encoding="iso-8859-1"?>
<!-- Generator: Adobe Illustrator 19.0.0, SVG Export Plug-In . SVG Version: 6.00 Build 0)  -->
<svg version="1.1" id="Layer_1" xmlns="http://www.w3.org/2000/svg" xmlns:xlink="http://www.w3.org/1999/xlink" x="0px" y="0px"
	 viewBox="0 0 500 500" enable-background="new 0 0 500 500" xml:space="preserve">
<g>
	<path fill="#0B5079" d="M245.535,292.49c0,0-11.627,6.458-15.506,8.645c-41.704-42.181-83.218-84.169-125.832-127.272
		c0-53.761,0-165.857,0-165.857l43.175,40.827l98.426,98.455c0,0-0.103,9.726-0.113,13.355
		C245.579,201.272,245.535,292.49,245.535,292.49z"/>
	<path fill="#0B5079" d="M210.178,330.58c-34.932,0-70.035,0-105.888,0c0-42.72,0-85.322,0-127.021
		c36.434,37.053,73.456,74.704,110.478,112.355C215.633,315.169,212.665,324.73,210.178,330.58z"/>
	<path fill="#79C5EB" d="M282.441,300.356c-4.355-2.681-9.949-5.676-16.796-7.147c0-35.059,0-70.022,0-104.953
		c24.729-4.234,74.055,16.297,92.358,36.71C333.071,249.841,308.16,274.695,282.441,300.356z"/>
	<path fill="#2781AC" d="M410.023,348.373c-2.069,36.286-15.88,66.568-38.687,93.116c-25.085-25.369-49.748-50.312-75.206-76.059
		c2.624-4.211,5.364-10.215,7.321-17.056C338.647,348.373,373.667,348.373,410.023,348.373z"/>
	<path fill="#2781AC" d="M357.331,455.239c-25.854,21.841-56.112,34.376-91.429,36.872c0-35.736,0-70.716,0-105.941
		c5.572-2.358,11.096-4.696,16.808-7.114C307.28,404.141,331.962,429.34,357.331,455.239z"/>
	<path fill="#175B8C" d="M218.271,365.59c-25.321,25.588-49.979,50.506-75.236,76.028c-23.7-26.551-36.431-57.245-39.236-93.135
		c35.617,0,70.646,0,106.767,0C212.314,354.047,214.595,360.274,218.271,365.59z"/>
	<path fill="#4FA1D2" d="M409.412,330.452c-35.469,0-70.233,0-105.452,0c-2.46-5.887-4.879-11.676-6.87-16.44
		c25.217-25.431,49.859-50.283,74.495-75.129C392.67,258.568,409.205,298.195,409.412,330.452z"/>
	<path fill="#175B8C" d="M238.325,491.208c-31.081-4.109-58.694-16.119-82.092-36.507c25.061-24.89,50.016-49.674,75.798-75.28
		c3.345,1.394,8.553,3.563,13.761,5.734c-0.08,32.454-0.221,106.956-0.221,106.956S241.428,491.618,238.325,491.208z"/>
</g>
</svg>
