<?xml version="1.0" encoding="utf-8"?>
<!-- Generator: Adobe Illustrator 23.0.3, SVG Export Plug-In . SVG Version: 6.00 Build 0)  -->
<svg version="1.1" id="btt" xmlns="http://www.w3.org/2000/svg" xmlns:xlink="http://www.w3.org/1999/xlink" x="0px" y="0px"
	 viewBox="0 0 500 500" style="enable-background:new 0 0 500 500;" xml:space="preserve">
<path d="M492.3,199.4c-3.3-15.9-8.1-31.6-14.4-46.5c-6.2-14.7-13.9-28.8-22.8-42.1c-8.8-13.1-19-25.4-30.2-36.6S401.3,52.9,388.2,44
	c-13.2-8.9-27.4-16.6-42.1-22.8c-15-6.3-30.6-11.2-46.5-14.4c-16.3-3.3-33.1-5-49.8-5s-33.5,1.7-49.8,5
	c-15.9,3.3-31.6,8.1-46.5,14.4c-14.7,6.2-28.8,13.9-42.1,22.8c-13.1,8.8-25.4,19-36.6,30.2s-21.4,23.5-30.2,36.6
	c-8.9,13.2-16.6,27.4-22.8,42.1c-6.3,15-11.2,30.6-14.4,46.5c-3.3,16.3-5,33.1-5,49.8c0,16.8,1.7,33.5,5,49.8
	c3.3,15.9,8.1,31.6,14.4,46.5c6.2,14.7,13.9,28.8,22.8,42.1c8.8,13.1,19,25.4,30.2,36.6c11.2,11.2,23.5,21.4,36.6,30.2
	c13.2,8.9,27.4,16.6,42.1,22.8c15,6.3,30.6,11.2,46.5,14.4c16.3,3.3,33.1,5,49.8,5s33.5-1.7,49.8-5c15.9-3.3,31.6-8.1,46.5-14.4
	c14.7-6.2,28.8-13.9,42.1-22.8c13.1-8.8,25.4-19,36.6-30.2c11.2-11.2,21.4-23.5,30.2-36.6c8.9-13.2,16.6-27.4,22.8-42.1
	c6.3-15,11.2-30.6,14.4-46.5c3.3-16.3,5-33.1,5-49.8C497.3,232.5,495.6,215.8,492.3,199.4z M249.8,465.9
	c-119.6,0-216.6-97-216.6-216.6s97-216.6,216.6-216.6s216.6,97,216.6,216.6C466.4,368.9,369.4,465.9,249.8,465.9z"/>
<path d="M253.6,447.3c0.7,0,1.4,0,2.1-0.1c0.3,0,0.7,0,1,0c0.7,0,1.4-0.1,2.2-0.1c0.3,0,0.5,0,0.8,0c1,0,2-0.1,2.9-0.2
	c0.1,0,0.1,0,0.2,0c0.9-0.1,1.8-0.1,2.7-0.2c0.3,0,0.5,0,0.8-0.1c0.7-0.1,1.5-0.1,2.2-0.2c0.3,0,0.5-0.1,0.8-0.1
	c0.8-0.1,1.6-0.2,2.4-0.3c0.2,0,0.3,0,0.5-0.1c1-0.1,2-0.2,3-0.4c0,0,0.1,0,0.1,0c0.9-0.1,1.9-0.2,2.8-0.4c0.2,0,0.4-0.1,0.6-0.1
	c0.8-0.1,1.6-0.2,2.4-0.4c0.2,0,0.4-0.1,0.6-0.1c1-0.2,1.9-0.3,2.8-0.5c0,0,0,0,0,0c2-0.4,4-0.7,5.9-1.1c0.1,0,0.3-0.1,0.4-0.1
	c0.9-0.2,1.7-0.4,2.6-0.6c0.1,0,0.2-0.1,0.4-0.1c2-0.4,3.9-0.9,5.9-1.4l0,0c-24.3,0.8-44.1-2.6-56.7-5.3c-28-6-54.7-16.9-77.3-35.9
	c-37.6-31.6-56.9-76.7-56.4-121.6c0.4-33.6,11.8-67.1,34.8-94.5c28.9-34.4,70.1-52.4,112.3-53.3c1.9,0,3.9,0,5.8,0V96.7
	c-2.2,0-4.3,0-6.5,0c-12.8,0.3-25.7,1.8-38.1,4.7c-12.6,2.9-24.9,7.1-36.5,12.5c-11.9,5.5-23.2,12.3-33.6,20.3
	c-10.7,8.1-20.5,17.5-29.2,27.9c-8.1,9.7-15.2,20.2-21.1,31.2c-5.8,10.8-10.5,22.2-14,33.9c-3.4,11.5-5.7,23.4-6.8,35.4
	c-0.3,3.7-0.6,7.5-0.7,11.2c0,1.4-0.1,2.9-0.1,4.3c0,0.7,0,1.5,0,2.2c0.3,12.8,1.8,25.7,4.7,38.1c2.9,12.6,7.1,24.9,12.5,36.5
	c6.4,13.9,17.9,34.5,34.8,50.2c0,0,0,0,0,0c33.6,26.4,76,42.1,122.1,42.1c1,0,2,0,2.9,0C253,447.3,253.3,447.3,253.6,447.3z"/>
<path d="M309,414.6c-11.8-0.2-26.1-2-37.4-4c-52.3-9.5-97.3-41.3-113.9-89.7c-20.2-58.8,10.8-122.2,69.1-141.6
	c11.4-3.8,23-5.6,34.4-5.7c15.1-0.1,29.9,3,43.6,8.7l14.2-30.2c-4.2-1.8-8.6-3.4-13-4.8c-14.6-4.7-29.7-7-45-6.9
	c-15.3,0.1-30.5,2.6-45.1,7.4c-18.7,6.2-35.5,15.9-50.1,28.9c-7,6.2-13.4,13.1-19,20.6c-5.6,7.4-10.5,15.3-14.5,23.7
	c-4.1,8.3-7.3,17-9.7,26c-2.4,9-4,18.3-4.6,27.6c-1.3,19.3,1.3,38.5,7.6,57c6.3,18.5,16.6,35.5,30.4,50.5c12.4,13.5,27,23.7,44.6,33
	c18.4,9.6,40.9,14.8,64.5,18.1c15.2,2.1,35.5,2.5,47.5,2.5c10.4-3.9,14.8-5.5,20.5-7.9c4.9-2.3,9.7-4.7,14.4-7.3
	c4.8-2.8,5.7-3.3,13.7-8.5c0.7-0.5,1.4-1,2.1-1.5C336,415.1,328.8,414.9,309,414.6z"/>
<path d="M371.6,376.8c-7.8,0.5-19,1.2-31.7,1.2c-22.6,0-50.3-2-74-9.9c-36.5-12.2-71.2-43.5-71.2-82s31.2-69.6,69.6-69.6
	c26.1,0,48.9,14.4,60.8,35.7l30.2-14.9c-4.8-8.9-10.8-17-18-24.2c-9.5-9.5-20.5-16.9-32.8-22.1c-12.8-5.4-26.3-8.1-40.2-8.1
	c-13.9,0-27.5,2.7-40.2,8.1c-12.3,5.2-23.3,12.6-32.8,22.1c-9.5,9.5-16.9,20.5-22.1,32.8c-5.4,12.8-8.1,26.3-8.1,40.2
	c0,14,3,27.8,8.9,41.1c5.2,11.7,12.6,22.7,22,32.8c16.6,17.8,39.1,32.1,63.2,40.1c23.1,7.7,57.3,10.4,90.3,8.1
	c9.2-0.6,16.1-1.6,27.8-4c11.2-9,21.5-19.2,30.5-30.4l0,0C396.1,374.5,381.5,376.1,371.6,376.8z"/>
</svg>
