<?xml version="1.0" encoding="utf-8"?>
<!-- Generator: Adobe Illustrator 23.0.4, SVG Export Plug-In . SVG Version: 6.00 Build 0)  -->
<svg version="1.1" id="btu" xmlns="http://www.w3.org/2000/svg" xmlns:xlink="http://www.w3.org/1999/xlink" x="0px" y="0px"
	 viewBox="0 0 500 500" style="enable-background:new 0 0 500 500;" xml:space="preserve">
<style type="text/css">
	.st0{opacity:0.19;}
	.st1{fill:#303030;}
	.st2{opacity:0.2;}
	.st3{fill:#333333;}
	.st4{opacity:0.16;}
	.st5{fill:#2A2A2A;}
	.st6{fill:#282828;}
	.st7{opacity:7.000000e-02;}
	.st8{fill:#131313;}
	.st9{opacity:0.14;}
	.st10{fill:#232323;}
	.st11{opacity:0.1;}
	.st12{fill:#191919;}
	.st13{opacity:4.000000e-02;}
	.st14{fill:#0B0B0B;}
	.st15{opacity:5.000000e-02;}
	.st16{fill:#0E0E0E;}
	.st17{opacity:6.000000e-02;}
	.st18{fill:#0F0F0F;}
	.st19{opacity:0.11;}
	.st20{fill:#1B1B1B;}
	.st21{opacity:8.000000e-02;}
	.st22{fill:#141414;}
</style>
<g>
	<path id="Shape" d="M192.5,23.6c37.3-8.9,76.6-8.7,113.9-0.3c0.2,0.3,0.7,1,0.9,1.3c8.9,12.1,17.5,24.4,25.1,37.3
		c6.8,11.2,12.8,22.9,18.6,34.8c15.4-0.9,30.8-1.6,46.2-0.7c11.8,0.3,23.5,1.7,35.3,2.8l1.4,0.1c14.4,16,26.7,33.8,36.5,52.9
		c-4.1,12.4-8.6,24.6-13.8,36.6c-8.6-22.9-21-44.2-36.3-63.3c-19.3-2.2-38.7-2.4-58-1.6c8.7,23.1,15.3,47,19.8,71.3
		c2.3,14,4.2,28.1,5.1,42.4c-1.7,7.2,5.8,10.3,7.9,16.3c5.2,10.9,1.8,24.7-7.4,32.4c-0.1,1.4-0.3,4.3-0.5,5.7
		c-0.4,6.2-0.9,12.4-1.7,18.6c-0.9,8.5-2.3,16.9-3.6,25.3c-4.5,24.7-11.3,48.8-20.2,72.3c19,0.9,38,0.4,56.9-1.3
		c16.8-20.2,30.3-43.3,39-68.2c4.6-12.6,7.6-25.6,10-38.8c6.5,12.4,12.7,25,18.2,37.8l0.6,1.4c-11.4,35.7-30.5,69.3-56.7,96.1
		c-26.4,0.2-52.8,1.8-79.2-0.5c-6.3,11.8-12.3,23.9-19.3,35.3c-12.2,4.7-24.8,8.5-37.6,11.2l-2.9,0.6c11.4-16,21.7-32.8,30.7-50.4
		c-24.1-3.8-47.8-9.6-70.8-17.7c-13.2-4.7-26.3-10-38.9-16c-2.7-1.3-5.3-2.5-8-3.8c-7.6,3.4-16.7,3.7-24.2-0.3
		c-8.4-4.2-14.1-12.8-14.8-22.1c-1-0.7-3-2.2-4-3c-12.4-8-24-17.2-35.4-26.6c-18.7-16.1-36.1-33.8-51.7-52.9
		c-11.3,17.1-21,35.2-29.6,53.8c8.7,24.1,22.4,46.1,38.8,65.7c20.3,1.7,40.7,2.2,61.1,0.8c0.2,0.4,0.5,1.3,0.7,1.7
		c3.4,8.4,7,16.7,10.9,24.9c-13.7,1-27.3,1.9-41,1.6c-14-0.2-27.9-1.2-41.9-2.5c-0.8-0.1-2.4-0.3-3.1-0.4
		c-32.1-34.4-54.4-77.9-62.8-124.3c-6.1-32.8-5.6-66.8,1.7-99.4c8.9-40.4,28.4-78.4,55.7-109.4C97.3,62.8,142.9,35.2,192.5,23.6
		L192.5,23.6z M214.5,47.1c-13.5,2.3-27,5.5-39.8,10.4c-23,8.2-44.4,20.7-63.6,35.8c-10.8,9.1-21.2,18.8-30.1,29.8
		c-16.1,19.2-29.2,41.1-37.6,64.7c8.4,18.9,18.4,37.2,29.8,54.5c15.3-18.8,32.5-36.1,50.6-52.1c11.5-9,22.7-18.6,35.2-26.2l0-0.3
		c1.9-1.3,3.8-2.6,5.7-3.9c0-5.6,1.4-11.3,4.7-16c7.7-12.2,25.4-15.9,37.4-7.9c2-0.9,4.1-1.9,6.1-2.8c12.4-6.1,25.4-10.8,38.3-15.9
		c23.1-7.6,46.9-13.5,70.9-17.5c-9.2-18-19.6-35.4-31.5-51.7C265.6,43.4,239.7,43.2,214.5,47.1L214.5,47.1z M293.4,133.5
		c-13.7,3.3-27.2,7.5-40.4,12.4l0.5,0.2c-11.7,3.2-22.7,9.1-33.9,13.9c-0.9,7.7-4.1,15.3-10.4,20.1c-8.2,6.9-20.5,7.9-29.9,3
		c-11.2,7.5-22.4,15.3-32.5,24.2c-11.7,9.2-22.4,19.5-32.7,30.2c-8.6,8.9-16.5,18.3-24.1,28c8.4,10.6,17.1,20.9,26.7,30.5l-0.1,0.2
		c10.2,10.1,20.6,20.1,31.9,29c9,7.5,18.5,14.3,28.1,20.9c8.5-5.6,20.1-6,28.9-0.8c8.9,5,14,15.3,13.7,25.4
		c10.9,5.2,21.9,10.1,33.3,14.2c13.4,5.1,27.1,9.3,41,12.7c13.1,3.2,26.4,5.6,39.7,7.5c5.2-12.9,9.9-26,13.6-39.4l0.2-0.1
		c3.7-14,7-28.2,9.3-42.6c1.8-10.9,2.9-21.9,3.8-33c-7.1-3.1-13-9-15.5-16.3c-5.1-13.3,2.3-29.2,15.4-34.4
		c-0.9-11.2-2-22.4-3.9-33.5c-2.1-14.4-5.5-28.5-9.3-42.5c-3.7-12.7-8-25.2-12.9-37.5C320.3,127.8,306.8,130.1,293.4,133.5
		L293.4,133.5z M32.6,227.6c-4,25-4.1,50.7,0.1,75.7c7-13,15-25.5,23.2-37.8C47.7,253.2,39.9,240.6,32.6,227.6z"/>
</g>
<g transform="translate(29.360825, 0.824742)" class="st0">
	<path class="st1" d="M278,23.7c2.5-1,5.1,0.4,7.5,0.9c20.6,5.8,40.8,13.7,59,25c-6.5,7.3-15.7,11.5-22.8,18.3
		c-6-2.7-11.8-6.9-18.6-6.9C295.4,48.1,286.8,35.8,278,23.7z"/>
</g>
<g transform="translate(7.587629, 2.969072)" class="st2">
	<path class="st3" d="M167.2,54.6c12.8-4.9,26.3-8.1,39.8-10.4c-11.3,16.7-22.6,33.5-31.1,51.8c20.5,3.3,40.8,8.2,60.6,14.7
		c2.6,0.8,5,2.1,7.2,3.5c-12.8,5.1-25.9,9.8-38.3,15.9c-13.6-3.6-27.5-6.5-41.5-8.2c-4.9,11.9-9.4,24-12.6,36.4l0.3,2.4l0,0.3
		c-12.5,7.6-23.6,17.2-35.2,26.2c3.3-23.5,11.4-45.9,18.6-68.4c-20.5-1.2-41.1-0.7-61.5,1.2c8.9-11,19.3-20.7,30.1-29.8
		c14.4,0.9,28.8,0.6,43.2,1.8C153.4,79.5,160,66.9,167.2,54.6z"/>
</g>
<g transform="translate(33.649485, 3.298969)" class="st4">
	<path class="st5" d="M340.2,47.2l0.3-0.3c20,11.8,38.4,26.3,54.4,43c1.5,1.7,3.4,3.2,3.9,5.5c-11.8-1.1-23.5-2.5-35.3-2.8
		c-6.4-0.1-11.3-4.4-16-8.2c-9.4-7.2-19.8-13.1-30.1-18.9C324.5,58.7,333.6,54.6,340.2,47.2z"/>
</g>
<g transform="translate(10.721649, 11.216495)" class="st4">
	<path class="st6" d="M242.3,134.7c13.2-4.9,26.7-9.1,40.4-12.4c12.1,6.4,24.4,12.7,35.9,20.3c-7,6.9-15.9,11.2-23.1,17.8
		c-16.7-10-34.6-18.1-52.6-25.5L242.3,134.7z"/>
	<path class="st6" d="M103.4,226.3c10.3-10.7,21-21,32.7-30.2c1.5,4.8,0.4,9.7-0.2,14.5c-4.2,34.3-3,69.2,1.9,103.4
		c-11.3-8.9-21.7-18.9-31.9-29l0.1-0.2c1.2-3.3,0.7-6.8,0.6-10.3c-1-16.2-0.8-32.5,0.1-48.8C105.9,225.9,104.2,226.2,103.4,226.3z"
		/>
</g>
<g transform="translate(13.690722, 13.030928)" class="st7">
	<path class="st8" d="M443,175.3c5.2-12,9.7-24.2,13.8-36.6c12.4,23.5,20.3,49.3,24.3,75.6c-0.7,3.1,0.1,7.6-3.3,9.3
		c-7.1,4.6-13.6,10.4-21.4,13.8c-0.8-6.6-1-13.3-3-19.7c-5.4,7-9,15.1-14,22.3c-2.4,4.3-6.8,8.2-6.2,13.5
		c-4.2,6.5-11.2,9.9-17.8,13.6c-11.2,8.8-23.4,16.3-34.3,25.5c-2.8,1.9-5.9,3.1-9,4.5c0.8-6.2,1.2-12.4,1.7-18.6
		c9.9-7.2,17.7-17.2,24.2-27.5c-5.1-7.2-11.5-13.3-16.7-20.5c6.4-6.5,16.1-9.3,20.2-17.8c4.8,4.7,8.9,10,13.1,15.2
		C425.8,211.4,434.5,193.3,443,175.3z"/>
	<path class="st8" d="M153.4,380.3c1.8,4.1,2.8,8.7,5.8,12.2c13.1-1.7,26.1-4.1,38.6-8.3c12.6,6.1,25.7,11.4,38.9,16
		c-1.6,1.2-3.3,2.1-5.2,2.8c-19.5,6.8-39.7,11.7-60.1,15.5c-0.3,6.1,5.5,10.9,7.2,16.7c-7.3,5.1-15.3,9.1-21.5,15.6
		c-6.3-8.8-10.5-18.8-15.7-28.2c-3.9-8.2-7.5-16.5-10.9-24.9C137.8,391.1,147.2,387.8,153.4,380.3z"/>
</g>
<g transform="translate(29.195876, 13.195876)" class="st9">
	<path class="st10" d="M300.1,140.5c6.1,2.7,10.7,8.7,17.5,9.6c3.8,14,7.2,28.1,9.3,42.5c-16.2-12.1-32.4-24.1-49.9-34.3
		C284.2,151.7,293.2,147.4,300.1,140.5z"/>
</g>
<g transform="translate(36.618557, 17.154639)" class="st11">
	<path class="st12" d="M345.5,177.5c2.9,1.3,5.8,2.9,8.1,5.2c8.5,8.4,17.2,16.6,24.8,25.8c-4.2,8.5-13.9,11.4-20.2,17.8
		c-2.2-2.5-4.9-4.6-7.6-6.5C349.7,205.7,347.8,191.5,345.5,177.5z"/>
</g>
<g transform="translate(42.226804, 20.288660)" class="st13">
	<path class="st14" d="M452.4,207c3.7,17.4,3.2,35.6,2.5,53.3c-2.3,19.1-4.4,38.6-11.4,56.6c-5.5-12.9-11.7-25.4-18.2-37.8
		c-2.4,13.1-5.3,26.2-10,38.8c-6.9-9.3-10.8-20.4-16.5-30.4c7-5.3,14.6-10.1,22.3-14.3c1,0.7,3,2.1,3.9,2.7
		c3.4-14.9,2.6-30.5,2.7-45.8c7.8-3.4,14.3-9.2,21.4-13.8C452.6,214.6,451.7,210.1,452.4,207z"/>
</g>
<g transform="translate(13.690722, 24.082474)" class="st15">
	<path class="st16" d="M433,242.4c6.9,8.1,12,17.4,16.6,26.9c-7.7,4.2-15.2,9-22.3,14.3c-3.9-6.3-7.3-13-12.1-18.6
		c-8,5.5-12.6,14.5-19.7,20.9c-9.1,8.4-16.6,18.7-27.3,25.3c1.4-8.4,2.8-16.8,3.6-25.3c3.1-1.3,6.3-2.5,9-4.5
		c10.9-9.2,23.1-16.7,34.3-25.5C421.8,252.4,428.8,248.9,433,242.4z"/>
	<path class="st16" d="M178.8,424.1c4,5,6.5,10.9,10.2,16.1c3.6,5.9,8.1,11.2,11,17.4c-15.3,0.4-30.5-0.1-45.8,0.4
		c-7.6-0.1-15.3,0.6-22.9-0.6c2.6-1.2,4.9-2.9,6.8-5c3.3-3.7,9.3-4.1,11.3-9.1c3.2,1.3,6.5,2.2,9.8,2.8c-0.6-2.2-1.2-4.4-2-6.5
		C163.4,433.2,171.5,429.2,178.8,424.1z"/>
</g>
<g transform="translate(24.082474, 29.525773)" class="st17">
	<path class="st18" d="M258.2,341.6c26.7-12.6,51-29.6,74-48.1c-2.2,14.4-5.5,28.5-9.3,42.6l-0.2,0.1c-9.5,4-17.2,11.1-26.3,16
		c-8.8,5.7-18.8,9.4-27,15.9c-13.9-3.4-27.6-7.6-41-12.7C238.2,350.6,248.6,346.9,258.2,341.6z"/>
</g>
<g transform="translate(11.711340, 31.340206)" class="st19">
	<path class="st20" d="M113.4,310.2c11.4,9.4,23,18.5,35.4,26.6c-0.7,1.8-0.8,3.6-0.2,5.3c2,6.7,4.3,13.3,6.8,19.9
		c-6.2,7.5-15.7,10.8-22.8,17.3c-0.2-0.4-0.5-1.3-0.7-1.7c-7.3-19.3-13.6-38.9-18-59C113.5,315.8,113.5,313,113.4,310.2z"/>
</g>
<g transform="translate(6.762887, 40.412371)" class="st21">
	<path class="st22" d="M65.6,394.2c13.9,1.3,27.9,2.3,41.9,2.5c6.7,7.1,15.3,11.9,23.5,17.1c8.1,5.1,16.7,9.4,25.4,13.3
		c-2,4.9-8,5.3-11.3,9.1c-1.9,2.1-4.2,3.8-6.8,5c-6.3,0.4-13.3,1.5-18.8-2.3c-19.4-11.2-37.8-24.8-53.2-41.2
		C66.1,396.8,65.7,395,65.6,394.2z"/>
</g>
</svg>
