<?xml version="1.0" encoding="utf-8"?>
<!-- Generator: Adobe Illustrator 23.0.3, SVG Export Plug-In . SVG Version: 6.00 Build 0)  -->
<svg version="1.1" id="bu" xmlns="http://www.w3.org/2000/svg" xmlns:xlink="http://www.w3.org/1999/xlink" x="0px" y="0px"
	 viewBox="0 0 500 500" style="enable-background:new 0 0 500 500;" xml:space="preserve">
<style type="text/css">
	.st0{fill:url(#SVGID_1_);}
	.st1{fill:url(#SVGID_2_);}
	.st2{fill:url(#SVGID_3_);}
	.st3{fill:url(#SVGID_4_);}
</style>
<linearGradient id="SVGID_1_" gradientUnits="userSpaceOnUse" x1="120.2327" y1="112.1805" x2="120.2327" y2="-299.8873" gradientTransform="matrix(1 0 0 -1 0 144)">
	<stop  offset="0" style="stop-color:#00D080"/>
	<stop  offset="1" style="stop-color:#0BDD60"/>
</linearGradient>
<path class="st0" d="M220.6,133V5c0-1.3-1.3-2.5-2.5-1.3l-197,113l-1.3,1.3v128c0,2.5,2.5,2.5,3.8,2.5l195.8-113
	C219.4,134.3,220.6,134.3,220.6,133z"/>
<linearGradient id="SVGID_2_" gradientUnits="userSpaceOnUse" x1="180.0021" y1="112.1805" x2="180.0021" y2="-299.8873" gradientTransform="matrix(1 0 0 -1 0 144)">
	<stop  offset="0" style="stop-color:#00D080"/>
	<stop  offset="1" style="stop-color:#0BDD60"/>
</linearGradient>
<path class="st1" d="M220.6,293.6v-89.1c0-1.3-1.3-2.5-2.5-1.3l-77.8,45.2c-1.3,1.3-1.3,2.5,0,3.8l76.6,43.9
	C218.1,296.2,220.6,296.2,220.6,293.6z"/>
<linearGradient id="SVGID_3_" gradientUnits="userSpaceOnUse" x1="379.3903" y1="112.1805" x2="379.3903" y2="-299.8873" gradientTransform="matrix(1 0 0 -1 0 144)">
	<stop  offset="0" style="stop-color:#00D080"/>
	<stop  offset="1" style="stop-color:#0BDD60"/>
</linearGradient>
<path class="st2" d="M416.4,84.1v257.3c0,1.3,0,1.3-1.3,1.3l-55.2,32.6c-1.3,1.3-2.5,0-2.5-1.3v-325c0-1.3,0-1.3-1.3-1.3L282.1,5
	c-1.3-1.3-2.5,0-2.5,1.3v95.4l0,0v297.4l0,0v95.4c0,1.3,1.3,2.5,2.5,1.3l195.8-113l1.3-1.3V119.2c0-1.3,0-1.3-1.3-1.3l-59-33.9
	C417.7,82.8,416.4,82.8,416.4,84.1z"/>
<linearGradient id="SVGID_4_" gradientUnits="userSpaceOnUse" x1="120.8602" y1="112.1805" x2="120.8602" y2="-299.8873" gradientTransform="matrix(1 0 0 -1 0 144)">
	<stop  offset="0" style="stop-color:#00D080"/>
	<stop  offset="1" style="stop-color:#0BDD60"/>
</linearGradient>
<path class="st3" d="M219.4,365.2l-195.8-113c-1.3-1.3-2.5,0-2.5,1.3v128c0,1.3,0,1.3,1.3,1.3l195.8,113c1.3,1.3,2.5,0,2.5-1.3v-128
	C220.6,365.2,219.4,365.2,219.4,365.2z"/>
</svg>
