<?xml version="1.0" encoding="iso-8859-1"?>
<!-- Generator: Adobe Illustrator 19.0.0, SVG Export Plug-In . SVG Version: 6.00 Build 0)  -->
<svg version="1.1" id="Layer_2" xmlns="http://www.w3.org/2000/svg" xmlns:xlink="http://www.w3.org/1999/xlink" x="0px" y="0px"
	 viewBox="0 0 500 500" style="enable-background:new 0 0 500 500;" xml:space="preserve">
<polygon style="fill:#205E87;" points="255.057,1 433.793,103.422 407.048,119.614 253.985,33.978 "/>
<polygon style="fill:#205E87;" points="255.057,51.876 389.611,126.182 352.024,150.755 253.985,94.016 "/>
<polygon style="fill:#5B96C4;" points="389.611,126.182 389.611,162.331 293.57,226.627 255.057,206.513 "/>
<polygon style="fill:#3B627D;" points="255.057,206.513 255.057,300.901 347.406,349.606 376.222,330.356 294.403,290.022 
	294.553,225.926 "/>
<polygon style="fill:#1F5E88;" points="376.222,330.356 389.611,337.309 389.611,374.23 255.057,444.827 252.929,402.518 "/>
<polyline style="fill:#5B96C4;" points="433.793,103.422 433.793,198.856 341.528,251.753 309.222,233.647 405.075,170.456 
	405.047,118.494 "/>
<polygon style="fill:#3B627D;" points="309.222,233.647 309.222,281.218 395.106,322.03 433.793,299.324 "/>
<polygon style="fill:#1F5E88;" points="433.793,299.324 433.793,395.176 255.057,497.711 252.929,462.028 404.365,383.105 
	404.365,326.659 393.714,321.334 "/>
<polygon style="fill:#5B96C4;" points="255.057,51.876 113.139,128.19 113.139,366.505 255.057,444.827 255.057,401.315 
	160.668,347.761 161.338,146.934 255.057,94.719 "/>
<polygon style="fill:#5B96C4;" points="255.057,1 73.643,104.091 73.643,392.612 255.057,497.711 255.057,460.893 99.081,375.207 
	99.751,119.488 255.057,34.471 "/>
</svg>
