<?xml version="1.0" encoding="iso-8859-1"?>
<!-- Generator: Adobe Illustrator 19.0.0, SVG Export Plug-In . SVG Version: 6.00 Build 0)  -->
<svg version="1.1" id="Layer_1" xmlns="http://www.w3.org/2000/svg" xmlns:xlink="http://www.w3.org/1999/xlink" x="0px" y="0px"
	 viewBox="0 0 500 500" style="enable-background:new 0 0 500 500;" xml:space="preserve">
<path style="fill:#193064;" d="M29.876,493.257c0,0,0-325.458,0-489.642c8.233-0.386,186.348-1.046,268.59-1.018
	c58.318,0.019,103.553,25.186,131.796,75.481c28.481,50.719,24.017,102.248-6.759,151.482c-1.319,2.11-2.507,4.301-4.311,7.414
	c28.769,26.687,47.174,58.517,51.047,98.255c7.838,80.428-56.31,157.451-137.589,159.272
	C234.395,496.701,29.876,493.257,29.876,493.257z M123.858,364.203c73.852,0,146.998,0,220.321,0c0-17.915,0-32.897,0-51.753
	c-41.214,0-80.805,0-120.395,0c-0.399-1.745-0.797-3.49-1.195-5.234c40.793-43.273,81.585-86.547,120.793-128.138
	c0-14.989,0-27.504,0-41.114c-73.324,0-144.886,0-217.611,0c0,17.539,0,33.766,0,52.697c40.22,0,78.853,0,117.486,0
	c0.791,1.663,1.581,3.327,2.372,4.99c-40.927,42.781-81.853,85.562-123.413,129.005c0,9.998-0.126,20.231,0.077,30.458
	C122.353,358.199,123.327,361.267,123.858,364.203z"/>
<linearGradient id="SVGID_1_" gradientUnits="userSpaceOnUse" x1="122.1764" y1="251.0833" x2="344.1789" y2="251.0833">
	<stop  offset="0" style="stop-color:#3DBFDA"/>
	<stop  offset="0.9995" style="stop-color:#439CD7"/>
</linearGradient>
<path style="fill:url(#SVGID_1_);" d="M122.176,364.203c0,0,0.039-29.55,0.039-39.548c41.56-43.443,82.486-86.224,123.413-129.005
	c-0.791-1.663-1.581-3.327-2.372-4.99c-38.633,0-77.266,0-117.486,0c0-18.93,0-35.158,0-52.697c72.725,0,144.287,0,217.611,0
	c0,13.61,0,26.124,0,41.114c-39.207,41.592-80,84.865-120.793,128.138c0.398,1.745,0.797,3.49,1.195,5.234
	c39.591,0,79.182,0,120.395,0c0,18.856,0,33.838,0,51.753C270.856,364.203,122.176,364.203,122.176,364.203z"/>
</svg>
