<?xml version="1.0" encoding="iso-8859-1"?>
<!-- Generator: Adobe Illustrator 19.0.0, SVG Export Plug-In . SVG Version: 6.00 Build 0)  -->
<svg version="1.1" id="Layer_1" xmlns="http://www.w3.org/2000/svg" xmlns:xlink="http://www.w3.org/1999/xlink" x="0px" y="0px"
	 viewBox="0 0 500 500" style="enable-background:new 0 0 500 500;" xml:space="preserve">
<linearGradient id="SVGID_1_" gradientUnits="userSpaceOnUse" x1="33.3484" y1="115.67" x2="460.3847" y2="377.3049">
	<stop  offset="0" style="stop-color:#FCBB47"/>
	<stop  offset="0.9995" style="stop-color:#A96C00"/>
</linearGradient>
<path style="fill:url(#SVGID_1_);" d="M445.102,391.816l-167.16,96.51c-16.462,9.505-36.745,9.505-53.207,0l-167.16-96.51
	c-16.462-9.505-26.604-27.07-26.604-46.079v-193.02c0-19.009,10.141-36.574,26.604-46.079l167.16-96.51
	c16.462-9.505,36.745-9.505,53.207,0l167.16,96.51c16.462,9.505,26.603,27.07,26.603,46.079v193.02
	C471.706,364.747,461.565,382.312,445.102,391.816z"/>
<path style="fill:#FFFFFF;" d="M88.76,291.504c-4.156-2.663-8.717-4.863-12.398-8.072c-14.624-12.744-9.386-38.167,9.086-44.214
	c3.537-1.158,4.434-2.857,4.399-6.298c-0.156-15.373-0.099-30.749-0.044-46.124c0.008-2.342-0.537-4.1-2.531-5.617
	c-8.51-6.474-11.605-19.005-7.302-28.881c4.562-10.47,15.183-16.507,26.138-14.847c0.862,0.131,1.804,0.131,2.56,0.499
	c6.91,3.362,11.836-0.928,17.123-4.215c3.941-2.45,8.092-4.563,12.275-6.896c-3.592-12.96-1.147-24.278,10.373-31.926
	c12.935-8.587,25.012-5.702,35.946,4.889c3.371-1.851,6.718-3.621,10.001-5.503c9.447-5.416,18.833-10.938,28.322-16.278
	c2.478-1.395,3.811-3.152,4.411-5.978c2.213-10.408,11.641-18.485,21.299-19.298c14.392-1.212,23.729,7.365,26.294,16.872
	c1.383,5.129,3.942,8.05,8.626,10.249c5.896,2.768,11.389,6.392,17.067,9.627c0.464,0.264,1.013,0.379,1.936,0.713
	c10.923-11.529,23.65-14.874,37.534-5.498c10.599,7.158,12.748,16.257,9.133,32.864c3.474,2.025,7.107,4.149,10.746,6.263
	c8.004,4.65,16.039,9.246,23.998,13.97c2.349,1.394,4.502,1.507,7.13,0.707c14.018-4.264,28.025,1.317,32.954,15.91
	c3.151,9.331-0.304,21.174-8.3,26.98c-2.189,1.59-2.965,3.296-2.863,6.028c0.261,6.969,0.106,13.953,0.152,20.931
	c0.009,1.385,0.176,2.768,0.281,4.32c1.151,0.268,2.07,0.577,3.013,0.689c17.8,2.109,28.709,20.818,20.502,38.459
	c-3.752,8.064-10.405,13.03-19.406,14.32c-4.374,0.626-4.406,0.51-4.408,5.024c-0.008,13.077-0.003,26.154-0.003,39.474
	c1.771,1.075,3.624,2.183,5.461,3.317c12.077,7.453,14.346,25.586,5.192,36.398c-8.608,10.167-22.626,10.705-31.479,5.765
	c-0.985-0.55-2.545-0.628-3.646-0.292c-1.954,0.597-3.83,1.556-5.613,2.582c-5.357,3.082-10.653,6.27-16.179,9.538
	c6.843,16.675,5.02,31.162-12.373,39.772c-11.333,5.61-25.843,2.344-35.115-12.278c-4.97,2.789-9.996,5.542-14.956,8.407
	c-6.886,3.977-13.681,8.112-20.608,12.013c-1.987,1.119-2.656,2.418-2.654,4.668c0.009,14.192-9.223,24.422-23.361,25.242
	c-11.739,0.681-22.61-6.247-25.823-20.386c-0.326-1.434-1.575-3.026-2.847-3.815c-6.754-4.188-13.643-8.159-20.509-12.164
	c-1.296-0.756-2.703-1.323-4.318-2.102c-1.209,1.267-2.314,2.433-3.428,3.591c-8.044,8.368-22.52,10.346-32.282,4.413
	c-10.902-6.626-16.061-19.839-11.985-31.365c0.949-2.685,0.246-4.024-1.99-5.285c-7.579-4.273-15.133-8.59-22.651-12.97
	c-2.912-1.697-5.729-3.563-8.539-5.429c-1.854-1.231-3.362-1.603-5.621-0.299c-10.229,5.909-23.575,3.385-30.795-5.531
	c-7.898-9.754-7.891-23.226,0.318-32.335c2.302-2.555,3.15-4.977,2.926-8.425c-0.401-6.19-0.101-12.424-0.144-18.639
	c-0.01-1.386-0.226-2.771-0.347-4.157C89.212,291.088,88.986,291.296,88.76,291.504z M380.787,343.807
	c-0.145-1.258-0.119-2.036-0.334-2.74c-3.766-12.345,3.127-25.485,15.516-29.97c2.599-0.941,3.271-2.198,3.253-4.707
	c-0.092-13.414-0.052-26.828-0.073-40.243c-0.002-1.074-0.115-2.149-0.171-3.126c-4.606-3.235-8.545-6.875-10.518-12.027
	c-1.847-4.824-5.166-8.428-8.447-12.261c-8.831-10.318-21.828-8.668-33.071-3.598c-6.292,2.838-12.28,5.139-19.29,5.069
	c-13.988-0.14-23.836-6.886-30.409-18.653c-8.414-15.061-3.4-35.521,12.742-45.711c17.892-11.294,44.133-2.858,50.521,17.272
	c2.665,8.398,8.038,14.259,13.696,20.264c6.815,7.232,18.924,5.755,24.718,2.907c0-9.599,0-19.253,0-29.198
	c-8.609-1.327-15.763-4.892-20.19-12.514c-4.465-7.686-3.92-15.826-1.345-24.176c-1.423-0.977-2.61-1.904-3.899-2.659
	c-10.32-6.044-20.62-12.125-31.046-17.982c-1.245-0.699-3.478-0.683-4.786-0.043c-5.049,2.468-10.275,3.176-15.838,3.206
	c-4.499,0.025-9.132,0.52-13.462,1.699c-11.009,3-19.517,14.596-19.588,25.742c-0.024,3.781,0.122,7.664-0.654,11.321
	c-3.242,15.281-12.875,24.676-28.093,27.293c-14.177,2.438-26.123-2.496-34.41-14.482c-8.28-11.975-8.753-24.821-1.423-37.289
	c7.778-13.23,20.022-19.204,35.117-16.805c7.516,1.195,14.211-0.341,21.197-1.803c11.991-2.509,16.512-14.749,16.649-22.337
	c0.022-1.214-0.99-2.907-2.039-3.597c-4.001-2.631-8.194-4.973-12.351-7.362c-3.177-1.826-6.408-3.56-9.798-5.437
	c-5.192,8-12.478,12.291-21.667,12.406c-9.419,0.118-16.44-4.865-21.78-12.506c-12.752,7.405-25.21,14.567-37.547,21.931
	c-1.088,0.649-2.008,2.651-1.946,3.975c0.336,7.146-2.448,13.008-6.245,18.851c-4.064,6.254-6.007,13.653-4.601,20.92
	c1.704,8.812,7.652,15.466,15.278,19.857c10.994,6.33,17.715,15.122,19.217,27.83c2.69,22.749-17.997,42.208-40.566,37.923
	c-12.885-2.446-21.935-9.921-26.606-22.166c-5.135-13.46-1.67-25.4,7.224-36.217c1.622-1.972,2.944-4.287,3.958-6.636
	c1.071-2.481,1.48-5.239,2.4-7.796c4.64-12.896-1.669-22.274-11.379-29.025c-1.767-1.229-3.312-1.108-5.121-0.033
	c-5.335,3.171-10.709,6.282-16.148,9.27c-2.187,1.201-2.493,2.53-1.58,4.787c5.813,14.372-3.431,30.59-18.846,33.268
	c-1.136,0.197-2.23,0.633-3.361,0.963c0,17.281,0,34.253,0,51.102c9.714,5.747,10.752,7.062,14.445,12.597
	c2.491,3.732,5.447,7.351,8.86,10.235c9.592,8.105,24.323,7.814,34.425,0.178c3.157-2.386,6.842-4.487,10.615-5.566
	c11.532-3.297,22.389-1.847,32.025,5.952c10.591,8.571,15.027,19.662,12.869,32.962c-2.778,17.123-18.438,30.011-35.719,29.016
	c-13.963-0.804-26.435-9.249-31.218-22.441c-0.438-1.207-0.968-2.56-1.873-3.388c-5.123-4.688-10.3-9.327-15.637-13.767
	c-1.246-1.036-3.15-1.606-4.811-1.764c-8.538-0.81-16.08,2.073-22.939,6.876c-0.814,0.57-1.16,2.254-1.183,3.432
	c-0.116,5.887-0.065,11.777-0.037,17.667c0.004,0.923,0.194,1.845,0.307,2.852c9.229,0.009,16.753,2.988,22.061,10.439
	c5.244,7.361,5.575,15.496,3.208,23.806c0.775,0.553,1.188,0.903,1.649,1.169c11.038,6.377,22.047,12.805,33.169,19.032
	c1.259,0.705,3.338,0.774,4.725,0.275c4.985-1.795,9.978-2.796,15.336-2.678c4.075,0.089,8.281-0.327,12.231-1.311
	c4.95-1.234,10.191-2.845,13.184-7.301c4.455-6.633,7.58-13.882,7.429-22.203c-0.061-3.36-0.06-6.877,0.822-10.072
	c5.103-18.48,23.275-30.415,43.205-24.909c17.007,4.698,26.556,19.313,25.2,36.969c-1.435,18.686-18.638,33.505-37.088,30.999
	c-8.272-1.123-15.963-0.454-23.754,1.97c-9.343,2.907-15.536,10.467-16.465,20.23c-0.268,2.813,0.576,4.739,3.245,6.085
	c3.692,1.862,7.198,4.089,10.797,6.137c3.751,2.135,7.518,4.243,11.644,6.569c4.892-7.186,11.208-11.497,19.572-12.209
	c8.355-0.711,15.385,2.255,21.162,8.249c0.708-0.365,1.191-0.59,1.652-0.854c12.761-7.318,25.555-14.581,38.225-22.053
	c1.258-0.742,1.921-2.691,2.586-4.201c1.302-2.956,1.801-6.482,3.726-8.902c4.235-5.326,5.673-11.433,6.547-17.843
	c1.153-8.46-6.355-22.244-14.146-25.742c-16.323-7.329-26.503-28.591-16.424-47.799c8.483-16.168,29.199-23.84,46.592-15.084
	c21.209,10.678,24.53,38.307,11.189,53.499c-2.587,2.946-4.505,6.609-6.16,10.204c-1.441,3.132-2.248,6.597-3.03,9.984
	c-1.898,8.221,2.5,18.747,9.572,22.577C363.773,353.625,372.315,348.696,380.787,343.807z"/>
</svg>
