<?xml version="1.0" encoding="utf-8"?>
<!-- Generator: Adobe Illustrator 24.2.2, SVG Export Plug-In . SVG Version: 6.00 Build 0)  -->
<svg version="1.1" id="Layer_1" xmlns="http://www.w3.org/2000/svg" xmlns:xlink="http://www.w3.org/1999/xlink" x="0px" y="0px"
	 viewBox="0 0 500 500" style="enable-background:new 0 0 500 500;" xml:space="preserve">
<style type="text/css">
	.st0{fill:url(#SVGID_1_);}
	.st1{fill:#FFFFFF;}
</style>
<linearGradient id="SVGID_1_" gradientUnits="userSpaceOnUse" x1="465.76" y1="36.24" x2="68.96" y2="433.04" gradientTransform="matrix(1 0 0 -1 0 502)">
	<stop  offset="0.1594" style="stop-color:#003CDA"/>
	<stop  offset="1" style="stop-color:#33DFCC"/>
</linearGradient>
<path class="st0" d="M2,250C2,113,113,2,250,2s248,111,248,248S387,498,250,498S2,387,2,250z"/>
<path class="st1" d="M146.2,24.7C162,17.4,178.6,11.8,196,7.9v103.7h-49.7V24.7z"/>
<path class="st1" d="M7.6,197.4c3.7-17.4,9.3-34.1,16.5-49.9h255.3c37.3,0,67.5,30.3,67.5,67.7v65.9c0,37.4-30.2,67.7-67.5,67.7
	h-65.7c-37.3,0-67.5-30.3-67.5-67.7v-48.1H196v47.7c0,10,7.8,17.8,17.8,17.8h65.7c9.9,0,17.8-7.8,17.8-17.8v-65.5
	c0-10-7.8-17.8-17.8-17.8H7.6z"/>
</svg>
