<?xml version="1.0" encoding="utf-8"?>
<!-- Generator: Adobe Illustrator 25.0.1, SVG Export Plug-In . SVG Version: 6.00 Build 0)  -->
<svg version="1.1" id="cake" xmlns="http://www.w3.org/2000/svg" xmlns:xlink="http://www.w3.org/1999/xlink" x="0px" y="0px"
	 viewBox="0 0 500 500" style="enable-background:new 0 0 500 500;" xml:space="preserve">
<style type="text/css">
	.st0{fill-rule:evenodd;clip-rule:evenodd;fill:#633001;}
	.st1{fill:#FEDC90;}
	.st2{fill-rule:evenodd;clip-rule:evenodd;fill:#D1884F;}
	.st3{fill:#633001;}
</style>
<path class="st0" d="M90.8,78.2C83.2,37.5,114.3,0,155.7,0c36.5,0,66,29.6,66,66v81.4c9.1-0.6,18.4-1,27.8-1c9,0,17.9,0.3,26.7,0.9
	V66c0-36.5,29.6-66,66-66c41.3,0,72.5,37.5,64.9,78.2l-17.9,95.7C450.6,200.6,497,247.1,497,305.6v35.4c0,48.1-31.8,88.3-76.2,115.4
	C375.9,483.7,315.3,500,249.5,500c-65.9,0-126.4-16.3-171.2-43.6C33.8,429.2,2,389,2,340.9v-35.4c0-58.1,45.9-104.5,106.7-131.3
	L90.8,78.2z M366.3,186.4l20.9-112c5.3-28.2-16.4-54.2-45.1-54.2c-25.3,0-45.8,20.5-45.8,45.8v103.6c-6.6-0.9-13.4-1.5-20.2-2
	c-8.8-0.6-17.7-0.9-26.7-0.9c-9.4,0-18.7,0.3-27.8,1c-6.8,0.5-13.6,1.2-20.2,2.1V66c0-25.3-20.5-45.8-45.8-45.8
	c-28.7,0-50.3,26-45.1,54.2l21,112.3C66,211.1,22.2,255.2,22.2,305.6v35.4c0,76.7,101.8,138.9,227.3,138.9
	c125.5,0,227.3-62.2,227.3-138.9v-35.4C476.7,255,432.5,210.7,366.3,186.4z"/>
<path class="st1" d="M476.7,340.9c0,76.7-101.8,138.9-227.3,138.9c-125.5,0-227.3-62.2-227.3-138.9v-35.4h454.5V340.9z"/>
<path class="st2" d="M110.6,74.4c-5.3-28.2,16.4-54.2,45.1-54.2c25.3,0,45.8,20.5,45.8,45.8v103.7c15.5-2,31.5-3.1,48-3.1
	c16.1,0,31.8,1,46.9,3V66c0-25.3,20.5-45.8,45.8-45.8c28.7,0,50.3,26,45.1,54.2l-20.9,112c66.1,24.3,110.4,68.6,110.4,119.1
	c0,76.7-101.8,138.9-227.3,138.9c-125.5,0-227.3-62.2-227.3-138.9c0-50.3,43.8-94.4,109.4-118.8L110.6,74.4z"/>
<path class="st3" d="M186.3,295.5c0,20.9-11.3,37.9-25.3,37.9s-25.3-17-25.3-37.9c0-20.9,11.3-37.9,25.3-37.9
	S186.3,274.5,186.3,295.5z"/>
<path class="st3" d="M360.6,295.5c0,20.9-11.3,37.9-25.3,37.9c-13.9,0-25.3-17-25.3-37.9c0-20.9,11.3-37.9,25.3-37.9
	C349.3,257.6,360.6,274.5,360.6,295.5z"/>
</svg>
