<svg aria-hidden="true" data-testid="test-icon" fill="currentColor" viewBox="0 0 24 24" xmlns="http://www.w3.org/2000/svg"><path fill-rule="evenodd" clip-rule="evenodd" d="M6.4 6.273a.81.81 0 00-.8.818v11.454a.81.81 0 00.8.819h11.2a.81.81 0 00.8-.819V7.091a.81.81 0 00-.8-.818H6.4zM4 7.09c0-1.356 1.075-2.455 2.4-2.455h11.2c1.325 0 2.4 1.1 2.4 2.455v11.454C20 19.902 18.925 21 17.6 21H6.4C5.075 21 4 19.901 4 18.546V7.09z"/><path fill-rule="evenodd" clip-rule="evenodd" d="M15.2 3c.442 0 .8.366.8.818v3.273a.81.81 0 01-.8.818.81.81 0 01-.8-.818V3.818A.81.81 0 0115.2 3zM8.8 3c.442 0 .8.366.8.818v3.273a.81.81 0 01-.8.818.81.81 0 01-.8-.818V3.818A.81.81 0 018.8 3zM4 10.364a.81.81 0 01.8-.819h14.4c.442 0 .8.367.8.819a.81.81 0 01-.8.818H4.8a.81.81 0 01-.8-.818z"/></svg>