<svg aria-hidden="true" data-testid="test-icon" fill="currentColor" viewBox="0 0 24 24" xmlns="http://www.w3.org/2000/svg"><path fill-rule="evenodd" clip-rule="evenodd" d="M8.807 4.038a.833.833 0 01.693-.371h5c.278 0 .539.139.693.37l1.42 2.13H19.5a2.5 2.5 0 012.5 2.5v9.166a2.5 2.5 0 01-2.5 2.5h-15a2.5 2.5 0 01-2.5-2.5V8.667a2.5 2.5 0 012.5-2.5h2.887l1.42-2.13zm1.139 1.295l-1.42 2.13a.833.833 0 01-.693.37H4.5a.833.833 0 00-.833.834v9.166a.833.833 0 00.833.834h15a.833.833 0 00.833-.834V8.667a.833.833 0 00-.833-.834h-3.333a.833.833 0 01-.694-.37l-1.42-2.13H9.947zm2.054 5a2.5 2.5 0 100 5 2.5 2.5 0 000-5zm-4.167 2.5a4.167 4.167 0 118.334 0 4.167 4.167 0 01-8.334 0z"/></svg>
