<?xml version="1.0" encoding="iso-8859-1"?>
<!-- Generator: Adobe Illustrator 19.0.0, SVG Export Plug-In . SVG Version: 6.00 Build 0)  -->
<svg version="1.1" id="Layer_1" xmlns="http://www.w3.org/2000/svg" xmlns:xlink="http://www.w3.org/1999/xlink" x="0px" y="0px"
	 viewBox="0 0 500 500" style="enable-background:new 0 0 500 500;" xml:space="preserve">
<g>
	<linearGradient id="SVGID_1_" gradientUnits="userSpaceOnUse" x1="106.3912" y1="453.2714" x2="391.1112" y2="45.5703">
		<stop  offset="0" style="stop-color:#EA4397"/>
		<stop  offset="1" style="stop-color:#DB207E"/>
	</linearGradient>
	<path style="fill:url(#SVGID_1_);" d="M290.675,9.361c131.438,21.765,220.736,146.976,199.305,277.941
		c-21.817,133.325-143.005,222.367-277.399,203.486c-98.698-13.866-179.316-89.78-201.407-187.268
		c-7.405-32.676-7.853-71.046-2.438-96.183c21.261-98.696,78.459-164.27,174.979-192.67C216.037,5.157,249.124,2.48,290.675,9.361z
		 M379.296,176.703c-44.672-68.529-142.211-83.233-205.88-32.416c-47.388,37.822-61.125,102.921-33.06,156.666
		c28.951,55.442,95.172,85.944,156.273,72.193c22.582-5.082,42.926-14.336,61.676-30.461
		c-12.104-11.051-23.378-21.343-34.757-31.732c-31.507,21.161-63.961,23.669-97.457,9.196
		c-36.425-15.739-58.402-54.049-52.188-89.477c8.307-47.358,53.191-77.026,103.443-68.438c24.762,4.232,44.836,16.513,60.967,36.191
		C352.061,191.138,365.266,184.139,379.296,176.703z"/>
	<path style="fill:#FFFFFF;" d="M379.296,176.703c-14.03,7.436-27.235,14.435-40.983,21.722
		c-16.132-19.678-36.205-31.959-60.967-36.191c-50.251-8.588-95.136,21.08-103.443,68.438
		c-6.215,35.429,15.763,73.738,52.188,89.477c33.495,14.473,65.95,11.965,97.457-9.196c11.379,10.389,22.653,20.682,34.757,31.732
		c-18.75,16.125-39.094,25.379-61.676,30.461c-61.1,13.75-127.322-16.752-156.273-72.193
		c-28.065-53.745-14.328-118.844,33.06-156.666C237.084,93.47,334.624,108.175,379.296,176.703z"/>
</g>
</svg>
