<svg aria-hidden="true" data-testid="test-icon" fill="currentColor" viewBox="0 0 24 24" xmlns="http://www.w3.org/2000/svg"><path d="M0 2.875C0 2.392.392 2 .875 2h3.5c.417 0 .776.294.858.703l.735 3.672h14.157a.875.875 0 01.86 1.039l-1.402 7.348a2.625 2.625 0 01-2.616 2.113h-8.49a2.625 2.625 0 01-2.615-2.113L4.4 7.46a.868.868 0 01-.015-.073L3.658 3.75H.875A.875.875 0 010 2.875zm6.318 5.25l1.26 6.296a.875.875 0 00.875.704h8.539a.875.875 0 00.874-.701l1.201-6.299H6.318zm-.193 12.25a1.75 1.75 0 113.5 0 1.75 1.75 0 01-3.5 0zm9.625 0a1.75 1.75 0 113.5 0 1.75 1.75 0 01-3.5 0z"/></svg>
