<svg width="24" height="24" viewBox="0 0 24 24" fill="none" xmlns="http://www.w3.org/2000/svg">
<path fill-rule="evenodd" clip-rule="evenodd" d="M4.87291 0.973379C4.87339 0.973679 4.87388 0.97398 4.87437 0.974281L8.83721 3.40138C9.89263 3.02261 10.9815 2.81438 12.0513 2.81438C13.1258 2.81438 14.2196 3.02445 15.2794 3.40641L19.2396 0.974281C19.24 0.974062 19.2404 0.973843 19.2407 0.973624C20.9411 -0.0745013 23.1248 1.15576 23.1248 3.14254V15.2388C23.1248 15.3613 23.1012 15.4783 23.0583 15.5855C22.5692 19.9504 18.8778 23.3421 14.3855 23.3591C14.3818 23.3592 14.3781 23.3592 14.3744 23.3592H9.75106C5.2284 23.3592 1.50993 19.9387 1.03947 15.5417C1.00692 15.4467 0.989258 15.3448 0.989258 15.2388V3.14254C0.989258 1.15592 3.17253 -0.0743097 4.87291 0.973379ZM2.85754 13.8764V14.5974C2.85754 18.4073 5.94116 21.4909 9.75106 21.4909H14.3515C18.1614 21.4909 21.245 18.4073 21.245 14.5974V13.8764C21.245 11.3999 20.0373 9.10063 18.2378 7.40177C16.4308 5.69585 14.1189 4.68266 12.0513 4.68266C9.98368 4.68266 7.6718 5.69585 5.86482 7.40177C4.06532 9.10063 2.85754 11.3999 2.85754 13.8764ZM2.85754 8.05977V3.14254C2.85754 2.61207 3.44245 2.28606 3.89332 2.56426L3.89595 2.56587L6.81879 4.35601C6.01962 4.8298 5.26486 5.39885 4.58227 6.04326C3.94407 6.64578 3.3604 7.32233 2.85754 8.05977ZM21.2565 8.07659V3.14254C21.2565 2.61207 20.6716 2.28605 20.2207 2.56426L20.219 2.56528L17.2936 4.36185C18.0892 4.83448 18.8405 5.4015 19.5203 6.04326C20.1634 6.65035 20.751 7.33261 21.2565 8.07659Z" fill="#9B22FF"/>
<path d="M11.0215 15.5931L12.0629 16.1195L13.0928 15.5931" fill="#9B22FF"/>
<path fill-rule="evenodd" clip-rule="evenodd" d="M10.2473 15.2017C10.4634 14.7742 10.9852 14.6028 11.4127 14.8189L12.0606 15.1464L12.698 14.8207C13.1246 14.6027 13.6471 14.7717 13.8651 15.1983C14.0832 15.6249 13.9141 16.1474 13.4875 16.3654L12.9305 16.6502V17.7328C12.9305 18.2119 12.5421 18.6002 12.0631 18.6002C11.584 18.6002 11.1957 18.2119 11.1957 17.7328V16.6531L10.6301 16.3672C10.2026 16.1511 10.0312 15.6293 10.2473 15.2017Z" fill="#BC68FF"/>
<path d="M9.46818 11.977C9.46818 12.7452 8.84548 13.3679 8.07735 13.3679C7.30922 13.3679 6.68652 12.7452 6.68652 11.977C6.68652 11.2089 7.30922 10.5862 8.07735 10.5862C8.84548 10.5862 9.46818 11.2089 9.46818 11.977Z" fill="#9B22FF"/>
<path d="M17.4281 11.977C17.4281 12.7451 16.8054 13.3678 16.0373 13.3678C15.2691 13.3678 14.6464 12.7451 14.6464 11.977C14.6464 11.2089 15.2691 10.5862 16.0373 10.5862C16.8054 10.5862 17.4281 11.2089 17.4281 11.977Z" fill="#9B22FF"/>
</svg>
