<?xml version="1.0" encoding="utf-8"?>
<!-- Generator: Adobe Illustrator 24.1.2, SVG Export Plug-In . SVG Version: 6.00 Build 0)  -->
<svg version="1.1" id="CBAT" xmlns="http://www.w3.org/2000/svg" xmlns:xlink="http://www.w3.org/1999/xlink" x="0px" y="0px"
	 viewBox="0 0 500 500" style="enable-background:new 0 0 500 500;" xml:space="preserve">
<style type="text/css">
	.st0{fill:#EDF0F2;}
	.st1{fill:url(#SVGID_1_);}
	.st2{fill:#FFFFFF;}
	.st3{fill-rule:evenodd;clip-rule:evenodd;fill:#283947;}
</style>
<circle class="st0" cx="250" cy="249.9" r="250"/>
<linearGradient id="SVGID_1_" gradientUnits="userSpaceOnUse" x1="179.5249" y1="474.5766" x2="257.9188" y2="39.9416" gradientTransform="matrix(1 0 0 -1 0 502)">
	<stop  offset="0" style="stop-color:#27D3A2"/>
	<stop  offset="1" style="stop-color:#9388FD"/>
</linearGradient>
<path class="st1" d="M408.7,443.1c-38.2,31.4-84.9,50.7-134.1,55.6c-66,6.5-131.9-13.4-183.1-55.4c-51.3-42-83.8-102.7-90.3-168.7
	c-4.9-49.2,5-98.8,28.2-142.4C52.7,88.6,88.4,52.9,132,29.5C175.6,6.2,225.1-3.7,274.4,1.1c49.2,4.8,95.9,24.1,134.1,55.5
	l-50.4,61.5c-26.1-21.4-57.9-34.5-91.5-37.8s-67.3,3.5-97,19.4c-29.7,15.9-54.1,40.3-69.9,70c-15.9,29.7-22.6,63.5-19.2,97.1
	c4.5,45,26.6,86.4,61.6,115c35,28.7,79.9,42.3,124.9,37.8c33.5-3.3,65.4-16.5,91.4-37.9L408.7,443.1z"/>
<path class="st2" d="M250,469.9c121.5,0,219.9-98.5,219.9-219.9C469.9,128.5,371.5,30,250,30C128.5,30,30.1,128.5,30.1,249.9
	C30.1,371.4,128.5,469.9,250,469.9z"/>
<path class="st3" d="M241.2,204.3L181,303.4l24-13.8c0.1-0.1,0.1-0.2,0.2-0.3l36.1-58.8V204.3z M308.8,317.1H192.4l21.7-12.5h72.2
	c0.3,0,0.5,0,0.8,0L308.8,317.1z M318.2,302.3l-59.5-97.9v26.2l35.6,57.9L318.2,302.3z M258.5,170.3c-3.9-6.4-13.2-6.4-17.1,0
	l-90.6,149.1c-4.1,6.7,0.7,15.2,8.6,15.2h181.3c7.8,0,12.6-8.5,8.6-15.2L258.5,170.3z M249.9,249.8L227.1,287h45.8L249.9,249.8z"/>
</svg>
