<?xml version="1.0" encoding="iso-8859-1"?>
<!-- Generator: Adobe Illustrator 19.0.0, SVG Export Plug-In . SVG Version: 6.00 Build 0)  -->
<svg version="1.1" id="Layer_2" xmlns="http://www.w3.org/2000/svg" xmlns:xlink="http://www.w3.org/1999/xlink" x="0px" y="0px"
	 viewBox="0 0 500 500" style="enable-background:new 0 0 500 500;" xml:space="preserve">
<linearGradient id="SVGID_1_" gradientUnits="userSpaceOnUse" x1="250" y1="12.2072" x2="250" y2="487.1907">
	<stop  offset="0" style="stop-color:#8F6B2E"/>
	<stop  offset="0.3063" style="stop-color:#CFA249"/>
	<stop  offset="0.3875" style="stop-color:#CA9C47"/>
	<stop  offset="0.4956" style="stop-color:#BA8B41"/>
	<stop  offset="0.6186" style="stop-color:#A27036"/>
	<stop  offset="0.6546" style="stop-color:#996633"/>
	<stop  offset="0.6996" style="stop-color:#A47235"/>
	<stop  offset="0.7985" style="stop-color:#B68538"/>
	<stop  offset="0.8984" style="stop-color:#C09139"/>
	<stop  offset="1" style="stop-color:#C4953A"/>
</linearGradient>
<circle style="fill:url(#SVGID_1_);" cx="250" cy="250" r="246.052"/>
<path style="fill:#FFFFFF;" d="M290.915,47.679H209.86c-6.541,0-11.893-5.352-11.893-11.893V16.037
	c0-6.541,5.352-6.409,11.893-6.409h81.055c6.541,0,11.893,0.8,11.893,7.34v18.817C302.807,42.328,297.455,47.679,290.915,47.679z"/>
<path style="fill:#FFFFFF;" d="M291.325,451.763H210.27c-6.541,0-11.893,5.352-11.893,11.893v19.749
	c0,6.541,5.352,6.409,11.893,6.409h81.055c6.541,0,11.893-0.8,11.893-7.34v-18.817C303.217,457.114,297.866,451.763,291.325,451.763
	z"/>
<path style="fill:#FFFFFF;" d="M47.32,215.55v81.055c0,6.541-5.352,11.893-11.893,11.893H15.678c-6.541,0-6.409-5.352-6.409-11.893
	V215.55c0-6.541,0.8-11.893,7.34-11.893h18.817C41.968,203.657,47.32,209.009,47.32,215.55z"/>
<path style="fill:#FFFFFF;" d="M451.404,212.269v81.055c0,6.541,5.352,11.892,11.893,11.892h19.749
	c6.541,0,6.409-5.352,6.409-11.892v-81.055c0-6.541-0.8-11.893-7.34-11.893h-18.818
	C456.755,200.377,451.404,205.728,451.404,212.269z"/>
<path style="fill:#FFFFFF;" d="M83.92,367.754l57.315,57.315c4.625,4.625,4.625,12.193,0,16.819l-13.965,13.965
	c-4.625,4.625-8.316,0.747-12.941-3.878L57.015,394.66c-4.625-4.625-7.844-8.975-3.219-13.6l13.306-13.306
	C71.727,363.129,79.295,363.129,83.92,367.754z"/>
<path style="fill:#FFFFFF;" d="M364.05,81.345l57.315,57.315c4.625,4.625,12.193,4.625,16.819,0l13.965-13.965
	c4.625-4.625,0.747-8.316-3.878-12.941l-57.315-57.315c-4.625-4.625-8.975-7.844-13.6-3.219L364.05,64.526
	C359.425,69.151,359.425,76.719,364.05,81.345z"/>
<path style="fill:#FFFFFF;" d="M363.499,421.189l57.315-57.315c4.625-4.625,12.193-4.625,16.819,0l13.965,13.965
	c4.625,4.625,0.747,8.316-3.878,12.941l-57.315,57.315c-4.625,4.625-8.975,7.844-13.6,3.219l-13.306-13.306
	C358.874,433.382,358.874,425.814,363.499,421.189z"/>
<path style="fill:#FFFFFF;" d="M77.91,138.189l57.315-57.315c4.625-4.625,4.625-12.193,0-16.819L121.26,50.091
	c-4.625-4.625-8.316-0.747-12.941,3.878l-57.315,57.315c-4.625,4.625-7.844,8.975-3.219,13.6l13.306,13.306
	C65.716,142.814,73.285,142.814,77.91,138.189z"/>
<circle style="fill:#FFFFFF;" cx="250.82" cy="249.18" r="150.099"/>
<circle style="fill:#090002;" cx="250" cy="249.59" r="138.038"/>
<path style="fill:#FFFFFF;" d="M305.124,221.197H281.12v-46.379h-52.481c0,0-1.519,6.281,3.458,12.815
	c3.727,4.892,10.578,5.696,10.578,5.696h17.29v27.461h-16.884c0,0-2.006,8.763,3.486,14.255c5.492,5.492,12.991,5.069,12.991,5.069
	v63.669h45.769c0,0,36.615-0.407,36.615-41.904S305.124,221.197,305.124,221.197z M298.045,286.045h-16.408v-46.788h17.221
	c0,0,20.145-2.599,20.145,23.394C319.003,288.644,298.045,286.045,298.045,286.045z"/>
<path style="fill:#FFFFFF;" d="M239.398,286.117v17.961h-47.276c0,0-36.391-1.462-36.391-40.615s29.162-41.874,41.874-41.874
	c12.712,0,31.348,0,31.348,0s-0.267,17.595-17.011,17.595c-19.559,0-33.44,0-33.44,22.752c0,14.946,7.474,24.181,19.842,24.181
	C214.428,286.117,239.398,286.117,239.398,286.117z"/>
<path style="fill:#000201;" d="M250,3.948C114.109,3.948,3.948,114.109,3.948,250S114.109,496.052,250,496.052
	S496.052,385.891,496.052,250S385.891,3.948,250,3.948z M250,485.085c-130.06,0-235.495-105.435-235.495-235.495
	S119.94,14.095,250,14.095S485.495,119.53,485.495,249.59S380.06,485.085,250,485.085z"/>
</svg>
