<?xml version="1.0" encoding="utf-8"?>
<!-- Generator: Adobe Illustrator 23.0.4, SVG Export Plug-In . SVG Version: 6.00 Build 0)  -->
<svg version="1.1" id="cccx" xmlns="http://www.w3.org/2000/svg" xmlns:xlink="http://www.w3.org/1999/xlink" x="0px" y="0px"
	 viewBox="0 0 500 500" style="enable-background:new 0 0 500 500;" xml:space="preserve">
<path d="M468.2,407.6c-45.5,55.3-114.5,90.5-191.7,90.5c-137,0-248.1-111.1-248.1-248.1C28.4,113,139.5,1.9,276.5,1.9
	c76.6,0,145.1,34.7,190.7,89.3l-32.5,31c-37.3-46.1-94.3-75.6-158.1-75.6C164.4,46.6,73.1,137.9,73.1,250
	c0,112.2,91.2,203.4,203.4,203.4c64.1,0,121.4-29.8,158.7-76.3L468.2,407.6z"/>
<path d="M414.8,358.3c-32.1,41-82.1,67.3-138.2,67.3c-97,0-175.6-78.6-175.6-175.6c0-97,78.6-175.6,175.6-175.6
	c56,0,105.8,26.2,138,67l-32.6,31.1c-23.8-32.4-62.2-53.4-105.4-53.4c-72.2,0-130.9,58.7-130.9,130.9c0,72.2,58.7,130.9,130.9,130.9
	c43,0,81.3-20.9,105.2-53L414.8,358.3z"/>
</svg>
