<?xml version="1.0" encoding="utf-8"?>
<!-- Generator: Adobe Illustrator 24.1.2, SVG Export Plug-In . SVG Version: 6.00 Build 0)  -->
<svg version="1.1" id="CDAI" xmlns="http://www.w3.org/2000/svg" xmlns:xlink="http://www.w3.org/1999/xlink" x="0px" y="0px"
	 viewBox="0 0 500 500" style="enable-background:new 0 0 500 500;" xml:space="preserve">
<style type="text/css">
	.st0{fill:#EDF0F2;}
	.st1{fill:url(#SVGID_1_);}
	.st2{fill:#FFFFFF;}
	.st3{fill:url(#SVGID_2_);}
</style>
<circle class="st0" cx="250" cy="250" r="250"/>
<linearGradient id="SVGID_1_" gradientUnits="userSpaceOnUse" x1="179.5323" y1="473.5034" x2="257.9208" y2="38.9039" gradientTransform="matrix(1 0 0 -1 0 501)">
	<stop  offset="0" style="stop-color:#27D3A2"/>
	<stop  offset="1" style="stop-color:#9388FD"/>
</linearGradient>
<path class="st1" d="M408.7,443.1c-38.2,31.4-84.9,50.7-134.1,55.6c-66,6.5-131.8-13.4-183.1-55.4S7.8,340.6,1.2,274.6
	c-4.9-49.2,4.9-98.7,28.2-142.4C52.7,88.7,88.4,52.9,132,29.6C175.6,6.3,225.2-3.6,274.4,1.2c49.2,4.8,95.9,24.1,134.1,55.5
	l-50.4,61.5c-26.1-21.4-57.9-34.5-91.4-37.8c-33.5-3.3-67.3,3.5-97,19.4c-29.7,15.9-54.1,40.3-69.9,70
	c-15.9,29.7-22.6,63.5-19.2,97.1c4.5,45,26.6,86.4,61.6,115s79.9,42.3,124.9,37.8c33.5-3.3,65.4-16.5,91.4-37.9L408.7,443.1z"/>
<path class="st2" d="M250,469.9c121.5,0,219.9-98.5,219.9-219.9c0-121.5-98.5-219.9-219.9-219.9C128.5,30.1,30.1,128.5,30.1,250
	C30.1,371.5,128.5,469.9,250,469.9z"/>
<linearGradient id="SVGID_2_" gradientUnits="userSpaceOnUse" x1="251.9808" y1="348.5002" x2="251.9808" y2="159.071" gradientTransform="matrix(1 0 0 -1 0 501)">
	<stop  offset="0" style="stop-color:#283947"/>
	<stop  offset="1" style="stop-color:#657786"/>
</linearGradient>
<path class="st3" d="M341,223.3h-19.1C311.4,194.1,283,174,245.7,174h-61.5v49.3h-21.3V241h21.3v18.6h-21.3v17.7h21.3V326h61.5
	c36.9,0,65.1-19.9,75.9-48.7H341v-17.7h-15.2c0.4-3.1,0.6-6.3,0.6-9.6v-0.4c0-2.9-0.2-5.8-0.4-8.5h15.1L341,223.3L341,223.3z
	 M201.4,189.8h44.3c27.4,0,47.8,13.5,57.2,33.5H201.4V189.8L201.4,189.8z M245.7,310.1h-44.3v-32.9h101.4
	C293.3,296.9,273,310.1,245.7,310.1z M308.6,250.4c0,3.1-0.2,6.2-0.6,9.1H201.4V241H308c0.4,2.9,0.6,5.9,0.6,9V250.4z"/>
</svg>
