<?xml version="1.0" encoding="utf-8"?>
<!-- Generator: Adobe Illustrator 23.0.3, SVG Export Plug-In . SVG Version: 6.00 Build 0)  -->
<svg version="1.1" id="cdt" xmlns="http://www.w3.org/2000/svg" xmlns:xlink="http://www.w3.org/1999/xlink" x="0px" y="0px"
	 viewBox="0 0 500 500" style="enable-background:new 0 0 500 500;" xml:space="preserve">
<style type="text/css">
	.st0{fill:#0380FF;}
</style>
<path class="st0" d="M235.2,485.5L50.5,374.6c-5-3-8.1-8.5-8.1-14.3V145.6l36,21.8V340c0,5.9,3.1,11.3,8.1,14.3L235,443.6
	L235.2,485.5z"/>
<path class="st0" d="M457.1,119.3L352.9,55.9l-35.5,20.5L424,141.3c6.4,3.9,10.3,10.9,10.3,18.4v119.9l36-20.2V142.9
	C470.4,133.3,465.3,124.3,457.1,119.3z"/>
<path class="st0" d="M434.4,338.1c0,6.4-3.4,12.4-8.9,15.7L304.3,426c-4.8,2.8-10.8-0.6-10.8-6.1V225.6l-165.9-97.2
	c-4.4-2.6-4.3-8.9,0-11.4l118.2-68.7c8-4.6,17.8-4.5,25.7,0.3l25.5,15.5l35.5-20.5L274.1,8c-9.2-5.6-20.6-5.7-29.9-0.3L46.4,122.6
	l211.1,123.6v249.6l203.9-121.5c5.5-3.3,8.9-9.3,8.9-15.7v-74l-36,19.3V338.1z"/>
</svg>
