<?xml version="1.0" encoding="utf-8"?>
<!-- Generator: Adobe Illustrator 26.0.3, SVG Export Plug-In . SVG Version: 6.00 Build 0)  -->
<svg version="1.1" id="celo" xmlns="http://www.w3.org/2000/svg" xmlns:xlink="http://www.w3.org/1999/xlink" x="0px" y="0px"
	 viewBox="0 0 500 500" style="enable-background:new 0 0 500 500;" xml:space="preserve">
<style type="text/css">
	.st0{fill:#35D07F;}
	.st1{fill:#FBCC5C;}
</style>
<path class="st0" d="M302.6,342.1c79.9,0,144.7-64.8,144.7-144.7S382.6,52.6,302.6,52.6s-144.7,64.8-144.7,144.7
	S222.7,342.1,302.6,342.1z M302.6,394.7c-109,0-197.4-88.4-197.4-197.4C105.3,88.4,193.6,0,302.6,0S500,88.4,500,197.4
	C500,306.4,411.6,394.7,302.6,394.7z"/>
<path class="st1" d="M197.4,447.4c79.9,0,144.7-64.8,144.7-144.7s-64.8-144.7-144.7-144.7S52.6,222.7,52.6,302.6
	S117.4,447.4,197.4,447.4z M197.4,500C88.4,500,0,411.6,0,302.6c0-109,88.4-197.4,197.4-197.4c109,0,197.4,88.4,197.4,197.4
	C394.7,411.6,306.4,500,197.4,500z"/>
</svg>
