<?xml version="1.0" encoding="utf-8"?>
<!-- Generator: Adobe Illustrator 23.0.3, SVG Export Plug-In . SVG Version: 6.00 Build 0)  -->
<svg version="1.1" id="celr" xmlns="http://www.w3.org/2000/svg" xmlns:xlink="http://www.w3.org/1999/xlink" x="0px" y="0px"
	 viewBox="0 0 500 500" style="enable-background:new 0 0 500 500;" xml:space="preserve">
<style type="text/css">
	.st0{fill-rule:evenodd;clip-rule:evenodd;}
</style>
<path id="Combined-Shape" class="st0" d="M460.1,232c4-10.8,20.5-15.9,30.5-15.9h4.5v24c-5.7,0-11.5-0.3-17,1.6
	c-3.8,1.2-7.2,3.5-9.7,6.6c-4.7,6.3-4.3,10.1-4.6,16c-0.3,5.7-0.2,9.6-0.2,15.4v42.5h-26.2v-105h22.7L460.1,232z M141.5,297.2
	c-18.8,18.4-35,27.3-61.6,27.3c-44.4,0-75.1-31-75.1-74.7c0-44.8,34.8-74.3,75.5-74.3c23.8,0,46.3,10.4,61.8,28.4l-19,18.2
	c-12.8-13.6-26.9-20.7-43.5-20.7c-26.6,0-48.4,20.5-48.4,48.4c0,29.2,20.9,48.8,49,48.8c17.6,0,29.4-7.1,42.9-20.5L141.5,297.2z
	 M253.9,301.1c-11.3,16-26.1,23.2-48.2,23.2c-33.4,0-54.9-24.5-54.9-55.3c0-28.6,20.7-55.1,54.5-55.1c33.2,0,55.7,23.7,55.7,56.9
	c0,2.4-0.2,3.6-0.2,5.9h-84.5c2.6,15.6,14.4,24.3,29.4,24.3c11.3,0,18.8-3.2,26.1-10.3L253.9,301.1z M234.6,255.9
	c-3.6-12.2-14.8-19.8-28.9-19.8c-13,0-23.1,6.5-28.2,19.8H234.6z M274.4,176.1h26.3v145.5h-26.3V176.1z M417,301.1
	c-11.3,16-26.1,23.2-48.2,23.2c-33.4,0-54.9-24.5-54.9-55.3c0-28.6,20.7-55.1,54.5-55.1c33.2,0,55.7,23.7,55.7,56.9
	c0,2.4-0.2,3.6-0.2,5.9h-84.5c2.6,15.6,14.4,24.3,29.4,24.3c11.3,0,18.8-3.2,26.1-10.3L417,301.1z M397.7,255.9
	c-3.6-12.2-14.8-19.8-28.9-19.8c-13,0-23.1,6.5-28.2,19.8H397.7z"/>
</svg>
