<?xml version="1.0" encoding="utf-8"?>
<!-- Generator: Adobe Illustrator 23.0.2, SVG Export Plug-In . SVG Version: 6.00 Build 0)  -->
<svg version="1.1" id="cennz" xmlns="http://www.w3.org/2000/svg" xmlns:xlink="http://www.w3.org/1999/xlink" x="0px" y="0px"
	 viewBox="0 0 500 500" style="enable-background:new 0 0 500 500;" xml:space="preserve">
<style type="text/css">
	.st0{fill:#102FFF;}
</style>
<path class="st0" d="M266.6,497.3c-6.8,0-13.6-0.6-20.4-1.9l-109.3-20.8c-49.5-9.4-85.4-52.8-85.4-103.2V170.7
	c0-32.7,14.4-63.4,39.6-84.3c13.6-11.3,29.6-19,46.4-22.7c6.5-14.2,16.1-26.9,28.5-37.2c24.1-20,55.7-28.2,86.5-22.4l107.3,20.2
	c49.6,9.3,85.6,52.7,85.6,103.2v51.5c0,5.9-2.7,11.6-7.3,15.3l-71.6,57.9c-5.9,4.8-14,5.7-20.8,2.5c-6.8-3.3-11.2-10.2-11.2-17.7
	v-49.2c0-32.3-23.1-60.2-54.9-66.1l-105.7-19.9c-2.1-0.4-4.2-0.7-6.3-0.9c-0.2,2.2-0.3,4.4-0.3,6.6v206.1
	c0,31.5,22.5,58.7,53.4,64.5l99.4,18.9c5,0.9,10,1.4,14.9,1.3c0.4-3.1,0.6-6.3,0.6-9.5v-69.2c0-5.8,2.6-11.3,7-15l72.4-60.9
	c5.9-4.9,14-6,21-2.8c6.9,3.2,11.4,10.2,11.4,17.8v65.5c0,33.9-15,65.8-41.1,87.4c-12.1,10-26,17.3-40.7,21.6
	c-6.7,15-16.9,28.5-29.9,39.3C316,488.7,291.6,497.3,266.6,497.3z M128,108.8c-4.2,2.2-8.1,4.9-11.8,7.9c-16.1,13.4-25.4,33-25.4,54
	v200.7c0,31.5,22.5,58.7,53.4,64.5l109.3,20.8c20.3,3.9,41.1-1.5,57.1-14.7c2.2-1.8,4.3-3.8,6.2-5.8c-1.4-0.2-2.7-0.4-4.1-0.7
	l-99.4-18.9c-49.5-9.4-85.4-52.8-85.4-103.2V108.8z M375,328.8v57.1c2.1-1.4,4.2-2.9,6.2-4.6c17.1-14.1,26.8-34.9,26.8-57.1V301
	L375,328.8z M184,63.7L286.9,83c50.4,9.5,86.9,53.5,86.9,104.8v8l32.2-26.1v-42.1c0-31.6-22.5-58.7-53.6-64.6L245.1,42.9
	c-19.3-3.6-39,1.5-54.1,14C188.5,59,186.2,61.2,184,63.7z"/>
</svg>
