<?xml version="1.0" encoding="iso-8859-1"?>
<!-- Generator: Adobe Illustrator 19.0.0, SVG Export Plug-In . SVG Version: 6.00 Build 0)  -->
<svg version="1.1" id="Layer_1" xmlns="http://www.w3.org/2000/svg" xmlns:xlink="http://www.w3.org/1999/xlink" x="0px" y="0px"
	 viewBox="0 0 500 500" style="enable-background:new 0 0 500 500;" xml:space="preserve">
<g>
	<linearGradient id="SVGID_1_" gradientUnits="userSpaceOnUse" x1="248.7852" y1="6.9844" x2="250.7852" y2="490.9843">
		<stop  offset="0" style="stop-color:#1BD1FE"/>
		<stop  offset="0.999" style="stop-color:#1D6DF2"/>
	</linearGradient>
	<path style="fill:url(#SVGID_1_);" d="M4.225,248.52C3.66,115.235,113.698,4.592,246.391,3.017
		c134.502-1.596,247.57,106.635,248.937,242.523c1.384,137.53-108.463,249.066-246.518,248.589
		C112.148,493.657,4.094,382.496,4.225,248.52z M180.494,346.937c5.563,3.234,9.151,0.782,12.667-1.494
		c4.577-2.964,9.298-5.789,13.503-9.229c7.564-6.187,15.492-7.646,25.467-6.789c31.652,2.721,60.643-5.518,86.038-25.096
		c49.711-38.326,49.342-107.814-0.748-145.71c-39.387-29.798-93.979-33.901-136.194-8.635
		c-32.751,19.601-52.861,47.873-50.163,87.872c1.952,28.934,16.381,51.628,39.577,68.53c6.162,4.49,8.535,9.282,8.322,16.736
		C178.738,330.955,177.388,339.038,180.494,346.937z M334.076,364.601c5.492-4.103,5.564-7.63,5.074-10.886
		c-1.423-9.456,2.844-15.302,10.088-21.095c9.249-7.397,15.875-17.437,18.387-29.319c3.478-16.449,2.323-32.02-10.904-46.227
		c-4.728,9.201-7.958,16.272-5.691,25.957c3.639,15.548-2.045,29.029-14.415,39.101c-5.792,4.716-11.437,9.295-13.884,16.731
		c-5.423-2.183-9.616-4.723-15.096-4.041c-10.459,1.3-20.697,0.25-31.014-2.87c-7.675-2.321-16.088-2.088-23.5,4.726
		c10.695,9.161,22.565,13.036,35.138,14.156C304.728,352.3,321.878,350.462,334.076,364.601z"/>
	<path style="fill:#FFFFFF;" d="M180.494,346.937c-3.106-7.899-1.756-15.981-1.532-23.815c0.213-7.454-2.16-12.246-8.322-16.736
		c-23.197-16.902-37.626-39.595-39.577-68.53c-2.698-39.999,17.413-68.27,50.163-87.872c42.215-25.266,96.807-21.163,136.194,8.635
		c50.09,37.895,50.459,107.384,0.748,145.71c-25.395,19.579-54.385,27.817-86.038,25.096c-9.975-0.857-17.903,0.601-25.467,6.789
		c-4.205,3.44-8.925,6.265-13.503,9.229C189.645,347.719,186.057,350.171,180.494,346.937z M194.804,320.913
		c4.729-1.391,6.74-1.383,7.779-2.383c8.121-7.814,17.546-7.808,28.066-6.539c22.157,2.673,43.311-1.411,63.305-11.741
		c54.806-28.314,59.983-95.659,9.072-130.151c-36.153-24.494-75.177-25.584-113.138-4.911
		c-52.622,28.657-57.251,92.546-10.018,127.417C189.333,299.592,198.974,305.25,194.804,320.913z"/>
	<path style="fill:#FFFFFF;" d="M334.076,364.601c-12.198-14.139-29.349-12.3-45.818-13.768
		c-12.573-1.12-24.443-4.995-35.138-14.156c7.412-6.813,15.825-7.047,23.5-4.726c10.317,3.12,20.556,4.171,31.014,2.87
		c5.48-0.681,9.673,1.858,15.096,4.041c2.447-7.435,8.092-12.015,13.884-16.731c12.371-10.072,18.055-23.553,14.415-39.101
		c-2.267-9.685,0.963-16.756,5.691-25.957c13.226,14.207,14.382,29.777,10.904,46.227c-2.512,11.882-9.138,21.923-18.387,29.319
		c-7.244,5.792-11.511,11.638-10.088,21.095C339.641,356.971,339.569,360.498,334.076,364.601z"/>
	<linearGradient id="SVGID_2_" gradientUnits="userSpaceOnUse" x1="240.4652" y1="5.0867" x2="245.4652" y2="497.0867">
		<stop  offset="0" style="stop-color:#1BD1FE"/>
		<stop  offset="0.999" style="stop-color:#1D6DF2"/>
	</linearGradient>
	<path style="fill:url(#SVGID_2_);" d="M194.804,320.913c4.17-15.664-5.471-21.321-14.934-28.307
		c-47.233-34.871-42.604-98.761,10.018-127.417c37.961-20.673,76.985-19.583,113.138,4.911
		c50.911,34.492,45.734,101.838-9.072,130.151c-19.994,10.329-41.148,14.414-63.305,11.741c-10.52-1.269-19.945-1.275-28.066,6.539
		C201.543,319.53,199.533,319.522,194.804,320.913z M306.568,233.77c-0.311-6.968-6.105-12.509-13.102-12.529
		c-7.426-0.022-13.688,6.185-13.626,13.507c0.06,7.126,6.845,13.672,13.866,13.377C300.804,247.826,306.892,241.032,306.568,233.77z
		 M206.115,233.915c-0.294-7.123-5.962-12.722-12.95-12.791c-7.17-0.071-13.857,6.464-13.863,13.55
		c-0.006,7.01,6.919,13.759,13.886,13.534C200.376,247.975,206.419,241.292,206.115,233.915z M257.18,234.586
		c0.055-7.514-6.126-13.752-13.448-13.571c-7.119,0.176-12.689,5.627-12.976,12.7c-0.303,7.454,5.649,14.127,12.779,14.327
		C250.824,248.245,257.125,242.032,257.18,234.586z"/>
	<path style="fill:#FFFFFF;" d="M306.568,233.77c0.324,7.262-5.764,14.056-12.862,14.354c-7.021,0.295-13.806-6.251-13.866-13.377
		c-0.062-7.321,6.2-13.528,13.626-13.507C300.463,221.261,306.258,226.803,306.568,233.77z"/>
	<path style="fill:#FFFFFF;" d="M206.115,233.915c0.304,7.377-5.739,14.06-12.926,14.292c-6.968,0.225-13.892-6.523-13.886-13.534
		c0.006-7.085,6.692-13.621,13.863-13.55C200.152,221.193,205.821,226.792,206.115,233.915z"/>
	<path style="fill:#FFFFFF;" d="M257.18,234.586c-0.055,7.446-6.356,13.66-13.645,13.456c-7.129-0.199-13.082-6.872-12.779-14.327
		c0.287-7.073,5.857-12.524,12.976-12.7C251.054,220.834,257.236,227.072,257.18,234.586z"/>
</g>
</svg>
