<svg width="24" height="24" viewBox="0 0 24 24" fill="currentColor" xmlns="http://www.w3.org/2000/svg">
<path fill-rule="evenodd" clip-rule="evenodd" d="M19.3636 12C19.3636 7.93318 16.0668 4.63636 12 4.63636C7.93318 4.63636 4.63636 7.93318 4.63636 12C4.63636 16.0668 7.93318 19.3636 12 19.3636C16.0668 19.3636 19.3636 16.0668 19.3636 12ZM12 3C16.9706 3 21 7.02944 21 12C21 16.9706 16.9706 21 12 21C7.02944 21 3 16.9706 3 12C3 7.02944 7.02944 3 12 3Z" />
<path fill-rule="evenodd" clip-rule="evenodd" d="M15.8731 9C16.2205 9.34666 16.2205 9.90871 15.8731 10.2554L11.3731 14.746C11.2063 14.9125 10.98 15.006 10.7441 15.006C10.5082 15.006 10.2819 14.9125 10.1151 14.746L8.12675 12.7618C7.77936 12.4151 7.77936 11.8531 8.12675 11.5064C8.47413 11.1597 9.03736 11.1597 9.38474 11.5064L10.7441 12.863L14.6151 9C14.9625 8.65334 15.5257 8.65334 15.8731 9Z" />
</svg>
