<svg width="24" height="24" viewBox="0 0 24 24" fill="currentColor" xmlns="http://www.w3.org/2000/svg">
<path d="M18.975 13.5981C18.585 13.5981 18.275 13.9081 18.275 14.2981V17.1581H5.72495V14.2981C5.72495 13.9081 5.41495 13.5981 5.02495 13.5981C4.63495 13.5981 4.32495 13.9081 4.32495 14.2981V18.5581H19.675V14.2981C19.675 13.9081 19.365 13.5981 18.975 13.5981Z" />
<path d="M17.755 3.19828H6.245C3.615 3.18828 1.495 5.30828 1.495 7.93828V10.5783V21.4583H22.505V10.5883V7.94828C22.505 5.31828 20.385 3.19828 17.755 3.19828ZM2.895 7.93828C2.895 6.08828 4.395 4.58828 6.245 4.59828H17.755C19.605 4.59828 21.105 6.09828 21.105 7.94828V9.97828L15.215 10.7983C14.865 9.46828 13.665 8.49828 12.235 8.49828H11.775C10.345 8.49828 9.145 9.47828 8.795 10.7883L2.895 9.96828V7.93828ZM10.645 13.8883C10.645 13.8883 10.625 13.8883 10.625 13.8783C10.295 13.5983 10.095 13.1883 10.095 12.7383V11.5983C10.095 10.6683 10.845 9.91828 11.775 9.91828H12.235C13.125 9.91828 13.865 10.6183 13.915 11.5083C13.915 11.5283 13.915 11.5483 13.915 11.5683C13.915 11.5783 13.915 11.5883 13.915 11.6083V12.7483C13.915 13.2183 13.705 13.6283 13.365 13.9083C13.095 14.1383 12.755 14.2683 12.385 14.2683H11.635C11.265 14.2683 10.935 14.1383 10.655 13.9083L10.645 13.8883ZM2.895 20.0683V11.3783L8.69499 12.1883V12.7283C8.69499 13.6283 9.105 14.4283 9.745 14.9683C9.765 14.9883 9.785 14.9883 9.805 14.9983C10.305 15.3983 10.925 15.6483 11.625 15.6483H12.375C13.105 15.6483 13.745 15.3783 14.255 14.9583C14.895 14.4283 15.295 13.6383 15.295 12.7283V12.2083L21.095 11.3983V20.0783H2.895V20.0683Z"/>
</svg>
