<svg aria-hidden="true" data-testid="test-icon" fill="currentColor" viewBox="0 0 24 24" xmlns="http://www.w3.org/2000/svg"><path d="M17.882 11.735a.357.357 0 010 .53l-4.63 4.618c-.126.156-.378.156-.536 0l-.598-.624c-.157-.125-.157-.374 0-.53l3.717-3.713-3.717-3.745a.357.357 0 010-.53l.598-.624c.158-.156.41-.156.536 0l4.63 4.618z"/><path d="M11.882 11.735a.357.357 0 010 .53l-4.63 4.618c-.126.156-.378.156-.535 0l-.599-.624c-.157-.125-.157-.374 0-.53l3.717-3.713L6.118 8.27a.357.357 0 010-.53l.599-.624c.157-.156.409-.156.535 0l4.63 4.618z"/></svg>