<?xml version="1.0" encoding="utf-8"?>
<!-- Generator: Adobe Illustrator 23.0.3, SVG Export Plug-In . SVG Version: 6.00 Build 0)  -->
<svg version="1.1" id="chsb" xmlns="http://www.w3.org/2000/svg" xmlns:xlink="http://www.w3.org/1999/xlink" x="0px" y="0px"
	 viewBox="0 0 500 500" style="enable-background:new 0 0 500 500;" xml:space="preserve">
<style type="text/css">
	.st0{fill:url(#Shape_1_);}
</style>
<linearGradient id="Shape_1_" gradientUnits="userSpaceOnUse" x1="-370.7497" y1="754.5413" x2="-370.7497" y2="741.1503" gradientTransform="matrix(35 0 0 -34.287 13226 25900.6094)">
	<stop  offset="0" style="stop-color:#01C38C"/>
	<stop  offset="1" style="stop-color:#23A185"/>
</linearGradient>
<path id="Shape" class="st0" d="M308.6,8l-40.5,22.5v191.1l22.1,12.3V88.3l75.8,42.2l0.1,0l14.7,8.2l12.3-6.8v-11.5L290.2,63.2V43.3
	l18.4-10.2l106.6,59.3v52.8L364,173.5l-1.7-0.8c-3.1-1.5-6.3-2.3-9.6-2.3c-12.2,0-22.1,9.8-22.1,21.9c0,12.1,9.9,21.9,22.1,21.9
	c11.3,0,20.7-8.5,21.9-19.7l0.2-1.9l51.6-28.6l47.9,26.6v117.9l-48,26.6L231.4,226.8V30.5L191,8L62.3,79.5v65.3L3.2,177.7v143.6
	l59.1,32.9v65.4L191,491.1l40.5-22.5V277.2l-22.1-12.3v145.9l-90.6-50.3l-12.3,6.8v11.5l102.9,57.2v19.9L191,466L84.4,406.7v-52.8
	l51.2-28.3l1.7,0.8c3.1,1.5,6.3,2.3,9.6,2.3c12.2,0,22.1-9.8,22.1-21.9c0-12.1-9.9-21.9-22.1-21.9c-11.3,0-20.7,8.5-21.8,19.7
	l-0.2,1.9l-51.7,28.6l-47.9-26.6V190.5l48-26.6l194.9,108.4v196.3l40.5,22.5l128.7-71.6v-65.3l59.1-32.8V177.9L437.3,145V79.5
	L308.6,8z M84.4,92.4L191,33.1l18.4,10.2v19.9l-125,69.4V92.4z M95.8,151.4l113.5-63v126.2L95.8,151.4z M290.2,284.6l113.5,63.1
	l-113.5,63V284.6z M290.2,455.8v-19.9l125-69.4v40.2L308.6,466L290.2,455.8z"/>
</svg>
