<?xml version="1.0" encoding="utf-8"?>
<!-- Generator: Adobe Illustrator 24.1.0, SVG Export Plug-In . SVG Version: 6.00 Build 0)  -->
<svg version="1.1" id="CHZ" xmlns="http://www.w3.org/2000/svg" xmlns:xlink="http://www.w3.org/1999/xlink" x="0px" y="0px"
	 viewBox="0 0 500 500" style="enable-background:new 0 0 500 500;" xml:space="preserve">
<style type="text/css">
	.st0{fill:#B02728;}
</style>
<path class="st0" d="M447.9,1c-14,0-25.9,8.8-30.6,21.2H82.7C78.1,9.8,66.1,1,52.1,1C34,1,19.4,15.6,19.4,33.7
	c0,18.1,14.7,32.7,32.7,32.7c1,0,2-0.1,3-0.1l75.7,156.6c-5.8,5.9-9.3,14-9.3,22.9c0,18.1,14.7,32.7,32.7,32.7
	c1.1,0,2.3-0.1,3.4-0.2l80,165.4c-5.6,5.9-9,13.8-9,22.6c0,18.1,14.7,32.7,32.7,32.7c18.1,0,32.7-14.7,32.7-32.7
	c0-9.3-3.9-17.7-10.1-23.6l70.3-164.4c16.5-1.6,29.5-15.6,29.5-32.6c0-7.6-2.6-14.5-6.9-20.1l68.2-159.3c1,0.1,2,0.1,3,0.1
	c18.1,0,32.7-14.7,32.7-32.7C480.6,15.6,466,1,447.9,1z M350.9,213c-5.1,0-9.9,1.2-14.2,3.3l-63.1-43.6L419.4,67.4l-62.6,146.2
	C354.9,213.2,353,213,350.9,213z M171.6,218c-5-3.2-11-5-17.4-5c-0.9,0-1.7,0.1-2.5,0.1L81.5,68l152.3,105.2L171.6,218z M89.1,45.2
	h321.7L253.5,158.8L89.1,45.2z M261.2,433.5c-1,0-2,0.1-3,0.1L178.1,268c5.4-5.8,8.8-13.6,8.8-22.2c0-3.3-0.5-6.4-1.4-9.4l68.3-49.4
	l66.9,46.2c-1.6,3.9-2.5,8.1-2.5,12.5c0,10.9,5.4,20.5,13.6,26.5l-69.1,161.4C262.2,433.6,261.7,433.5,261.2,433.5z"/>
</svg>
