<?xml version="1.0" encoding="utf-8"?>
<!-- Generator: Adobe Illustrator 23.0.3, SVG Export Plug-In . SVG Version: 6.00 Build 0)  -->
<svg version="1.1" id="clo" xmlns="http://www.w3.org/2000/svg" xmlns:xlink="http://www.w3.org/1999/xlink" x="0px" y="0px"
	 viewBox="0 0 500 500" style="enable-background:new 0 0 500 500;" xml:space="preserve">
<style type="text/css">
	.st0{fill:#34C88A;}
	.st1{fill:#163F59;}
</style>
<path class="st0" d="M35.1,32.3L35.1,32.3l0,188.2c0,6.4,5.1,11.6,11.5,11.6l84.2-0.4c8.8,0,14.2-9.7,9.8-17.4l-10.9-19.2l0,0
	c-4.7-8.3-15.2-11.2-23.4-6.4l0,0l-1.2,0.7l0,0c-8.1,4.7-18.4,1.9-23.1-6.3c-2.4-4.3-2.9-9.4-1.4-14.1l0,0l17.5-53.3l0,0
	c2.7-8.3,11.2-13.3,19.6-11.5l0,0l54.2,11.2l0,0c4.7,1,8.8,4,11.3,8.3c4.7,8.2,1.9,18.7-6.2,23.5l0,0l-1.2,0.7l0,0
	c-8.2,4.8-11,15.4-6.3,23.8l0,0l10.7,18.9c4.4,7.7,15.3,7.7,19.7,0l42.1-73.4c3.2-5.6,1.3-12.7-4.1-15.9L77.8,7.2l0,0
	C58.8-4,35.1,10,35.1,32.3z"/>
<path class="st0" d="M448.7,225.2L448.7,225.2L288.5,131c-5.5-3.2-12.5-1.3-15.6,4.3l-41.8,74.4c-4.3,7.7,1.1,17.4,9.9,17.4h27.5
	c6.3,0,11.4-5.2,11.4-11.6v-12.8c0-6.4,5.1-11.6,11.4-11.6h8c3.3,0,6.4,1.4,8.5,3.9l41.6,47.8c3.8,4.4,3.8,11,0,15.4l-41.6,47.9
	c-2.2,2.5-5.3,3.9-8.5,3.9h-8c-6.3,0-11.4-5.2-11.4-11.6v-12.8c0-6.4-5.1-11.6-11.4-11.6h-27.2c-8.8,0-14.2,9.6-9.9,17.4l41.4,73.8
	c3.1,5.6,10.1,7.5,15.6,4.3l160.2-94.1l0,0C467.7,264.2,467.7,236.3,448.7,225.2z"/>
<path class="st1" d="M77.8,493L77.8,493l160.2-94.1c5.5-3.2,7.3-10.3,4.1-15.9l-42.4-74c-4.4-7.7-15.3-7.7-19.7,0l-13.8,24.3
	c-3.1,5.5-1.3,12.6,4.2,15.8l10.9,6.4c5.5,3.2,7.3,10.3,4.2,15.8l-4,7c-1.6,2.9-4.4,4.9-7.6,5.6l-61.5,12.8
	c-5.6,1.2-11.3-2.1-13.1-7.7l-19.9-60.6c-1-3.2-0.7-6.6,0.9-9.5l4-7c3.1-5.5,10.1-7.5,15.6-4.2l10.9,6.4c5.5,3.2,12.4,1.3,15.6-4.2
	l13.6-24c4.4-7.7-1.1-17.4-9.8-17.4l-83.5-0.4c-6.3,0-11.5,5.2-11.5,11.6l0,188.2l0,0C35,490.3,58.8,504.2,77.8,493z"/>
</svg>
