<?xml version="1.0" encoding="iso-8859-1"?>
<!-- Generator: Adobe Illustrator 19.0.0, SVG Export Plug-In . SVG Version: 6.00 Build 0)  -->
<svg version="1.1" id="Layer_1" xmlns="http://www.w3.org/2000/svg" xmlns:xlink="http://www.w3.org/1999/xlink" x="0px" y="0px"
	 viewBox="1000 -1000 2500 2500" style="enable-background:new 1000 -1000 2500 2500;" xml:space="preserve">
<g>
	<path style="fill:#F13D20;" d="M2250-974.172c-675.008,0-1224.172,549.163-1224.172,1224.172S1574.992,1474.172,2250,1474.172
		S3474.172,925.008,3474.172,250S2924.996-974.172,2250-974.172z M2250,1282.221c-569.166,0-1032.221-463.055-1032.221-1032.209
		S1680.846-782.221,2250-782.221S3282.221-319.166,3282.221,250S2819.24,1282.221,2250,1282.221L2250,1282.221z"/>
	<path style="fill:#F13D20;" d="M2250-299.518c-303.007,0-549.518,246.511-549.518,549.531c0,164.039,72.3,311.356,186.613,412.117
		c57.076-29.593,117.704-51.763,180.406-65.971c-124.143-65.738-208.942-196.186-208.942-346.134
		c0-215.846,175.607-391.441,391.441-391.441S2641.441,34.166,2641.441,250c0,149.961-84.786,280.409-208.942,346.135
		c62.702,14.209,123.329,36.379,180.406,65.971C2727.207,561.368,2799.531,414.039,2799.531,250
		c0-303.019-246.523-549.531-549.531-549.531"/>
	<path style="fill:#F13D20;" d="M2250-649.534c-496.022,0-899.558,403.511-899.558,899.546c0,256.745,108.29,488.53,281.388,652.569
		c28.915-51.991,67.085-99.733,112.979-141.698C1612.978,630.485,1531.105,449.65,1531.105,250
		c0-396.399,322.496-718.895,718.895-718.895S2968.883-146.399,2968.883,250c0,199.638-81.873,380.472-213.728,510.883
		c45.906,41.965,84.089,89.707,113.016,141.698c173.086-164.039,281.376-395.824,281.376-652.569
		C3149.533-246.022,2745.998-649.533,2250-649.534"/>
</g>
</svg>
