<?xml version="1.0" encoding="utf-8"?>
<!-- Generator: Adobe Illustrator 25.4.1, SVG Export Plug-In . SVG Version: 6.00 Build 0)  -->
<svg version="1.1" baseProfile="tiny" id="clout" xmlns="http://www.w3.org/2000/svg" xmlns:xlink="http://www.w3.org/1999/xlink"
	 x="0px" y="0px" viewBox="0 0 500 500" overflow="visible" xml:space="preserve">
<g>
	<path fill="#FFFFFF" d="M257.8,481.9l153.8-194.3c2.5-3.1,0.2-7.8-3.8-7.8H89.7c-4.1,0-6.3,4.8-3.7,7.9L250.3,482
		C252.3,484.3,255.9,484.3,257.8,481.9z"/>
	<path d="M254,493.3c-4.2,0-8.2-1.8-11-5.1L78.7,294c-3.7-4.3-4.5-10.2-2.1-15.4c2.4-5.1,7.4-8.3,13.1-8.3h318.1
		c5.6,0,10.5,3.1,13,8.1c2.4,5,1.8,10.8-1.7,15.2L265.3,487.9c-2.7,3.4-6.7,5.4-11.1,5.5C254.2,493.3,254.1,493.3,254,493.3z
		 M250.2,475.9C250.2,475.9,250.2,475.9,250.2,475.9L250.2,475.9z M100,289.5l153.8,181.9l144-181.9H100z"/>
</g>
<g>
	<path fill="#FFFFFF" d="M409.6,270.9l-156-74.3c-2.7-1.3-5.9-1.2-8.6,0.1L91.5,276.5c-6.7,3.5-6.9,13-0.4,16.8l153.3,90.3
		c3.1,1.8,6.9,1.8,9.9-0.1l156.3-95.7C417,283.8,416.5,274.2,409.6,270.9z"/>
	<path d="M249.2,394.5c-3.4,0-6.7-0.9-9.7-2.7L86.2,301.6c-6-3.5-9.6-10.1-9.5-17.1c0.2-7,4.1-13.3,10.3-16.5l153.6-79.8
		c5.3-2.8,11.7-2.9,17.1-0.3l156,74.3c6.4,3,10.5,9.3,10.9,16.3c0.4,7-3.1,13.7-9.1,17.4l-156.3,95.7
		C256.2,393.5,252.7,394.5,249.2,394.5z M249.5,205.2L95.9,285l153.3,90.3l156.3-95.7l4.1-8.7l-4.1,8.7L249.5,205.2z"/>
</g>
<g>
	<path fill="#FFFFFF" d="M257.8,301.8l153.8-194.3c2.5-3.1,0.2-7.8-3.8-7.8H89.7c-4.1,0-6.3,4.8-3.7,7.9L250.3,302
		C252.3,304.3,255.9,304.2,257.8,301.8z"/>
	<path d="M254,313.3c-4.2,0-8.2-1.9-11-5.1L78.7,113.9c-3.7-4.3-4.5-10.2-2.1-15.4c2.4-5.1,7.4-8.3,13.1-8.3h318.1
		c5.6,0,10.5,3.1,13,8.1c2.4,5,1.8,10.8-1.7,15.2L265.3,307.8c-2.7,3.4-6.7,5.4-11.1,5.5C254.2,313.3,254.1,313.3,254,313.3z
		 M100,109.4l153.8,181.9l144-181.9H100z"/>
</g>
<g>
	<path fill="#FFFFFF" d="M409.6,90.8l-156-74.3c-2.7-1.3-5.9-1.2-8.6,0.1L91.5,96.5c-6.7,3.5-6.9,13-0.4,16.8l153.3,90.3
		c3.1,1.8,6.9,1.8,9.9-0.1l156.3-95.7C417,103.7,416.5,94.1,409.6,90.8z"/>
	<path d="M249.2,214.4c-3.4,0-6.7-0.9-9.7-2.7L86.2,121.5c-6-3.5-9.6-10.1-9.5-17.1c0.2-7,4.1-13.3,10.3-16.5L240.7,8.1
		c5.3-2.8,11.7-2.9,17.1-0.3l156,74.3c6.4,3,10.5,9.3,10.9,16.3c0.4,7-3.1,13.7-9.1,17.4l-156.3,95.7
		C256.2,213.5,252.7,214.4,249.2,214.4z M249.5,25.2L95.9,105l153.3,90.3l156.3-95.7l4.1-8.7l-4.1,8.7L249.5,25.2z"/>
</g>
</svg>
