<?xml version="1.0" encoding="iso-8859-1"?>
<!-- Generator: Adobe Illustrator 19.0.0, SVG Export Plug-In . SVG Version: 6.00 Build 0)  -->
<svg version="1.1" id="Layer_1" xmlns="http://www.w3.org/2000/svg" xmlns:xlink="http://www.w3.org/1999/xlink" x="0px" y="0px"
	 viewBox="0 0 500 500" style="enable-background:new 0 0 500 500;" xml:space="preserve">
<g>
	<linearGradient id="SVGID_1_" gradientUnits="userSpaceOnUse" x1="430.0211" y1="260.7685" x2="189.8076" y2="232.5081">
		<stop  offset="4.783163e-04" style="stop-color:#441FC0"/>
		<stop  offset="0.5198" style="stop-color:#2773C8"/>
		<stop  offset="1" style="stop-color:#93E9FC"/>
	</linearGradient>
	<path style="fill:url(#SVGID_1_);" d="M413.792,120.198c-2.323-1.76-1.689-1.302-4.384-3.106c0,0,6.68,8.534,9.641,13.178
		c8.514,13.352,7.454,27.649-3.006,35.924c-10.714,8.475-27.219,5.854-37.289-6.018c-4.149-4.892-7.813-10.223-12.208-14.872
		c-24.912-26.354-55.006-42.126-91.371-46.785c-62.723-8.036-110.59,16.234-147.183,65.749
		c-18.079,24.463-26.81,53.529-27.125,82.744c-0.424,39.425,12.261,76.09,37.976,107.628c5.252,6.441,10.744,12.372,16.448,17.851
		c-40.8-64.522-51.848-166.012,25.583-208.523c0.952-0.317,1.903-0.502,2.854-0.628c25.45-21.344,57.039-30.878,92.012-22.078
		c27.622,6.951,52.477,18.72,69.059,43.71c13.709,20.661,33.46,30.259,58.211,28.57c6.073-0.414,11.722-1.412,16.98-2.871
		C450.244,188.097,442.791,143.397,413.792,120.198z"/>
	<linearGradient id="SVGID_2_" gradientUnits="userSpaceOnUse" x1="501.6788" y1="247.2682" x2="374.5069" y2="418.597">
		<stop  offset="4.783163e-04" style="stop-color:#7446CB"/>
		<stop  offset="0.5198" style="stop-color:#9C4DC2"/>
		<stop  offset="0.9995" style="stop-color:#6377F0"/>
	</linearGradient>
	<path style="fill:url(#SVGID_2_);" d="M491.14,299.125c-1.826-14.19-4.177-28.928-15.189-38.69
		c-31.002-7.255-64.94,14.9-68.318,46.604c3.877-15.383,16.417-22.578,32.602-18.004c9.676,2.734,15.292,17.304,10.363,29.253
		c-10.163,24.642-27.063,43.318-52.052,56.61c-7.38,19.136-13.144,39.983-24.639,56.825c4.232-3.952,8.831-6.426,13.863-7.78
		c24.663-6.636,45.808-18.771,64.232-36.305C477.381,363.484,495.915,336.25,491.14,299.125z"/>
	<linearGradient id="SVGID_3_" gradientUnits="userSpaceOnUse" x1="470.473" y1="201.2016" x2="-17.0192" y2="250.6573">
		<stop  offset="4.783163e-04" style="stop-color:#B17DFF"/>
		<stop  offset="0.3166" style="stop-color:#5491EC"/>
		<stop  offset="0.6716" style="stop-color:#92F7FD"/>
		<stop  offset="1" style="stop-color:#7FDDFB"/>
	</linearGradient>
	<path style="fill:url(#SVGID_3_);" d="M460.672,118.741c-11.689-27.375-34.286-45.086-56.51-63.236
		C362.473,21.456,313.544,6.988,261.107,4.117c-18.799-1.029-38.103,3.169-56.886,6.581
		C138.403,22.655,87.759,59.003,51.015,113.334C16.885,163.797,2.905,219.843,11.3,281.722
		c4.586,33.798,14.649,64.861,31.021,92.877c42.598,45.222,100.55,76.252,162.236,73.338c-27.731-5.905-53.649-18.419-77.563-38.055
		c-40.572-33.315-65.123-75.021-73.233-127.264c-9.694-62.443,5.439-116.929,46.465-164.867
		c44.256-51.713,100.932-74.517,167.851-71.499c34.661,1.563,67.836,11.747,96.623,31.739
		c16.302,11.321,31.981,23.706,44.708,39.101c0,0,1.69,0.939,4.384,3.106c28.998,23.199,36.451,67.899,6.199,90.474
		C461.45,199.172,477.167,157.373,460.672,118.741z"/>
	<linearGradient id="SVGID_4_" gradientUnits="userSpaceOnUse" x1="326.5614" y1="454.6947" x2="61.0348" y2="393.3095">
		<stop  offset="4.783163e-04" style="stop-color:#003985"/>
		<stop  offset="0.5198" style="stop-color:#5DBFF6"/>
		<stop  offset="1" style="stop-color:#0BA0B7"/>
	</linearGradient>
	<path style="fill:url(#SVGID_4_);" d="M42.321,374.599c6.925,11.85,14.956,23.166,24.215,33.896
		c48.23,55.889,108.491,88.335,184.489,85.086c3.449-0.147,6.857-0.387,10.23-0.701c43.151-14.436,74.672-53.698,87.921-97.83
		c-9.829,19.021-22.659,36.881-43.508,41.874c0.068,0.625,0.136,1.251,0.204,1.876c-12.445,4.008-24.639,10.156-37.379,11.649
		c-17.764,2.081-34.947,2.002-51.518-0.319c-4.179-0.585-8.318-1.32-12.419-2.193C142.871,450.851,84.919,419.821,42.321,374.599z"
		/>
	<linearGradient id="SVGID_5_" gradientUnits="userSpaceOnUse" x1="261.2555" y1="369.7481" x2="475.9506" y2="369.7481">
		<stop  offset="4.783163e-04" style="stop-color:#B77FFF"/>
		<stop  offset="0.5198" style="stop-color:#648DFA"/>
		<stop  offset="1" style="stop-color:#3B94E2"/>
	</linearGradient>
	<path style="fill:url(#SVGID_5_);" d="M469.465,255.839c-16.89-9.327-35.631-10.966-54.263-7.646
		c-14.449,2.574-28.909,8.907-35.911,22.013c-8.101,15.164-14.175,31.959-17.935,48.761c-4.786,21.385-7.013,43.354-10.168,65.881
		c0.008-0.017,0.011-0.033,0.019-0.05c-0.008,0.017-0.011,0.033-0.019,0.05c-0.251,1.794-0.496,3.584-0.761,5.385
		c-0.063,0.005-0.125,0.009-0.188,0.014c-0.024,0.525-0.067,1.051-0.13,1.58c0.404-1.436,0.794-2.876,1.155-4.321
		c-0.361,1.446-0.751,2.885-1.155,4.321c-0.126,1.054-0.362,2.119-0.933,3.223c-13.249,44.132-44.77,83.394-87.921,97.83
		c43.407-4.034,80.48-21.924,108.633-56.818c1.302-1.613,2.641-3.053,4.019-4.339c11.496-16.842,17.259-37.689,24.639-56.825
		c-0.154,0.082-0.299,0.169-0.454,0.251c3.111-22.81,5.956-43.24,8.668-63.688c0.206-1.55,0.516-3.007,0.872-4.422
		c3.378-31.704,37.316-53.859,68.319-46.604C474.051,258.751,471.924,257.197,469.465,255.839z"/>
	<linearGradient id="SVGID_6_" gradientUnits="userSpaceOnUse" x1="159.601" y1="263.4211" x2="353.7495" y2="390.4742">
		<stop  offset="4.783163e-04" style="stop-color:#006A8E"/>
		<stop  offset="0.5198" style="stop-color:#60C5F9"/>
		<stop  offset="1" style="stop-color:#216DC0"/>
	</linearGradient>
	<path style="fill:url(#SVGID_6_);" d="M344.498,390.682c-35.843,2.52-68.427,0.217-100.057-12.308
		c-45.026-17.83-80.673-44.463-96.041-93.178c-14.091-44.668-3.948-84.252,28.262-115.484c2.298-2.228,4.658-4.349,7.069-6.371
		c-0.952,0.125-1.903,0.31-2.854,0.628c-77.431,42.511-66.383,144.001-25.583,208.523c41.141,39.517,93.549,55.097,150.146,62.322
		c0.016,0.145,0.032,0.29,0.047,0.435c0.061,0.559,0.122,1.117,0.182,1.676c20.849-4.993,33.679-22.854,43.508-41.874
		c0.322-1.072,0.63-2.147,0.933-3.223c0.063-0.529,0.106-1.055,0.13-1.58C348.315,390.407,346.404,390.548,344.498,390.682z"/>
</g>
</svg>
