<?xml version="1.0" encoding="utf-8"?>
<!-- Generator: Adobe Illustrator 23.0.3, SVG Export Plug-In . SVG Version: 6.00 Build 0)  -->
<svg version="1.1" id="cnd" xmlns="http://www.w3.org/2000/svg" xmlns:xlink="http://www.w3.org/1999/xlink" x="0px" y="0px"
	 viewBox="0 0 500 500" style="enable-background:new 0 0 500 500;" xml:space="preserve">
<path d="M250.4,27.5c122.6,0,222,99.4,222,222s-99.4,222-222,222s-222-99.4-222-222S127.8,27.5,250.4,27.5 M250.4,2.9
	c-33.3,0-65.6,6.5-96,19.4C125,34.7,98.7,52.4,76,75.1s-40.4,49-52.8,78.4c-12.9,30.4-19.4,62.7-19.4,96s6.5,65.6,19.4,96
	c12.4,29.4,30.2,55.7,52.8,78.4c22.6,22.6,49,40.4,78.4,52.8c30.4,12.9,62.7,19.4,96,19.4s65.6-6.5,96-19.4
	c29.4-12.4,55.7-30.2,78.4-52.8c22.6-22.6,40.4-49,52.8-78.4c12.9-30.4,19.4-62.7,19.4-96s-6.5-65.6-19.4-96
	c-12.4-29.4-30.2-55.7-52.8-78.4s-49-40.4-78.4-52.8C316,9.4,283.7,2.9,250.4,2.9L250.4,2.9z"/>
<g>
	<circle cx="250.4" cy="250.7" r="21.3"/>
</g>
</svg>
