<?xml version="1.0" encoding="iso-8859-1"?>
<!-- Generator: Adobe Illustrator 19.0.0, SVG Export Plug-In . SVG Version: 6.00 Build 0)  -->
<svg version="1.1" id="Layer_1" xmlns="http://www.w3.org/2000/svg" xmlns:xlink="http://www.w3.org/1999/xlink" x="0px" y="0px"
	 viewBox="0 0 500 500" style="enable-background:new 0 0 500 500;" xml:space="preserve">
<linearGradient id="SVGID_1_" gradientUnits="userSpaceOnUse" x1="312.3098" y1="567.4713" x2="263.3913" y2="329.6523" gradientTransform="matrix(-0.0059 -1 1 -0.0059 -232.0045 400.4341)">
	<stop  offset="0" style="stop-color:#537CC1"/>
	<stop  offset="1" style="stop-color:#3C3D95"/>
</linearGradient>
<path style="fill:url(#SVGID_1_);" d="M31.504,222.559c0,0,5.839-69.103,62.724-127.152
	c68.089-69.482,130.497-63.404,130.497-63.404l-2.411-29.627c0,0,34.863,9.196,68.977,39.265
	c33.068,29.146,43.444,57.388,43.444,57.388s-23.376,3.886-50.126,15.853c-32.219,14.415-45.167,42.311-45.167,42.311l-4.663-32.131
	c0,0-39.708-0.047-74.162,37.627s-35.483,65.407-35.443,72.118c0.011,1.935-10.909-13.531-17.84-31.845
	c-6.163-16.285-8.427-35.562-8.427-35.562s-20.345,8.033-36.398,21.519C43.354,205.014,31.504,222.559,31.504,222.559z"/>
<linearGradient id="SVGID_2_" gradientUnits="userSpaceOnUse" x1="333.9212" y1="398.2607" x2="285.0028" y2="160.4417" gradientTransform="matrix(-1 -6.205004e-04 6.205004e-04 -1 419.1766 561.84)">
	<stop  offset="0" style="stop-color:#537CC1"/>
	<stop  offset="1" style="stop-color:#3C3D95"/>
</linearGradient>
<path style="fill:url(#SVGID_2_);" d="M221.3,466.38c0,0-69.063-6.287-126.742-63.548C25.52,334.292,32.002,271.926,32.002,271.926
	L2.36,274.144c0,0,9.422-34.803,39.712-68.721c29.36-32.878,57.669-43.07,57.669-43.07s3.734,23.401,15.528,50.228
	c14.205,32.312,42.017,45.441,42.017,45.441l-32.16,4.454c0,0-0.304,39.707,37.145,74.405s65.175,35.906,71.886,35.911
	c1.935,0.001-13.602,10.821-31.961,17.633c-16.325,6.057-35.615,8.196-35.615,8.196s7.901,20.397,21.283,36.537
	C203.831,454.416,221.3,466.38,221.3,466.38z"/>
<linearGradient id="SVGID_3_" gradientUnits="userSpaceOnUse" x1="342.3254" y1="381.7909" x2="293.4069" y2="143.9719" gradientTransform="matrix(-9.710350e-04 1 -1 -9.710350e-04 548.1599 71.1037)">
	<stop  offset="0" style="stop-color:#537CC1"/>
	<stop  offset="1" style="stop-color:#3C3D95"/>
</linearGradient>
<path style="fill:url(#SVGID_3_);" d="M469.092,277.367c0,0-6.311,69.061-63.593,126.719
	c-68.563,69.014-130.927,62.51-130.927,62.51l2.208,29.643c0,0-34.799-9.435-68.707-39.736
	c-32.867-29.371-43.05-57.684-43.05-57.684s23.403-3.726,50.234-15.51c32.317-14.194,45.455-42.001,45.455-42.001l4.443,32.162
	c0,0,39.707,0.318,74.418-37.118s35.929-65.163,35.936-71.874c0.002-1.935,10.816,13.606,17.622,31.967
	c6.052,16.327,8.183,35.618,8.183,35.618s20.4-7.894,36.544-21.27C457.122,294.832,469.092,277.367,469.092,277.367z"/>
<linearGradient id="SVGID_4_" gradientUnits="userSpaceOnUse" x1="413.4294" y1="334.3057" x2="364.5109" y2="96.4866">
	<stop  offset="0" style="stop-color:#537CC1"/>
	<stop  offset="1" style="stop-color:#3C3D95"/>
</linearGradient>
<path style="fill:url(#SVGID_4_);" d="M277.444,31.383c0,0,69.067,6.244,126.781,63.47c69.081,68.496,62.637,130.867,62.637,130.867
	l29.641-2.237c0,0-9.401,34.808-39.669,68.746c-29.34,32.896-57.642,43.106-57.642,43.106s-3.748-23.399-15.559-50.219
	c-14.225-32.303-42.045-45.415-42.045-45.415l32.157-4.474c0,0,0.28-39.707-37.191-74.381s-65.198-35.866-71.909-35.866
	c-1.935,0,13.595-10.83,31.95-17.653c16.321-6.068,35.61-8.218,35.61-8.218s-7.913-20.392-21.305-36.523
	C294.92,43.335,277.444,31.383,277.444,31.383z"/>
</svg>
