<?xml version="1.0" encoding="utf-8"?>
<!-- Generator: Adobe Illustrator 24.2.0, SVG Export Plug-In . SVG Version: 6.00 Build 0)  -->
<svg version="1.1" id="Layer_1" xmlns="http://www.w3.org/2000/svg" xmlns:xlink="http://www.w3.org/1999/xlink" x="0px" y="0px"
	 viewBox="0 0 500 500" style="enable-background:new 0 0 500 500;" xml:space="preserve">
<style type="text/css">
	.st0{fill:#070A0E;}
	.st1{fill-rule:evenodd;clip-rule:evenodd;fill:#00D395;}
</style>
<path class="st0" d="M249.9,500.2c138.1,0,250.1-112,250.1-250.1C500,112,388,0.1,249.9,0.1C111.8,0.1-0.2,112-0.2,250.2
	C-0.2,388.3,111.8,500.2,249.9,500.2z"/>
<path class="st1" d="M144.3,334c-7.5-4.6-12.1-12.7-12.1-21.5v-48.9c0-1.9,0.5-3.7,1.4-5.3c2.9-5,9.4-6.7,14.4-3.8l110.3,64.3
	c6.4,3.8,10.4,10.7,10.4,18.1v50.6c0,2.3-0.6,4.6-1.8,6.6c-3.6,5.9-11.4,7.8-17.3,4.2L144.3,334z M308.7,241.2
	c6.4,3.8,10.4,10.7,10.4,18.1v102.7c0,3-1.6,5.8-4.3,7.3L290.7,383c-0.3,0.2-0.6,0.3-1,0.4v-57c0-7.4-3.9-14.2-10.2-18l-96.8-57.9
	V186c0-1.9,0.5-3.7,1.4-5.3c2.9-5,9.4-6.7,14.4-3.8L308.7,241.2z M356.9,165.4c6.5,3.7,10.5,10.7,10.5,18.2v150
	c0,3.1-1.7,5.9-4.4,7.4l-22.9,12.4V248.9c0-7.4-3.9-14.2-10.2-18l-99-59.4v-61.1c0-1.9,0.5-3.7,1.4-5.3c2.9-5,9.4-6.7,14.4-3.8
	L356.9,165.4z"/>
</svg>
