<?xml version="1.0" encoding="utf-8"?>
<!-- Generator: Adobe Illustrator 23.0.3, SVG Export Plug-In . SVG Version: 6.00 Build 0)  -->
<svg version="1.1" id="coni" xmlns="http://www.w3.org/2000/svg" xmlns:xlink="http://www.w3.org/1999/xlink" x="0px" y="0px"
	 viewBox="0 0 500 500" style="enable-background:new 0 0 500 500;" xml:space="preserve">
<style type="text/css">
	.st0{fill:#1765FE;}
	.st1{fill:#FFFFFF;}
</style>
<path class="st0" d="M479.7,286.3L287.1,478.9c-20.5,20.5-53.7,20.5-74.2,0L20.3,286.3c-20.5-20.5-20.5-53.7,0-74.2L212.9,19.5
	c20.5-20.5,53.7-20.5,74.2,0l192.6,192.6C500.2,232.6,500.2,265.8,479.7,286.3z"/>
<path class="st1" d="M297.3,241v70.2c0,3.1-2.5,5.6-5.6,5.6h-85.3c-3.1,0-5.6-2.5-5.6-5.6V187.9c0-3.1,2.5-5.6,5.6-5.6h90.9V215
	l38-21.9v-11c0-20.9-16.9-37.8-37.8-37.8h-91.2c-24,0-43.4,19.4-43.4,43.4v123.6c0,24,19.4,43.4,43.4,43.4h85.6
	c24,0,43.4-19.4,43.4-43.4V219L297.3,241z"/>
</svg>
