<svg width="24" height="24" viewBox="0 0 24 24" fill="none" xmlns="http://www.w3.org/2000/svg">
<path fill-rule="evenodd" clip-rule="evenodd" d="M2.73223 2.73223C3.20107 2.26339 3.83696 2 4.5 2H19.5C20.163 2 20.7989 2.26339 21.2678 2.73223C21.7366 3.20107 22 3.83696 22 4.5V19.5C22 20.163 21.7366 20.7989 21.2678 21.2678C20.7989 21.7366 20.163 22 19.5 22H4.5C3.83696 22 3.20107 21.7366 2.73223 21.2678C2.26339 20.7989 2 20.163 2 19.5V4.5C2 3.83696 2.26339 3.20107 2.73223 2.73223ZM4.5 4C4.36739 4 4.24021 4.05268 4.14645 4.14645C4.05268 4.24021 4 4.36739 4 4.5V19.5C4 19.6326 4.05268 19.7598 4.14645 19.8536C4.24022 19.9473 4.36739 20 4.5 20H19.5C19.6326 20 19.7598 19.9473 19.8536 19.8536C19.9473 19.7598 20 19.6326 20 19.5V4.5C20 4.36739 19.9473 4.24022 19.8536 4.14645C19.7598 4.05268 19.6326 4 19.5 4H4.5Z" fill="black"/>
<path fill-rule="evenodd" clip-rule="evenodd" d="M6 7.5C6 6.94772 6.44772 6.5 7 6.5H17C17.5523 6.5 18 6.94772 18 7.5C18 8.05228 17.5523 8.5 17 8.5H7C6.44772 8.5 6 8.05228 6 7.5ZM6 11.5C6 10.9477 6.44772 10.5 7 10.5H11C11.5523 10.5 12 10.9477 12 11.5C12 12.0523 11.5523 12.5 11 12.5H7C6.44772 12.5 6 12.0523 6 11.5ZM17.6247 11.7191C18.056 12.0641 18.1259 12.6934 17.7809 13.1247L13.7809 18.1247C13.4359 18.556 12.8066 18.6259 12.3753 18.2809L9.87531 16.2809C9.44404 15.9359 9.37412 15.3066 9.71913 14.8753C10.0641 14.444 10.6934 14.3741 11.1247 14.7191L12.8438 16.0944L16.2191 11.8753C16.5641 11.444 17.1934 11.3741 17.6247 11.7191Z" fill="black"/>
</svg>
