<?xml version="1.0" encoding="utf-8"?>
<!-- Generator: Adobe Illustrator 23.0.2, SVG Export Plug-In . SVG Version: 6.00 Build 0)  -->
<svg version="1.1" id="cosm" xmlns="http://www.w3.org/2000/svg" xmlns:xlink="http://www.w3.org/1999/xlink" x="0px" y="0px"
	 viewBox="0 0 500 500" style="enable-background:new 0 0 500 500;" xml:space="preserve">
<style type="text/css">
	.st0{fill:url(#SVGID_1_);}
	.st1{fill:#FFFFFF;}
</style>
<linearGradient id="SVGID_1_" gradientUnits="userSpaceOnUse" x1="1.5639" y1="250.6879" x2="498.3682" y2="250.6879">
	<stop  offset="0" style="stop-color:#D69AC5"/>
	<stop  offset="1" style="stop-color:#253E90"/>
</linearGradient>
<circle class="st0" cx="250" cy="250.7" r="248.4"/>
<path class="st1" d="M208.5,277.6c7.4,9.9,13.6,18.1,20.1,26.7c-1.6,2.4-2.9,4.6-4.5,6.7c-10.6,14.5-22,28.6-31.8,43.6
	c-15.8,24.3-13.6,54.4,4.3,76.4c18.3,22.5,47.8,30.9,74.4,21.2c27.2-9.9,44.9-35.4,44.4-64.1c-0.3-14.2-5.5-26.7-13.8-37.9
	c-30.5-41-61.3-81.9-91.9-122.8c-13.2-17.5-26.5-34.9-39.7-52.5c-42.6-57.1-15.3-136.6,53.5-155.5C286,2.4,349.4,52.6,347,117.3
	c-0.7,20.2-6.4,38.6-18.6,54.9c-12.3,16.4-24.5,32.8-36.8,49.2c-1,1.3-2.2,2.4-3.9,4.3c-6.6-8.7-12.9-17-19.5-25.8
	c9.9-13,19.3-25.9,29.1-38.4c10.5-13.3,18.3-27.5,18.5-45c0.3-30-18.1-56.1-46.2-65.3c-27.3-9-57.9,0.9-74.7,24.1
	c-17.6,24.2-17.5,55.8,0.6,79.9c22.7,30.3,45.7,60.5,68.4,90.8c20.9,27.8,41.6,55.8,62.4,83.6c46.4,62,10.5,139.2-53.1,155.7
	c-37.8,9.8-79.3-4.3-103.1-35.6c-24.3-32-28-74.9-7.1-108.4C176.3,319.6,192.5,299.7,208.5,277.6z"/>
</svg>
