<svg width="24" height="24" viewBox="0 0 24 24" fill="currentColor" xmlns="http://www.w3.org/2000/svg">
<path fill-rule="evenodd" clip-rule="evenodd" d="M12.3532 0.333444C12.6961 0.32439 13.0276 0.456607 13.2701 0.699125L22.4625 9.89151C23.05 10.479 23.4117 11.27 23.4455 12.1071C23.4794 12.9488 23.1766 13.7736 22.5721 14.3781L14.7448 22.2054C14.1403 22.8099 13.3155 23.1127 12.4738 23.0788C11.6367 23.045 10.8457 22.6833 10.2582 22.0958L1.06582 12.9034C0.823305 12.6609 0.69109 12.3294 0.700143 11.9865L0.968651 1.81852C0.986197 1.15403 1.52073 0.619499 2.18522 0.601952L12.3532 0.333444ZM11.8822 2.84675L3.43648 3.06978L3.21345 11.5155L12.026 20.328C12.1886 20.4907 12.3919 20.5735 12.5746 20.5808C12.7526 20.588 12.8895 20.5252 12.977 20.4377L20.8044 12.6103C20.8919 12.5228 20.9547 12.3859 20.9475 12.2079C20.9402 12.0252 20.8574 11.8219 20.6947 11.6593L11.8822 2.84675Z" />
<path d="M7.96922 7.41906C7.38343 8.00484 6.43368 8.00484 5.8479 7.41906C5.26211 6.83327 5.26211 5.88352 5.8479 5.29774C6.43368 4.71195 7.38343 4.71195 7.96922 5.29774C8.555 5.88352 8.555 6.83327 7.96922 7.41906Z" />
</svg>
