<?xml version="1.0" encoding="iso-8859-1"?>
<!-- Generator: Adobe Illustrator 19.0.0, SVG Export Plug-In . SVG Version: 6.00 Build 0)  -->
<svg version="1.1" id="Layer_1" xmlns="http://www.w3.org/2000/svg" xmlns:xlink="http://www.w3.org/1999/xlink" x="0px" y="0px"
	 viewBox="0 0 500 500" style="enable-background:new 0 0 500 500;" xml:space="preserve">
<path d="M458.362,249.123c0.03,91.992-74.488,166.384-166.371,166.089c-91.107-0.292-165.531-74.201-165.724-164.578
	c-0.196-91.464,73.667-166.945,163.206-166.782C384.001,84.022,458.332,156.761,458.362,249.123z M150.991,249.516
	c0.261,78.456,63.431,141.387,141.667,141.131c78.53-0.257,141.237-63.581,140.859-142.246
	c-0.372-77.498-64.185-139.996-142.706-139.767C214.327,108.858,150.736,172.932,150.991,249.516z M428.256,74.243
	c7.871,6.01,15.129,5.741,19.993-0.674c4.573-6.03,2.64-13.295-5.066-19.165C405.594,25.768,363.405,8.663,316.281,4.321
	C248.396-1.934,188.02,16.822,135.002,59.518c-6.262,5.043-7.182,12.393-2.566,18.146c4.484,5.588,12.173,6.141,18.336,1.116
	c41.17-33.573,88.328-50.423,139.101-50.845C342.698,28.258,388.085,43.569,428.256,74.243z M97.827,401.02
	c5.274,6.818,12.375,8.271,18.218,3.846c5.992-4.538,6.443-11.854,1.159-18.804c-61.85-81.343-62.988-186.673-2.912-269.35
	c4.753-6.541,4.228-13.907-1.288-18.064c-6.034-4.548-13.686-3.144-18.638,3.561c-32.39,43.859-48.45,93.139-48.905,150.697
	C46.126,306.017,63.385,356.497,97.827,401.02z M439.649,447.237c6.773-4.972,8.206-12.232,3.693-18.194
	c-4.339-5.732-11.678-6.26-18.285-1.316c-79.421,59.437-190.399,58.34-269.035-2.66c-7.446-5.776-14.381-5.681-19.118,0.261
	c-4.738,5.943-3.101,13.329,4.273,18.989c44.349,34.044,94.561,51.001,150.409,51.682
	C346.196,495.697,395.592,479.584,439.649,447.237z M259.257,45.928c-28.042,4.687-54.293,14.254-78.054,29.909
	c-53.817,35.457-85.06,85.291-93.846,149.148c-0.99,7.197,3.889,13.432,10.752,14.226c6.821,0.789,12.685-3.849,13.631-10.963
	c3.623-27.256,12.216-52.776,27.272-75.852c29.381-45.031,70.769-72.09,123.631-81.672c6.931-1.256,10.877-5.196,11.276-10.992
	C274.148,50.509,267.169,44.606,259.257,45.928z M88.812,284.133c13.481,84.493,82.85,154.099,167.686,168.274
	c9.386,1.568,15.749-1.946,17.027-9.405c1.316-7.683-3.522-12.933-13.097-14.781c-55.641-10.74-97.885-40.539-126.398-89.52
	c-10.713-18.403-17.509-38.302-20.957-59.339c-1.249-7.621-6.75-12.199-13.824-11.21c-6.932,0.97-10.408,5.37-10.818,11.941
	C88.579,281.694,88.619,282.925,88.812,284.133z M302.823,55.585c-0.987,7.198,3.868,12.474,11.46,14.028
	c12.452,2.549,25.108,4.655,37.142,8.588c30.11,9.841,55.49,27.245,76.699,50.773c5.049,5.6,12.688,6.357,17.69,1.662
	c5.475-5.139,6.343-11.51,1.42-17.077C412.3,74.062,368.36,51.517,317.127,44.719C308.779,44.768,303.866,47.98,302.823,55.585z
	 M364.137,442.539c30.265-10.552,56.208-28.192,78.21-51.542c5.133-5.448,5.216-13.072,0.292-17.79
	c-4.976-4.768-12.576-4.47-17.844,0.722c-1.572,1.549-3.056,3.187-4.632,4.731c-29.771,29.188-65.473,45.998-106.723,51.476
	c-7.458,0.991-11.225,6.107-10.296,13.588c0.866,6.974,5.582,10.26,12.917,11.979C332.109,451.383,348.484,447.997,364.137,442.539z
	 M340.167,235.083c0-18.036,0.031-36.072-0.015-54.108c-0.02-7.705-4.943-12.987-11.959-13.037
	c-6.912-0.049-12.02,5.448-12.018,13.049c0.008,35.825,0.029,71.65,0.073,107.474c0.01,8.072,4.745,13.342,11.935,13.442
	c6.996,0.098,11.893-5.374,11.908-13.45c0.032-17.79,0.01-35.581,0.01-53.371C340.123,235.083,340.145,235.083,340.167,235.083z
	 M271.168,257.243c0,10.543-0.015,21.085,0.005,31.628c0.014,7.719,4.961,13.122,11.908,13.063
	c6.954-0.059,11.953-5.42,11.978-13.111c0.068-21.094,0.089-42.188,0.046-63.283c-0.015-7.6-5.137-12.797-12.269-12.738
	c-6.93,0.057-11.711,5.294-11.709,12.815c0.003,10.542,0.001,21.084,0.001,31.626C271.141,257.244,271.155,257.244,271.168,257.243z
	 M249.728,260.354c-0.556-7.209-4.937-11.296-12.068-11.186c-6.971,0.108-11.32,4.352-11.605,11.308
	c-0.416,10.145-0.521,20.345,0.075,30.473c0.405,6.887,5.031,10.99,12.032,10.833c6.983-0.157,11.068-4.355,11.603-11.337
	c0.364-4.746,0.069-9.542,0.056-14.315C249.807,270.869,250.132,265.583,249.728,260.354z"/>
</svg>
