<?xml version="1.0" encoding="utf-8"?>
<!-- Generator: Adobe Illustrator 23.0.3, SVG Export Plug-In . SVG Version: 6.00 Build 0)  -->
<svg version="1.1"
	 id="cova" xmlns:cc="http://creativecommons.org/ns#" xmlns:dc="http://purl.org/dc/elements/1.1/" xmlns:rdf="http://www.w3.org/1999/02/22-rdf-syntax-ns#" xmlns:svg="http://www.w3.org/2000/svg"
	 xmlns="http://www.w3.org/2000/svg" xmlns:xlink="http://www.w3.org/1999/xlink" x="0px" y="0px" viewBox="0 0 500 500"
	 style="enable-background:new 0 0 500 500;" xml:space="preserve">
<style type="text/css">
	.st0{fill:#52BAA1;}
</style>
<path id="path4" class="st0" d="M335.6,266.6c-7.3-27.7-14.6-52.5-20.4-76.6c-1.5-5.1-4.4-6.6-7.3-7.3c-7.3-2.2-14.6-3.6-21.9-5.8
	c-16.8-4.4-35-8.8-51.8-13.9c-5.8-1.5-10.2-0.7-14.6,4.4c-15.3,15.3-32.1,32.1-52.5,53.2c-4.4,4.4-3.6,8.8-2.9,12.4
	c5.8,21.2,12.4,45.9,19,70c2.2,7.3,5.8,11.7,12.4,13.1c16,4.4,32.8,8.8,48.9,12.4l9.5,2.2c3.6,0.7,6.6,2.2,9.5,2.9
	c1.5,0.7,2.9,0.7,4.4,1.5l0,0c0.7,0,1.5,0,2.2,0c4.4,0,6.6-2.9,8-4.4c0.7-0.7,0.7-0.7,1.5-1.5l8.8-9.5c13.9-13.9,28.4-29.2,43-43
	C334.9,276.1,337.8,272.4,335.6,266.6z M316,273.2L316,273.2c-6.6,6.6-12.4,13.1-19,19c-8,8-16.8,16.8-25.5,25.5
	c-2.2,2.2-4.4,2.9-7.3,1.5c-20.4-5.8-40.8-10.9-61.3-16.8c-2.9-0.7-4.4-1.5-5.1-5.1c-5.1-20.4-10.2-40.8-16.8-62
	c-1.5-3.6-0.7-5.1,1.5-7.3c16.8-16.8,32.1-32.1,45.9-47.4c0.7-0.7,1.5-1.5,2.9-1.5c0.7,0,1.5,0,2.9,0.7l11.7,3.6
	c16,4.4,32.8,9.5,49.6,13.9c4.4,1.5,5.8,2.9,6.6,8c2.9,13.9,6.6,27,10.2,40.1c1.5,5.1,2.9,10.9,4.4,16c0.7,1.5,0.7,2.9,1.5,4.4
	c0,0.7,0,0.7,0,0.7C319.6,269.5,318.1,271,316,273.2z"/>
<path id="path8" class="st0" d="M162.1,326.4c-9.5,8.8-18.2,18.2-27.7,27c-5.8,6.6-12.4,12.4-19,19c0,0-0.7,0.7-0.7,1.5
	c-1.5,1.5-2.9,4.4-5.8,4.4h-0.7c-2.2,0-3.6-0.7-5.8-2.9c-2.2-2.2-3.6-4.4-3.6-6.6c0-3.6,2.2-5.8,4.4-7.3l0.7-0.7
	c8-7.3,15.3-15.3,23.3-23.3c6.6-6.6,13.1-13.1,19.7-19.7c2.9-2.9,3.6-4.4,2.2-7.3c-5.8-19.7-10.9-39.4-15.3-57.6l0,0
	c-0.7-3.6-1.5-4.4-3.6-5.1c-13.1-3.6-26.3-7.3-38.7-10.2c-6.6-1.5-13.1-3.6-20.4-5.8c-0.7,0-0.7,0-1.5,0c1.5,0-2.9,0-2.9,0
	c-1.5,0-2.9,0.7-3.6,2.2c-0.7,0.7-0.7,0.7-1.5,1.5c-4.4,4.4-9.5,9.5-13.9,13.9c-8.8,8.8-17.5,17.5-26.3,25.5c0,0-0.7,0.7-0.7,1.5
	c-0.7,3.6-2.2,6.6-5.8,6.6c-2.2,0-4.4-0.7-7.3-2.9c-2.9-2.2-3.6-5.1-3.6-7.3c0-3.6,2.9-5.1,5.1-6.6c0.7-0.7,1.5-0.7,1.5-1.5
	c6.6-7.3,13.9-14.6,20.4-21.2c8-8,16-16,23.3-24.1c4.4-4.4,8.8-7.3,16.8-4.4c21.9,6.6,44.5,12.4,63.5,17.5
	c7.3,2.2,11.7,5.8,13.9,13.9c4.4,17.5,9.5,35.7,14.6,52.5c1.5,4.4,2.2,8,3.6,12.4C167.9,316.9,166.4,322,162.1,326.4L162.1,326.4z"
	/>
<path id="path12" class="st0" d="M367.7,114.2c-0.7,0-0.7,0.7-1.5,0.7c-8,8-16,16-24.1,24.1c-7.3,7.3-15.3,15.3-23.3,23.3
	c-2.9,2.9-5.8,4.4-8.8,4.4c-1.5,0-2.9,0-4.4-0.7c-25.5-6.6-48.1-13.1-69.3-18.2c-5.8-1.5-7.3-6.6-8-8.8l-2.9-10.2
	c-5.1-19-10.2-38.7-15.3-57.6c-1.5-6.6-0.7-11.7,4.4-16c18.2-19.7,32.8-35,46.7-49.6c6.6-6.6,11.7-1.5,13.1,0
	c2.2,1.5,2.9,3.6,2.9,5.8c0,2.9-2.2,5.1-3.6,6.6l-0.7,0.7c-3.6,3.6-8,8-11.7,11.7c-10.2,10.2-20.4,20.4-31.4,30.6
	c-3.6,3.6-4.4,5.8-2.9,10.2c2.2,8.8,4.4,17.5,7.3,26.3c2.2,9.5,5.1,19.7,7.3,29.2c0.7,3.6,1.5,5.1,4.4,5.8c14.6,3.6,28.4,8,43,11.7
	c5.8,1.5,11.7,2.9,16.8,4.4h0.7h0.7h0.7c0.7,0,0.7,0,2.2-1.5c0.7-0.7,0.7-0.7,1.5-1.5l13.1-13.1c10.2-10.2,19.7-19.7,29.9-29.9l0,0
	c2.2-2.2,4.4-4.4,8-4.4l0,0c2.2,0,4.4,1.5,6.6,2.9c2.2,2.2,2.9,4.4,2.9,6.6C371.4,110.5,369.2,112.7,367.7,114.2L367.7,114.2z"/>
<path id="path16" class="st0" d="M491,233.1c-0.7,0.7-1.5,0.7-1.5,1.5c-12.4,13.1-25.5,26.3-38.7,38.7l-7.3,7.3
	c-0.7,0.7-0.7,0.7-1.5,1.5c-1.5,1.5-4.4,4.4-7.3,4.4c-0.7,0-1.5,0-2.9-0.7l-18.2-5.1c-19-5.1-36.5-10.2-54-14.6
	c-6.6-1.5-7.3-7.3-8.8-9.5c-7.3-25.5-13.1-48.1-19-69.3c-1.5-6.6,0.7-10.2,3.6-12.4c18.2-17.5,33.5-33.5,48.1-48.1
	c1.5-1.5,4.4-4.4,7.3-4.4s5.1,2.2,6.6,3.6c2.2,2.2,2.9,4.4,2.9,5.8c0,2.9-2.2,4.4-3.6,5.8c-0.7,0-0.7,0.7-1.5,0.7
	c-5.8,5.8-11.7,11.7-17.5,17.5c-8,8.8-16.8,16.8-25.5,25.5c-2.9,2.9-2.9,5.1-1.5,10.2c2.9,11.7,5.8,23.3,8.8,34.3
	c2.2,7.3,3.6,13.9,5.8,21.2c0.7,2.9,2.2,4.4,5.8,5.1c19.7,5.1,39.4,10.9,56.9,15.3c2.9,0.7,4.4,0,7.3-2.2c16-16,29.2-29.2,41.6-41.6
	c0,0,0.7-0.7,1.5-1.5c1.5-2.2,2.9-5.1,6.6-5.1c2.2,0,4.4,0.7,7.3,2.9c2.9,2.2,3.6,5.1,3.6,7.3C496.1,230.1,493.2,231.6,491,233.1
	L491,233.1z"/>
<path id="path20" class="st0" d="M287.5,443.8c-0.7,0.7-0.7,0.7-1.5,1.5c-17.5,17.5-32.8,33.5-48.1,48.9c-1.5,1.5-3.6,3.6-6.6,3.6
	l0,0c-2.2,0-3.6-0.7-5.8-2.9c-2.2-2.2-2.9-4.4-2.9-6.6c0-2.9,1.5-5.1,3.6-7.3c5.8-5.8,11.7-10.9,16.8-16.8
	c8.8-8.8,17.5-17.5,26.3-25.5c2.9-2.9,4.4-4.4,2.9-8.8c-5.1-18.2-9.5-36.5-14.6-55.4c-1.5-4.4-2.2-5.8-6.6-7.3
	c-17.5-4.4-37.9-9.5-57.6-16c-2.2-0.7-2.9,0-5.1,2.2l-0.7,0.7c-5.8,5.8-10.9,10.9-16.8,16.8c-8,8-16.8,16.8-25.5,25.5
	c-0.7,0.7-0.7,0.7-1.5,1.5c-1.5,1.5-3.6,4.4-7.3,4.4c-2.2,0-4.4-0.7-6.6-2.9c-2.2-2.2-2.9-4.4-2.9-6.6c0-2.9,2.2-5.1,4.4-6.6
	c0.7-0.7,0.7-0.7,1.5-0.7c6.6-6.6,12.4-13.1,19-19c8.8-8.8,17.5-17.5,26.3-27c5.1-5.1,10.2-6.6,16.8-4.4c19.7,5.8,39.4,10.9,59.1,16
	l5.1,1.5c7.3,1.5,10.2,5.1,12.4,12.4c3.6,14.6,8,29.9,11.7,44.5c1.5,6.6,3.6,12.4,5.1,19c0.7,1.5,0.7,2.9,0.7,5.1
	c0,1.5,0.7,2.2,0.7,4.4C291.9,438.7,290.4,440.9,287.5,443.8L287.5,443.8z"/>
<path id="path24" class="st0" d="M432.6,314.7c-2.2,8-8.8,6.6-11.7,5.1l0,0c-8-2.2-16.8-4.4-24.8-6.6c-10.9-2.9-22.6-5.8-34.3-9.5
	c-3.6-1.5-5.1-0.7-7.3,1.5c-15.3,16-27.7,28.4-40.1,40.1c-4.4,4.4-5.1,7.3-3.6,12.4c3.6,13.1,7.3,26.3,10.9,38.7
	c1.5,5.1,2.9,10.2,4.4,15.3c0.7,1.5,0.7,2.9,0.7,2.9v0.7c0,2.2,0.7,9.5-6.6,10.2c-0.7,0-1.5,0-2.2,0c-4.4,0-6.6-2.2-8-5.8l-4.4-18.2
	c-4.4-17.5-9.5-35-13.9-52.5c-1.5-5.1,2.2-8,4.4-10.2l0.7-0.7c8.8-8.8,17.5-17.5,25.5-25.5s16.8-16.8,24.8-24.8
	c4.4-4.4,10.2-3.6,12.4-2.2c21.9,5.8,43,11.7,64.9,18.2c0.7,0,0.7,0,1.5,0c2.2,0.7,5.1,1.5,6.6,3.6
	C433.4,310.4,433.4,312.6,432.6,314.7L432.6,314.7z"/>
<path id="path28" class="st0" d="M202.9,160.1l-5.8,5.8c-14.6,14.6-29.2,29.2-43.8,43.8c-2.2,2.2-5.1,3.6-7.3,3.6
	c-1.5,0-2.2,0-3.6-0.7c-20.4-5.8-43.8-12.4-66.4-18.2c-2.9-0.7-5.1-1.5-6.6-3.6c-1.5-2.2-0.7-5.1-0.7-7.3c0.7-2.2,1.5-4.4,3.6-5.1
	c2.2-1.5,5.1-0.7,6.6,0h0.7c7.3,2.2,13.9,3.6,21.2,5.8c12.4,2.9,24.8,6.6,37.2,10.2c5.1,1.5,7.3,0.7,10.9-2.2
	c7.3-8,15.3-16,23.3-23.3c5.1-5.1,10.2-10.2,16-16c0.7-0.7,1.5-1.5,1.5-1.5c0.7-0.7,2.2-2.2,2.2-2.2v-0.7l-2.9-12.4
	c-4.4-15.3-8-29.2-11.7-43.8c0,0,0-0.7-0.7-0.7c-0.7-1.5-1.5-2.9-0.7-5.1c0-0.7-0.7-1.5-0.7-2.2c-0.7-2.2-1.5-5.1,0-8
	c1.5-2.2,2.9-2.9,5.8-3.6s5.8-0.7,7.3,0.7c2.9,2.2,2.9,5.8,3.6,8c0,0.7,0,1.5,0,2.2c2.9,10.2,5.1,19.7,8,29.9s5.1,20.4,8,30.6
	C209.5,150.7,208,155.8,202.9,160.1L202.9,160.1z"/>
</svg>
