<?xml version="1.0" encoding="utf-8"?>
<!-- Generator: Adobe Illustrator 25.1.0, SVG Export Plug-In . SVG Version: 6.00 Build 0)  -->
<svg version="1.1" id="cover" xmlns="http://www.w3.org/2000/svg" xmlns:xlink="http://www.w3.org/1999/xlink" x="0px" y="0px"
	 viewBox="0 0 500 500" style="enable-background:new 0 0 500 500;" xml:space="preserve">
<style type="text/css">
	.st0{fill:#272727;}
</style>
<path class="st0" d="M469.8,64.9c-0.3-3.7-3.4-6.6-7.1-6.6c-63.4-1.1-131.7-22-203.4-54.8c-5-2.3-10.8-2.2-15.8,0.2
	c-78.9,38-146.1,55.4-204.4,54.8c-3.9,0-7.2,3-7.3,6.9c-1.1,25.4-1,49.3,0,71.9h148.4c7.6,0,13.7,6.1,13.7,13.7s-6.1,13.7-13.7,13.7
	H33.6c1.9,22.3,4.8,43.2,8.5,62.6h202.6c7.6,0,13.7,6.1,13.7,13.7c0,7.6-6.1,13.7-13.7,13.7H48.1c5.1,20.7,11.3,39.7,18.1,57.2
	h115.9c6.5,0,11.8,5.3,11.8,11.8v3.9c0,6.5-5.3,11.8-11.8,11.8H78.2c10.3,21.3,21.6,39.8,33.5,55.9h109.3c6.5,0,11.8,5.3,11.8,11.8
	v3.9c0,6.5-5.3,11.8-11.8,11.8h-86.7c45.2,48.7,92.2,67.7,110.9,73.9c5.2,1.7,10.9,1.6,16.1-0.5C490.1,405.2,474,112.7,469.8,64.9z"
	/>
</svg>
