<?xml version="1.0" encoding="iso-8859-1"?>
<!-- Generator: Adobe Illustrator 19.0.0, SVG Export Plug-In . SVG Version: 6.00 Build 0)  -->
<svg version="1.1" id="Layer_1" xmlns="http://www.w3.org/2000/svg" xmlns:xlink="http://www.w3.org/1999/xlink" x="0px" y="0px"
	 viewBox="0 0 500 500" style="enable-background:new 0 0 500 500;" xml:space="preserve">
<path style="fill:#21A3DF;" d="M275.76,3.411c16.732,1.674,30.542,4.048,45.359,7.841c56.597,14.488,102.126,45.818,137.206,92.44
	c0.492,0.654,1.292,2.756,1.208,3.494c-6.348-6.646-12.284-13.34-18.717-19.516c-40.895-39.258-89.584-60.849-146.321-63.589
	C189.147,18.993,95.37,85.869,65.794,186.959c-35.364,120.874,35.892,249.369,157.905,280.893
	c92.264,23.838,170.492-2.364,233.765-73.471c0.931-1.046,2.13-1.853,3.205-2.772c0,0-10.46,15.116-16.541,21.913
	c-41.029,45.857-92.333,72.569-153.152,81.218c-4.642,0.66-9.321,1.059-13.982,1.579c-11.802,0.881-23.138,1.201-34.511,0
	c-7.488-1.029-14.999-1.914-22.461-3.107c-96.921-15.494-176.227-88.387-199.414-183.8c-3.466-14.264-4.966-29.006-7.375-43.527
	c0-10.68,0-21.359,0-32.039c1.785-11.714,2.713-23.636,5.491-35.11C42.199,101.777,102.181,39.287,197.84,11.453
	c14.817-4.311,29.512-6.528,45.874-8.042C255.292,2.53,264.871,3.019,275.76,3.411z"/>
<path style="fill:#2282C6;" d="M489.01,271.795c-11.828,63.963-42.692,115.809-98.092,152.221
	c-56.839,37.359-117.299,34.482-179.228,16.678c58.194,6.731,114.235,1.51,165.717-29.447c-11.31,3.74-22.436,8.218-33.962,11.086
	c-37.476,9.324-75.448,12.675-113.335,3.437c-24.573-5.992-46.315-17.965-62.156-38.6c-21.951-28.594-18.18-69.53,8.38-91.701
	c12.061-10.068,25.87-13.811,41.4-10.92c2.077,0.387,4.189,0.593,8.038,1.125c-8.594-13.765-19.286-22.06-33.254-24.781
	c-20.48-3.989-39.812,1.797-58.911,8.812c-7.617,2.798-15.663,5.348-23.671,5.965c-15.401,1.188-25.537-7.303-26.26-22.835
	c-1.507-32.352,4.239-63.537,20.596-91.859c8.595-14.882,18.926-28.766,28.563-43.039c1.334-1.976,3.187-3.601,5.99-4.748
	c-2.299,6.143-4.843,12.207-6.848,18.445c-4.867,15.141-8.521,30.473-5.496,46.57c3.666,19.507,21.869,33.153,41.229,28.704
	c11.538-2.652,22.53-8.398,33.225-13.821c13.518-6.854,25.945-16.066,39.818-21.967c20.638-8.778,41.269-8.282,59.692,6.812
	c0.915,0.75,1.725,1.626,3.751,3.554c-16.969-1.15-31.258,2.438-42.911,13.423c-11.275,10.629-18.508,23.292-19.228,40.569
	c4.814-1.217,92.963,71.867,120.217,77.057c38.196,7.273,73.006-1.34,104.677-23.061c7.505-5.147,13.63-12.306,20.389-18.54
	C487.896,271.221,488.453,271.508,489.01,271.795z"/>
<path style="fill:#033C77;" d="M461.979,294.167c-31.134,30.299-67.412,48.936-111.883,46.717
	c-29.166-1.455-57.085-8.083-80.217-27.296c-22.162-18.408-30.593-42.95-29.505-71.209c0.039-1.02,0.204-2.045,0.411-3.046
	c0.162-0.786,0.48-1.539,0.953-2.999c19.749-1.873,34.332-16.192,52.35-22.713c7.994-2.893,16.591-4.412,25.046-5.679
	c12.574-1.885,22.372,4.272,31.717,12.246c-5.711,0.706-11.087,0.777-16.133,2.102c-17.117,4.495-26.12,18.976-23.968,37.766
	c3.341,29.168,24.51,49.604,55.134,54.121c32.76,4.832,63.25-1.178,91.836-17.61C459.133,295.755,460.56,294.966,461.979,294.167z"
	/>
<path style="fill:#B4B7B6;" d="M281.694,60.26c52.091,60.752,153.918,181.514,153.918,181.514s-113.143-80.765-165.561-118.577
	c-3.726-2.688-7.037-3.286-11.331-1.257c-21.334,10.078-69.691,32.238-69.691,32.238S250.608,92.479,281.694,60.26z"/>
<path style="fill:#B4B7B6;" d="M458.565,199.753c-34.008-25.188-68.016-50.376-102.924-76.229
	c7.365-6.923,14.004-13.164,21.444-20.158C404.866,135.607,458.848,199.473,458.565,199.753z"/>
</svg>
