<?xml version="1.0" encoding="utf-8"?>
<!-- Generator: Adobe Illustrator 25.2.0, SVG Export Plug-In . SVG Version: 6.00 Build 0)  -->
<svg version="1.1" id="cre" xmlns="http://www.w3.org/2000/svg" xmlns:xlink="http://www.w3.org/1999/xlink" x="0px" y="0px"
	 viewBox="0 0 500 500" style="enable-background:new 0 0 500 500;" xml:space="preserve">
<style type="text/css">
	.st0{fill:#00C878;}
</style>
<path class="st0" d="M276.8,175.3c-48.1-0.4-97,0-144.6,1.3c-2.3-1.9-0.6-4.4,0.5-6.5c5.1-9,10.3-17.9,15.3-26.9
	c15.3-27.3,42.3-42.4,73.2-42.5c83-4,168.9,10.3,249.9-11.5c2.2-1.3,5.3-0.6,7.1,0.6c0.7,0.7,0.6,3.1,0,4.3
	c-9,16.5-19,32.4-28.1,48.9c-10.7,19.8-29.5,32.7-52.5,32.3C357.3,175.4,317,175.3,276.8,175.3z"/>
<path class="st0" d="M268,207c48.1-1.4,96.7,3,144.5-2.2c1.8-0.3,4.7,0.1,5.5,1.2c0.9,1.3,0.6,4.2-0.3,5.8
	c-8.9,15.6-17.3,31.7-27.5,46.5c-9.7,14.1-24,22.1-41.8,22.3c-39.7,0.4-79.5,0.9-119.2,1c-49.7,0.2-99.8-0.7-149.2,1.5
	c-2.9-2.2-2.7-5.7-0.3-8.4c9.4-16.3,18.7-32.6,28.3-48.8c7.3-12.2,18.1-18.9,32.7-18.9C183.2,207.1,225.6,207.1,268,207z"/>
<path class="st0" d="M214.3,312.4c47.3-1.5,95.2,3.2,142.2-2.3c4.8-1,7.2,1.7,5,5.6c-10,17.1-17.8,35.7-32.6,49.6
	c-25.9,26.8-64.8,20.3-98.6,21.7c-66,0.2-132.1,0.1-198.1,0.1c-12.3,0-12.9-0.8-6.8-11.7c8.2-14.5,16.6-28.9,25-43.4
	c8.4-14.4,21.6-19.5,37.5-19.6C130,312.3,172.1,312.4,214.3,312.4z"/>
</svg>
