<?xml version="1.0" encoding="utf-8"?>
<!-- Generator: Adobe Illustrator 25.0.1, SVG Export Plug-In . SVG Version: 6.00 Build 0)  -->
<svg version="1.1" id="cream" xmlns="http://www.w3.org/2000/svg" xmlns:xlink="http://www.w3.org/1999/xlink" x="0px" y="0px"
	 viewBox="0 0 500 500" style="enable-background:new 0 0 500 500;" xml:space="preserve">
<style type="text/css">
	.st0{fill:#69E2DC;}
</style>
<path class="st0" d="M270.1,261.8l87.7,87.7c6.5,6.6,6.5,17.1-0.1,23.7c-0.5,0.5-1,1-1.6,1.4c-68.8,54-168.4,42.1-222.4-26.7
	s-42.1-168.4,26.7-222.4c57.7-45.3,138.8-45.1,196.3,0.5c7.1,5.8,8.1,16.2,2.3,23.3c-0.4,0.5-0.8,0.9-1.2,1.3l-87.7,87.7
	c-1.5,1.5-2.8,3.4-3.6,5.4c-0.8,2.1-1.3,4.4-1.3,6.7c0,2.3,0.4,4.6,1.3,6.7c0.8,2,2,3.9,3.6,5.4V261.8z M250,0
	C111.9,0,0,111.9,0,250s111.9,250,250,250s250-111.9,250-250S388.1,0,250,0z"/>
</svg>
