<?xml version="1.0" encoding="utf-8"?>
<!-- Generator: Adobe Illustrator 24.1.2, SVG Export Plug-In . SVG Version: 6.00 Build 0)  -->
<svg version="1.1" id="CREP" xmlns="http://www.w3.org/2000/svg" xmlns:xlink="http://www.w3.org/1999/xlink" x="0px" y="0px"
	 viewBox="0 0 500 500" style="enable-background:new 0 0 500 500;" xml:space="preserve">
<style type="text/css">
	.st0{fill:#EDF0F2;}
	.st1{fill:url(#SVGID_1_);}
	.st2{fill:#FFFFFF;}
	.st3{fill-rule:evenodd;clip-rule:evenodd;fill:#283947;}
	.st4{fill:#FFFFFF;filter:url(#Adobe_OpacityMaskFilter);}
	.st5{fill-rule:evenodd;clip-rule:evenodd;}
	.st6{mask:url(#path-4-outside-1_1_);fill:none;stroke:#283947;}
</style>
<circle class="st0" cx="250" cy="249.9" r="250"/>
<linearGradient id="SVGID_1_" gradientUnits="userSpaceOnUse" x1="179.5224" y1="474.6298" x2="257.917" y2="39.9915" gradientTransform="matrix(1 0 0 -1 0 502)">
	<stop  offset="0" style="stop-color:#27D3A2"/>
	<stop  offset="1" style="stop-color:#9388FD"/>
</linearGradient>
<path class="st1" d="M408.7,443.1c-38.2,31.4-84.9,50.7-134.1,55.6c-66,6.5-131.9-13.4-183.1-55.4c-51.3-42-83.8-102.7-90.3-168.7
	c-4.9-49.2,5-98.8,28.2-142.4C52.7,88.6,88.4,52.8,132,29.5C175.6,6.1,225.1-3.7,274.4,1.1c49.2,4.8,95.9,24.1,134.1,55.5
	l-50.4,61.5c-26.1-21.4-57.9-34.5-91.5-37.8c-33.6-3.3-67.3,3.5-97,19.4c-29.7,15.9-54.1,40.3-69.9,70
	c-15.9,29.7-22.6,63.5-19.2,97.1c4.5,45,26.6,86.4,61.6,115c35,28.7,79.9,42.3,124.9,37.8c33.5-3.3,65.4-16.5,91.4-37.9L408.7,443.1
	z"/>
<path class="st2" d="M250,469.8c121.5,0,219.9-98.5,219.9-219.9C469.9,128.4,371.5,30,250,30C128.5,30,30.1,128.4,30.1,249.9
	C30.1,371.4,128.5,469.8,250,469.8z"/>
<path class="st3" d="M283.8,252.6c-2-5.8-5.4-11-9.9-15l-1.7-1.5l-0.1-0.1c-0.6-0.5-1.1-0.9-1.7-1.3l-0.1-0.1
	c-0.6-0.4-1.1-0.8-1.8-1.2c-0.1,0-0.1-0.1-0.2-0.1c-0.6-0.4-1.2-0.7-1.8-1c-0.1,0-0.1-0.1-0.2-0.1c-0.6-0.3-1.2-0.6-1.9-0.9
	c-0.1,0-0.1-0.1-0.2-0.1c-0.6-0.2-1.1-0.5-1.7-0.7c-1.5-0.6-3.2-1.1-4.8-1.4c-1.2,2.4-3,4.6-4.9,6.4c3,0.2,5.8,1,8.4,2
	c1.5,0.7,3.1,1.5,4.4,2.3c0.1,0,0.2,0.1,0.2,0.1c0.4,0.2,0.7,0.5,1.1,0.8c0.2,0.1,0.3,0.2,0.5,0.4c0.3,0.2,0.7,0.5,1,0.8
	c0.2,0.2,0.4,0.3,0.6,0.5c0.3,0.3,0.6,0.5,0.9,0.8l0.6,0.6l0.8,0.8l0.6,0.6c0.2,0.3,0.5,0.6,0.7,0.8c0.2,0.2,0.4,0.5,0.6,0.7
	l0.6,0.9c0.2,0.3,0.4,0.5,0.5,0.8l0.6,0.9c0.2,0.3,0.3,0.6,0.5,0.8c0.2,0.3,0.3,0.6,0.5,0.9c0.2,0.3,0.3,0.6,0.5,0.9
	c0.1,0.3,0.3,0.6,0.4,0.9c0.2,0.4,0.3,0.8,0.5,1.1c0.8,1.9,1.3,4,1.6,6.2l0.9,3.4c0.4,1.5,3.8,13.9,11.8,18.1
	c9.2,4.9,21.3,10.9,26.1,13.2l-62.9,38.3v-26.3c0-4.2,8.1-9,11.8-10.7l0.2-0.1c0.8-0.4,1.5-0.8,2.3-1.3l0.3-0.2
	c1.6-1,3.2-2.1,4.6-3.4c0.1-0.1,0.3-0.2,0.4-0.4c0.2-0.1,0.3-0.3,0.5-0.4c0.5-0.4,0.9-0.9,1.3-1.3l0.2-0.2c0.5-0.5,1-1,1.3-1.6
	c0.1-0.2,0.3-0.3,0.4-0.5c0.4-0.4,0.7-0.9,1.1-1.4c0.1-0.1,0.2-0.3,0.3-0.4l1.1-1.8c0-0.1,0.1-0.1,0.1-0.2c0.5-0.8,1-1.7,1.4-2.4
	c-1.9-2.3-3.3-4.9-4.5-7.2c-0.5,1.5-1.1,2.9-1.8,4.2c-0.3,0.6-0.7,1.2-1,1.8c-0.1,0.1-0.1,0.2-0.2,0.2c-0.3,0.5-0.7,1-1,1.4
	c-0.1,0.1-0.2,0.3-0.3,0.4c-0.3,0.5-0.7,0.9-1.1,1.3c-0.1,0.1-0.1,0.2-0.2,0.2c-2.3,2.6-5.1,4.9-8.2,6.4l-0.6,0.3
	c-1.6,0.7-15.7,7.2-15.7,17V333l-63-38.2c4.1-2.5,15.9-9.7,25.7-12.8c3.8-1.3,11.9,4,16.5,7.8l0.3,0.3c0.6,0.6,1.2,1.2,1.9,1.7
	l0.2,0.2c1.4,1.2,3,2.3,4.7,3.2l1.1,0.6c0.1,0,0.2,0.1,0.2,0.1c1.1,0.6,2.1,1.1,3.2,1.6c0.2,0.1,0.3,0.1,0.5,0.2
	c0.1,0,0.2,0.1,0.4,0.1c1.6,0.6,3.2,1.1,4.9,1.5c1.2-2.4,3.1-4.6,5-6.4c-2.8-0.2-5.3-0.8-7.8-1.8c-0.1-0.1-0.3-0.1-0.4-0.2
	c-0.3-0.1-0.6-0.2-0.9-0.4c-0.1-0.1-0.3-0.1-0.4-0.2c-0.3-0.1-0.6-0.3-0.8-0.4c-1.9-1-3.6-2-5.3-3.4l-2.5-2.3
	c-0.1-0.1-3.2-2.9-7.4-5.4c-6.2-3.6-11.5-4.8-15.5-3.5c-8.3,2.7-17.8,7.9-23.5,11.3l62.9-115.2v50.5c0,1.8-2.6,6.4-11.3,10.4
	l-0.6,0.3c-0.9,0.4-1.6,0.9-2.5,1.4l-0.2,0.1c-1.6,1-3.2,2.1-4.7,3.4c-1,0.8-1.8,1.7-2.6,2.5l-0.1,0.1c-0.9,0.9-1.6,1.8-2.3,2.7
	l-0.1,0.1c-0.4,0.5-0.7,1-1.1,1.5c0,0.1-0.1,0.1-0.1,0.2c-0.3,0.5-0.6,0.9-0.9,1.4c0,0.1-0.1,0.1-0.1,0.2l-0.9,1.5
	c-0.1,0.1-0.1,0.2-0.2,0.4c-0.3,0.5-0.5,1-0.7,1.4c0,0.1-0.1,0.2-0.1,0.2c-0.2,0.5-0.4,0.9-0.6,1.4c-0.1,0.2-0.1,0.3-0.2,0.5
	l-0.6,1.5c-0.1,0.2-0.1,0.3-0.2,0.5c-0.1,0.4-0.2,0.7-0.4,1.1c-0.1,0.2-0.1,0.4-0.2,0.6c-0.1,0.5-0.3,1-0.4,1.4
	c-0.1,0.2-0.1,0.5-0.2,0.7c-0.1,0.3-0.1,0.7-0.2,1c-0.1,0.3-0.1,0.6-0.2,0.9c-0.1,0.4-0.1,0.8-0.2,1.2c0,0.3-0.1,0.5-0.1,0.8
	c0,0.4-0.1,0.7-0.1,1.1c0,0.4,0,0.7-0.1,1.1v1.5c0,1.8,0.1,3.6,0.4,5.3c2.5,0.6,5.1,1.7,7.8,3c-0.8-2.5-1.1-5.2-1.2-7.9V264
	c0-0.7,0-1.3,0.1-1.9v-0.5c0-0.6,0.1-1.1,0.2-1.7v-0.2c0.1-0.6,0.2-1.2,0.3-1.8c0-0.2,0.1-0.3,0.1-0.5c0.1-0.5,0.3-1,0.4-1.5
	c0-0.1,0.1-0.2,0.1-0.3l0.6-1.8c0.1-0.1,0.1-0.3,0.2-0.4c0.2-0.5,0.4-1,0.6-1.4c0.1-0.1,0.1-0.2,0.2-0.4c0.3-0.6,0.5-1.1,0.9-1.6
	c0.1-0.1,0.1-0.2,0.2-0.3c0.3-0.5,0.5-0.9,0.8-1.4c0.1-0.1,0.1-0.2,0.2-0.3c0.3-0.5,0.7-1,1.1-1.5c0,0,0-0.1,0.1-0.1
	c0.4-0.5,0.7-0.9,1-1.4c0.1-0.1,0.1-0.2,0.2-0.3c1.7-1.9,3.6-3.6,5.8-5.1l3-1.5c1.6-0.7,15.6-7.4,15.6-17.2v-50.2l63.5,116.1
	c-5.6-2.8-15.7-7.9-23.4-12c-4.5-2.3-7.4-10.6-8.3-13.6l-0.9-3.5C284.9,256.3,284.4,254.5,283.8,252.6z M326.8,289.2l-70-127.9
	c-1.2-2.3-3.5-3.7-6.1-3.7c-2.6,0-4.9,1.4-6.1,3.7l-70,127.9c-1.8,3.3-0.8,7.6,2.5,9.5l70.1,42.7c1.1,0.7,2.4,1,3.6,1
	c1.2,0,2.5-0.3,3.6-1l70-42.6C327.6,296.8,328.7,292.5,326.8,289.2z"/>
<defs>
	<filter id="Adobe_OpacityMaskFilter" filterUnits="userSpaceOnUse" x="173.2" y="157.1" width="155" height="185.8">
		<feColorMatrix  type="matrix" values="1 0 0 0 0  0 1 0 0 0  0 0 1 0 0  0 0 0 1 0"/>
	</filter>
</defs>
<mask maskUnits="userSpaceOnUse" x="173.2" y="157.1" width="155" height="185.8" id="path-4-outside-1_1_">
	<rect x="171.8" y="155.6" class="st4" width="158.2" height="189.5"/>
	<path class="st5" d="M283.8,252.6c-2-5.8-5.4-11-9.9-15l-1.7-1.5l-0.1-0.1c-0.6-0.5-1.1-0.9-1.7-1.3l-0.1-0.1
		c-0.6-0.4-1.1-0.8-1.8-1.2c-0.1,0-0.1-0.1-0.2-0.1c-0.6-0.4-1.2-0.7-1.8-1c-0.1,0-0.1-0.1-0.2-0.1c-0.6-0.3-1.2-0.6-1.9-0.9
		c-0.1,0-0.1-0.1-0.2-0.1c-0.6-0.2-1.1-0.5-1.7-0.7c-1.5-0.6-3.2-1.1-4.8-1.4c-1.2,2.4-3,4.6-4.9,6.4c3,0.2,5.8,1,8.4,2
		c1.5,0.7,3.1,1.5,4.4,2.3c0.1,0,0.2,0.1,0.2,0.1c0.4,0.2,0.7,0.5,1.1,0.8c0.2,0.1,0.3,0.2,0.5,0.4c0.3,0.2,0.7,0.5,1,0.8
		c0.2,0.2,0.4,0.3,0.6,0.5c0.3,0.3,0.6,0.5,0.9,0.8l0.6,0.6l0.8,0.8l0.6,0.6c0.2,0.3,0.5,0.6,0.7,0.8c0.2,0.2,0.4,0.5,0.6,0.7
		l0.6,0.9c0.2,0.3,0.4,0.5,0.5,0.8l0.6,0.9c0.2,0.3,0.3,0.6,0.5,0.8c0.2,0.3,0.3,0.6,0.5,0.9c0.2,0.3,0.3,0.6,0.5,0.9
		c0.1,0.3,0.3,0.6,0.4,0.9c0.2,0.4,0.3,0.8,0.5,1.1c0.8,1.9,1.3,4,1.6,6.2l0.9,3.4c0.4,1.5,3.8,13.9,11.8,18.1
		c9.2,4.9,21.3,10.9,26.1,13.2l-62.9,38.3v-26.3c0-4.2,8.1-9,11.8-10.7l0.2-0.1c0.8-0.4,1.5-0.8,2.3-1.3l0.3-0.2
		c1.6-1,3.2-2.1,4.6-3.4c0.1-0.1,0.3-0.2,0.4-0.4c0.2-0.1,0.3-0.3,0.5-0.4c0.5-0.4,0.9-0.9,1.3-1.3l0.2-0.2c0.5-0.5,1-1,1.3-1.6
		c0.1-0.2,0.3-0.3,0.4-0.5c0.4-0.4,0.7-0.9,1.1-1.4c0.1-0.1,0.2-0.3,0.3-0.4l1.1-1.8c0-0.1,0.1-0.1,0.1-0.2c0.5-0.8,1-1.7,1.4-2.4
		c-1.9-2.3-3.3-4.9-4.5-7.2c-0.5,1.5-1.1,2.9-1.8,4.2c-0.3,0.6-0.7,1.2-1,1.8c-0.1,0.1-0.1,0.2-0.2,0.2c-0.3,0.5-0.7,1-1,1.4
		c-0.1,0.1-0.2,0.3-0.3,0.4c-0.3,0.5-0.7,0.9-1.1,1.3c-0.1,0.1-0.1,0.2-0.2,0.2c-2.3,2.6-5.1,4.9-8.2,6.4l-0.6,0.3
		c-1.6,0.7-15.7,7.2-15.7,17V333l-63-38.2c4.1-2.5,15.9-9.7,25.7-12.8c3.8-1.3,11.9,4,16.5,7.8l0.3,0.3c0.6,0.6,1.2,1.2,1.9,1.7
		l0.2,0.2c1.4,1.2,3,2.3,4.7,3.2l1.1,0.6c0.1,0,0.2,0.1,0.2,0.1c1.1,0.6,2.1,1.1,3.2,1.6c0.2,0.1,0.3,0.1,0.5,0.2
		c0.1,0,0.2,0.1,0.4,0.1c1.6,0.6,3.2,1.1,4.9,1.5c1.2-2.4,3.1-4.6,5-6.4c-2.8-0.2-5.3-0.8-7.8-1.8c-0.1-0.1-0.3-0.1-0.4-0.2
		c-0.3-0.1-0.6-0.2-0.9-0.4c-0.1-0.1-0.3-0.1-0.4-0.2c-0.3-0.1-0.6-0.3-0.8-0.4c-1.9-1-3.6-2-5.3-3.4l-2.5-2.3
		c-0.1-0.1-3.2-2.9-7.4-5.4c-6.2-3.6-11.5-4.8-15.5-3.5c-8.3,2.7-17.8,7.9-23.5,11.3l62.9-115.2v50.5c0,1.8-2.6,6.4-11.3,10.4
		l-0.6,0.3c-0.9,0.4-1.6,0.9-2.5,1.4l-0.2,0.1c-1.6,1-3.2,2.1-4.7,3.4c-1,0.8-1.8,1.7-2.6,2.5l-0.1,0.1c-0.9,0.9-1.6,1.8-2.3,2.7
		l-0.1,0.1c-0.4,0.5-0.7,1-1.1,1.5c0,0.1-0.1,0.1-0.1,0.2c-0.3,0.5-0.6,0.9-0.9,1.4c0,0.1-0.1,0.1-0.1,0.2l-0.9,1.5
		c-0.1,0.1-0.1,0.2-0.2,0.4c-0.3,0.5-0.5,1-0.7,1.4c0,0.1-0.1,0.2-0.1,0.2c-0.2,0.5-0.4,0.9-0.6,1.4c-0.1,0.2-0.1,0.3-0.2,0.5
		l-0.6,1.5c-0.1,0.2-0.1,0.3-0.2,0.5c-0.1,0.4-0.2,0.7-0.4,1.1c-0.1,0.2-0.1,0.4-0.2,0.6c-0.1,0.5-0.3,1-0.4,1.4
		c-0.1,0.2-0.1,0.5-0.2,0.7c-0.1,0.3-0.1,0.7-0.2,1c-0.1,0.3-0.1,0.6-0.2,0.9c-0.1,0.4-0.1,0.8-0.2,1.2c0,0.3-0.1,0.5-0.1,0.8
		c0,0.4-0.1,0.7-0.1,1.1c0,0.4,0,0.7-0.1,1.1v1.5c0,1.8,0.1,3.6,0.4,5.3c2.5,0.6,5.1,1.7,7.8,3c-0.8-2.5-1.1-5.2-1.2-7.9V264
		c0-0.7,0-1.3,0.1-1.9v-0.5c0-0.6,0.1-1.1,0.2-1.7v-0.2c0.1-0.6,0.2-1.2,0.3-1.8c0-0.2,0.1-0.3,0.1-0.5c0.1-0.5,0.3-1,0.4-1.5
		c0-0.1,0.1-0.2,0.1-0.3l0.6-1.8c0.1-0.1,0.1-0.3,0.2-0.4c0.2-0.5,0.4-1,0.6-1.4c0.1-0.1,0.1-0.2,0.2-0.4c0.3-0.6,0.5-1.1,0.9-1.6
		c0.1-0.1,0.1-0.2,0.2-0.3c0.3-0.5,0.5-0.9,0.8-1.4c0.1-0.1,0.1-0.2,0.2-0.3c0.3-0.5,0.7-1,1.1-1.5c0,0,0-0.1,0.1-0.1
		c0.4-0.5,0.7-0.9,1-1.4c0.1-0.1,0.1-0.2,0.2-0.3c1.7-1.9,3.6-3.6,5.8-5.1l3-1.5c1.6-0.7,15.6-7.4,15.6-17.2v-50.2l63.5,116.1
		c-5.6-2.8-15.7-7.9-23.4-12c-4.5-2.3-7.4-10.6-8.3-13.6l-0.9-3.5C284.9,256.3,284.4,254.5,283.8,252.6z M326.8,289.2l-70-127.9
		c-1.2-2.3-3.5-3.7-6.1-3.7c-2.6,0-4.9,1.4-6.1,3.7l-70,127.9c-1.8,3.3-0.8,7.6,2.5,9.5l70.1,42.7c1.1,0.7,2.4,1,3.6,1
		c1.2,0,2.5-0.3,3.6-1l70-42.6C327.6,296.8,328.7,292.5,326.8,289.2z"/>
</mask>
<path class="st6" d="M283.8,252.6c-2-5.8-5.4-11-9.9-15l-1.7-1.5l-0.1-0.1c-0.6-0.5-1.1-0.9-1.7-1.3l-0.1-0.1
	c-0.6-0.4-1.1-0.8-1.8-1.2c-0.1,0-0.1-0.1-0.2-0.1c-0.6-0.4-1.2-0.7-1.8-1c-0.1,0-0.1-0.1-0.2-0.1c-0.6-0.3-1.2-0.6-1.9-0.9
	c-0.1,0-0.1-0.1-0.2-0.1c-0.6-0.2-1.1-0.5-1.7-0.7c-1.5-0.6-3.2-1.1-4.8-1.4c-1.2,2.4-3,4.6-4.9,6.4c3,0.2,5.8,1,8.4,2
	c1.5,0.7,3.1,1.5,4.4,2.3c0.1,0,0.2,0.1,0.2,0.1c0.4,0.2,0.7,0.5,1.1,0.8c0.2,0.1,0.3,0.2,0.5,0.4c0.3,0.2,0.7,0.5,1,0.8
	c0.2,0.2,0.4,0.3,0.6,0.5c0.3,0.3,0.6,0.5,0.9,0.8l0.6,0.6l0.8,0.8l0.6,0.6c0.2,0.3,0.5,0.6,0.7,0.8c0.2,0.2,0.4,0.5,0.6,0.7
	l0.6,0.9c0.2,0.3,0.4,0.5,0.5,0.8l0.6,0.9c0.2,0.3,0.3,0.6,0.5,0.8c0.2,0.3,0.3,0.6,0.5,0.9c0.2,0.3,0.3,0.6,0.5,0.9
	c0.1,0.3,0.3,0.6,0.4,0.9c0.2,0.4,0.3,0.8,0.5,1.1c0.8,1.9,1.3,4,1.6,6.2l0.9,3.4c0.4,1.5,3.8,13.9,11.8,18.1
	c9.2,4.9,21.3,10.9,26.1,13.2l-62.9,38.3v-26.3c0-4.2,8.1-9,11.8-10.7l0.2-0.1c0.8-0.4,1.5-0.8,2.3-1.3l0.3-0.2
	c1.6-1,3.2-2.1,4.6-3.4c0.1-0.1,0.3-0.2,0.4-0.4c0.2-0.1,0.3-0.3,0.5-0.4c0.5-0.4,0.9-0.9,1.3-1.3l0.2-0.2c0.5-0.5,1-1,1.3-1.6
	c0.1-0.2,0.3-0.3,0.4-0.5c0.4-0.4,0.7-0.9,1.1-1.4c0.1-0.1,0.2-0.3,0.3-0.4l1.1-1.8c0-0.1,0.1-0.1,0.1-0.2c0.5-0.8,1-1.7,1.4-2.4
	c-1.9-2.3-3.3-4.9-4.5-7.2c-0.5,1.5-1.1,2.9-1.8,4.2c-0.3,0.6-0.7,1.2-1,1.8c-0.1,0.1-0.1,0.2-0.2,0.2c-0.3,0.5-0.7,1-1,1.4
	c-0.1,0.1-0.2,0.3-0.3,0.4c-0.3,0.5-0.7,0.9-1.1,1.3c-0.1,0.1-0.1,0.2-0.2,0.2c-2.3,2.6-5.1,4.9-8.2,6.4l-0.6,0.3
	c-1.6,0.7-15.7,7.2-15.7,17V333l-63-38.2c4.1-2.5,15.9-9.7,25.7-12.8c3.8-1.3,11.9,4,16.5,7.8l0.3,0.3c0.6,0.6,1.2,1.2,1.9,1.7
	l0.2,0.2c1.4,1.2,3,2.3,4.7,3.2l1.1,0.6c0.1,0,0.2,0.1,0.2,0.1c1.1,0.6,2.1,1.1,3.2,1.6c0.2,0.1,0.3,0.1,0.5,0.2
	c0.1,0,0.2,0.1,0.4,0.1c1.6,0.6,3.2,1.1,4.9,1.5c1.2-2.4,3.1-4.6,5-6.4c-2.8-0.2-5.3-0.8-7.8-1.8c-0.1-0.1-0.3-0.1-0.4-0.2
	c-0.3-0.1-0.6-0.2-0.9-0.4c-0.1-0.1-0.3-0.1-0.4-0.2c-0.3-0.1-0.6-0.3-0.8-0.4c-1.9-1-3.6-2-5.3-3.4l-2.5-2.3
	c-0.1-0.1-3.2-2.9-7.4-5.4c-6.2-3.6-11.5-4.8-15.5-3.5c-8.3,2.7-17.8,7.9-23.5,11.3l62.9-115.2v50.5c0,1.8-2.6,6.4-11.3,10.4
	l-0.6,0.3c-0.9,0.4-1.6,0.9-2.5,1.4l-0.2,0.1c-1.6,1-3.2,2.1-4.7,3.4c-1,0.8-1.8,1.7-2.6,2.5l-0.1,0.1c-0.9,0.9-1.6,1.8-2.3,2.7
	l-0.1,0.1c-0.4,0.5-0.7,1-1.1,1.5c0,0.1-0.1,0.1-0.1,0.2c-0.3,0.5-0.6,0.9-0.9,1.4c0,0.1-0.1,0.1-0.1,0.2l-0.9,1.5
	c-0.1,0.1-0.1,0.2-0.2,0.4c-0.3,0.5-0.5,1-0.7,1.4c0,0.1-0.1,0.2-0.1,0.2c-0.2,0.5-0.4,0.9-0.6,1.4c-0.1,0.2-0.1,0.3-0.2,0.5
	l-0.6,1.5c-0.1,0.2-0.1,0.3-0.2,0.5c-0.1,0.4-0.2,0.7-0.4,1.1c-0.1,0.2-0.1,0.4-0.2,0.6c-0.1,0.5-0.3,1-0.4,1.4
	c-0.1,0.2-0.1,0.5-0.2,0.7c-0.1,0.3-0.1,0.7-0.2,1c-0.1,0.3-0.1,0.6-0.2,0.9c-0.1,0.4-0.1,0.8-0.2,1.2c0,0.3-0.1,0.5-0.1,0.8
	c0,0.4-0.1,0.7-0.1,1.1c0,0.4,0,0.7-0.1,1.1v1.5c0,1.8,0.1,3.6,0.4,5.3c2.5,0.6,5.1,1.7,7.8,3c-0.8-2.5-1.1-5.2-1.2-7.9V264
	c0-0.7,0-1.3,0.1-1.9v-0.5c0-0.6,0.1-1.1,0.2-1.7v-0.2c0.1-0.6,0.2-1.2,0.3-1.8c0-0.2,0.1-0.3,0.1-0.5c0.1-0.5,0.3-1,0.4-1.5
	c0-0.1,0.1-0.2,0.1-0.3l0.6-1.8c0.1-0.1,0.1-0.3,0.2-0.4c0.2-0.5,0.4-1,0.6-1.4c0.1-0.1,0.1-0.2,0.2-0.4c0.3-0.6,0.5-1.1,0.9-1.6
	c0.1-0.1,0.1-0.2,0.2-0.3c0.3-0.5,0.5-0.9,0.8-1.4c0.1-0.1,0.1-0.2,0.2-0.3c0.3-0.5,0.7-1,1.1-1.5c0,0,0-0.1,0.1-0.1
	c0.4-0.5,0.7-0.9,1-1.4c0.1-0.1,0.1-0.2,0.2-0.3c1.7-1.9,3.6-3.6,5.8-5.1l3-1.5c1.6-0.7,15.6-7.4,15.6-17.2v-50.2l63.5,116.1
	c-5.6-2.8-15.7-7.9-23.4-12c-4.5-2.3-7.4-10.6-8.3-13.6l-0.9-3.5C284.9,256.3,284.4,254.5,283.8,252.6z M326.8,289.2l-70-127.9
	c-1.2-2.3-3.5-3.7-6.1-3.7c-2.6,0-4.9,1.4-6.1,3.7l-70,127.9c-1.8,3.3-0.8,7.6,2.5,9.5l70.1,42.7c1.1,0.7,2.4,1,3.6,1
	c1.2,0,2.5-0.3,3.6-1l70-42.6C327.6,296.8,328.7,292.5,326.8,289.2z"/>
</svg>
