<svg aria-hidden="true" data-testid="test-icon" fill="currentColor" viewBox="0 0 24 24" xmlns="http://www.w3.org/2000/svg"><path fill-rule="evenodd" clip-rule="evenodd" d="M19.364 12a7.364 7.364 0 10-14.728 0 7.364 7.364 0 0014.728 0zM12 3a9 9 0 110 18 9 9 0 010-18z"/><path d="M14.695 8.2a.818.818 0 011.157 1.157L12.58 12.63a.818.818 0 01-1.157 0L8.15 9.357A.818.818 0 119.307 8.2L12 10.894 14.695 8.2z"/><path d="M9.307 15.799a.818.818 0 01-1.157-1.157l3.272-3.273a.818.818 0 011.157 0l3.273 3.273a.818.818 0 01-1.157 1.157l-2.694-2.694-2.694 2.694z"/></svg>
