<?xml version="1.0" encoding="utf-8"?>
<!-- Generator: Adobe Illustrator 24.1.0, SVG Export Plug-In . SVG Version: 6.00 Build 0)  -->
<svg version="1.1" id="CRPT" xmlns="http://www.w3.org/2000/svg" xmlns:xlink="http://www.w3.org/1999/xlink" x="0px" y="0px"
	 viewBox="0 0 500 500" style="enable-background:new 0 0 500 500;" xml:space="preserve">
<style type="text/css">
	.st0{fill:#439DFC;}
</style>
<path class="st0" d="M408,93.5c-37.9-30.6-83.1-48.1-129.8-48.1c-51.1,0-100.6,19-138.6,55.4S79.8,184,76.9,236.5v5.8h23.3v-4.4
	c5.8-93.3,84.6-166.3,177.9-166.3c42.3,0,81.7,14.6,113.8,40.8l1.5,1.5l17.5-17.5L408,93.5z"/>
<path class="st0" d="M384.7,325.4c-24.8,33.5-64.2,54-106.5,54c-72.9,0-131.3-58.3-131.3-131.3c0-71.5,58.3-129.8,131.3-129.8
	c42.3,0,81.7,20.4,106.5,54l1.5,2.9l17.5-17.5l-1.5-1.5C373,116.9,326.3,95,278.2,95c-86.1-1.5-154.6,68.6-154.6,153.2
	c0,86.1,70,154.6,154.6,154.6c48.1,0,94.8-23.3,124-61.3l1.5-1.5l-17.5-17.5L384.7,325.4z"/>
<path class="st0" d="M435.7,122.7c-4.4-4.4-7.3-10.2-11.7-14.6l-1.5-1.5l-17.5,17.5l1.5,1.5c4.4,4.4,8.8,8.8,11.7,14.6l1.5,2.9
	l17.5-17.5L435.7,122.7z"/>
<path class="st0" d="M391.9,385.2l-1.5,1.5c-32.1,26.3-71.5,40.8-113.8,40.8c-93.3,0-172.1-72.9-177.9-166.3v-5.8H75.4v5.8
	c2.9,51.1,26.3,99.2,62.7,135.6c37.9,35,87.5,55.4,138.6,55.4c48.1,0,93.3-17.5,129.8-48.1l1.5-1.5L391.9,385.2z"/>
<path class="st0" d="M419.7,356.1l-1.5,2.9c-2.9,4.4-7.3,8.8-11.7,14.6l-1.5,1.5l17.5,17.5l1.5-1.5c4.4-4.4,8.8-10.2,11.7-14.6
	l1.5-1.5L419.7,356.1z"/>
<path class="st0" d="M450.3,391.1c-42.3,51.1-105,81.7-172.1,81.7C154.2,472.8,55,372.1,55,248.1S154.2,25,278.2,25
	c67.1,0,129.8,29.2,172.1,81.7l1.5,2.9l17.5-17.5l-1.5-1.5c-46.7-56.9-116.7-89-189.6-89c-137.1,0-248,110.9-248,248
	s110.9,248,248,248c72.9,0,142.9-32.1,189.6-89l1.5-1.5l-17.5-17.5L450.3,391.1z"/>
</svg>
