<?xml version="1.0" encoding="iso-8859-1"?>
<!-- Generator: Adobe Illustrator 19.0.0, SVG Export Plug-In . SVG Version: 6.00 Build 0)  -->
<svg version="1.1" id="Layer_1" xmlns="http://www.w3.org/2000/svg" xmlns:xlink="http://www.w3.org/1999/xlink" x="0px" y="0px"
	 viewBox="0 0 500 500" style="enable-background:new 0 0 500 500;" xml:space="preserve">
<g>
	<path style="fill:#111111;" d="M249.399,494.018C113.793,494.042,4.051,384.559,4,249.2C3.949,113.876,113.733,4.051,249.124,3.982
		c135.28-0.069,245.036,109.87,244.909,245.317C493.907,384.552,384.503,493.994,249.399,494.018z M239.396,133.653
		c-2.848,0.63-5.414,1.211-7.987,1.764c-26.571,5.712-48.759,18.729-64.159,41.289c-25.293,37.053-28.398,76.883-11.974,118.271
		c11.954,30.126,33.161,51.237,63.723,62.479c6.801,2.502,13.956,4.041,21.121,6.072c0.128,0.967,0.474,1.94,0.342,2.844
		c-1.432,9.857-2.47,19.805-4.557,29.525c-2.096,9.763-5.229,19.327-11.829,27.225c-7.823,9.361-18.865,10.481-29.329,2.856
		c1.075-1.261,2.207-2.466,3.201-3.776c4.941-6.511,4.911-15.463-0.031-21.699c-4.915-6.201-13.09-8.319-20.394-5.283
		c-7.57,3.147-12.105,10.58-10.43,18.841c0.939,4.632,2.769,9.447,5.459,13.297c11.449,16.387,31.518,21.913,50.668,14.467
		c17.005-6.612,28.605-18.968,36.78-34.877c6.746-13.128,10.645-27.11,11.864-42.18c2.829-0.458,5.451-0.873,8.07-1.307
		c25.298-4.193,47.284-14.733,64.744-33.883c3.286-3.604,6.418-7.358,6.852-12.429c-3.948-7.536-8.034-8.6-14.399-3.795
		c-1.551,1.171-2.88,2.635-4.421,3.821c-5.593,4.304-11.028,8.855-16.896,12.75c-13.176,8.746-28.045,12.95-43.395,15.948
		c-1.429-7.353-2.484-189.741-1.18-193.859c19.795,1.95,35.028,10.878,44.362,28.899c2.911,5.62,5.475,11.431,8.602,16.924
		c2.935,5.155,7.12,6.691,11.569,4.952c3.795-1.483,4.855-4.526,4.258-10.486c-0.626-6.253-1.69-12.619-1.105-18.797
		c0.813-8.578-2.517-14.374-8.947-19.421c-12.798-10.044-27.581-15.301-43.213-18.618c-5.187-1.101-10.46-1.792-16.056-2.731
		c1.33-17.471,3.237-34.386,10.152-50.16c2.283-5.209,5.839-10.235,9.926-14.195c7.09-6.868,17.956-6.276,25.708,0.411
		c-1.348,1.709-2.861,3.316-4.014,5.15c-3.526,5.609-3.802,11.484-0.754,17.367c4.025,7.768,12.977,11.328,21.132,8.555
		c8.181-2.782,12.878-10.748,11.588-19.653C342.211,64.761,325,50.259,307.988,49.472c-15.593-0.721-28.419,5.747-39.699,15.71
		c-10.269,9.07-16.909,20.674-21.674,33.378C242.415,109.753,239.715,121.301,239.396,133.653z"/>
	<path style="fill:#FFFFFF;" d="M239.396,133.653c0.319-12.352,3.019-23.9,7.218-35.093c4.766-12.704,11.405-24.308,21.674-33.378
		c11.28-9.963,24.107-16.431,39.699-15.71c17.012,0.787,34.223,15.289,36.461,30.741c1.29,8.905-3.407,16.871-11.588,19.653
		c-8.155,2.773-17.107-0.787-21.132-8.555c-3.048-5.883-2.772-11.758,0.754-17.367c1.153-1.834,2.666-3.441,4.014-5.15
		c-7.752-6.686-18.618-7.279-25.708-0.411c-4.088,3.959-7.643,8.986-9.926,14.195c-6.914,15.774-8.822,32.689-10.152,50.16
		c5.596,0.939,10.869,1.63,16.056,2.731c15.631,3.317,30.415,8.574,43.213,18.618c6.431,5.047,9.76,10.843,8.947,19.421
		c-0.585,6.178,0.479,12.544,1.105,18.797c0.597,5.96-0.463,9.003-4.258,10.486c-4.449,1.739-8.634,0.204-11.569-4.952
		c-3.127-5.493-5.691-11.304-8.602-16.924c-9.333-18.022-24.567-26.949-44.362-28.899c-1.305,4.118-0.249,186.506,1.18,193.859
		c15.35-2.998,30.219-7.202,43.395-15.948c5.868-3.895,11.303-8.446,16.896-12.75c1.541-1.186,2.87-2.65,4.421-3.821
		c6.365-4.806,10.451-3.741,14.399,3.795c-0.434,5.071-3.566,8.825-6.852,12.429c-17.46,19.15-39.447,29.69-64.744,33.883
		c-2.619,0.434-5.241,0.849-8.07,1.307c-1.219,15.071-5.118,29.052-11.864,42.18c-8.175,15.908-19.775,28.265-36.78,34.877
		c-19.15,7.446-39.218,1.921-50.668-14.467c-2.69-3.851-4.52-8.665-5.459-13.297c-1.675-8.262,2.86-15.694,10.43-18.841
		c7.304-3.036,15.479-0.918,20.394,5.283c4.942,6.236,4.972,15.188,0.031,21.699c-0.994,1.31-2.126,2.515-3.201,3.776
		c10.464,7.625,21.506,6.505,29.329-2.856c6.6-7.898,9.733-17.462,11.829-27.225c2.087-9.72,3.125-19.668,4.557-29.525
		c0.131-0.904-0.214-1.877-0.342-2.844c-7.165-2.031-14.32-3.571-21.121-6.072c-30.562-11.242-51.768-32.353-63.723-62.479
		c-16.424-41.389-13.32-81.218,11.974-118.271c15.4-22.56,37.588-35.577,64.159-41.289
		C233.981,134.863,236.548,134.282,239.396,133.653z M239.729,153.249c-4.9,1.77-8.848,2.863-12.507,4.574
		c-18.294,8.553-29.715,23.463-36.624,41.796c-11.223,29.779-10.895,60.184-2.232,90.449c4.866,17.001,14.323,31.428,28.641,42.241
		c6.996,5.284,14.597,9.419,24.404,11.377c0-4.863,0.067-9.189-0.011-13.513c-0.541-29.947-1.301-59.891-1.616-89.84
		c-0.274-26.071-0.056-52.146-0.055-78.22C239.729,159.509,239.729,156.904,239.729,153.249z"/>
	<path style="fill:#111111;" d="M239.729,153.249c0,3.655,0,6.26,0,8.864c-0.001,26.073-0.219,52.149,0.055,78.22
		c0.315,29.949,1.075,59.893,1.616,89.84c0.078,4.324,0.011,8.65,0.011,13.513c-9.807-1.958-17.408-6.094-24.404-11.377
		c-14.318-10.813-23.775-25.24-28.641-42.241c-8.663-30.265-8.991-60.67,2.232-90.449c6.909-18.333,18.33-33.243,36.624-41.796
		C230.881,156.112,234.829,155.019,239.729,153.249z"/>
</g>
</svg>
