<?xml version="1.0" encoding="utf-8"?>
<!-- Generator: Adobe Illustrator 23.0.3, SVG Export Plug-In . SVG Version: 6.00 Build 0)  -->
<svg version="1.1" id="csc" xmlns="http://www.w3.org/2000/svg" xmlns:xlink="http://www.w3.org/1999/xlink" x="0px" y="0px"
	 viewBox="0 0 500 500" style="enable-background:new 0 0 500 500;" xml:space="preserve">
<style type="text/css">
	.st0{fill:#BD0A08;}
</style>
<path class="st0" d="M281.5,158.7c0,0,19.5,31.9,35.2,48.5s41.8,43.5,41.8,69.2c0,25.7-22,34-34.8,34c-21,0-34-16.2-34-16.2
	s-3.6,15.4,5.1,29.5s15.6,19.9,15.6,19.9h-56.8c0,0,7.6-6.7,14.6-18.7c7-12,5.7-30.5,5.7-30.5s-8.3,16.5-33.6,16.5
	S204,293,204,275.6c0-19.4,19.8-43.2,44.7-70.4C273.9,177.7,281.5,158.7,281.5,158.7z"/>
<path class="st0" d="M281.8,399.4c-82.5,0-149.4-66.9-149.4-149.4s66.9-149.4,149.4-149.4c36.9,0,70.6,13.4,96.7,35.5l90.8-52.9
	c-3.3-3.7-6.6-7.2-10.1-10.7c-23-23-49.8-41.1-79.7-53.7C364.1,12.3,348.2,7.4,332,4.1v48.1c0,9.5-28.5,13.9-38,13.9h-24
	c-9.5,0-38.7-4.4-38.7-13.9V4.2c-16.1,3.3-31.9,8.2-47.2,14.7c-29.9,12.6-56.7,30.7-79.7,53.7c-3.6,3.6-7.2,7.4-10.6,11.2l40.4,23.7
	c8.2,4.8-2.4,31.6-7.2,39.8L114.9,168c-4.8,8.2-23.4,31.2-31.6,26.4l-39.7-23.3c-8.4,25.4-12.7,51.8-12.7,78.9
	c0,27.3,4.3,54.1,12.9,79.7L83,306.1c8.1-4.9,26.6,17.2,31.5,25.3l12.4,20.6c4.9,8.1,16.2,35.4,8.1,40.3l-40.6,24.5
	c3.2,3.6,6.6,7.2,10,10.6c23,23,49.8,41.1,79.7,53.7c15.1,6.4,30.7,11.2,46.6,14.5v-47.3c0-9.5,29.2-13.9,38.7-13.9h24
	c9.5,0,38,4.4,38,13.9V496c16.4-3.3,32.5-8.3,48.1-14.9c29.9-12.6,56.7-30.7,79.7-53.7c3.2-3.2,6.4-6.6,9.4-10l-91.2-52.7
	C351.6,386.4,318.2,399.4,281.8,399.4z"/>
</svg>
