<?xml version="1.0" encoding="utf-8"?>
<!-- Generator: Adobe Illustrator 25.2.0, SVG Export Plug-In . SVG Version: 6.00 Build 0)  -->
<svg version="1.1" id="ctc" xmlns="http://www.w3.org/2000/svg" xmlns:xlink="http://www.w3.org/1999/xlink" x="0px" y="0px"
	 viewBox="0 0 500 500" style="enable-background:new 0 0 500 500;" xml:space="preserve">
<path d="M490.5,226.7H292c-8.1-14.8-23.8-24.9-41.9-24.9c-26.3,0-47.7,21.4-47.7,47.7s21.4,47.7,47.7,47.7
	c17.8,0,33.4-9.8,41.6-24.3h198.8V226.7z"/>
<path d="M416.2,345.4c-33.2,57.4-95.3,96-166.2,96c-105.8,0-191.9-86.1-191.9-191.9c0-105.8,86.1-191.9,191.9-191.9
	c70.8,0,132.7,38.5,166,95.7l41.6-23.5C416.1,58.1,338.6,9.8,250,9.8C117.9,9.8,10.4,117.3,10.4,249.5
	c0,132.2,107.5,239.7,239.7,239.7c88.6,0,166.2-48.3,207.6-120L416.2,345.4z"/>
</svg>
