<?xml version="1.0" encoding="utf-8"?>
<!-- Generator: Adobe Illustrator 24.1.2, SVG Export Plug-In . SVG Version: 6.00 Build 0)  -->
<svg version="1.1" id="CUSDC" xmlns="http://www.w3.org/2000/svg" xmlns:xlink="http://www.w3.org/1999/xlink" x="0px" y="0px"
	 viewBox="0 0 500 500" style="enable-background:new 0 0 500 500;" xml:space="preserve">
<style type="text/css">
	.st0{fill:#EDF0F2;}
	.st1{fill:url(#SVGID_1_);}
	.st2{fill:#FFFFFF;}
	.st3{fill:#283947;}
	.st4{fill:#657786;}
</style>
<circle class="st0" cx="250" cy="249.9" r="249.9"/>
<linearGradient id="SVGID_1_" gradientUnits="userSpaceOnUse" x1="179.5407" y1="474.5266" x2="257.917" y2="39.9893" gradientTransform="matrix(1 0 0 -1 0 502)">
	<stop  offset="0" style="stop-color:#27D3A2"/>
	<stop  offset="1" style="stop-color:#9388FD"/>
</linearGradient>
<path class="st1" d="M408.7,443.1c-38.2,31.4-84.8,50.7-134,55.6c-66,6.5-131.8-13.4-183.1-55.4c-51.3-42-83.7-102.7-90.3-168.7
	c-4.9-49.2,4.9-98.7,28.2-142.3C52.8,88.6,88.5,52.9,132,29.6C175.6,6.3,225.2-3.6,274.4,1.2c49.2,4.8,95.9,24.1,134.1,55.5
	L358,118.1c-26.1-21.4-57.9-34.5-91.4-37.8c-33.5-3.3-67.3,3.5-97,19.4c-29.7,15.9-54,40.3-69.9,70c-15.9,29.7-22.6,63.5-19.2,97
	c4.5,45,26.6,86.3,61.6,115c35,28.7,79.9,42.2,124.8,37.8c33.5-3.3,65.3-16.5,91.4-37.9L408.7,443.1z"/>
<path class="st2" d="M250,469.8c121.4,0,219.9-98.4,219.9-219.9c0-121.4-98.4-219.9-219.9-219.9c-121.4,0-219.9,98.4-219.9,219.9
	C30.1,371.4,128.6,469.8,250,469.8z"/>
<path class="st3" d="M284.9,267.2c0-19.1-11.8-25.5-34.6-28.6c-16.9-2.4-20.1-6.3-20.1-14s5.7-12.6,16.6-12.6c10,0,15.7,3.4,18,11.3
	c0.2,0.9,0.8,1.6,1.5,2.2c0.7,0.5,1.6,0.8,2.5,0.9h8.7c0.6,0,1.1-0.1,1.7-0.3c0.5-0.2,1-0.6,1.4-1c0.4-0.4,0.6-0.9,0.8-1.5
	c0.2-0.5,0.2-1.1,0.1-1.7c-2.8-12.4-11.3-19.9-24.7-22.3v-13.1c0-1.1-0.4-2.1-1.2-2.9c-0.8-0.8-1.8-1.2-2.9-1.2h-8.3
	c-1.1,0-2.2,0.4-2.9,1.2c-0.8,0.8-1.2,1.8-1.2,2.9v12.7c-16.6,2.3-27.1,13.1-27.1,26.9c0,17.9,11.1,24.8,34.3,27.9
	c15.8,2.5,20.3,5.9,20.3,14.7c0,8.8-7.6,14.7-18.4,14.7c-14.5,0-19.4-6.2-21-14.3c-0.2-0.9-0.7-1.8-1.4-2.4c-0.7-0.6-1.7-0.9-2.6-1
	h-9.5c-0.6,0-1.1,0.1-1.6,0.3c-0.5,0.2-1,0.6-1.3,1c-0.4,0.4-0.6,0.9-0.8,1.5c-0.2,0.5-0.2,1.1-0.1,1.6c2.4,13.6,11.3,23.6,29.4,26
	V309c0,1.1,0.4,2.1,1.2,2.9c0.8,0.8,1.8,1.2,2.9,1.2h8.3c1.1,0,2.2-0.4,2.9-1.2c0.8-0.8,1.2-1.8,1.2-2.9v-12.9
	C274,293.5,284.9,281.8,284.9,267.2z"/>
<path class="st4" d="M221.9,325.8c-15.8-5.7-29.5-16.2-39.2-29.9c-9.7-13.7-14.9-30-14.9-46.7s5.2-33,14.9-46.7
	c9.7-13.7,23.4-24.1,39.2-29.9c1-0.4,1.9-1.2,2.5-2.1c0.6-0.9,1-2,1-3.1v-7.6c0.1-0.7,0-1.4-0.3-2s-0.7-1.1-1.3-1.5
	c-0.6-0.4-1.2-0.6-1.9-0.7c-0.7-0.1-1.4,0-2,0.3c-20,6.3-37.4,18.7-49.7,35.5c-12.4,16.8-19,37-19,57.7c0,20.8,6.7,41,19,57.7
	c12.4,16.8,29.8,29.2,49.7,35.5c0.6,0.3,1.3,0.4,2,0.3c0.7-0.1,1.3-0.3,1.9-0.7c0.6-0.4,1-0.9,1.3-1.5c0.3-0.6,0.4-1.3,0.3-2V331
	c0-1.1-0.4-2.2-1-3.1C223.8,327,223,326.3,221.9,325.8L221.9,325.8z"/>
<path class="st4" d="M278.5,156.1c-0.6-0.3-1.3-0.4-2-0.3c-0.7,0.1-1.3,0.3-1.9,0.7c-0.6,0.4-1,0.9-1.3,1.5c-0.3,0.6-0.4,1.3-0.3,2
	v7.6c0,1.1,0.4,2.2,1,3.1c0.6,0.9,1.5,1.6,2.5,2.1c15.8,5.7,29.5,16.2,39.2,29.9c9.7,13.7,14.9,30,14.9,46.7s-5.2,33-14.9,46.7
	c-9.7,13.7-23.4,24.1-39.2,29.9c-1.1,0.4-2,1.1-2.6,2c-0.6,0.9-1,2-1,3.1v7.6c-0.1,0.7,0,1.4,0.3,2c0.3,0.6,0.7,1.1,1.3,1.5
	c0.6,0.4,1.2,0.6,1.9,0.7c0.7,0.1,1.4,0,2-0.3c20-6.3,37.4-18.7,49.7-35.5c12.4-16.8,19-37,19-57.7c0-20.8-6.7-41-19-57.7
	C315.9,174.8,298.5,162.4,278.5,156.1L278.5,156.1z"/>
</svg>
