<?xml version="1.0" encoding="iso-8859-1"?>
<!-- Generator: Adobe Illustrator 19.0.0, SVG Export Plug-In . SVG Version: 6.00 Build 0)  -->
<svg version="1.1" id="Layer_1" xmlns="http://www.w3.org/2000/svg" xmlns:xlink="http://www.w3.org/1999/xlink" x="0px" y="0px"
	 viewBox="0 0 500 500" style="enable-background:new 0 0 500 500;" xml:space="preserve">
<path style="fill:#20A549;" d="M489.81,198.019c-20.557,0-41.074,0-62.075,0C408.247,140.955,371.308,99.802,314.372,78.1
	c-37.728-14.381-76.248-14.676-114.825-3.096C121.242,98.51,66.429,175.888,70.663,256.731
	c4.52,86.312,64.902,156.853,147.265,173.048c86.711,17.05,180.336-33.434,209.862-127.698c20.566,0,41.234,0,61.916,0
	c-18.534,96.101-112.954,197.352-248.203,191.743C113.229,488.505,10.774,381.636,9.769,251.886
	C8.764,122.05,107.827,18.473,229.754,7.093C365.254-5.554,469.165,93.605,489.81,198.019z M310.595,202.217
	c-7.365-23.87-30.248-40.771-56.287-40.953c-26.356-0.185-49.78,16.534-57.288,40.466c-6.635,21.148-0.784,48.069,34.788,67.572
	c0,22.813,0,45.925,0,68.977c14.984,0,29.426,0,44.18,0c0-23.425,0-46.387,0-69.169
	C310.168,250.489,317.264,223.832,310.595,202.217z"/>
</svg>
