<?xml version="1.0" encoding="utf-8"?>
<!-- Generator: Adobe Illustrator 25.4.1, SVG Export Plug-In . SVG Version: 6.00 Build 0)  -->
<svg version="1.1" id="cvp" xmlns="http://www.w3.org/2000/svg" xmlns:xlink="http://www.w3.org/1999/xlink" x="0px" y="0px"
	 viewBox="0 0 500 500" style="enable-background:new 0 0 500 500;" xml:space="preserve">
<path d="M495.8,202.5L414.3,61.1c-1.2-2.1-3-3.8-5.1-5.1l-72.1-41.6c-2.1-1.2-4.5-1.9-6.9-1.9c0,0,0,0,0,0L166.5,13
	c-2.4,0-4.8,0.7-6.9,1.9L88.8,56.2c-2.1,1.2-3.8,2.9-5,5l-82,141c-1.2,2.1-1.9,4.6-1.9,7.1L0.6,293c0,2.4,0.7,4.8,1.9,6.8
	l81.4,140.2c1.2,2.1,3,3.9,5.2,5.1l71.1,39.9c2.1,1.2,4.4,1.8,6.7,1.8l164.1,0.6c0,0,0,0,0,0c2.5,0,4.9-0.7,7-1.9l69.2-41
	c2-1.2,3.7-2.8,4.8-4.8l83.6-141c1.3-2.1,1.9-4.6,1.9-7v-82.3C497.7,206.9,497,204.6,495.8,202.5z M332.2,288l0.7-28.3l13.6,23.9
	l-0.3,28.3L332.2,288z M315.1,405.5l-23.9-42.9l26.9-44.1l25.3,43.1L315.1,405.5z M149.2,414.2l51.7,2.1l24.2,43.1l-50.2-0.2
	L149.2,414.2z M30.4,292.8l25.7-45.2l24,44.9L55,335.2L30.4,292.8z M104.2,278.9l-24.2-45.3l48.6,1.5l25.6,43L104.2,278.9z
	 M174.6,305.3l24.4,14l-27.5,0.7l-24.9-14.2L174.6,305.3z M175.5,347.6l49.2-1.3l-23.5,42.4l-51.4-2.1L175.5,347.6z M258.7,341.9
	l19.6-11.3l-13.2,21.7l-18.4,11.3L258.7,341.9z M248.5,315.9l-56.6-32.5l-1-67.2l57.9-32.2l57.5,33.5l-1.6,65.9L248.5,315.9z
	 M296.6,110.8l52.1,3.1l-26,39.8l-50.2,0.4L296.6,110.8z M238.7,158L215,171.2l13.6-22.9l23.2-13.7L238.7,158z M323.8,195.8
	l-24.6-14.3l27.3-0.2l24.3,13.9L323.8,195.8z M395.8,189l-46-26.3l28.2-43.2l44.9,23.2L395.8,189z M348.6,86.2l-51.6-3l-24.5-42.8
	l49.8-0.1L348.6,86.2z M270,91.6l-45.9,27.2l-24-46.7l43.7-26.4L270,91.6z M180.7,94.8l22.1,42.9l-25.9,43.5L152.2,140L180.7,94.8z
	 M163.1,212.1l0.4,27.8l-13.2-22.2l-0.2-27.3L163.1,212.1z M122.3,153.5l0.4,53.8L70,205.6l-1.3-52.6L122.3,153.5z M101,311.6
	l47.4,27l-28.1,42.7l-46-24.3L101,311.6z M253.8,453.9l-26-46.3l42.3-26.1l25.7,46L253.8,453.9z M368.6,266.6L343.7,223l48.6-1.2
	l23.7,47.1L368.6,266.6z M374,294.5l51.7,2.5l1.9,51.3l-54.2-0.1L374,294.5z M440.1,255.3l-23.7-47l25.6-43.6l25.7,44.6L440.1,255.3
	z M406.7,103.3l-23.4-12.1L367.7,64l24.5,14.2L406.7,103.3z M170.3,40.6l28.7-0.1l-21,12.7l-30,0.4L170.3,40.6z M103.8,81.9
	l52.8-0.7l-28.2,44.8l-50-0.4L103.8,81.9z M41.9,188.3l0.7,27.3l-14.7,25.9l-0.2-28.6L41.9,188.3z M91,397.2l23.9,12.6l15.3,26.8
	l-24.2-13.6L91,397.2z M327.3,459.8l-30.7-0.1l21.5-13.5l31.9,0.1L327.3,459.8z M392.4,418.8l-52.9-0.2l27.6-42.8l50.7,0.1
	L392.4,418.8z M454.1,314.8l-1-27.4l17-28.3v28.7L454.1,314.8z"/>
</svg>
