<?xml version="1.0" encoding="iso-8859-1"?>
<!-- Generator: Adobe Illustrator 19.0.0, SVG Export Plug-In . SVG Version: 6.00 Build 0)  -->
<svg version="1.1" id="Layer_1" xmlns="http://www.w3.org/2000/svg" xmlns:xlink="http://www.w3.org/1999/xlink" x="0px" y="0px"
	 viewBox="0 0 500 500" style="enable-background:new 0 0 500 500;" xml:space="preserve">
<linearGradient id="SVGID_1_" gradientUnits="userSpaceOnUse" x1="344.1696" y1="284.229" x2="344.1696" y2="366.0831">
	<stop  offset="4.783163e-04" style="stop-color:#8B008B"/>
	<stop  offset="1" style="stop-color:#4B0082"/>
</linearGradient>
<path style="fill:url(#SVGID_1_);" d="M440.291,190.403c29.637,0.149,53.92,22.492,56.794,52.257
	c2.803,29.03-18.883,56.012-49.19,61.204c-26.858,4.601-59.63,46.542-56.785,73.155c0.397,3.715,2.924,7.227,4.578,10.78
	c11.578,24.886,5.313,53.129-15.513,69.797c-20.944,16.761-50.577,16.776-71.516,0.034c-20.927-16.731-26.699-44.611-15.933-69.916
	c3.004-7.061,4.925-17,2.274-23.574c-6.563-16.271-15.301-31.834-24.657-46.745c-5.583-8.898-14.526-13.04-26.351-13.604
	c-26.182-1.249-46.317-20.149-51.818-45.677c-4.916-22.816,6.084-47.412,26.767-59.848c20.929-12.585,48.167-10.184,66.532,5.864
	c19.093,16.684,24.434,42.174,15.114,66.458c-2.455,6.398-3.419,14.44-1.991,21.064c5.195,24.105,18.547,43.411,37.844,58.761
	c6.987,5.558,12.821,5.472,19.661-0.573c19.336-17.087,31.626-38.087,35.369-63.537c0.771-5.241-2.003-11.338-4.163-16.623
	C371.644,231.34,399.046,190.196,440.291,190.403z"/>
<linearGradient id="SVGID_2_" gradientUnits="userSpaceOnUse" x1="148.1537" y1="251.8451" x2="186.5181" y2="331.1315">
	<stop  offset="0" style="stop-color:#1E90FF"/>
	<stop  offset="1" style="stop-color:#4B0082"/>
</linearGradient>
<path style="fill:url(#SVGID_2_);" d="M97.845,408.215c0.704-2.871,1.674-10.335,4.351-17.127
	c9.943-25.224-10.184-75.592-35.337-86.756c-2.979-1.322-6.717-1.061-10.119-1.286C23.811,300.861,1.07,278.068,1,247.115
	c-0.068-30.537,21.481-52.221,54.276-55.675c5.939-0.626,13.603-2.991,16.902-7.291c11.602-15.121,22.645-30.88,31.924-47.5
	c5.856-10.489,4.601-22.082-0.604-34.163c-12.925-29.998,2.533-63.018,32.89-73.729c29.544-10.423,62.786,6.094,71.546,35.55
	c9.54,32.078-8.086,62.92-40.615,71.072c-33.346,8.356-60.775,41.151-62.634,75.274c-0.207,3.797,0.514,7.972,1.984,11.478
	c6.863,16.37,7.244,32.424,0.408,49.048c-2.095,5.094-2.446,11.752-1.279,17.197c5.513,25.728,19.324,46.6,40.572,61.914
	c5.663,4.082,13.592,5.385,20.697,7.038c28.92,6.727,48.503,34.215,44.559,63.073c-4.053,29.657-31.674,52.339-60.65,49.806
	C120.407,467.533,97.694,442.984,97.845,408.215z"/>
<path style="fill:#8B008B;" d="M399.522,81.778c-0.172,31.32-24.691,55.741-55.64,55.418c-31.002-0.324-54.793-24.859-54.718-56.429
	c0.074-31.191,24.682-55.629,55.701-55.317C375.982,25.762,399.696,50.201,399.522,81.778z"/>
</svg>
