<?xml version="1.0" encoding="utf-8"?>
<!-- Generator: Adobe Illustrator 26.0.3, SVG Export Plug-In . SVG Version: 6.00 Build 0)  -->
<svg version="1.1" id="cvx" xmlns="http://www.w3.org/2000/svg" xmlns:xlink="http://www.w3.org/1999/xlink" x="0px" y="0px"
	 viewBox="0 0 500 500" style="enable-background:new 0 0 500 500;" xml:space="preserve">
<style type="text/css">
	.st0{fill:#1682FE;}
	.st1{fill:#60D8A4;}
	.st2{fill:#F4BB3B;}
	.st3{fill:#FF5A5A;}
	.st4{fill:#3A3A3A;}
</style>
<rect x="283.8" y="97.5" class="st0" width="34.8" height="52.5"/>
<rect x="183.7" class="st0" width="34.8" height="52.5"/>
<rect x="83.7" y="50" class="st1" width="34.8" height="52.5"/>
<rect x="33.7" y="250" class="st2" width="35.2" height="150"/>
<rect x="33.7" y="100" class="st1" width="35.2" height="150"/>
<rect x="333.7" y="147.5" class="st0" width="34.8" height="52.5"/>
<rect x="333.7" y="300" class="st3" width="34.8" height="52.5"/>
<rect x="283.7" y="350" class="st3" width="34.8" height="52.5"/>
<rect x="183.7" y="447.5" class="st3" width="34.8" height="52.5"/>
<rect x="83.7" y="397.5" class="st2" width="34.8" height="52.5"/>
<path class="st4" d="M466.3,200V100h-50V50h-100V0h-100v50h-100v50h-50v300h50v50h100v50h100v-50h100v-50h50V300h-100v50h-50v50
	h-100v-50h-50V150h50v-50h100v50h50v50H466.3z"/>
</svg>
