<?xml version="1.0" encoding="utf-8"?>
<!-- Generator: Adobe Illustrator 24.1.2, SVG Export Plug-In . SVG Version: 6.00 Build 0)  -->
<svg version="1.1" id="CWBTC" xmlns="http://www.w3.org/2000/svg" xmlns:xlink="http://www.w3.org/1999/xlink" x="0px" y="0px"
	 viewBox="0 0 500 500" style="enable-background:new 0 0 500 500;" xml:space="preserve">
<style type="text/css">
	.st0{fill:#EDF0F2;}
	.st1{fill:url(#SVGID_1_);}
	.st2{fill:#FFFFFF;}
	.st3{fill:#657786;}
	.st4{fill:none;stroke:#657786;stroke-width:6.2105;}
	.st5{fill:none;stroke:#283947;stroke-width:6.2105;}
	.st6{fill:none;stroke:#FFFFFF;stroke-width:4.6579;}
</style>
<circle class="st0" cx="250" cy="249.9" r="249.9"/>
<linearGradient id="SVGID_1_" gradientUnits="userSpaceOnUse" x1="179.5407" y1="474.5266" x2="257.917" y2="39.9893" gradientTransform="matrix(1 0 0 -1 0 502)">
	<stop  offset="0" style="stop-color:#27D3A2"/>
	<stop  offset="1" style="stop-color:#9388FD"/>
</linearGradient>
<path class="st1" d="M408.7,443.1c-38.2,31.4-84.8,50.7-134,55.6c-66,6.5-131.8-13.4-183.1-55.4c-51.3-42-83.7-102.7-90.3-168.7
	c-4.9-49.2,4.9-98.7,28.2-142.3C52.8,88.6,88.5,52.9,132,29.6C175.6,6.3,225.2-3.6,274.4,1.2c49.2,4.8,95.9,24.1,134.1,55.5
	L358,118.1c-26.1-21.4-57.9-34.5-91.4-37.8c-33.5-3.3-67.3,3.5-97,19.4c-29.7,15.9-54,40.3-69.9,70c-15.9,29.7-22.6,63.5-19.2,97
	c4.5,45,26.6,86.3,61.6,115c35,28.7,79.9,42.2,124.8,37.8c33.5-3.3,65.3-16.5,91.4-37.9L408.7,443.1z"/>
<path class="st2" d="M250,469.8c121.4,0,219.9-98.4,219.9-219.9c0-121.4-98.4-219.9-219.9-219.9c-121.4,0-219.9,98.4-219.9,219.9
	C30.1,371.4,128.6,469.8,250,469.8z"/>
<path class="st2" d="M250,365.3c63.6,0,115.2-51.6,115.2-115.2c0-63.6-51.6-115.2-115.2-115.2c-63.6,0-115.2,51.6-115.2,115.2
	C134.8,313.7,186.4,365.3,250,365.3z"/>
<path class="st3" d="M269.1,246.8c4.5-2.4,7.3-6.6,6.6-13.6c-0.9-9.6-8.8-12.8-18.8-13.7l0-13.3h-7.7l0,13c-2,0-4.1,0-6.2,0.1
	l0-13.1l-7.7,0l0,13.3c-1.7,0-3.3,0.1-4.9,0.1v0l-10.7,0v8.7c0,0,5.7-0.1,5.6,0c3.1,0,4.2,1.9,4.5,3.6l0,15.2v21.3
	c-0.1,1-0.7,2.7-2.9,2.7c0.1,0.1-5.6,0-5.6,0l-1.5,9.7h10.1c1.9,0,3.7,0,5.5,0l0,13.5l7.7,0l0-13.3c2.1,0,4.2,0.1,6.2,0.1l0,13.3
	h7.7l0-13.4c13-0.8,22.1-4.2,23.3-17C281.1,253.2,276.5,248.6,269.1,246.8z M243.2,228.7c4.4,0,18.1-1.5,18.1,8.1
	c0,9.2-13.7,8.1-18.1,8.1V228.7L243.2,228.7z M243.2,270.9l0-17.8c5.2,0,21.7-1.6,21.7,8.9C264.9,272,248.5,270.9,243.2,270.9z"/>
<circle class="st4" cx="250" cy="250.1" r="75.8"/>
<circle class="st5" cx="250" cy="250.1" r="100"/>
<path class="st6" d="M306.5,312.2l-26-25.6 M210.1,217.3l-22.3-21.8 M193.8,312.2l26-25.6 M290.1,217.3l22.1-21.8"/>
</svg>
