<?xml version="1.0" encoding="utf-8"?>
<!-- Generator: Adobe Illustrator 24.1.2, SVG Export Plug-In . SVG Version: 6.00 Build 0)  -->
<svg version="1.1" id="CZRX" xmlns="http://www.w3.org/2000/svg" xmlns:xlink="http://www.w3.org/1999/xlink" x="0px" y="0px"
	 viewBox="0 0 500 500" style="enable-background:new 0 0 500 500;" xml:space="preserve">
<style type="text/css">
	.st0{fill:#EDF0F2;}
	.st1{fill:url(#SVGID_1_);}
	.st2{fill:#FFFFFF;}
	.st3{fill:#283947;}
</style>
<circle class="st0" cx="250" cy="249.9" r="249.9"/>
<linearGradient id="SVGID_1_" gradientUnits="userSpaceOnUse" x1="179.5407" y1="474.5266" x2="257.917" y2="39.9893" gradientTransform="matrix(1 0 0 -1 0 502)">
	<stop  offset="0" style="stop-color:#27D3A2"/>
	<stop  offset="1" style="stop-color:#9388FD"/>
</linearGradient>
<path class="st1" d="M408.7,443.1c-38.2,31.4-84.8,50.7-134,55.6c-66,6.5-131.8-13.4-183.1-55.4c-51.3-42-83.7-102.7-90.3-168.7
	c-4.9-49.2,4.9-98.7,28.2-142.3C52.8,88.6,88.5,52.9,132,29.6C175.6,6.3,225.2-3.6,274.4,1.2c49.2,4.8,95.9,24.1,134.1,55.5
	L358,118.1c-26.1-21.4-57.9-34.5-91.4-37.8c-33.5-3.3-67.3,3.5-97,19.4c-29.7,15.9-54,40.3-69.9,70c-15.9,29.7-22.6,63.5-19.2,97
	c4.5,45,26.6,86.3,61.6,115c35,28.7,79.9,42.2,124.8,37.8c33.5-3.3,65.3-16.5,91.4-37.9L408.7,443.1z"/>
<path class="st2" d="M250,469.8c121.4,0,219.9-98.4,219.9-219.9c0-121.4-98.4-219.9-219.9-219.9c-121.4,0-219.9,98.4-219.9,219.9
	C30.1,371.4,128.6,469.8,250,469.8z"/>
<path class="st3" d="M195.6,274l14-14.7l-17.5-23.8L170,203.9c-7.9,13.5-12.4,29.2-12.4,46c0,27.8,12.4,52.7,31.8,69.5l28.2-20.1
	C208.1,293.2,200.3,284.4,195.6,274z"/>
<path class="st3" d="M226.1,195.7l14.6,14l23.8-17.5l31.7-22.2c-13.5-7.9-29.2-12.4-46-12.4c-27.8,0-52.7,12.4-69.5,31.8l20.1,28.2
	C206.8,208.1,215.6,200.4,226.1,195.7z"/>
<path class="st3" d="M290.4,240.8l17.5,23.8l22.2,31.7c7.9-13.5,12.4-29.2,12.4-46c0-27.8-12.4-52.7-31.8-69.5l-28.2,20.1
	c9.6,6,17.3,14.8,22.1,25.3L290.4,240.8z"/>
<path class="st3" d="M319.3,310.6l-20.1-28.2c-6,9.6-14.8,17.3-25.3,22.1l-14.7-14l-23.8,17.5l-31.7,22.2
	c13.5,7.9,29.2,12.4,46,12.4C277.7,342.4,302.6,330.1,319.3,310.6z"/>
</svg>
