<?xml version="1.0" encoding="iso-8859-1"?>
<!-- Generator: Adobe Illustrator 19.0.0, SVG Export Plug-In . SVG Version: 6.00 Build 0)  -->
<svg version="1.1" id="Layer_1" xmlns="http://www.w3.org/2000/svg" xmlns:xlink="http://www.w3.org/1999/xlink" x="0px" y="0px"
	 viewBox="0 0 500 500" style="enable-background:new 0 0 500 500;" xml:space="preserve">
<path style="fill:#9A3121;" d="M128.486,281.514c3.357,1.112,6.988,1.715,10.817,1.722c8.925,0.018,17.849-0.031,26.774-0.089
	l-0.837-23.374L128.486,281.514z"/>
<g>
	<path style="fill:#CC3F28;" d="M165.239,259.773l-1.462-40.831c-8.294,0.002-16.588,0-24.882,0.007
		c-8.336,0.007-15.749,3.041-21.341,7.989l47.197,33.124L165.239,259.773z"/>
	<path style="fill:#501C16;" d="M117.554,226.939c-8.199,7.254-12.485,18.624-10.024,30.606
		c2.396,11.664,10.272,20.428,20.955,23.969l36.266-21.451L117.554,226.939z"/>
</g>
<path style="fill:#501C16;" d="M229.076,218.943c-21.766,0-43.533-0.005-65.299-0.001l1.452,40.549l110.083-40.555
	C259.9,218.938,244.488,218.943,229.076,218.943z"/>
<g>
	<path style="fill:#812A1D;" d="M166.076,283.147c5.155-0.033,10.309-0.069,15.464-0.098l-16.292-23.027L166.076,283.147z"/>
	<path style="fill:#E5462C;" d="M350.382,245.734c-1.916-14.946-15.6-26.767-31.125-26.782c-14.648-0.015-29.296-0.017-43.944-0.016
		l-110.083,40.555l0.019,0.531l16.292,23.027c5.05-0.029,10.101-0.051,15.151-0.056c40.441-0.043,80.882,0.007,121.322-0.055
		c2.89-0.004,5.848-0.31,8.656-0.974C342.808,278.149,352.606,263.082,350.382,245.734z"/>
</g>
<g>
	<path style="fill:#812A1D;" d="M210.672,372.603c-1.985,16.114,8.125,30.675,23.301,35.151c1.798,0.53,3.933,1.348,5.614,1.348
		c11.382,0,22.763,0,34.145,0l-45.089-61.929C219.013,351.673,212.104,360.98,210.672,372.603z"/>
	<path style="fill:#501C16;" d="M33.161,92.971c-3.982,0-12.911,3.307-18.068,7.977c-1.238,1.121-2.372,2.295-3.412,3.519
		l18.699,52.59c3.407,0.529,6.916,0.561,10.426,0.526l41.379-64.612C65.843,92.971,49.502,92.971,33.161,92.971z"/>
	<path style="fill:#9A3121;" d="M4.565,120.413c-0.425,3.263-0.34,8.032,0.023,10.016c2.417,13.244,11.582,23.943,24.659,26.438
		c0.376,0.072,0.755,0.132,1.133,0.191l-18.699-52.59C7.838,108.993,5.367,114.246,4.565,120.413z"/>
	<path style="fill:#CC3F28;" d="M142.901,97.524c-3.973-2.183-9.36-4.553-13.018-4.553c-15.9,0-31.799,0-47.699,0l-41.379,64.612
		c1.734-0.017,3.469-0.048,5.19-0.044c26.054,0.057,52.108,0.046,78.162-0.003c3.014-0.006,6.087-0.094,9.031-0.667
		c12.877-2.507,23.163-13.017,25.076-25.355C160.493,117.135,154.832,104.08,142.901,97.524z"/>
</g>
<path style="fill:#E5462C;" d="M341.945,344.018c-33.301,0.607-66.621,0.171-99.932,0.212c-4.802,0.006-9.324,1.054-13.369,2.944
	l45.089,61.929c0.303,0,0.606,0,0.908,0c1.378-0.159,2.756-0.455,4.134-0.457c19.673-0.03,39.347-0.173,59.019,0.006
	c11.452,0.104,22.531-1.019,33.151-3.21l19.225-77.085C376.039,337.931,359.377,343.7,341.945,344.018z"/>
<path style="fill:#371512;" d="M363.35,95.223c-6.364-1.065-12.832-1.517-19.251-2.251c-2.975,0-5.95,0-8.924,0l97.377,70.007
	l11.343-28.771C421.042,113.278,394.08,100.365,363.35,95.223z"/>
<g>
	<path style="fill:#E5462C;" d="M393.286,175.437c9.184,6.898,17.159,15.738,23.943,26.403l15.322-38.862l-1.217-0.875
		L393.286,175.437z"/>
	<path style="fill:#66221D;" d="M335.175,92.971c-32.079,0-64.158,0-96.236,0c-9.342,0-23.442,10.449-27.05,22.946
		c-3.672,12.718-0.774,24.176,9.052,33.478c6.507,6.16,14.502,8.279,23.216,8.282c31.365,0.011,62.735-0.323,94.095,0.089
		c21.671,0.284,39.98,6.363,55.035,17.671l38.048-13.333L335.175,92.971z"/>
</g>
<g>
	<path style="fill:#E5462C;" d="M446.45,136.561c-0.842-0.804-1.702-1.571-2.555-2.353l-11.442,29.019l60.204,58.699
		C486.645,188.548,471.107,160.109,446.45,136.561z"/>
	<path style="fill:#B33824;" d="M493.35,226.021c-0.306-1.356-0.447-2.737-0.692-4.094l-60.204-58.699l-15.224,38.613
		c1.438,2.261,2.83,4.594,4.161,7.017c10.335,18.81,12.671,39.172,8.532,60.341c-4.754,24.315-19.701,45.573-39.753,59.159
		l-19.225,77.085c60.091-12.394,105.395-59.215,119.21-114.512c2.212-8.852,3.892-17.95,4.53-27.084
		C495.055,258.544,495.96,237.598,493.35,226.021z"/>
</g>
</svg>
