<?xml version="1.0" encoding="iso-8859-1"?>
<!-- Generator: Adobe Illustrator 19.0.0, SVG Export Plug-In . SVG Version: 6.00 Build 0)  -->
<svg version="1.1" id="Layer_1" xmlns="http://www.w3.org/2000/svg" xmlns:xlink="http://www.w3.org/1999/xlink" x="0px" y="0px"
	 viewBox="0 0 500 500" style="enable-background:new 0 0 500 500;" xml:space="preserve">
<path style="fill:#16409B;" d="M465.518,373.765c-71.4,41.038-142.578,81.948-214.503,123.287
	c-71.196-40.931-142.335-81.829-213.881-122.961c0-82.555,0-165.053,0-248.231C108.127,85.046,179.301,44.128,251.078,2.864
	c71.503,41.141,142.969,82.261,214.439,123.383C465.518,208.727,465.518,290.534,465.518,373.765z M325.561,133.977
	c44.169,75.306,87.309,148.858,132.299,225.563c0-77.876,0-151.517,0-225.563C414.005,133.977,371.055,133.977,325.561,133.977z
	 M44.26,136.361c0,79.711,0,154.719,0,230.09c43.542,0,86.117,0,130.904,0C131.683,290.024,89.022,215.04,44.26,136.361z
	 M53.675,375.14c67.316,38.691,130.673,75.105,195.061,112.112c21.49-37.422,42.548-74.094,64.38-112.112
	C226.599,375.14,142.491,375.14,53.675,375.14z M455.913,370.816c-22.374-38.071-43.926-74.745-66.587-113.305
	c-43.375,75.441-85.591,148.866-130.129,226.33C327.136,444.805,390.92,408.158,455.913,370.816z M188.44,124.722
	c86.714,0,171.435,0,259.762,0C381.21,86.237,317.439,49.602,252.931,12.543C231.172,50.391,210.139,86.978,188.44,124.722z
	 M112.694,241.691c43.149-75.1,85.055-148.036,129.349-225.128C174.795,55.224,111.76,91.465,48.114,128.056
	C69.62,165.897,90.485,202.611,112.694,241.691z M186.825,133.799c0,23.065,0,45.418,0,69.499
	c40.301-22.948,79.178-45.086,122.052-69.499C264.946,133.799,226.138,133.799,186.825,133.799z M271.763,284.901
	c6.833-12.037,13.671-24.083,20.563-36.224c-6.949-12.013-13.508-23.352-19.636-33.947c-15.031,0-28.544,0-42.261,0
	c-7.135,12.412-14.052,24.443-20.85,36.269c7.063,12.088,13.499,23.103,19.809,33.902
	C243.926,284.901,257.483,284.901,271.763,284.901z M316.102,296.068c-41.183,23.45-80.249,45.694-122.986,70.03
	c43.873,0,83.192,0,122.986,0C316.102,342.985,316.102,320.811,316.102,296.068z M324.216,217.157c0,46.034,0,89.802,0,138.544
	c21.397-37.129,40.416-70.129,59.98-104.078C363.907,239.965,344.879,229.031,324.216,217.157z M122.865,259.481
	c21.436,37.66,40.199,70.623,59.402,104.358c20.664-11.886,40.028-23.024,61.173-35.186
	C203.434,305.702,165.507,283.944,122.865,259.481z M177.681,143.596c-20.972,36.434-40.206,69.847-60.039,104.302
	c20.096,11.544,39.457,22.666,60.039,34.49C177.681,235.88,177.681,191.555,177.681,143.596z M258.869,171.017
	c39.867,22.926,78.098,44.91,120.481,69.283c-21.888-37.27-41.157-70.081-60.767-103.473
	C298.476,148.339,279.597,159.149,258.869,171.017z M235.65,206.268c23.371,0,44.403,0,69.682,0
	c-19.866-11.348-35.97-20.548-52.898-30.217C246.556,186.632,241.376,195.957,235.65,206.268z M314.724,288.392
	c-6.202-10.943-11.672-20.593-18.062-31.867c-11.856,20.593-22.75,39.516-35.992,62.517
	C281.228,307.385,297.5,298.158,314.724,288.392z M205.582,242.899c11.736-20.458,22.536-39.286,35.524-61.927
	c-20.312,11.566-36.731,20.915-53.82,30.646C193.697,222.579,199.307,232.171,205.582,242.899z M281.39,214.831
	c11.571,20.135,22.106,38.467,34.557,60.134c0-22.838,0-41.14,0-60.134C304.864,214.831,294.482,214.831,281.39,214.831z
	 M196.808,293.632c20.469,11.532,36.522,20.576,52.821,29.758c6.144-10.83,11.224-19.784,16.882-29.758
	C243.698,293.632,222.822,293.632,196.808,293.632z M220.377,284.684c-11.033-19.361-21.365-37.493-33.768-59.258
	c0,22.731,0,40.684,0,59.258C197.688,284.684,208.053,284.684,220.377,284.684z"/>
</svg>
