<svg width="48" height="48" viewBox="0 0 48 48" fill="none" xmlns="http://www.w3.org/2000/svg">
<g clip-path="url(#clip0_4273_164658)">
<path d="M24 48C37.2548 48 48 37.2548 48 24C48 10.7452 37.2548 0 24 0C10.7452 0 0 10.7452 0 24C0 37.2548 10.7452 48 24 48Z" fill="#F4B731"/>
<path fill-rule="evenodd" clip-rule="evenodd" d="M13.9155 12H23.7435C29.721 12 34.2525 15.174 35.9385 19.791H39V22.5825H36.5835C36.63 23.0235 36.654 23.4735 36.654 23.9295V23.9985C36.654 24.5115 36.624 25.0185 36.564 25.5135H39V28.3035H35.88C34.1505 32.8575 29.655 36 23.745 36H13.9155V28.3035H10.5V25.5135H13.9155V22.5825H10.5V19.7925H13.9155V12V12ZM16.662 28.3035V33.4965H23.742C28.113 33.4965 31.359 31.416 32.8695 28.3035H16.662V28.3035ZM33.711 25.5135H16.662V22.5825H33.717C33.7785 23.043 33.8115 23.5155 33.8115 23.9985V24.066C33.8115 24.5595 33.777 25.041 33.711 25.512V25.5135ZM23.745 14.4975C28.134 14.4975 31.3905 16.6335 32.892 19.7895H16.662V14.499H23.742L23.745 14.4975Z" fill="white"/>
</g>
<defs>
<clipPath id="clip0_4273_164658">
<rect width="48" height="48" fill="white"/>
</clipPath>
</defs>
</svg>
