<?xml version="1.0" encoding="utf-8"?>
<!-- Generator: Adobe Illustrator 24.1.0, SVG Export Plug-In . SVG Version: 6.00 Build 0)  -->
<svg version="1.1" id="DASC" xmlns="http://www.w3.org/2000/svg" xmlns:xlink="http://www.w3.org/1999/xlink" x="0px" y="0px"
	 viewBox="0 0 500 500" style="enable-background:new 0 0 500 500;" xml:space="preserve">
<style type="text/css">
	.st0{fill:#0573FF;}
</style>
<path class="st0" d="M453.9,135.8c-7.5-14.9-16.7-29-27.4-41.8c-10.4-12.2-22.3-23-35.4-32.1c-11.1-8.1-22.9-15.1-35.2-21.1
	c-2.1-1-4.3-2.1-6.4-3l0,0l-5.7-2.6c-44-20.2-86.1-23.7-125.2-10.6c-10.8,3.5-20.8,8.9-29.8,15.8c-18.2,14.8-27.6,36.5-28.3,64.8
	h15.3c58,1.3,109.6,14.6,153.2,39.8c3.2,1.9,6.4,3.8,9.5,5.7l1.4,0.9l6.7,4.4c69,46.6,99.4,105.4,90.4,174.6
	c-1.2,8.8-2.9,17.5-5.1,26l-1,3.9c-4.6,21.8-12.7,42.6-24,61.8c7.1-6.3,13.8-13.1,20.2-20.1c10.4-13.1,19.6-27.2,27.3-42.1
	c4.9-9.9,9-20.1,12.3-30.6c7.6-25.7,11.3-52.3,10.9-79c0-45.6-8-84.2-23.7-114.8"/>
<path class="st0" d="M349.6,187c7.2,17.6,10.9,38.9,10.9,63.5c0,27.4-4.6,50.8-13.8,69.5c-1.9,4-4,8-6.2,11.8
	c-6.6,11.8-15.3,22.2-25.7,30.7c-12.8,9.6-22.3,15.6-28.9,18.4c-5.8,2.7-13.8,5.7-23.5,9c-9.8,3.3-30.2,5.8-60,7.2
	s-57.4-1.5-81.2-8.7s-46.4-20.7-66.4-40.2c-5.8-5.7-11-11-15.4-16c-5-5.4-9.4-11.2-13.3-17.5c-1.5,19.9-1.2,39.9,1,59.7
	c0,2.8,0.2,5.2,0.4,7.6c6.9,57.4,34,92.7,80.5,104.6c48.9,10.5,105.2,10.5,167.2,0l5-0.9c57.7-13.2,96.7-43.3,115.8-89.3
	c8.5-21.2,13.9-43.6,16.1-66.4C416.5,274.9,395.5,226.8,349.6,187"/>
<path class="st0" d="M68.4,328.3c15.4,13.6,32.9,24.6,51.7,32.6c5.4,2.4,10.9,4.3,16.6,5.8V107.9c-0.9-29.1,6.9-53.1,23.2-71.6
	c10.3-11.6,24.2-21.1,41.3-28.3c-8.5-0.9-17.1-1.3-25.6-1.3c-15,0-29.9,1.4-44.6,4.3l0,0c-12.9,2.3-25.4,6.5-37.1,12.6
	c-8.8,4.6-17.1,10.2-24.6,16.8c-2.1,1.9-4.3,3.9-6.6,6.2c-7.7,7.6-14.5,16.2-20,25.5C39,78.4,36,85.1,33.6,92
	c-4.4,12.5-7.1,25.5-8,38.8c-2.9,38.2-2.5,76.6,1.2,114.7C29.6,277.4,44.5,307,68.4,328.3"/>
</svg>
