<?xml version="1.0" encoding="iso-8859-1"?>
<!-- Generator: Adobe Illustrator 19.0.0, SVG Export Plug-In . SVG Version: 6.00 Build 0)  -->
<svg version="1.1" id="Layer_1" xmlns="http://www.w3.org/2000/svg" xmlns:xlink="http://www.w3.org/1999/xlink" x="0px" y="0px"
	 viewBox="0 0 500 500" style="enable-background:new 0 0 500 500;" xml:space="preserve">
<g>
	<path style="fill:#048EE2;" d="M495.799,249.252c-0.086,135.906-109.787,245.453-245.977,246.133
		C115.632,496.054,0.358,386.195,3.27,243.719C6.005,109.887,115.422,2.987,249.267,3.062
		C385.491,3.137,495.885,113.269,495.799,249.252z M248.342,488.642c127.665,0.521,239.184-100.612,240.463-238.022
		c1.202-129.17-101.897-239.757-238.248-240.745C122.788,8.95,17.785,108.853,10.492,234.98
		C2.453,373.995,112.547,487.83,248.342,488.642z"/>
	<path style="fill:#048EE2;" d="M149.061,364.414c2.996-16.514,5.834-32.156,8.734-48.143c5.164,0,9.622,0.016,14.08-0.003
		c30.518-0.125,61.068,0.544,91.545-0.646c23.279-0.909,43.808-8.999,56.075-30.895c6.013-10.733,8.481-22.658,11.14-34.482
		c2.109-9.378,3.432-18.863,3.058-28.537c-0.764-19.768-10.896-31.994-30.195-36.633c-8.992-2.162-18.088-2.907-27.28-2.909
		c-29.454-0.007-58.907,0.017-88.361,0.011c-1.889,0-3.779-0.161-6.729-0.295c2.889-16.211,5.699-31.981,8.583-48.161
		c3.938,0,7.325-0.005,10.711,0.001c35.428,0.058,70.87-0.456,106.281,0.379c23.31,0.549,45.704,5.556,63.816,22.018
		c12.646,11.494,19.13,26.443,20.319,42.857c3.327,45.963-4.944,89.303-34.151,126.482c-17.889,22.772-42.556,33.867-70.823,37.784
		c-11.468,1.589-22.984,1.435-34.501,1.451c-32.015,0.043-64.03,0.026-96.045,0.013
		C153.429,364.704,151.543,364.534,149.061,364.414z"/>
	<path style="fill:#048EE2;" d="M251.674,225.034c-2.83,11.383-4.075,22.286-8.59,32.197c-5.035,11.052-14.741,15.845-26.345,15.937
		c-35.848,0.286-71.699,0.128-107.549,0.118c-0.368,0-0.736-0.335-1.826-0.863c2.55-12.642,3.788-25.939,11.447-37.05
		c4.86-7.05,12.905-10.135,21.186-10.205C176.876,224.858,213.759,225.034,251.674,225.034z"/>
</g>
</svg>
