<?xml version="1.0" encoding="utf-8"?>
<!-- Generator: Adobe Illustrator 24.1.0, SVG Export Plug-In . SVG Version: 6.00 Build 0)  -->
<svg version="1.1" id="DAT" xmlns="http://www.w3.org/2000/svg" xmlns:xlink="http://www.w3.org/1999/xlink" x="0px" y="0px"
	 viewBox="0 0 500 500" style="enable-background:new 0 0 500 500;" xml:space="preserve">
<style type="text/css">
	.st0{fill:#199AFF;}
</style>
<path id="_x38_skba" class="st0" d="M423.5,60.6c-0.3-33-27.3-59.6-60.3-59.4c-33.3,0-60.3,26.6-60.3,59.4v59.5H363
	c33.3,0,60.3-26.6,60.3-59.5"/>
<path id="_x38_skbb" class="st0" d="M423.5,114v204.8c0,98.4-81.1,178.4-180.9,178.4c-100,0-180.9-79.8-180.9-178.4
	s80.9-178.2,180.9-178.2h120.6c22.9,0,44.8-9.6,60.2-26.6 M182.2,318.8c0.2,33,27.2,59.7,60.2,59.5c33.3,0,60.3-26.6,60.3-59.5
	v-59.5h-60.2c-33.3,0-60.2,26.6-60.2,59.5"/>
</svg>
