<svg width="24" height="24" viewBox="0 0 24 24" fill="none" xmlns="http://www.w3.org/2000/svg">
<path d="M20.6441 16.2094V12.1109C20.6441 10.3917 19.5456 8.86486 17.9156 8.31836L16.2056 7.74503V4.2569" stroke="#99D3FF" stroke-width="1.71273" stroke-linecap="round" stroke-linejoin="round"/>
<path d="M4.07031 17.5532V13.3168C4.07031 10.9746 5.59848 8.90646 7.83744 8.21864L10.9317 7.26806V4.2569" stroke="#0F7FFF" stroke-width="1.71273" stroke-linecap="round" stroke-linejoin="round"/>
<path d="M13.689 2.2569V14.6659" stroke="#0F7FFF" stroke-width="1.71273" stroke-linecap="round" stroke-linejoin="round"/>
<path d="M8.1626 2.25684V13.9171" stroke="#99D3FF" stroke-width="1.71273" stroke-linecap="round" stroke-linejoin="round"/>
<path d="M13.6888 19.3909C14.9174 19.3909 15.9133 18.395 15.9133 17.1665C15.9133 15.9379 14.9174 14.942 13.6888 14.942C12.4603 14.942 11.4644 15.9379 11.4644 17.1665C11.4644 18.395 12.4603 19.3909 13.6888 19.3909Z" stroke="#0F7FFF" stroke-width="1.71273" stroke-linecap="round" stroke-linejoin="round"/>
<path d="M4.20591 22.5657C5.43445 22.5657 6.43038 21.5698 6.43038 20.3412C6.43038 19.1127 5.43445 18.1168 4.20591 18.1168C2.97737 18.1168 1.98145 19.1127 1.98145 20.3412C1.98145 21.5698 2.97737 22.5657 4.20591 22.5657Z" stroke="#0F7FFF" stroke-width="1.71273" stroke-linecap="round" stroke-linejoin="round"/>
<path d="M8.16235 16.4549C9.2986 16.4549 10.2197 15.5338 10.2197 14.3975C10.2197 13.2613 9.2986 12.3401 8.16235 12.3401C7.0261 12.3401 6.10498 13.2613 6.10498 14.3975C6.10498 15.5338 7.0261 16.4549 8.16235 16.4549Z" fill="#99D3FF"/>
<path d="M22.1687 17.6508C22.1687 18.4986 21.4814 19.1859 20.6335 19.1859C19.7857 19.1859 19.0983 18.4986 19.0983 17.6508C19.0983 16.8029 19.7857 16.1156 20.6335 16.1156C21.4814 16.1156 22.1687 16.8029 22.1687 17.6508Z" fill="#99D3FF" stroke="#99D3FF" stroke-width="1.04435"/>
</svg>
