<?xml version="1.0" encoding="utf-8"?>
<!-- Generator: Adobe Illustrator 23.0.3, SVG Export Plug-In . SVG Version: 6.00 Build 0)  -->
<svg version="1.1" id="data" xmlns="http://www.w3.org/2000/svg" xmlns:xlink="http://www.w3.org/1999/xlink" x="0px" y="0px"
	 viewBox="0 0 500 500" style="enable-background:new 0 0 500 500;" xml:space="preserve">
<style type="text/css">
	.st0{fill:#FF5A07;}
</style>
<g>
	<path class="st0" d="M317.5,127.6H317c-2.2,0-3.9,1.8-3.9,3.9l0,24.1c0,2.2,1.7,3.9,3.9,3.9c80.6,2.1,146.5,67.9,148.5,148.5
		c0.1,2.2,1.8,3.9,3.9,3.9h24.1c2.2,0,4-1.8,3.9-4C495.3,208.6,417.3,127.6,317.5,127.6z"/>
</g>
<g>
	<path class="st0" d="M316.3,176.2h-0.3c-1.6,0-2.9,1.3-2.9,2.9l0,24.9c0,1.6,1.3,2.9,2.9,2.9c56.4,0,103.4,48.3,103.4,102.3
		c0,1.6,1.3,2.9,2.9,2.9h23.7c1.6,0,2.9-1.3,2.9-2.9C447.2,235.9,389.8,176.2,316.3,176.2z"/>
</g>
<g>
	<path class="st0" d="M315.2,222.4H315c-1.1,0-1.9,0.9-1.9,1.9l0,25.1c0,1,0.8,1.9,1.9,1.9c26.6,0,57.7,26.9,57.7,58.8
		c0,1,0.9,1.9,1.9,1.9h26.2c1.1,0,1.9-0.9,1.9-1.9C401.6,261.8,363.7,222.4,315.2,222.4z"/>
</g>
<g>
	<path class="st0" d="M372.1,317.7v-0.5c0-2.2-1.8-3.9-3.9-3.9l-24.1,0c-2.2,0-3.9,1.7-3.9,3.9c-2.1,80.6-67.9,146.5-148.5,148.5
		c-2.2,0.1-3.9,1.8-3.9,3.9v24.1c0,2.2,1.8,4,4,3.9C291.1,495.5,372.1,417.5,372.1,317.7z"/>
</g>
<g>
	<path class="st0" d="M323.5,316.5v-0.3c0-1.6-1.3-2.9-2.9-2.9l-24.9,0c-1.6,0-2.9,1.3-2.9,2.9c0,56.4-48.3,103.4-102.3,103.4
		c-1.6,0-2.9,1.3-2.9,2.9v23.7c0,1.6,1.3,2.9,2.9,2.9C263.8,447.4,323.5,390,323.5,316.5z"/>
</g>
<g>
	<path class="st0" d="M277.3,315.4v-0.2c0-1.1-0.9-1.9-1.9-1.9l-25.1,0c-1,0-1.9,0.8-1.9,1.9c0,26.6-26.9,57.7-58.8,57.7
		c-1,0-1.9,0.9-1.9,1.9V401c0,1.1,0.9,1.9,1.9,1.9C237.9,401.8,277.3,363.9,277.3,315.4z"/>
</g>
<g>
	<path class="st0" d="M182.7,372.9h0.5c2.2,0,3.9-1.8,3.9-3.9l0-24.1c0-2.2-1.7-3.9-3.9-3.9C102.6,338.9,36.7,273,34.6,192.4
		c-0.1-2.2-1.8-3.9-3.9-3.9H6.6c-2.2,0-4,1.8-3.9,4C4.8,291.9,82.8,372.9,182.7,372.9z"/>
</g>
<g>
	<path class="st0" d="M183.8,324.3h0.3c1.6,0,2.9-1.3,2.9-2.9l0-24.9c0-1.6-1.3-2.9-2.9-2.9c-56.4,0-103.4-48.3-103.4-102.3
		c0-1.6-1.3-2.9-2.9-2.9H54.2c-1.6,0-2.9,1.3-2.9,2.9C52.9,264.6,110.3,324.3,183.8,324.3z"/>
</g>
<g>
	<path class="st0" d="M184.9,278.1h0.2c1.1,0,1.9-0.9,1.9-1.9l0-25.1c0-1-0.8-1.9-1.9-1.9c-26.6,0-57.7-26.9-57.7-58.8
		c0-1-0.9-1.9-1.9-1.9H99.4c-1.1,0-1.9,0.9-1.9,1.9C98.5,238.7,136.4,278.1,184.9,278.1z"/>
</g>
<g>
	<path class="st0" d="M128.6,182.4v0.5c0,2.2,1.8,3.9,3.9,3.9l24.1,0c2.2,0,3.9-1.7,3.9-3.9c2.1-80.6,67.9-146.5,148.5-148.5
		c2.2-0.1,3.9-1.8,3.9-3.9V6.3c0-2.2-1.8-4-4-3.9C209.6,4.6,128.6,82.6,128.6,182.4z"/>
</g>
<g>
	<path class="st0" d="M177.2,183.6v0.3c0,1.6,1.3,2.9,2.9,2.9l24.9,0c1.6,0,2.9-1.3,2.9-2.9c0-56.4,48.3-103.4,102.3-103.4
		c1.6,0,2.9-1.3,2.9-2.9V53.9c0-1.6-1.3-2.9-2.9-2.9C236.9,52.6,177.2,110.1,177.2,183.6z"/>
</g>
<g>
	<path class="st0" d="M223.4,184.7v0.2c0,1.1,0.9,1.9,1.9,1.9l25.1,0c1,0,1.9-0.8,1.9-1.9c0-26.6,26.9-57.7,58.8-57.7
		c1,0,1.9-0.9,1.9-1.9V99.1c0-1.1-0.9-1.9-1.9-1.9C262.8,98.2,223.4,136.1,223.4,184.7z"/>
</g>
</svg>
