<?xml version="1.0" encoding="iso-8859-1"?>
<!-- Generator: Adobe Illustrator 19.0.0, SVG Export Plug-In . SVG Version: 6.00 Build 0)  -->
<svg version="1.1" id="Layer_1" xmlns="http://www.w3.org/2000/svg" xmlns:xlink="http://www.w3.org/1999/xlink" x="0px" y="0px"
	 viewBox="0 0 500 500" style="enable-background:new 0 0 500 500;" xml:space="preserve">
<path style="fill:#282629;" d="M58.987,247.297C140.44,165.967,222.353,84.179,303.655,3
	c41.229,41.449,83.209,83.653,127.654,128.335c0,73.962,0.039,152.129-0.133,230.296c-0.008,3.409-0.937,7.813-3.152,10.072
	c-40.509,41.304-81.28,82.351-121.221,122.67C223.166,410.985,140.955,329.02,58.987,247.297z M277.132,62.32
	c-62.815,62.31-125.534,124.525-184.625,183.141c30.122,31.086,60.848,62.796,92.057,95.004
	C215.403,247.803,246.405,154.65,277.132,62.32z M216.649,352.431c63.4,0,125.524,0,189.44,0
	c-16.099-48.254-31.653-94.877-47.315-141.823C310.635,258.645,264.193,304.988,216.649,352.431z M349.637,183.599
	c-14.208-42.73-28.762-86.501-45.279-136.173c-31.282,93.869-60.607,181.87-90.556,271.741
	C259.832,273.226,303.939,229.207,349.637,183.599z M391.176,375.724c-57.953,0-115.446,0-172.938,0
	c29.377,29.35,58.346,58.293,86.042,85.964C332.489,433.781,361.418,405.163,391.176,375.724z M400.785,133.636
	c-23.171-24.554-45.789-48.523-70.74-74.963c12.839,38.052,24.648,73.049,36.521,108.237
	C379.608,154.228,391.563,142.603,400.785,133.636z M409.555,296.463c0-51.669,0-93.689,0-137.443
	c-12.527,12.028-23.56,22.623-34.716,33.335C385.706,224.942,396.208,256.438,409.555,296.463z"/>
</svg>
