<?xml version="1.0" encoding="iso-8859-1"?>
<!-- Generator: Adobe Illustrator 19.0.0, SVG Export Plug-In . SVG Version: 6.00 Build 0)  -->
<svg version="1.1" id="Layer_1" xmlns="http://www.w3.org/2000/svg" xmlns:xlink="http://www.w3.org/1999/xlink" x="0px" y="0px"
	 viewBox="0 0 500 500" style="enable-background:new 0 0 500 500;" xml:space="preserve">
<path style="fill:#5BC2D4;" d="M128.977,341.896c-3.427-0.605-5.59-2.361-6.092-5.483c-0.828-5.152-1.493-10.329-2.273-15.489
	c-0.568-3.756-2.066-5.417-5.811-5.927c-14.193-1.932-28.4-3.765-42.603-5.625c-7.901-1.035-15.816-1.973-23.704-3.099
	c-6.402-0.914-8.288-5.027-4.888-10.554c20.491-33.307,41.018-66.591,61.505-99.9c1.539-2.503,3.625-3.683,6.554-3.767
	c2.071-0.059,4.181-0.295,6.184-0.804c2.884-0.732,5.122-0.038,7.246,2.009c12.917,12.445,25.889,24.833,38.85,37.231
	c10.835,10.364,21.673,20.726,32.529,31.069c3.349,3.191,3.582,6.561,0.413,9.952c-11.664,12.48-23.367,24.923-35.063,37.373
	c-9.292,9.891-18.558,19.806-27.935,29.615C132.541,339.906,130.628,340.776,128.977,341.896z M310.872,405.95
	c11.401,13.356,22.724,26.777,34.103,40.15c2.542,2.988,6.212,3.902,9.787,2.603c3.606-1.311,5.784-4.309,5.747-8.298
	c-0.036-3.888-0.046-7.801-0.498-11.653c-0.703-5.985,1.109-10.232,6.412-13.643c20.279-13.047,40.348-26.42,60.484-39.689
	c14.507-9.56,29.022-19.108,43.478-28.745c5.351-3.567,6.042-10.354,1.417-14.357c-11.482-9.938-23.061-19.766-34.646-29.584
	c-2.627-2.226-5.656-2.964-9.044-1.74c-4.333,1.565-8.618,1.244-12.728-0.75c-3.617-1.755-6.926-1.31-10.224,0.831
	c-30.341,19.692-60.692,39.369-91.061,59.017c-3.149,2.037-4.77,4.846-4.789,8.529c-0.047,8.822-0.015,17.645-0.015,26.467
	C308.73,398.844,308.078,402.677,310.872,405.95z M173.904,395.76c10.902-0.485,21.803-0.994,32.706-1.449
	c10.81-0.451,21.626-0.791,32.432-1.326c1.839-0.091,3.771-0.653,5.44-1.454c14.039-6.74,28.038-13.563,42.026-20.41
	c7.753-3.795,8.885-10.617,2.764-16.769c-24.517-24.641-49.056-49.261-73.602-73.873c-4.597-4.609-9.682-4.622-14.154,0.045
	c-5.978,6.237-11.845,12.581-17.765,18.874c-15.808,16.805-31.628,33.599-47.423,50.417c-4.11,4.377-4.076,9.72,0.244,13.917
	c10.011,9.726,20.048,19.428,30.246,28.957c1.828,1.708,4.477,2.536,6.747,3.771C173.677,396.226,173.79,395.993,173.904,395.76z
	 M350.333,154.08c20.958,35.149,41.985,70.257,63.039,105.349c0.865,1.442,1.957,2.853,3.241,3.919
	c5.247,4.357,12.922,3.332,17.107-2.312c12.442-16.78,24.843-33.59,37.19-50.439c1.672-2.281,3.129-4.766,4.36-7.313
	c1.922-3.978,1.582-7.853-0.999-11.577c-2.595-3.744-4.99-7.627-7.469-11.452c-11.004-16.969-22.015-33.935-33.005-50.913
	c-3.236-4.999-7.58-7.027-13.595-5.903c-20.342,3.8-40.716,7.427-61.075,11.133c-6.675,1.215-10.728,6.192-11.174,13.25
	C348.732,149.917,349.208,152.192,350.333,154.08z M320.832,156.08c-0.977-0.378-2.939,0.473-3.828,1.395
	c-6.458,6.695-12.739,13.561-19.105,20.345c-26.377,28.107-52.76,56.208-79.154,84.3c-3.378,3.596-3.416,4.53,0.125,7.921
	c12.479,11.952,24.975,23.887,37.458,35.835c13.169,12.605,26.303,25.246,39.545,37.774c1.088,1.029,3.204,2.132,4.261,1.717
	c1.115-0.437,1.997-2.596,2.181-4.1c1.72-14.033,3.28-28.086,4.864-42.136c2.009-17.822,3.99-35.648,5.995-53.471
	c1.994-17.728,4.004-35.454,6.004-53.181c1.223-10.844,2.441-21.688,3.774-33.533C322.553,158.351,321.963,156.517,320.832,156.08z
	 M314.501,345.157c2.065,1.57,4.316,0.67,6.343-0.645c26.922-17.458,53.842-34.921,80.788-52.342
	c2.495-1.613,3.27-3.687,3.451-6.642c0.209-3.41,0.887-7.009,2.335-10.064c1.454-3.069,1.409-5.365-0.306-8.185
	c-7.891-12.977-15.632-26.046-23.435-39.077c-13.559-22.641-27.101-45.293-40.761-67.873c-0.695-1.148-2.586-2.447-3.654-2.248
	c-1.056,0.197-2.362,2.122-2.55,3.434c-3.166,22.071-6.201,44.161-9.211,66.255c-3.586,26.324-7.116,52.656-10.676,78.983
	c-1.526,11.284-3.066,22.565-4.737,34.858C312.585,342.378,313.225,344.186,314.501,345.157z M213.165,254.082
	c21.442-22.706,42.823-45.471,64.202-68.236c10.657-11.348,21.273-22.734,31.938-34.076c1.451-1.543,2.154-3.162,1.056-5.121
	c-1.071-1.91-2.805-1.897-4.726-1.541c-6.813,1.26-13.643,2.428-20.464,3.643c-49.807,8.87-99.611,17.753-149.424,26.586
	c-2.924,0.518-5.291,1.497-6.228,4.575c-0.92,3.021,0.65,5.05,2.671,6.981c9.542,9.114,19.053,18.261,28.576,27.395
	c14.112,13.538,28.204,27.097,42.375,40.572c1.219,1.159,2.973,1.757,4.93,2.873C209.938,256.418,211.821,255.505,213.165,254.082z
	 M320.073,117.367c-8.18-17.966-16.4-35.915-24.558-53.892c-2.534-5.584-4.755-6.224-9.799-2.732
	c-26.221,18.155-52.459,36.284-78.687,54.428c-22.169,15.336-44.341,30.667-66.468,46.064c-0.85,0.591-1.239,1.844-1.843,2.788
	c1.042,0.177,2.134,0.649,3.119,0.484c6.925-1.161,13.829-2.445,20.737-3.704c32.768-5.972,65.534-11.951,98.302-17.923
	c16.897-3.08,33.804-6.11,50.681-9.296c1.53-0.289,3.368-1.211,4.209-2.428c1.92-2.779,3.324-5.917,4.901-8.928
	c0.257-0.489,0.332-1.074,0.549-1.812C320.866,119.474,320.538,118.389,320.073,117.367z M133.202,72.832
	c-24.274,14.153-48.537,28.325-72.705,42.658c-2.415,1.432-4.762,3.606-6.173,6.005c-12.221,20.784-24.228,41.694-36.277,62.579
	c-2.425,4.203-2.255,8.266,0.35,11.434c2.875,3.495,6.77,4.496,11.554,2.77c19.734-7.118,39.439-14.317,59.188-21.393
	c3.446-1.235,5.465-3.37,6.47-6.896c1.829-6.422,6.083-10.71,12.546-12.419c3.437-0.909,5.55-2.798,7.056-5.956
	c7.112-14.908,14.387-29.739,21.547-44.624c3.621-7.527,7.312-15.03,10.617-22.697c2.832-6.569-1.621-13.139-8.721-13.583
	C136.83,71.405,134.866,71.861,133.202,72.832z M263.646,49.562c-4.36,0-8.726-0.142-13.081,0.024
	c-23.423,0.892-46.839,2.042-70.269,2.67c-5.716,0.153-8.696,2.263-10.958,7.379c-13.205,29.874-26.684,59.628-40.056,89.428
	c-0.503,1.121-1.135,2.292-1.201,3.468c-0.056,0.987,0.36,2.337,1.067,2.924c0.563,0.468,1.962,0.252,2.841-0.069
	c1.041-0.38,1.935-1.18,2.872-1.828c39.453-27.261,78.904-54.524,118.354-81.791c5.39-3.725,10.8-7.423,16.135-11.226
	c2.838-2.024,3.669-4.386,2.822-7.112c-0.902-2.904-3.046-4.359-6.53-4.424c-0.664-0.012-1.329-0.002-1.994-0.002
	C263.648,49.19,263.647,49.376,263.646,49.562z M37.063,288.333c10.793-17.543,21.621-35.064,32.432-52.596
	c8.42-13.654,16.868-27.29,25.179-41.01c0.714-1.179,1.078-3.188,0.565-4.354c-0.865-1.968-2.886-1.18-4.538-0.689
	c-0.091,0.027-0.182,0.053-0.273,0.082c-27.194,8.757-54.391,17.505-81.578,26.283c-4.51,1.456-5.648,3.775-4.091,8.256
	c4.267,12.283,8.572,24.553,12.877,36.824c3.111,8.867,6.265,17.718,9.357,26.592c0.83,2.381,2.221,3.942,5.619,4.016
	C34.414,291.806,35.845,290.312,37.063,288.333z M496.884,290.504c-3.719-21.402-7.403-42.81-11.193-64.2
	c-0.778-4.389-4.899-7.003-8.925-5.521c-1.812,0.667-3.532,2.256-4.716,3.855c-10.784,14.564-21.426,29.234-32.149,43.844
	c-1.974,2.689-2.168,5.34-1.198,8.557c0.936,3.103,1.65,6.544,1.284,9.699c-0.453,3.899,0.634,6.59,3.47,8.993
	c11.073,9.383,22.075,18.849,33.164,28.213c5.531,4.67,11.014,2.961,12.919-3.959c2.341-8.507,4.606-17.035,6.887-25.559
	c0.269-1.004,0.434-2.035,0.594-2.797C496.954,291.068,496.933,290.784,496.884,290.504z M351.814,126.293
	c20.171-3.696,40.341-7.398,60.513-11.087c1.807-0.33,3.748-1.059,3.487-3.016c-0.197-1.474-1.476-3.337-2.799-4.042
	c-8.711-4.648-17.565-9.029-26.372-13.496c-14.736-7.475-29.466-14.961-44.209-22.421c-10.931-5.531-21.851-11.087-32.861-16.457
	c-1.203-0.587-3.626-0.602-4.31,0.165c-0.871,0.975-0.615,3.015-0.694,4.603c-0.025,0.505,0.434,1.034,0.671,1.552
	c2.647,5.785,5.298,11.569,7.94,17.356c5.244,11.489,10.495,22.975,15.711,34.476c0.838,1.847,1.886,3.257,4.139,3.348
	c5.954,0.24,10.699,2.868,14.582,7.317c0.804,0.921,2.061,1.446,2.7,1.877C351.249,126.36,351.535,126.344,351.814,126.293z"/>
</svg>
