<?xml version="1.0" encoding="iso-8859-1"?>
<!-- Generator: Adobe Illustrator 19.0.0, SVG Export Plug-In . SVG Version: 6.00 Build 0)  -->
<svg version="1.1" id="Layer_1" xmlns="http://www.w3.org/2000/svg" xmlns:xlink="http://www.w3.org/1999/xlink" x="0px" y="0px"
	 viewBox="0 0 500 500" style="enable-background:new 0 0 500 500;" xml:space="preserve">
<linearGradient id="SVGID_1_" gradientUnits="userSpaceOnUse" x1="3.3434" y1="250.1246" x2="496.1365" y2="250.1246">
	<stop  offset="0" style="stop-color:#24C7FF"/>
	<stop  offset="1" style="stop-color:#6A5CE3"/>
</linearGradient>
<path style="fill:url(#SVGID_1_);" d="M150.357,331.444c-4.26,2.653-7.709,4.942-11.287,7.009
	c-35.672,20.606-71.365,41.176-107.054,61.752c-0.721,0.416-1.468,0.788-2.434,1.303c-8.717-5.049-17.478-10.123-26.238-15.198
	c0-90.86,0-181.475,0-272.345c8.701-5.024,17.401-10.049,26.362-15.224c20.035,11.554,40.093,23.073,60.102,34.677
	c19.974,11.584,40.164,22.811,60.722,35.31c26.536-15.311,54.116-31.224,81.975-47.298c21.824,12.591,43.654,25.185,66.121,38.147
	c-12.175,7.032-23.752,13.719-35.534,20.523c-10.207-5.867-20.359-11.703-30.635-17.61c-25.401,14.648-50.602,29.18-75.85,43.74
	c0,29.291,0,58.381,0,87.79c25.118,14.496,50.311,29.036,75.833,43.766c10.129-5.821,20.277-11.653,30.626-17.6
	c11.691,6.736,23.285,13.417,35.572,20.497c-22.402,12.926-44.206,25.507-66.144,38.165
	C204.779,362.853,177.197,346.934,150.357,331.444z M38.834,144.91c0,70.476,0,140.129,0,210.45
	c27.701-15.999,54.894-31.704,81.991-47.355c0-38.775,0-77.178,0-115.75C93.608,176.54,66.477,160.872,38.834,144.91z
	 M384.724,121.377c-37.301,21.536-74.406,42.959-111.388,64.311c0,43.179,0,85.953,0,128.899
	c37.156,21.454,74.253,42.874,111.377,64.309c37.158-21.439,74.003-42.698,111.424-64.288
	c-12.313-7.106-23.907-13.797-35.649-20.573c-25.362,14.627-50.551,29.154-75.805,43.719
	c-25.393-14.653-50.517-29.152-75.628-43.642c0-29.42,0-58.595,0-87.96c25.242-14.559,50.431-29.087,75.65-43.632
	c25.443,14.68,50.565,29.174,75.784,43.725c11.766-6.795,23.36-13.49,35.636-20.58C458.549,163.98,421.665,142.695,384.724,121.377z
	"/>
</svg>
