<?xml version="1.0" encoding="utf-8"?>
<!-- Generator: Adobe Illustrator 23.0.3, SVG Export Plug-In . SVG Version: 6.00 Build 0)  -->
<svg version="1.1" id="dcn" xmlns="http://www.w3.org/2000/svg" xmlns:xlink="http://www.w3.org/1999/xlink" x="0px" y="0px"
	 viewBox="0 0 500 500" style="enable-background:new 0 0 500 500;" xml:space="preserve">
<style type="text/css">
	.st0{fill:#FFFFFF;}
</style>
<path d="M497.2,252c-1,137.3-112.8,247.2-249.2,246.2c-67.7,0-128.5-27.5-172.7-72.6C30.3,380.5,1.8,317.7,2.8,248
	C3.8,110.7,115.6,0.8,252,1.8S498.2,114.6,497.2,252"/>
<path class="st0" d="M131.3,334.4l-54.9,93.2c0,0,22.6,30.4,86.3,54.9l31.4-85.3l21.6-56.9l21.6-63.8l7.8-20.6l1-2c0,0,0-1,1-1l1-1
	l0,0c0,0,0,0,1,0h1h1l1,2l2,5.9l3.9,11.8l14.7,45.1l12.8,40.2l20.6,61.8l15.7,43.2l6.9,23.5c0,0,50-13.7,92.2-55.9l-30.4-46.1
	l-19.6-34.3l-20.6-39.2l-16.7-34.3l-13.7-31.4l-10.8-32.4l-9.8-30.4L288.3,147l-10.8-36.3l-9.8-36.3l-10.8-40.2L250,12.6l-11.8,38.3
	l-16.7,54L208.8,145l-15.7,46.1l-12.8,37.3l-14.7,35.3l-15.7,34.3L131.3,334.4z"/>
</svg>
