<?xml version="1.0" encoding="iso-8859-1"?>
<!-- Generator: Adobe Illustrator 19.0.0, SVG Export Plug-In . SVG Version: 6.00 Build 0)  -->
<svg version="1.1" id="Layer_1" xmlns="http://www.w3.org/2000/svg" xmlns:xlink="http://www.w3.org/1999/xlink" x="0px" y="0px"
	 viewBox="0 0 2000 2000" style="enable-background:new 0 0 2000 2000;" xml:space="preserve">
<g>
	<path style="fill:#2972FE;" d="M393.737,553.633C267.796,444.045,143.232,335.656,18.507,227.127
		c4.137-5.64,9.354-3.009,13.594-3.015c137.852-0.175,275.704-0.105,413.556-0.245c8.904-0.009,16.321,1.327,23.55,7.669
		c211.278,185.35,422.754,370.474,634.219,555.611c2.675,2.342,5.622,4.375,6.816,9.968c-5.676,0-11.352,0-17.028,0
		c-150.237,0.002-300.475-0.304-450.711,0.09c-159.507,0.418-294.603,109.811-327.235,264.189
		c-37.805,178.849,87.839,360.383,269.354,389.437c59.452,9.516,119.315,5.29,178.961,4.857c24.847-0.18,43.041,6.692,61.494,23.299
		c92.446,83.198,186.114,165.037,279.261,247.458c3.839,3.397,8.969,5.866,10.654,11.753c-6.152,3.525-12.709,1.712-18.911,1.717
		c-158.314,0.128-316.629,0.086-474.943,0.112c-283.496,0.046-533.457-204.636-591.589-482.227
		c-63.53-303.366,97.11-589.052,356.178-699.653C387.681,557.311,389.458,556.061,393.737,553.633z"/>
	<path style="fill:#2ED7A3;" d="M1981.684,1737.366c-6.163,4.223-11.118,2.636-15.711,2.64
		c-137.305,0.109-274.61-0.018-411.915,0.309c-10.505,0.025-18.157-3.167-25.915-9.969
		c-186.208-163.269-372.6-326.329-558.945-489.441c-26.668-23.343-53.272-46.757-80.587-70.736
		c5.933-5.406,12.037-3.16,17.356-3.166c150.228-0.155,300.456,0.128,450.684-0.19c160.912-0.34,298.472-112.548,327.964-266.893
		c33.323-174.393-77.522-343.101-251.604-383.103c-35.421-8.139-71.33-9.578-107.479-9.237c-37.15,0.35-74.306,0.038-111.459,0.113
		c-7.04,0.014-13.337-0.261-19.335-5.573C1091.213,410.44,987.481,318.997,883.826,227.53c3.086-6.16,7.999-3.503,11.642-3.507
		c163.689-0.169,327.409-2.172,491.061,0.292c291.592,4.391,523.241,210.577,580.983,474.113
		c49.612,226.429-9.978,423.95-174.101,588.445c-49.104,49.214-107.023,86.469-170.391,115.124c-4.41,1.994-8.825,3.98-13.18,6.092
		c-0.852,0.413-1.431,1.389-3.061,3.044C1731.576,1519.728,1856.341,1628.295,1981.684,1737.366z"/>
</g>
</svg>
