<?xml version="1.0" encoding="iso-8859-1"?>
<!-- Generator: Adobe Illustrator 19.0.0, SVG Export Plug-In . SVG Version: 6.00 Build 0)  -->
<svg version="1.1" id="Layer_1" xmlns="http://www.w3.org/2000/svg" xmlns:xlink="http://www.w3.org/1999/xlink" x="0px" y="0px"
	 viewBox="0 0 500 500" style="enable-background:new 0 0 500 500;" xml:space="preserve">
<g>
	<path style="fill:#A7CE50;" d="M235.281,164.68c0-11.101,0.01-22.202-0.003-33.303c-0.012-11.05,3.539-16.205,13.698-20.262
		c27.149-10.842,55.6-14.82,84.208-10.849c25.677,3.565,50.016,12.812,70.965,29.087c19.193,14.91,34.029,33.168,45.526,54.768
		c15.003,28.189,20.177,58.119,17.123,89.161c-2.072,21.069-9.106,41.16-18.966,60.358c-14.108,27.468-35.586,46.93-60.947,63.554
		c-11.904,7.803-24.239,14.862-36.134,22.646c-3.514,2.299-7.759,3.457-11.603,5.279c-15.862,7.519-32.378,13.968-47.335,22.993
		c-12.574,7.587-25.815,15.244-33.366,29.258c-2.454,4.554-4.781,9.665-9.72,12.685c-7.495,4.583-14.832,3.032-19.414-4.343
		c-4.337-6.981-6.77-14.871-8.196-22.653c-3.683-20.104-7.885-40.407-3.55-60.941c4.444-21.051,11.862-40.853,23.101-59.546
		c15.121-25.147,36.246-44.446,58.514-62.35c18.365-14.766,39.233-26.108,61.41-34.835c12.295-4.838,24.648-9.345,37.414-12.64
		c6.915-1.785,8.376-6.531,7.065-12.333c-1.385-6.133-6.639-5.422-11.19-4.636c-19.454,3.362-38.375,8.772-56.83,15.715
		c-37.686,14.178-71.686,34.861-104.815,57.59c-23.21,15.925-43.221,35.033-62.158,55.311
		c-10.319,11.051-20.351,22.752-28.114,36.044c-3.73,6.387-9.766,7.97-16.772,6.329c-6.839-1.602-9.654-5.857-9.366-12.906
		c0.294-7.18,2.951-13.64,5.349-20.136c10.258-27.787,23.496-54.138,39.263-79.198c4.329-6.881,5.92-14.225-0.183-19.96
		c-5.277-4.96-11.775-5.873-19.795-2.308c-28.635,12.728-56.294,27.053-82.159,44.771c-7.453,5.105-14.548,5.586-19.465,1.247
		c-5.67-5.003-6.248-11.443-1.29-19.725c8.524-14.239,20.854-25.285,32.177-37.091c11.926-12.435,24.663-24.097,37.142-35.996
		c4.156-3.963,8.703-5.334,14.751-3.371c23.556,7.644,46.074,17.908,69.105,26.86c22.845,8.88,45.691-8.746,44.537-30.162
		c-0.611-11.34-0.108-22.74-0.108-34.113C235.195,164.68,235.238,164.68,235.281,164.68z M243.315,464.772
		c18.973-21.432,42.257-35.607,67.914-47.248c-26.806-6.478-48.227-20.587-64.872-42.186
		C233.099,394.766,231.315,447.43,243.315,464.772z"/>
	<path style="fill:#A7CE50;" d="M218.684,150.369c0,14.082,0.007,28.165-0.009,42.247c-0.002,1.894,0.068,3.816-0.214,5.677
		c-2.076,13.718-9.782,19.404-22.676,14.595c-30.117-11.232-60.317-22.449-89.611-35.614c-20.016-8.996-37.073-22.963-52.408-39.17
		c-6.588-6.962-12.94-13.911-18.76-21.51c-8.33-10.877-3.468-23.006,9.709-26.244c20.853-5.124,40.419-2.4,59.818,5.991
		c9.921,4.291,18.282-1.788,25.224-7.329c9.282-7.407,15.049-17.608,14.247-30.259c-1.207-19.041,7.068-34.594,18.235-48.913
		c5.682-7.285,16.578-6.82,22.134,0.564c8.608,11.44,13.156,25.005,19.407,37.688C219.81,80.613,219.616,115.419,218.684,150.369z
		 M81.796,138.114c5.484-4.188,11.146-10.647,13.243-14.882c3.944-7.964,1.619-12.538-6.917-13.6
		c-4.814-0.599-9.632-1.691-14.441-1.658c-5.848,0.041-12.336-2.426-18.129,3.21C64.279,120.435,70.804,131.055,81.796,138.114z
		 M161.992,69.801c7.386,1.25,12.831-1.862,18.595-2.785c7.925-1.269,9.953-5.319,6.377-12.493
		c-4.182-8.392-8.995-16.47-14.091-25.69C163.385,41.555,162.426,55.195,161.992,69.801z"/>
	<path style="fill:#FDFDFD;" d="M243.315,464.772c-12.001-17.342-10.216-70.006,3.042-89.435
		c16.645,21.599,38.066,35.708,64.872,42.186C285.572,429.165,262.288,443.34,243.315,464.772z"/>
	<path style="fill:#FDFDFD;" d="M81.796,138.114c-10.991-7.059-17.517-17.679-26.244-26.931c5.793-5.635,12.281-3.169,18.129-3.21
		c4.81-0.034,9.628,1.059,14.441,1.658c8.536,1.062,10.862,5.636,6.917,13.6C92.941,127.467,87.28,133.925,81.796,138.114z"/>
	<path style="fill:#FDFDFD;" d="M161.992,69.801c0.434-14.607,1.393-28.247,10.881-40.968c5.096,9.22,9.909,17.298,14.091,25.69
		c3.575,7.175,1.548,11.224-6.377,12.493C174.824,67.94,169.379,71.052,161.992,69.801z"/>
</g>
</svg>
