<?xml version="1.0" encoding="utf-8"?>
<!-- Generator: Adobe Illustrator 24.1.0, SVG Export Plug-In . SVG Version: 6.00 Build 0)  -->
<svg version="1.1" id="DENT" xmlns="http://www.w3.org/2000/svg" xmlns:xlink="http://www.w3.org/1999/xlink" x="0px" y="0px"
	 viewBox="0 0 500 500" style="enable-background:new 0 0 500 500;" xml:space="preserve">
<path d="M216.7,253.7V61.1c0-16.9,13.7-30.6,30.6-30.6s30.6,13.7,30.6,30.6v89.3c10.1-7.3,19.3-15.9,27.4-25.4V61.1
	c0-32-26-58-58-58s-58,26-58,58v143.3C189.3,225.2,200.2,243.5,216.7,253.7z"/>
<path d="M227.7,224.7l166.8-96.3c14.6-8.5,33.4-3.4,41.8,11.2s3.4,33.4-11.2,41.8l-77.3,44.6c11.4,5.1,23.4,8.8,35.7,11l55.3-31.9
	c27.8-16,37.2-51.5,21.2-79.2c-16-27.8-51.5-37.2-79.2-21.2l-124.1,71.7C238.7,186.8,228.3,205.4,227.7,224.7z"/>
<path d="M438.8,292.4l-124.1-71.7c-18-10.4-39.3-10-56.3-0.9l166.8,96.3c14.6,8.5,19.7,27.2,11.2,41.8
	c-8.5,14.6-27.2,19.7-41.8,11.2l-77.3-44.6c1.3,12.4,4.1,24.7,8.3,36.4l55.3,31.9c27.8,16,63.2,6.5,79.2-21.2
	C476,343.9,466.6,308.4,438.8,292.4z"/>
<path d="M277.9,243.8v192.6c0,16.9-13.7,30.6-30.6,30.6s-30.6-13.7-30.6-30.6v-89.3c-10.1,7.3-19.3,15.9-27.4,25.4v63.8
	c0,32,26,58,58,58s58-26,58-58V293.1C305.3,272.3,294.4,254.1,277.9,243.8z"/>
<path d="M266.9,272.9l-166.8,96.3c-14.6,8.5-33.4,3.4-41.8-11.2c-8.5-14.6-3.4-33.4,11.2-41.8l77.3-44.6c-11.4-5.1-23.4-8.8-35.7-11
	l-55.3,31.9c-27.8,16-37.2,51.5-21.2,79.2c16,27.8,51.5,37.2,79.2,21.2l124.1-71.7C255.9,310.8,266.3,292.2,266.9,272.9z"/>
<path d="M55.8,205.2L180,276.9c18,10.4,39.3,10,56.3,0.9L69.5,181.5c-14.6-8.5-19.7-27.2-11.2-41.8s27.2-19.7,41.8-11.2l77.3,44.6
	c-1.3-12.4-4.1-24.7-8.3-36.4l-55.3-31.9c-27.8-16-63.2-6.5-79.2,21.2C18.5,153.7,28,189.1,55.8,205.2z"/>
</svg>
