<?xml version="1.0" encoding="utf-8"?>
<!-- Generator: Adobe Illustrator 25.2.2, SVG Export Plug-In . SVG Version: 6.00 Build 0)  -->
<svg version="1.1" id="deri" xmlns="http://www.w3.org/2000/svg" xmlns:xlink="http://www.w3.org/1999/xlink" x="0px" y="0px"
	 viewBox="0 0 500 500" style="enable-background:new 0 0 500 500;" xml:space="preserve">
<style type="text/css">
	.st0{fill:url(#SVGID_1_);}
</style>
<linearGradient id="SVGID_1_" gradientUnits="userSpaceOnUse" x1="78.9618" y1="154.0853" x2="421.0381" y2="496.1617">
	<stop  offset="0" style="stop-color:#0EDAAB"/>
	<stop  offset="1" style="stop-color:#2C9DE1"/>
</linearGradient>
<path class="st0" d="M498.4,377.4l-198.6-344c-2.1-3.7-6-5.9-10.2-5.9h-79.2c-4.2,0-8.1,2.3-10.2,5.9L1.6,377.4
	c-2.1,3.7-2.1,8.2,0,11.8l39.6,68.6c2.1,3.7,6,5.9,10.2,5.9h397.2c4.2,0,8.1-2.3,10.2-5.9l39.6-68.6
	C500.5,385.6,500.5,381.1,498.4,377.4z M217.2,51.2h51.9L121.6,308.3c-2.1,3.7-2.1,8.2,0,11.8c2.1,3.6,6,5.9,10.2,5.9h79.4h70.9
	l26.3,44.7H32.8L217.2,51.2z M250,270.7l18.3,31.7h-36.7L250,270.7z M31.8,394.3h297.2c4.2,0,8.2-2.3,10.3-6
	c2.1-3.7,2.1-8.2-0.1-11.9L299,308.3L263.6,247l26.2-45.4l138.3,238.5H58.2L31.8,394.3z M448.6,428.3L300,172
	c-2.1-3.6-6-5.9-10.2-5.9c0,0,0,0,0,0c-4.2,0-8.1,2.3-10.2,5.9l-39.8,69c0,0,0,0,0,0l-35.4,61.3h-52.1L289.6,63l184.9,320.3
	L448.6,428.3z"/>
</svg>
