<?xml version="1.0" encoding="utf-8"?>
<!-- Generator: Adobe Illustrator 25.2.0, SVG Export Plug-In . SVG Version: 6.00 Build 0)  -->
<svg version="1.1" id="dfi" xmlns="http://www.w3.org/2000/svg" xmlns:xlink="http://www.w3.org/1999/xlink" x="0px" y="0px"
	 viewBox="0 0 500 500" style="enable-background:new 0 0 500 500;" xml:space="preserve">
<style type="text/css">
	.st0{fill-rule:evenodd;clip-rule:evenodd;fill:#FF00AF;}
</style>
<path class="st0" d="M304.4,432.6V67.3c78.6,23.5,136.1,96.5,136.1,182.7S383.1,409.1,304.4,432.6 M250,4.9v206.5l-31.1-31.1
	l-4-77.6l32.4-97.7c-20.8,0.2-40.9,3.2-60.1,8.3l-15.7,47.2L127,38.2c-17.6,10.3-33.9,22.5-48.4,36.7l82.4,41.3l2.4,47.3l-47.2-2.4
	L74.9,78.7C60.8,93.1,48.5,109.4,38.2,127l22.3,44.5l-47.2,15.7c-5.1,19.2-8.1,39.3-8.3,60.1l97.7-32.4l77.6,4l31.1,31.1l-31.1,31.1
	l-77.6,4L5,252.6c0.2,20.8,3.2,40.9,8.3,60.1l47.2,15.7l-22.3,44.5c10.3,17.6,22.5,33.9,36.7,48.4l41.3-82.4l47.2-2.4l-2.4,47.2
	L78.6,425c14.5,14.2,30.8,26.4,48.4,36.7l44.5-22.3l15.7,47.2c19.2,5.1,39.3,8.1,60.1,8.3l-32.4-97.7l4-77.6l31.1-31.1V495
	c135.3,0,245-109.7,245-245S385.3,4.9,250,4.9"/>
</svg>
