<?xml version="1.0" encoding="iso-8859-1"?>
<!-- Generator: Adobe Illustrator 19.0.0, SVG Export Plug-In . SVG Version: 6.00 Build 0)  -->
<svg version="1.1" id="Layer_1" xmlns="http://www.w3.org/2000/svg" xmlns:xlink="http://www.w3.org/1999/xlink" x="0px" y="0px"
	 viewBox="0 0 500 500" style="enable-background:new 0 0 500 500;" xml:space="preserve">
<path style="fill:#1241F3;" d="M238.819,1.367c8.518-0.436,16.003-0.54,24.804,0c6.611,0.526,12.186,1.716,18.288,2.507
	c63.379,8.22,116.238,36.533,157.256,85.275c49.665,59.018,67.59,127.355,54.898,203.459
	c-6.681,40.058-22.859,76.183-48.026,107.997c-41.706,52.723-95.885,84.074-162.646,93.402c-32.342,4.519-64.347,2.507-95.769-5.888
	c-45.742-12.221-85.058-35.602-117.402-70.349c-34.118-36.652-55.353-79.68-63.359-129.147c-1.441-8.904-2.464-17.877-3.68-26.818
	c-0.75-8.481-0.638-16.421,0-24.804c0.42-2.4,2.662-23.663,4.197-31.736C18.624,146.151,47.084,96.955,93.396,58.433
	c34.345-28.567,73.742-46.4,117.92-53.418C220.446,3.565,229.419,2.123,238.819,1.367z M198.539,188.84c-29.22,0-57.613,0-86.364,0
	c0,69.501,0,138.132,0,206.993c2.357,0.109,4.196,0.27,6.036,0.269c48.137-0.002,96.275-0.046,144.412-0.022
	c15.028,0.007,29.601-2.761,43.685-7.687c79.456-27.79,120.362-114.013,89.472-192.355c-21.639-54.88-63.368-86.748-122.346-93.078
	c-23.704-2.544-47.864-0.84-71.817-1.027c-0.763-0.006-1.53,0.445-3.079,0.928C198.539,131.191,198.539,159.589,198.539,188.84z
	 M111.373,153.023c17.545,0,34.312,0,51.148,0c0-17.36,0-34.112,0-50.702c-17.433,0-34.205,0-51.148,0
	C111.373,119.415,111.373,135.872,111.373,153.023z"/>
<path style="fill:#FFFFFF;" d="M198.539,188.84c0-29.251,0-57.649,0-85.981c1.549-0.482,2.316-0.934,3.079-0.928
	c23.953,0.188,48.113-1.517,71.817,1.027c58.977,6.331,100.707,38.198,122.346,93.078c30.89,78.343-10.016,164.566-89.472,192.355
	c-14.084,4.926-28.657,7.694-43.685,7.687c-48.137-0.023-96.275,0.02-144.412,0.022c-1.84,0-3.679-0.16-6.036-0.269
	c0-68.861,0-137.492,0-206.993C140.927,188.84,169.32,188.84,198.539,188.84z M199.65,307.536c1.035,0.311,1.811,0.748,2.586,0.747
	c19.839-0.011,39.678-0.027,59.517-0.159c3.083-0.021,6.237-0.286,9.231-0.983c29.354-6.827,49.819-34.424,46.773-62.909
	c-3.418-31.964-27.879-54.148-60.04-54.331c-17.155-0.097-34.312-0.035-51.467,0c-2.173,0.004-4.345,0.285-6.599,0.444
	C199.65,229.87,199.65,268.662,199.65,307.536z"/>
<path style="fill:#FFFFFF;" d="M111.373,153.023c0-17.151,0-33.607,0-50.702c16.943,0,33.715,0,51.148,0c0,16.591,0,33.342,0,50.702
	C145.685,153.023,128.918,153.023,111.373,153.023z"/>
<path style="fill:#1241F3;" d="M199.65,307.536c0-38.875,0-77.666,0-117.191c2.254-0.159,4.426-0.439,6.599-0.444
	c17.156-0.035,34.312-0.097,51.467,0c32.161,0.182,56.623,22.367,60.04,54.331c3.046,28.485-17.419,56.082-46.773,62.909
	c-2.994,0.696-6.148,0.962-9.231,0.983c-19.838,0.132-39.678,0.148-59.517,0.159C201.46,308.284,200.685,307.847,199.65,307.536z"/>
</svg>
