<?xml version="1.0" encoding="utf-8"?>
<!-- Generator: Adobe Illustrator 19.0.0, SVG Export Plug-In . SVG Version: 6.00 Build 0)  -->
<svg version="1.1" id="Layer_1" xmlns="http://www.w3.org/2000/svg" xmlns:xlink="http://www.w3.org/1999/xlink" x="0px" y="0px"
	 viewBox="250 -250 2500 2500" style="enable-background:new 250 -250 2500 2500;" xml:space="preserve">
<style type="text/css">
	.st0{fill:#002352;}
	.st1{fill:#0066CC;}
	.st2{fill:#FFFFFF;}
</style>
<circle class="st0" cx="1500" cy="1000" r="1207.5"/>
<path class="st1" d="M1500,2229.1c-165.9,0-326.9-32.5-478.4-96.6c-72.8-30.8-143.1-68.9-208.8-113.3
	c-65.1-44-126.3-94.5-181.9-150.1c-55.6-55.6-106.1-116.8-150.1-181.9c-44.4-65.7-82.5-135.9-113.3-208.8
	C303.5,1326.9,271,1165.9,271,1000c0-165.9,32.5-326.9,96.6-478.4c30.8-72.8,68.9-143.1,113.3-208.8c44-65.1,94.5-126.3,150.1-181.9
	C686.6,75.4,747.8,24.9,812.9-19.1c65.7-44.4,135.9-82.5,208.8-113.3c151.5-64.1,312.5-96.6,478.4-96.6
	c165.9,0,326.9,32.5,478.4,96.6c72.8,30.8,143.1,68.9,208.8,113.3c65.1,44,126.3,94.5,181.9,150.1
	c55.6,55.6,106.1,116.8,150.1,181.9c44.4,65.7,82.5,135.9,113.3,208.8c64.1,151.5,96.6,312.5,96.6,478.4
	c0,165.9-32.5,326.9-96.6,478.4c-30.8,72.8-68.9,143.1-113.3,208.8c-44,65.1-94.5,126.3-150.1,181.9
	c-55.6,55.6-116.8,106.1-181.9,150.1c-65.7,44.4-135.9,82.5-208.8,113.3C1826.9,2196.6,1665.9,2229.1,1500,2229.1z M1500-185.9
	c-160.1,0-315.4,31.4-461.6,93.2C968.1-63,900.4-26.2,837,16.6C774.2,59,715.1,107.8,661.4,161.4C607.8,215.1,559,274.2,516.6,337
	c-42.8,63.4-79.6,131.2-109.3,201.4c-61.8,146.2-93.2,301.5-93.2,461.6s31.4,315.4,93.2,461.6c29.7,70.3,66.5,138,109.3,201.4
	c42.4,62.8,91.2,121.9,144.8,175.5c53.7,53.7,112.7,102.4,175.5,144.8c63.4,42.8,131.2,79.6,201.4,109.3
	c146.2,61.8,301.5,93.2,461.6,93.2s315.4-31.4,461.6-93.2c70.3-29.7,138-66.5,201.4-109.3c62.8-42.4,121.9-91.2,175.5-144.8
	c53.7-53.7,102.4-112.7,144.8-175.5c42.8-63.4,79.6-131.2,109.3-201.4c61.8-146.2,93.2-301.5,93.2-461.6s-31.4-315.4-93.2-461.6
	c-29.7-70.3-66.5-138-109.3-201.4c-42.4-62.8-91.2-121.9-144.8-175.5C2285,107.8,2225.9,59,2163.1,16.6
	c-63.4-42.8-131.2-79.6-201.4-109.3C1815.5-154.6,1660.1-185.9,1500-185.9z"/>
<path class="st2" d="M823.4,686.5h852.7c0,0,294.3-2.8,90.8,376.8c0,0-148.5,297.1-517.1,291.6l198.9-507.1
	c8.1-20.7-2.1-44.1-22.9-52.2c-4.4-1.7-9.2-2.7-13.9-2.8l-261.1-4.5l-330.1,803.2c0,0,110,11,170.5,5.5l-33,82.5h156
	c8.8,0,16.6-5.4,19.7-13.6l27.9-74.4l66-5.5l-38.5,93.5H1341c11.3,0,21.4-6.9,25.6-17.4l42.7-109.1c0,0,462.1-77,671.1-451.1
	c0,0,280.6-434.6-49.5-588.6c-64.3-29.5-133.1-48.1-203.5-55l38.8-94.9c3.9-9.7-0.7-20.7-10.4-24.7c-2.3-0.9-4.7-1.4-7.2-1.4h-142.4
	l-44,115.5h-60.5l34.2-89.7c3.7-9.8-1.2-20.8-11-24.6c-2.2-0.8-4.5-1.2-6.8-1.2h-143l-44,115.5H986.7c-24.4-0.1-46.8,13.4-58.2,34.9
	L823.4,686.5z"/>
</svg>
