<svg width="24" height="24" viewBox="0 0 24 24" fill="currentColor" xmlns="http://www.w3.org/2000/svg">
<path d="M0 15.9692C0 15.9035 0 15.8376 0 15.7719C0.00430188 15.7426 0.0109339 15.7135 0.0125471 15.6842C0.035132 15.2515 0.0523395 14.8185 0.080481 14.386C0.0975092 14.1239 0.125651 13.8623 0.158811 13.6018C0.196094 13.3089 0.241622 13.017 0.289481 12.7258C0.336801 12.4376 0.385914 12.1495 0.444886 11.8636C0.505112 11.5722 0.574121 11.2825 0.647074 10.9939C0.730961 10.6623 0.816461 10.3309 0.914149 10.0032C1.00825 9.68743 1.11239 9.37414 1.22317 9.06371C1.36585 8.66388 1.50333 8.26099 1.67182 7.87193C1.93907 7.25467 2.22067 6.64316 2.51409 6.03793C2.7351 5.58225 2.96041 5.12658 3.25814 4.71346C3.57594 4.27251 3.99447 3.95347 4.48776 3.73533C4.74623 3.62096 5.0142 3.5276 5.27984 3.43029C5.59854 3.31359 5.91813 3.1994 6.23952 3.0906C6.44654 3.02058 6.6568 2.96008 6.86687 2.89939C7.06852 2.84104 7.27053 2.78395 7.47433 2.73404C7.65842 2.68897 7.84448 2.65091 8.03071 2.6159C8.24043 2.57658 8.45032 2.52774 8.66219 2.51284C9.02678 2.48699 9.31554 2.63529 9.49962 2.95702C9.68353 3.2784 9.85829 3.60498 10.0347 3.93049C10.0628 3.98256 10.094 4.00159 10.1549 3.99315C10.4349 3.95509 10.7147 3.91343 10.996 3.88919C11.2808 3.8646 11.5674 3.84718 11.8531 3.84808C12.2345 3.84934 12.6165 3.86173 12.997 3.88776C13.2874 3.90769 13.5758 3.95473 13.8648 3.99315C13.9212 4.00069 13.9514 3.98489 13.9782 3.93462C14.131 3.64969 14.2951 3.3705 14.4402 3.08163C14.6531 2.65719 14.9867 2.4606 15.4579 2.51661C15.6398 2.53834 15.82 2.57909 15.9992 2.61913C16.3052 2.68754 16.6117 2.7545 16.9141 2.83601C17.2502 2.9265 17.5861 3.0213 17.915 3.13477C18.3968 3.30084 18.8734 3.48236 19.3504 3.6619C19.8775 3.86047 20.3253 4.17251 20.6807 4.61328C20.9752 4.97846 21.1735 5.4011 21.3888 5.81225C21.7682 6.53669 22.1124 7.27837 22.411 8.04015C22.5691 8.4434 22.7202 8.8497 22.86 9.25941C22.9817 9.61615 23.0885 9.97811 23.1923 10.3406C23.2904 10.6835 23.3832 11.0284 23.4642 11.3756C23.5379 11.6915 23.5992 12.0105 23.6546 12.3303C23.7281 12.7531 23.8016 13.1766 23.8545 13.6023C23.9055 14.014 23.9439 14.4282 23.9633 14.8426C23.9889 15.3858 23.9991 15.9302 23.9996 16.474C24 16.8579 23.9278 17.2349 23.7802 17.5901C23.5474 18.1506 23.195 18.6226 22.6757 18.9481C22.2113 19.2393 21.7413 19.5224 21.2638 19.7914C20.5255 20.207 19.7555 20.5587 18.9758 20.8889C18.5877 21.0532 18.2002 21.2189 17.8116 21.3821C17.6608 21.4455 17.5063 21.5085 17.3391 21.4886C16.9783 21.4458 16.7155 21.2651 16.5518 20.9316C16.2247 20.2656 15.8868 19.6049 15.5565 18.9404C15.5244 18.8759 15.4875 18.8695 15.4283 18.8887C15.3581 18.9115 15.2873 18.9325 15.2156 18.9499C15.0517 18.9901 14.8875 19.0292 14.7228 19.0661C14.5176 19.1118 14.3125 19.1601 14.1057 19.1975C13.9157 19.2318 13.7241 19.2576 13.5321 19.2786C13.1919 19.316 12.8517 19.3598 12.5104 19.3768C12.174 19.3935 11.8359 19.3858 11.4987 19.3785C11.2844 19.3738 11.0698 19.3569 10.8565 19.3339C10.6084 19.3072 10.3614 19.2698 10.1146 19.2328C9.96799 19.2109 9.82173 19.1845 9.67654 19.1538C9.48546 19.1134 9.29546 19.0684 9.10564 19.0224C8.93339 18.9806 8.76131 18.9375 8.59067 18.8894C8.52561 18.8711 8.4885 18.8786 8.4557 18.9447C8.12302 19.6154 7.78568 20.2839 7.453 20.9546C7.23468 21.3949 6.738 21.6053 6.28487 21.4177C5.9832 21.2927 5.6826 21.1647 5.38326 21.034C4.85736 20.8044 4.32626 20.5853 3.80913 20.3374C3.03444 19.9659 2.28412 19.5485 1.55334 19.0942C1.03837 18.7743 0.620008 18.373 0.34415 17.8281C0.193585 17.5308 0.0903394 17.217 0.0480376 16.8891C0.0148773 16.6324 0.0213301 16.3706 0.00967923 16.111C0.00752829 16.0636 0.00340565 16.0166 0 15.9692ZM22.2119 15.7343C22.1979 15.4103 22.1914 15.1442 22.1733 14.8788C22.1532 14.581 22.1289 14.2829 22.0948 13.9863C22.0579 13.6633 22.0109 13.3414 21.9623 13.0201C21.9294 12.8021 21.8914 12.5845 21.8458 12.3689C21.7838 12.075 21.717 11.7818 21.6444 11.4902C21.5617 11.1586 21.4795 10.8264 21.3807 10.4993C21.276 10.1528 21.1629 9.80808 21.0344 9.46983C20.8324 8.93803 20.634 8.40336 20.3981 7.88629C20.1165 7.26903 19.7967 6.66919 19.494 6.06163C19.3516 5.77598 19.1547 5.53468 18.8628 5.40182C18.5768 5.27165 18.2764 5.17255 17.9806 5.06392C17.7539 4.98062 17.5259 4.90054 17.2964 4.82514C17.0553 4.74596 16.8134 4.66894 16.5692 4.60035C16.3531 4.53949 16.1324 4.49478 15.9155 4.43679C15.7798 4.40052 15.7624 4.40322 15.6976 4.52279C15.5292 4.83304 15.3599 5.14256 15.1917 5.45299C14.9702 5.86198 14.5491 5.98604 14.2019 5.9162C13.8886 5.85318 13.5794 5.767 13.2643 5.71745C12.9854 5.67364 12.7009 5.6485 12.4188 5.64653C11.9748 5.6433 11.5306 5.66628 11.0865 5.67867C11.0659 5.67921 11.0453 5.68459 11.0246 5.68764C10.8101 5.71871 10.5948 5.74582 10.3811 5.78208C10.2413 5.80578 10.1042 5.84438 9.96512 5.87329C9.84933 5.89735 9.73157 5.93918 9.61631 5.93451C9.26356 5.92051 8.99003 5.76197 8.81831 5.44365C8.6509 5.13341 8.47882 4.82549 8.31463 4.51363C8.27197 4.43266 8.22286 4.39963 8.13378 4.42422C7.96851 4.46965 7.8011 4.50825 7.63655 4.55636C7.31929 4.64919 7.00095 4.73932 6.68763 4.84417C6.24023 4.9939 5.7966 5.15549 5.35172 5.31312C4.9995 5.43791 4.73529 5.66628 4.55587 5.99412C4.15705 6.72341 3.77795 7.46293 3.4623 8.23226C3.24272 8.76747 3.02601 9.30537 2.843 9.85386C2.65964 10.4029 2.50602 10.9631 2.36496 11.5248C2.24182 12.0153 2.13965 12.5123 2.05486 13.0111C1.97546 13.4784 1.9086 13.9502 1.87705 14.4228C1.83224 15.0962 1.81916 15.772 1.80625 16.4471C1.80338 16.5952 1.84156 16.75 1.8896 16.892C1.98532 17.1746 2.18517 17.3757 2.4354 17.5337C3.07369 17.9366 3.72543 18.3152 4.41229 18.6296C4.94734 18.8745 5.48525 19.1131 6.02245 19.3535C6.24238 19.4519 6.19399 19.4589 6.29293 19.2659C6.44296 18.9732 6.58815 18.6781 6.73334 18.3829C6.75162 18.3456 6.79518 18.2987 6.71631 18.2694C6.59227 18.2233 6.46698 18.1788 6.34724 18.1233C6.06995 17.9946 5.78172 17.8816 5.52307 17.7218C5.18914 17.5154 5.07263 17.127 5.17552 16.7665C5.33594 16.2042 5.9305 15.9584 6.45766 16.2062C6.77456 16.355 7.09828 16.4909 7.4245 16.618C7.7346 16.7389 8.05025 16.8466 8.36679 16.9495C8.6699 17.048 8.97497 17.1423 9.28363 17.2211C9.58154 17.2972 9.8841 17.3565 10.1865 17.4132C10.4577 17.4642 10.73 17.5195 11.0042 17.5409C11.4021 17.5719 11.8022 17.5769 12.2014 17.5874C12.3532 17.5913 12.5063 17.5877 12.6576 17.5734C12.9327 17.5473 13.2073 17.5132 13.4815 17.4773C13.6465 17.4556 13.8112 17.4301 13.9738 17.3956C14.2082 17.3457 14.441 17.2886 14.6735 17.2299C14.9143 17.169 15.1564 17.1116 15.393 17.0367C15.7334 16.929 16.0729 16.8164 16.4059 16.6886C16.7716 16.5482 17.1329 16.3954 17.4902 16.2344C17.7705 16.108 18.0462 16.0598 18.3384 16.1862C18.6822 16.3349 18.8723 16.6615 18.8705 17.0008C18.8686 17.3599 18.6994 17.6387 18.378 17.7974C18.0347 17.9669 17.6805 18.115 17.3264 18.2608C17.2432 18.2951 17.2525 18.3285 17.2805 18.3845C17.4434 18.7102 17.609 19.0348 17.7687 19.3621C17.7976 19.4214 17.8307 19.4284 17.8811 19.4061C18.3016 19.2203 18.722 19.0337 19.1423 18.8472C19.9795 18.4755 20.7804 18.0367 21.5567 17.5509C21.9586 17.2994 22.1905 16.9509 22.2097 16.4744C22.2205 16.2087 22.2119 15.9421 22.2119 15.7343Z" />
<path d="M17.6736 12.6272C17.6786 13.1669 17.547 13.624 17.2724 14.0368C17.0041 14.4402 16.6425 14.7314 16.1706 14.849C15.4771 15.0217 14.8142 14.7822 14.3423 14.2197C14.117 13.9511 13.9652 13.6432 13.88 13.3061C13.782 12.9168 13.7694 12.5247 13.8589 12.1277C13.9714 11.6274 14.2089 11.204 14.5878 10.8614C14.7999 10.6699 15.0507 10.551 15.3267 10.4769C15.568 10.4121 15.8094 10.3986 16.0516 10.4503C16.4083 10.5264 16.7252 10.6835 16.9836 10.9471C17.2342 11.2026 17.4214 11.4979 17.5386 11.8372C17.6318 12.1076 17.6836 12.3843 17.6736 12.6272Z" />
<path d="M6.339 12.6595C6.34366 11.9854 6.5756 11.4035 7.05329 10.9259C7.2795 10.6999 7.55517 10.5589 7.86491 10.476C8.10976 10.4104 8.35461 10.3979 8.59874 10.4519C8.95382 10.5306 9.26947 10.6891 9.52777 10.953C9.82495 11.2568 10.0293 11.6152 10.134 12.0245C10.2179 12.3525 10.2397 12.6866 10.1872 13.0272C10.1286 13.408 10.0026 13.7574 9.78391 14.0734C9.54282 14.4219 9.22574 14.6781 8.8253 14.8145C8.54371 14.9104 8.2519 14.9277 7.95489 14.8682C7.3166 14.7404 6.89071 14.3481 6.59998 13.7887C6.41697 13.4364 6.33398 13.0576 6.339 12.6595Z" />
</svg>
