<svg width="24" height="24" fill="none" xmlns="http://www.w3.org/2000/svg"><path d="M13.84 5.985h-3.109a.69.69 0 01-.661-.493A.69.69 0 009.408 5h-.324a1 1 0 00-.371.072l-1.147.458-1.43.576a1 1 0 00-.432.335L4.91 7.518a1 1 0 00-.116.205l-.543 1.292-.782 2.086a.997.997 0 00-.044.15l-.406 1.983a1 1 0 00-.02.2v3.6a1 1 0 00.454.838l1.651 1.075c.07.045.144.082.222.108l1.208.415.515.206a1 1 0 001.241-.435l.115-.203a1 1 0 00-.363-1.355l-.625-.367a.148.148 0 01.13-.264l1.752.708c.071.028.145.049.22.06l2.24.35c.052.008.103.012.155.012h1.675c.059 0 .117-.005.176-.016l1.474-.264c.088-.015.173-.043.253-.08l1.658-.788a.21.21 0 01.193.372l-.665.373a.795.795 0 00-.29 1.107l.235.387a1 1 0 001.23.407l1.56-.631c.054-.023.107-.05.157-.081l1.797-1.133a1 1 0 00.461-.742l.16-1.535a.996.996 0 000-.207l-.21-2.018-.355-2.08a.99.99 0 00-.039-.155l-.71-2.083-.622-1.314a.993.993 0 00-.099-.165l-.823-1.12a1 1 0 00-.38-.312l-1.417-.668a1.001 1.001 0 00-.252-.08l-1.398-.248a1 1 0 00-.975.385l-.068.09a1 1 0 01-.8.402z" fill="#5865F2"/><ellipse cx="9.333" cy="13.182" rx="1.915" ry="1.97" fill="#fff"/><ellipse cx="15.667" cy="13.182" rx="1.915" ry="1.97" fill="#fff"/></svg>
