<svg width="24" height="24" viewBox="0 0 24 24" fill="currentColor" xmlns="http://www.w3.org/2000/svg">
<path d="M19.6356 5.05943C18.1902 4.39769 16.6643 3.92822 15.0968 3.66302C14.8824 4.04645 14.6883 4.44095 14.5154 4.84487C12.8458 4.59328 11.1479 4.59328 9.47832 4.84487C9.30538 4.44099 9.11131 4.0465 8.89691 3.66302C7.32848 3.93046 5.80156 4.40104 4.35469 5.0629C1.48227 9.31269 0.703601 13.4569 1.09294 17.5423C2.7751 18.7852 4.65791 19.7304 6.65954 20.3369C7.11025 19.7307 7.50907 19.0876 7.85177 18.4144C7.20086 18.1713 6.57262 17.8714 5.97432 17.5181C6.13178 17.4039 6.28578 17.2862 6.4346 17.172C8.17552 17.9907 10.0756 18.4152 11.9995 18.4152C13.9233 18.4152 15.8234 17.9907 17.5644 17.172C17.7149 17.2949 17.8689 17.4126 18.0246 17.5181C17.4252 17.872 16.7958 18.1725 16.1437 18.4162C16.486 19.089 16.8848 19.7316 17.3359 20.3369C19.3393 19.7328 21.2235 18.7881 22.906 17.5441C23.3628 12.8063 22.1256 8.70014 19.6356 5.05943ZM8.34493 15.0298C7.25998 15.0298 6.36365 14.0453 6.36365 12.834C6.36365 11.6227 7.22884 10.6295 8.34147 10.6295C9.45409 10.6295 10.3435 11.6227 10.3245 12.834C10.3054 14.0453 9.45063 15.0298 8.34493 15.0298ZM15.654 15.0298C14.5673 15.0298 13.6745 14.0453 13.6745 12.834C13.6745 11.6227 14.5397 10.6295 15.654 10.6295C16.7684 10.6295 17.6509 11.6227 17.6318 12.834C17.6128 14.0453 16.7597 15.0298 15.654 15.0298Z" />
</svg>
