<svg width="19" height="15" viewBox="0 0 19 15" fill="none" xmlns="http://www.w3.org/2000/svg">
<path d="M10.8402 0.984848H7.73103C7.42602 0.984848 7.15717 0.784646 7.06977 0.492424C6.98236 0.200203 6.71351 0 6.4085 0H6.08408C5.95684 0 5.83078 0.024281 5.71265 0.0715403L4.56589 0.530303L3.13577 1.10598C2.9634 1.17537 2.81377 1.2914 2.70367 1.44108L1.91143 2.51802C1.8647 2.58154 1.82564 2.65037 1.79508 2.72307L1.25194 4.01515L0.469507 6.10056C0.451104 6.14961 0.436585 6.20002 0.426081 6.25134L0.0203054 8.23411C0.006803 8.30009 0 8.36726 0 8.43461V10.4545V12.0338C0 12.3719 0.170839 12.6871 0.454119 12.8716L2.10525 13.9474C2.17435 13.9924 2.24876 14.0287 2.32677 14.0554L3.53488 14.4697L4.04983 14.6757C4.51421 14.8615 5.04442 14.6756 5.29114 14.2405L5.40583 14.0382C5.67526 13.5631 5.5136 12.9597 5.04272 12.6829L4.4177 12.3155C4.37263 12.289 4.34496 12.2406 4.34496 12.1884C4.34496 12.0838 4.45075 12.0125 4.54769 12.0516L6.30014 12.7599C6.37113 12.7885 6.44518 12.809 6.52083 12.8208L8.76067 13.1699C8.81162 13.1778 8.86311 13.1818 8.91467 13.1818H10.5895C10.6486 13.1818 10.7075 13.1766 10.7657 13.1662L12.2403 12.9024C12.3278 12.8867 12.4128 12.8595 12.4931 12.8214L14.1513 12.0341C14.2323 11.9956 14.3289 12.013 14.3914 12.0773C14.4873 12.176 14.4637 12.3388 14.3437 12.4061L13.6793 12.7789C13.2868 12.9991 13.1551 13.5009 13.3887 13.8855L13.6242 14.2729C13.8788 14.6921 14.3998 14.8647 14.8544 14.6805L16.4136 14.0486C16.4685 14.0263 16.5213 13.9993 16.5714 13.9677L18.3681 12.8349C18.6276 12.6713 18.7976 12.3976 18.8294 12.0926L18.9892 10.5581C18.9964 10.4893 18.9964 10.4198 18.9892 10.351L18.7791 8.33333L18.4243 6.25317C18.4154 6.20064 18.4022 6.1489 18.385 6.09846L17.6744 4.01515L17.0529 2.70092C17.0255 2.64287 16.9925 2.58759 16.9544 2.53586L16.1307 1.41608C16.0322 1.28222 15.9019 1.17501 15.7516 1.10414L14.3338 0.435637C14.2537 0.397904 14.169 0.37096 14.0819 0.355508L12.6841 0.107585C12.3122 0.0416179 11.9348 0.190853 11.7086 0.493364L11.641 0.583702C11.4523 0.836182 11.1555 0.984848 10.8402 0.984848Z" fill="#5865F2"/>
<ellipse cx="6.33319" cy="8.18179" rx="1.91473" ry="1.9697" fill="white"/>
<ellipse cx="12.6667" cy="8.18179" rx="1.91473" ry="1.9697" fill="white"/>
</svg>
