<?xml version="1.0" encoding="iso-8859-1"?>
<!-- Generator: Adobe Illustrator 19.0.0, SVG Export Plug-In . SVG Version: 6.00 Build 0)  -->
<svg version="1.1" id="Layer_1" xmlns="http://www.w3.org/2000/svg" xmlns:xlink="http://www.w3.org/1999/xlink" x="0px" y="0px"
	 viewBox="1000 -1000 2500 2500" style="enable-background:new 1000 -1000 2500 2500;" xml:space="preserve">
<path style="fill:#322A3F;" d="M1251.888-981.518h1996.224c128.906,0,233.406,104.499,233.406,233.406v1996.224
	c0,128.906-104.499,233.406-233.406,233.406H1251.888c-128.906,0-233.406-104.499-233.406-233.406V-748.112
	C1018.482-877.018,1122.982-981.518,1251.888-981.518z"/>
<path style="fill:#F4AE95;" d="M2235.022-325.485L1761.47,661.893h786.174c22.786-0.004,43.378,13.582,52.339,34.532l0.832,1.914
	c5.894,13.742,5.001,29.453-2.413,42.437c-13.344,23.25-38.097,37.594-64.904,37.611h-835.518
	c-12.885-0.006-25.481-3.828-36.197-10.984l-4.41-2.912c-18.15-12.123-29.047-32.51-29.041-54.337
	c-0.019-9.855,2.2-19.586,6.49-28.458l558.76-1149.888c5.839-12.002,14.147-22.635,24.381-31.204
	c20.005-16.681,48.993-16.96,69.314-0.666c4.417,3.493,7.999,7.928,10.484,12.981L2864.51,670.713
	c7.687,15.733,9.287,33.751,4.493,50.592c-5.405,19.04-22.812,32.163-42.604,32.119h-6.49
	c-26.435-0.001-50.491-15.271-61.742-39.192l-488.779-1039.55c-4.396-9.511-15.669-13.659-25.181-9.263
	C2240.175-332.718,2236.924-329.499,2235.022-325.485L2235.022-325.485z"/>
</svg>
