<?xml version="1.0" encoding="utf-8"?>
<!-- Generator: Adobe Illustrator 23.0.3, SVG Export Plug-In . SVG Version: 6.00 Build 0)  -->
<svg version="1.1" id="Layer_1" xmlns="http://www.w3.org/2000/svg" xmlns:xlink="http://www.w3.org/1999/xlink" x="0px" y="0px"
	 viewBox="0 0 500 500" style="enable-background:new 0 0 500 500;" xml:space="preserve">
<style type="text/css">
	.st0{fill:none;}
	.st1{fill:url(#SVGID_1_);}
	.st2{opacity:0.25;fill:url(#SVGID_2_);enable-background:new    ;}
	.st3{opacity:0.25;fill:url(#SVGID_3_);enable-background:new    ;}
	.st4{fill:url(#SVGID_4_);}
</style>
<rect x="4" y="10.6" class="st0" width="491.9" height="478.7"/>
<g>
	
		<linearGradient id="SVGID_1_" gradientUnits="userSpaceOnUse" x1="1.1334" y1="496.0116" x2="9.8754" y2="496.0116" gradientTransform="matrix(22.2733 0 0 -53.03 -20.1331 26553.7109)">
		<stop  offset="0" style="stop-color:#00BA95"/>
		<stop  offset="0.52" style="stop-color:#00D9AD"/>
		<stop  offset="1" style="stop-color:#00F9AB"/>
	</linearGradient>
	<path class="st1" d="M194.6,229.2l-56.8-98.3L80.5,31.6c-3.3-5.6-7.9-10.4-13.4-13.9h-0.9c-5.9,3.4-10.7,8.3-13.9,14.3l-43,74.4
		c-6.2,10.6-6.2,23.8,0,34.4l51.6,89.3c3.6,6.2,5.4,13.3,5.3,20.5c-0.1,7.2-1.9,14.2-5.3,20.5L9.8,359.6c-6.2,10.6-6.2,23.8,0,34.4
		l43,74.4c3.2,5.8,7.8,10.7,13.4,14.3h0.4c5.7-3.2,10.5-7.9,13.9-13.5l57.3-99.3l56.8-98.4C201.8,258.4,201.8,242.4,194.6,229.2z"/>
	
		<linearGradient id="SVGID_2_" gradientUnits="userSpaceOnUse" x1="1.9513" y1="496.0116" x2="10.7196" y2="496.0116" gradientTransform="matrix(22.2324 0 0 -53.03 -17.7042 26553.7109)">
		<stop  offset="0" style="stop-color:#00BA95"/>
		<stop  offset="0.52" style="stop-color:#00D9AD"/>
		<stop  offset="1" style="stop-color:#00D9AD"/>
	</linearGradient>
	<path class="st2" d="M215.3,229.2l-57-98.3l-57-99.3C98,26,93.4,21.2,87.9,17.7h-0.4c-5.9,3.4-10.7,8.3-13.9,14.3l-43,74.4
		c-6.2,10.6-6.2,23.8,0,34.4l51.6,89.3c3.6,6.2,5.4,13.3,5.3,20.5c-0.1,7.2-1.9,14.2-5.3,20.5l-51.9,88.5c-6.2,10.6-6.2,23.8,0,34.4
		l43,74.4c3.3,5.9,8.1,10.8,13.9,14.3h0.4c5.7-3.2,10.4-7.9,13.7-13.5l57-99.6l57-98.4C222.4,258.1,222.4,242.3,215.3,229.2z"/>
	
		<linearGradient id="SVGID_3_" gradientUnits="userSpaceOnUse" x1="11.4849" y1="496.128" x2="20.2532" y2="496.128" gradientTransform="matrix(23.9487 0 0 -54.44 10.2776 27258.9375)">
		<stop  offset="0" style="stop-color:#008D85"/>
		<stop  offset="1" style="stop-color:#00FFDE"/>
	</linearGradient>
	<path class="st3" d="M489.1,226.8L432.3,128L373.6,25.9c-2.7-4.6-6.3-8.7-10.5-11.9c-2.1-1.8-4.8-2.9-7.5-2.9
		c-30.1,0-50.6,1-65.8,1c-2.4,0-3.9,2.9-3.3,5.3l14.8,83c0.1,1-0.1,2-0.4,2.9c-5.7,10.7-5.3,23.6,1,33.9l52.6,91.6
		c3.7,6.4,5.7,13.7,5.7,21c0,7.4-2,14.6-5.7,21l-53.5,91.6c-6,10.4-6.4,23.2-1,33.9c0.4,0.9,0.5,1.9,0.4,2.9l-14.9,82.4
		c-0.4,2.4,1,5.3,3.3,5.3c13.9,0-5.7,1.4,67.8,1.4c1.6-0.1,3.2-0.4,4.7-1c5.3-1.9,8.8-8.2,11.5-13.3L431.5,372l56.8-98.8
		C497.4,259.1,497.7,241.2,489.1,226.8z"/>
	
		<linearGradient id="SVGID_4_" gradientUnits="userSpaceOnUse" x1="2.2084" y1="496.1282" x2="10.9679" y2="496.1282" gradientTransform="matrix(46.2199 0 0 -54.5 -35.8709 27288.998)">
		<stop  offset="0" style="stop-color:#008D95"/>
		<stop  offset="1" style="stop-color:#00FFDE"/>
	</linearGradient>
	<path class="st4" d="M466.2,229.2L351.6,31.6c-7.3-12.5-20.6-20.2-35.1-20.5h-228c-7.9,0-15.6,2.1-22.4,6.2v0.4
		c5.6,3.4,10.2,8.1,13.3,13.9l57.3,99.3c5.5-2.5,11.5-3.8,17.5-3.9H249c14.6-0.1,28,7.8,35.1,20.5l47.3,81.6c7.2,12.7,7.2,28.3,0,41
		l-46.8,82.1c-7.3,12.5-20.6,20.2-35.1,20.5h-94c-6.1,0-12-1.3-17.5-3.9l-57,99.5c-3.3,5.6-7.9,10.3-13.3,13.9v0.4
		c6.5,4,13.9,6.1,21.5,6.2h228.7c14.6,0.1,28-7.8,35.1-20.5l113.1-198.1C473.2,257.6,473.3,242,466.2,229.2z"/>
</g>
</svg>
