<?xml version="1.0" encoding="iso-8859-1"?>
<!-- Generator: Adobe Illustrator 19.0.0, SVG Export Plug-In . SVG Version: 6.00 Build 0)  -->
<svg version="1.1" id="Layer_1" xmlns="http://www.w3.org/2000/svg" xmlns:xlink="http://www.w3.org/1999/xlink" x="0px" y="0px"
	 viewBox="956 -1000 2412 2500" style="enable-background:new 956 -1000 2412 2500;" xml:space="preserve">
<path style="fill:#04FFCC;" d="M3327.161,19.738c-16.491-80.342-45.953-157.463-87.23-228.337
	c-84.664-141.107-269.386-346.354-500.288-507.985c0,0-174.459-112.886-256.558-151.369
	c-300.173-138.541-636.264-166.763-923.609,87.23C1077.145-352.271,835.981,245.51,1077.145,840.725
	c5.131,12.828,138.541,377.14,939.003,620.871c351.485,10.262,556.731-10.262,782.502-141.107
	c295.042-169.328,466.936-477.198,528.51-790.199C3345.119,435.363,3347.685,114.665,3327.161,19.738"/>
<path style="fill:#7DF8FB;" d="M2393.289-824.338v572.125l-661.92-41.049L1459.417,50.525l-33.353,649.092l225.771,241.165
	l338.657,169.328l443.845,48.746l482.329-123.148V-157.287l-92.361-495.157c0,0-259.124-202.681-428.452-251.427"/>
<g>
	<path style="fill:#2C398F;" d="M3168.094,594.429c-92.361-5.131-41.049-151.369-82.098-318.132
		c-48.746-184.722,23.09-313.001,118.017-307.87c44.58,6.948,86.824,24.55,123.148,51.312
		c-16.491-80.342-45.953-157.463-87.23-228.337c-84.664-141.107-269.386-346.354-500.288-507.985V830.462
		c0.087,86.291-69.795,156.315-156.086,156.402c-60.573,0.061-115.723-34.893-141.521-89.697
		c-285.797,177.133-661.076,89.043-838.208-196.754s-89.043-661.076,196.754-838.208c190.993-118.375,431.661-121.923,626.061-9.229
		V-747.37c-0.86-46.763,19.982-91.289,56.443-120.582c-300.173-138.541-636.264-166.763-923.609,87.23
		C1077.146-352.271,835.981,245.51,1077.146,840.725c5.131,12.828,10.262,25.656,15.394,35.918
		c7.051-14.4,16.607-27.431,28.221-38.484c125.714-128.279,264.255,133.41,559.297,284.78
		c187.287,94.926,295.042,220.64,336.091,338.657c274.517,33.353,556.731-10.262,782.502-141.107
		c295.042-169.328,466.936-477.198,528.51-790.199C3282.849,568.93,3226.816,591.524,3168.094,594.429L3168.094,594.429z
		 M2162.386-621.657c69.271-2.566,133.41,79.533,135.976,118.017c2.566,38.484-59.008,23.09-125.714,46.18
		c-74.402,25.656-128.279,2.566-130.844-35.918S2090.55-619.091,2162.386-621.657z"/>
	<path style="fill:#2C398F;" d="M2011.017,604.691c148.804,84.664,328.394,51.312,361.747-138.541
		c17.959-110.32,7.697-282.214-89.795-336.091C1959.706-54.663,1687.754,419.969,2011.017,604.691"/>
</g>
</svg>
