<?xml version="1.0" encoding="iso-8859-1"?>
<!-- Generator: Adobe Illustrator 19.0.0, SVG Export Plug-In . SVG Version: 6.00 Build 0)  -->
<svg version="1.1" id="Layer_1" xmlns="http://www.w3.org/2000/svg" xmlns:xlink="http://www.w3.org/1999/xlink" x="0px" y="0px"
	 viewBox="0 0 500 500" style="enable-background:new 0 0 500 500;" xml:space="preserve">
<g>
	<linearGradient id="SVGID_1_" gradientUnits="userSpaceOnUse" x1="73.0489" y1="426.049" x2="429.049" y2="70.0489">
		<stop  offset="0" style="stop-color:#70B3DF"/>
		<stop  offset="1" style="stop-color:#7D64BD"/>
	</linearGradient>
	<path style="fill:url(#SVGID_1_);" d="M249.288,4c135.639-0.157,245.759,109.618,245.795,245.025
		c0.036,135.699-109.768,245.991-245.24,245.528C115.219,494.093,5.007,384.999,4.533,250.002
		C4.056,114.214,113.816,4.157,249.288,4z M245.368,214.226c-9.445,8.064-16.935,13.723-23.53,20.281
		c-7.755,7.712-9.173,16.891-0.756,24.88c8.109,7.696,16.889,5.613,24.281-1.756c16.045-15.996,31.906-32.18,47.703-48.422
		c7.881-8.104,8.176-16.802,0.249-24.97c-15.778-16.258-31.781-32.299-47.784-48.336c-7.716-7.732-16.499-9.966-24.784-1.589
		c-8.26,8.352-5.921,16.967,1.757,24.811c5.745,5.869,11.297,11.927,18.041,19.074c-4.056,0.197-5.801,0.342-7.548,0.357
		c-66.803,0.592-115.195,49.699-114.517,116.222c0.577,56.625,48.551,106.283,104.985,108.669
		c60.897,2.574,115.24-41.681,117.783-100.347c2.699-62.269,1.161-124.729,1.076-187.106c-0.014-10.486-5.945-17.581-17.239-16.873
		c-11.93,0.748-15.296,9.191-15.306,19.787c-0.055,57.094-0.078,114.188-0.243,171.282c-0.073,25.344-9.716,46.486-29.496,62.401
		c-25.904,20.842-62.657,23.051-90.133,6.026c-29.228-18.11-43.548-50.99-36.727-84.326
		C161.347,234.376,203.393,204.779,245.368,214.226z"/>
	<path style="fill:#FFFFFF;" d="M245.368,214.226c-41.975-9.447-84.021,20.15-92.188,60.064
		c-6.821,33.336,7.499,66.216,36.727,84.326c27.476,17.025,64.229,14.816,90.133-6.026c19.78-15.915,29.423-37.057,29.496-62.401
		c0.165-57.094,0.188-114.188,0.243-171.282c0.01-10.595,3.375-19.038,15.306-19.787c11.295-0.708,17.225,6.387,17.239,16.873
		c0.085,62.376,1.623,124.836-1.076,187.106c-2.543,58.667-56.887,102.922-117.783,100.347
		c-56.433-2.386-104.408-52.044-104.985-108.669c-0.678-66.522,47.714-115.629,114.517-116.222c1.747-0.015,3.492-0.161,7.548-0.357
		c-6.744-7.147-12.296-13.205-18.041-19.074c-7.678-7.844-10.018-16.459-1.757-24.811c8.285-8.377,17.068-6.144,24.784,1.589
		c16.003,16.037,32.007,32.078,47.784,48.336c7.926,8.168,7.632,16.867-0.249,24.97c-15.797,16.242-31.658,32.426-47.703,48.422
		c-7.392,7.369-16.173,9.452-24.281,1.756c-8.417-7.989-6.998-17.168,0.756-24.88C228.432,227.949,235.923,222.29,245.368,214.226z"
		/>
</g>
</svg>
