<svg aria-hidden="true" data-testid="test-icon" fill="currentColor" viewBox="0 0 24 24" xmlns="http://www.w3.org/2000/svg"><path fill-rule="evenodd" clip-rule="evenodd" d="M8.082 15.437a.858.858 0 011.177 0l2.743 2.633 2.743-2.633a.858.858 0 011.178 0 .777.777 0 010 1.13l-3.332 3.199a.857.857 0 01-1.178 0l-3.331-3.198a.777.777 0 010-1.131z"/><path fill-rule="evenodd" clip-rule="evenodd" d="M12.002 11.205c.46 0 .833.358.833.8V19.2c0 .441-.373.799-.833.799-.46 0-.833-.358-.833-.8v-7.195c0-.442.373-.8.833-.8z"/><path fill-rule="evenodd" clip-rule="evenodd" d="M9.227 4.005a7.769 7.769 0 013.297.608 7.48 7.48 0 012.69 1.93 7.13 7.13 0 011.353 2.264h.432a5.14 5.14 0 012.954.925 4.81 4.81 0 011.814 2.423c.32.972.31 2.017-.03 2.983a4.819 4.819 0 01-1.86 2.39.855.855 0 01-1.16-.194.78.78 0 01.202-1.114 3.213 3.213 0 001.24-1.593c.227-.645.233-1.341.02-1.99a3.206 3.206 0 00-1.21-1.614A3.426 3.426 0 0017 10.405h-1.05a.828.828 0 01-.807-.601 5.522 5.522 0 00-1.2-2.228 5.818 5.818 0 00-2.091-1.5 6.042 6.042 0 00-5.089.175A5.768 5.768 0 004.79 7.893a5.484 5.484 0 00-1.03 2.305 5.38 5.38 0 00.122 2.505 5.534 5.534 0 001.249 2.202.777.777 0 01-.072 1.128.857.857 0 01-1.176-.069 7.114 7.114 0 01-1.605-2.831 6.917 6.917 0 01-.157-3.22A7.05 7.05 0 013.444 6.95a7.417 7.417 0 012.539-2.11 7.74 7.74 0 013.244-.835z"/></svg>
