<?xml version="1.0" encoding="iso-8859-1"?>
<!-- Generator: Adobe Illustrator 19.0.0, SVG Export Plug-In . SVG Version: 6.00 Build 0)  -->
<svg version="1.1" id="Layer_1" xmlns="http://www.w3.org/2000/svg" xmlns:xlink="http://www.w3.org/1999/xlink" x="0px" y="0px"
	 viewBox="1832 0 500 500" style="enable-background:new 1832 0 500 500;" xml:space="preserve">
<title>drgn</title>
<g>
	<path style="fill:#1797E5;" d="M2173.681,124.119c0,0,7.816-7.816,11.371-15.633c0,0-8.531-9.951,0-19.898
		c0,0,2.131-12.777-7.11-19.898c0,0,16.347-12.777,34.824,9.237c0,0,5.682-4.261,10.657,2.845c0,0,54.719,14.212,36.955,112.992
		L2173.681,124.119z"/>
	<path style="fill:#122A44;" d="M2261.665,197.201l-90.787-72.93l1.477-1.478c0.082-0.082,6.967-7.019,10.516-14.093
		c-0.803-1.159-2.058-3.251-2.821-5.919c-1.071-3.749-1.357-9.35,3.211-14.974c0.239-2.254,0.805-12.031-6.464-17.633l-1.913-1.474
		l1.903-1.487c0.185-0.145,4.618-3.553,11.508-4.03c4.032-0.279,8.074,0.498,12.017,2.31c4.458,2.048,8.789,5.431,12.889,10.067
		c1.169-0.508,2.904-0.991,4.902-0.672c2.433,0.388,4.604,1.823,6.463,4.269c1.278,0.41,4.266,1.502,8.086,3.766
		c4.581,2.715,11.323,7.73,17.431,16.206c6.821,9.465,11.485,21.236,13.862,34.987c2.948,17.052,2.369,37.232-1.722,59.979
		L2261.665,197.201z M2176.443,123.934l82.633,66.379c3.501-20.94,3.911-39.542,1.215-55.334
		c-2.249-13.168-6.65-24.415-13.083-33.427c-3.147-4.41-8.523-10.64-16.258-15.279c-4.636-2.78-7.968-3.679-8.001-3.688
		l-0.663-0.175l-0.397-0.563c-1.326-1.894-2.785-2.988-4.335-3.25c-2.013-0.339-3.659,0.828-3.676,0.839l-1.419,1.065l-1.127-1.369
		c-3.996-4.761-8.188-8.184-12.459-10.175c-3.344-1.558-6.752-2.247-10.128-2.046c-3.308,0.196-5.969,1.219-7.653,2.067
		c7.715,7.833,5.898,19.392,5.811,19.918l-0.086,0.515l-0.34,0.397c-7.354,8.575-0.3,17.103,0.004,17.462l0.767,0.906l-0.488,1.085
		C2184.009,115.307,2178.929,121.231,2176.443,123.934z"/>
</g>
<g>
	
		<linearGradient id="SVGID_1_" gradientUnits="userSpaceOnUse" x1="2037.5372" y1="427.5184" x2="2022.5079" y2="432.5236" gradientTransform="matrix(1.8958 0 0 -1.8958 -1641.0707 947.9451)">
		<stop  offset="0.33" style="stop-color:#F3F5F7"/>
		<stop  offset="0.78" style="stop-color:#8099B9"/>
	</linearGradient>
	<path style="fill:url(#SVGID_1_);" d="M2203.883,113.105c0,0,6.388,2.131,9.947-1.42c0,0,12.555,23.923,3.435,47.492
		l-28.304-19.068C2188.96,140.109,2203.883,132.999,2203.883,113.105z"/>
	<path style="fill:#122A44;" d="M2217.264,159.739c-0.111,0-0.22-0.033-0.314-0.096l-28.304-19.068
		c-0.167-0.113-0.261-0.307-0.247-0.508s0.136-0.379,0.319-0.466c0.036-0.017,3.702-1.799,7.314-5.943
		c3.325-3.814,7.288-10.476,7.288-20.553c0-0.181,0.087-0.35,0.234-0.456c0.146-0.106,0.334-0.134,0.506-0.077l0,0
		c0.016,0.005,1.569,0.514,3.514,0.594c2.532,0.105,4.504-0.528,5.859-1.879c0.127-0.126,0.305-0.185,0.482-0.158
		c0.177,0.027,0.33,0.136,0.413,0.295c0.032,0.06,3.197,6.149,5.188,15.046c1.841,8.221,3.035,20.604-1.727,32.91
		c-0.062,0.16-0.193,0.282-0.356,0.334C2217.378,159.73,2217.321,159.739,2217.264,159.739z M2190.043,140.161l26.946,18.153
		c4.363-11.814,3.204-23.653,1.436-31.566c-1.587-7.102-3.928-12.379-4.775-14.153c-1.54,1.219-3.648,1.803-6.154,1.694
		c-1.275-0.055-2.376-0.275-3.059-0.444c-0.189,10.04-4.208,16.725-7.594,20.594C2194.1,137.575,2191.377,139.383,2190.043,140.161z
		"/>
</g>
<g>
	
		<linearGradient id="SVGID_2_" gradientUnits="userSpaceOnUse" x1="2048.8311" y1="421.6908" x2="2031.5302" y2="422.4877" gradientTransform="matrix(1.8958 0.0093 0.0093 -1.8958 -1640.922 923.2833)">
		<stop  offset="0.33" style="stop-color:#F3F5F7"/>
		<stop  offset="0.37" style="stop-color:#E4E9EF"/>
		<stop  offset="0.48" style="stop-color:#C0CCDC"/>
		<stop  offset="0.59" style="stop-color:#A4B6CC"/>
		<stop  offset="0.7" style="stop-color:#90A6C2"/>
		<stop  offset="0.81" style="stop-color:#849CBB"/>
		<stop  offset="0.91" style="stop-color:#8099B9"/>
	</linearGradient>
	<path style="fill:url(#SVGID_2_);" d="M2218.974,108.058c0,0,6.388,0.03,9.973-4.927c0,0,30.439,24.077,15.603,78.367l-20.86-20.83
		C2223.69,160.668,2235.892,135.855,2218.974,108.058z"/>
	<path style="fill:#122A44;" d="M2244.551,182.06c-0.147,0-0.291-0.058-0.397-0.164l-20.86-20.83c-0.17-0.17-0.213-0.43-0.107-0.646
		c0.03-0.062,3.028-6.258,3.936-15.736c0.533-5.559,0.253-11.145-0.831-16.601c-1.355-6.82-3.978-13.459-7.797-19.733
		c-0.106-0.174-0.109-0.392-0.009-0.569c0.1-0.177,0.287-0.286,0.49-0.286c0.001,0,0.002,0,0.003,0c0.093,0,6.157-0.051,9.515-4.694
		c0.09-0.124,0.226-0.206,0.378-0.227c0.152-0.021,0.306,0.021,0.426,0.116c0.08,0.063,1.977,1.576,4.605,4.689
		c2.415,2.861,5.924,7.672,8.924,14.347c3.368,7.494,5.423,15.764,6.107,24.581c0.853,11.004-0.438,22.894-3.839,35.34
		c-0.053,0.193-0.204,0.344-0.398,0.395C2244.647,182.054,2244.599,182.06,2244.551,182.06z M2224.366,160.549l19.894,19.865
		c3.174-11.963,4.369-23.387,3.554-33.973c-0.668-8.68-2.683-16.82-5.987-24.193c-4.848-10.817-11.104-16.812-12.793-18.304
		c-2.91,3.606-7.198,4.432-9.101,4.621c3.634,6.161,6.145,12.66,7.467,19.331c1.104,5.57,1.385,11.272,0.836,16.945
		C2227.418,153.302,2225.034,159.068,2224.366,160.549z"/>
</g>
<g>
	<path style="fill:#1797E5;" d="M1900.648,168.094c0,0-43.911,16.429-37.515,39.882c0,0,1.353,7.719,15.246,5.637
		C1878.378,213.613,1908.99,170.138,1900.648,168.094z"/>
	<path style="fill:#122A44;" d="M1873.91,216.034c-4.061,0-7.297-0.954-9.656-2.852c-2.372-1.909-2.997-4.135-3.127-4.725
		c-1.598-5.929-0.436-11.9,3.453-17.748c2.992-4.499,7.614-8.928,13.74-13.164c10.271-7.103,21.148-11.21,21.606-11.382l0.596-0.223
		l0.618,0.151c1.27,0.311,2.224,1.162,2.687,2.396c0.849,2.265,0.048,5.829-2.598,11.556c-1.872,4.052-4.671,9.144-8.321,15.135
		c-6.18,10.144-12.776,19.528-12.842,19.622l-0.508,0.721l-0.872,0.131C1876.985,215.907,1875.392,216.034,1873.91,216.034z
		 M1865.162,207.607c0.113,0.459,1.583,5.383,12.042,4.087c1.675-2.413,7.183-10.434,12.349-18.937
		c3.591-5.91,6.312-10.884,8.087-14.784c2.001-4.395,2.372-6.493,2.392-7.413c-7.139,2.943-40.14,17.699-34.91,36.874
		L1865.162,207.607z"/>
</g>
<g>
	<path style="fill:#1797E5;" d="M1884.256,327.372c0,0-18.489,21.995-2.206,45.981c1.028,1.527,2.946,2.183,4.694,1.605
		c5.37-1.796,17.046-7.892,27.557-28.41L1884.256,327.372z M1913.368,386.611c-1.503,7.659-3.22,25.027,9.609,35.042
		c0.817,0.642,1.907,0.819,2.886,0.47c3.532-1.259,12.224-5.693,19.751-20.199c0.78-1.492,0.202-3.333-1.289-4.113
		c-0.014-0.007-0.027-0.014-0.041-0.021l-26.576-13.288c-1.501-0.752-3.328-0.145-4.08,1.356
		C1913.509,386.097,1913.422,386.35,1913.368,386.611z"/>
	<path style="fill:#122A44;" d="M1924.837,424.471c-1.143,0-2.267-0.38-3.199-1.112c-6.017-4.697-9.714-11.355-10.984-19.787
		c-1.013-6.73-0.24-13.165,0.587-17.378l0.003-0.017c0.091-0.447,0.241-0.88,0.446-1.288c1.287-2.568,4.422-3.61,6.99-2.323
		l26.658,13.331c1.226,0.64,2.135,1.728,2.552,3.057c0.417,1.329,0.291,2.741-0.354,3.976c-3.386,6.526-7.383,11.81-11.876,15.701
		c-3.735,3.234-6.993,4.795-9.069,5.535C1926.017,424.37,1925.425,424.471,1924.837,424.471z M1915.493,387.04
		c-0.76,3.877-1.472,9.776-0.552,15.886c1.099,7.297,4.251,13.023,9.369,17.019c0.238,0.187,0.544,0.237,0.823,0.137
		c3.18-1.133,11.349-5.267,18.556-19.155c0.15-0.287,0.104-0.546,0.063-0.676c-0.041-0.13-0.151-0.37-0.432-0.516l-26.582-13.291
		c-0.432-0.217-0.957-0.042-1.172,0.388C1915.534,386.896,1915.509,386.967,1915.493,387.04z M1885.468,377.33
		c-2.05,0-4.031-1.005-5.216-2.767c-8.888-13.092-7.776-25.623-5.279-33.828c2.685-8.82,7.423-14.521,7.623-14.759l1.223-1.456
		l33.309,21.26l-0.899,1.755c-10.674,20.837-22.625,27.412-28.798,29.477C1886.786,377.228,1886.123,377.33,1885.468,377.33z
		 M1884.79,330.285c-1.474,2.128-4.063,6.36-5.715,11.864c-3.171,10.565-1.567,20.654,4.768,29.986
		c0.488,0.724,1.398,1.035,2.219,0.764c2.515-0.841,6.488-2.698,11.1-6.754c5.25-4.617,10.052-10.95,14.293-18.842L1884.79,330.285z
		"/>
</g>
<path style="fill:#7DA4B7;" d="M2204.946,114.172c0,0-0.53,17.854-11.274,22.784l5.806,0.609c0,0,6.899-8.47,6.899-22.683
	L2204.946,114.172z M2220.583,109.196c0,0,13.502,21.318,5.686,42.637l4.261,2.134c0,0,9.241-21.318-7.106-45.47L2220.583,109.196z"
	/>
<g>
	<path style="fill:#1797E5;" d="M1878.946,240.809c0,0-35.358,34.618-19.165,54.26c0,0,4.603,6.791,17.121-1.187
		C1876.886,293.882,1887.89,239.159,1878.946,240.809L1878.946,240.809z"/>
	<path style="fill:#122A44;" d="M1866.114,299.938c-1.045,0-2.048-0.124-3.008-0.371c-3.103-0.8-4.661-2.659-5.041-3.171
		c-4.08-4.981-5.513-11.192-4.257-18.46c0.965-5.587,3.534-11.81,7.635-18.496c6.876-11.209,15.617-19.819,15.986-20.18l0.473-0.463
		l0.651-0.12c1.36-0.251,2.646,0.154,3.623,1.14c1.936,1.955,3.808,6.972,1.072,28.596c-1.292,10.215-3.148,20.321-4.023,24.872
		l0.917,1.103l-2.075,1.322C1873.653,298.523,1869.647,299.937,1866.114,299.938z M1861.568,293.84
		c0.309,0.393,3.838,4.454,13.385-1.3c0.872-4.528,2.748-14.73,4.032-24.977c0.854-6.815,1.291-12.415,1.297-16.645
		c0.007-4.634-0.504-6.651-0.861-7.494c-5.588,5.837-31.212,34.2-17.967,50.266L1861.568,293.84z"/>
</g>
<path style="fill:#122A44;" d="M1962.844,445.392c0,0,5.006,17.925,17.392,23.562c0,0,20.101,4.292,7.677-31.641L1962.844,445.392z"
	/>
<path style="fill:#5DC5F9;" d="M1892.268,179.548c0,0-25.584,10.661-22.743,29.849c0,0-4.972-0.71-2.841-9.237
	c0,0,1.421-12.082,24.163-23.453l5.686-2.841l-3.555,5.682L1892.268,179.548z M1874.5,252.034c0,0-24.87,27.004-10.657,41.216
	c0,0-0.71-27.004,14.923-36.951L1874.5,252.034z M1888.002,333.756c0,0-9.947,17.767-0.71,34.824c0,0,4.265-1.424,4.975-2.845
	c0,0-0.71,3.555-6.388,5.686c0,0-14.923-14.923-0.71-39.082L1888.002,333.756z M1918.562,395.585c0,0,0.71,15.633,7.816,20.608
	c0,0,0.71,0,2.131-0.71c0,0-0.71,2.131-3.551,2.841c0,0-10.661-7.816-8.53-22.739H1918.562z"/>
<g>
	
		<linearGradient id="SVGID_3_" gradientUnits="userSpaceOnUse" x1="2024.4828" y1="312.6386" x2="2060.845" y2="292.1522" gradientTransform="matrix(1.8958 0 0 -1.8958 -1641.0707 947.9451)">
		<stop  offset="0.12" style="stop-color:#1797E5"/>
		<stop  offset="0.14" style="stop-color:#1693E1"/>
		<stop  offset="0.33" style="stop-color:#0A6FBA"/>
		<stop  offset="0.48" style="stop-color:#0358A2"/>
		<stop  offset="0.57" style="stop-color:#005099"/>
		<stop  offset="0.71" style="stop-color:#0663AD"/>
		<stop  offset="0.99" style="stop-color:#1694E2"/>
		<stop  offset="1" style="stop-color:#1797E5"/>
	</linearGradient>
	<path style="fill:url(#SVGID_3_);" d="M2263.93,315.283c0,0,34.821-64.669-4.972-119.388l-11.371-21.318
		c0,0-1.42-3.555-4.975-2.845c0,0-9.947-17.053-22.029-19.898c0,0-9.241-14.212-26.305-14.923c0,0-4.265-19.917-27.004-16.343
		c0,0-4.976-19.898-25.584-11.371c0,0-3.551-10.661-16.343-7.106c0,0-0.71-19.188-49.747-4.265c0,0-147.103-20.608-176.245,68.221
		c0,0-1.327,3.322,2.431,4.186c0.124,0.025,0.205,0.145,0.18,0.27c-0.008,0.039-0.026,0.076-0.052,0.106
		c-4.906,5.673-7.803,12.806-8.245,20.293c0,0-24.873,17.057-12.777,44.771c0,0-8.527,19.917,1.42,33.4
		c0,0-14.212,18.478,1.424,36.241c0,0-9.951,20.608,11.368,31.98c0,0-8.527,21.318,10.661,28.425c0,0-0.71,25.584,22.739,32.694
		c0,0,0.71,14.212,15.636,16.347c0,0-7.106,19.917,18.474,27.004c0,0,12.082,24.159,29.849,12.078c0,0,11.368,15.637,37.661,12.082
		c0,0,16.347,14.212,42.641,7.106c0,0,17.763,8.53,40.506-4.261c0,0,13.502,6.388,25.584-4.265c0,0,20.608,0.71,27.715-7.106
		c0,0,12.082,4.265,22.029-2.845c0,0,22.739-4.972,29.135,4.975c0,0,8.53,16.347-7.816,34.11c0,0,39.796,8.53,42.641-41.216
		c0,0,2.131-27.004-29.849-34.11L2263.93,315.283z"/>
	<path style="fill:#122A44;" d="M2216.478,496.082c-3.98,0-6.687-0.557-6.953-0.614l-3.208-0.688l2.222-2.414
		c6.389-6.943,9.601-14.422,9.545-22.231c-0.038-5.414-1.72-9.136-1.98-9.68c-2.874-4.343-9.883-5.267-15.275-5.274
		c-0.021,0-0.043,0-0.063,0c-5.287,0-10.088,0.867-11.409,1.127c-4.826,3.325-10.029,4.244-14.302,4.244
		c-3.531,0-6.427-0.627-7.954-1.041c-7.392,6.738-23.82,6.928-27.567,6.878c-6.551,5.491-13.427,6.363-18.102,6.11
		c-3.721-0.202-6.632-1.125-8.04-1.658c-11.827,6.431-22.287,7.215-29.038,6.721c-6.01-0.44-10.184-1.923-11.736-2.558
		c-13.758,3.563-24.794,1.381-31.669-1.104c-5.97-2.158-9.879-4.873-11.374-6.02c-13.674,1.668-23.332-1.797-29.063-5.037
		c-4.242-2.398-7.003-5.008-8.422-6.549c-4.559,2.688-9.172,3.449-13.737,2.259c-9.362-2.44-15.444-12.368-17.018-15.21
		c-8.655-2.547-14.599-6.838-17.676-12.764c-2.958-5.698-2.44-11.38-1.837-14.35c-7.133-1.644-10.855-6.023-12.75-9.564
		c-1.46-2.729-2.052-5.334-2.288-6.841c-9.56-3.252-16.529-10.064-20.196-19.766c-2.13-5.635-2.587-10.731-2.678-13.063
		c-5.132-2.173-8.75-5.567-10.763-10.101c-3.231-7.278-1.358-15.382-0.323-18.733c-10.625-6.249-13.104-14.844-13.272-21.074
		c-0.139-5.154,1.241-9.464,2.008-11.439c-7.83-9.485-7.736-19.081-6.225-25.545c1.217-5.207,3.49-9.178,4.696-11.031
		c-3.782-5.786-5.17-13.359-4.018-22.005c0.718-5.39,2.207-9.688,2.85-11.372c-6.132-14.715-2.173-26.466,2.279-33.778
		c3.944-6.476,8.861-10.595,10.718-12.015c0.574-6.812,3.118-13.394,7.257-18.825c-0.677-0.493-1.092-1.058-1.345-1.541
		c-0.94-1.794-0.346-3.68-0.186-4.115c6.798-20.689,20.473-37.216,40.648-49.125c16.037-9.466,36.189-16.036,59.898-19.527
		c11.602-1.708,30.407-3.555,54.098-2.65c12.497,0.477,21.251,1.54,23.213,1.794c12.398-3.747,22.833-5.645,31.028-5.645
		c0.154,0,0.308,0.001,0.461,0.002c6.629,0.058,11.8,1.378,15.369,3.921c2.642,1.883,3.865,4.066,4.432,5.649
		c6.338-1.207,10.442,0.939,12.83,3.071c1.484,1.325,2.474,2.792,3.086,3.906c6.209-2.218,11.687-2.165,16.306,0.162
		c5.845,2.945,8.585,8.704,9.62,11.519c11.621-1.339,18.436,3.373,22.146,7.676c2.933,3.401,4.381,7.02,5,8.949
		c6.9,0.578,13.544,3.351,19.296,8.065c3.558,2.916,5.812,5.775,6.704,7.002c10.76,2.993,19.503,15.799,21.882,19.571
		c3.127,0.033,5.026,2.477,5.68,4.012l11.268,21.124c9.205,12.691,15.199,26.962,17.819,42.422
		c2.097,12.375,2.045,25.526-0.154,39.088c-3.63,22.385-11.784,38.156-12.584,39.666l-40.378,100.921
		c6.65,1.739,12.294,4.49,16.801,8.193c4.026,3.308,7.147,7.367,9.279,12.066c3.557,7.842,3.134,14.76,3.095,15.289
		c-0.975,16.983-6.275,29.259-15.756,36.484C2231.013,494.867,2222.357,496.082,2216.478,496.082z M2213.608,492.206
		c4.974,0.351,14.679,0.044,22.825-6.183c8.553-6.538,13.349-17.88,14.254-33.71l0.003-0.04c0.004-0.06,0.44-6.492-2.84-13.621
		c-1.906-4.141-4.685-7.719-8.261-10.637c-4.51-3.68-10.326-6.329-17.286-7.876l-2.153-0.478l0.819-2.048l41.26-103.125l0.05-0.093
		c0.086-0.16,8.635-16.247,12.256-38.707c2.118-13.138,2.161-25.86,0.126-37.813c-2.536-14.899-8.329-28.652-17.22-40.878
		l-0.076-0.105l-0.062-0.115l-11.429-21.426l-0.029-0.079c-0.143-0.336-0.983-2.078-2.868-1.702l-1.312,0.262l-0.674-1.156
		c-0.095-0.163-9.691-16.393-20.839-19.018l-0.732-0.172l-0.41-0.63c-0.021-0.031-2.267-3.428-6.468-6.847
		c-5.551-4.518-11.723-6.949-18.344-7.225l-1.451-0.06l-0.304-1.42c-0.009-0.042-1.058-4.677-4.657-8.79
		c-4.733-5.408-11.537-7.459-20.223-6.093l-1.694,0.266l-0.416-1.663c-0.018-0.072-1.999-7.595-8.212-10.708
		c-4.008-2.008-9-1.802-14.837,0.614l-1.859,0.769l-0.636-1.909c-0.005-0.014-0.819-2.325-2.955-4.177
		c-2.783-2.413-6.521-2.991-11.108-1.716l-2.359,0.656l-0.016-2.38c-0.021-0.247-0.315-2.837-3.488-5.026
		c-2.971-2.05-7.445-3.102-13.298-3.128c-7.936-0.033-18.214,1.849-30.542,5.6l-0.396,0.12l-0.41-0.057
		c-0.366-0.051-37.042-5.05-76.74,0.809c-23.209,3.425-42.89,9.837-58.494,19.056c-19.361,11.438-32.473,27.279-38.97,47.084
		l-0.037,0.103c-0.077,0.227-0.172,0.758-0.001,1.074c0.184,0.337,0.759,0.517,1.095,0.596c1.114,0.245,1.835,1.341,1.612,2.465
		c-0.072,0.362-0.239,0.7-0.482,0.977c-4.6,5.32-7.367,12.131-7.782,19.166l-0.054,0.916l-0.757,0.519
		c-0.058,0.04-6.023,4.202-10.453,11.536c-5.844,9.674-6.404,20.083-1.666,30.94l0.324,0.743l-0.319,0.745
		c-0.08,0.188-7.975,19.106,1.206,31.55l0.838,1.136l-0.861,1.119c-0.032,0.042-3.379,4.476-4.843,10.874
		c-1.922,8.404,0.159,16.137,6.188,22.986l0.822,0.934l-0.541,1.12c-0.022,0.045-2.32,4.928-2.121,10.994
		c0.261,7.937,4.528,14.167,12.683,18.517l1.482,0.79l-0.624,1.559c-0.037,0.093-3.737,9.609-0.263,17.406
		c1.743,3.912,5.052,6.794,9.834,8.565l1.26,0.467l-0.037,1.343c-0.001,0.059-0.124,6.216,2.501,13.085
		c3.45,9.028,9.811,15.005,18.908,17.763l1.262,0.383l0.066,1.317c0.029,0.512,0.864,12.702,14.03,14.585l2.271,0.325l-0.771,2.161
		c-0.022,0.063-2.351,6.908,1.102,13.51c2.677,5.118,8.096,8.839,16.107,11.058l0.803,0.223l0.373,0.745
		c0.058,0.115,5.945,11.651,15.019,14.008c3.945,1.024,8.016,0.135,12.1-2.641l1.502-1.021l1.068,1.469
		c0.024,0.033,2.781,3.723,8.552,6.943c5.319,2.967,14.38,6.136,27.343,4.384l0.841-0.114l0.64,0.557
		c0.037,0.032,4.018,3.424,11.03,5.928c6.444,2.301,16.861,4.305,29.892,0.783l0.672-0.182l0.628,0.302
		c0.039,0.018,4.335,2.024,11.234,2.499c6.349,0.437,16.28-0.371,27.542-6.705l0.844-0.475l0.876,0.414
		c0.027,0.013,3.21,1.476,7.706,1.693c5.921,0.282,11.247-1.623,15.836-5.669l0.559-0.493l0.745,0.026
		c0.05,0.002,5.111,0.162,10.935-0.614c7.431-0.99,12.731-3.023,15.329-5.88l0.837-0.921l1.173,0.414
		c0.109,0.038,11.311,3.834,20.315-2.602l0.313-0.224l0.376-0.082c0.98-0.214,24.092-5.125,31.112,5.793l0.085,0.147
		c0.095,0.183,2.34,4.558,2.434,11.234C2221.908,475.416,2220.473,483.56,2213.608,492.206z"/>
</g>
<linearGradient id="SVGID_4_" gradientUnits="userSpaceOnUse" x1="1910.8047" y1="398.8889" x2="2039.2893" y2="279.4413" gradientTransform="matrix(1.8958 0 0 -1.8958 -1641.0707 947.9451)">
	<stop  offset="0.13" style="stop-color:#1797E5"/>
	<stop  offset="0.26" style="stop-color:#1693E1"/>
	<stop  offset="0.4" style="stop-color:#1287D4"/>
	<stop  offset="0.54" style="stop-color:#0B73BE"/>
	<stop  offset="0.69" style="stop-color:#0257A0"/>
	<stop  offset="0.72" style="stop-color:#005099"/>
</linearGradient>
<ellipse style="fill:url(#SVGID_4_);" cx="2089.823" cy="292.54" rx="166.29" ry="163.445"/>
<g>
	
		<linearGradient id="SVGID_5_" gradientUnits="userSpaceOnUse" x1="1972.9973" y1="307.0501" x2="1931.303" y2="394.2645" gradientTransform="matrix(1.8958 0 0 -1.8958 -1641.0707 947.9451)">
		<stop  offset="0.33" style="stop-color:#F3F5F7"/>
		<stop  offset="0.78" style="stop-color:#8099B9"/>
	</linearGradient>
	<path style="fill:url(#SVGID_5_);" d="M2122.573,192.697l11.311,13.153c0,0,8.527-29.845-11.371,87.408l-11.371,33.4
		l-141.77-13.153c0,0-19.188-3.555-16.711-25.14L2122.573,192.697"/>
	<path style="fill:#122A44;" d="M2111.143,327.97c-0.041,0-0.081-0.002-0.122-0.006l-141.77-13.152
		c-0.04-0.004-0.079-0.009-0.118-0.016c-0.209-0.039-5.174-0.992-9.865-4.741c-4.353-3.479-9.259-10.093-7.911-21.839
		c0.048-0.418,0.293-0.787,0.66-0.994l169.913-95.668c0.545-0.307,1.23-0.187,1.638,0.288l9.805,11.401
		c0.4-1.038,1.05-2.354,2.32-2.066c1.409,0.32,1.416,2.027,1.26,4.802c-0.157,2.794-0.635,7.25-1.422,13.243
		c-1.984,15.115-5.928,40.098-11.725,74.256c-0.012,0.069-0.029,0.137-0.052,0.203l-11.371,33.4
		C2112.201,327.616,2111.699,327.97,2111.143,327.97z M1969.562,312.205l140.671,13.05l11.004-32.322
		c5.414-31.908,9.216-55.832,11.298-71.107c1.021-7.488,1.502-12,1.712-14.717c-0.027,0.008-0.054,0.015-0.082,0.021
		c-0.472,0.103-0.961-0.06-1.276-0.426l-10.61-12.337l-168.386,94.808c-0.774,8.112,1.556,14.423,6.932,18.765
		C1964.767,311.123,1969.05,312.098,1969.562,312.205z"/>
</g>
<g>
	<path style="fill:#C91111;" d="M1962.619,212.238l7.106-44.057l153.498,19.898l-6.396,45.482l-11.368,73.906l-153.498-19.188
		L1962.619,212.238L1962.619,212.238z"/>
	<path style="fill:#122A44;" d="M2107.035,309.552l-157.194-19.65l10.927-77.963l7.396-45.851l157.179,20.375l-6.663,47.382
		L2107.035,309.552z M1954.082,286.655l149.803,18.726l11.089-72.094l6.13-43.593l-149.817-19.421l-6.814,42.245L1954.082,286.655z"
		/>
</g>
<path style="fill:#750606;" d="M1961.198,247.062l-2.131,13.502l46.902,5.682l71.062,15.637v-7.816l34.603,6.798l1.642-14.618
	L1961.198,247.062z"/>
<path style="fill:#3D0000;" d="M2097.561,195.169l-103.672-14.908c-5.22,14.908-19.898,16.343-19.898,16.343l-11.338,70.137
	c16.399,4.472,17.042,20.826,17.042,20.826l104.469,14.212c5.22-16.403,19.165-13.502,19.165-13.502l10.661-72.486
	C2094.604,209.081,2097.561,195.169,2097.561,195.169z M2101.183,285.434c0,0-14.212-2.131-19.188,13.502l-99.479-13.502
	c0,0-0.699-15.648-16.343-19.898l9.256-53.298l2.135-12.777c0,0,14.212-2.131,19.184-16.343l98.081,14.212
	c0,0-2.871,14.209,15.603,20.597L2101.183,285.434z"/>
<g>
	
		<linearGradient id="SVGID_6_" gradientUnits="userSpaceOnUse" x1="1987.3254" y1="361.8854" x2="1949.2388" y2="370.2008" gradientTransform="matrix(1.8958 0 0 -1.8958 -1641.0707 947.9451)">
		<stop  offset="0.17" style="stop-color:#F7AE2D"/>
		<stop  offset="0.86" style="stop-color:#B04211"/>
	</linearGradient>
	<path style="fill:url(#SVGID_6_);" d="M2072.06,229.295l46.902,7.816l24.16,34.821l-21.319,12.082l-6.396-14.212l-46.192-8.527
		L2072.06,229.295z"/>
	<path style="fill:#4F1A00;" d="M2120.938,286.658l-6.837-15.192l-46.904-8.658l3.175-35.695l49.678,8.279l25.781,37.158
		L2120.938,286.658z M2071.233,259.741l45.48,8.395l5.955,13.233l17.743-10.055l-22.538-32.484l-44.125-7.354L2071.233,259.741z"/>
</g>
<g>
	
		<linearGradient id="SVGID_7_" gradientUnits="userSpaceOnUse" x1="1895.4436" y1="376.3356" x2="1923.855" y2="373.8519" gradientTransform="matrix(1.8958 0 0 -1.8958 -1641.0707 947.9451)">
		<stop  offset="0.17" style="stop-color:#F7AE2D"/>
		<stop  offset="0.86" style="stop-color:#B04211"/>
	</linearGradient>
	<path style="fill:url(#SVGID_7_);" d="M1955.16,214.725l51.164,6.388l-4.964,31.987l-47.612-5.686l-1.424,7.106
		C1952.322,254.521,1951.605,221.832,1955.16,214.725L1955.16,214.725z"/>
	<path style="fill:#4F1A00;" d="M1952.323,255.833c-0.038,0-0.077-0.002-0.116-0.005c-0.666-0.059-1.182-0.609-1.196-1.278
		c-0.03-1.348-0.683-33.099,2.975-40.412c0.249-0.497,0.783-0.785,1.336-0.715l51.164,6.388c0.352,0.044,0.671,0.229,0.885,0.512
		c0.214,0.283,0.303,0.641,0.249,0.991l-4.964,31.987c-0.108,0.698-0.75,1.184-1.452,1.102l-46.409-5.542l-1.186,5.918
		C1953.485,255.397,1952.943,255.833,1952.323,255.833z M1953.745,246.103c0.052,0,0.104,0.003,0.157,0.009l46.355,5.536l4.563-29.4
		l-48.838-6.098c-1.857,5.198-2.356,19.556-2.407,29.964C1953.631,246.107,1953.688,246.103,1953.745,246.103z"/>
</g>
<g>
	<path style="fill:#F7AE2D;" d="M2002.415,205.132l-7.816,60.404l75.327,10.661l8.531-61.115L2002.415,205.132L2002.415,205.132z"/>
	<path style="fill:#4F1A00;" d="M2071.522,278.316l-79.02-11.184l8.295-64.102l79.776,10.44L2071.522,278.316z M1996.695,263.94
		l71.634,10.138l8.01-57.382l-72.305-9.462L1996.695,263.94z"/>
</g>
<path style="opacity:0.63;fill:#FFFFFF;enable-background:new    ;" d="M2073.48,225.74l-2.131,14.216l-24.873,27.004l-2.845-10.308
	L2073.48,225.74z M2036.525,212.948l-36.684,38.909l-1.274,10.661l1.717,0.177l47.612-48.323L2036.525,212.948L2036.525,212.948z
	 M2051.452,215.082l-49.037,48.323l5.686-3.551l45.482-44.771H2051.452z"/>
<path style="fill:#4F1A00;" d="M2032.974,240.666l-7.816,15.633l18.038,1.751l-3.13-16.674c0,0,5.686-0.71,6.388-7.106
	c0,0,1.421-9.241-7.816-10.661c0,0-7.816-0.71-9.951,7.106C2028.709,230.704,2027.288,237.821,2032.974,240.666z"/>
<path style="fill:#4F1A00;" d="M2040.065,222.189c0,0,9.237,1.421,9.237,10.657c0,0,0.71,7.82-5.686,10.661l1.439,19.891h2.841
	l-2.841-18.478c0,0,7.94-4.276,5.133-14.528c-0.563-2.114-1.767-4.002-3.446-5.404
	C2044.84,223.42,2042.518,222.446,2040.065,222.189L2040.065,222.189z"/>
<path style="fill:#FFFFFF;" d="M2038.66,222.899c0,0,8.545,1.417,8.545,10.661c0,0,0,5.682-6.388,8.527l2.841,22.029h2.845
	l-3.555-21.318c0,0,4.633-1.815,5.468-7.843c0.835-5.774-3.168-11.132-8.942-11.967c-0.089-0.013-0.179-0.025-0.269-0.035
	L2038.66,222.899z"/>
<path style="fill:#3D0000;" d="M2098.354,291.12c0,0-8.451-0.966-13.822,13.731l16.663-1.65L2098.354,291.12z M2101.905,188.788
	c0,0-5.686,18.478,14.212,24.873l3.555-22.743L2101.905,188.788z M1972.57,171.731l-3.555,21.322c0,0,17.767-0.714,19.898-19.188
	L1972.57,171.731z M1957.647,269.091l-2.134,16.343l20.608,2.845C1976.121,288.279,1973.28,272.642,1957.647,269.091z"/>
<path style="fill:#5DC5F9;" d="M2082.717,105.642c0,0,14.923-12.078,37.665,0l-1.402,2.845c0,0,14.212-2.131,24.159,18.478
	c0,0,4.265-28.428,20.608,0c0,0,21.322-2.845,24.163,12.078c0,0-3.555,7.11,0.71,12.082c0,0-2.841-10.657,4.265-9.947
	c0,0,12.078,0.71,20.608,12.082l2.841,2.131c0,0,9.24,1.42,21.318,18.478c3.839,5.016,7.305,10.308,10.368,15.832
	c1.729,3.161,3.619,6.232,5.663,9.199c6.945,10.086,22.213,35.816,16.659,60.243c0,0-2.131,38.376-10.657,49.037
	c0,0,12.777-22.032,14.923-49.037c0,0,2.841-34.821-19.188-62.535l-12.082-22.739l-4.261-2.134c0,0-9.241-14.923-22.769-18.474
	v-1.424c0,0-7.816-12.078-24.874-12.777l-0.71-2.841c0,0-4.972-17.057-26.305-12.082c0,0-2.131-19.898-22.739-11.368
	c0,0-12.777-7.11-20.608-5.686c0,0,8.527-14.926-24.163-10.661c0,0-13.104,2.255-16.854,3.965L2082.717,105.642z"/>
<linearGradient id="SVGID_8_" gradientUnits="userSpaceOnUse" x1="1905.0513" y1="386.4724" x2="1928.2256" y2="459.2581" gradientTransform="matrix(1.8958 0 0 -1.8958 -1641.0707 947.9451)">
	<stop  offset="0.26" style="stop-color:#1797E5"/>
	<stop  offset="0.4" style="stop-color:#1694E2"/>
	<stop  offset="0.51" style="stop-color:#138BD8"/>
	<stop  offset="0.61" style="stop-color:#0E7CC8"/>
	<stop  offset="0.7" style="stop-color:#0767B1"/>
	<stop  offset="0.77" style="stop-color:#005099"/>
</linearGradient>
<path style="fill:url(#SVGID_8_);" d="M1917.141,140.665c0,0,51.149-59.901,112.278-37.154
	c46.38,17.256,43.351,32.694,43.351,32.694s-31.469,4.93-46.075,24.873c0,0-28.489-31.112-65.011-4.788
	C1961.683,156.298,1960.977,114.675,1917.141,140.665L1917.141,140.665z"/>
<path style="fill:#5DC5F9;" d="M2127.489,460.961c0,0-4.679,6.013-17.617-1.62c0,0-11.518,9.44-37.812,3.758
	c0,0-17.767,11.368-39.082-6.388c0,0-29.139,6.388-36.245-17.057c0,0-17.764,17.057-26.305-7.106c0,0-17.767,2.134-19.917-20.608
	c0,0,4.261-7.106,0-10.657c0,0-14.216,14.923-14.216-9.951c0,0-36.951-11.371-12.777-29.135c0,0-34.824,0-18.478-27.714
	c0,0-24.163-10.661-11.371-31.98c0,0-14.922-7.106-7.106-31.269l4.975-2.131c0,0-13.502-15.633-2.135-30.559l0.714-2.841
	c0,0-11.371-31.269,7.106-34.11l7.106-0.71c0,0-6.388-17.057,6.388-28.428c0,0-5.686-27.714,47.612-56.139h-9.925
	c0,0-36.951,16.347-46.192,52.588l2.845,3.551c0,0-6.013,3.615-8.087,17.489c-0.353,2.356-1.503,4.603-3.472,5.956
	c-6.208,4.261-18.981,18.271-9.049,39.792c0,0-8.53,18.478,1.42,33.4c0,0-14.922,19.188,2.131,35.531
	c0,0-12.777,19.188,11.371,31.269c0,0-10.661,21.318,9.947,27.714c0,0-2.841,26.305,22.032,31.98c0,0-0.71,14.212,14.923,16.343
	l1.421,3.555c0,0-7.816,17.053,17.057,23.449c0,0,11.368,24.873,28.425,10.661c0,0,9.947,17.053,36.951,12.777l3.555,2.131
	c0,0,16.343,12.082,39.082,4.975c0,0,17.763,8.527,40.506-4.265c0,0,12.082,6.388,22.739-2.841L2127.489,460.961z"/>
<g>
	<path style="fill:#1797E5;" d="M2034.395,360.05c0,0-39.796-10.657-34.821-45.47c0,0-12.082-16.347-7.106-32.694
		c0,0,2.841-11.371,6.388-10.661c0,0,10.657-14.212,20.608-12.777c0,0-0.71,7.106,2.131,8.53c0,0,12.082-17.767,23.453-16.347
		c0,0-4.975,13.502,0,19.898c0,0,9.237-15.633,19.188-15.633c0,0-1.424,9.237,0.71,13.502c0,0,11.367-3.555,11.367,32.694
		c0,0,8.531,2.841,12.777,10.657l-1.42,39.796L2034.395,360.05z"/>
	<path style="fill:#122A44;" d="M2034.305,361.773l-0.347-0.093c-0.419-0.112-10.374-2.831-19.854-9.962
		c-5.62-4.228-9.89-9.132-12.689-14.575c-3.421-6.652-4.632-14.096-3.602-22.134c-0.928-1.36-3.271-5.025-5.229-10.031
		c-3.272-8.362-3.874-16.502-1.742-23.543c0.099-0.387,0.808-3.11,1.934-5.797c0.623-1.488,2.377-5.674,5.258-6.1
		c2.362-2.941,12.057-14.146,21.671-12.759l1.598,0.231l-0.161,1.607c-0.189,1.928-0.048,4.18,0.398,5.579
		c1.326-1.734,3.555-4.458,6.348-7.139c6.28-6.029,12.123-8.753,17.368-8.098l2.108,0.263l-0.735,1.994
		c-0.012,0.032-1.205,3.308-1.789,7.272c-0.39,2.645-0.568,6.025,0.348,8.731c3.186-4.601,10.718-14.008,19.046-14.008h1.967
		l-0.3,1.944c-0.335,2.185-0.877,8.063,0.155,11.469c1.001,0.048,2.368,0.366,3.833,1.443c5.265,3.87,7.991,14.591,8.106,31.872
		c2.607,1.108,8.972,4.371,12.576,11.006l0.22,0.405l-1.487,41.643L2034.305,361.773z M1998.525,272.879
		c-0.263,0.038-1.379,0.932-2.79,4.432c-0.999,2.478-1.625,4.959-1.631,4.984l-0.023,0.082c-4.674,15.358,6.733,31.043,6.849,31.2
		l0.411,0.556l-0.098,0.685c-1.082,7.568-0.023,14.543,3.147,20.732c2.551,4.981,6.475,9.493,11.663,13.411
		c8.025,6.061,16.663,8.832,18.446,9.363l51.534-8.226l1.354-37.937c-3.934-6.817-11.532-9.443-11.61-9.47l-1.148-0.387
		l-0.003-1.213c0-21.774-4.131-28.268-6.594-30.201c-1.351-1.06-2.423-0.911-2.605-0.875l-1.405,0.535l-0.586-1.398
		c-1.707-3.411-1.449-9.166-1.136-12.338c-6.778,1.579-13.58,10.813-15.801,14.572l-1.261,2.135l-1.522-1.957
		c-4.235-5.444-2.213-14.949-0.969-19.276c-4.566,0.467-9.207,4.024-12.482,7.161c-4.273,4.093-7.247,8.434-7.276,8.477l-0.831,1.22
		l-1.32-0.661c-2.825-1.416-3.195-5.832-3.151-8.446c-4.055,0.155-8.228,3.006-11.157,5.535c-3.727,3.217-6.3,6.628-6.325,6.662
		l-0.638,0.851L1998.525,272.879z"/>
</g>
<linearGradient id="SVGID_9_" gradientUnits="userSpaceOnUse" x1="1968.9155" y1="331.3803" x2="1951.3251" y2="336.6669" gradientTransform="matrix(1.8958 0 0 -1.8958 -1641.0707 947.9451)">
	<stop  offset="0.26" style="stop-color:#1797E5"/>
	<stop  offset="0.77" style="stop-color:#005099"/>
</linearGradient>
<path style="fill:url(#SVGID_9_);" d="M2055.123,275.179c0,0,24.051,54.316-7.226,71.37l33.4-4.987l1.421-33.4
	c0,0-4.322-3.792-9.624-4.739c0,0,1.808-22.265-5.299-30.796L2055.123,275.179z"/>
<path style="fill:#5DC5F9;" d="M2000.284,274.066c0,0-9.951,19.184,4.975,39.796c0,0-4.975,30.555,31.266,40.506l-9.237,0.722
	c0,0-30.559-13.528-24.874-41.228c0,0-16.343-17.767-2.841-41.22L2000.284,274.066z M2172.343,451.623l16.971-4.164
	c0,0,17.057-4.261,30.559,2.134c0,0,17.053,10.657,2.131,41.217h-5.693c0,0,7.816-8.527,7.106-22.029c0,0,0-6.388-2.841-11.371
	c0,0-4.975-9.951-27.714-7.106l-5.686,1.42c-5.334,3.887-12.222,4.946-18.477,2.841L2172.343,451.623z"/>
<g>
	<path style="fill:#1797E5;" d="M2131.758,272.642c0,0-24.873-1.421-29.849,29.139l-14.923,2.841c0,0-7.816,9.951-1.42,21.318
		c0,0-2.845,9.241,0.71,14.926c0,0-58.273-4.265-71.065,39.082c0,0-7.816,76.041,108.727,80.302c0,0,69.645,3.555,121.522-61.115
		l11.368-3.551l15.636,30.555c0,0,5.682-43.347,37.662-56.849c0,0-35.531-34.821-17.764-78.164l-35.535,21.318
		c0,0-7.11-22.743-13.506-22.743c0,0-0.71-4.975-4.976-6.388c0,0-4.261-8.527,0.714-22.739c0,0-14.216-7.106-33.4,14.923
		c0,0-7.106-2.845-9.24,4.975l-8.527-2.845c0,0-2.841-9.947-9.951-9.237c0,0-2.841-2.845,4.975-27.004
		c0,0-20.608-2.845-34.11,19.188c0,0-7.816-2.845-9.947,4.972C2138.86,265.536,2133.885,266.246,2131.758,272.642z"/>
	<path style="fill:#122A44;" d="M2126.044,462.165c-1.265,0-2.015-0.033-2.188-0.041c-23.505-0.861-43.744-4.726-60.154-11.489
		c-13.747-5.665-24.959-13.414-33.324-23.03c-10.136-11.652-14.229-24.003-15.877-32.311c-1.793-9.034-1.182-15.275-1.156-15.536
		c0.012-0.115,0.034-0.228,0.067-0.339c3.03-10.269,8.797-18.793,17.141-25.338c6.624-5.196,14.867-9.145,24.499-11.738
		c12.062-3.247,23.125-3.545,28.3-3.461c-1.506-4.954-0.321-10.654,0.206-12.713c-2.549-4.917-3.062-10.322-1.479-15.681
		c1.242-4.205,3.344-6.91,3.432-7.023c0.28-0.356,0.678-0.599,1.123-0.683l13.649-2.599c1.247-6.699,3.556-12.396,6.871-16.949
		c2.859-3.926,6.457-7.006,10.696-9.153c5.322-2.696,10.275-3.223,12.613-3.308c1.293-3.004,3.173-4.712,4.604-5.641
		c0.728-0.473,1.564-0.872,2.318-1.132c0.825-2.245,2.187-3.87,4.059-4.84c2.354-1.219,4.925-1.036,6.502-0.736
		c7.168-11.034,16.106-15.608,22.44-17.5c7.148-2.135,12.558-1.424,12.784-1.393c0.549,0.076,1.037,0.391,1.332,0.861
		c0.295,0.47,0.366,1.046,0.196,1.573c-5.286,16.338-5.546,22.5-5.355,24.542c2.995,0.23,5.667,2.002,7.797,5.198
		c1.125,1.688,1.849,3.407,2.228,4.442l5.899,1.968c0.863-1.935,2.142-3.333,3.817-4.166c2.208-1.099,4.537-0.882,5.948-0.574
		c7.997-8.926,16.139-14.122,24.215-15.447c6.477-1.063,10.48,0.889,10.648,0.972c0.844,0.422,1.243,1.405,0.931,2.296
		c-2.416,6.901-2.504,12.324-2.153,15.658c0.258,2.445,0.782,4.155,1.097,5.009c3.19,1.442,4.544,4.453,5.082,6.216
		c3.023,0.989,6.025,4.942,9.325,12.222c1.624,3.583,2.924,7.127,3.688,9.335l33.53-20.116c0.692-0.415,1.573-0.34,2.186,0.185
		c0.613,0.526,0.819,1.386,0.513,2.133c-3.938,9.606-5.481,19.572-4.587,29.622c0.717,8.061,2.994,16.204,6.767,24.204
		c6.444,13.661,15.075,22.205,15.161,22.289c0.448,0.439,0.646,1.073,0.53,1.689c-0.117,0.616-0.535,1.133-1.112,1.377
		c-7.02,2.964-13.302,7.695-18.672,14.061c-4.332,5.135-8.087,11.341-11.16,18.445c-5.253,12.144-6.686,22.755-6.7,22.861
		c-0.107,0.814-0.73,1.463-1.539,1.603c-0.809,0.139-1.615-0.263-1.988-0.993l-14.917-29.149l-9.316,2.91
		c-11.881,14.716-25.664,27.094-40.973,36.796c-12.375,7.842-25.767,13.962-39.805,18.188
		C2146.478,461.552,2131.494,462.165,2126.044,462.165z M2017.062,380.299c-0.077,1.005-0.41,6.674,1.151,14.433
		c1.576,7.836,5.467,19.484,15.049,30.474c7.984,9.157,18.726,16.554,31.925,21.985c15.991,6.58,35.781,10.344,58.819,11.186
		c0.009,0,0.018,0.001,0.027,0.001c0.171,0.008,17.482,0.779,40.825-6.275c13.689-4.137,26.748-10.117,38.814-17.775
		c15.078-9.569,28.646-21.804,40.326-36.365c0.233-0.291,0.548-0.505,0.903-0.616l11.367-3.551c0.871-0.273,1.812,0.123,2.227,0.935
		l13.137,25.67c0.986-4.429,2.803-11.093,5.95-18.366c3.219-7.44,7.167-13.958,11.735-19.373
		c5.132-6.084,11.06-10.782,17.651-13.994c-3.01-3.365-9.118-10.882-14.082-21.405c-3.962-8.4-6.355-16.97-7.111-25.471
		c-0.792-8.9,0.218-17.733,3.002-26.328l-30.986,18.589c-0.493,0.296-1.094,0.349-1.631,0.144c-0.537-0.204-0.951-0.644-1.122-1.192
		c-0.018-0.056-1.782-5.668-4.285-11.185c-4.517-9.955-7.146-10.243-7.431-10.243c-0.933,0-1.724-0.686-1.855-1.609
		c-0.004-0.029-0.626-3.853-3.709-4.874c-0.473-0.157-0.864-0.495-1.087-0.941c-0.181-0.362-4.201-8.672,0.026-22.387
		c-1.464-0.348-3.926-0.662-7.14-0.088c-9.176,1.639-17.29,9.09-22.482,15.052c-0.524,0.601-1.371,0.805-2.11,0.509
		c-0.013-0.005-2.333-0.881-4.227,0.076c-1.164,0.588-2.009,1.818-2.51,3.653c-0.136,0.497-0.47,0.916-0.924,1.159
		c-0.455,0.243-0.989,0.288-1.477,0.125l-8.527-2.845c-0.587-0.196-1.039-0.668-1.209-1.263c-0.024-0.081-2.499-8.439-7.963-7.887
		c-0.559,0.055-1.115-0.143-1.512-0.541c-2.24-2.243-0.896-11.643,3.775-26.57c-2.048,0.014-5.314,0.268-9.098,1.42
		c-8.546,2.602-15.573,8.317-20.887,16.988c-0.466,0.76-1.402,1.087-2.239,0.782c-0.02-0.007-2.838-0.98-5.013,0.16
		c-1.192,0.625-2.005,1.784-2.484,3.543c-0.169,0.618-0.641,1.107-1.253,1.297c-0.107,0.033-0.215,0.056-0.324,0.07
		c-0.337,0.062-3.893,0.832-5.554,5.826c-0.267,0.802-1.037,1.328-1.881,1.28l0,0c-0.059-0.002-5.936-0.268-12.261,2.988
		c-3.672,1.89-6.792,4.592-9.275,8.031c-3.141,4.351-5.281,9.92-6.361,16.55c-0.127,0.777-0.726,1.393-1.5,1.54l-14.177,2.699
		c-0.583,0.886-1.711,2.805-2.446,5.358c-1.335,4.638-0.809,9.127,1.562,13.342c0.252,0.448,0.309,0.98,0.158,1.471
		c-0.025,0.082-2.543,8.501,0.508,13.381c0.374,0.599,0.38,1.357,0.016,1.961c-0.364,0.605-1.037,0.954-1.742,0.902
		c-0.142-0.01-14.523-0.989-30.208,3.252c-9.122,2.467-16.895,6.193-23.106,11.075
		C2025.179,363.074,2019.876,370.891,2017.062,380.299z M2137.656,266.984c0.57,0.478,1.198,0.451,1.406,0.427
		C2138.561,267.466,2138.051,267.314,2137.656,266.984z"/>
</g>
<linearGradient id="SVGID_10_" gradientUnits="userSpaceOnUse" x1="1993.3225" y1="341.5409" x2="1969.2285" y2="335.9292" gradientTransform="matrix(1.8958 0 0 -1.8958 -1641.0707 947.9451)">
	<stop  offset="0.26" style="stop-color:#1797E5"/>
	<stop  offset="0.77" style="stop-color:#005099"/>
</linearGradient>
<path style="fill:url(#SVGID_10_);" d="M2127.489,319.544l-31.27-6.388l10.778-2.687c0.768-0.089,1.404-0.639,1.601-1.387
	c1.409-5.423,8.185-27.023,27.433-30.747l-2.131-2.131c0,0-21.319-0.71-28.425,29.135l-16.347,3.555v12.074l34.11,8.527
	L2127.489,319.544z"/>
<radialGradient id="SVGID_11_" cx="1946.2155" cy="514.9413" r="80.1339" gradientTransform="matrix(1.8829 0.2205 0.1522 -1.2992 -1532.6603 604.6993)" gradientUnits="userSpaceOnUse">
	<stop  offset="0.26" style="stop-color:#1797E5"/>
	<stop  offset="0.77" style="stop-color:#005099"/>
</radialGradient>
<path style="fill:url(#SVGID_11_);" d="M2078.456,447.459c0,0-27.718-41.927,4.261-39.082c0,0,7.106,0,34.11,7.816
	c0,0,8.53,1.421-1.421-9.951c0,0-14.212-12.082-24.873-15.633c0,0-9.237-11.371,12.082-6.388l12.082,2.131
	c0,0,11.371,2.845,14.212-9.947c0,0,2.131-12.777-15.633-11.371c0,0-2.135,0-4.975,2.131c0,0,9.951-14.212,27.004-4.972
	c2.546,1.101,4.936,2.534,7.106,4.261l8.512-7.824l7.82-1.421l-6.388-20.608c0,0-7.82,2.131-2.845-5.686l17.767-3.551
	c0,0,11.371-3.555,15.633-7.82c0,0,19.917-16.343,44.061-15.633c0,0,14.212-0.71,14.923-12.777c0,0,5.686,4.975,11.371,21.318
	c0,0,0.71,3.555,4.261,3.555l22.292-13.577l4.385,6.791c0,0-8.181,23.115,14.558,57.225c0,0-20.608,22.743-28.425,46.192
	l-10.263-23.085l-18.872,6.742C2241.202,396.295,2197.84,475.887,2078.456,447.459L2078.456,447.459z"/>
<g>
	<path style="fill:#1797E5;" d="M2095.509,126.254c0,0-1.42-22.032-10.657-10.661c0,0-17.057-27.004,10.657-63.959
		c0,0,12.777-6.388,8.527-18.474c0,0,2.135-7.106,17.057-10.661c0,0-8.527-18.478-33.4-12.082c0,0-6.388-9.947-19.188-0.71
		c0,0-120.098-25.584-171.262,115.123c0,0,49.743-17.053,68.931-7.816c0,0,8.527,3.555,5.686,18.478c0,0,37.661-20.608,56.139,6.388
		c0,0,22.739-24.163,38.376-18.478c0,0,6.388,2.845,9.947,12.082"/>
	<path style="fill:#122A44;" d="M2027.767,144.858l-1.315-1.921c-3.968-5.797-9.205-9.718-15.566-11.653
		c-5.153-1.567-11.076-1.86-17.605-0.871c-11.267,1.708-20.431,6.671-20.522,6.721l-3.484,1.906l0.743-3.901
		c2.464-12.943-4.146-16.204-4.574-16.4l-0.084-0.038c-7.464-3.593-21.444-3.392-40.426,0.582
		c-14.556,3.048-26.96,7.276-27.084,7.318l-3.709,1.271l1.34-3.685c11.771-32.372,28.197-58.639,48.82-78.072
		c16.538-15.583,35.785-26.822,57.208-33.405c19.048-5.854,36.323-6.863,47.461-6.678c9.978,0.165,16.834,1.263,19.108,1.681
		c4.608-3.152,9.001-4.359,13.066-3.589c3.669,0.696,6.084,2.852,7.269,4.185c12.891-2.977,21.453,0.62,26.41,4.233
		c5.571,4.06,7.875,8.962,7.971,9.169l0.959,2.078l-2.227,0.53c-7.084,1.688-10.991,4.182-13.022,5.977
		c-1.432,1.266-2.146,2.365-2.464,2.959c1.641,5.35,0.524,10.484-3.251,14.89c-2.326,2.714-5.008,4.367-6.026,4.938
		c-6.021,8.095-10.317,16.342-12.77,24.514c-1.979,6.595-2.77,13.161-2.352,19.518c0.473,7.177,2.406,12.486,3.669,15.271
		c1.956-1.717,3.852-2.295,5.657-1.719c2.5,0.798,4.277,3.672,5.43,8.788c0.763,3.383,0.972,6.542,0.981,6.675l-3.741,0.242
		c-0.344-5.274-1.993-11.554-3.81-12.133c-0.563-0.18-1.783,0.392-3.522,2.533l-1.646,2.026l-1.394-2.207
		c-0.185-0.292-4.526-7.284-5.349-18.991c-0.48-6.827,0.34-13.865,2.438-20.919c2.605-8.76,7.199-17.567,13.654-26.174l0.266-0.354
		l0.396-0.198c0.457-0.231,11.238-5.822,7.597-16.176l-0.203-0.576l0.176-0.585c0.094-0.314,2.361-7.355,15.969-11.3
		c-1.083-1.576-2.947-3.849-5.737-5.85c-6.462-4.636-14.642-5.725-24.313-3.238l-1.312,0.337l-0.732-1.14
		c-0.013-0.02-1.983-2.946-5.724-3.631c-3.197-0.586-6.828,0.568-10.79,3.427l-0.674,0.487l-0.813-0.173
		c-0.073-0.016-7.57-1.578-19.371-1.761c-10.87-0.166-27.728,0.835-46.299,6.567c-20.839,6.432-39.564,17.393-55.656,32.579
		c-19.384,18.293-34.997,42.817-46.441,72.932c4.819-1.505,13.801-4.142,23.781-6.234c20.077-4.207,34.486-4.313,42.829-0.313
		c0.84,0.375,8.373,4.118,7.246,16.957c3.814-1.715,10.623-4.363,18.515-5.559c15.234-2.309,27.455,1.935,35.494,12.285
		c5.575-5.478,24.493-22.556,38.802-17.353l0.122,0.049c0.29,0.129,7.14,3.273,10.934,13.12l-3.498,1.348
		c-3.075-7.981-8.289-10.717-8.916-11.022c-7.297-2.594-16.645,2.301-23.213,6.876c-7.402,5.156-13.025,11.093-13.081,11.153
		L2027.767,144.858z"/>
</g>
<g>
	<path style="fill:#1797E5;" d="M2103.325,164.625c0,0-26.305-31.976-56.139-9.947c0,0-19.541-0.357-28.071,17.41
		c0,0-1.421,2.131-1.421,3.551c0,0,11.371,2.845,11.371,17.057c0,0,2.841,0,9.947-18.478c0,0,11.371,2.134,12.777,17.767
		c0,0,2.845,0.71,9.241-4.265c0,0,2.131-12.082,5.682-13.502c0,0,9.241,0,11.371,15.637c0,0,1.42,2.841,14.212-8.53l19.188,2.134
		C2111.484,183.46,2115.054,177.774,2103.325,164.625L2103.325,164.625z"/>
	<path style="fill:#122A44;" d="M2029.066,193.259h-0.562v-0.562c0-5.725-1.848-10.245-5.494-13.435
		c-2.709-2.371-5.425-3.07-5.452-3.077l-0.426-0.106v-0.439c0-1.488,1.26-3.475,1.493-3.829
		c4.491-9.326,12.013-13.641,17.535-15.619c5.387-1.929,9.86-2.07,10.843-2.076c6.857-5.023,14.101-7.627,21.533-7.739
		c5.984-0.09,12.097,1.429,18.163,4.513c10.129,5.151,16.782,13.044,17.053,13.369c11.865,13.306,8.364,19.254,8.209,19.5
		l-0.188,0.299l-19.29-2.146c-6.965,6.169-11.8,9.204-13.995,8.782c-0.629-0.121-0.853-0.48-0.906-0.587l-0.042-0.083l-0.012-0.092
		c-0.845-6.199-2.99-10.784-6.203-13.261c-2.1-1.619-4.037-1.851-4.506-1.884c-1.239,0.596-2.562,3.026-3.737,6.871
		c-0.956,3.129-1.491,6.131-1.496,6.161l-0.038,0.213l-0.171,0.133c-6.537,5.085-9.595,4.399-9.722,4.367l-0.388-0.097l-0.036-0.398
		c-0.708-7.882-4.042-12.161-6.713-14.362c-2.182-1.799-4.269-2.537-5.158-2.79c-2.889,7.461-5.419,12.783-7.522,15.822
		C2030.3,192.927,2029.441,193.259,2029.066,193.259z M2018.298,175.234c0.949,0.314,3.193,1.204,5.453,3.181
		c2.559,2.24,5.588,6.335,5.858,13.271c1.159-1.113,3.969-4.899,8.88-17.669l0.168-0.437l0.46,0.086
		c0.122,0.023,3.021,0.59,6.115,3.14c2.781,2.292,6.236,6.686,7.071,14.65c0.925-0.029,3.577-0.48,8.213-4.049
		c0.142-0.753,0.659-3.363,1.485-6.069c1.348-4.415,2.863-6.986,4.502-7.642l0.1-0.04h0.108c0.102,0,2.53,0.024,5.227,2.069
		c4.344,3.296,6.028,9.302,6.672,13.842c0.439,0.163,3.062,0.449,13.311-8.663l0.187-0.166l19.028,2.117
		c0.462-1.315,1.515-6.929-8.232-17.856l-0.015-0.017c-0.065-0.079-6.642-7.984-16.733-13.106
		c-5.898-2.993-11.827-4.469-17.625-4.375c-7.24,0.113-14.31,2.68-21.012,7.629l-0.153,0.113l-0.191-0.003
		c-0.047,0.001-4.884-0.059-10.676,2.023c-5.317,1.912-12.562,6.078-16.878,15.068l-0.039,0.068
		C2019.26,172.886,2018.485,174.223,2018.298,175.234z"/>
</g>
<path style="fill:#5DC5F9;" d="M2127.489,315.283c0,0-2.12,10.657-4.976,11.368l-31.979-7.816c0,0-0.71-5.686,2.135-9.237
	l13.494-1.928c0.814-0.111,1.44-0.775,1.503-1.593c0.425-5.554,3.532-26.005,26.226-28.458l-1.503-1.421
	c0,0-21.942-2.131-26.914,24.873c0,0-0.71,3.551-3.555,4.261l-12.777,2.134c0,0-4.975,7.106-1.42,14.923l34.821,9.237
	C2122.543,331.626,2128.909,333.046,2127.489,315.283L2127.489,315.283z M2155.913,323.099c0,0-6.388,6.388-6.388,12.082
	c0,0,43.351-1.424,66.09,12.078l-69.648-9.237C2145.966,338.022,2140.991,333.046,2155.913,323.099z M2106.17,373.552
	c0,0,2.48-8.692,10.932-8.083c1.414,0.101,2.737,0.735,3.702,1.774c1.661,1.785,3.848,5.389,3.848,11.995
	C2124.648,379.238,2120.383,364.316,2106.17,373.552L2106.17,373.552z M2067.084,360.764c0,0,2.484-8.681,10.935-8.087
	c1.414,0.1,2.738,0.734,3.702,1.774c1.661,1.785,3.848,5.389,3.848,11.995C2085.562,366.446,2081.297,351.524,2067.084,360.764
	L2067.084,360.764z"/>
<path style="fill:#122A44;" d="M2121.448,380.01c-0.529,0-1.001-0.375-1.103-0.914c-0.761-3.991-2.186-6.373-4.235-7.079
	c-2.947-1.015-6.872,1.633-8.136,2.74c-0.467,0.409-1.177,0.362-1.587-0.106c-0.409-0.467-0.362-1.178,0.106-1.587
	c0.226-0.197,5.581-4.816,10.349-3.174c2.867,0.988,4.789,3.944,5.712,8.785c0.116,0.61-0.284,1.199-0.894,1.315
	C2121.589,380.003,2121.518,380.01,2121.448,380.01z M2082.833,366.218c-0.485,0-0.932-0.316-1.078-0.805
	c-1.052-3.543-2.551-5.568-4.453-6.019c-3.292-0.781-7.067,3.188-7.105,3.228c-0.425,0.452-1.136,0.476-1.589,0.051
	c-0.453-0.424-0.477-1.134-0.053-1.588c0.19-0.203,4.696-4.957,9.259-3.882c2.747,0.647,4.798,3.194,6.098,7.568
	c0.177,0.595-0.162,1.221-0.758,1.398C2083.047,366.203,2082.939,366.218,2082.833,366.218z M2215.609,349.826
	c-0.049,0-0.098-0.003-0.148-0.01l-67.841-8.921c-2.588-0.334-4.558-2.47-4.682-5.079c-0.359-8.191,11.966-14.184,12.49-14.435
	c0.561-0.268,1.232-0.031,1.5,0.529c0.268,0.56,0.031,1.231-0.529,1.499l0,0c-0.03,0.014-2.995,1.447-5.865,3.746
	c-2.523,2.021-5.499,5.146-5.349,8.557c0.072,1.514,1.218,2.757,2.726,2.951l67.844,8.921c0.616,0.081,1.049,0.646,0.968,1.262
	C2216.648,349.414,2216.165,349.826,2215.609,349.826z"/>
<g>
	<path style="fill:#F3F5F7;" d="M2154.373,340.641c0,0-3.585,15.385,12.995,22.87c6.008,2.684,12.677,3.53,19.165,2.431
		c7.956-1.323,18.609-5.513,21.743-18.222L2154.373,340.641z"/>
	<path style="fill:#122A44;" d="M2180.943,367.539c-4.813,0-9.582-1.011-14.035-3c-8.981-4.055-12.215-10.395-13.348-15.001
		c-1.226-4.986-0.322-8.984-0.283-9.152c0.131-0.563,0.668-0.934,1.242-0.86l53.903,7.08c0.317,0.042,0.602,0.217,0.782,0.481
		c0.18,0.264,0.24,0.593,0.163,0.903c-1.47,5.963-4.672,10.686-9.515,14.036c-3.588,2.482-8.007,4.173-13.135,5.026
		C2184.797,367.377,2182.866,367.539,2180.943,367.539z M2155.309,341.898c-0.169,1.397-0.317,4.106,0.459,7.195
		c1.494,5.948,5.553,10.454,12.062,13.394c5.821,2.6,12.225,3.413,18.515,2.347c7.603-1.264,17.191-5.11,20.507-16.166
		L2155.309,341.898z"/>
</g>
<path style="fill:#122A44;" d="M2122.474,334.478c-0.624,0-1.259-0.085-1.889-0.262l-35.844-9.605
	c-0.6-0.161-0.956-0.777-0.795-1.377c0.161-0.6,0.777-0.956,1.377-0.795l35.858,9.609c2.235,0.628,4.538-0.444,5.49-2.546
	c2.187-5.059,1.133-13.992,1.122-14.082c-0.075-0.617,0.364-1.177,0.98-1.252c0.619-0.075,1.177,0.364,1.252,0.98
	c0.047,0.391,1.136,9.634-1.298,15.264C2127.577,332.95,2125.118,334.478,2122.474,334.478z"/>
<g>
	<path style="fill:#F3F5F7;" d="M2118.252,333.046c0,0,5.682,8.53-1.424,16.347c0,0-14.212-7.106-33.4-7.106l2.86-17.767
		L2118.252,333.046z"/>
	<path style="fill:#122A44;" d="M2116.827,350.518c-0.17,0-0.342-0.039-0.502-0.119c-0.14-0.07-14.221-6.988-32.897-6.988
		c-0.329,0-0.642-0.144-0.856-0.395c-0.214-0.251-0.307-0.583-0.254-0.908l2.86-17.767c0.051-0.314,0.232-0.592,0.498-0.765
		c0.267-0.173,0.595-0.225,0.902-0.143l31.964,8.527c0.265,0.071,0.494,0.235,0.646,0.463c0.063,0.095,1.559,2.369,2.125,5.676
		c0.528,3.084,0.323,7.678-3.653,12.051C2117.441,350.39,2117.137,350.518,2116.827,350.518z M2084.746,341.173
		c16.248,0.267,28.586,5.378,31.788,6.838c4.965-6.103,1.884-12.44,0.992-13.994l-30.327-8.09L2084.746,341.173z"/>
</g>
<path style="fill:#122A44;" d="M2125.369,357.436c-0.243,0-0.486-0.094-0.669-0.281c-0.075-0.076-7.57-7.643-16.889-10.052
	c-0.501-0.129-0.802-0.641-0.673-1.142c0.129-0.501,0.64-0.802,1.142-0.673c9.835,2.543,17.44,10.23,17.759,10.556
	c0.362,0.37,0.355,0.963-0.014,1.325C2125.842,357.347,2125.606,357.436,2125.369,357.436z"/>
<path style="fill:#122A44;" d="M2257.82,193.764c0,0-21.969-8.155-19.116,24.516c0,0,2.488-30.202,22.701-18.865L2257.82,193.764z"
	/>
<g>
	
		<linearGradient id="SVGID_12_" gradientUnits="userSpaceOnUse" x1="1878.6733" y1="469.4897" x2="1947.0308" y2="462.5301" gradientTransform="matrix(1.8958 0 0 -1.8958 -1641.0707 947.9451)">
		<stop  offset="0.33" style="stop-color:#F3F5F7"/>
		<stop  offset="0.78" style="stop-color:#8099B9"/>
	</linearGradient>
	<path style="fill:url(#SVGID_12_);" d="M2062.109,19.657c0,0-1.777,9.594,1.778,15.261c0,0-48.323,16.347-85.278,80.302
		c0,0-8.527-25.58-61.115-4.972C1917.494,110.264,1938.813,21.431,2062.109,19.657L2062.109,19.657z"/>
	<path style="fill:#122A44;" d="M1978.609,115.783c-0.019,0-0.038-0.001-0.057-0.003c-0.22-0.022-0.407-0.172-0.477-0.382
		c-0.02-0.058-2.087-5.952-9.993-9.635c-4.944-2.302-11.102-3.279-18.303-2.9c-9.116,0.478-19.909,3.139-32.08,7.909l-0.001-0.002
		c-0.084,0.034-0.178,0.047-0.273,0.036c-0.256-0.031-0.457-0.232-0.49-0.487c-0.009-0.073-0.004-0.146,0.014-0.214
		c0.251-1.012,5.926-23.116,26.547-45.234c12.108-12.988,26.943-23.405,44.092-30.964c21.384-9.425,46.453-14.408,74.512-14.812
		c0.168-0.009,0.329,0.071,0.438,0.199c0.109,0.129,0.154,0.299,0.123,0.465c-0.017,0.094-1.694,9.447,1.701,14.86
		c0.091,0.146,0.111,0.325,0.053,0.487c-0.058,0.162-0.186,0.289-0.349,0.344c-4.163,1.41-15.514,6.595-28.675,16.123
		c-9.66,6.993-18.905,15.245-27.48,24.528c-10.719,11.604-20.414,24.86-28.816,39.4
		C1978.994,115.677,1978.808,115.783,1978.609,115.783z M1952.735,101.66c6.13,0,11.456,1.041,15.869,3.107
		c6.354,2.974,9.096,7.239,10.077,9.21c8.32-14.247,17.881-27.251,28.43-38.666c8.631-9.34,17.939-17.644,27.665-24.68
		c12.633-9.139,23.63-14.315,28.282-16.016c-2.702-4.968-1.937-12.151-1.611-14.384c-27.637,0.47-52.329,5.417-73.404,14.706
		c-17.009,7.497-31.72,17.826-43.723,30.702c-18.188,19.508-24.624,38.955-25.99,43.683c11.88-4.568,22.45-7.118,31.435-7.583
		C1950.775,101.686,1951.766,101.66,1952.735,101.66z"/>
</g>
<g>
	
		<linearGradient id="SVGID_13_" gradientUnits="userSpaceOnUse" x1="1913.4592" y1="457.0481" x2="1958.4362" y2="457.0481" gradientTransform="matrix(1.8958 0 0 -1.8958 -1641.0707 947.9451)">
		<stop  offset="0.33" style="stop-color:#F3F5F7"/>
		<stop  offset="0.78" style="stop-color:#8099B9"/>
	</linearGradient>
	<path style="fill:url(#SVGID_13_);" d="M2065.307,39.909l6.388,6.388c0,0-37.643,39.804-46.184,76.759
		c0,0-14.922-10.661-39.082-2.134C1986.425,120.921,2011.299,64.782,2065.307,39.909L2065.307,39.909z"/>
	<path style="fill:#122A44;" d="M2025.511,123.618c-0.116,0-0.23-0.036-0.327-0.105c-0.036-0.026-3.758-2.639-10.343-4.189
		c-6.075-1.43-15.903-2.222-28.225,2.127c-0.152,0.054-0.32,0.039-0.46-0.039c-0.141-0.078-0.241-0.213-0.276-0.371
		c-0.046-0.209-0.057-0.259,1.219-2.833c0.719-1.45,1.922-3.794,3.569-6.726c2.905-5.171,7.779-13.2,14.499-22.082
		c7.552-9.983,15.849-18.988,24.659-26.763c11.019-9.724,22.877-17.543,35.245-23.239c0.213-0.099,0.466-0.053,0.633,0.113
		l6.388,6.388c0.215,0.215,0.22,0.563,0.011,0.784c-0.094,0.099-9.513,10.1-19.851,24.476
		c-9.527,13.249-21.804,33.028-26.195,52.023c-0.042,0.183-0.173,0.333-0.349,0.399
		C2025.645,123.606,2025.578,123.618,2025.511,123.618z M2004.766,117.066c4.139,0,7.641,0.525,10.393,1.177
		c5.195,1.231,8.606,3.066,9.988,3.907c4.583-18.94,16.742-38.506,26.203-51.661c9.217-12.816,17.71-22.173,19.564-24.179
		l-5.727-5.727c-12.1,5.617-23.708,13.287-34.508,22.802c-8.739,7.699-16.973,16.617-24.473,26.507
		c-10.76,14.189-16.92,26.335-18.709,30.07C1994.026,117.809,1999.846,117.066,2004.766,117.066z"/>
</g>
<g>
	
		<linearGradient id="SVGID_14_" gradientUnits="userSpaceOnUse" x1="1938.5742" y1="453.6743" x2="1961.0647" y2="453.6743" gradientTransform="matrix(1.8958 0 0 -1.8958 -1641.0707 947.9451)">
		<stop  offset="0.33" style="stop-color:#F3F5F7"/>
		<stop  offset="0.78" style="stop-color:#8099B9"/>
	</linearGradient>
	<path style="fill:url(#SVGID_14_);" d="M2076.678,51.99c0,0-24.163,31.269,0,68.931c0,0-19.188-17.053-42.637,2.845
		C2034.053,123.766,2048.254,72.598,2076.678,51.99z"/>
	<path style="fill:#122A44;" d="M2034.041,124.328c-0.236,0-0.447-0.147-0.528-0.368c-0.044-0.119-0.045-0.247-0.009-0.363
		l0.017-0.059c0.672-2.339,4.37-14.74,11.146-29.185c4.112-8.764,8.569-16.597,13.249-23.281
		c5.825-8.32,12.026-14.893,18.431-19.536c0.226-0.164,0.539-0.137,0.733,0.064c0.195,0.201,0.212,0.514,0.042,0.735
		c-0.06,0.078-6.021,7.9-8.971,20.178c-1.73,7.199-2.102,14.501-1.107,21.705c1.245,9.007,4.645,17.889,10.106,26.401
		c0.152,0.236,0.105,0.548-0.108,0.731c-0.213,0.182-0.529,0.18-0.739-0.006c-0.047-0.042-4.814-4.21-12.327-5.923
		c-4.397-1.003-8.868-0.981-13.286,0.064c-5.538,1.31-11.017,4.241-16.287,8.713h0
		C2034.29,124.299,2034.155,124.328,2034.041,124.328z M2074.33,54.512c-5.357,4.384-10.556,10.156-15.491,17.204
		c-4.643,6.631-9.068,14.408-13.152,23.114c-5.737,12.227-9.252,22.975-10.585,27.339c4.98-3.942,10.141-6.56,15.365-7.789
		c4.594-1.081,9.24-1.096,13.812-0.046c4.646,1.068,8.227,2.996,10.4,4.415c-4.667-7.902-7.608-16.1-8.752-24.409
		c-1.012-7.349-0.627-14.797,1.143-22.138C2069.025,64.097,2072.271,57.894,2074.33,54.512z"/>
</g>
<path style="fill:#122A44;" d="M2188.502,345.124c0,0-8.053,13.761,6.685,18.252c0,0,10.92-6.926,12.119-15.783L2188.502,345.124z
	 M2104.844,329.472c0,0-7.914,9.97-1.503,14.235l13.502,3.551c0,0,5.881-9.658-2.033-15.133L2104.844,329.472z"/>
<circle style="fill:#FFFFFF;" cx="2187.893" cy="357.209" r="3.555"/>
<circle style="fill:#FFFFFF;" cx="2101.905" cy="336.601" r="3.555"/>
<path d="M2192.158,236.776c-0.01,0-0.021,0-0.032-0.001c-0.206-0.017-0.359-0.198-0.342-0.405c0.007-0.088,0.813-8.843,7.438-9.578
	c0.014-0.002,0.028-0.002,0.041-0.002c0.074,0,6.19,0.065,8.651,4.754c0.016-0.992,0.097-2.121,0.307-3.285
	c0.842-4.689,3.367-7.651,7.301-8.565c0.201-0.047,0.403,0.079,0.45,0.28c0.047,0.202-0.079,0.403-0.28,0.45
	c-3.671,0.853-5.936,3.533-6.733,7.967c-0.432,2.404-0.294,4.695-0.178,5.814c0.039,0.24,0.07,0.487,0.093,0.742
	c0.018,0.201-0.125,0.38-0.325,0.406c-0.201,0.026-0.385-0.111-0.417-0.31c-0.006-0.038-0.052-0.317-0.1-0.777
	c-0.452-2.695-1.978-4.635-4.545-5.772c-2.015-0.892-3.989-0.951-4.204-0.955c-5.991,0.685-6.745,8.811-6.751,8.893
	C2192.515,236.628,2192.351,236.776,2192.158,236.776z"/>
<path style="fill:#122A44;" d="M2278.03,256.833c0,0-9.834-9.06-22.626,18.654c0,0,16.715-17.403,22.57-15.809L2278.03,256.833z
	 M2276.323,236.506c0,0-12.401-17.872-20.21,7.001c0,0,3.844-6.727,7.978-9.515c1.607-1.084,3.736-0.979,5.227,0.259
	c2.382,2.007,5.971,6.862,8.669,18.553L2276.323,236.506z M2241.864,170.536c0,0-16.313,2.631-10.631,18.962
	c0,0-1.067-15.685,16.535-14.596L2241.864,170.536z M2222.45,152.393c0,0-10.834,0.906-3.589,17.835
	c0.557,1.304,0.105,2.821-1.075,3.608c-1.213,0.811-2.837,0.611-3.818-0.47c-1.548-1.706-4.51-5.141-7.305-7.057
	c-1.048-0.728-2.488-0.469-3.217,0.58c-0.161,0.232-0.278,0.491-0.346,0.766c-0.639,2.721-0.665,8.576,1.845,21.134
	c0,0-9.32-13.983-5.261-24.013c1.462-3.623,5.87-5.19,9.184-3.119c1.227,0.803,2.311,1.807,3.206,2.969
	C2212.075,164.625,2207.265,145.843,2222.45,152.393L2222.45,152.393z M2198.648,137.403c0,0-16.91,1.233-10.06,13.446
	c0.241,0.422,0.549,0.802,0.909,1.127l2.796,2.555c0.771,0.942,0.868,2.267,0.24,3.311c-0.619,1.036-1.82,1.575-3.006,1.349
	c-3.57-0.691-11.578-3.799-16.358,3.735c-0.729,1.121-0.917,2.51-0.511,3.784c0.677,2.068,2.043,3.842,3.871,5.024
	c0,0-11.368-5.686-2.841-14.212c0,0,2.841-3.551,10.657-3.551c0,0-10.571-18.583,9.639-18.177L2198.648,137.403z M2111.841,113.458
	c0,0,16.302-15.625,28.319,3.6c0.512,0.825,0.925,1.708,1.229,2.631l1.717,5.156c0,0-8.527-0.71-12.777,7.106l-2.841-2.841
	c0,0,1.42,8.527,13.502,20.608c0,0,0.71-5.686-7.106-14.212c0,0,8.527-12.777,17.767-4.265c0,0,4.261,2.134,12.078,14.926
	c0,0-2.131-12.082-15.633-20.612c0,0-4.265-18.474-17.767-22.029C2130.33,103.511,2117.538,100.681,2111.841,113.458
	L2111.841,113.458z M2082.676,6.508c0,0-5.637,4.618-0.669,20.255c0,0-6.388-9.951-4.261-20.608L2082.676,6.508z M2085.562,31.735
	c0,0,9.489,9.97,19.312,5.34l-0.549,4.727C2104.325,41.803,2089.113,41.682,2085.562,31.735z"/>
<path style="fill:#122A44;" d="M2066.37,20.368c0,0,2.841-7.816,12.082-12.777l-10.661,0.71
	C2067.791,8.301,2065.664,11.127,2066.37,20.368z M2081.297,40.976c0,0,4.976,9.947,20.608-1.42l-1.421,9.947
	C2100.484,49.502,2084.852,52.347,2081.297,40.976z"/>
<linearGradient id="SVGID_15_" gradientUnits="userSpaceOnUse" x1="1979.6271" y1="480.7093" x2="1969.1628" y2="497.0013" gradientTransform="matrix(1.8958 0 0 -1.8958 -1641.0707 947.9451)">
	<stop  offset="0.33" style="stop-color:#F3F5F7"/>
	<stop  offset="0.78" style="stop-color:#8099B9"/>
</linearGradient>
<path style="fill:url(#SVGID_15_);" d="M2118.252,21.788c0,0-14.216,4.265-16.347,13.506c0,0-19.898-6.388-15.633-23.453
	C2086.287,11.837,2111.841,5.445,2118.252,21.788z"/>
<linearGradient id="SVGID_16_" gradientUnits="userSpaceOnUse" x1="3213.522" y1="138.0231" x2="3222.5688" y2="124.0543" gradientTransform="matrix(-1.6493 -0.9289 0.9289 -1.6493 7380.5903 3283.0732)">
	<stop  offset="0.33" style="stop-color:#F3F5F7"/>
	<stop  offset="0.78" style="stop-color:#8099B9"/>
</linearGradient>
<path style="fill:url(#SVGID_16_);" d="M2180.787,70.111c0,0,9.019,10.075,6.388,19.188c0,0,19.917,4.265,24.159-9.947
	C2211.342,79.351,2194.308,58.92,2180.787,70.111z"/>
<linearGradient id="SVGID_17_" gradientUnits="userSpaceOnUse" x1="2347.7104" y1="661.657" x2="2343.8469" y2="680.2543" gradientTransform="matrix(1.3482 -1.3328 -1.3328 -1.3482 -42.7345 4305.1475)">
	<stop  offset="0.33" style="stop-color:#F3F5F7"/>
	<stop  offset="0.78" style="stop-color:#8099B9"/>
</linearGradient>
<path style="fill:url(#SVGID_17_);" d="M2236.031,262.436c0,0-5.505,14.22-0.526,22.288c0,0-19.917,5.686-29.135-5.686
	C2206.37,279.038,2222.003,257.009,2236.031,262.436L2236.031,262.436z"/>
<linearGradient id="SVGID_18_" gradientUnits="userSpaceOnUse" x1="2313.8425" y1="675.7491" x2="2305.783" y2="690.8201" gradientTransform="matrix(1.346 -1.327 -1.327 -1.346 -35.6664 4242.168)">
	<stop  offset="0.33" style="stop-color:#F3F5F7"/>
	<stop  offset="0.78" style="stop-color:#8099B9"/>
</linearGradient>
<path style="fill:url(#SVGID_18_);" d="M2179.366,244.928c0,0-7.106,13.502-4.265,26.305c0,0-17.827,5.216-25.715-7.354
	C2149.386,263.867,2163.73,238.532,2179.366,244.928L2179.366,244.928z"/>
<linearGradient id="SVGID_19_" gradientUnits="userSpaceOnUse" x1="2465.7925" y1="677.7228" x2="2471.7075" y2="668.5848" gradientTransform="matrix(0.9095 -1.6634 -1.6634 -0.9095 931.7719 4984.1274)">
	<stop  offset="0.33" style="stop-color:#F3F5F7"/>
	<stop  offset="0.78" style="stop-color:#8099B9"/>
</linearGradient>
<path style="fill:url(#SVGID_19_);" d="M2063.466,255.701c0,0-2.92,8.429,1.503,16.23c0,0-9.395,6.655-17.057,0
	C2047.897,271.932,2052.162,259.14,2063.466,255.701z"/>
<linearGradient id="SVGID_20_" gradientUnits="userSpaceOnUse" x1="2385.8379" y1="714.4891" x2="2391.7549" y2="705.351" gradientTransform="matrix(1.0931 -1.5489 -1.5489 -1.0931 523.3365 4738.4893)">
	<stop  offset="0.33" style="stop-color:#F3F5F7"/>
	<stop  offset="0.78" style="stop-color:#8099B9"/>
</linearGradient>
<path style="fill:url(#SVGID_20_);" d="M2041.88,253.387c0,0-3.859,8.038-0.376,16.29c0,0-10.09,5.543-16.944-1.943
	C2024.56,267.734,2030.257,255.506,2041.88,253.387z"/>
<g>
	
		<linearGradient id="SVGID_21_" gradientUnits="userSpaceOnUse" x1="1955.0605" y1="678.7786" x2="1961.4532" y2="668.9051" gradientTransform="matrix(-0.6256 1.782 -1.782 -0.6256 4444.9736 -2878.7075)">
		<stop  offset="0.33" style="stop-color:#F3F5F7"/>
		<stop  offset="0.78" style="stop-color:#8099B9"/>
	</linearGradient>
	<path style="fill:url(#SVGID_21_);" d="M2016.274,201.223c0,0,4.043-7.294,12.777-9.237c0,0-1.27-13.213-11.341-14.46
		C2017.725,177.526,2011.269,190.517,2016.274,201.223z"/>
	<path style="fill:#122A44;" d="M2016.274,202.067c-0.01,0-0.019,0-0.029,0c-0.317-0.011-0.601-0.199-0.735-0.486
		c-2.09-4.471-2.536-9.809-1.325-15.866c0.855-4.276,2.31-7.581,2.735-8.492l0.013-0.028c0.017-0.04,0.038-0.08,0.062-0.118
		c0.174-0.277,0.493-0.429,0.818-0.388c4.424,0.548,7.921,3.379,10.111,8.185c1.616,3.547,1.953,6.891,1.966,7.031
		c0.041,0.424-0.241,0.812-0.656,0.904c-8.267,1.839-12.184,8.753-12.222,8.822C2016.863,201.901,2016.58,202.067,2016.274,202.067z
		 M2018.215,178.456c-0.562,1.285-1.676,4.093-2.375,7.589c-1.011,5.054-0.807,9.55,0.603,13.39
		c1.61-2.208,5.394-6.437,11.669-8.088c-0.183-1.134-0.658-3.452-1.74-5.812C2024.513,181.482,2021.771,179.103,2018.215,178.456z"
		/>
</g>
<g>
	
		<linearGradient id="SVGID_22_" gradientUnits="userSpaceOnUse" x1="1950.0454" y1="668.0618" x2="1956.7889" y2="657.6452" gradientTransform="matrix(-0.6256 1.782 -1.782 -0.6256 4444.9736 -2878.7075)">
		<stop  offset="0.33" style="stop-color:#F3F5F7"/>
		<stop  offset="0.78" style="stop-color:#8099B9"/>
	</linearGradient>
	<path style="fill:url(#SVGID_22_);" d="M2038.81,198.536c0,0,3.536-5.317,12.284-7.26c0,0-1.777-14.569-11.014-15.99
		C2040.065,175.286,2032.974,188.078,2038.81,198.536L2038.81,198.536z"/>
	<path style="fill:#122A44;" d="M2038.811,199.379c-0.012,0-0.023,0-0.035-0.001c-0.293-0.012-0.559-0.175-0.702-0.431
		c-2.462-4.412-3.047-9.926-1.69-15.946c1.079-4.79,2.946-8.103,2.965-8.134c0.173-0.295,0.522-0.466,0.861-0.415
		c4.082,0.628,7.409,3.752,9.621,9.036c1.625,3.883,2.084,7.532,2.103,7.686c0.052,0.431-0.231,0.831-0.655,0.925
		c-8.276,1.838-11.732,6.855-11.766,6.906C2039.354,199.239,2039.091,199.379,2038.811,199.379z M2040.537,176.232
		c-1.162,2.326-5.543,12.151-1.566,20.763c1.495-1.66,5.005-4.806,11.169-6.359C2049.646,187.808,2047.421,177.811,2040.537,176.232
		z"/>
</g>
<g>
	
		<linearGradient id="SVGID_23_" gradientUnits="userSpaceOnUse" x1="1945.3845" y1="654.9185" x2="1951.458" y2="645.5386" gradientTransform="matrix(-0.6256 1.782 -1.782 -0.6256 4444.9736 -2878.7075)">
		<stop  offset="0.33" style="stop-color:#F3F5F7"/>
		<stop  offset="0.78" style="stop-color:#8099B9"/>
	</linearGradient>
	<path style="fill:url(#SVGID_23_);" d="M2064.394,198.536c0,0,4.31-7.805,13.059-9.752c0,0-1.007-12.254-11.078-13.498
		C2066.37,175.286,2059.388,187.83,2064.394,198.536z"/>
	<path style="fill:#122A44;" d="M2064.394,199.379c-0.01,0-0.02,0-0.029,0c-0.317-0.011-0.601-0.198-0.735-0.485
		c-5.205-11.132,1.956-23.94,2.033-24.06c0.175-0.275,0.492-0.424,0.815-0.384c4.42,0.546,7.87,3.207,9.976,7.694
		c1.557,3.319,1.829,6.441,1.839,6.572c0.035,0.42-0.246,0.801-0.657,0.892c-8.256,1.837-12.462,9.262-12.504,9.337
		C2064.983,199.214,2064.7,199.379,2064.394,199.379z M2066.844,176.209c-1.139,2.267-5.447,11.796-2.285,20.521
		c1.657-2.331,5.596-6.897,11.961-8.585c-0.166-1.063-0.595-3.173-1.613-5.327C2073.125,179.051,2070.415,176.83,2066.844,176.209z"
		/>
</g>
<linearGradient id="SVGID_24_" gradientUnits="userSpaceOnUse" x1="2376.1084" y1="722.8102" x2="2382.085" y2="713.5789" gradientTransform="matrix(1.0931 -1.5489 -1.5489 -1.0931 523.3365 4738.4893)">
	<stop  offset="0.33" style="stop-color:#F3F5F7"/>
	<stop  offset="0.78" style="stop-color:#8099B9"/>
</linearGradient>
<path style="fill:url(#SVGID_24_);" d="M2018.762,260.564c0,0-4.904,6.542-1.417,14.799c0,0-9.395,4.134-16.234-3.382
	C2001.111,271.999,2007.39,259.85,2018.762,260.564z"/>
<path style="fill:#122A44;" d="M2087.245,9.827c0,0-3.818,15.516,16.08,25.467l-1.42,2.131c0,0-21.319-6.388-17.053-27.004
	L2087.245,9.827z M2217.028,77.217c0,0,2.135,9.936-9.947,17.076c0,0,12.082-3.555,12.777-14.923L2217.028,77.217z"/>
<radialGradient id="SVGID_25_" cx="1896.0184" cy="747.7495" r="74.6131" gradientTransform="matrix(1.8958 0 0 -1.1943 -1641.0707 1236.7484)" gradientUnits="userSpaceOnUse">
	<stop  offset="0.17" style="stop-color:#3FC0E5"/>
	<stop  offset="0.62" style="stop-color:#20A1E6"/>
</radialGradient>
<path style="fill:url(#SVGID_25_);" d="M2005.97,443.197c0,0-103.045-61.115-77.461-200.401l-27.714,26.989
	C1900.794,269.786,1895.819,387.784,2005.97,443.197L2005.97,443.197z"/>
<path style="fill:#5DC5F9;" d="M1932.774,217.213c0,0,6.388,9.237,14.923,0C1947.696,217.213,1940.237,229.295,1932.774,217.213
	L1932.774,217.213z"/>
<path style="fill:#122A44;" d="M2220.519,81.798c0,0,3.198,6.347,0.872,15.317c0,0,3.548-3.698,4.476-12.916L2220.519,81.798z
	 M2184.338,94.293c0,0,5.686,8.527,18.478,2.131c0,0-12.777,2.845-17.763-4.265L2184.338,94.293z"/>
<path style="fill:#122A44;" d="M2184.338,95.694c0,0,2.135,12.777,15.637,11.371c0,0-7.377,4.404-15.407,0.782L2184.338,95.694z
	 M2211.342,77.927c0,0-4.261,16.347-25.58,9.951l-0.71,3.551c0,0,24.159,7.106,31.266-14.212L2211.342,77.927z M2057.134,454.565
	c0,0,21.104-0.575,21.57,20.323l-8.305-1.255C2070.399,473.632,2075.611,459.559,2057.134,454.565L2057.134,454.565z
	 M2023.733,439.642c0,0,15.851,7.753,9.346,28.395l-5.066-1.853C2028.014,466.184,2033.677,445.328,2023.733,439.642
	L2023.733,439.642z M1954.092,394.172c0,0,9.237,18.478-11.371,23.453l-4.261-6.388
	C1938.459,411.237,1954.802,415.483,1954.092,394.172z M1919.272,359.34c0,0-0.71,9.241-14.212,7.106l0.665-3.995
	c0.014-0.107,0.113-0.182,0.22-0.168c0.02,0.003,0.04,0.009,0.059,0.017C1907.34,362.936,1914.176,365.721,1919.272,359.34
	L1919.272,359.34z M1903.654,248.483c0,0-5.701,25.584-19.917,19.188l-2.845,5.682
	C1880.892,273.352,1903.654,282.593,1903.654,248.483z M1880.186,229.295c0,0,9.94,20.608,19.188-12.082
	c0,0,1.42,29.135-18.478,22.743L1880.186,229.295z M1897.243,188.788c0,0-1.424,15.633,17.053,9.237c0,0-16.343,15.407-23.806-2.604
	L1897.243,188.788z M1902.925,164.625c0,0,4.975,14.923,27.004-7.106c0,0-21.318,31.269-1.42,32.694c0,0-17.764,2.845-9.947-17.767
	c0,0-8.249,7.94-17.625-0.65L1902.925,164.625z M1920.692,225.74c0,0,7.816,2.134,11.371-7.106c0,0,4.261,7.816,12.082,3.555
	c0,0,2.841-1.42,4.972-7.816c0,0-4.972,11.368-12.777,6.388c0,0-4.261-2.134-4.261-8.53
	C1932.064,212.238,1929.929,225.74,1920.692,225.74L1920.692,225.74z"/>
<path style="fill:#5DC5F9;" d="M2074.191,19.657c0,0,4.975,12.777,9.947,18.474C2084.138,38.131,2071.35,33.87,2074.191,19.657z
	 M1909.321,114.172c0,0,26.305-64.669,76.751-83.147c0,0,39.082-16.343,78.164-14.923c0,0-66.09-7.816-105.886,26.305
	C1958.358,42.396,1923.537,68.69,1909.321,114.172L1909.321,114.172z M2084.138,53.057c0,0-22.029,24.159-4.261,64.666
	C2079.876,117.723,2054.292,84.323,2084.138,53.057z M2195.8,101.094c0,0,15.031,1.255,23.923-8.989
	C2219.722,92.106,2213.92,108.516,2195.8,101.094z M2232.664,97.115c0,0,23.449,22.029,19.917,76.041
	C2252.562,173.156,2264.64,120.568,2232.664,97.115L2232.664,97.115z"/>
<linearGradient id="SVGID_26_" gradientUnits="userSpaceOnUse" x1="2003.6117" y1="350.5312" x2="1992.9532" y2="355.9586" gradientTransform="matrix(1.8958 0 0 -1.8958 -1641.0707 947.9451)">
	<stop  offset="0.26" style="stop-color:#1797E5"/>
	<stop  offset="0.77" style="stop-color:#005099"/>
</linearGradient>
<path style="fill:url(#SVGID_26_);" d="M2138.146,282.593c0,0,1.42,4.975,7.816,8.527c0,0-9.951-17.767,11.368-18.478l-12.796-9.244
	C2144.534,263.398,2135.305,271.932,2138.146,282.593z"/>
<path style="fill:#7DA4B7;" d="M1924.247,107.07l-5.686,2.131c0,0,10.646-39.09,49.728-63.249c0,0,34.821-26.305,93.094-25.584
	c-0.425,0.89-0.667,1.856-0.71,2.841C2060.673,23.209,1954.092,23.209,1924.247,107.07z M1988.206,119.144
	c0,0,25.584-54.719,76.751-78.164l1.413,1.417c0,0-39.082,12.777-75.327,76.037L1988.206,119.144z"/>
<path style="fill:#5DC5F9;" d="M2144.534,263.398c-0.352,2.011,0.166,4.078,1.424,5.686c0,0-8.531,6.388-6.388,16.343
	C2139.57,285.434,2131.758,269.091,2144.534,263.398z"/>
<path style="fill:#7DA4B7;" d="M2072.759,56.609c0,0-23.453,19.188-36.955,64.669l2.845-2.134
	C2038.648,119.144,2045.056,90.719,2072.759,56.609z"/>
<path style="fill:#122A44;" d="M2148.097,261.985c0,0,8.527,12.777,29.135,7.816l2.845,1.421c0,0-20.608,11.371-36.245-8.527
	L2148.097,261.985z"/>
<path style="fill:#122A44;" d="M2142.411,264.115c0,0,4.976,12.777,16.347,14.212c0,0-10.661,0.71-19.188-12.082L2142.411,264.115z"
	/>
<linearGradient id="SVGID_27_" gradientUnits="userSpaceOnUse" x1="2036.6371" y1="340.7874" x2="2023.0548" y2="347.7014" gradientTransform="matrix(1.8958 0 0 -1.8958 -1641.0707 947.9451)">
	<stop  offset="0.26" style="stop-color:#1797E5"/>
	<stop  offset="0.77" style="stop-color:#005099"/>
</linearGradient>
<path style="fill:url(#SVGID_27_);" d="M2200.816,278.869c0,0-10.083,15.806-5.817,21.491c0,0,0.71,3.551,6.388,4.972
	c0,0-2.841-9.947,3.551-15.633c3.404,2.164,6.968,4.065,10.661,5.686l3.562-5.682c0,0-8.267-0.346-18.346-10.83"/>
<path style="fill:#122A44;" d="M2164.451,279.748c0,0,15.637,0.714,15.637-9.947l2.841,3.551
	C2182.929,273.352,2181.497,281.883,2164.451,279.748L2164.451,279.748z M2139.57,266.96c0,0-4.976,7.106,0,18.474
	c0,0-9.241-8.527-8.531-13.502L2139.57,266.96z"/>
<path style="fill:#122A44;" d="M2168.705,291.12c0,0,15.633,5.686,18.478-14.212l-4.265-5.686
	C2182.917,271.221,2182.917,289.703,2168.705,291.12z M2199.264,281.883c0,0-7.106,9.947-3.555,19.898c0,0-7.816-4.265-0.71-22.032
	L2199.264,281.883z M2213.477,308.887c0,0,26.899,14.874,31.213-18.857l-3.499-4.596
	C2241.191,285.434,2241.191,316.703,2213.477,308.887L2213.477,308.887z"/>
<linearGradient id="SVGID_28_" gradientUnits="userSpaceOnUse" x1="1948.7715" y1="336.5576" x2="1917.3491" y2="349.7454" gradientTransform="matrix(1.8958 0 0 -1.8958 -1641.0707 947.9451)">
	<stop  offset="0.26" style="stop-color:#1797E5"/>
	<stop  offset="0.77" style="stop-color:#005099"/>
</linearGradient>
<path style="fill:url(#SVGID_28_);" d="M2006.68,276.197c0,0-6.388,27.714,26.305,44.771c0,0-11.371-24.05-14.212-45.204
	L2006.68,276.197z"/>
<linearGradient id="SVGID_29_" gradientUnits="userSpaceOnUse" x1="1959.6586" y1="339.3782" x2="1925.0527" y2="352.1914" gradientTransform="matrix(1.8958 0 0 -1.8958 -1641.0707 947.9451)">
	<stop  offset="0.26" style="stop-color:#1797E5"/>
	<stop  offset="0.77" style="stop-color:#005099"/>
</linearGradient>
<path style="fill:url(#SVGID_29_);" d="M2030.486,270.511c0,0-5.329,32.694,22.386,49.743l-1.42-9.947c0,0-9.241-24.873-7.82-40.521
	L2030.486,270.511z"/>
<path style="fill:#122A44;" d="M2221.293,296.091c0,0,17.579,3.033,19.804-8.79l-1.327-2.582
	C2239.771,284.72,2238.346,295.385,2221.293,296.091L2221.293,296.091z M2199.264,278.328c0,0-1.424,6.388,10.657,14.212
	c0,0-7.816-0.71-12.777-11.368L2199.264,278.328z"/>
<path style="fill:#122A44;" d="M2205.66,276.926c0,0,9.237,14.212,31.266,5.686l2.845,4.975c0,0-25.584,12.078-39.796-9.951
	L2205.66,276.926z"/>
<path style="fill:#5DC5F9;" d="M2202.815,300.36c0,0,9.951,4.972,29.849,2.131C2232.664,302.48,2213.477,315.283,2202.815,300.36z
	 M2148.097,282.593c0,0,9.237,4.261,29.135,1.42C2177.228,284.013,2161.599,297.515,2148.097,282.593z"/>
<path style="fill:#122A44;" d="M1998.154,274.066c0,0,7.106,7.106,21.318,3.551l2.131-10.657l-4.885-2.052
	c0,0-2.255,4.885-1.526,9.868c0,0-8.527,2.131-14.923-3.555L1998.154,274.066z"/>
<path style="fill:#122A44;" d="M1998.507,274.419c0,0,0.71,4.975,8.527,5.686c0,0-6.764,1.067-10.304-4.618L1998.507,274.419z
	 M2010.945,280.462c0,0,7.106,0.71,8.527-4.265l0.71,4.265C2017.233,281.726,2013.895,281.726,2010.945,280.462L2010.945,280.462z"
	/>
<path style="fill:#122A44;" d="M2023.733,268.381c0,0-4.261,17.764,0.714,29.135c0,0-9.241-13.502-4.265-29.845L2023.733,268.381z
	 M2025.158,265.536c0,0,7.106,6.388,18.474,2.134v2.116c0,0-12.078,6.388-19.184-2.131L2025.158,265.536z"/>
<path style="fill:#122A44;" d="M2023.023,267.67c2.128,3.254,5.445,5.547,9.241,6.388c0,0-7.106,0-10.661-4.265L2023.023,267.67z
	 M2037.235,274.066c0,0,6.388-1.424,6.388-4.975l0.714,3.551C2044.338,272.642,2042.211,274.776,2037.235,274.066z"/>
<path style="fill:#122A44;" d="M2043.631,271.932c0,0-7.106,12.777,5.686,31.98c0,0-7.816-21.318-2.841-31.98H2043.631z"/>
<path style="fill:#122A44;" d="M2047.205,270.511c0,0,9.947,6.388,18.477,0l2.841,2.131c0,0-9.947,8.53-22.739,0.71
	L2047.205,270.511z"/>
<path style="fill:#122A44;" d="M2045.056,273.352c0,0,2.131,4.265,11.368,5.686c0,0-7.106,0.71-12.078-2.131L2045.056,273.352z
	 M2059.982,278.328c0,0,5.686,0,8.527-6.388l2.131,3.555C2067.572,277.749,2063.765,278.761,2059.982,278.328z M2062.819,284.013
	c0,0,7.106-0.71,9.241-6.388l0.699,3.547C2072.759,281.172,2069.925,284.724,2062.819,284.013z M2067.084,173.156
	c0,0,0-13.502,21.318-12.777c0,0-27.004-5.686-24.159,16.343L2067.084,173.156z M2078.456,178.845c0,0,2.841,4.265,1.42,10.661
	l3.142-0.954C2083.018,188.552,2082.717,180.972,2078.456,178.845z M2040.516,174.681c0,0,3.829-15.032,28.699-17.162
	c0,0-29.845-0.71-31.266,17.057L2040.516,174.681z"/>
<linearGradient id="SVGID_30_" gradientUnits="userSpaceOnUse" x1="1966.1844" y1="413.3324" x2="1982.1276" y2="402.4618" gradientTransform="matrix(1.8958 0 0 -1.8958 -1641.0707 947.9451)">
	<stop  offset="0.26" style="stop-color:#1797E5"/>
	<stop  offset="0.77" style="stop-color:#005099"/>
</linearGradient>
<path style="fill:url(#SVGID_30_);" d="M2094.089,157.519c0,0,17.767,13.502,17.053,24.873l-19.165-2.131
	C2091.977,180.262,2101.905,173.866,2094.089,157.519z"/>
<path style="fill:#122A44;" d="M2040.065,401.981c0,0,14.923-22.743,64.669,4.972
	C2104.75,406.949,2062.819,369.291,2040.065,401.981L2040.065,401.981z"/>
<path style="fill:#5DC5F9;" d="M2040.065,406.242c0,0,13.502-21.318,65.387,4.265
	C2105.452,410.508,2060.688,375.687,2040.065,406.242z"/>
<path style="fill:#5DC5F9;" d="M2123.223,359.34c0,0-58.356-30.972-92.775,8.527c-6.781,7.81-8.86,18.653-5.449,28.417
	c6.234,17.959,23.825,46.015,73.354,54.035c0,0,83.143,17.767,140.707-54.008l10.657-9.951c0,0-57.56,100.185-179.082,61.813
	c0,0-54.997-16.219-52.61-66.913c0.023-0.448,0.09-0.892,0.199-1.327c1.251-4.945,10.357-33.569,53.843-35.516
	c0,0,38.372-3.551,51.859,13.502l1.443,2.845C2124.729,360.186,2124.005,359.706,2123.223,359.34L2123.223,359.34z"/>
<path style="fill:#5DC5F9;" d="M2284.193,309.221c0,0-5.04,27.346,17.737,55.793l-2.465,6.407c0,0-18.478,9.951-28.428,44.061
	l-11.368-22.032c0,0-1.424-2.131-5.686-0.71l-7.816,2.845l0.71-2.845l8.527-3.551c0,0,4.975-1.42,7.106,2.841l7.816,16.347
	c0,0,4.975-24.163,27.004-39.796c0,0-19.898-31.269-16.343-54.719L2284.193,309.221"/>
<path style="fill:#122A44;" d="M2234.085,406.949c0,0,17.763-21.318,19.188-27.714c0,0-4.976,17.767-12.777,27.714H2234.085z"/>
<path style="fill:#5DC5F9;" d="M2253.273,334.47c0,0,17.053-9.951,26.305-31.98l5.682-1.421
	C2285.26,301.07,2286.673,328.785,2253.273,334.47z"/>
<path style="fill:#122A44;" d="M2282.407,296.091c0,0-5.686,25.584-29.135,38.376c0,0,24.159-10.661,34.821-34.824L2282.407,296.091
	z M2261.089,354.368c0,0,18.526,14.547,44.794,10.116v6.847C2305.883,371.332,2279.567,372.132,2261.089,354.368L2261.089,354.368z"
	/>
<path style="opacity:0.63;fill:#FFFFFF;enable-background:new    ;" d="M1966.174,246.348l23.449-24.87h-1.42l-23.449,24.87
	H1966.174z M1960.488,245.638l25.584-24.87l-6.396-0.714l-24.874,24.873L1960.488,245.638L1960.488,245.638z"/>
<path style="fill:#4F1A00;" d="M1975.411,222.899l21.318,4.265v-2.134L1975.411,222.899z M1971.149,242.797l23.449,2.131
	l-0.71,2.134L1971.149,242.797L1971.149,242.797z M2037.239,217.213l31.976,4.975l-4.972,40.506l2.841-1.421l4.975-40.506
	L2037.239,217.213L2037.239,217.213z M2078.456,234.98l20.608,4.261l-21.322-1.42L2078.456,234.98L2078.456,234.98z
	 M2074.901,255.589l20.608,4.265l-20.608-2.134V255.589z"/>
<path style="fill:#FFFFFF;" d="M2083.427,235.691l33.4,4.975l14.926,22.029l-13.502-17.057l-2.135,19.898h-1.42l1.42-22.739
	L2083.427,235.691z"/>
<path style="fill:#4F1A00;" d="M2110.432,261.985c0,0,9.241,0,11.371,9.947C2121.803,271.932,2121.803,261.274,2110.432,261.985z"/>
<path style="fill:#FFFFFF;" d="M2010.231,216.503c0,0-2.841,30.559-5.682,41.927C2004.549,258.43,2006.68,226.45,2010.231,216.503z"
	/>
<path style="fill:#FFFFFF;" d="M2030.843,214.372l-23.453-2.134c0,0-3.555,34.11-6.388,48.326c0,0,2.131-37.665,4.975-51.167
	L2030.843,214.372z M1955.513,244.217l4.265-24.163l34.821,4.265l-36.951-6.396L1955.513,244.217L1955.513,244.217z"/>
<path style="opacity:0.63;fill:#FFFFFF;enable-background:new    ;" d="M2068.505,210.107l-6.396,6.396l-5.686-0.71l6.396-6.396
	L2068.505,210.107z"/>
</svg>
