<svg width="24" height="24" viewBox="0 0 24 24" fill="currentColor" xmlns="http://www.w3.org/2000/svg">
<path d="M23.5 12.0394C23.5 5.68789 18.3515 0.539429 12 0.539429C6.35615 0.539429 1.66769 4.59982 0.685769 9.96059C0.685769 9.96059 0.685769 9.96059 0.676923 9.96059C0.579615 10.4914 0.517692 11.031 0.5 11.5794C0.5 11.5794 0.508846 11.5794 0.517692 11.5794C0.517692 11.7298 0.508846 11.8802 0.508846 12.0306C0.508846 15.1621 1.765 18.0018 3.79077 20.0806C3.79077 20.0806 3.79077 20.0983 3.78192 20.0983C4.20654 20.5317 4.65769 20.9298 5.14423 21.2837V21.266C7.055 22.6902 9.42577 23.5306 11.9912 23.5306C13.3888 23.5306 14.7246 23.2829 15.9719 22.8229C15.9719 22.8229 15.9719 22.8229 15.9719 22.8318C16.5735 22.6106 17.1485 22.3364 17.6969 22.0268C21.1646 20.0452 23.4912 16.3121 23.4912 12.0394H23.5ZM18.9 6.69636C19.1035 6.4929 19.3423 6.24521 19.5988 5.92675C20.9346 7.56329 21.7485 9.63329 21.7927 11.8979C20.1562 11.4644 18.0773 11.1725 15.7508 11.4556C15.565 11.4821 15.3262 11.5087 15.0519 11.5529C14.8485 11.0487 14.6185 10.5179 14.3619 9.97829C14.3265 9.88983 14.2823 9.81021 14.2469 9.72174C15.1315 9.3679 16.0073 8.93443 16.8212 8.40366C17.9446 7.66058 18.785 6.82021 18.9088 6.68752L18.9 6.69636ZM12.0177 2.33521C14.5212 2.33521 16.7946 3.2729 18.5285 4.82098C18.2454 5.15713 17.9181 5.49328 17.5554 5.82059C16.5204 6.75828 15.565 7.27136 14.9635 7.58098C14.4415 7.85521 13.9638 8.05867 13.4862 8.2356C12.2831 6.00636 10.9562 4.09559 9.78846 2.59174C10.505 2.42367 11.2569 2.33521 12.0265 2.33521H12.0177ZM7.85115 3.26405C7.96615 3.41443 8.08115 3.57366 8.19615 3.73289C8.32885 3.90982 9.10731 4.9979 9.95654 6.36906C10.4431 7.14752 10.9385 7.9702 11.4427 8.83713C11.3454 8.86367 11.2569 8.89021 11.1596 8.9079C9.50538 9.34136 8.27577 9.5006 6.10846 9.78367C4.82577 9.95175 4.16231 10.0402 3.23346 10.0579C2.95923 10.0579 2.69385 10.0579 2.43731 10.0579C3.07423 7.03252 5.10885 4.52905 7.84231 3.23751L7.85115 3.26405ZM2.24269 12.1102C2.24269 11.9775 2.24269 11.8448 2.25154 11.7033C3.21577 11.7387 4.27731 11.7298 5.41846 11.6502C5.91385 11.6148 7.43538 11.4998 9.39923 11.0929C10.1246 10.9425 11.1596 10.7302 12.3008 10.394C12.5662 10.9071 12.8315 11.4379 13.0881 12.0041C12.2919 12.2429 11.3985 12.5879 10.4608 13.0833C10.0715 13.2956 8.96577 13.9148 7.72731 14.9852C7.41769 15.2506 6.595 15.9848 5.69269 17.1171C5.38308 17.5064 5.02923 17.9841 4.65769 18.5502C3.145 16.8252 2.23385 14.5783 2.23385 12.1014L2.24269 12.1102ZM12.0177 21.8852C9.71769 21.8852 7.60346 21.0891 5.93154 19.7621C6.44461 18.8952 7.15231 17.9221 8.10769 16.9844C8.91269 16.1971 10.5581 14.7729 13.0615 13.8794C13.1854 13.8352 13.4419 13.7467 13.7958 13.6494C13.8931 13.8883 13.9904 14.136 14.0788 14.3925C14.6804 16.0291 15.3704 18.3025 15.7773 21.1421C14.6185 21.6287 13.3446 21.8941 12.0177 21.8941V21.8852ZM17.4669 20.231C17.4227 19.9568 17.3785 19.6825 17.3254 19.3906C17.0246 17.7187 16.6885 16.4183 16.4938 15.7283C16.4142 15.4629 16.1488 14.5164 15.6977 13.2425C16.3523 13.1452 17.1131 13.0833 17.9358 13.0921C19.5723 13.101 20.8196 13.3841 21.315 13.5079C21.4388 13.5433 21.5627 13.5698 21.6865 13.6052C21.2619 16.3564 19.6873 18.736 17.4758 20.231H17.4669Z"/>
</svg>
