<?xml version="1.0" encoding="iso-8859-1"?>
<!-- Generator: Adobe Illustrator 19.0.0, SVG Export Plug-In . SVG Version: 6.00 Build 0)  -->
<svg version="1.1" id="Layer_1" xmlns="http://www.w3.org/2000/svg" xmlns:xlink="http://www.w3.org/1999/xlink" x="0px" y="0px"
	 viewBox="0 0 500 500" style="enable-background:new 0 0 500 500;" xml:space="preserve">
<g>
	<linearGradient id="SVGID_1_" gradientUnits="userSpaceOnUse" x1="248.4456" y1="1.0483" x2="252.0834" y2="223.8609">
		<stop  offset="0" style="stop-color:#6556A5"/>
		<stop  offset="0.9989" style="stop-color:#3084CB"/>
	</linearGradient>
	<path style="fill:url(#SVGID_1_);" d="M265.232,213.233c-2.912-55.845-6.404-111.66-9.776-167.48
		c-0.9-14.91-2.232-29.793-3.366-44.689c-0.228-0.021-0.457-0.043-0.685-0.064c-0.133,0.877-0.326,1.75-0.391,2.632
		c-2.737,37.457-6.146,74.881-8.04,112.382c-1.682,33.311-3.268,66.629-4.68,99.954c9.176,0.974,18.855,2.822,27.445,7.67
		C265.581,220.169,265.413,216.7,265.232,213.233z"/>
	<path style="fill:#77D1F3;" d="M234.385,357.558c0.175,18.982,0.689,37.969,1.276,56.934c0.745,24.055,3.108,48.067,5.019,72.076
		c0.525,6.595,3.769,11.458,11.324,11.389c7.49-0.068,10.44-5.014,10.886-11.492c1.96-28.501,4.543-56.997,5.246-85.536
		c0.028-1.129,0.042-2.258,0.067-3.387C260.262,381.454,249.544,367.294,234.385,357.558z"/>
	<path style="fill:#44BCEE;" d="M267.884,299.454c-0.042-2.751-0.098-5.503-0.146-8.254c-9.285-7.768-20.076-13.889-31.685-17.678
		c-0.462,12.998-0.899,25.996-1.289,38.996c-0.449,15.001-0.518,30.019-0.38,45.04c15.159,9.736,25.878,23.897,33.819,39.984
		C268.92,364.864,268.384,332.146,267.884,299.454z"/>
	<path style="fill:#34ADE6;" d="M265.74,223.638c-8.59-4.849-18.269-6.697-27.445-7.67c-0.813,19.182-1.559,38.367-2.241,57.554
		c11.61,3.789,22.4,9.911,31.685,17.678C267.349,268.673,266.771,246.142,265.74,223.638z"/>
	<linearGradient id="SVGID_2_" gradientUnits="userSpaceOnUse" x1="288.9334" y1="31.2025" x2="292.6084" y2="256.292">
		<stop  offset="0" style="stop-color:#6556A5"/>
		<stop  offset="0.9989" style="stop-color:#3084CB"/>
	</linearGradient>
	<path style="fill:url(#SVGID_2_);" d="M316.084,255.909c-0.277-3.531-0.565-7.061-0.87-10.588
		c-5.286-61.137-16.712-121.176-36.434-179.438c-3.707-10.95-8.164-21.646-12.975-34.302c-0.229,2.472-0.328,2.853-0.288,3.219
		c3.815,35.442,7.493,70.899,11.496,106.32c3.456,30.578,5.873,61.208,7.21,91.875C295.442,239.771,307.838,246.027,316.084,255.909
		z"/>
	<path style="fill:#49C0F0;" d="M284.77,329.778c-1.611,48.717-5.079,97.372-7.608,146.06c-0.279,5.378,2.017,9.701,7.598,11.195
		c5.382,1.441,9.108-1.23,11.235-5.94c2.391-5.295,4.635-10.692,6.444-16.209c9.29-28.343,13.836-57.405,15.788-86.748
		c-6.051-24.966-14.205-51.685-32.927-70.751C285.188,314.848,285.017,322.312,284.77,329.778z"/>
	<path style="fill:#3AA8E2;" d="M316.084,255.909c-8.246-9.882-20.642-16.137-31.862-22.915c1.08,24.775,1.446,49.574,1.076,74.391
		c18.721,19.066,26.875,45.785,32.927,70.751c0.873-13.124,1.229-26.303,1.257-39.501
		C319.54,311.066,318.245,283.423,316.084,255.909z"/>
	<linearGradient id="SVGID_3_" gradientUnits="userSpaceOnUse" x1="212.8101" y1="34.0805" x2="215.795" y2="216.9026">
		<stop  offset="0" style="stop-color:#5267B3"/>
		<stop  offset="0.9989" style="stop-color:#0FA1E3"/>
	</linearGradient>
	<path style="fill:url(#SVGID_3_);" d="M236.623,33.692c-3.88,10.282-8.203,20.421-11.57,30.868
		c-16.235,50.368-27.637,101.29-34.194,152.75c9.839-1.891,19.733-4.287,30.363-3.789c3.395-49.547,8.733-98.986,13.126-148.475
		c0.92-10.365,2.259-20.694,3.404-31.039C237.375,33.901,236.999,33.796,236.623,33.692z"/>
	<path style="fill:#49BFEF;" d="M218.585,269.834c-10.884-4.065-21.768-0.302-32.652-0.787c-1.54,24.094-2.033,48.303-1.471,72.627
		c11.841,0.107,24.312,1.221,34.596,6.869C218.413,322.319,218.048,296.05,218.585,269.834z"/>
	<path style="fill:#77D1F3;" d="M226.413,474.159c-2.452-37.547-5.982-75.065-7.018-112.651c-0.119-4.32-0.231-8.643-0.337-12.966
		c-10.284-5.648-22.755-6.762-34.596-6.869c0.442,19.113,1.536,38.296,3.289,57.55c2.517,27.634,7.842,54.818,19.147,80.472
		c2.294,5.205,5.692,9.004,11.856,7.341C225.121,485.319,226.811,480.253,226.413,474.159z"/>
	<path style="fill:#2DB4EC;" d="M218.585,269.834c0.239-11.669,0.65-23.328,1.302-34.968c0.399-7.118,0.846-14.233,1.334-21.346
		c-10.629-0.498-20.523,1.899-30.363,3.789c-2.19,17.185-3.82,34.432-4.926,51.737C196.817,269.532,207.701,265.769,218.585,269.834
		z"/>
	<linearGradient id="SVGID_4_" gradientUnits="userSpaceOnUse" x1="296.3571" y1="453.7256" x2="359.6339" y2="321.8987">
		<stop  offset="0" style="stop-color:#03ACEC"/>
		<stop  offset="1" style="stop-color:#3EA8E1"/>
	</linearGradient>
	<path style="fill:url(#SVGID_4_);" d="M334.286,282.167c0.327,5.645,0.613,11.298,0.806,16.964
		c1.81,53.124-2.894,105.633-16.976,157.078c-1.527,5.578-0.496,10.288,4.827,12.974c5.438,2.744,9.627-0.142,12.035-4.755
		c4.591-8.798,9.874-17.539,12.587-26.961c7.888-27.393,12.29-55.167,14.159-83.174C358.519,328.415,349.147,303.02,334.286,282.167
		z"/>
	<linearGradient id="SVGID_5_" gradientUnits="userSpaceOnUse" x1="330.994" y1="119.5986" x2="333.6305" y2="281.0864">
		<stop  offset="0" style="stop-color:#6556A5"/>
		<stop  offset="0.9989" style="stop-color:#3084CB"/>
	</linearGradient>
	<path style="fill:url(#SVGID_5_);" d="M361.759,285.541c-3.393-58.61-19.909-113.735-46.149-166.053
		c-3.841-7.659-8.454-14.931-12.71-22.382c-0.292,0.137-0.584,0.275-0.876,0.412c0.181,0.756,0.338,1.519,0.546,2.268
		c16.634,59.803,28.129,120.469,31.716,182.381c14.861,20.853,22.655,46.428,27.438,72.126
		C363.245,331.504,363.091,308.56,361.759,285.541z"/>
	<path style="fill:#2FBBF0;" d="M175.392,221.447c-9.287,2.265-17.92,7.017-26.495,10.679c-3.422,17.608-5.717,35.539-6.928,53.778
		c8.104-7.162,18.25-9.545,27.944-12.761C171.146,255.82,172.992,238.591,175.392,221.447z"/>
	<path style="fill:#52C4F1;" d="M168.996,288.091c0.25-4.991,0.562-9.973,0.916-14.949c-9.694,3.217-19.84,5.6-27.944,12.761
		c-0.277,4.17-0.516,8.35-0.677,12.552c-0.721,18.738-0.418,37.443,0.916,56.085c8.522-4.678,17.08-8.443,26.462-10.51
		C167.914,325.472,168.057,306.824,168.996,288.091z"/>
	<path style="fill:#77D1F3;" d="M168.669,344.031c-9.382,2.067-17.94,5.832-26.462,10.51c1.119,15.637,2.961,31.229,5.558,46.756
		c3.652,21.838,7.716,43.649,20.43,62.553c2.908,4.323,6.459,8.163,12.353,5.385c5.815-2.741,6.363-7.803,4.856-13.386
		C175.457,419,170.202,381.703,168.669,344.031z"/>
	<linearGradient id="SVGID_6_" gradientUnits="userSpaceOnUse" x1="174.2461" y1="96.6157" x2="176.4512" y2="231.6759">
		<stop  offset="0" style="stop-color:#3480C8"/>
		<stop  offset="0.9994" style="stop-color:#03B0EE"/>
	</linearGradient>
	<path style="fill:url(#SVGID_6_);" d="M201.8,96.166c-1.564,2.376-2.371,3.489-3.064,4.669
		c-24.377,41.497-40.902,85.305-49.839,131.291c8.576-3.662,17.209-8.414,26.495-10.679c4.009-28.638,9.541-57.045,16.262-85.277
		C194.724,123.279,198.16,110.475,201.8,96.166z"/>
	<linearGradient id="SVGID_7_" gradientUnits="userSpaceOnUse" x1="370.374" y1="190.6098" x2="388.1706" y2="441.7399">
		<stop  offset="0" style="stop-color:#5465B2"/>
		<stop  offset="1" style="stop-color:#03ACEC"/>
	</linearGradient>
	<path style="fill:url(#SVGID_7_);" d="M370.684,214.391c-5.25-9.67-10.651-19.258-15.982-28.884
		c-0.287,0.138-0.574,0.277-0.862,0.415c0.325,0.89,0.654,1.778,0.973,2.67c21.196,59.207,29.429,119.97,20.818,182.496
		c-2.831,20.554-7.586,40.837-11.062,61.312c-0.353,2.079-0.911,5.483-0.39,7.71c0.468,2,2.722,2.977,4.52,1.984
		c1.938-1.071,4.803-4.192,6.181-5.757c20.946-23.786,27.553-51.304,29.165-82.045C406.661,304.423,394.291,257.869,370.684,214.391
		z"/>
	<path style="fill:#3AC1F1;" d="M130.261,258.114c0.909-4.727,1.93-9.432,2.997-14.128c-7.341,4.321-13.22,10.104-19.86,15.126
		c-8.815,24.136-13.58,48.546-14.08,73.128c7.246-11.824,15.917-21.598,25.388-31.208
		C125.669,286.749,127.507,272.442,130.261,258.114z"/>
	<path style="fill:#5DCAF2;" d="M126.663,368.591c-2.796-22.444-3.482-44.971-1.957-67.559c-9.47,9.61-18.142,19.383-25.388,31.208
		c-0.421,20.676,2.189,41.473,7.937,62.329C112.044,384.522,118.515,376.11,126.663,368.591z"/>
	<path style="fill:#77D1F3;" d="M139.298,437.546c0.036-6.214-0.925-11.532-2.505-17.42c-4.596-17.123-7.984-34.305-10.13-51.535
		c-8.148,7.519-14.619,15.93-19.409,25.978c1.044,3.789,2.18,7.58,3.433,11.372c4.478,13.555,11.708,25.712,22.496,35.387
		c0.765,0.686,1.852,1.013,2.961,1.315c1.066,0.29,2.186-0.235,2.644-1.24C139.273,440.341,139.292,438.548,139.298,437.546z"/>
	<path style="fill:#08B2EF;" d="M116.172,251.828c-0.97,2.425-1.885,4.853-2.773,7.284c6.64-5.022,12.519-10.805,19.86-15.126
		c4.173-18.366,9.327-36.544,13.958-54.822C136.722,209.993,124.799,230.252,116.172,251.828z"/>
	<path style="fill:#77D1F3;" d="M148.995,186.221c-0.334-0.034-0.669-0.067-1.003-0.101c-0.253,1.016-0.518,2.029-0.776,3.044
		c0.118-0.233,0.237-0.466,0.354-0.699C147.966,187.677,148.517,186.967,148.995,186.221z"/>
</g>
</svg>
