<?xml version="1.0" encoding="iso-8859-1"?>
<!-- Generator: Adobe Illustrator 19.0.0, SVG Export Plug-In . SVG Version: 6.00 Build 0)  -->
<svg version="1.1" id="Layer_2" xmlns="http://www.w3.org/2000/svg" xmlns:xlink="http://www.w3.org/1999/xlink" x="0px" y="0px"
	 viewBox="0 0 500 500" style="enable-background:new 0 0 500 500;" xml:space="preserve">
<polygon style="fill:#6FD562;" points="114.528,42.759 187.722,1.671 466.793,164.312 466.793,254.936 391.774,296.346 
	191.923,182.233 191.923,167.909 387.444,279.861 387.067,213.137 192.558,99.302 192.332,85.721 391.591,204.096 452.658,167.532 
	188.803,15.872 127.706,49.683 "/>
<polygon style="fill:#1F2645;" points="466.793,254.936 466.793,335.24 188.568,496.329 110.086,451.018 110.086,365.404 
	309.957,249.629 321.17,256.032 128.175,369.837 186.148,402.872 381.061,290.229 391.774,296.346 192.764,411.726 192.848,482.478 
	456.117,329.803 456.073,260.853 "/>
<polygon style="fill:#2470D5;" points="110.086,451.018 38.702,410.454 38.708,86.706 117.19,41.395 192.332,85.721 
	191.666,318.149 180.67,324.626 180.253,99.531 120.856,133.574 121.007,359.078 110.086,365.404 110.086,133.574 50.98,100.04 
	50.359,402.381 110.086,437.365 "/>
</svg>
