<?xml version="1.0" encoding="iso-8859-1"?>
<!-- Generator: Adobe Illustrator 19.0.0, SVG Export Plug-In . SVG Version: 6.00 Build 0)  -->
<svg version="1.1" id="Layer_1" xmlns="http://www.w3.org/2000/svg" xmlns:xlink="http://www.w3.org/1999/xlink" x="0px" y="0px"
	 viewBox="0 0 500 500" style="enable-background:new 0 0 500 500;" xml:space="preserve">
<linearGradient id="SVGID_1_" gradientUnits="userSpaceOnUse" x1="2.6087" y1="252.6768" x2="496.7948" y2="252.6768">
	<stop  offset="0" style="stop-color:#ED274D"/>
	<stop  offset="1" style="stop-color:#313192"/>
</linearGradient>
<path style="fill:url(#SVGID_1_);" d="M71.463,226.581c11.464,23.069,9.621,40.32-5.453,53.693
	c-12.337,10.945-30.981,12.454-45.075,3.647c-15.092-9.43-21.756-27.087-16.606-43.996c5.672-18.621,20.54-27.311,46.434-26.706
	c7.796-12.82,15.789-25.946,23.765-39.083c9.522-15.683,19.016-31.382,28.548-47.06c4.963-8.163,11.541-10.521,18.192-6.592
	c6.604,3.901,7.616,10.89,2.647,19.08c-15.48,25.513-31.008,50.996-46.483,76.511C75.293,219.605,73.349,223.252,71.463,226.581z
	 M40.971,265.307c7.483,0.037,14.006-6.48,14.099-14.085c0.093-7.62-6.268-13.861-14.102-13.837
	c-7.99,0.024-14.045,5.989-14.038,13.831C26.936,258.788,33.395,265.27,40.971,265.307z M137.58,395.488
	c24.884,0.418,39.338,10.231,44.159,29.719c4.009,16.205-4.079,34.1-19.166,42.402c-14.89,8.194-34.064,5.19-45.892-7.189
	c-13.656-14.293-14.004-31.351-0.799-53.388c-13.244-23.065-26.619-46.366-40.003-69.661c-3.654-6.361-7.44-12.649-10.974-19.075
	c-4.098-7.451-2.609-14.28,3.66-17.875c6.22-3.567,12.998-1.504,17.261,5.837c16.089,27.708,32.006,55.516,48.007,83.275
	C135.041,391.625,136.406,393.628,137.58,395.488z M144.251,419.988c-8.101,0.042-13.881,5.84-13.85,13.893
	c0.031,8.044,5.894,13.88,13.931,13.865c7.855-0.014,13.952-6.108,13.966-13.958C158.312,426.06,152.09,419.948,144.251,419.988z
	 M360.494,109.159c-20.625,1.807-37.451-8.448-42.977-25.63c-5.662-17.607,1.06-35.887,16.63-45.225
	c15.397-9.234,34.553-6.69,47.102,6.255c13.833,14.27,14.214,32.637,0.796,53.256c12.661,22.004,25.449,44.226,38.235,66.448
	c4.146,7.206,8.366,14.371,12.412,21.632c4.481,8.042,3.312,14.813-3.024,18.626c-6.341,3.816-13.017,1.613-17.647-6.347
	c-15.983-27.478-31.815-55.045-47.711-82.575C363.101,113.506,361.846,111.439,360.494,109.159z M353.665,85.12
	c7.821,0.107,13.949-5.792,14.16-13.63c0.206-7.663-5.884-14.114-13.542-14.346c-8.044-0.243-14.496,6.032-14.506,14.109
	C339.766,79.114,345.672,85.01,353.665,85.12z M448.937,291.418c-11.884,19.577-23.929,39.41-35.966,59.248
	c-5.709,9.409-11.279,18.906-17.14,28.219c-4.818,7.654-11.582,9.551-17.94,5.438c-5.817-3.764-6.955-10.959-2.598-18.157
	c17.727-29.286,35.527-58.527,53.243-87.69c-12.039-17.922-11.719-37.401,4.228-52.887c12.66-12.294,31.875-13.468,46.764-3.806
	c14.334,9.301,20.712,27.412,15.421,43.787C488.915,284.247,473.852,292.839,448.937,291.418z M458.801,239.604
	c-8.132,0.029-14.437,6.405-14.26,14.421c0.17,7.718,6.338,13.873,14.006,13.977c7.726,0.105,14.342-6.612,14.267-14.484
	C472.741,245.941,466.332,239.578,458.801,239.604z M180.84,61.087c33.554,0,66.827-0.123,100.097,0.158
	c4.104,0.035,9.344,1.087,11.952,3.739c2.5,2.542,4.216,8.82,2.748,11.578c-2.02,3.793-7.197,7.895-11.307,8.215
	c-13.135,1.025-26.402,0.362-39.618,0.36c-21.529-0.004-43.059-0.001-64.442-0.001c-11.188,22.922-31.262,28.922-48.266,23.59
	c-16.792-5.266-27.377-20.275-26.93-37.793c0.435-17.047,12.428-31.891,29.198-36.142C153.202,29.992,167.335,37.843,180.84,61.087z
	 M157.245,72.007c-0.063-7.611-6.537-14.09-14.052-14.064c-7.638,0.026-13.796,6.434-13.727,14.283
	c0.069,7.9,6.119,13.912,13.998,13.911C151.131,86.136,157.309,79.802,157.245,72.007z M316.092,422.713
	c10.9-21.5,26.456-30.273,45.457-26.155c16.531,3.583,28.873,17.967,29.815,34.746c1.006,17.932-9.466,33.696-26.007,39.148
	c-18.802,6.197-34.574-1.139-49.067-23.391c-2.094,0-4.728-0.001-7.361,0c-31.808,0.019-63.616,0.097-95.423,0.019
	c-8.078-0.02-13.681-5.29-13.615-12.219c0.065-6.769,5.287-11.572,13.18-12.017c2.44-0.138,4.892-0.064,7.339-0.066
	c28.872-0.024,57.743-0.044,86.615-0.065C309.947,422.711,312.868,422.713,316.092,422.713z M353.47,419.994
	c-7.741-0.1-13.901,5.89-14.068,13.682c-0.169,7.841,5.708,14.071,13.467,14.279c8.199,0.219,14.446-5.874,14.4-14.048
	C367.225,425.982,361.387,420.097,353.47,419.994z M356.868,243.43c-1.727-1.998-7.436-2-10.687-0.922
	c-6.007,1.992-6.489,7.837-6.771,13.414c-2.222,44.024-31.857,78.362-74.976,86.676c-5.735,1.106-11.677,1.1-17.504,1.779
	c-6.761,0.788-10.005,5.288-10.009,11.527c-0.005,6.487,3.984,10.386,10.496,11.063c3.14,0.327,6.368,0.145,9.529-0.129
	c57.341-4.958,101.471-50.271,107.071-108.768C361.747,253.091,360.301,247.402,356.868,243.43z M149.097,263.075
	c6.414-2.41,6.965-7.897,7.365-13.804c2.261-33.349,17.34-59.054,46.281-76.223c13.547-8.036,28.273-11.8,44.036-12.123
	c7.931-0.163,12.541-4.858,12.521-11.486c-0.02-6.849-5.212-11.29-13.377-11.428c-0.977-0.017-1.957,0.025-2.934,0.058
	c-58.705,1.985-107.984,51.897-109.254,110.655C133.493,259.99,140.281,266.388,149.097,263.075z M285.561,252.748
	c-0.063,20.566-16.843,37.338-37.418,37.401c-20.876,0.064-37.947-16.975-37.869-37.799c0.076-20.424,17.064-37.373,37.533-37.447
	C268.644,214.827,285.626,231.85,285.561,252.748z M233.371,252.426c-0.062,8.403,6.414,14.832,14.86,14.752
	c7.949-0.075,14.399-6.555,14.45-14.515c0.053-8.377-6.508-14.862-14.917-14.744C239.741,238.03,233.43,244.391,233.371,252.426z
	 M324.816,254.451c-0.044-8.651-5.582-14.379-12.989-13.043c-7.343,1.325-9.322,6.59-9.846,13.416
	c-2.246,29.244-23.096,50.115-51.284,51.721c-9.155,0.522-14.102,4.634-14.018,11.654c0.087,7.258,5.581,11.354,14.965,11.157
	C290.673,328.541,325.015,293.385,324.816,254.451z M181.843,263.909c6.865,0.354,11.635-4.603,12.24-12.723
	c2.32-31.129,21.756-50.435,53.174-52.819c7.614-0.578,12.238-5.284,11.882-12.094c-0.339-6.472-4.998-10.389-12.534-10.537
	c-38.674-0.762-74.453,33.77-75.24,72.618C171.164,258.203,174.762,263.544,181.843,263.909z"/>
</svg>
