<?xml version="1.0" encoding="utf-8"?>
<!-- Generator: Adobe Illustrator 25.4.1, SVG Export Plug-In . SVG Version: 6.00 Build 0)  -->
<svg version="1.1" id="dvf" xmlns="http://www.w3.org/2000/svg" xmlns:xlink="http://www.w3.org/1999/xlink" x="0px" y="0px"
	 viewBox="0 0 500 500" style="enable-background:new 0 0 500 500;" xml:space="preserve">
<style type="text/css">
	.st0{fill:#6436FF;}
</style>
<path class="st0" d="M493.5,234.3l-177-177c-8.7-8.7-22.7-8.7-31.4,0L181.4,161.1l-30-30c-8.7-8.7-22.7-8.7-31.5,0L6.5,244.4
	c-8.7,8.7-8.7,22.7,0,31.5l113.4,113.4c8.7,8.7,22.7,8.7,31.5,0l19.9-19.9L87.8,286c-8.7-8.7-8.7-22.7,0-31.4l4.6-4.6l192.6,192.6
	c8.7,8.7,22.7,8.7,31.4,0l177-177C502.2,257,502.2,243,493.5,234.3z"/>
</svg>
