<?xml version="1.0" encoding="iso-8859-1"?>
<!-- Generator: Adobe Illustrator 19.0.0, SVG Export Plug-In . SVG Version: 6.00 Build 0)  -->
<svg version="1.1" id="Layer_1" xmlns="http://www.w3.org/2000/svg" xmlns:xlink="http://www.w3.org/1999/xlink" x="0px" y="0px"
	 viewBox="0 0 500 500" enable-background="new 0 0 500 500" xml:space="preserve">
<path d="M98.586,166.179c49.161,27.052,95.418,52.505,144.39,79.453c-49.236,29.079-95.659,56.496-144.39,85.277
	C98.586,274.669,98.586,222.014,98.586,166.179z M252.225,409.502c49.602,29.292,96.053,56.724,144.187,85.149
	c0-55.864,0-108.559,0-164.312C347.784,357.037,301.211,382.607,252.225,409.502z M396.578,4
	c-48.596,26.688-95.332,52.355-144.264,79.227c48.796,28.874,94.951,56.185,144.264,85.365
	C396.578,112.383,396.578,59.639,396.578,4z"/>
</svg>
