<?xml version="1.0" encoding="iso-8859-1"?>
<!-- Generator: Adobe Illustrator 19.0.0, SVG Export Plug-In . SVG Version: 6.00 Build 0)  -->
<svg version="1.1" id="Layer_1" xmlns="http://www.w3.org/2000/svg" xmlns:xlink="http://www.w3.org/1999/xlink" x="0px" y="0px"
	 viewBox="40 0 500 500" style="enable-background:new 40 0 500 500;" xml:space="preserve">
<path style="fill:#2B1544;" d="M514.924,327.895c0-54.877,0-109.673,0-164.391c0-9.876-2.31-19.673-6.451-28.514
	c-6.451-14.177-16.328-27.319-29.947-35.283c-50.735-29.469-101.629-58.62-152.364-88.089c-5.814-3.345-12.345-5.177-18.797-7.009
	c0,0.398,0.08,1.274,0.08,1.593c-0.08-0.319-0.319-1.115-0.558-1.513c-14.177-2.708-29.071-1.991-42.85,2.389
	c-8.363,2.788-15.611,7.965-23.336,12.106c-46.673,26.921-93.266,53.841-139.939,80.682c-6.133,3.664-11.549,8.443-16.009,13.938
	C73.761,126.867,65.956,143.274,65,160.557c0,59.177,0,118.355,0,177.532c0,11.867,4.062,23.257,9.558,33.691
	c6.77,11.947,15.929,23.018,28.195,29.788c50.177,28.912,100.355,57.903,150.612,86.735c7.327,4.221,15.611,6.69,23.974,7.805
	c16.168,1.911,33.372,0.637,47.947-7.009c47.708-27.478,95.257-54.956,142.966-82.434c7.009-4.062,14.416-7.726,20.31-13.301
	c12.425-11.549,21.345-26.921,25.089-43.487C515.322,342.709,514.924,335.222,514.924,327.895L514.924,327.895z M514.924,327.895
	L514.924,327.895L514.924,327.895z"/>
<path style="fill:#2B1544;" d="M323.613,289.107c6.451-6.292,15.611-10.115,24.77-9.319c9.876,0.239,19.434,5.496,24.77,13.938
	c8.204,12.345,5.814,30.027-4.779,40.301c-10.832,10.354-29.469,11.549-41.098,1.832c-8.681-7.248-16.009-16.009-24.292-23.655
	c-0.159-0.478-0.239-1.513-0.319-2.071C309.515,303.125,316.604,296.275,323.613,289.107z"/>
<path style="fill:#FEFEFD;" d="M251.294,145.822c14.097-12.982,26.283-27.876,37.195-43.487c1.673,0.558,2.788,1.673,3.584,3.266
	c9,16.646,21.744,31.062,35.045,44.522c8.602,8.283,14.974,19.115,17.124,30.983c2.788,13.221-5.097,27.797-17.682,32.575
	c-9.319,3.504-19.991,2.867-28.912-1.434c-1.673-0.558-4.46-2.469-5.496-0.159c1.673,11.389,7.566,21.345,12.903,31.301
	c1.274,2.15-1.195,3.664-2.389,5.018c-5.496,5.018-10.195,11.071-16.168,15.611c-1.832-0.558-3.027-2.23-4.301-3.425
	c-5.177-5.336-10.593-10.513-15.77-15.929c-0.08-0.398-0.159-1.354-0.239-1.673c5.735-10.115,12.903-19.991,14.735-31.699
	c-1.832-0.319-3.664,0-5.416,0.717c-9.398,3.664-20.151,4.46-29.708,0.717c-9.319-3.504-16.567-12.345-17.682-22.301
	c-0.956-7.407,1.274-14.814,4.699-21.266C236.957,160,243.966,152.672,251.294,145.822L251.294,145.822z M251.294,145.822
	L251.294,145.822L251.294,145.822z"/>
<path style="fill:#FEFEFD;" d="M197.612,263.142c14.177-8.522,32.337-9.637,47.469-3.186c1.274,0.478,1.513,0.717,2.469,1.274
	c4.858,1.912,9,5.018,12.982,8.443c8.841,7.566,16.089,16.885,25.168,24.292c8.761-8.204,16.885-17.204,25.806-25.248
	c12.505-11.389,30.823-14.735,47.071-11.469c25.407,4.938,44.363,30.903,42.531,56.629c-0.796,16.248-9,32.337-22.54,41.655
	c-9.159,6.212-19.991,10.673-31.221,10.434c-14.735,0.558-29.23-5.974-39.744-16.168c-19.673-19.513-38.788-39.744-58.62-59.177
	c-5.814-6.212-13.62-10.673-22.221-11.23c-6.053-0.239-12.266,1.195-17.761,3.903c-8.522,4.54-14.177,13.46-15.611,22.938
	c-1.752,10.035,1.912,20.867,9.478,27.717c11.628,11.071,32.177,10.991,43.487-0.398c2.947-2.389,5.655-7.328,10.115-5.336
	c2.867,1.673,4.779,4.46,7.248,6.611c1.832,2.15,4.779,3.982,5.018,7.168c0,3.186-2.867,5.018-4.858,7.089
	c-5.257,5.416-11.31,9.956-18.398,12.823c-13.779,5.336-29.629,5.416-43.328-0.398c-21.584-9.637-35.522-34.248-32.018-57.744
	C172.523,286.956,182.558,271.186,197.612,263.142L197.612,263.142z M323.613,289.107c-6.929,7.168-14.018,13.938-20.947,21.027
	c0.159,0.478,0.239,1.513,0.319,2.071c8.283,7.646,15.611,16.407,24.292,23.655c11.628,9.797,30.266,8.522,41.098-1.832
	c10.593-10.274,12.982-27.956,4.779-40.301c-5.257-8.443-14.894-13.699-24.77-13.938
	C339.223,278.992,330.064,282.735,323.613,289.107z"/>
</svg>
