<svg width="24" height="24" viewBox="0 0 24 24" fill="currentColor" xmlns="http://www.w3.org/2000/svg">
<path fill-rule="evenodd" clip-rule="evenodd" d="M5.58579 7C5.96086 6.62493 6.46957 6.41421 7 6.41421H11.6667C12.0349 6.41421 12.3333 6.71269 12.3333 7.08088C12.3333 7.44907 12.0349 7.74755 11.6667 7.74755H7C6.82319 7.74755 6.65362 7.81778 6.5286 7.94281C6.40357 8.06783 6.33333 8.2374 6.33333 8.41421V17.7475C6.33333 17.9244 6.40357 18.0939 6.5286 18.219C6.65362 18.344 6.82319 18.4142 7 18.4142H16.3333C16.5101 18.4142 16.6797 18.344 16.8047 18.219C16.9298 18.0939 17 17.9244 17 17.7475V13.0809C17 12.7127 17.2985 12.4142 17.6667 12.4142C18.0349 12.4142 18.3333 12.7127 18.3333 13.0809V17.7475C18.3333 18.278 18.1226 18.7867 17.7475 19.1618C17.3725 19.5368 16.8638 19.7475 16.3333 19.7475H7C6.46957 19.7475 5.96086 19.5368 5.58579 19.1618C5.21071 18.7867 5 18.278 5 17.7475V8.41421C5 7.88378 5.21071 7.37507 5.58579 7Z" />
<path fill-rule="evenodd" clip-rule="evenodd" d="M17.6667 6.33333C17.4684 6.33333 17.2783 6.41209 17.1381 6.55228L10.9353 12.755L10.5829 14.1646L11.9925 13.8122L18.1953 7.60948C18.3355 7.46928 18.4142 7.27914 18.4142 7.08088C18.4142 6.88262 18.3355 6.69248 18.1953 6.55228C18.0551 6.41209 17.8649 6.33333 17.6667 6.33333ZM16.1953 5.60948C16.5855 5.21923 17.1148 5 17.6667 5C18.2186 5 18.7478 5.21923 19.1381 5.60948C19.5283 5.99972 19.7475 6.529 19.7475 7.08088C19.7475 7.63276 19.5283 8.16204 19.1381 8.55228L12.8047 14.8856C12.7193 14.9711 12.6122 15.0317 12.495 15.061L9.82836 15.7276C9.60117 15.7844 9.36085 15.7179 9.19526 15.5523C9.02968 15.3867 8.96311 15.1464 9.01991 14.9192L9.68657 12.2525C9.71588 12.1353 9.77649 12.0282 9.86193 11.9428L16.1953 5.60948Z" />
</svg>
