<svg aria-hidden="true" data-testid="test-icon" fill="currentColor" viewBox="0 0 24 24" xmlns="http://www.w3.org/2000/svg"><path fill-rule="evenodd" clip-rule="evenodd" d="M11.125 20c0-.483.392-.875.875-.875h9a.875.875 0 110 1.75h-9a.875.875 0 01-.875-.875zM18 3.754c-.33 0-.648.131-.881.365L4.79 16.447l-.587 2.35 2.35-.587L18.88 5.88a1.248 1.248 0 00-.404-2.032A1.246 1.246 0 0018 3.754zm-2.119-.873A2.996 2.996 0 1120.12 7.12l-12.5 12.5a.875.875 0 01-.407.23l-4 1a.875.875 0 01-1.06-1.061l1-4a.875.875 0 01.23-.407l12.5-12.5z"/></svg>
