<?xml version="1.0" encoding="utf-8"?>
<!-- Generator: Adobe Illustrator 26.0.3, SVG Export Plug-In . SVG Version: 6.00 Build 0)  -->
<svg version="1.1" id="efi" xmlns="http://www.w3.org/2000/svg" xmlns:xlink="http://www.w3.org/1999/xlink" x="0px" y="0px"
	 viewBox="0 0 500 500" style="enable-background:new 0 0 500 500;" xml:space="preserve">
<style type="text/css">
	.st0{fill:#496DDB;}
</style>
<path class="st0" d="M306.1,201.7c-3.1-11.8-10.4-19.3-22.4-22.7c-10.1-2.8-20.5-3.9-30.8-4.5c-11.8,0.3-23.8,1.1-35.3,4.5
	c-12.1,3.4-19.3,10.9-22.4,22.7c-1.7,6.4-2.2,13.2-2.5,19.6c-0.6,6.2-0.6,7,3.6,7h105.9c7.3,0,7.3,0,6.4-7.3
	C308.3,214.9,307.5,208.2,306.1,201.7z"/>
<path class="st0" d="M304.1,271.5H198.4c-7.3,0-7.3,0-6.4,7.3c0.3,6.4,0.8,13.2,2.5,19.6c3.1,11.8,10.4,19.3,22.4,22.7
	c10.1,2.8,20.5,3.9,30.8,4.5c11.8-0.3,23.8-1.1,35.3-4.5c12.1-3.4,19.3-10.9,22.4-22.7c1.7-6.4,2.2-13.2,2.5-19.6
	C308.6,272.7,308.6,271.8,304.1,271.5z"/>
<path class="st0" d="M250-0.1C112.1-0.1,0,112.1,0,249.9s112.1,250,250,250c138.2,0,250-112.1,250-250S388.2-0.1,250-0.1z
	 M355.4,193.6c1.1,7.3,2,14.6,2.8,22.1v12.9h38.7c3.1,0,5.9,0,8.7,0.6c6.7,1.1,10.9,5,11.2,11.5v18.8c-0.3,6.4-4.5,10.4-11.2,11.5
	c-2.8,0.6-5.6,0.6-8.7,0.6h-39.2v12.6c-0.8,7.6-1.7,14.9-2.8,22.1c-1.1,7.3-3.1,13.7-5.6,19.3h49.6c5.9,0,11.5,0.6,15.4,6.2
	c5.9,9.2,2.8,21.6-6.4,27.5c-1.1,0.8-2.5,1.7-3.9,2c-10.4,3.4-21,3.9-32,4.5c-44.6,0.8-90.2,1.1-121.1,1.1
	c-36.4,0-85.2-0.6-122.2-1.4c-10.9-0.3-21.6-0.8-31.7-4.5c-1.7-0.3-2.8-0.8-3.9-2c-9.2-5.9-12.3-17.9-6.4-27.5
	c3.6-5.6,9.2-6.2,15.1-6.2h49c-2.2-5.6-4.2-12.1-5.3-19.1c-1.1-7.3-2-14.6-2.8-22.1v-12.9h-39.2c-3.1,0-5.9,0-8.7-0.6
	c-6.7-1.1-10.9-5-11.2-11.5v-18.8c0.3-6.4,4.5-10.4,11.2-11.5c2.8-0.6,5.6-0.6,8.7-0.6h39.2v-12.6c0.8-7.6,1.7-14.9,2.8-22.1
	s3.1-13.7,5.6-19.3h-49.6c-5.9,0-11.5-0.6-15.4-6.2c-5.9-9.2-2.8-21.6,6.4-27.5c1.1-0.8,2.5-1.7,3.9-2c10.4-3.4,21-3.9,31.7-4.5
	c44.6-0.8,90.2-1.1,121.1-1.1c36.4,0,85.5,0.6,122.2,1.4c10.9,0.3,21.6,0.8,31.7,4.5c1.7,0.3,2.8,0.8,3.9,2
	c9.2,5.9,12.3,17.9,6.4,27.5c-3.6,5.6-9.2,6.2-15.1,6.2h-49C352.3,180.2,354,186.3,355.4,193.6z"/>
</svg>
