<?xml version="1.0" encoding="utf-8"?>
<!-- Generator: Adobe Illustrator 23.0.3, SVG Export Plug-In . SVG Version: 6.00 Build 0)  -->
<svg version="1.1" id="efx" xmlns="http://www.w3.org/2000/svg" xmlns:xlink="http://www.w3.org/1999/xlink" x="0px" y="0px"
	 viewBox="0 0 500 500" style="enable-background:new 0 0 500 500;" xml:space="preserve">
<style type="text/css">
	.st0{fill:#243454;}
</style>
<path class="st0" d="M227.5,1.5c0,16.9,0,33.8,0,51.4c35.5-8,70.2-7.6,105.2,2.8c0,16.9,0,33.8,0,50.8
	c49.1,22.1,80.7,58.5,91.6,111.1c8.4,40.7,1,79.2-22.1,113.9c-49,73.3-141.9,86.5-206.5,45.3c0-8.9,0-17.9,0-27
	c55,36.1,109.2,37.2,162.4-3.5c39.3-35.6,54.1-79.2,41.6-131.1c-10.1-41.8-48.3-89.4-115.8-96.6c0-5.2,0.2-20,0.3-22.9
	c8.6,1.1,16.7,2.2,25.2,3.3c0-8.3,0-16.3,0-24.3c-36.3-10.4-96.7-2.1-136.7,29.4c2.1,3.9,11.1,13.3,17.2,17.8
	c23-15.5,48.4-24.3,77-26c0,14.3,0,28.1,0,42.4c24.5-0.8,46.9,4.1,67.4,17.5c0,7.6-0.1,47.6-0.1,55.9c0,1.5,1.2,2.2,3.7,7.4
	c18.8,40-5.6,87.8-50.4,96.2c-1,0.2-2-0.1-3.2-0.1c-0.2-1-0.4-1.8-0.5-2.6c0-6.4,0-12.8,0-19.9c17-4.9,29.7-14.6,35.2-32.9
	c-3.5,0-6.5,0-10.1,0c-4.3,9.9-11.3,17.7-22.3,21.3c-7.5,2.5-15,2.5-22.5-0.1c-15.3-5.3-24.8-19.5-24-36c0.7-14.7,12.5-28.7,26.9-32
	c17.3-4,31.3,3.4,42.2,22.5c2.7,0,5.7,0,9.7,0c-2.1-9.1-6.8-15.8-13.1-21.7c-6.2-5.8-13.8-9-21.8-11.3c0-7.9,0-15.3,0-23
	c8.4,0.2,15.7,3.9,23.7,6.7c0-6.2,0-11.8,0-18.1c-26.7-10.6-52.6-8.6-77.1,6.3c-22.6,13.8-35.8,34.1-40,61.1c6,0,11,0,16.8,0
	c4-18.1,13.1-33.2,28.4-44.1c9.1-6.5,19.1-10.5,30.7-12.1c0,7.8,0,15.3,0,23.1c-22.4,6.8-36.6,21.5-36.4,45.6
	c0.2,23.5,14.3,37.8,36.6,44.6c0,21.2,0,42.2,0,63.7c-26.2-2.4-48.5-12.5-67.1-30.6c-18.6-18.1-29.3-40.3-32.7-66.1
	c-6.5,0-12.4,0-18.9,0c0,1.9-0.2,3.7,0,5.4c3.3,22.6,11.6,43.1,25.8,60.9c3.2,4,4.4,5.3,4.4,5.3s-0.1,23.4-0.7,31.4
	c-34.5-29.1-52.6-66.3-54-111c-1.3-44.7,15.2-82.8,46.6-113.9c-5.9-5.9-11.6-11.5-17.3-17.2c-87.1,78.4-71,236.9,56.7,291.4
	c0,7.8,0,15.8,0,24.7c-38.3-13.6-69.6-36.2-93.9-68.3c-24.2-32-37.3-68.3-40.2-108.7c-8.8,0-17.2,0-25.5,0
	c2.6,129.8,126.6,230.5,250.7,212.7c0-8.3,0-16.7,0-25.8c-24.6,2.7-48.8,1.7-73-4.5c0-7.8,0-15.4,0-23.7
	c55.6,13.7,107,5.1,153.2-28.8c31.2-22.9,52.5-53.2,63.8-90.2c12.9-42.2,10.2-83.8-7.9-124.1c-18-40.1-47.4-69.3-86.7-88.6
	c0-8.4,0-16.4,0-24.5c53.2,18.7,114,75.8,124.2,160.9c6,50-5.1,96.3-33.7,137.9c-28.4,41.4-67.6,68-116.2,81.1c0,16.9,0,33.4,0,50.5
	c-2.4,0.6-4.5,1.3-6.6,1.6c-8.2,1-16.4,2.3-24.6,2.8c-8.2,0.5-23.9,0.8-36.1,0c-14.5-1-28.8-3.2-42.8-6.8
	c-106.7-27.3-181-120-188-224c-0.5-7.1-0.7-25.2-0.1-36.8c0.8-13.9,3.1-27.5,6.4-41c21.9-91.3,94-164.1,185.4-185.3
	C220.4,2.9,227,1.5,227.5,1.5z M75,235.8c9-84.1,52.1-142.5,128.7-175.8c0-9.2,0-18,0-27.6c-48.8,17.2-87.5,46.5-116.1,88.8
	c-23.2,34.4-36.4,72.4-38.4,114.6C58.2,235.8,66.3,235.8,75,235.8z M166.7,235.8c7.4-46.4,33.4-77.1,76.8-92.9c0-6.7,0-12.8,0-19
	c-51.4,10.4-93.8,62.4-95.3,111.9C154.1,235.8,160.1,235.8,166.7,235.8z M191.1,259.6c2,31.6,32.4,62.7,51.8,66.3
	c0-5.8,0-11.5,0-17.4c-19.1-11-30.7-27.4-35.4-48.9c-3.6,0-6.7,0-9.7,0C195.7,259.6,193.7,259.6,191.1,259.6z M275.8,260
	c6.2,0.1,11.9-5.5,12.1-11.8c0.3-6.7-5.1-12.3-11.9-12.4c-6.7-0.1-12.4,5.3-12.5,12C263.5,254.2,269.1,259.9,275.8,260z"/>
</svg>
