<?xml version="1.0" encoding="utf-8"?>
<!-- Generator: Adobe Illustrator 25.0.1, SVG Export Plug-In . SVG Version: 6.00 Build 0)  -->
<svg version="1.1" id="egld" xmlns="http://www.w3.org/2000/svg" xmlns:xlink="http://www.w3.org/1999/xlink" x="0px" y="0px"
	 viewBox="0 0 500 500" style="enable-background:new 0 0 500 500;" xml:space="preserve">
<style type="text/css">
	.st0{fill-rule:evenodd;clip-rule:evenodd;}
</style>
<path id="Path_3_" class="st0" d="M400.4,99.4c-2-2-3.1-4.1-3.1-6.7c0-2.6,1-4.6,3.1-6.7c4.1-3.6,10.2-3.6,14.3,0
	c2,2,3.1,4.1,3.1,6.7c0,2.6-1,4.6-3.1,6.7c-2,1.5-4.6,2.6-7.2,2.6C405,102.5,402.5,101.4,400.4,99.4"/>
<path class="st0" d="M375.3,126c-1.5-2-2.6-4.1-2.6-6.7s1-4.6,2.6-6.7c3.6-3.6,9.7-3.6,13.3,0c1.5,2,2.6,4.1,2.6,6.7s-1,4.6-2.6,6.7
	c-2,1.5-4.1,2.6-6.7,2.6C379.4,128.6,377.4,127.6,375.3,126"/>
<path class="st0" d="M348.2,152.1c-1.5-1.5-2.6-4.1-2.6-6.7s1-4.6,2.6-6.7c3.6-3.6,9.7-3.6,13.3,0c1.5,1.5,2.6,4.1,2.6,6.7
	s-1,4.6-2.6,6.7c-2,2-4.1,2.6-6.7,2.6C352.3,154.7,349.7,153.7,348.2,152.1"/>
<path class="st0" d="M322,178.3c-2-1.5-3.1-4.1-3.1-6.7s1-4.6,3.1-6.7c4.1-3.6,10.2-3.6,14.3,0c2,1.5,3.1,4.1,3.1,6.7
	s-1,5.1-3.1,6.7c-2,2-4.6,2.6-7.2,2.6C326.6,180.8,324.1,180.3,322,178.3"/>
<path class="st0" d="M296.9,204.4c-2-1.5-2.6-4.1-2.6-6.7s1-4.6,2.6-6.7c3.6-3.6,9.7-3.6,13.3,0c2,1.5,2.6,4.1,2.6,6.7
	s-1,5.1-2.6,6.7c-1.5,2-4.1,2.6-6.7,2.6C301,207.5,298.5,206.5,296.9,204.4"/>
<path class="st0" d="M266.7,223.9c0-2.6,1-4.6,2.6-6.7c3.6-3.6,9.7-3.6,13.3,0c2,2,2.6,4.1,2.6,6.7s-1,4.6-2.6,6.7
	c-1.5,1.5-4.1,2.6-6.7,2.6c-2.6,0-4.6-1-6.7-2.6C267.7,229,266.7,226.4,266.7,223.9z"/>
<path class="st0" d="M218,281.8c-1.5-1.5-2.6-4.1-2.6-6.7c0-2.6,1-4.6,2.6-6.7c3.6-3.6,9.7-3.6,13.3,0c2,2,2.6,4.1,2.6,6.7
	c0,2.6-1,4.6-2.6,6.7c-1.5,2-4.1,2.6-6.7,2.6C222.1,284.8,220.1,283.8,218,281.8"/>
<path class="st0" d="M190.9,307.9c-2-1.5-3.1-4.1-3.1-6.7c0-2.6,1-4.6,3.1-6.7c4.1-3.6,10.2-3.6,14.3,0c2,2,3.1,4.1,3.1,6.7
	c0,2.6-1,4.6-3.1,6.7c-2,2-4.6,2.6-7.2,2.6C195.5,311,192.9,309.9,190.9,307.9"/>
<path class="st0" d="M165.8,334.5c-1.5-1.5-2.6-4.1-2.6-6.7s1-5.1,2.6-6.7c3.6-3.6,9.7-3.6,13.3,0c1.5,1.5,2.6,4.1,2.6,6.7
	s-1,4.6-2.6,6.7c-2,2-4.1,2.6-6.7,2.6S167.8,336.1,165.8,334.5"/>
<path class="st0" d="M139.7,360.6c-2-1.5-2.6-4.1-2.6-6.7c0-2.6,1-4.6,2.6-6.7c3.6-3.6,9.7-3.6,13.3,0c1.5,2,2.6,4.1,2.6,6.7
	c0,2.6-1,5.1-2.6,6.7c-2,2-4.1,2.6-6.7,2.6S141.2,362.7,139.7,360.6"/>
<path class="st0" d="M112.5,386.8c-2-1.5-3.1-4.1-3.1-6.7s1-4.6,3.1-6.7c4.1-3.6,10.2-3.6,13.8,0c2,2,3.1,4.1,3.1,6.7
	s-1,5.1-3.1,6.7s-4.6,2.6-7.2,2.6S114,388.8,112.5,386.8"/>
<path class="st0" d="M86.9,412.9c-2-2-2.6-4.1-2.6-6.7c0-2.6,1-4.6,2.6-6.7c3.6-3.6,9.7-3.6,13.3,0c2,2,2.6,4.1,2.6,6.7
	c0,2.6-1,4.6-2.6,6.7c-1.5,1.5-4.1,2.6-6.7,2.6C91.5,416,88.9,414.9,86.9,412.9"/>
<path class="st0" d="M100.2,99.4c1.5-2,2.6-4.1,2.6-6.7c0-2.6-1-4.6-2.6-6.7c-3.6-3.6-9.7-3.6-13.3,0c-2,2-2.6,4.1-2.6,6.7
	c0,2.6,1,4.6,2.6,6.7c1.5,1.5,4.1,2.6,6.7,2.6C96.1,102.5,98.7,101.4,100.2,99.4"/>
<path class="st0" d="M126.3,126c2-2,3.1-4.1,3.1-6.7s-1-4.6-3.1-6.7c-4.1-3.6-10.2-3.6-14.3,0c-2,2-3.1,4.1-3.1,6.7s1,4.6,3.1,6.7
	c2,1.5,4.6,2.6,7.2,2.6S124.3,127.6,126.3,126"/>
<path class="st0" d="M153,152.1c1.5-1.5,2.6-4.1,2.6-6.7s-1-4.6-2.6-6.7c-3.6-3.6-9.7-3.6-13.3,0c-1.5,1.5-2.6,4.1-2.6,6.7
	s1,4.6,2.6,6.7c2,2,4.1,2.6,6.7,2.6C148.4,154.7,150.9,153.7,153,152.1"/>
<path class="st0" d="M179.1,178.3c1.5-1.5,2.6-4.1,2.6-6.7s-1-4.6-2.6-6.7c-3.6-3.6-9.7-3.6-13.3,0c-1.5,1.5-2.6,4.1-2.6,6.7
	s1,5.1,2.6,6.7c2,2,4.1,2.6,6.7,2.6C174.5,180.8,177.1,180.3,179.1,178.3"/>
<path class="st0" d="M204.7,204.4c2-1.5,3.1-4.1,3.1-6.7s-1-4.6-3.1-6.7c-3.6-3.6-10.2-3.6-13.8,0c-2,1.5-3.1,4.1-3.1,6.7
	s1,5.1,3.1,6.7c2,2,4.6,2.6,7.2,2.6C200.6,207.5,203.2,206.5,204.7,204.4"/>
<path class="st0" d="M233.9,223.9c0-2.6-1-4.6-2.6-6.7c-3.6-3.6-9.7-3.6-13.3,0c-2,2-2.6,4.1-2.6,6.7s1,4.6,2.6,6.7
	c1.5,1.5,4.1,2.6,6.7,2.6s4.6-1,6.7-2.6S233.9,226.4,233.9,223.9z"/>
<path class="st0" d="M257.5,257.2c2-2,2.6-4.1,2.6-6.7s-1-4.6-2.6-6.7c-3.6-3.6-9.7-3.6-13.3,0c-2,2-2.6,4.1-2.6,6.7s1,4.6,2.6,6.7
	c1.5,1.5,4.1,2.6,6.7,2.6S255.9,258.7,257.5,257.2"/>
<path class="st0" d="M283.6,281.8c2-1.5,3.1-4.1,3.1-6.7c0-2.6-1-4.6-3.1-6.7c-4.1-3.6-10.2-3.6-13.8,0c-2,2-3.1,4.1-3.1,6.7
	c0,2.6,1,4.6,3.1,6.7s4.6,2.6,7.2,2.6C279,284.8,281.6,283.8,283.6,281.8"/>
<path class="st0" d="M310.2,307.9c1.5-1.5,2.6-4.1,2.6-6.7c0-2.6-1-4.6-2.6-6.7c-3.6-3.6-9.7-3.6-13.3,0c-1.5,2-2.6,4.1-2.6,6.7
	c0,2.6,1,4.6,2.6,6.7c2,2,4.1,2.6,6.7,2.6C305.6,311,308.2,309.9,310.2,307.9"/>
<path class="st0" d="M336.4,334.5c1.5-1.5,2.6-4.1,2.6-6.7s-1-5.1-2.6-6.7c-3.6-3.6-9.7-3.6-13.3,0c-1.5,1.5-2.6,4.1-2.6,6.7
	s1,4.6,2.6,6.7c2,2,4.1,2.6,6.7,2.6S334.3,336.1,336.4,334.5"/>
<path class="st0" d="M361,360.6c2-1.5,2.6-4.1,2.6-6.7c0-2.6-1-4.6-2.6-6.7c-3.6-3.6-9.7-3.6-13.3,0c-1.5,2-2.6,4.1-2.6,6.7
	c0,2.6,1,5.1,2.6,6.7c2,2,4.1,2.6,6.7,2.6C356.9,363.2,359.4,362.7,361,360.6"/>
<path class="st0" d="M388.6,386.8c2-1.5,2.6-4.1,2.6-6.7s-1-4.6-2.6-6.7c-3.6-3.6-9.7-3.6-13.3,0c-2,2-2.6,4.1-2.6,6.7
	s1,5.1,2.6,6.7s4.1,2.6,6.7,2.6C384.5,389.3,387.1,388.8,388.6,386.8"/>
<path class="st0" d="M414.8,412.9c2-2,3.1-4.1,3.1-6.7c0-2.6-1-4.6-3.1-6.7c-4.1-3.6-10.2-3.6-13.8,0c-2,2-3.1,4.1-3.1,6.7
	c0,2.6,1,4.6,3.1,6.7c2,1.5,4.6,2.6,7.2,2.6C410.1,416,412.7,414.9,414.8,412.9"/>
<path id="Fill-9_1_" class="st0" d="M162.2,106.6c26.6-17.4,55.8-25.6,88.1-26.1c31.8,0,61,8.7,88.1,26.1l56.4-56.4
	C350.7,16.9,303.1,0,250.3,0s-100.9,16.9-144,50.2L162.2,106.6z"/>
<path id="Fill-10_1_" class="st0" d="M105.8,337.6c-17.9-27.2-26.6-56.4-26.6-87.6c0-31.8,8.7-61,26.6-87.6L50,106.6
	c-32.8,43-49.2,90.7-49.2,144c0,52.3,16.4,100.4,49.7,144L105.8,337.6z"/>
<path id="Fill-11_1_" class="st0" d="M338.4,393.4c-26.6,17.9-55.8,27.2-87.6,27.7c-32.3,0-62-8.7-88.6-27.2l-56.4,55.8
	c43.5,33.8,91.7,50.7,145,50.2c52.8-0.5,100.4-17.4,143.4-50.2L338.4,393.4z"/>
<path id="Fill-12_1_" class="st0" d="M393.2,161.9c17.9,27.2,27.2,56.9,26.6,89.1c-0.5,31.2-9.2,59.9-26.6,86.1l56.4,55.8
	c33.3-43,50.2-90.7,50.2-142.9c0.5-53.3-16.4-101.4-50.2-145L393.2,161.9z"/>
<path id="Fill-15_1_" class="st0" d="M452.1,410.9c21.5,0,39.4,17.4,39.4,39.4c0,21.5-17.4,39.4-39.4,39.4
	c-21.5,0-39.4-17.4-39.4-39.4S430.1,410.9,452.1,410.9"/>
<path id="Fill-16_1_" class="st0" d="M49.5,410.9c21.5,0,38.9,17.4,38.9,39.4c0,21.5-17.4,39.4-38.9,39.4s-38.9-17.4-38.9-39.4
	S28,410.9,49.5,410.9"/>
<path id="Fill-17_1_" class="st0" d="M452.7,8.7c21.5,0,38.9,17.4,38.9,39.4s-17.4,39.4-38.9,39.4c-21.5,0-38.9-17.4-38.9-39.4
	S431.1,8.7,452.7,8.7"/>
<path id="Fill-18_1_" class="st0" d="M49,8.7c21.5,0,39.4,17.4,39.4,38.9S71,86.6,49,86.6c-21.5,0-39.4-17.4-39.4-38.9
	C9.5,26.1,27,8.7,49,8.7"/>
</svg>
