<?xml version="1.0" encoding="iso-8859-1"?>
<!-- Generator: Adobe Illustrator 19.0.0, SVG Export Plug-In . SVG Version: 6.00 Build 0)  -->
<svg version="1.1" id="Layer_1" xmlns="http://www.w3.org/2000/svg" xmlns:xlink="http://www.w3.org/1999/xlink" x="0px" y="0px"
	 viewBox="0 0 500 500" style="enable-background:new 0 0 500 500;" xml:space="preserve">
<path style="fill:#F5BE1D;" d="M249.993,495.974C113.177,496.065,2.914,386.161,2.953,249.386
	C2.992,116.485,107.889,2.353,249.902,2.22c141.223-0.132,247.41,113.821,247.207,248.165
	C496.903,386.805,383.071,497.951,249.993,495.974z M400.069,100.254c-46.131-43.489-100.213-62.223-161.935-58.743
	c-62.286,3.512-112.792,30.64-151.681,78.81c-66.365,82.204-60.44,201.694,12.633,279.405
	c71.788,76.344,196.053,86.163,279.624,23.276c42.695-32.128,70.842-74.278,80.68-126.731
	c12.534-66.83-1.349-128.242-44.597-180.467c2.714-12.829,5.079-24.005,7.443-35.181c-1.012-0.408-2.023-0.815-3.035-1.223
	C413.281,85.854,407.36,92.308,400.069,100.254z"/>
<path style="fill:#FFFFFF;" d="M400.069,100.254c6.706-7.308,13.109-13.009,18.701-18.898c0.589-0.62,1.622-0.173,1.563,0.68
	c-0.42,6.094-3.316,23.263-5.539,33.77c43.247,52.224,57.13,113.637,44.597,180.467c-9.837,52.452-37.985,94.603-80.68,126.731
	c-83.571,62.887-207.836,53.068-279.624-23.276c-73.074-77.711-78.998-197.201-12.633-279.405
	c38.889-48.17,89.396-75.298,151.681-78.81C299.855,38.031,353.937,56.765,400.069,100.254z M388.82,110.374
	c-55.484-48.355-117.194-66.455-186.838-48.067c-79.153,20.899-131.75,81.99-144.529,159.729
	C46.439,289.03,68.85,346.303,116.528,393.968c-0.478-6.827-2.926-13.12-4.077-19.642c-12.983-73.602,27.529-147.779,97.321-175.746
	c35.199-14.105,71.621-25.128,107.097-38.582C344.009,149.706,366.659,132.278,388.82,110.374z M410.188,135.713
	c-1.569,0.755-2.477,0.887-2.768,1.383c-1.628,2.769-3.236,5.564-4.617,8.462c-12.053,25.283-29.078,46.712-54.311,59.094
	c-23.022,11.297-46.895,22.011-71.565,28.584c-72.503,19.317-121.482,61.59-141.18,135.373c-6.62,24.797-3.066,41.871,12.767,51.398
	c48.748,29.332,100.854,38.117,155.887,22.487c110.307-31.328,170.298-144.884,134.116-253.491
	C432.106,169.762,422.935,151.617,410.188,135.713z"/>
<path style="fill:#F5BE1D;" d="M388.82,110.374c-22.161,21.904-44.811,39.332-71.951,49.624
	c-35.476,13.453-71.898,24.477-107.097,38.582c-69.791,27.967-110.303,102.144-97.321,175.746c1.15,6.522,3.599,12.815,4.077,19.642
	C68.85,346.303,46.439,289.03,57.452,222.036c12.779-77.739,65.376-138.83,144.529-159.729
	C271.625,43.919,333.335,62.019,388.82,110.374z"/>
<path style="fill:#F5BE1D;" d="M409.448,134.651c12.746,15.903,22.658,35.112,29.068,54.353
	C474.698,297.61,414.707,411.166,304.4,442.494c-55.032,15.63-107.138,6.845-155.887-22.487
	c-15.833-9.527-19.387-26.601-12.767-51.398c19.698-73.783,68.677-116.056,141.18-135.373c24.67-6.573,48.543-17.287,71.565-28.584
	c25.234-12.382,42.258-33.811,54.311-59.094c1.381-2.897,2.989-5.693,4.617-8.462C407.711,136.601,408.264,135.873,409.448,134.651z
	 M379.652,191.622c-4.432,3.206-7.063,5.486-10.026,7.187c-12.667,7.273-24.836,15.863-38.28,21.239
	c-30.878,12.349-62.636,22.489-93.568,34.712c-21.776,8.605-41.946,20.367-55.545,40.516c-2.547,3.773-4.021,8.27-6.351,13.196
	c3.331,0.515,4.475,1.063,5.335,0.771c38.171-12.944,77.55-16.223,117.55-15.287c7.025,0.164,14.248-1.052,21.122-2.705
	C360.578,281.465,379.206,231.191,379.652,191.622z M331.635,300.582c-0.697-1.015-1.393-2.031-2.09-3.046
	c-14.892,0.731-29.855,0.788-44.662,2.337c-28.377,2.97-56.939,5.394-84.871,10.867c-13.099,2.566-25.626,10.609-37.094,18.168
	c-9.844,6.489-15.449,16.951-15.917,29.689c2.422,0.256,3.483,0.57,4.479,0.426c1.401-0.203,2.867-0.526,4.11-1.174
	c24.367-12.709,50.223-10.461,75.602-5.821c38.079,6.961,67.27-6.328,90.468-35.678
	C325.495,311.497,328.335,305.858,331.635,300.582z M281.214,357.926c-25.343,12.825-50.007,9.171-74.983,5.036
	c-14.804-2.451-29.963-3.37-44.416,3.212c-14.072,6.409-23.965,18.897-23.147,30.778c19.131-8.369,37.831-3.272,56.816,0.628
	c11.787,2.422,24.044,3.925,36.04,3.653C253.289,400.741,276.381,380.612,281.214,357.926z"/>
<path style="fill:#FFFFFF;" d="M379.652,191.622c-0.446,39.569-19.075,89.843-59.765,99.63c-6.873,1.653-14.097,2.87-21.122,2.705
	c-39.999-0.936-79.379,2.343-117.55,15.287c-0.638,0.216-2.243,0.322-3.79-0.11c-0.859-0.24-1.285-1.204-0.918-2.017
	c1.986-4.396,3.414-8.415,5.725-11.84c13.599-20.15,33.769-31.911,55.545-40.516c30.932-12.224,62.69-22.363,93.568-34.712
	c13.444-5.377,25.613-13.966,38.28-21.239C372.589,197.108,375.22,194.828,379.652,191.622z"/>
<path style="fill:#FFFFFF;" d="M331.477,300.836c-3.233,5.202-6.043,10.739-9.817,15.513c-23.198,29.35-52.389,42.64-90.468,35.678
	c-25.379-4.639-51.235-6.888-75.602,5.821c-1.242,0.648-2.708,0.971-4.11,1.174c-0.599,0.087-1.223,0.008-2.153-0.125
	c-1.342-0.191-2.292-1.41-2.169-2.76c1.06-11.625,6.557-21.163,15.76-27.23c11.468-7.56,23.995-15.602,37.094-18.168
	c27.932-5.473,56.494-7.897,84.871-10.867c14.807-1.549,29.77-1.606,44.662-2.337C330.429,299.047,330.593,299.326,331.477,300.836z
	"/>
<path style="fill:#FFFFFF;" d="M281.214,357.926c-4.833,22.686-27.924,42.816-49.691,43.308c-11.996,0.271-24.253-1.232-36.04-3.653
	c-18.985-3.9-37.685-8.997-56.816-0.628c-0.818-11.882,9.075-24.37,23.147-30.778c14.453-6.582,29.613-5.664,44.416-3.212
	C231.207,367.097,255.871,370.751,281.214,357.926z"/>
</svg>
