<?xml version="1.0" encoding="iso-8859-1"?>
<!-- Generator: Adobe Illustrator 19.0.0, SVG Export Plug-In . SVG Version: 6.00 Build 0)  -->
<svg version="1.1" id="Layer_2" xmlns="http://www.w3.org/2000/svg" xmlns:xlink="http://www.w3.org/1999/xlink" x="0px" y="0px"
	 viewBox="0 0 500 500" style="enable-background:new 0 0 500 500;" xml:space="preserve">
<polygon style="fill:#B3D002;" points="374.098,39.191 497.881,110.875 374.098,182.168 "/>
<polygon style="fill:#F4EA1B;" points="374.098,39.191 249.95,110.68 374.098,182.168 "/>
<polygon style="fill:#66B72F;" points="374.098,182.168 249.95,253.069 249.95,110.68 "/>
<polygon style="fill:#0568B2;" points="249.95,110.68 125.358,181.874 249.95,253.069 "/>
<polygon style="fill:#5EB9DD;" points="249.95,110.68 125.358,39.191 125.358,181.874 "/>
<polygon style="fill:#1D3691;" points="125.358,39.191 2.751,110.68 125.358,181.874 "/>
<polygon style="fill:#B3D002;" points="373.732,248.857 497.514,320.541 373.732,391.833 "/>
<polygon style="fill:#F4EA1B;" points="373.732,248.857 249.583,320.345 373.732,391.833 "/>
<polygon style="fill:#66B72F;" points="373.732,391.833 249.583,462.734 249.583,320.345 "/>
<polygon style="fill:#0568B2;" points="249.583,320.345 124.992,391.54 249.583,462.734 "/>
<polygon style="fill:#5EB9DD;" points="249.583,320.345 124.992,248.857 124.992,391.54 "/>
<polyline style="fill:#1D3691;" points="124.992,391.54 124.992,248.857 2.385,320.345 "/>
</svg>
