<?xml version="1.0" encoding="utf-8"?>
<!-- Generator: Adobe Illustrator 19.0.0, SVG Export Plug-In . SVG Version: 6.00 Build 0)  -->
<svg version="1.1" id="Layer_1" xmlns="http://www.w3.org/2000/svg" xmlns:xlink="http://www.w3.org/1999/xlink" x="0px" y="0px"
	 viewBox="250 -225 2500 2451" style="enable-background:new 250 -225 2500 2451;" xml:space="preserve">
<style type="text/css">
	.st0{fill:#2B5EBA;}
</style>
<path class="st0" d="M2206.8,490.4c281.4,0,509.5,228.1,509.5,509.5s-228.1,509.5-509.5,509.5s-509.5-228.1-509.5-509.5
	S1925.4,490.4,2206.8,490.4z M1562.9-192.2c135.7,0,245.7,110,245.7,245.7s-110,245.7-245.7,245.7s-245.7-110-245.7-245.7
	S1427.3-192.2,1562.9-192.2z M1562.9,1701.8c135.7,0,245.7,110,245.7,245.7s-110,245.7-245.7,245.7s-245.7-110-245.7-245.7
	S1427.3,1701.8,1562.9,1701.8z M1450.4,1367.8c14.5,4.8,30.3,7.3,46,7.3c84.7,0,153.7-69,153.7-153.7c0-84.7-69-153.7-153.7-153.7
	c-54.5,0-101.7,27.8-129.5,70.2v1.2c-4.8,6.1-8.5,13.3-10.9,20.6c-169.4,298.9-509.5,99.2-509.5,99.2c-55.7-32.7-119.8-52-190-52
	c-204.5,0-370.3,165.8-370.3,370.3s165.8,370.3,370.3,370.3c142.8,0,267.5-81.1,328-199.7v-1.2c10.9-20.6,19.4-42.4,26.6-65.4
	C1187.8,1275.8,1450.4,1367.8,1450.4,1367.8L1450.4,1367.8z M1363.2,824.4c7.3,13.3,16.9,26.6,27.8,37.5
	c60.5,60.5,157.3,60.5,216.6,0c60.5-60.5,60.5-157.3,0-216.6c-38.7-38.7-92-52-140.4-41.1h-1.2c-7.3,1.2-15.7,3.6-23,7.3
	c-331.6,92-430.8-290.5-430.8-290.5c-15.7-62.9-48.4-122.2-96.8-170.6C770.2,5.1,536.7,5.1,392.6,149.1s-145.2,378.8,0,522.8
	c101.7,101.7,245.7,131.9,374,90.8h1.2c21.8-7.3,43.6-16.9,65.4-27.8C1243.4,572.7,1363.2,824.4,1363.2,824.4z"/>
</svg>
