<?xml version="1.0" encoding="iso-8859-1"?>
<!-- Generator: Adobe Illustrator 19.0.0, SVG Export Plug-In . SVG Version: 6.00 Build 0)  -->
<svg version="1.1" id="Layer_2" xmlns="http://www.w3.org/2000/svg" xmlns:xlink="http://www.w3.org/1999/xlink" x="0px" y="0px"
	 viewBox="0 0 500 500" style="enable-background:new 0 0 500 500;" xml:space="preserve">
<polygon id="XMLID_1_" style="fill:#C4A9D4;" points="374.209,35.716 497.385,250.176 374.209,465.163 347.977,420.683 
	447.202,250.44 347.977,75.677 151.239,75.677 125.007,35.716 "/>
<polygon id="XMLID_2_" style="fill:#AE9ACD;" points="125.007,35.716 2.261,250.44 125.007,465.163 374.209,465.163 
	347.977,420.683 151.649,420.683 53.857,250.44 151.239,75.677 "/>
<polygon id="XMLID_3_" style="fill:#C4A9D4;" points="157.037,156.73 340.822,156.73 340.822,339.772 303.792,302.743 
	303.792,195.865 267.506,195.865 267.506,267.2 230.105,231.78 230.105,195.37 157.037,195.37 "/>
<polygon id="XMLID_4_" style="fill:#AE9ACD;" points="230.105,231.78 157.037,231.78 157.037,267.447 267.506,267.447 "/>
<polygon id="XMLID_5_" style="fill:#AE9ACD;" points="303.792,302.743 157.037,302.743 157.037,339.772 340.822,339.772 "/>
</svg>
