<?xml version="1.0" encoding="iso-8859-1"?>
<!-- Generator: Adobe Illustrator 19.0.0, SVG Export Plug-In . SVG Version: 6.00 Build 0)  -->
<svg version="1.1" id="Layer_2" xmlns="http://www.w3.org/2000/svg" xmlns:xlink="http://www.w3.org/1999/xlink" x="0px" y="0px"
	 viewBox="0 0 500 500" style="enable-background:new 0 0 500 500;" xml:space="preserve">
<path style="fill:#0277AF;" d="M177.263,75.874c-0.912,0-1.752,0.493-2.197,1.29l-49.616,88.865
	c-0.936,1.677,0.276,3.743,2.197,3.743H232.69l51.63-93.897H177.263z"/>
<polygon style="fill:#01A4CF;" points="284.32,75.874 232.69,169.771 337.325,169.771 391.577,75.874 "/>
<path style="fill:#01CEFD;" d="M492.346,75.874H391.577l-54.252,93.897H443.47c0.918,0,1.762-0.5,2.205-1.304l48.876-88.865
	C495.473,77.926,494.259,75.874,492.346,75.874z"/>
<path style="fill:#0277AF;" d="M118.213,199.599c-0.912,0-1.752,0.493-2.197,1.29L66.4,289.753
	c-0.936,1.677,0.276,3.743,2.197,3.743h105.042l51.63-93.897H118.213z"/>
<polygon style="fill:#01A4CF;" points="225.269,199.599 173.639,293.496 278.275,293.496 332.527,199.599 "/>
<path style="fill:#01CEFD;" d="M433.295,199.599H332.527l-54.252,93.897H384.42c0.918,0,1.762-0.5,2.205-1.304l48.876-88.865
	C436.422,201.651,435.209,199.599,433.295,199.599z"/>
<path style="fill:#0277AF;" d="M55.414,321.449c-0.912,0-1.752,0.493-2.197,1.29L3.6,411.603c-0.936,1.677,0.276,3.743,2.197,3.743
	H110.84l51.63-93.897H55.414z"/>
<polygon style="fill:#01A4CF;" points="162.47,321.449 110.84,415.346 215.475,415.346 269.727,321.449 "/>
<path style="fill:#01CEFD;" d="M370.496,321.449H269.727l-54.252,93.897H321.62c0.918,0,1.762-0.5,2.205-1.304l48.876-88.865
	C373.623,323.501,372.409,321.449,370.496,321.449z"/>
</svg>
