<?xml version="1.0" encoding="iso-8859-1"?>
<!-- Generator: Adobe Illustrator 19.0.0, SVG Export Plug-In . SVG Version: 6.00 Build 0)  -->
<svg version="1.1" id="Layer_1" xmlns="http://www.w3.org/2000/svg" xmlns:xlink="http://www.w3.org/1999/xlink" x="0px" y="0px"
	 viewBox="0 0 500 500" style="enable-background:new 0 0 500 500;" xml:space="preserve">
<g id="KpvCHG_1_">
	<g id="XMLID_1_">
		<path id="XMLID_195_" d="M37.017,126.22C108.392,85.014,179.708,43.842,251.052,2.654
			c71.462,41.26,142.782,82.437,214.066,123.594c0,82.629,0,164.981,0,247.568c-71.284,41.158-142.601,82.335-214.069,123.6
			c-71.343-41.187-142.665-82.362-214.033-123.564C37.017,291.344,37.017,208.999,37.017,126.22z M142.615,312.616
			c0-41.123,0-82.123,0-123.229c-32.96-19.616-65.797-39.158-99.049-58.947c0,80.183,0,159.709,0,239.399
			c67.935,39.219,135.834,78.417,204.166,117.865c0-38.615,0-76.403,0-114.373C212.723,353.111,177.728,332.897,142.615,312.616z
			 M359.425,312.651c-35.204,20.329-70.12,40.491-104.797,60.517c0,38.23,0,76.154,0,114.395
			c68.248-39.406,136.123-78.597,203.755-117.647c0-78.674,0-156.901,0-235.691c-33.275,19.214-66.102,38.169-98.958,57.142
			C359.425,231.895,359.425,272.156,359.425,312.651z M455.156,128.29C386.717,88.776,318.872,49.606,251.042,10.444
			C184.067,49.115,117.296,87.668,50.09,126.472c32.883,19.584,65.114,38.779,97.516,58.076
			c34.503-19.914,68.939-39.789,103.443-59.704c35.101,20.261,70.096,40.462,105.053,60.641
			C389.118,166.421,421.858,147.517,455.156,128.29z M247.667,365.48c0-38.14,0-75.766,0-113.538
			c-32.667-19.439-65.3-38.857-98.293-58.489c0,38.868,0,76.967,0,115.289C182.004,327.578,214.647,346.421,247.667,365.48z
			 M254.438,365.468c33.122-19.119,65.699-37.924,98.101-56.628c0-37.903,0-75.499,0-113.508
			c-33.036,19.075-65.691,37.931-98.101,56.646C254.438,289.887,254.438,327.345,254.438,365.468z M154.297,188.492
			c32.44,19.328,64.544,38.456,96.768,57.656c32.666-18.872,65.248-37.694,98.265-56.768c-33.183-19.159-65.75-37.961-98.284-56.746
			C218.773,151.267,186.75,169.755,154.297,188.492z"/>
		<path id="XMLID_162_" style="fill:#104F9D;" d="M247.667,365.48c-33.019-19.06-65.663-37.903-98.293-56.738
			c0-38.323,0-76.421,0-115.289c32.993,19.632,65.626,39.051,98.293,58.489C247.667,289.715,247.667,327.341,247.667,365.48z"/>
		<path id="XMLID_161_" style="fill:#33AFFF;" d="M254.438,365.468c0-38.123,0-75.581,0-113.49
			c32.41-18.714,65.066-37.57,98.101-56.646c0,38.009,0,75.605,0,113.508C320.137,327.544,287.56,346.349,254.438,365.468z"/>
		<path id="XMLID_160_" style="fill:#E32EA2;" d="M154.297,188.492c32.453-18.737,64.476-37.225,96.748-55.858
			c32.534,18.784,65.101,37.587,98.284,56.746c-33.016,19.074-65.598,37.897-98.265,56.768
			C218.841,226.948,186.737,207.82,154.297,188.492z"/>
		<path id="XMLID_156_" d="M96.661,344.043c0.08,2.935-2.189,5.318-5.147,5.405c-3.042,0.09-5.393-2.062-5.513-5.045
			c-0.117-2.901,2.201-5.353,5.145-5.442C94.103,338.873,96.583,341.157,96.661,344.043z"/>
		<path id="XMLID_155_" d="M62.255,366.776c-3.085-0.052-5.235-2.246-5.206-5.311c0.029-3.014,2.295-5.201,5.352-5.167
			c3.058,0.034,5.258,2.293,5.176,5.314C67.493,364.756,65.357,366.828,62.255,366.776z"/>
		<path id="XMLID_154_" d="M125.528,326.745c0.074,3.054-2.084,5.357-5.086,5.427c-2.968,0.069-5.355-2.196-5.414-5.139
			c-0.06-2.993,2.16-5.344,5.137-5.442C123.167,321.493,125.454,323.692,125.528,326.745z"/>
		<path id="XMLID_153_" d="M433.348,366.253c-2.988,0.031-5.398-2.242-5.468-5.156c-0.068-2.824,2.385-5.345,5.241-5.388
			c2.985-0.044,5.329,2.187,5.418,5.157C438.626,363.769,436.261,366.223,433.348,366.253z"/>
		<path id="XMLID_152_" d="M374.852,332.233c-2.877-0.001-5.252-2.432-5.233-5.357c0.019-2.936,2.393-5.301,5.306-5.287
			c2.836,0.013,5.26,2.477,5.282,5.366C380.227,329.767,377.724,332.234,374.852,332.233z"/>
		<path id="XMLID_151_" d="M404.509,338.865c2.685,0.03,4.978,2.473,4.91,5.229c-0.069,2.769-2.689,5.256-5.45,5.174
			c-2.535-0.075-5.134-2.709-5.144-5.213C398.812,341.097,401.296,338.829,404.509,338.865z"/>
		<path id="XMLID_150_" d="M254.716,68.512c0.054,2.798-2.429,5.379-5.235,5.442c-2.769,0.062-5.401-2.442-5.486-5.216
			c-0.082-2.699,2.487-5.366,5.263-5.462C251.933,63.183,254.664,65.803,254.716,68.512z"/>
		<path id="XMLID_149_" d="M249.357,107.656c-2.937-0.007-5.368-2.395-5.355-5.26c0.013-2.85,2.461-5.225,5.385-5.224
			c2.921,0,5.368,2.405,5.345,5.253C254.709,105.293,252.274,107.663,249.357,107.656z"/>
		<path id="XMLID_148_" d="M249.285,29.579c2.895-0.07,5.39,2.305,5.429,5.168c0.039,2.866-2.351,5.274-5.273,5.316
			c-2.973,0.042-5.367-2.225-5.441-5.152C243.93,32.113,246.371,29.65,249.285,29.579z"/>
	</g>
</g>
</svg>
