<?xml version="1.0" encoding="iso-8859-1"?>
<!-- Generator: Adobe Illustrator 19.0.0, SVG Export Plug-In . SVG Version: 6.00 Build 0)  -->
<svg version="1.1" id="Layer_1" xmlns="http://www.w3.org/2000/svg" xmlns:xlink="http://www.w3.org/1999/xlink" x="0px" y="0px"
	 viewBox="0 0 500 500" style="enable-background:new 0 0 500 500;" xml:space="preserve">
<radialGradient id="SVGID_1_" cx="135.8969" cy="99.7802" r="257.1211" gradientUnits="userSpaceOnUse">
	<stop  offset="0" style="stop-color:#21FFE3"/>
	<stop  offset="1" style="stop-color:#8549DF"/>
</radialGradient>
<circle style="fill:url(#SVGID_1_);" cx="249.58" cy="246.694" r="238.185"/>
<linearGradient id="SVGID_2_" gradientUnits="userSpaceOnUse" x1="266.3158" y1="441.6717" x2="252.324" y2="144.3468">
	<stop  offset="0" style="stop-color:#21FFE3"/>
	<stop  offset="1" style="stop-color:#8549DF"/>
</linearGradient>
<ellipse style="fill:url(#SVGID_2_);" cx="258.608" cy="277.884" rx="174.556" ry="163.529"/>
<radialGradient id="SVGID_3_" cx="251.2309" cy="311.5679" r="222.862" gradientUnits="userSpaceOnUse">
	<stop  offset="0" style="stop-color:#21FFE3"/>
	<stop  offset="0.1916" style="stop-color:#23FCE3;stop-opacity:0.8084"/>
	<stop  offset="0.3419" style="stop-color:#28F2E3;stop-opacity:0.6581"/>
	<stop  offset="0.478" style="stop-color:#31E1E2;stop-opacity:0.522"/>
	<stop  offset="0.6059" style="stop-color:#3ECAE2;stop-opacity:0.3941"/>
	<stop  offset="0.728" style="stop-color:#4FACE1;stop-opacity:0.272"/>
	<stop  offset="0.8458" style="stop-color:#6386E0;stop-opacity:0.1542"/>
	<stop  offset="0.958" style="stop-color:#7B5BDF;stop-opacity:0.042"/>
	<stop  offset="1" style="stop-color:#8549DF;stop-opacity:0"/>
</radialGradient>
<ellipse style="fill:url(#SVGID_3_);" cx="251.231" cy="311.568" rx="188.457" ry="176.551"/>
<g>
	<linearGradient id="SVGID_4_" gradientUnits="userSpaceOnUse" x1="88.819" y1="132.9023" x2="393.7107" y2="312.1099">
		<stop  offset="0" style="stop-color:#21FFE3"/>
		<stop  offset="1" style="stop-color:#F8FFFB"/>
	</linearGradient>
	<path style="fill:url(#SVGID_4_);" d="M198.424,409.979c-0.861-0.092-21.21-2.328-31.789-8.374
		c-1.801-1.029-44.309-25.558-61.298-56.138c-14.323-25.783-38.582-72.356-40.115-94.601c-1.395-20.221-0.298-63.519,6.851-77.816
		c0.498-0.995,1.113-2.357,1.892-4.083c4.663-10.331,14.367-31.827,33.634-50.812c23.881-23.531,54.51-35.491,91.036-35.547
		c0.241-0.003,26.586-0.328,56.224-0.328c17.412,0,32.54,0.11,44.963,0.329c39.447,0.692,70.959,4.028,85.957,6.675l2.585,0.451
		c10.514,1.821,14.448,2.503,15.298,10.158c0.729,6.557,6.583,54.132,6.643,54.612l0.157,1.283l-36.341,22.064h39.049l3.85,73.116
		l-42.438,30.986h38.317l-13.101,77.84l-72.84,41.301L198.6,409.998L198.424,409.979z"/>
	<path style="fill:#692CC2;" d="M254.859,84.28c14.987,0,30.898,0.082,44.928,0.328c42.084,0.738,73.093,4.43,85.645,6.645
		c12.551,2.215,15.505,2.215,16.243,8.86c0.738,6.645,6.645,54.635,6.645,54.635l-41.346,25.103h44.299l3.692,70.14l-46.514,33.962
		h42.084l-12.551,74.57l-71.617,40.607l-127.728,8.86c0,0-20.673-2.215-31.009-8.121c-10.336-5.907-45.776-28.794-60.542-55.374
		c-14.766-26.579-38.392-72.355-39.869-93.766c-1.477-21.411,0-63.495,6.645-76.785c6.645-13.29,33.223-89.196,124.775-89.336
		C198.637,84.608,224.891,84.28,254.859,84.28 M254.859,80.28c-29.65,0-56.009,0.325-56.271,0.328
		c-37.025,0.056-68.125,12.21-92.393,36.122c-19.533,19.247-29.34,40.973-34.053,51.414c-0.739,1.638-1.378,3.052-1.857,4.011
		c-7.311,14.623-8.466,58.432-7.058,78.849c1.561,22.63,25.959,69.506,40.363,95.433c17.256,31.062,60.233,55.863,62.054,56.904
		c10.937,6.25,31.69,8.532,32.568,8.626l0.351,0.038l0.352-0.024l127.728-8.86l0.906-0.063l0.79-0.448l71.617-40.607l1.656-0.939
		l0.316-1.877l12.551-74.57l0.785-4.664h-4.73h-29.823l36.611-26.732l1.75-1.277l-0.114-2.163l-3.692-70.14l-0.199-3.79h-3.795
		h-30.003l29.126-17.684l2.21-1.342l-0.316-2.566c-0.059-0.48-5.912-48.043-6.639-54.588c-1.016-9.148-6.339-10.07-16.944-11.907
		c-0.811-0.141-1.67-0.289-2.579-0.45c-15.069-2.659-46.705-6.011-86.27-6.705C287.423,80.391,272.283,80.28,254.859,80.28
		L254.859,80.28z"/>
</g>
<path style="fill:#FFFFFF;" d="M69.414,250.894c0,0,2,26.001,12.667,50.002s36.716,61.958,46.002,72.003
	c13.82,14.948,40.672,32.466,57.339,34.466c16.667,2,62.22-1.175,72.533-1.319c6.7-0.094,61.077-5.583,68.411-6.916
	c7.334-1.333,69.866-37.136,71.617-40.607c1.432-2.839,2.227-13.228,2.227-13.228l-50.942,11.726l-153.463,7.252
	c-5.024,0.202-12.501-0.624-18.409-1.136c-7.436-0.645-14.546-2.046-23.182-4.773c-9.257-2.923-20.839-8.909-30.296-16.083
	c-13.304-10.093-29.256-25.941-38.501-48.718C79.545,279.101,69.414,250.894,69.414,250.894z"/>
<linearGradient id="SVGID_5_" gradientUnits="userSpaceOnUse" x1="143.2636" y1="164.3141" x2="400.1972" y2="164.3141">
	<stop  offset="0" style="stop-color:#692CC2"/>
	<stop  offset="0.5189" style="stop-color:#3E5BDE"/>
	<stop  offset="1" style="stop-color:#229EE7"/>
</linearGradient>
<path style="fill:url(#SVGID_5_);" d="M143.264,180.589l18.458-25.103c0,0-0.738-6.645,33.962-7.383s204.513,5.168,204.513,5.168
	l-34.701,27.318H143.264z"/>
<linearGradient id="SVGID_6_" gradientUnits="userSpaceOnUse" x1="143.2636" y1="270.2943" x2="406.1037" y2="270.2943">
	<stop  offset="0" style="stop-color:#692CC2"/>
	<stop  offset="0.5189" style="stop-color:#3E5BDE"/>
	<stop  offset="1" style="stop-color:#229EE7"/>
</linearGradient>
<path style="fill:url(#SVGID_6_);" d="M406.104,250.729l-43.561,33.224l-192.7,5.907c0,0-16.981-14.028-19.935-19.565
	c-2.953-5.537-6.645-12.921-6.645-12.921s200.822-1.477,220.018-2.215C382.478,254.42,406.104,250.729,406.104,250.729z"/>
<linearGradient id="SVGID_7_" gradientUnits="userSpaceOnUse" x1="114.4693" y1="373.2892" x2="383.9543" y2="373.2892">
	<stop  offset="0" style="stop-color:#677CF4"/>
	<stop  offset="0.2764" style="stop-color:#374CD7"/>
	<stop  offset="0.3631" style="stop-color:#3752D8"/>
	<stop  offset="0.4747" style="stop-color:#3562DB"/>
	<stop  offset="0.5999" style="stop-color:#337CE1"/>
	<stop  offset="0.7351" style="stop-color:#30A1E9"/>
	<stop  offset="0.8766" style="stop-color:#2DD0F2"/>
	<stop  offset="1" style="stop-color:#29FFFC"/>
</linearGradient>
<path style="fill:url(#SVGID_7_);" d="M383.954,360.738c0,0-56.112,33.224-60.542,34.701c-4.43,1.477-111.318,8.857-121.822,8.86
	c-13.55,0.003-30.271-4.43-41.346-12.551c-11.075-8.121-28.056-24.364-31.748-31.009c-3.692-6.645-14.028-18.458-14.028-18.458
	s25.103,16.243,42.822,21.411c17.72,5.168,55.061,3.998,72.043,3.26S383.954,360.738,383.954,360.738z"/>
<path style="fill:#FFFFFF;" d="M363.114,67.733c0,0-39.384-11.815-64.702-11.252c-25.318,0.563-57.95,2.813-74.829,8.439
	s-23.63,9.002-23.63,9.002s10.69,12.94,9.565,25.318c-1.125,12.378-13.503,27.006-28.131,30.944
	c-14.628,3.938-29.256,6.189-40.509,3.938c-11.253-2.25-37.133-16.879-37.133-16.879l-19.692-14.066
	c0,0,19.692-27.006,52.324-42.759s65.827-29.256,107.461-29.256s71.453,9.565,88.895,18.004
	C350.173,57.606,363.114,67.733,363.114,67.733z"/>
<linearGradient id="SVGID_8_" gradientUnits="userSpaceOnUse" x1="81.3035" y1="144.6819" x2="35.6017" y2="261.0137">
	<stop  offset="0" style="stop-color:#F8FFFB"/>
	<stop  offset="1" style="stop-color:#F8FFFB;stop-opacity:0"/>
</linearGradient>
<path style="fill:url(#SVGID_8_);" d="M84.052,103.178c0,0-14.979,18.958-18.778,27.314c-3.799,8.357-16.334,32.667-18.613,56.598
	c-2.279,23.931-2.659,42.477,0,55.046c2.659,12.568,7.217,30.042,7.217,30.042s15.574-64.195,17.853-79.769
	c2.279-15.574,13.295-48.621,22.791-60.017s18.233-25.07,18.233-25.07L84.052,103.178z"/>
<linearGradient id="SVGID_9_" gradientUnits="userSpaceOnUse" x1="102.051" y1="150.9946" x2="94.4292" y2="255.5219">
	<stop  offset="0" style="stop-color:#F8FFFB"/>
	<stop  offset="1" style="stop-color:#F8FFFB;stop-opacity:0"/>
</linearGradient>
<path style="fill:url(#SVGID_9_);" d="M112.755,107.321c0,0-16.609,21.682-20.191,27.695s-18.403,29.775-19.314,41.818
	c-0.911,12.043-3.419,37.605-3.419,37.605s26.59-47.861,33.807-56.218c7.217-8.357,28.109-36.086,28.109-36.086L112.755,107.321z"/>
</svg>
