<?xml version="1.0" encoding="iso-8859-1"?>
<!-- Generator: Adobe Illustrator 19.0.0, SVG Export Plug-In . SVG Version: 6.00 Build 0)  -->
<svg version="1.1" id="Layer_1" xmlns="http://www.w3.org/2000/svg" xmlns:xlink="http://www.w3.org/1999/xlink" x="0px" y="0px"
	 viewBox="0 0 500 500" style="enable-background:new 0 0 500 500;" xml:space="preserve">
<polygon id="eos_1_" style="fill:#FFFFFF;" points="251.123,21.683 355.111,162.159 402.73,382.794 251.123,476.444 99.556,382.794 
	147.175,154.222 "/>
<path id="eos" d="M252.813,7.906c2.1,2.036,4.543,3.821,6.249,6.146c33.162,45.198,66.261,90.441,99.267,135.752
	c1.776,2.439,3.184,5.428,3.831,8.366c16.332,74.184,32.541,148.394,48.761,222.602c1.358,6.212,0.614,7.813-4.766,11.186
	c-50.524,31.664-101.042,63.338-151.552,95.024c-0.352,0.221-0.571,0.654-0.852,0.988c-1.875,0-3.751,0-5.626,0
	c-0.826-0.657-1.598-1.4-2.486-1.958c-50.37-31.613-100.722-63.256-151.179-94.731c-4.52-2.819-4.335-6.49-3.467-10.53
	c4.323-20.128,8.776-40.228,13.179-60.339c11.74-53.628,23.428-107.268,35.322-160.863c0.846-3.812,2.622-7.703,4.92-10.863
	c32.688-44.96,65.523-89.813,98.404-134.632c1.706-2.325,4.147-4.112,6.246-6.149C250.313,7.906,251.563,7.906,252.813,7.906z
	 M184.452,246.805c13.814,43.555,27.562,86.903,41.234,130.01c17.332,0,33.984,0,50.887,0
	c13.773-43.443,27.479-86.674,41.22-130.017c-22.157-38.956-44.265-77.826-66.853-117.541
	C228.536,168.868,206.597,207.653,184.452,246.805z M345.924,157.905c-28.872-39.521-57.752-79.054-86.632-118.586
	c-0.915,24.095-0.948,47.666-0.84,71.235c0.007,1.58,0.89,3.268,1.704,4.715c20.359,36.154,40.761,72.283,61.171,108.408
	c0.639,1.13,1.435,2.172,2.52,3.798C331.322,203.924,338.576,181.064,345.924,157.905z M178.015,227.029
	c0.83-1.058,1.272-1.495,1.567-2.016c20.939-36.921,41.881-73.841,62.743-110.805c0.791-1.402,1.125-3.242,1.131-4.879
	c0.072-22.338,0.05-44.676,0.041-67.014c0-0.872-0.111-1.744-0.256-3.895c-29.553,40.458-58.403,79.955-87.289,119.5
	C163.297,180.931,170.572,203.715,178.015,227.029z M391.273,376.891c-21.422-37.797-42.38-74.776-63.855-112.666
	c-12.078,38.163-23.802,75.206-35.658,112.666C325.116,376.891,357.676,376.891,391.273,376.891z M174.453,264.597
	c-21.601,38.124-42.536,75.07-63.768,112.543c33.487,0,66.152,0,99.399,0C198.257,339.784,186.557,302.828,174.453,264.597z
	 M264.292,463.423c38.22-23.972,75.197-47.164,112.175-70.357c-0.151-0.308-0.302-0.615-0.453-0.923c-29.625,0-59.251,0-89.219,0
	C279.412,415.528,272.067,438.795,264.292,463.423z M236.195,462.529c0.308-0.199,0.616-0.398,0.925-0.596
	c-7.347-23.26-14.695-46.519-21.955-69.505c-30.185,0-59.811,0-90.759,0C162.462,416.293,199.328,439.411,236.195,462.529z
	 M149.463,186.724c-0.309-0.013-0.618-0.026-0.926-0.039c-10.866,49.676-21.731,99.353-32.597,149.029
	c0.267,0.099,0.534,0.198,0.802,0.297c17.136-30.235,34.272-60.469,51.401-90.693C161.855,225.597,155.659,206.16,149.463,186.724z
	 M333.73,244.967c17.304,30.508,34.305,60.482,51.306,90.456c0.278-0.136,0.557-0.272,0.835-0.407
	c-10.836-49.519-21.672-99.039-32.508-148.558c-0.34,0.031-0.68,0.063-1.02,0.094C346.149,205.992,339.955,225.432,333.73,244.967z
	 M250.341,454.49c0.398,0.009,0.796,0.018,1.195,0.027c6.633-20.648,13.267-41.296,20.002-62.26c-13.856,0-27.02,0-40.832,0
	C237.357,413.337,243.849,433.914,250.341,454.49z"/>
</svg>
