<?xml version="1.0" encoding="utf-8"?>
<!-- Generator: Adobe Illustrator 23.0.3, SVG Export Plug-In . SVG Version: 6.00 Build 0)  -->
<svg version="1.1" id="eosdac" xmlns:serif="http://www.serif.com/"
	 xmlns="http://www.w3.org/2000/svg" xmlns:xlink="http://www.w3.org/1999/xlink" x="0px" y="0px" viewBox="0 0 500 500"
	 style="enable-background:new 0 0 500 500;" xml:space="preserve">
<style type="text/css">
	.st0{fill-rule:evenodd;clip-rule:evenodd;}
</style>
<path id="Shape_2_copy_9" class="st0" d="M313.6,3.2l-51.8,33.6l-9.5,107.8l72.3-80.8C324.6,63.9,313.6,3.2,313.6,3.2z"/>
<path id="Shape_2" class="st0" d="M175.3,64.4l6,108.1l50.7,35.1l12.9-60.4L175.3,64.4L175.3,64.4z"/>
<path id="Shape_2_copy" class="st0" d="M255.7,146.7l11,60.7l51.8-33.6L328,66L255.7,146.7L255.7,146.7z"/>
<path id="Shape_2_copy_2" class="st0" d="M326.5,180.9l-35.1,50.6l60.4,12.9l82.8-69.4L326.5,180.9z"/>
<path id="Shape_2_copy_3" class="st0" d="M352.4,255.4l-60.7,11l33.6,51.8l107.8,9.5L352.4,255.4L352.4,255.4z"/>
<path id="Shape_2_copy_4" class="st0" d="M318.2,326.3l-50.6-35.1l-12.9,60.3l69.4,82.8L318.2,326.3L318.2,326.3z"/>
<path id="Shape_2_copy_5" class="st0" d="M233.1,291.9l-51.9,33.6l-9.5,107.8l72.3-80.7L233.1,291.9L233.1,291.9z"/>
<path id="Shape_2_copy_6" class="st0" d="M147.5,254.5l-82.8,69.4l108.1-5.9l35.1-50.6L147.5,254.5L147.5,254.5z"/>
<path id="Shape_2_copy_7" class="st0" d="M174,180.6l-107.8-9.5l80.7,72.3l60.7-11C207.6,232.5,174,180.6,174,180.6z"/>
<path id="Shape_2_copy_15" class="st0" d="M64.1,174.5l-60.7,11l33.6,51.9l107.8,9.5C144.9,246.8,64.1,174.5,64.1,174.5z"/>
<path id="Shape_2_copy_8" class="st0" d="M171.4,65.3l-50.7-35.2l-12.9,60.4l69.5,82.9L171.4,65.3z"/>
<path id="Shape_2_copy_10" class="st0" d="M408.5,107.8l-82.8,69.4l108.1-6l35.1-50.6L408.5,107.8L408.5,107.8z"/>
<path id="Shape_2_copy_11" class="st0" d="M462.2,261.6l-107.8-9.5l80.7,72.3l60.7-11L462.2,261.6z"/>
<path id="Shape_2_copy_12" class="st0" d="M321.9,325.5l6,108.1l50.6,35.1l12.9-60.3L321.9,325.5L321.9,325.5z"/>
<path id="Shape_2_copy_13" class="st0" d="M174.7,435l11,60.7l51.9-33.6l9.5-107.8L174.7,435z"/>
<path id="Shape_2_copy_14" class="st0" d="M65.5,327.6l-35.1,50.6l60.4,12.9l82.8-69.4L65.5,327.6L65.5,327.6z"/>
<path id="Shape_2_copy_16" class="st0" d="M93.5,392.8l74.9,39.6l9.1-109.1C177.4,323.3,93.5,392.8,93.5,392.8z"/>
<path id="Shape_2_copy_17" class="st0" d="M37.8,240.4l25,80.9l83.6-70.7L37.8,240.4L37.8,240.4z"/>
<path id="Shape_2_copy_18" class="st0" d="M106.3,93.2L66.8,168l109,9.2C175.9,177.2,106.3,93.2,106.3,93.2z"/>
<path id="Shape_2_copy_19" class="st0" d="M177.9,62.5l70.6,83.7l10.2-108.6L177.9,62.5z"/>
<path id="Shape_2_copy_20" class="st0" d="M331.1,66.6l-9.2,109.1l84-69.6L331.1,66.6L331.1,66.6z"/>
<path id="Shape_2_copy_21" class="st0" d="M436.6,177.7l-83.7,70.6l108.6,10.1C461.6,258.5,436.6,177.7,436.6,177.7z"/>
<path id="Shape_2_copy_22" class="st0" d="M323.4,321.7l69.6,84l39.5-74.8L323.4,321.7z"/>
<path id="Shape_2_copy_23" class="st0" d="M250.8,352.7l-10.1,108.6l80.8-24.9L250.8,352.7L250.8,352.7z"/>
</svg>
