<svg width="24" height="24" viewBox="0 0 24 24" fill="currentColor" xmlns="http://www.w3.org/2000/svg">
<path d="M8.0777 11.0587H9.53112C9.74176 11.0587 9.89974 11.2378 9.89974 11.4484C9.89974 11.6591 9.74176 11.8381 9.53112 11.8381H7.64589C7.40365 11.8381 7.21407 11.6485 7.21407 11.4168V8.89967C7.21407 8.66796 7.40365 8.47839 7.64589 8.47839H9.53112C9.74176 8.47839 9.89974 8.65743 9.89974 8.86807C9.89974 9.07871 9.74176 9.25776 9.53112 9.25776H8.0777V9.77383H9.26782C9.47846 9.77383 9.63644 9.95287 9.63644 10.1635C9.63644 10.3742 9.47846 10.5532 9.26782 10.5532H8.0777V11.0903V11.0587Z" />
<path d="M11.2374 11.4589C11.2374 11.6906 11.0373 11.8802 10.8056 11.8802C10.5739 11.8802 10.3738 11.6906 10.3738 11.4589V8.88906C10.3738 8.64682 10.5634 8.46778 10.8056 8.46778H11.9536C12.2801 8.46778 12.5961 8.5415 12.8172 8.71001C13.07 8.91012 13.2069 9.23662 13.2069 9.5947C13.2069 9.8896 13.1016 10.1845 12.8383 10.4267C12.7962 10.4689 12.754 10.5005 12.7014 10.5321L13.1437 11.2377C13.1859 11.3009 13.2069 11.3746 13.2069 11.4483C13.2069 11.68 13.0068 11.8907 12.7646 11.8907C12.6171 11.8907 12.4802 11.817 12.396 11.6906L11.8272 10.7427H11.2269V11.4694L11.2374 11.4589ZM11.2374 9.20502V10.0055H11.8799C11.9852 10.0055 12.0905 9.98439 12.1643 9.93173C12.259 9.86854 12.3222 9.76322 12.3222 9.60524C12.3222 9.44726 12.2696 9.35247 12.1853 9.28928C12.1011 9.22608 11.9957 9.20502 11.8904 9.20502H11.2374Z"/>
<path d="M16.0922 9.32094C15.9869 9.32094 15.9026 9.27882 15.7657 9.24722C15.6814 9.22615 15.5761 9.20509 15.4287 9.20509C14.9442 9.20509 14.5334 9.59478 14.5334 10.153C14.5334 10.7112 14.9126 11.0903 15.4287 11.0903C15.5761 11.0903 15.692 11.0693 15.7868 11.0482C15.9447 11.0061 16.0501 10.9639 16.1554 10.9639C16.3765 10.9639 16.5556 11.1325 16.5556 11.3642C16.5556 11.5537 16.3976 11.6907 16.2291 11.7538C16.0079 11.8381 15.7341 11.8802 15.4392 11.8802C14.386 11.8802 13.6277 11.2167 13.6277 10.153C13.6277 9.15243 14.4808 8.42572 15.4497 8.42572C15.7552 8.42572 15.9658 8.45732 16.187 8.53104C16.3765 8.59423 16.5029 8.72062 16.5029 8.92073C16.5029 9.15243 16.3239 9.32094 16.1027 9.32094H16.0922Z"/>
<path d="M11.1842 15.6192C11.3844 15.6192 11.5529 15.7877 11.5529 15.9984C11.5529 16.209 11.3949 16.3775 11.1842 16.3775H9.52018C9.32007 16.3775 9.16209 16.2301 9.16209 15.9878C9.16209 15.5034 9.27794 15.1874 9.56231 14.9136C9.90987 14.5871 10.3311 14.5028 10.5839 14.2606C10.6682 14.1868 10.6998 14.0921 10.6998 13.9762C10.6998 13.913 10.6998 13.8288 10.6155 13.7656C10.5629 13.7129 10.4786 13.6918 10.3522 13.6918C10.2048 13.6918 10.0889 13.7445 9.98359 13.7972C9.84667 13.8814 9.74135 13.9762 9.58337 13.9762C9.37273 13.9762 9.20422 13.8393 9.20422 13.5971C9.20422 13.3759 9.3938 13.2284 9.63603 13.1231C9.89933 13.0073 10.1205 12.9651 10.4259 12.9651C10.784 12.9651 11.0789 13.0915 11.2685 13.3022C11.4265 13.4707 11.5107 13.6918 11.5107 13.9446C11.5107 14.25 11.4054 14.5028 11.1948 14.7029C10.8683 15.0294 10.4997 15.1031 10.2469 15.3138C10.1416 15.398 10.0889 15.4928 10.0889 15.6192H11.1842Z" />
<path d="M13.3224 16.4197C12.4904 16.4197 12.0375 15.8299 12.0375 14.6924C12.0375 13.5549 12.4904 12.9651 13.3224 12.9651C14.1545 12.9651 14.6073 13.5549 14.6073 14.6924C14.6073 15.8299 14.1545 16.4197 13.3224 16.4197ZM13.6279 13.9657C13.5541 13.8288 13.4594 13.755 13.3224 13.755C13.1855 13.755 13.0907 13.8288 13.017 13.9657C12.9328 14.1237 12.8906 14.3764 12.8906 14.6924C12.8906 15.0084 12.9328 15.2611 13.017 15.4191C13.0907 15.556 13.1855 15.6192 13.3224 15.6192C13.4594 15.6192 13.5647 15.5455 13.6279 15.4191C13.7121 15.2611 13.7437 15.0189 13.7437 14.6924C13.7437 14.3659 13.7121 14.1237 13.6279 13.9657Z" />
<path fill-rule="evenodd" clip-rule="evenodd" d="M19.2484 11.885C19.2484 7.81819 15.9516 4.52137 11.8848 4.52137C7.81794 4.52137 4.52113 7.81819 4.52113 11.885C4.52113 15.9518 7.81794 19.2486 11.8848 19.2486C15.9516 19.2486 19.2484 15.9518 19.2484 11.885ZM11.8848 2.88501C16.8553 2.88501 20.8848 6.91445 20.8848 11.885C20.8848 16.8556 16.8553 20.885 11.8848 20.885C6.9142 20.885 2.88477 16.8556 2.88477 11.885C2.88477 6.91445 6.9142 2.88501 11.8848 2.88501Z" />
</svg>
