<?xml version="1.0" encoding="utf-8"?>
<!-- Generator: Adobe Illustrator 24.2.0, SVG Export Plug-In . SVG Version: 6.00 Build 0)  -->
<svg version="1.1" id="Layer_1" xmlns="http://www.w3.org/2000/svg" xmlns:xlink="http://www.w3.org/1999/xlink" x="0px" y="0px"
	 viewBox="0 0 500 500" style="enable-background:new 0 0 500 500;" xml:space="preserve">
<style type="text/css">
	.st0{fill-rule:evenodd;clip-rule:evenodd;}
</style>
<path id="Path_3_" class="st0" d="M398.7,100.8c-2-2-3.1-4.1-3.1-6.6s1-4.6,3.1-6.6c4.1-3.6,10.2-3.6,14.3,0c2,2,3.1,4.1,3.1,6.6
	s-1,4.6-3.1,6.6c-2,1.5-4.6,2.5-7.1,2.5C403.3,103.8,400.7,102.8,398.7,100.8"/>
<path class="st0" d="M373.8,127.3c-1.5-2-2.5-4.1-2.5-6.6s1-4.6,2.5-6.6c3.6-3.6,9.7-3.6,13.2,0c1.5,2,2.5,4.1,2.5,6.6
	s-1,4.6-2.5,6.6c-2,1.5-4.1,2.5-6.6,2.5S375.8,128.8,373.8,127.3"/>
<path class="st0" d="M346.8,153.2c-1.5-1.5-2.5-4.1-2.5-6.6c0-2.5,1-4.6,2.5-6.6c3.6-3.6,9.7-3.6,13.2,0c1.5,1.5,2.5,4.1,2.5,6.6
	c0,2.5-1,4.6-2.5,6.6c-2,2-4.1,2.5-6.6,2.5S348.3,154.8,346.8,153.2"/>
<path class="st0" d="M320.8,179.2c-2-1.5-3.1-4.1-3.1-6.6c0-2.5,1-4.6,3.1-6.6c4.1-3.6,10.2-3.6,14.3,0c2,1.5,3.1,4.1,3.1,6.6
	c0,2.5-1,5.1-3.1,6.6c-2,2-4.6,2.5-7.1,2.5S322.8,181.2,320.8,179.2"/>
<path class="st0" d="M295.9,205.2c-2-1.5-2.5-4.1-2.5-6.6s1-4.6,2.5-6.6c3.6-3.6,9.7-3.6,13.2,0c2,1.5,2.5,4.1,2.5,6.6
	s-1,5.1-2.5,6.6c-1.5,2-4.1,2.5-6.6,2.5C299.9,208.2,297.4,207.2,295.9,205.2"/>
<path class="st0" d="M265.8,224.5c0-2.5,1-4.6,2.5-6.6c3.6-3.6,9.7-3.6,13.2,0c2,2,2.5,4.1,2.5,6.6s-1,4.6-2.5,6.6
	c-1.5,1.5-4.1,2.5-6.6,2.5s-4.6-1-6.6-2.5C266.8,229.6,265.8,227.1,265.8,224.5z"/>
<path class="st0" d="M217.4,282.1c-1.5-1.5-2.5-4.1-2.5-6.6s1-4.6,2.5-6.6c3.6-3.6,9.7-3.6,13.2,0c2,2,2.5,4.1,2.5,6.6
	s-1,4.6-2.5,6.6c-1.5,2-4.1,2.5-6.6,2.5C221.5,285.1,219.5,284.1,217.4,282.1"/>
<path class="st0" d="M190.4,308c-2-1.5-3.1-4.1-3.1-6.6c0-2.5,1-4.6,3.1-6.6c4.1-3.6,10.2-3.6,14.3,0c2,2,3.1,4.1,3.1,6.6
	c0,2.5-1,4.6-3.1,6.6c-2,2-4.6,2.5-7.1,2.5C195,311.1,192.5,310.1,190.4,308"/>
<path class="st0" d="M165.5,334.5c-1.5-1.5-2.5-4.1-2.5-6.6s1-5.1,2.5-6.6c3.6-3.6,9.7-3.6,13.2,0c1.5,1.5,2.5,4.1,2.5,6.6
	s-1,4.6-2.5,6.6c-2,2-4.1,2.5-6.6,2.5S167.5,336,165.5,334.5"/>
<path class="st0" d="M139.5,360.5c-2-1.5-2.5-4.1-2.5-6.6s1-4.6,2.5-6.6c3.6-3.6,9.7-3.6,13.2,0c1.5,2,2.5,4.1,2.5,6.6
	s-1,5.1-2.5,6.6c-2,2-4.1,2.5-6.6,2.5C143.6,363,141.1,362.5,139.5,360.5"/>
<path class="st0" d="M112.5,386.5c-2-1.5-3.1-4.1-3.1-6.6c0-2.5,1-4.6,3.1-6.6c4.1-3.6,10.2-3.6,13.7,0c2,2,3.1,4.1,3.1,6.6
	c0,2.5-1,5.1-3.1,6.6s-4.6,2.5-7.1,2.5S114.1,388.5,112.5,386.5"/>
<path class="st0" d="M87.1,412.4c-2-2-2.5-4.1-2.5-6.6s1-4.6,2.5-6.6c3.6-3.6,9.7-3.6,13.2,0c2,2,2.5,4.1,2.5,6.6s-1,4.6-2.5,6.6
	c-1.5,1.5-4.1,2.5-6.6,2.5C91.7,415.5,89.1,414.5,87.1,412.4"/>
<path class="st0" d="M100.3,100.8c1.5-2,2.5-4.1,2.5-6.6s-1-4.6-2.5-6.6c-3.6-3.6-9.7-3.6-13.2,0c-2,2-2.5,4.1-2.5,6.6
	s1,4.6,2.5,6.6c1.5,1.5,4.1,2.5,6.6,2.5C96.2,103.8,98.8,102.8,100.3,100.8"/>
<path class="st0" d="M126.3,127.3c2-2,3.1-4.1,3.1-6.6s-1-4.6-3.1-6.6c-4.1-3.6-10.2-3.6-14.3,0c-2,2-3.1,4.1-3.1,6.6s1,4.6,3.1,6.6
	c2,1.5,4.6,2.5,7.1,2.5S124.2,128.8,126.3,127.3"/>
<path class="st0" d="M152.8,153.2c1.5-1.5,2.5-4.1,2.5-6.6c0-2.5-1-4.6-2.5-6.6c-3.6-3.6-9.7-3.6-13.2,0c-1.5,1.5-2.5,4.1-2.5,6.6
	c0,2.5,1,4.6,2.5,6.6c2,2,4.1,2.5,6.6,2.5C148.2,155.8,150.7,154.8,152.8,153.2"/>
<path class="st0" d="M178.7,179.2c1.5-1.5,2.5-4.1,2.5-6.6c0-2.5-1-4.6-2.5-6.6c-3.6-3.6-9.7-3.6-13.2,0c-1.5,1.5-2.5,4.1-2.5,6.6
	c0,2.5,1,5.1,2.5,6.6c2,2,4.1,2.5,6.6,2.5C174.1,181.8,176.7,181.2,178.7,179.2"/>
<path class="st0" d="M204.2,205.2c2-1.5,3.1-4.1,3.1-6.6s-1-4.6-3.1-6.6c-3.6-3.6-10.2-3.6-13.7,0c-2,1.5-3.1,4.1-3.1,6.6
	s1,5.1,3.1,6.6c2,2,4.6,2.5,7.1,2.5C200.1,208.2,202.7,207.2,204.2,205.2"/>
<path class="st0" d="M233.2,224.5c0-2.5-1-4.6-2.5-6.6c-3.6-3.6-9.7-3.6-13.2,0c-2,2-2.5,4.1-2.5,6.6s1,4.6,2.5,6.6
	c1.5,1.5,4.1,2.5,6.6,2.5c2.5,0,4.6-1,6.6-2.5C232.7,229.6,233.2,227.1,233.2,224.5z"/>
<path class="st0" d="M256.6,257.6c2-2,2.5-4.1,2.5-6.6s-1-4.6-2.5-6.6c-3.6-3.6-9.7-3.6-13.2,0c-2,2-2.5,4.1-2.5,6.6s1,4.6,2.5,6.6
	c1.5,1.5,4.1,2.5,6.6,2.5S255.1,259.2,256.6,257.6"/>
<path class="st0" d="M282.6,282.1c2-1.5,3.1-4.1,3.1-6.6s-1-4.6-3.1-6.6c-4.1-3.6-10.2-3.6-13.7,0c-2,2-3.1,4.1-3.1,6.6
	s1,4.6,3.1,6.6c2,2,4.6,2.5,7.1,2.5C278,285.1,280.6,284.1,282.6,282.1"/>
<path class="st0" d="M309.1,308c1.5-1.5,2.5-4.1,2.5-6.6c0-2.5-1-4.6-2.5-6.6c-3.6-3.6-9.7-3.6-13.2,0c-1.5,2-2.5,4.1-2.5,6.6
	c0,2.5,1,4.6,2.5,6.6c2,2,4.1,2.5,6.6,2.5C304.5,311.1,307.1,310.1,309.1,308"/>
<path class="st0" d="M335.1,334.5c1.5-1.5,2.5-4.1,2.5-6.6s-1-5.1-2.5-6.6c-3.6-3.6-9.7-3.6-13.2,0c-1.5,1.5-2.5,4.1-2.5,6.6
	s1,4.6,2.5,6.6c2,2,4.1,2.5,6.6,2.5S333,336,335.1,334.5"/>
<path class="st0" d="M359.5,360.5c2-1.5,2.5-4.1,2.5-6.6s-1-4.6-2.5-6.6c-3.6-3.6-9.7-3.6-13.2,0c-1.5,2-2.5,4.1-2.5,6.6
	s1,5.1,2.5,6.6c2,2,4.1,2.5,6.6,2.5C355.4,363,358,362.5,359.5,360.5"/>
<path class="st0" d="M387,386.5c2-1.5,2.5-4.1,2.5-6.6c0-2.5-1-4.6-2.5-6.6c-3.6-3.6-9.7-3.6-13.2,0c-2,2-2.5,4.1-2.5,6.6
	c0,2.5,1,5.1,2.5,6.6c1.5,1.5,4.1,2.5,6.6,2.5S385.5,388.5,387,386.5"/>
<path class="st0" d="M413,412.4c2-2,3.1-4.1,3.1-6.6s-1-4.6-3.1-6.6c-4.1-3.6-10.2-3.6-13.7,0c-2,2-3.1,4.1-3.1,6.6s1,4.6,3.1,6.6
	c2,1.5,4.6,2.5,7.1,2.5C408.4,415.5,410.9,414.5,413,412.4"/>
<path id="Fill-9_1_" class="st0" d="M161.9,107.9c26.5-17.3,55.5-25.5,87.6-26c31.6,0,60.6,8.7,87.6,26l56-56
	C349.3,18.8,302,2,249.5,2S149.2,18.8,106.4,51.9L161.9,107.9z"/>
<path id="Fill-10_1_" class="st0" d="M105.9,337.6c-17.8-27-26.5-56-26.5-87.1c0-31.6,8.7-60.6,26.5-87.1l-55.5-55.5
	C17.8,150.7,1.5,198,1.5,251c0,51.9,16.3,99.8,49.4,143.1L105.9,337.6z"/>
<path id="Fill-11_1_" class="st0" d="M337.1,393.1c-26.5,17.8-55.5,27-87.1,27.5c-32.1,0-61.6-8.7-88.1-27l-56,55.5
	c43.3,33.6,91.1,50.4,144.1,49.9c52.4-0.5,99.8-17.3,142.6-49.9L337.1,393.1z"/>
<path id="Fill-12_1_" class="st0" d="M391.6,162.9c17.8,27,27,56.5,26.5,88.6c-0.5,31.1-9.2,59.6-26.5,85.5l56,55.5
	c33.1-42.8,49.9-90.1,49.9-142.1c0.5-53-16.3-100.8-49.9-144.1L391.6,162.9z"/>
<path id="Fill-15_1_" class="st0" d="M450.1,410.4c21.4,0,39.2,17.3,39.2,39.2c0,21.4-17.3,39.2-39.2,39.2
	c-21.4,0-39.2-17.3-39.2-39.2S428.2,410.4,450.1,410.4"/>
<path id="Fill-16_1_" class="st0" d="M49.9,410.4c21.4,0,38.7,17.3,38.7,39.2c0,21.4-17.3,39.2-38.7,39.2s-38.7-17.3-38.7-39.2
	S28.5,410.4,49.9,410.4"/>
<path id="Fill-17_1_" class="st0" d="M450.7,10.7c21.4,0,38.7,17.3,38.7,39.2S472,89.1,450.7,89.1c-21.4,0-38.7-17.3-38.7-39.2
	S429.3,10.7,450.7,10.7"/>
<path id="Fill-18_1_" class="st0" d="M49.4,10.7c21.4,0,39.2,17.3,39.2,38.7S71.3,88.1,49.4,88.1c-21.4,0-39.2-17.3-39.2-38.7
	C10.2,28,27.5,10.7,49.4,10.7"/>
</svg>
