<?xml version="1.0" encoding="utf-8"?>
<!-- Generator: Adobe Illustrator 25.2.0, SVG Export Plug-In . SVG Version: 6.00 Build 0)  -->
<svg version="1.1" id="ern" xmlns="http://www.w3.org/2000/svg" xmlns:xlink="http://www.w3.org/1999/xlink" x="0px" y="0px"
	 viewBox="0 0 500 500" style="enable-background:new 0 0 500 500;" xml:space="preserve">
<style type="text/css">
	.st0{fill:#00EAC2;}
</style>
<path class="st0" d="M359.2,361.5c-28.6,0-57.1-10.9-78.9-32.6l-15.2-15.2l17-17l15.2,15.2c34.1,34.1,89.7,34.1,123.8,0
	c16.5-16.5,25.6-38.5,25.6-61.9s-9.1-45.4-25.6-61.9c-16.5-16.5-38.5-25.6-61.9-25.6s-45.4,9.1-61.9,25.6l-15.7,15.7l-17-17
	l15.7-15.7c21.1-21.1,49.1-32.7,78.9-32.7s57.8,11.6,78.9,32.7c21.1,21.1,32.7,49.1,32.7,78.9c0,29.8-11.6,57.8-32.7,78.9
	C416.3,350.6,387.8,361.5,359.2,361.5z"/>
<path class="st0" d="M142,362.5c-26.5,0-53.4-9.9-74-27.2c-17.3-14.6-38-41.2-38-85.1c0-43.3,22.4-69.5,41.2-83.9
	c24.4-18.7,52.9-25.4,71.5-25.4c42.1,0,66,22.1,68.3,24.4l58.3,55.6l-74.8,74.8c-14.3,14.3-32.7,21.8-53.1,21.8
	c-15.5,0-31.2-5.1-43-14c-11-8.3-24-23.9-24-51.4c0-27.3,12.8-43.9,23.6-53c12.1-10.3,28.2-16.4,43-16.4c27.5,0,47.9,20.6,48.8,21.4
	l8.3,8.5l-76.6,76.6c6.1,2.7,13.1,4.1,19.9,4.1c14.2,0,26.3-5,36.2-14.8l57.5-57.5l-40.8-38.9c-0.7-0.7-18.4-17.5-51.5-17.5
	c-14,0-37.2,5.3-56.9,20.4C71.3,196.3,54,216.6,54,250.1c0,34.6,16,55.4,29.5,66.8c16,13.5,37.9,21.6,58.5,21.6
	c37.1,0,60.5-25.4,60.7-25.7l0.5-0.5l113.3-112.6c2.5-2.5,17.3-16.5,42.8-16.5c15.5,0,32,5.7,44.3,15.4
	c11.3,8.8,24.7,25.2,24.7,53.1c0,49.5-40.1,67.5-67,67.5c-18.2,0-35.7-7.4-49.1-20.8l-14.8-14.8l17-17l14.8,14.8
	c6.3,6.3,17,13.8,32.2,13.8c34,0,43-28.4,43-43.5c0-14.6-5.2-26.2-15.5-34.2c-9.7-7.6-21.6-10.3-29.5-10.3
	c-15.9,0-24.5,8.2-25.4,9.1l-0.4,0.4L220.3,329.1C216.9,332.8,188.1,362.5,142,362.5z M141,206.8c-13.9,0-42.6,11.1-42.6,45.3
	c0,8.3,1.7,15.4,5,21.4l59.7-59.7C157.3,210.3,149.5,206.8,141,206.8z"/>
</svg>
