<?xml version="1.0" encoding="iso-8859-1"?>
<!-- Generator: Adobe Illustrator 19.0.0, SVG Export Plug-In . SVG Version: 6.00 Build 0)  -->
<svg version="1.1" id="Layer_1" xmlns="http://www.w3.org/2000/svg" xmlns:xlink="http://www.w3.org/1999/xlink" x="0px" y="0px"
	 viewBox="0 0 500 500" style="enable-background:new 0 0 500 500;" xml:space="preserve">
<path style="fill:#263A4F;" d="M486.239,159.041c0,38.796,0,77.591,0,116.387c-4.799,2.21-9.601,4.412-14.396,6.63
	c-20.896,9.664-41.784,19.344-62.685,28.996c-17.718,8.181-35.452,16.328-53.175,24.497c-14.825,6.833-29.76,13.441-44.441,20.57
	c-23.404,11.364-47.837,15.31-73.466,10.793c-28.821-5.079-52.599-19.053-71.366-41.5c-2.712-3.244-5.149-6.717-7.808-10.208
	c-21.081,10.137-42.217,20.301-63.421,30.496c0.426,0.748,0.725,1.297,1.045,1.833c8.479,14.201,18.589,27.115,30.411,38.693
	c13.039,12.77,27.621,23.435,43.758,31.937c25.321,13.34,52.316,20.582,80.909,21.721c18.547,0.738,36.814-1.313,54.766-6.069
	c13.401-3.55,26.14-8.755,38.586-14.853c19.313-9.463,38.801-18.568,58.207-27.841c24.175-11.552,48.341-23.122,72.512-34.683
	c2.774-1.327,5.552-2.645,8.69-4.139c0.55,1.893,1.472,3.608,1.482,5.328c0.106,17.875,0.066,35.75,0.062,53.626
	c0,0.509-0.042,1.019-0.064,1.501c-12.784,6.151-25.47,12.255-38.156,18.359c-19.005,9.144-38.009,18.289-57.014,27.434
	c-11.081,5.332-22.058,10.894-33.262,15.953c-26.413,11.926-54.147,18.692-83.077,20.523c-2.869,0.182-5.736,0.397-8.604,0.596
	c-4.614,0-9.227,0-13.841,0c-0.775-0.092-1.548-0.241-2.325-0.267c-14.429-0.494-28.685-2.354-42.782-5.441
	c-22.793-4.99-44.427-13.101-64.872-24.332c-23.756-13.051-44.755-29.633-63.029-49.651c-17.116-18.748-30.991-39.664-41.603-62.719
	c-12.918-28.064-20.382-57.521-22.297-88.37c-0.178-2.868-0.389-5.734-0.584-8.601c0-4.718,0-9.437,0-14.155
	c0.095-0.773,0.249-1.544,0.275-2.319c0.379-11.113,1.594-22.134,3.497-33.088c4.085-23.51,11.427-45.959,22.017-67.33
	c14.893-30.054,35.094-56.001,60.575-77.823c17.293-14.81,36.298-26.963,57.001-36.42c27.227-12.437,55.783-19.662,85.679-21.512
	c2.817-0.174,5.632-0.382,8.447-0.573c4.614,0,9.227,0,13.841,0c0.775,0.092,1.549,0.2,2.326,0.273
	c9.068,0.856,18.188,1.348,27.196,2.629c25.073,3.567,48.913,11.254,71.571,22.537c26.823,13.357,50.422,31.048,70.765,53.066
	c18.325,19.835,32.973,42.092,43.97,66.752C483.154,151.849,484.681,155.452,486.239,159.041z M431.041,214.808
	c0.037-0.507,0.086-0.867,0.086-1.227c0.004-13.997,0.01-27.994-0.016-41.991c-0.001-0.653-0.177-1.359-0.463-1.948
	c-1.962-4.049-3.841-8.147-5.994-12.095c-15.645-28.691-37.183-51.935-64.741-69.521c-25.147-16.047-52.62-25.552-82.275-28.676
	c-15.656-1.65-31.281-1.215-46.858,1.142c-21.267,3.218-41.436,9.809-60.375,19.963c-37.703,20.215-65.538,49.872-83.472,88.659
	c-13.974,30.223-19.538,62.051-16.946,95.282c1.095,14.046,3.764,27.782,7.882,41.246c0.174,0.57,0.4,1.124,0.639,1.785
	c21.413-10.299,42.617-20.498,63.878-30.723c-4.663-19.905-4.51-39.607,0.689-59.228c5.214-19.675,14.765-36.975,28.702-51.806
	c13.909-14.801,30.559-25.4,49.867-31.674c50.191-16.31,99.389,3.633,125.015,33.931c-50.166,22.188-100.298,44.362-150.673,66.643
	c24.884,17.727,49.45,35.227,74.131,52.809C323.772,263.183,377.412,238.993,431.041,214.808z"/>
</svg>
