<?xml version="1.0" encoding="utf-8"?>
<!-- Generator: Adobe Illustrator 24.1.0, SVG Export Plug-In . SVG Version: 6.00 Build 0)  -->
<svg version="1.1" id="ETC" xmlns="http://www.w3.org/2000/svg" xmlns:xlink="http://www.w3.org/1999/xlink" x="0px" y="0px"
	 viewBox="0 0 500 500" style="enable-background:new 0 0 500 500;" xml:space="preserve">
<style type="text/css">
	.st0{fill:#3AB83A;}
	.st1{fill:#0B8311;}
	.st2{fill:#146714;}
</style>
<path id="path1599" class="st0" d="M95.7,272.3c54.4,28.9,111.1,59.1,155,82.5l153.7-82.5C348.7,355,302.3,423.8,250.6,500
	C198.9,424,141.7,340.1,95.7,272.3z M101.6,249.5l149.2-79.6l147.3,79.1l-147.2,79.7L101.6,249.5z M250.6,144.3l-155,81.6L250,0
	l154.4,226.4L250.6,144.3L250.6,144.3z"/>
<path id="path1593" class="st1" d="M250.6,354.8l153.7-82.5C348.7,355,250.6,500,250.6,500V354.8z M250.8,169.8l147.3,79.1
	l-147.2,79.7L250.8,169.8L250.8,169.8z M250.6,144.3L250,0l154.4,226.4L250.6,144.3z"/>
<path id="path1603" class="st1" d="M101.6,249.5l149.2,12.2L398.1,249l-147.2,79.7L101.6,249.5z"/>
<path id="path1606" class="st2" d="M250.8,261.7L398.1,249l-147.2,79.7L250.8,261.7L250.8,261.7z"/>
</svg>
