<svg width="24" height="24" viewBox="0 0 24 24" fill="none" xmlns="http://www.w3.org/2000/svg">
<path d="M6.45574 11.5354C6.45574 11.0968 6.81602 10.7366 7.25383 10.7366H8.59993C9.03849 10.7366 9.41397 11.0968 9.41397 11.5514V16.6279C9.57055 16.5808 9.75829 16.5337 9.97795 16.4866C10.2751 16.4083 10.4948 16.1422 10.4948 15.8283V9.52955C10.4948 9.09099 10.8551 8.71475 11.3088 8.71475H12.6549C13.0935 8.71475 13.469 9.07502 13.469 9.52955V15.3746C13.469 15.3746 13.7981 15.2332 14.1265 15.0926C14.3773 14.9831 14.5339 14.7483 14.5339 14.4655V7.4933C14.5339 7.05473 14.8941 6.67849 15.3327 6.67849H16.6788C17.1174 6.67849 17.4776 7.03877 17.4776 7.4933V13.2441C18.636 12.3981 19.8263 11.3796 20.7658 10.1574C21.0477 9.7971 21.126 9.32661 20.9695 8.88804C19.2471 3.93688 13.8308 1.30397 8.88343 3.02783C3.93608 4.75169 1.30621 10.1726 3.02779 15.1245C3.21552 15.6885 3.46635 16.2213 3.76354 16.7382C3.99841 17.1456 4.43697 17.3804 4.9067 17.3333C5.15753 17.3173 5.47068 17.2862 5.86136 17.239C6.20568 17.2079 6.4565 16.9099 6.4565 16.5649L6.45574 11.5354Z" fill="#21325B"/>
<path d="M6.42383 19.6835C10.6666 22.7701 16.6005 21.8299 19.6842 17.5841C20.8585 15.9545 21.5 13.9958 21.5 11.9907C21.5 11.771 21.484 11.5521 21.4688 11.3325C18.0097 16.5185 11.606 18.9469 6.42383 19.6835Z" fill="#979695"/>
</svg>
