<?xml version="1.0" encoding="iso-8859-1"?>
<!-- Generator: Adobe Illustrator 19.0.0, SVG Export Plug-In . SVG Version: 6.00 Build 0)  -->
<svg version="1.1" id="Layer_1" xmlns="http://www.w3.org/2000/svg" xmlns:xlink="http://www.w3.org/1999/xlink" x="0px" y="0px"
	 viewBox="1500 0 500 500" style="enable-background:new 1500 0 500 500;" xml:space="preserve">
<g>
	<path style="fill:#091B26;" d="M1836.763,193.475l40.863,30.935l25.797,19.52l-28.806,14.717l-57.935,29.591l19.874,13.74
		l27.805,19.22l-30.036,15.502l-184.279,95.028c30.609,16.874,65.002,25.7,99.954,25.649c114.531,0,207.377-92.846,207.377-207.377
		c0.073-48.576-16.979-95.623-48.159-132.872L1836.763,193.475z"/>
	<path style="fill:#091B26;" d="M1663.237,317.342l-40.863-30.925l-25.797-19.52l28.806-14.717l57.935-29.599l-19.874-13.74
		l-27.805-19.22l30.036-15.502l194.067-100.085c-32.9-20.58-70.936-31.467-109.743-31.412
		c-114.531,0-207.377,92.846-207.377,207.377c0,53.245,20.073,101.795,53.058,138.517L1663.237,317.342z"/>
	<path style="fill:#091B26;" d="M1583.043,401.831c-36.535-40.12-58.821-93.424-58.821-151.831
		c0-124.494,101.283-225.777,225.777-225.777c45.907-0.05,90.727,13.976,128.416,40.186l20.177-10.403
		C1857.282,22.607,1805.777,3.94,1750,3.94c-135.677,0-246.06,110.382-246.06,246.06c0,64.19,24.717,122.708,65.12,166.563
		L1583.043,401.831z"/>
	<path style="fill:#091B26;" d="M1921.89,103.789c33.582,39.421,53.887,90.486,53.887,146.211
		c0,124.494-101.283,225.777-225.777,225.777c-42.151,0.047-83.462-11.778-119.204-34.121l-20.669,10.662
		c41.059,28.53,89.874,43.796,139.873,43.742c135.677,0,246.06-110.382,246.06-246.06c0-61.515-22.687-117.818-60.132-161.002
		L1921.89,103.789z"/>
</g>
<path style="fill:#23BEE2;" d="M1634.613,270.244l58.951,44.611l-133.148,140.281l264.6-136.475l-47.797-33.043l88.168-45.044
	l-58.951-44.611l133.148-140.281l-264.6,136.475l47.797,33.043L1634.613,270.244"/>
</svg>
