<?xml version="1.0" encoding="utf-8"?>
<!-- Generator: Adobe Illustrator 23.0.3, SVG Export Plug-In . SVG Version: 6.00 Build 0)  -->
<svg version="1.1" id="etp" xmlns="http://www.w3.org/2000/svg" xmlns:xlink="http://www.w3.org/1999/xlink" x="0px" y="0px"
	 viewBox="0 0 500 500" style="enable-background:new 0 0 500 500;" xml:space="preserve">
<style type="text/css">
	.st0{fill:#383534;}
	.st1{fill:#FAC83A;}
	.st2{fill:#13608A;}
	.st3{fill:#1077A6;}
	.st4{fill:#228DC1;}
	.st5{fill:#29A7D6;}
	.st6{fill:#33BDEE;}
	.st7{fill:#E61912;}
	.st8{fill:#E44114;}
	.st9{fill:#E65A12;}
	.st10{fill:#EE7523;}
	.st11{fill:#EA8E17;}
	.st12{fill:#EDA717;}
</style>
<polygon class="st0" points="156.1,172.5 115.5,196.3 158.4,220.4 158.4,363.8 199,338.4 199,197.8 "/>
<polygon class="st0" points="240.6,172.5 200,196.3 242.9,220.4 242.9,363.8 283.6,338.4 283.6,197.8 "/>
<polygon class="st0" points="326.5,172.5 285.8,196.3 328.8,220.4 328.8,363.8 369.4,338.4 369.4,197.8 "/>
<circle class="st1" cx="429.2" cy="126.5" r="12"/>
<circle class="st2" cx="467.2" cy="230.3" r="29.5"/>
<circle class="st3" cx="448.7" cy="343.6" r="23.5"/>
<circle class="st4" cx="376.1" cy="427.3" r="20.2"/>
<circle class="st5" cx="272" cy="466.4" r="15"/>
<circle class="st6" cx="159.7" cy="446" r="10"/>
<circle class="st7" cx="73" cy="376.8" r="36.2"/>
<circle class="st8" cx="34.8" cy="269.7" r="31.5"/>
<circle class="st9" cx="55.1" cy="158.2" r="27.2"/>
<circle class="st10" cx="125.7" cy="73.5" r="23.5"/>
<circle class="st11" cx="231.5" cy="34.1" r="19.5"/>
<circle class="st12" cx="345.6" cy="53.3" r="15.2"/>
</svg>
