<?xml version="1.0" encoding="utf-8"?>
<!-- Generator: Adobe Illustrator 23.0.4, SVG Export Plug-In . SVG Version: 6.00 Build 0)  -->
<svg version="1.1" id="etz" xmlns="http://www.w3.org/2000/svg" xmlns:xlink="http://www.w3.org/1999/xlink" x="0px" y="0px"
	 viewBox="0 0 500 500" style="enable-background:new 0 0 500 500;" xml:space="preserve">
<style type="text/css">
	.st0{fill:#178AFD;}
</style>
<path class="st0" d="M250.3,81.2l170.1,170.1L250.3,421.4L80.2,251.3L250.3,81.2 M250.3,70.7l-5.2,5.2L75,246l-5.2,5.2l5.2,5.2
	l170.1,170.1l5.2,5.2l5.2-5.2l170.1-170.1l5.2-5.2l-5.2-5.2L255.6,75.9L250.3,70.7L250.3,70.7z"/>
<path class="st0" d="M250.3,18.3l135.9,233l-135.9,231l-135.1-231L250.3,18.3 M250.3,3.5l-6.4,11l-135.1,233l-2.2,3.7l2.2,3.7
	l135.1,231l6.4,10.9l6.4-10.9l135.9-231l2.2-3.7l-2.2-3.8l-135.9-233L250.3,3.5L250.3,3.5z"/>
<rect x="208" y="209" transform="matrix(0.7071 -0.7071 0.7071 0.7071 -104.3675 250.6169)" class="st0" width="84.6" height="84.6"/>
</svg>
