<svg width="24" height="24" viewBox="0 0 24 24" fill="currentColor" xmlns="http://www.w3.org/2000/svg">
<path fill-rule="evenodd" clip-rule="evenodd" d="M11.0513 9.78875C11.5708 9.63441 12.1171 9.93047 12.2714 10.45L12.767 12.1183L20.3334 9.8969C20.8535 9.74423 21.3988 10.042 21.5515 10.5621C21.7042 11.0821 21.4064 11.6274 20.8863 11.7801L12.3813 14.2771C11.8625 14.4294 11.3182 14.1333 11.1642 13.6149L10.39 11.0089C10.2357 10.4894 10.5317 9.94309 11.0513 9.78875Z" />
<path fill-rule="evenodd" clip-rule="evenodd" d="M18.7473 2.27533C19.2432 2.49401 19.468 3.0733 19.2493 3.5692L17.4327 7.68857L21.1299 10.0073C21.589 10.2952 21.7278 10.9009 21.4398 11.36C21.1519 11.8192 20.5462 11.958 20.0871 11.67L15.671 8.90043C15.2582 8.64154 15.0979 8.11895 15.2945 7.6731L17.4534 2.77728C17.6721 2.28137 18.2514 2.05664 18.7473 2.27533Z" />
<path fill-rule="evenodd" clip-rule="evenodd" d="M19.293 2.89654C19.4458 3.41653 19.1482 3.96196 18.6282 4.11478L12.9146 5.79397C12.3946 5.94679 11.8491 5.64914 11.6963 5.12915C11.5435 4.60916 11.8412 4.06374 12.3611 3.91092L18.0748 2.23173C18.5947 2.0789 19.1402 2.37655 19.293 2.89654Z" />
<path fill-rule="evenodd" clip-rule="evenodd" d="M14.5127 9.03372C14.9855 9.29858 15.1541 9.89662 14.8893 10.3695L12.9593 13.8151C12.6944 14.2879 12.0964 14.4566 11.6235 14.1917C11.1507 13.9268 10.9821 13.3288 11.2469 12.8559L13.1769 9.41034C13.4418 8.93748 14.0398 8.76886 14.5127 9.03372Z" />
<path fill-rule="evenodd" clip-rule="evenodd" d="M12.2586 1.36343C12.487 1.48829 12.6564 1.69876 12.7296 1.94855L14.9758 9.61395C15.1282 10.1339 14.8304 10.6789 14.3105 10.8315L5.80554 13.3285C5.28551 13.4812 4.74017 13.1834 4.58749 12.6633C4.43482 12.1433 4.73262 11.598 5.25265 11.4453L12.8165 9.2246L11.1221 3.44234L3.91882 5.55416C3.39873 5.70663 2.8535 5.40863 2.70102 4.88853C2.54855 4.36844 2.84656 3.82322 3.36665 3.67074L11.5118 1.2828C11.7616 1.20957 12.0302 1.23858 12.2586 1.36343Z" />
<path fill-rule="evenodd" clip-rule="evenodd" d="M3.12559 3.80954C3.64733 3.66281 4.18923 3.96682 4.33596 4.48856L9.12274 21.5094C9.26947 22.0312 8.96547 22.5731 8.44372 22.7198C7.92198 22.8666 7.38008 22.5625 7.23335 22.0408L2.44657 5.01992C2.29984 4.49817 2.60384 3.95627 3.12559 3.80954Z"/>
</svg>
