<?xml version="1.0" encoding="iso-8859-1"?>
<!-- Generator: Adobe Illustrator 19.0.0, SVG Export Plug-In . SVG Version: 6.00 Build 0)  -->
<svg version="1.1" id="Layer_1" xmlns="http://www.w3.org/2000/svg" xmlns:xlink="http://www.w3.org/1999/xlink" x="0px" y="0px"
	 viewBox="1000 -1000 2500 2500" style="enable-background:new 1000 -1000 2500 2500;" xml:space="preserve">
<title>evx</title>
<path style="fill:#004DA7;" d="M2250-968.247c-672.838,0-1218.247,545.409-1218.247,1218.247
	c-0.255,198.14,48.012,393.329,140.584,568.515l137.267-137.267l286.545-293.123c61.285,39.642,140.507,38.08,200.181-3.946
	l124.742,124.742l113.932-113.932l-162.376-162.433c-2.502-99.154-84.911-177.506-184.065-175.004
	c-97.429,2.459-175.116,82.176-175.061,179.636c0,4.232,0.343,8.35,0.629,12.526l-264.239,264.182
	C1104.476-38.452,1434.358-604.103,1986.706-749.521S3104.706-565.056,3250.124-12.708c46.057,174.942,45.42,358.906-1.848,533.525
	L2828.41,100.95l-0.915,0.915c0.642-6.118,0.967-12.265,0.972-18.417c0-101.649-82.403-184.052-184.052-184.052
	S2460.362-18.2,2460.362,83.449c0.037,8.134,0.63,16.255,1.773,24.308l-912.027,903.676l-11.096,10.695l-119.137,119.365
	c225.189,210.359,521.967,327.177,830.124,326.753c672.838,0,1218.247-545.408,1218.247-1218.247S2922.838-968.247,2250-968.247z
	 M2250,1284.194c-203.202,0.3-401.948-59.541-571.203-171.984l886.518-862.782c56.032,26.922,121.899,23.562,174.901-8.922
	l447.148,447.148C3017.314,1051.701,2651.805,1284.312,2250,1284.194z"/>
<circle style="fill:#FFFFFF;" cx="2648.761" cy="87.853" r="83.275"/>
<circle style="fill:#FFFFFF;" cx="1693.438" cy="236.845" r="83.275"/>
</svg>
