<?xml version="1.0" encoding="utf-8"?>
<!-- Generator: Adobe Illustrator 25.2.0, SVG Export Plug-In . SVG Version: 6.00 Build 0)  -->
<svg version="1.1" id="ewt" xmlns="http://www.w3.org/2000/svg" xmlns:xlink="http://www.w3.org/1999/xlink" x="0px" y="0px"
	 viewBox="0 0 500 500" style="enable-background:new 0 0 500 500;" xml:space="preserve">
<style type="text/css">
	.st0{fill:#AF5EFF;}
	.st1{fill:#FFFFFF;}
</style>
<circle class="st0" cx="250.4" cy="249.7" r="243.6"/>
<path class="st1" d="M194.2,384.8c-13.3,0-26.5-3.4-39.1-10.3c-36.8-20.2-61-67.3-63.1-122.9l24.4-10.7c2,57.4,21.8,95.6,50.9,111.5
	c18.4,10.1,38.2,9.6,57.1-1.5l17.5,18.4C226.5,379.5,208.6,384.8,194.2,384.8z"/>
<path class="st1" d="M306,386c-68.8,0-99.8-77.2-99.8-131.9c0-64.9,30.2-71.9,43.2-71.9c21.1,0,45.7,18.7,45.7,71.2
	c0,43.2-22.1,77-22.9,78.1l-16-22.2c0.1-0.2,13.8-21,13.8-55.9c0-31.7-10.7-46.1-20.6-46.1c-11.1,0-18,17.9-18,46.8
	c0,33.5,18.8,106.8,74.7,106.8c58.3,0,77.2-80,77.2-118.7c0-48.6-17.4-72.6-32.7-93.8c-1.4-1.9-6.7-8.6-8-10.5l24.4-9.7
	c1.3,1.8,2.6,3.6,3.9,5.4c15.8,21.8,37.5,51.7,37.5,108.5C408.3,297.7,380.5,386,306,386z"/>
</svg>
