<?xml version="1.0" encoding="utf-8"?>
<!-- Generator: Adobe Illustrator 23.0.3, SVG Export Plug-In . SVG Version: 6.00 Build 0)  -->
<svg version="1.1" id="exrn" xmlns="http://www.w3.org/2000/svg" xmlns:xlink="http://www.w3.org/1999/xlink" x="0px" y="0px"
	 viewBox="0 0 500 500" style="enable-background:new 0 0 500 500;" xml:space="preserve">
<style type="text/css">
	.st0{fill:url(#SVGID_1_);}
	.st1{fill:url(#SVGID_2_);}
	.st2{fill:url(#SVGID_3_);}
	.st3{fill:url(#SVGID_4_);}
	.st4{fill:url(#SVGID_5_);}
	.st5{fill:#FFFFFF;}
	.st6{fill:url(#SVGID_6_);}
	.st7{fill:url(#SVGID_7_);}
	.st8{fill:url(#SVGID_8_);}
	.st9{fill:url(#SVGID_9_);}
	.st10{fill:url(#SVGID_10_);}
	.st11{fill:url(#SVGID_11_);}
</style>
<linearGradient id="SVGID_1_" gradientUnits="userSpaceOnUse" x1="252.74" y1="479.7798" x2="252.74" y2="16.4394">
	<stop  offset="0" style="stop-color:#4D92F5"/>
	<stop  offset="1" style="stop-color:#2BE5CF"/>
</linearGradient>
<path class="st0" d="M252.7,66.3l159.1,91.9v183.7l-159.1,91.9L93.7,341.9V158.2L252.7,66.3 M252.7,50.5c-2.7,0-5.5,0.7-7.9,2.1
	L85.7,144.5c-4.9,2.8-7.9,8-7.9,13.7v183.7c0,5.6,3,10.9,7.9,13.7l159.1,91.9c2.4,1.4,5.2,2.1,7.9,2.1s5.5-0.7,7.9-2.1l159.1-91.9
	c4.9-2.8,7.9-8,7.9-13.7V158.2c0-5.6-3-10.9-7.9-13.7L260.6,52.6C258.2,51.2,255.5,50.5,252.7,50.5L252.7,50.5z"/>
<linearGradient id="SVGID_2_" gradientUnits="userSpaceOnUse" x1="351.744" y1="479.7798" x2="351.744" y2="16.4394">
	<stop  offset="0" style="stop-color:#4D92F5"/>
	<stop  offset="1" style="stop-color:#2BE5CF"/>
</linearGradient>
<polygon class="st1" points="324.4,217 317.4,205.3 379,168.2 386.1,179.8 "/>
<linearGradient id="SVGID_3_" gradientUnits="userSpaceOnUse" x1="153.6593" y1="479.7798" x2="153.6593" y2="16.4394">
	<stop  offset="0" style="stop-color:#4D92F5"/>
	<stop  offset="1" style="stop-color:#2BE5CF"/>
</linearGradient>
<polygon class="st2" points="181,217 119.3,179.8 126.4,168.2 188,205.3 "/>
<linearGradient id="SVGID_4_" gradientUnits="userSpaceOnUse" x1="251.8533" y1="479.7798" x2="251.8533" y2="16.4394">
	<stop  offset="0" style="stop-color:#4D92F5"/>
	<stop  offset="1" style="stop-color:#2BE5CF"/>
</linearGradient>
<rect x="245" y="335.2" class="st3" width="13.6" height="62.3"/>
<g>
	<linearGradient id="SVGID_5_" gradientUnits="userSpaceOnUse" x1="85.3665" y1="500.2807" x2="85.3665" y2="17.5272">
		<stop  offset="0" style="stop-color:#4D92F5"/>
		<stop  offset="1" style="stop-color:#2BE5CF"/>
	</linearGradient>
	<polygon class="st4" points="133.1,180.9 133.1,125.8 85.4,98.3 37.6,125.8 37.6,180.9 85.4,208.5 	"/>
	<path class="st5" d="M85.4,98.3l47.7,27.6v55.1l-47.7,27.6l-47.7-27.6v-55.1L85.4,98.3 M85.4,91.5c-1.2,0-2.4,0.3-3.4,0.9
		l-47.7,27.6c-2.1,1.2-3.4,3.5-3.4,5.9v55.1c0,2.4,1.3,4.7,3.4,5.9L82,214.4c1.1,0.6,2.2,0.9,3.4,0.9s2.4-0.3,3.4-0.9l47.7-27.6
		c2.1-1.2,3.4-3.5,3.4-5.9v-55.1c0-2.4-1.3-4.7-3.4-5.9L88.8,92.4C87.7,91.8,86.5,91.5,85.4,91.5L85.4,91.5z"/>
</g>
<g>
	<linearGradient id="SVGID_6_" gradientUnits="userSpaceOnUse" x1="85.3665" y1="500.2807" x2="85.3665" y2="17.5272">
		<stop  offset="0" style="stop-color:#4D92F5"/>
		<stop  offset="1" style="stop-color:#2BE5CF"/>
	</linearGradient>
	<polygon class="st6" points="133.1,374.2 133.1,319.1 85.4,291.5 37.6,319.1 37.6,374.2 85.4,401.7 	"/>
	<path class="st5" d="M85.4,291.5l47.7,27.6v55.1l-47.7,27.6l-47.7-27.6v-55.1L85.4,291.5 M85.4,284.7c-1.2,0-2.4,0.3-3.4,0.9
		l-47.7,27.6c-2.1,1.2-3.4,3.5-3.4,5.9v55.1c0,2.4,1.3,4.7,3.4,5.9L82,407.7c1.1,0.6,2.2,0.9,3.4,0.9s2.4-0.3,3.4-0.9l47.7-27.6
		c2.1-1.2,3.4-3.5,3.4-5.9v-55.1c0-2.4-1.3-4.7-3.4-5.9l-47.7-27.6C87.7,285,86.5,284.7,85.4,284.7L85.4,284.7z"/>
</g>
<g>
	<linearGradient id="SVGID_7_" gradientUnits="userSpaceOnUse" x1="252.74" y1="500.2807" x2="252.74" y2="17.5272">
		<stop  offset="0" style="stop-color:#4D92F5"/>
		<stop  offset="1" style="stop-color:#2BE5CF"/>
	</linearGradient>
	<polygon class="st7" points="300.5,84.8 300.5,29.7 252.7,2.1 205,29.7 205,84.8 252.7,112.3 	"/>
	<path class="st5" d="M252.7,2.1l47.7,27.6v55.1l-47.7,27.6L205,84.8V29.7L252.7,2.1 M252.7-4.7c-1.2,0-2.4,0.3-3.4,0.9l-47.7,27.6
		c-2.1,1.2-3.4,3.5-3.4,5.9v55.1c0,2.4,1.3,4.7,3.4,5.9l47.7,27.6c1.1,0.6,2.2,0.9,3.4,0.9s2.4-0.3,3.4-0.9l47.7-27.6
		c2.1-1.2,3.4-3.5,3.4-5.9V29.7c0-2.4-1.3-4.7-3.4-5.9L256.1-3.8C255.1-4.4,253.9-4.7,252.7-4.7L252.7-4.7z"/>
</g>
<g>
	<linearGradient id="SVGID_8_" gradientUnits="userSpaceOnUse" x1="252.74" y1="500.2807" x2="252.74" y2="17.5272">
		<stop  offset="0" style="stop-color:#4D92F5"/>
		<stop  offset="1" style="stop-color:#2BE5CF"/>
	</linearGradient>
	<polygon class="st8" points="300.5,470.4 300.5,415.3 252.7,387.7 205,415.3 205,470.4 252.7,497.9 	"/>
	<path class="st5" d="M252.7,387.7l47.7,27.6v55.1l-47.7,27.6L205,470.4v-55.1L252.7,387.7 M252.7,380.9c-1.2,0-2.4,0.3-3.4,0.9
		l-47.7,27.6c-2.1,1.2-3.4,3.5-3.4,5.9v55.1c0,2.4,1.3,4.7,3.4,5.9l47.7,27.6c1.1,0.6,2.2,0.9,3.4,0.9s2.4-0.3,3.4-0.9l47.7-27.6
		c2.1-1.2,3.4-3.5,3.4-5.9v-55.1c0-2.4-1.3-4.7-3.4-5.9l-47.7-27.6C255.1,381.2,253.9,380.9,252.7,380.9L252.7,380.9z"/>
</g>
<g>
	<linearGradient id="SVGID_9_" gradientUnits="userSpaceOnUse" x1="252.74" y1="500.2807" x2="252.74" y2="17.5272">
		<stop  offset="0" style="stop-color:#4D92F5"/>
		<stop  offset="1" style="stop-color:#2BE5CF"/>
	</linearGradient>
	<polygon class="st9" points="335.1,297.6 335.1,202.5 252.7,155 170.4,202.5 170.4,297.6 252.7,345.1 	"/>
	<path class="st5" d="M252.7,155l82.3,47.5v95.1l-82.3,47.5l-82.3-47.5v-95.1L252.7,155 M252.7,146.8c-1.4,0-2.8,0.4-4.1,1.1
		l-82.3,47.5c-2.5,1.5-4.1,4.2-4.1,7.1v95.1c0,2.9,1.6,5.6,4.1,7.1l82.3,47.5c1.3,0.7,2.7,1.1,4.1,1.1s2.8-0.4,4.1-1.1l82.3-47.5
		c2.5-1.5,4.1-4.2,4.1-7.1v-95.1c0-2.9-1.6-5.6-4.1-7.1l-82.3-47.5C255.6,147.1,254.2,146.8,252.7,146.8L252.7,146.8z"/>
</g>
<g>
	<linearGradient id="SVGID_10_" gradientUnits="userSpaceOnUse" x1="420.1134" y1="500.2807" x2="420.1134" y2="17.5272">
		<stop  offset="0" style="stop-color:#4D92F5"/>
		<stop  offset="1" style="stop-color:#2BE5CF"/>
	</linearGradient>
	<polygon class="st10" points="467.8,181.9 467.8,126.8 420.1,99.2 372.4,126.8 372.4,181.9 420.1,209.4 	"/>
	<path class="st5" d="M420.1,99.2l47.7,27.6v55.1l-47.7,27.6l-47.7-27.6v-55.1L420.1,99.2 M420.1,92.4c-1.2,0-2.4,0.3-3.4,0.9
		L369,120.8c-2.1,1.2-3.4,3.5-3.4,5.9v55.1c0,2.4,1.3,4.7,3.4,5.9l47.7,27.6c1.1,0.6,2.2,0.9,3.4,0.9s2.4-0.3,3.4-0.9l47.7-27.6
		c2.1-1.2,3.4-3.5,3.4-5.9v-55.1c0-2.4-1.3-4.7-3.4-5.9l-47.7-27.6C422.5,92.7,421.3,92.4,420.1,92.4L420.1,92.4z"/>
</g>
<g>
	<linearGradient id="SVGID_11_" gradientUnits="userSpaceOnUse" x1="420.1134" y1="500.2807" x2="420.1134" y2="17.5272">
		<stop  offset="0" style="stop-color:#4D92F5"/>
		<stop  offset="1" style="stop-color:#2BE5CF"/>
	</linearGradient>
	<polygon class="st11" points="467.8,375.1 467.8,320 420.1,292.5 372.4,320 372.4,375.1 420.1,402.7 	"/>
	<path class="st5" d="M420.1,292.5l47.7,27.6v55.1l-47.7,27.6l-47.7-27.6V320L420.1,292.5 M420.1,285.6c-1.2,0-2.4,0.3-3.4,0.9
		L369,314.1c-2.1,1.2-3.4,3.5-3.4,5.9v55.1c0,2.4,1.3,4.7,3.4,5.9l47.7,27.6c1.1,0.6,2.2,0.9,3.4,0.9s2.4-0.3,3.4-0.9l47.7-27.6
		c2.1-1.2,3.4-3.5,3.4-5.9V320c0-2.4-1.3-4.7-3.4-5.9l-47.7-27.6C422.5,286,421.3,285.6,420.1,285.6L420.1,285.6z"/>
</g>
</svg>
