<svg aria-hidden="true" data-testid="test-icon" fill="currentColor" viewBox="0 0 24 24" xmlns="http://www.w3.org/2000/svg"><path fill-rule="evenodd" clip-rule="evenodd" d="M5.62 7.33a1.025 1.025 0 00-1.025 1.024V18.38a1.025 1.025 0 001.025 1.025h10.026a1.026 1.026 0 001.025-1.025V12.91a.797.797 0 111.595 0v5.469a2.62 2.62 0 01-2.62 2.62H5.62A2.62 2.62 0 013 18.38V8.354a2.62 2.62 0 012.62-2.62h5.469a.798.798 0 010 1.595H5.62zM13.937 3.797c0-.44.357-.797.797-.797h5.469c.44 0 .797.357.797.797v5.469a.797.797 0 11-1.595 0V4.595h-4.67a.797.797 0 01-.798-.798z"/><path fill-rule="evenodd" clip-rule="evenodd" d="M20.766 3.234a.797.797 0 010 1.127L10.741 14.387a.798.798 0 01-1.128-1.128L19.64 3.234a.797.797 0 011.127 0z"/></svg>
