<?xml version="1.0" encoding="iso-8859-1"?>
<!-- Generator: Adobe Illustrator 19.0.0, SVG Export Plug-In . SVG Version: 6.00 Build 0)  -->
<svg version="1.1" id="Layer_1" xmlns="http://www.w3.org/2000/svg" xmlns:xlink="http://www.w3.org/1999/xlink" x="0px" y="0px"
	 viewBox="0 0 500 500" style="enable-background:new 0 0 500 500;" xml:space="preserve">
<path style="fill:#AA1422;" d="M277.59,90.771h48.818c0,0-12.198,2.054-17.993,6.927c-9.845,8.279-11.256,22.254-11.256,22.254
	s0-12.673-5.3-20.278C285.872,91.086,277.59,90.771,277.59,90.771z"/>
<path style="fill:#AA1422;" d="M327.39,326.759l-59.319,1.558c0,0,13.334-0.986,21.501-9.522c7.714-8.063,7.588-22.005,7.588-22.005
	s0.62,10.988,7.642,19.381C310.048,322.442,316.511,326.405,327.39,326.759z"/>
<polygon style="fill:#466790;" points="54.521,410.924 106.141,410.924 166.148,328.363 119.13,328.363 "/>
<polygon style="fill:#AA1422;" points="444.946,407.784 399.369,407.784 335.562,326.759 381.408,326.759 "/>
<polygon style="fill:#AA1422;" points="246.814,156.019 199.891,156.838 200.201,262.138 246.814,262.258 "/>
<path style="fill:#466790;" d="M220.081,90.771h57.509c0,0,9.659,1.215,13.988,8.21c4.33,6.994,5.581,14.98,5.581,23.56
	s0,44.067,0,44.067l-50.345-10.589v-36.824c0,0,0-12.72-8.686-20.554C230.38,91.653,220.081,90.771,220.081,90.771z"/>
<path style="fill:#466790;" d="M246.814,262.258l50.345-9.222v44.944c0,0,1.747,13.156-7.745,21.482
	c-9.492,8.326-16.486,8.901-23.813,8.901s-44.289,0-44.289,0s13.599-2.371,18.726-8.939c4.667-5.979,6.776-12.286,6.776-16.615
	C246.814,298.48,246.814,262.258,246.814,262.258z"/>
<path style="fill:#F0081D;" d="M464.424,326.759h-19.478l0,81.025l-63.539-81.025h-54.279c-16.483,0-29.969-13.486-29.969-29.969
	v-43.754l-50.345,9.223v-106.24l50.345,10.59v-44.067c0-16.483,12.766-31.77,29.249-31.77l137.327,1.366
	c16.483,0,30.659,13.323,30.659,34.502v170.15C494.394,313.273,480.907,326.759,464.424,326.759z"/>
<path style="fill:#2C3B4D;" d="M220.174,328.363H119.13l-64.609,82.561l0.622-82.561H38.058c-14.652,0-33.857-17.095-33.857-31.747
	l1.608-174.671c0-14.652,15.423-29.406,30.075-29.406l184.197-1.769c14.652,0,26.733,13.771,26.733,28.423v36.824l-46.923,0.819
	l0.311,105.3l46.612,0.12v39.466C246.814,316.376,234.826,328.363,220.174,328.363z"/>
</svg>
