<svg width="24" height="24" viewBox="0 0 24 24" fill="currentColor" xmlns="http://www.w3.org/2000/svg">
<path d="M18.2899 0.517031C18.2999 1.75703 18.3099 3.00703 18.3299 4.24703C18.0499 4.24703 17.5999 4.24703 17.0299 4.24703C15.9699 4.23703 15.7999 4.20703 15.4699 4.31703C15.3399 4.36703 14.6399 4.62703 14.2799 5.36703C14.0999 5.73703 14.0699 6.07703 14.0599 6.26703V9.23703H18.1499L17.4999 13.507H14.0299V23.787H9.35992C9.36992 20.357 9.37992 16.937 9.39992 13.507H5.70992C5.69992 12.067 5.68992 10.637 5.66992 9.19703C6.93992 9.18703 8.19992 9.17703 9.46992 9.15703C9.42992 7.96703 9.39992 6.76703 9.35992 5.57703C9.36992 5.10703 9.43992 4.38703 9.75992 3.58703C9.92992 3.15703 10.5399 1.66703 12.0799 0.837031C12.8799 0.407031 13.5599 0.347031 14.6099 0.257031C15.4999 0.177031 16.7799 0.177031 18.2999 0.507031L18.2899 0.517031Z"/>
</svg>
