<?xml version="1.0" encoding="iso-8859-1"?>
<!-- Generator: Adobe Illustrator 19.0.0, SVG Export Plug-In . SVG Version: 6.00 Build 0)  -->
<svg version="1.1" id="Layer_1" xmlns="http://www.w3.org/2000/svg" xmlns:xlink="http://www.w3.org/1999/xlink" x="0px" y="0px"
	 viewBox="1500 0 500 500" style="enable-background:new 1500 0 500 500;" xml:space="preserve">
<g>
	<path style="fill:#EFF3C9;" d="M1846.835,147.375h-3.137c0-1.038,1.038-2.1,1.038-2.1h1.038
		C1846.835,146.338,1846.835,147.375,1846.835,147.375"/>
</g>
<path style="fill:#D37D41;" d="M1732.722,3.991c6.275,0,14.652-1.038,20.927-1.038c21.987,0,32.467,8.372,28.267,25.12
	c-5.22,19.882-33.495,48.14-70.137,73.259c-7.337,3.137-14.652-6.275-12.552-10.472c0-1.038,1.038-1.038,1.038-1.038
	c32.467-21.987,56.532-46.04,61.762-63.849c4.175-16.747-9.415-24.082-33.505-21.987h4.2"/>
<path style="fill:#E8B521;" d="M1858.35,28.074c12.552,6.275,17.787,16.747,13.615,32.455
	c-12.552,47.102-104.689,119.324-205.202,162.228c-18.855,8.375-37.682,14.645-54.434,19.885
	c-9.415,1.038-10.477-11.51-6.275-17.787c1.038-2.1,2.1-2.1,3.137-3.137c15.715-4.175,32.467-10.472,50.257-17.787
	c95.276-40.829,182.175-109.889,193.685-153.856c4.175-15.71-2.1-26.157-15.715-31.395c6.275,3.113,14.652,6.25,20.927,9.388"/>
<path style="fill:#417BA4;" d="M1989.231,187.165c1.038,5.237,1.038,11.51-1.038,18.847
	c-12.552,46.04-91.076,114.089-186.35,163.266c-10.477,4.175-16.752-3.137-14.652-10.472c1.038-3.137,3.137-5.237,5.237-6.275
	c96.314-50.239,176.938-119.324,189.485-166.403c2.1-8.373,2.1-15.702,0-21.987c3.137,8.348,6.275,16.723,7.313,23.02"/>
<g>
	<path style="fill:#D37D41;" d="M1996.568,231.107v8.372c0,4.175,0,7.335-1.038,12.548c-7.337,28.257-41.882,64.887-88.999,100.479
		c-7.337,5.237-11.515-2.1-10.477-7.335c1.038-4.175,4.175-7.335,5.237-8.372c49.219-36.63,84.799-74.297,92.149-103.616
		c1.038-5.237,2.1-10.472,1.038-15.71l2.1,13.635"/>
	<path style="fill:#D37D41;" d="M1536.942,148.435c3.138-6.275,6.275-11.51,10.477-17.787c8.377,10.472,34.542,10.472,70.146-1.038
		c4.175-1.038,4.175,8.372,4.175,8.372"/>
	<path style="fill:#D37D41;" d="M1621.741,137.963c0,5.237-1.038,12.548-46.057,18.847c-12.552,2.1-30.367,1.038-38.742-8.372"/>
</g>
<path style="fill:#417BA4;" d="M1813.331,11.326c13.615,5.237,18.852,14.647,14.652,29.295
	c-10.477,39.775-88.999,101.517-174.838,138.146c-68.047,28.282-120.403,33.517-133.993,13.61c2.1-6.275,4.175-12.548,6.275-18.847
	c12.552,17.787,60.734,13.61,122.503-12.548c78.524-34.53,150.77-91.044,160.185-126.636c3.137-13.61-7.584-24.799-19.099-28.998"/>
<path style="fill:#E8B521;" d="M1522.265,239.8c-1.038,3.137-2.1,7.335-4.175,6.275c-10.477-5.215-14.677-13.585-13.615-26.157
	c-1.038,7.335,1.038,13.61,4.175,17.787c-0.049-6.371,2.1-13.61,3.137-19.882c2.1,3.137,5.237,5.237,9.415,7.335
	c3.162,4.175,1.062,14.647,1.062,14.647"/>
<path style="fill:#D37D41;" d="M1892.917,47.956l10.477,7.335c8.377,7.335,11.515,17.787,8.377,31.395
	c-13.615,52.339-116.203,132.911-228.232,180.013c-106.794,46.052-184.277,43.967-179.04-1.038
	c-1.038,7.335,1.038,14.647,4.175,19.882c-1.038-6.275-1.038-13.61-1.038-19.882c70.146,74.297,385.277-118.264,388.417-199.896
	c1.038-14.647-7.337-19.882-11.515-23.02l8.375,5.213"/>
<g>
	<path style="fill:#417BA4;" d="M1514.952,324.248c-1.038-4.175-2.1-8.372-1.038-13.61
		C1512.852,315.876,1513.915,320.073,1514.952,324.248"/>
	<path style="fill:#417BA4;" d="M1941.074,91.923c6.275,7.335,7.337,16.747,4.175,29.295
		c-14.652,55.477-122.503,140.246-241.847,190.473c-113.066,49.202-195.79,47.102-189.485-1.038
		c-1.038,8.372,1.038,15.71,5.237,20.92c-2.1-6.275-4.175-12.548-5.237-19.882c18.852,26.157,90.036,19.882,181.137-18.847
		c116.203-49.202,221.957-132.911,236.607-187.348c3.138-13.61,1.038-23.02-6.275-30.357c5.213,5.262,10.453,11.535,15.69,16.772"/>
</g>
<path style="fill:#E8B521;" d="M1913.844,229.032c2.1,6.275,0,10.472-2.1,13.61c-46.057,41.867-114.136,83.732-185.312,114.089
	c-105.751,43.974-185.312,47.102-192.652,9.41c-1.038-3.137-3.138-5.237-5.237-8.372c19.89,26.157,93.176,20.92,187.412-19.882
	c71.184-30.357,139.255-73.259,185.312-114.089c8.4-4.2,11.54,2.075,12.577,5.237"/>
<path style="fill:#417BA4;" d="M1648.973,420.555c1.038,2.1,2.1,6.275-2.1,7.335c-37.68,6.275-64.909,3.137-77.486-10.472
	c-4.175-5.237-10.477-12.548-14.652-17.787c11.515,14.647,39.775,18.847,80.624,12.548c7.337,0,12.552,6.275,13.615,8.372"/>
<path style="fill:#D37D41;" d="M1764.136,424.727c1.038,1.038,1.038,5.237-5.237,8.372c-72.246,28.257-128.781,34.53-151.808,18.847
	c-5.237-4.175-12.552-9.41-17.787-13.61c21.987,18.847,81.661,12.548,159.148-17.787c11.49-3.137,15.69,4.175,15.69,4.175"/>
<path style="fill:#417BA4;" d="M1993.43,294.963c-12.552,45.002-101.551,115.124-198.927,156.993
	c-63.872,27.22-115.166,34.53-140.296,25.12c-6.275-3.137-14.652-6.275-19.89-9.41c83.581,34.619,336.898-101.378,361.781-190.693"
	/>
<path style="fill:#E8B521;" d="M1978.753,344.158c-36.642,75.349-206.242,159.098-273.251,148.619
	c-7.337-1.038-16.752-3.137-23.027-5.237c24.09,7.335,69.109-1.038,123.543-24.082c87.949-37.667,168.56-100.479,181.137-141.284
	c-2.1,6.273-5.262,15.685-8.4,21.987"/>
<path style="fill:#417BA4;" d="M1924.322,419.492c0,1.038-60.734,45.002-93.176,58.612c-27.229,11.51-51.294,17.787-69.109,18.847
	h-26.167c20.927,1.038,51.294-6.275,87.949-20.92c36.642-15.71,103.083-61.132,104.12-61.132c0,0-2.569,3.557-3.607,4.595"/>
<path style="fill:#D37D41;" d="M1536.942,148.435c-2.1-3.137-3.137-6.176-3.137-11.411c0-1.038,0-2.1,1.038-4.175
	c3.137-5.237,7.337-10.472,10.477-15.71c-1.038,6.275-1.038,10.472,2.1,13.61C1543.219,138.059,1540.082,142.16,1536.942,148.435"/>
<path style="fill:#417BA4;" d="M1519.152,192.377c-3.138-4.175-4.183-9.412-3.138-15.71c0-2.1,0-3.137,1.038-5.237
	c1.988-6.108,4.441-12.054,7.337-17.787c-2.1,7.335-1.705,15.166,1.433,20.401c-3.162,7.36-4.694,12.375-6.67,18.328"/>
<path style="fill:#E8B521;" d="M1508.675,237.775c-3.137-5.237-5.237-10.472-4.2-17.787l2.1-13.61l2.1-8.372
	c-2.1,8.372-1.038,15.71,3.137,19.882c-0.642,6.371-3.137,13.61-3.137,19.882"/>
<path style="fill:#D37D41;" d="M1508.675,284.78c-3.137-3.137-4.175-6.571-4.175-11.804c0-6.275-1.038-15.71-1.038-21.987
	c0,6.275,2.1,10.472,4.175,14.647"/>
<g>
	<path style="fill:#417BA4;" d="M1670.96,77.251c-1.038-1.062-5.237-6.275-8.377-5.237c-8.377,5.237-17.815,9.435-27.229,13.61
		c-29.327,12.548-52.354,14.647-58.632,6.268l-0.022,0.027c-2.073-2.102-0.741-8.708-0.447-8.943
		c1.062-4.2,3.755-7.804,6.893-11.979c-4.111,3.108-20.853,16.584-20.935,25.745c-0.435,2.577,0,8.303,0.847,10.87
		c7.337,10.448,36.716,8.372,73.358-7.335c12.552-4.2,24.065-10.472,34.542-16.747C1673.06,81.426,1671.998,78.288,1670.96,77.251"
		/>
	<path style="fill:#417BA4;" d="M1519.152,331.586c-2.1-2.1-3.138-4.175-4.175-7.335c-2.1-6.275-4.175-15.71-6.275-21.987
		c1.038,3.137,3.137,6.275,5.237,9.41c2.051,7.36,3.113,13.635,5.213,19.907"/>
</g>
<path style="fill:#D37D41;" d="M1534.052,134.828c0-2.1,1.853-5.954,2.89-8.027c1.038-3.138,12.552-20.92,16.752-25.12
	c0,0-5.237,7.335-8.377,15.71c-3.137,5.237-7.337,10.472-10.477,15.71"/>
</svg>
