<?xml version="1.0" encoding="utf-8"?>
<!-- Generator: Adobe Illustrator 25.4.1, SVG Export Plug-In . SVG Version: 6.00 Build 0)  -->
<svg version="1.1" baseProfile="tiny" id="FEI" xmlns="http://www.w3.org/2000/svg" xmlns:xlink="http://www.w3.org/1999/xlink"
	 x="0px" y="0px" viewBox="0 0 500 500" overflow="visible" xml:space="preserve">
<circle fill="#22996E" cx="250" cy="250" r="250"/>
<path fill="#FFFFFF" d="M250,361.4H113.2c-18.5,0-29.7-20.5-19.7-36.1l77.8-121.4c5.7-9,15.7-14.4,26.3-14.4h104.8
	c10.6,0,20.6,5.4,26.3,14.4l77.8,121.4c10,15.6-1.2,36.1-19.7,36.1H250z"/>
<path fill="#FFFFFF" d="M264,82.1l32.7,50c6.8,10.4-0.7,24.2-13.1,24.2H217c-12.5,0-20-14-12.9-24.4l33.9-50
	C244.2,72.7,257.9,72.8,264,82.1z"/>
</svg>
