<?xml version="1.0" encoding="utf-8"?>
<!-- Generator: Adobe Illustrator 23.0.3, SVG Export Plug-In . SVG Version: 6.00 Build 0)  -->
<svg version="1.1" id="fet" xmlns="http://www.w3.org/2000/svg" xmlns:xlink="http://www.w3.org/1999/xlink" x="0px" y="0px"
	 viewBox="0 0 500 500" style="enable-background:new 0 0 500 500;" xml:space="preserve">
<path d="M492.2,149.4c-41.8,0-82.7,0-122.5,0c40.7-40.6,81.9-81.7,122.5-122.2C492.2,66.4,492.2,107.4,492.2,149.4z"/>
<path d="M346.7,3.5c41.6,0,82.4,0,121.7,0C428,43.6,386.9,84.6,346.7,124.5C346.7,86.4,346.7,45.4,346.7,3.5z"/>
<path d="M281,110.2c0,7.6,0,13.7,0,20.5c-30.1,0-59.8,0-90.2,0c0-36.1,0-71.9,0-108.6c29.3,0,58.7,0,88.7,0c0,6.4,0,12.7,0,20
	c-20.7,0-41.3,0-62.7,0c0,7.6,0,14.2,0,22.1c15.7,0,31.7,0,48.4,0c0,7.6,0,13.9,0,21.3c-16.1,0-32.1,0-48.7,0c0,8.6,0,16.2,0,24.7
	C238,110.2,259,110.2,281,110.2z"/>
<path d="M442.9,432.1c0-14.5,0-28,0-42.3c7.6,0,14.5,0,22,0c0,36.2,0,72,0,108.5c-7.1,0-13.8,0-22,0c0-14.2,0-28.6,0-43.5
	c-16.2,0-31,0-46.8,0c0,14.6,0,28.7,0,43.4c-7.7,0-14.3,0-21.6,0c0-36.1,0-72,0-108.5c6.8,0,13.5,0,21.1,0c0,13.9,0,27.7,0,42.4
	C411.6,432.1,426.6,432.1,442.9,432.1z"/>
<path d="M33.3,42.4c0,8.5,0,15.9,0,24.5c16.3,0,32.6,0,49.5,0c0,7.3,0,13.3,0,20.8c-16.5,0-32.8,0-49.9,0c0,15,0,28.5,0,42.8
	c-9.3,0-17.8,0-27.5,0c0-18.4,0-36.5,0-54.6c0-17.8,0-35.6,0-54.1c30.9,0,61,0,91.6,0c0,6.8,0,13.1,0,20.6
	C75.7,42.4,54.7,42.4,33.3,42.4z"/>
<path d="M463.5,226.1c-4.2,4.2-8.5,8.5-12.7,12.7c-21.5-16.7-41.5-17.7-54.7-3c-12.8,14.4-12.8,34.9,0.1,48.6
	c13.7,14.6,35.4,13.4,56.3-3.7c3.9,4.1,7.9,8.3,11.7,12.3c-10,17.3-35,25.8-57.9,20.1c-23-5.7-40.3-26.4-41.6-49.6
	c-1.3-24.8,13.5-47,36.7-55.1C425,200.3,449.9,207.3,463.5,226.1z"/>
<path d="M280.8,205c0,6.6,0,13,0,20.5c-10.5,0-21,0-32.8,0c0,30.1,0,59.2,0,88.9c-8.5,0-15.8,0-24.3,0c0-29.4,0-58.4,0-88.2
	c-11.5,0-21.8,0-32.9,0c0-7.3,0-13.9,0-21.1C220.7,205,250.5,205,280.8,205z"/>
</svg>
