<?xml version="1.0" encoding="utf-8"?>
<!-- Generator: Adobe Illustrator 25.4.1, SVG Export Plug-In . SVG Version: 6.00 Build 0)  -->
<svg version="1.1" baseProfile="tiny" id="fida" xmlns="http://www.w3.org/2000/svg" xmlns:xlink="http://www.w3.org/1999/xlink"
	 x="0px" y="0px" viewBox="0 0 500 500" overflow="visible" xml:space="preserve">
<rect x="248.2" y="10" transform="matrix(1 -1.175522e-03 1.175522e-03 1 -7.745847e-02 0.2938)" fill="#6868FC" width="3.4" height="112.2"/>
<rect x="407.9" y="286.2" transform="matrix(0.5073 -0.8618 0.8618 0.5073 -92.5227 521.283)" fill="#6868FC" width="3.4" height="110.6"/>
<rect x="35.6" y="339.9" transform="matrix(0.8618 -0.5073 0.5073 0.8618 -160.704 93.3388)" fill="#6868FC" width="110.6" height="3.4"/>
<path fill="#77E3EF" d="M249.8,252.3c-0.4,0-0.9-0.1-1.3-0.3L137,187.6c-0.8-0.5-1.3-1.3-1.3-2.2c0-0.9,0.5-1.7,1.3-2.2l111.5-64.4
	c0.8-0.5,1.8-0.5,2.5,0l111.3,64.6c0.8,0.5,1.3,1.3,1.3,2.2c0,0.9-0.5,1.7-1.3,2.2L251,252C250.6,252.2,250.2,252.3,249.8,252.3z
	 M143.4,185.4l106.4,61.5L356,185.6L249.8,124L143.4,185.4z"/>
<path fill="#4ACBDC" d="M249.8,380.4c-0.4,0-0.9-0.1-1.3-0.3l-111.3-63.9c-0.8-0.5-1.3-1.3-1.3-2.2l-0.1-128.5
	c0-0.9,0.5-1.7,1.3-2.2c0.8-0.5,1.8-0.5,2.5,0L251,247.6c0.8,0.5,1.3,1.3,1.3,2.2v128.1c0,0.9-0.5,1.7-1.3,2.2
	C250.6,380.2,250.2,380.4,249.8,380.4z M141,312.5l106.2,61V251.2l-106.4-61.5L141,312.5z"/>
<path fill="#07ABC5" d="M249.8,380.4c-0.4,0-0.9-0.1-1.3-0.3c-0.8-0.5-1.3-1.3-1.3-2.2V249.8c0-0.9,0.5-1.7,1.3-2.2l111.3-64.1
	c0.8-0.5,1.8-0.5,2.5,0c0.8,0.5,1.3,1.3,1.3,2.2v128.6c0,0.9-0.5,1.8-1.3,2.2L251,380C250.6,380.2,250.2,380.4,249.8,380.4z
	 M252.3,251.2v122.2l106.2-60.7V190L252.3,251.2z"/>
<path fill="#7C7CFF" d="M249.8,496.2L36.5,373V126.7L249.8,3.5l213.4,123.2V373L249.8,496.2z M48.3,366.2l201.5,116.3l201.5-116.3
	V133.5L249.8,17.2L48.3,133.5V366.2z"/>
<path fill="#7C7CFF" d="M249.8,256.9L39.8,135.4c-2.8-1.6-3.8-5.3-2.2-8.1s5.3-3.8,8.1-2.2l204.1,118l204.8-118.1
	c2.8-1.6,6.5-0.7,8.1,2.2c1.6,2.8,0.7,6.5-2.2,8.1L249.8,256.9z"/>
<path fill="#7C7CFF" d="M250.2,495.3c-3.3,0-5.9-2.7-5.9-5.9V250.1c0-3.3,2.7-5.9,5.9-5.9s5.9,2.7,5.9,5.9v239.3
	C256.1,492.6,253.4,495.3,250.2,495.3z"/>
</svg>
