<svg aria-hidden="true" data-testid="test-icon" xmlns="http://www.w3.org/2000/svg" viewBox="0 0 24 24"><g fill-rule="evenodd"><path data-name="Path 1742" d="M12 24.001a12 12 0 1112-11.88 12.048 12.048 0 01-12 11.88" fill="#0090FF"/><path data-name="Path 1743" d="M13.143 10.563l-.361 1.917 3.43.479-.241.9-3.37-.479c-.241.779-.361 1.618-.662 2.337-.3.839-.6 1.678-.963 2.456a3.246 3.246 0 01-2.467 1.917 2.42 2.42 0 01-1.926-.359.8.8 0 01-.361-.536.857.857 0 01.3-.659 1.089 1.089 0 01.6.06 2.661 2.661 0 01.481.659.861.861 0 001.324.18 3.616 3.616 0 001.023-1.8c.361-1.438.722-2.816 1.023-4.254v-.24l-3.19-.479.12-.9 3.31.479.421-1.857-3.43-.539.12-.959 3.551.479c.12-.359.181-.659.3-.959a8.87 8.87 0 011.329-3.111 3.176 3.176 0 012.828-1.5 1.871 1.871 0 011.444.6.509.509 0 01.181.3 1 1 0 01-.181.719.58.58 0 01-.782-.12c-.181-.18-.3-.359-.481-.539a.823.823 0 00-1.324-.12 3.837 3.837 0 00-.782 1.138c-.421 1.258-.722 2.576-1.143 3.894l3.31.479-.241.9-3.19-.479" fill="#fff"/></g></svg>
