<svg aria-hidden="true" data-testid="test-icon" fill="currentColor" viewBox="0 0 24 24" xmlns="http://www.w3.org/2000/svg"><path fill-rule="evenodd" clip-rule="evenodd" d="M4.76 2.774A2.566 2.566 0 016.591 2h6.31c.209 0 .41.085.557.236l6.31 6.436c.148.151.231.356.231.57v10.114a2.67 2.67 0 01-.759 1.87 2.566 2.566 0 01-1.832.774H6.591a2.566 2.566 0 01-1.833-.774A2.67 2.67 0 014 19.356V4.644c0-.701.273-1.374.76-1.87zm1.832.835c-.27 0-.527.11-.718.303-.19.194-.297.457-.297.732v14.712c0 .275.107.538.297.732.19.194.449.303.718.303h10.817c.268 0 .526-.11.716-.303.19-.194.297-.457.297-.732V9.575l-5.847-5.966H6.592z"/><path fill-rule="evenodd" clip-rule="evenodd" d="M12.901 2c.436 0 .79.36.79.805v5.632h5.52c.436 0 .789.36.789.804a.797.797 0 01-.789.805h-6.31a.797.797 0 01-.788-.805V2.805c0-.445.353-.805.788-.805z"/></svg>
