<svg width="24" height="24" viewBox="0 0 24 24" fill="currentColor" xmlns="http://www.w3.org/2000/svg">
<path d="M14.3121 19.9401C14.3496 20.2234 14.2559 20.5255 14.0403 20.7238C13.9536 20.8114 13.8505 20.8808 13.7372 20.9282C13.6238 20.9756 13.5022 21 13.3794 21C13.2567 21 13.1351 20.9756 13.0217 20.9282C12.9083 20.8808 12.8053 20.8114 12.7186 20.7238L8.95973 16.9371C8.85749 16.8365 8.77976 16.7133 8.7326 16.5773C8.68544 16.4414 8.67014 16.2963 8.68789 16.1533V11.3185L4.19789 5.52979C4.04566 5.33293 3.97698 5.08337 4.00684 4.83565C4.0367 4.58793 4.16267 4.36219 4.35724 4.20775C4.53534 4.07555 4.73219 4 4.93841 4H18.0616C18.2678 4 18.4647 4.07555 18.6428 4.20775C18.8373 4.36219 18.9633 4.58793 18.9932 4.83565C19.023 5.08337 18.9543 5.33293 18.8021 5.52979L14.3121 11.3185V19.9401ZM5.87566 5.41647L9.8734 10.3925C10.0161 10.5701 10.0938 10.791 10.0938 11.0188V16.1533L13.0217 19.1091V11.0112C13.0217 10.7881 13.0963 10.5714 13.2337 10.3955L17.1241 5.41647H5.87566Z"/>
</svg>
