<?xml version="1.0" encoding="utf-8"?>
<!-- Generator: Adobe Illustrator 25.2.0, SVG Export Plug-In . SVG Version: 6.00 Build 0)  -->
<svg version="1.1" id="flow" xmlns="http://www.w3.org/2000/svg" xmlns:xlink="http://www.w3.org/1999/xlink" x="0px" y="0px"
	 viewBox="0 0 500 500" style="enable-background:new 0 0 500 500;" xml:space="preserve">
<style type="text/css">
	.st0{fill:#00EF8B;}
	.st1{fill:#FFFFFF;}
	.st2{fill:#16FF99;}
</style>
<circle class="st0" cx="250.5" cy="250.5" r="248.5"/>
<rect x="289.4" y="211.6" class="st1" width="70.2" height="70.2"/>
<path class="st1" d="M219.2,308.1c0,14.5-11.8,26.3-26.3,26.3s-26.3-11.8-26.3-26.3c0-14.5,11.8-26.3,26.3-26.3c0,0,0,0,0,0h26.3
	v-70.1h-26.3c-53.3,0-96.5,43.2-96.5,96.5s43.2,96.5,96.5,96.5s96.5-43.2,96.5-96.5l0,0v-26.3h-70.1V308.1z"/>
<path class="st1" d="M315.7,176.5h78.9v-70.2h-78.9c-53.3,0.1-96.4,43.2-96.5,96.5v8.8h70.1v-8.8
	C289.4,188.3,301.2,176.5,315.7,176.5z"/>
<polygon class="st2" points="219.2,281.8 289.4,281.8 289.4,281.8 289.4,211.6 289.4,211.6 219.2,211.6 "/>
</svg>
