<?xml version="1.0" encoding="iso-8859-1"?>
<!-- Generator: Adobe Illustrator 19.0.0, SVG Export Plug-In . SVG Version: 6.00 Build 0)  -->
<svg version="1.1" id="Layer_1" xmlns="http://www.w3.org/2000/svg" xmlns:xlink="http://www.w3.org/1999/xlink" x="0px" y="0px"
	 viewBox="0 0 500 500" style="enable-background:new 0 0 500 500;" xml:space="preserve">
<path style="fill:#3D424D;" d="M5.387,244.371c2.028-3.514,4.589-11.163,9.684-16.299C86.218,156.344,157.742,84.99,229.09,13.462
	c13.382-13.415,31.485-12.634,46.895,2.778c36.441,36.444,72.919,72.85,109.373,109.28c10.706,10.698,21.425,21.383,32.059,32.152
	c8.27,8.376,8.326,18.371,0.13,26.831c-7.398,7.636-15.486,14.674-22.287,22.799c-7.567,9.041-21.614,8.677-29.998,0.082
	c-33.117-33.95-66.873-67.278-100.378-100.85c-8.632-8.649-18.709-8.64-27.335,0.045c-8.355,8.412-16.815,16.722-25.103,25.199
	c-10.071,10.301-10.346,18.434-0.38,29.153c8.35,8.982,17.336,17.37,25.942,26.117c9.873,10.035,10.217,18.162,0.625,28.547
	c-7.207,7.802-14.835,15.243-22.617,22.477c-9.926,9.227-17.818,9.359-27.643,0.262c-8.694-8.051-17.424-16.181-25.145-25.133
	c-10.114-11.727-22.816-10.608-32.417-0.507c-21.685,22.813-44.28,44.76-66.421,67.142c-18.601,18.803-25.249,18.852-44.008-0.309
	C11.915,270.879,5.544,261.133,5.387,244.371z M276.584,482.238c21.974-22.572,44.495-44.609,66.766-66.892
	c47.725-47.749,95.35-95.598,143.249-143.173c5.346-5.31,7.872-11.058,8.405-18.262c0.858-11.595-1.638-21.785-10.896-29.691
	c-3.724-3.18-7.036-6.844-10.524-10.299c-11.754-11.648-19.143-10.888-29.844-0.251c-2.612,2.596-5.273,5.142-7.877,7.746
	c-22.276,22.277-44.788,44.327-66.703,66.954c-9.838,10.158-19.495,10.252-30.166-0.24c-8.75-8.604-17.326-17.384-26.03-26.035
	c-9.811-9.75-17.546-10.071-27.462-0.711c-7.732,7.298-15.175,14.912-22.575,22.551c-8.097,8.358-8.212,20.35-0.029,29.053
	c8.68,9.233,17.92,17.939,26.601,27.171c10.837,11.527,10.757,16.091-0.368,27.809c-7.885,8.305-16.11,16.288-24.234,24.363
	c-7.101,7.059-15.166,8.618-24.196,3.617c-4.871-2.697-9.229-6.6-13.218-10.564c-31.636-31.429-63.094-63.036-94.686-94.51
	c-8.245-8.215-17.059-8.486-25.602-0.636c-7.187,6.603-14.211,13.429-20.821,20.603c-11.296,12.26-11.063,22.394,0.206,34.61
	c0.832,0.902,1.73,1.743,2.598,2.611c24.266,24.283,48.546,48.551,72.794,72.853c18.764,18.806,37.335,37.806,56.295,56.413
	c8.677,8.515,17.346,17.712,32.134,16.209C260.695,494.772,268.938,490.093,276.584,482.238z"/>
</svg>
