<?xml version="1.0" encoding="utf-8"?>
<!-- Generator: Adobe Illustrator 26.0.3, SVG Export Plug-In . SVG Version: 6.00 Build 0)  -->
<svg version="1.1" id="fox" xmlns="http://www.w3.org/2000/svg" xmlns:xlink="http://www.w3.org/1999/xlink" x="0px" y="0px"
	 viewBox="0 0 500 500" style="enable-background:new 0 0 500 500;" xml:space="preserve">
<style type="text/css">
	.st0{fill-rule:evenodd;clip-rule:evenodd;fill:#0A1832;}
</style>
<path id="Fill-16" class="st0" d="M443.1,43.4l-21.9,131.5l-77.9-91.8L443.1,43.4z M421.7,231.5l19.5,72.1L292,344.6L421.7,231.5z
	 M96.9,195.3l80-104.5h138.9l88.8,104.5H96.9z M394.3,221.1L249.7,347.3L102.4,221.1H394.3z M150.1,83.2l-71.5,93.4L56.7,43.9
	L150.1,83.2z M206.8,344.6l-150.6-41l20.6-70.3L206.8,344.6z M234.7,379l-28.4,31.3c-24.1-22.9-50.6-43.2-78.9-60.5L234.7,379z
	 M372.5,349.2c-28.3,17.6-54.7,38.2-78.6,61.3l-29-31.6L372.5,349.2z M476.1,2.5L319.3,64.9H173.1L23.6,2l34,205.4L25,318.5
	l85.1,50.9c40.3,24.1,76.4,54.3,107.3,89.6l33.1,37.9l34.8-39.9c29.8-34.2,64.6-63.6,103.3-87.4l83.5-51.2l-30.1-111L476.1,2.5
	L476.1,2.5z"/>
</svg>
