<?xml version="1.0" encoding="utf-8"?>
<!-- Generator: Adobe Illustrator 26.0.3, SVG Export Plug-In . SVG Version: 6.00 Build 0)  -->
<svg version="1.1" id="frax" xmlns="http://www.w3.org/2000/svg" xmlns:xlink="http://www.w3.org/1999/xlink" x="0px" y="0px"
	 viewBox="0 0 500 500" style="enable-background:new 0 0 500 500;" xml:space="preserve">
<g>
	<path d="M425.2,360.9c6.8-10.4,12.6-21.3,17.5-32.8c10.9-25.8,16.5-53.2,16.5-81.4c0-28.2-5.5-55.6-16.5-81.4
		c-4.8-11.4-10.6-22.3-17.3-32.6l71.2-71.2L435.4,0.3l-71.1,71.1c-10.3-6.8-21.3-12.6-32.8-17.4c-25.8-10.9-53.2-16.5-81.4-16.5
		c-28.2,0-55.6,5.5-81.4,16.5c-11.5,4.9-22.5,10.7-32.8,17.5L63.8-0.5L2.7,60.7l72,72C68,143,62.2,153.8,57.4,165.2
		c-10.9,25.8-16.5,53.2-16.5,81.4c0,28.2,5.5,55.6,16.5,81.4c4.9,11.5,10.7,22.4,17.4,32.8L0.4,435.2l61.2,61.2L136,422
		c10.3,6.7,21.2,12.5,32.6,17.3c25.8,10.9,53.2,16.5,81.4,16.5c28.2,0,55.6-5.5,81.4-16.5c11.4-4.8,22.3-10.6,32.5-17.3l73.6,73.6
		l61.2-61.2L425.2,360.9z M250,372.2c-18.8,0-36.6-4.1-52.7-11.5c-26.9-12.5-48.7-34.2-61.2-61.1c-7.5-16.1-11.7-34-11.7-52.9
		c0-18.8,4.1-36.6,11.5-52.6c12.4-27,34.2-48.7,61.1-61.3c16.1-7.5,34-11.7,53-11.7c18.9,0,36.8,4.2,52.9,11.7
		c26.9,12.5,48.7,34.3,61.1,61.2c7.4,16,11.5,33.9,11.5,52.7c0,18.9-4.2,36.9-11.7,53c-12.5,26.9-34.3,48.6-61.3,61.1
		C286.6,368.1,268.8,372.2,250,372.2z"/>
</g>
</svg>
