<?xml version="1.0" encoding="utf-8"?>
<!-- Generator: Adobe Illustrator 24.2.2, SVG Export Plug-In . SVG Version: 6.00 Build 0)  -->
<svg version="1.1" id="Layer_1" xmlns="http://www.w3.org/2000/svg" xmlns:xlink="http://www.w3.org/1999/xlink" x="0px" y="0px"
	 viewBox="0 0 500 500" style="enable-background:new 0 0 500 500;" xml:space="preserve">
<style type="text/css">
	.st0{fill:url(#SVGID_1_);}
	.st1{fill:url(#SVGID_2_);}
	.st2{fill:url(#SVGID_3_);}
	.st3{fill:url(#SVGID_4_);}
</style>
<linearGradient id="SVGID_1_" gradientUnits="userSpaceOnUse" x1="92.3008" y1="303.7227" x2="458.5057" y2="303.7227">
	<stop  offset="0" style="stop-color:#A97A3A"/>
	<stop  offset="0.4906" style="stop-color:#E8C787"/>
	<stop  offset="1" style="stop-color:#CDA765"/>
</linearGradient>
<polygon class="st0" points="465.7,126.5 465.7,372.7 251.9,495.8 198.6,465.2 411.2,343.2 411.2,127.1 439.8,111.6 "/>
<linearGradient id="SVGID_2_" gradientUnits="userSpaceOnUse" x1="92.3008" y1="347.7541" x2="458.5057" y2="347.7541">
	<stop  offset="0" style="stop-color:#A97A3A"/>
	<stop  offset="0.4906" style="stop-color:#E8C787"/>
	<stop  offset="1" style="stop-color:#CDA765"/>
</linearGradient>
<polygon class="st1" points="370.2,255.5 370.4,317.4 156.3,440 102.5,409.2 "/>
<linearGradient id="SVGID_3_" gradientUnits="userSpaceOnUse" x1="37.99" y1="195.3515" x2="397.1417" y2="195.3515">
	<stop  offset="0" style="stop-color:#CACACC"/>
	<stop  offset="0.2127" style="stop-color:#EAEBEB"/>
	<stop  offset="1" style="stop-color:#B8B6B9"/>
</linearGradient>
<polygon class="st2" points="397.1,89.6 343.4,58.8 90.5,205.4 90.5,155.6 303.4,33.1 251.9,3.4 38,126.5 38,372.7 63.2,387.3 
	90.5,371.8 90.5,267.4 "/>
<linearGradient id="SVGID_4_" gradientUnits="userSpaceOnUse" x1="92.3008" y1="249.2802" x2="458.5057" y2="249.2802">
	<stop  offset="0" style="stop-color:#A97A3A"/>
	<stop  offset="0.4906" style="stop-color:#E8C787"/>
	<stop  offset="1" style="stop-color:#CDA765"/>
</linearGradient>
<polygon class="st3" points="370.2,151.3 370.4,213.2 130.8,347.3 130.8,288.8 "/>
</svg>
