<?xml version="1.0" encoding="utf-8"?>
<!-- Generator: Adobe Illustrator 25.2.2, SVG Export Plug-In . SVG Version: 6.00 Build 0)  -->
<svg version="1.1" id="front" xmlns="http://www.w3.org/2000/svg" xmlns:xlink="http://www.w3.org/1999/xlink" x="0px" y="0px"
	 viewBox="0 0 500 500" style="enable-background:new 0 0 500 500;" xml:space="preserve">
<style type="text/css">
	.st0{fill:url(#SVGID_1_);}
	.st1{fill:#FFFFFF;}
</style>
<linearGradient id="SVGID_1_" gradientUnits="userSpaceOnUse" x1="250" y1="496.2086" x2="250" y2="3.7914">
	<stop  offset="0" style="stop-color:#291C19"/>
	<stop  offset="0.5156" style="stop-color:#402A27"/>
	<stop  offset="1" style="stop-color:#4C3835"/>
</linearGradient>
<circle class="st0" cx="250" cy="250" r="246.2"/>
<path class="st1" d="M356.4,125.9l-1.3,3.6l-4.4,11.6l-2.9,7.5c-22.1,56.3-39.2,83-57.5,83c-10.5,0-16.7-3.1-24.8-10.5l-2.3-2.2
	c-5.8-5.5-8.2-6.9-13.8-6.9c-2.9,0-8.1,3.8-14.7,12.8c-6.8,9.3-14.3,23-22.4,41.1l-0.7,1.7l78.3,0l-9.7,20.8H207v85.6h-21.5V125.9
	H356.4z M326,146.7l-118.9,0v82.7c14.3-25.5,27.8-38.3,42.4-38.3c11.3,0,18,3.3,26.4,10.9l2.4,2.2c5.4,5.1,7.5,6.3,12.1,6.3
	C295.4,210.7,309,188.6,326,146.7z"/>
</svg>
