<?xml version="1.0" encoding="iso-8859-1"?>
<!-- Generator: Adobe Illustrator 19.0.0, SVG Export Plug-In . SVG Version: 6.00 Build 0)  -->
<svg version="1.1" id="Layer_2" xmlns="http://www.w3.org/2000/svg" xmlns:xlink="http://www.w3.org/1999/xlink" x="0px" y="0px"
	 viewBox="0 0 500 500" style="enable-background:new 0 0 500 500;" xml:space="preserve">
<circle style="fill:#1F9AD8;" cx="248.833" cy="248.833" r="247.833"/>
<circle style="fill:#FFFFFF;" cx="284.723" cy="310.721" r="52.562"/>
<path style="fill:#FBFFFF;" d="M175.642,104.429c0,0,38.998-55.388,74.039-74.604S306.2,7.782,322.025,12.304
	c15.825,4.521,35.041,12.999,40.693,19.781c5.652,6.782,7.347,10.739,7.347,10.739s-26.14-9.891-56.518,2.261
	c-24.753,9.901-40.07,21.581-58.779,37.867c-13.635,11.869-14.029,15.664-14.029,15.664s32.327-3.865,84.323,10.829
	s65.915,38.503,74.392,52.068c8.478,13.564,12.434,30.52,12.434,30.52s-43.519-31.085-107.385-37.302
	c-63.866-6.217-103.429-6.217-103.429-6.217s-36.172,52.562-61.04,118.689S82.952,432.801,82.952,432.801
	s-10.173-68.387,17.521-156.556s48.041-124.906,48.041-124.906s-39.563,0.565-77.995,15.26S4.391,207.857,4.391,207.857
	s9.911-35.609,53.693-61.04C98.706,123.221,118.558,115.732,175.642,104.429z"/>
</svg>
