<?xml version="1.0" encoding="iso-8859-1"?>
<!-- Generator: Adobe Illustrator 19.0.0, SVG Export Plug-In . SVG Version: 6.00 Build 0)  -->
<svg version="1.1" id="Layer_1" xmlns="http://www.w3.org/2000/svg" xmlns:xlink="http://www.w3.org/1999/xlink" x="0px" y="0px"
	 viewBox="0 0 500 500" style="enable-background:new 0 0 500 500;" xml:space="preserve">
<path style="fill:#0DB07B;" d="M104.72,52.214c0.062,28.847-21.453,50.829-49.907,50.993C26.431,103.37,4.483,81.578,4.151,52.903
	C3.808,23.243,25.836,0.747,54.973,1.002C83.243,1.249,104.658,23.295,104.72,52.214z M54.486,136.99
	c-28.61,0.187-50.345,22.252-50.385,51.152c-0.04,28.983,21.772,51.136,50.369,51.155c28.35,0.019,50.155-22.203,50.246-51.207
	C104.808,158.962,83.027,136.804,54.486,136.99z M195.234,95.001c22.892,0.211,43.05-19.644,43.156-42.507
	c0.106-22.917-19.744-43.197-42.434-43.352c-23.315-0.16-42.376,18.898-42.574,42.565C153.182,75.59,171.738,94.785,195.234,95.001z
	 M196.789,230.537c22.745-0.616,41.642-19.841,41.562-42.283c-0.085-23.947-18.93-42.448-43.1-42.314
	c-24.349,0.135-42.256,18.491-41.909,42.958C153.682,212.932,172.732,231.189,196.789,230.537z M54.043,281.443
	c-23.109,0.33-42.47,20.118-42.264,43.196c0.213,23.837,18.829,41.75,43.112,41.483c24.817-0.272,42.195-17.825,41.938-42.361
	C96.58,300.114,77.366,281.11,54.043,281.443z M26.613,468.356c-0.276,16.128,12.492,28.794,28.587,28.358
	c15.345-0.416,27.186-12.754,27.004-28.139c-0.184-15.597-12.051-27.365-27.635-27.404C39.13,441.133,26.874,453.05,26.613,468.356z
	 M167.901,322.906c-0.682,15.88,10.212,28.131,25.785,28.998c16.045,0.893,29.73-11.525,29.918-27.149
	c0.181-15.084-12.025-27.821-27.114-28.295C181.001,295.973,168.563,307.479,167.901,322.906z M362.174,187.88
	c-0.275-14.907-13.502-27.727-28.336-27.463c-14.972,0.266-27.494,13.327-27.179,28.347c0.321,15.314,12.871,27.467,28.189,27.296
	C350.049,215.891,362.454,203.099,362.174,187.88z M362.077,51.434c-0.416-14.971-11.764-25.933-27.066-26.143
	c-16.342-0.224-28.156,10.875-28.355,26.64c-0.198,15.69,11.612,27.114,27.907,26.993C350.814,78.803,362.512,67.114,362.077,51.434
	z M474.812,33.334c-11.894-0.189-21.369,8.801-21.186,20.103c0.175,10.823,10.761,20.629,21.605,20.014
	c10.828-0.614,18.904-9.415,18.795-20.483C493.914,41.445,486.153,33.515,474.812,33.334z M473.848,169.246
	c-10.609,0.088-19.911,8.996-20.241,19.383c-0.354,11.143,9.254,20.768,20.718,20.753c11.19-0.014,19.378-8.037,19.646-19.248
	C494.253,178.286,485.452,169.15,473.848,169.246z M178.204,468.751c0.996,10.586,7.51,16.286,17.862,16.911
	c10.25,0.619,18.652-7.964,18.505-18.058c-0.148-10.163-8.64-18.241-18.805-17.889C185.497,450.072,177.258,458.684,178.204,468.751
	z M353.032,324.724c-0.424-10.85-6.815-16.327-17.037-17.099c-10.188-0.769-18.616,7.576-18.673,17.571
	c-0.058,10.078,8.138,18.251,18.214,18.162C345.649,343.269,353.436,335.072,353.032,324.724z"/>
</svg>
