<?xml version="1.0" encoding="iso-8859-1"?>
<!-- Generator: Adobe Illustrator 19.0.0, SVG Export Plug-In . SVG Version: 6.00 Build 0)  -->
<svg version="1.1" id="Layer_1" xmlns="http://www.w3.org/2000/svg" xmlns:xlink="http://www.w3.org/1999/xlink" x="0px" y="0px"
	 viewBox="1000 -999.5 2500 2500" style="enable-background:new 1000 -999.5 2500 2500;" xml:space="preserve">
<path style="fill:#4096D0;" d="M3399.107-482.343h-783.694l-232.359,589.859h-732.826v-303.693h732.826l107.25-286.165H1380.602
	c-28.787,0-52.123,23.336-52.123,52.123l0,0v537.735h-178.75l-107.25,286h286v536.976c0,29.17,23.647,52.816,52.816,52.816h537.042
	l107.217-285.967h-375.359V393.516h607.75l-232.392,589.793h357.5l250.25-589.826h769.698c28.993,0,52.501-23.494,52.519-52.486
	v-766.925C3455.521-457.085,3430.264-482.343,3399.107-482.343z M3151.828,62.325c0,24.995-20.262,45.257-45.257,45.257l0,0
	h-366.017l125.109-303.693h240.743c24.964-0.11,45.295,20.029,45.422,44.993V62.325z"/>
</svg>
