<?xml version="1.0" encoding="iso-8859-1"?>
<!-- Generator: Adobe Illustrator 19.0.0, SVG Export Plug-In . SVG Version: 6.00 Build 0)  -->
<svg version="1.1" id="Layer_1" xmlns="http://www.w3.org/2000/svg" xmlns:xlink="http://www.w3.org/1999/xlink" x="0px" y="0px"
	 viewBox="0 0 500 500" style="enable-background:new 0 0 500 500;" xml:space="preserve">
<path id="XMLID_4_" style="fill:#DD2664;" d="M178.641,23.712c7.108,6.365,71.561,89.266,76.007,97.968
	c-42.933-0.875-78.872,14.41-106.097,47.324c-27.109,32.775-35.075,70.761-26.781,113.693
	c30.307-22.919,58.837-46.454,89.058-69.164c22.306,28.536,44.17,56.507,66.576,85.17c-15.17,12.467-30.393,23.86-45.328,35.61
	c-14.769,11.62-29.528,23.253-44.345,34.922c31.012,39.636,61.698,78.854,92.506,118.229c-24.216,7.143-80.678,3.584-123.21-14.752
	C94.459,445.739,49.947,400.649,25.9,336.984C-22.065,210,42.931,66.687,178.641,23.712z M249.807,396.332
	c15.639,20.114,31.364,40.161,47.08,60.215c5.958,7.602,11.971,15.16,17.969,22.73c1.974,2.492,3.889,4.329,7.706,2.948
	c17.012-6.154,33.668-13.053,49.237-22.354c32.245-19.264,58.96-44.423,79.305-75.998c22.119-34.328,35.785-71.782,38.042-112.769
	c0.978-17.759,1.189-35.602-1.398-53.4c-3.914-26.925-11.826-52.432-24.401-76.567c-22.795-43.75-56.021-77.34-98.943-101.296
	c-31.591-17.632-65.897-26.498-101.818-28.997c-15.765-1.096-31.581-0.039-47.31,1.673c-0.668,0.073-1.289,0.581-2.7,1.252
	c15.791,20.28,31.362,40.298,46.957,60.299c15.64,20.059,31.303,40.101,47.338,60.639c-30.076,23.509-59.866,46.794-89.922,70.286
	c23.3,30.591,46.697,59.939,70.027,89.558c14.947-11.698,29.172-22.863,43.432-33.983c14.312-11.16,28.275-22.788,43.386-33.492
	c6.201,27.7,2.198,65.467-17.871,94.836c-27.878,40.796-67.224,59.062-117.909,58.098
	C242.698,386.515,246.09,391.55,249.807,396.332z M263.267,392.276c103.201-12.72,146.858-116.119,117.433-187.63
	c-30.592,23.853-61.004,47.565-91.695,71.495c-17.949-22.938-35.521-45.395-53.626-68.532c14.865-12.363,30.049-23.73,44.915-35.478
	c14.778-11.678,29.73-23.135,45.083-35.06c-29.179-37.413-58.121-74.523-87.794-112.569c4.084-0.333,7.284-0.829,10.483-0.818
	c36.722,0.124,71.625,8.12,104.421,24.726c24.11,12.208,45.151,28.496,63.607,48.268c21.871,23.43,38.047,50.178,48.515,80.46
	c5.328,15.413,8.665,31.182,10.765,47.364c2.05,15.802,2.099,31.658,0.865,47.321c-2.273,28.851-10.128,56.385-23.225,82.393
	c-18.185,36.113-44.221,65.183-77.534,87.855c-16.077,10.941-33.497,19.208-52.83,25.982
	C302.7,442.596,283.136,417.631,263.267,392.276z"/>
</svg>
