<?xml version="1.0" encoding="utf-8"?>
<!-- Generator: Adobe Illustrator 26.0.2, SVG Export Plug-In . SVG Version: 6.00 Build 0)  -->
<svg version="1.1" id="gala" xmlns="http://www.w3.org/2000/svg" xmlns:xlink="http://www.w3.org/1999/xlink" x="0px" y="0px"
	 viewBox="0 0 500 500" style="enable-background:new 0 0 500 500;" xml:space="preserve">
<polygon points="459.4,113.1 250.4,0.1 42.4,113.1 250.4,234.3 330,188.6 296.4,168.7 250.4,195.9 109.2,114 250.4,38.5 
	424.4,132.5 "/>
<polygon points="28.2,129.9 28.2,369.7 239.5,499.9 239.5,252.8 159.3,205.4 159.3,245 205.8,271.3 205.8,439.9 61.4,350.3 
	61.4,150.2 "/>
<polygon points="261,345.5 261,253.2 472.7,129.9 472.7,370.1 261,499.9 261,460.2 439.5,350.3 439.5,188.6 294.6,271.3 
	294.6,326.5 "/>
</svg>
