<svg width="24" height="24" viewBox="0 0 24 24" fill="currentColor" xmlns="http://www.w3.org/2000/svg">
<g id="Icons / Gas">
<g id="g1146">
<g id="g1164">
<g id="g1166">
<g id="g1180">
<g id="Vector">
<path fill-rule="evenodd" clip-rule="evenodd" d="M4.57417 1.90615C4.43113 1.90615 4.31506 2.02224 4.31506 2.16526V14.6106C4.31506 14.7536 4.43113 14.8697 4.57417 14.8697L14.5771 14.8694C14.7202 14.8694 14.8363 14.7533 14.8363 14.6103V2.16526C14.8363 2.02224 14.7202 1.90615 14.5771 1.90615H4.57417ZM15.9262 15.8894L16.5047 16.4697H4.57417C3.54749 16.4697 2.71506 15.6373 2.71506 14.6106V2.16526C2.71506 1.13857 3.54749 0.306152 4.57417 0.306152H14.5771C15.6038 0.306152 16.4363 1.13857 16.4363 2.16526V14.6103C16.4363 15.1058 16.2423 15.5562 15.9262 15.8894Z"/>
<path fill-rule="evenodd" clip-rule="evenodd" d="M4.31497 14.3297V21.8353C4.31497 21.9783 4.43104 22.0944 4.57408 22.0944H14.5773C14.7201 22.0944 14.8362 21.9786 14.8362 21.8353V14.3297H16.4362V21.8353C16.4362 22.8617 15.6043 23.6944 14.5773 23.6944H4.57408C3.5474 23.6944 2.71497 22.862 2.71497 21.8353V14.3297H4.31497Z" />
<path d="M7.20968 3.98608H11.9417C12.2919 3.98608 12.5757 4.26983 12.5757 4.62008V9.35208C12.5757 9.70233 12.2919 9.98608 11.9417 9.98608H7.20968C6.85943 9.98608 6.57568 9.70233 6.57568 9.35208V4.62008C6.57568 4.26983 6.85943 3.98608 7.20968 3.98608Z"/>
<path fill-rule="evenodd" clip-rule="evenodd" d="M7.37568 4.78608V9.18608H11.7757V4.78608H7.37568ZM5.77568 4.62008C5.77568 3.828 6.4176 3.18608 7.20968 3.18608H11.9417C12.7338 3.18608 13.3757 3.828 13.3757 4.62008V9.35208C13.3757 10.1442 12.7338 10.7861 11.9417 10.7861H7.20968C6.4176 10.7861 5.77568 10.1442 5.77568 9.35208V4.62008Z"/>
<path fill-rule="evenodd" clip-rule="evenodd" d="M16.9046 3.53083C16.9046 3.089 17.2628 2.73083 17.7046 2.73083H19.6669C21.1087 2.73083 22.2851 3.90719 22.2851 5.34903V17.855C22.2851 18.9848 21.3534 19.8974 20.2171 19.8662C19.6616 19.8509 19.1925 19.6175 18.8533 19.2398C18.5324 18.8825 18.3557 18.4299 18.2751 17.9807L17.2608 13.098V13.0158C17.2608 12.7882 17.0763 12.6037 16.8487 12.6037H15.6365V11.0037H16.8487C17.929 11.0037 18.8105 11.8551 18.8587 12.9236L19.8467 17.6791L19.8488 17.6916C19.8927 17.9423 19.9746 18.0938 20.0438 18.1708C20.0978 18.231 20.1562 18.2639 20.261 18.2668C20.4944 18.2731 20.6851 18.0864 20.6851 17.855V5.34903C20.6851 4.79086 20.2251 4.33083 19.6669 4.33083H17.7046C17.2628 4.33083 16.9046 3.97266 16.9046 3.53083Z"/>
<path fill-rule="evenodd" clip-rule="evenodd" d="M18.2608 6.37931V3.53077H19.8608V6.37931C19.8608 7.04206 20.3981 7.57931 21.0608 7.57931H21.4851V9.17931H21.0608C19.5144 9.17931 18.2608 7.92571 18.2608 6.37931Z"/>
</g>
</g>
</g>
</g>
</g>
</g>
</svg>
