<?xml version="1.0" encoding="iso-8859-1"?>
<!-- Generator: Adobe Illustrator 19.0.0, SVG Export Plug-In . SVG Version: 6.00 Build 0)  -->
<svg version="1.1" id="Layer_1" xmlns="http://www.w3.org/2000/svg" xmlns:xlink="http://www.w3.org/1999/xlink" x="0px" y="0px"
	 viewBox="0 0 500 500" style="enable-background:new 0 0 500 500;" xml:space="preserve">
<path style="fill:#FF7093;" d="M250.026,393.483c-48.146-76.909-95.644-152.781-143.603-229.392c95.891,0,190.836,0,286.72,0
	C345.428,240.57,298.014,316.566,250.026,393.483z"/>
<path style="fill:#9E4B69;" d="M227.598,400.69C162.773,391.254,99.2,382,34.955,372.648
	c18.559-64.216,36.963-127.893,55.682-192.662C136.417,253.758,181.647,326.642,227.598,400.69z"/>
<path style="fill:#9E4B69;" d="M409.429,179.981c18.722,64.784,37.094,128.359,55.672,192.644
	c-64.156,9.351-127.805,18.627-192.645,28.078C318.304,326.821,363.528,253.946,409.429,179.981z"/>
<path style="fill:#A55271;" d="M386.289,141.222c-90.743,0-181.771,0-273.943,0c46.127-46.455,91.536-92.188,136.518-137.49
	C294.881,49.772,340.571,95.483,386.289,141.222z"/>
<path style="fill:#613B5A;" d="M82.509,403.581c51.925,7.29,103.849,14.58,156.013,21.904c0,22.839,0,45.266,0,68.603
	c-52.455-30.047-104.398-59.801-156.34-89.554C82.291,404.217,82.4,403.899,82.509,403.581z"/>
<path style="fill:#613B5A;" d="M417.966,404.442c-51.935,29.768-103.871,59.537-156.408,89.65c0-23.257,0-45.646,0-68.597
	c52.081-7.32,104.068-14.626,156.056-21.933C417.731,403.855,417.849,404.149,417.966,404.442z"/>
<path style="fill:#613B5A;" d="M310.793,31.128c49.119,24.321,98.238,48.642,148.063,73.313
	c-14.115,11.439-27.585,22.354-41.597,33.709c-35.787-35.462-71.438-70.788-107.089-106.115
	C310.378,31.732,310.585,31.43,310.793,31.128z"/>
<path style="fill:#613D5B;" d="M189.832,32.08c-35.543,35.216-71.085,70.433-107.014,106.032
	c-13.789-11.148-27.366-22.124-41.642-33.666c49.762-24.635,98.878-48.95,147.993-73.266C189.391,31.48,189.611,31.78,189.832,32.08
	z"/>
<path style="fill:#613B5A;" d="M72.162,157.049C59.223,203.473,46.34,249.7,33.456,295.927c-0.227-0.049-0.454-0.098-0.681-0.146
	c0-56.085,0-112.17,0-169.231C46.282,137.009,59.114,146.945,72.162,157.049z"/>
<path style="fill:#613B5A;" d="M427.894,157.074c12.999-10.082,25.825-20.03,39.33-30.503c0,57.001,0,113.075,0,169.149
	c-0.209,0.055-0.418,0.111-0.626,0.166C453.722,249.705,440.846,203.524,427.894,157.074z"/>
</svg>
