<?xml version="1.0" encoding="utf-8"?>
<!-- Generator: Adobe Illustrator 24.2.2, SVG Export Plug-In . SVG Version: 6.00 Build 0)  -->
<svg version="1.1" id="Layer_1" xmlns="http://www.w3.org/2000/svg" xmlns:xlink="http://www.w3.org/1999/xlink" x="0px" y="0px"
	 viewBox="0 0 500 500" style="enable-background:new 0 0 500 500;" xml:space="preserve">
<style type="text/css">
	.st0{fill:#2E2E2E;}
</style>
<path class="st0" d="M388.7,214l36.9-36.9L250.1,1.7L74.6,177.2l36.9,36.9l-36.9,36.9l36,36l-36,36l175.5,175.5l175.5-175.5
	l-36.9-36l36-36L388.7,214z M97.4,177.2L250.1,25.4l151.8,151.8l-24.6,24.6L250.1,74.5L122,201.7L97.4,177.2z M250.1,329.8l-79-79
	l79-79l79,79L250.1,329.8z M340.4,261.4L365,286L250.1,402.7L134.2,286.9l24.6-24.6l91.2,90.4L340.4,261.4z M250.1,147.3l-91.2,91.2
	L134.2,214L250.1,98.2L365.9,214l-25.4,24.6L250.1,147.3z M97.4,250l24.6-24.6l24.6,24.6L122,274.6L97.4,250z M401.8,322.8
	L250.1,475.5L97.4,322.8l24.6-24.6l127.2,127.2l127.2-127.2L401.8,322.8z M352.7,250l24.6-24.6l24.6,24.6l-24.6,24.6L352.7,250z"/>
</svg>
