<svg width="24" height="24" viewBox="0 0 24 24" fill="none" xmlns="http://www.w3.org/2000/svg">
<path fill-rule="evenodd" clip-rule="evenodd" d="M4.8183 11.3939C5.33711 11.3939 5.75769 11.8144 5.75769 12.3333V20.7878H18.9092V12.3333C18.9092 11.8144 19.3298 11.3939 19.8486 11.3939C20.3674 11.3939 20.788 11.8144 20.788 12.3333V21.7272C20.788 22.246 20.3674 22.6666 19.8486 22.6666H4.8183C4.29949 22.6666 3.87891 22.246 3.87891 21.7272V12.3333C3.87891 11.8144 4.29949 11.3939 4.8183 11.3939Z" fill="black"/>
<path fill-rule="evenodd" clip-rule="evenodd" d="M2 7.63635C2 7.11754 2.42058 6.69696 2.93939 6.69696H21.7273C22.2461 6.69696 22.6667 7.11754 22.6667 7.63635V12.3333C22.6667 12.8521 22.2461 13.2727 21.7273 13.2727H2.93939C2.42058 13.2727 2 12.8521 2 12.3333V7.63635ZM3.87879 8.57575V11.3939H20.7879V8.57575H3.87879Z" fill="black"/>
<path fill-rule="evenodd" clip-rule="evenodd" d="M12.3339 6.69696C12.8527 6.69696 13.2733 7.11754 13.2733 7.63635V21.7273C13.2733 22.2461 12.8527 22.6667 12.3339 22.6667C11.8151 22.6667 11.3945 22.2461 11.3945 21.7273V7.63635C11.3945 7.11754 11.8151 6.69696 12.3339 6.69696Z" fill="black"/>
<path fill-rule="evenodd" clip-rule="evenodd" d="M8.10624 3.87879C7.73253 3.87879 7.37412 4.02725 7.10986 4.2915C6.84561 4.55576 6.69715 4.91417 6.69715 5.28788C6.69715 5.66159 6.84561 6.02 7.10986 6.28426C7.37412 6.54851 7.73253 6.69697 8.10624 6.69697H11.0691C10.9544 6.39694 10.8093 6.06703 10.6297 5.74059C10.0389 4.66632 9.22778 3.87879 8.10624 3.87879ZM12.3335 7.63637C13.2547 7.45214 13.2546 7.45181 13.2545 7.45148L13.2544 7.45071L13.254 7.44884L13.253 7.44382L13.2498 7.42869C13.2472 7.41639 13.2436 7.39968 13.239 7.37886C13.2297 7.33724 13.2162 7.27907 13.1981 7.20671C13.1619 7.06218 13.1072 6.85989 13.0309 6.61887C12.8793 6.14021 12.6372 5.49205 12.2759 4.83517C11.5751 3.56095 10.2726 2 8.10624 2C7.23424 2 6.39795 2.3464 5.78136 2.963C5.16476 3.57959 4.81836 4.41588 4.81836 5.28788C4.81836 6.15988 5.16476 6.99616 5.78136 7.61276C6.39795 8.22936 7.23424 8.57576 8.10624 8.57576H12.3335C12.615 8.57576 12.8816 8.44958 13.06 8.23193C13.2384 8.01428 13.3099 7.72811 13.2547 7.45214L12.3335 7.63637Z" fill="black"/>
<path fill-rule="evenodd" clip-rule="evenodd" d="M12.3915 4.83517C13.0923 3.56095 14.3949 2 16.5612 2C17.4332 2 18.2695 2.3464 18.8861 2.963C19.5027 3.57959 19.8491 4.41588 19.8491 5.28788C19.8491 6.15988 19.5027 6.99616 18.8861 7.61276C18.2695 8.22936 17.4332 8.57576 16.5612 8.57576H12.3339C12.0525 8.57576 11.7859 8.44958 11.6075 8.23193C11.429 8.01428 11.3576 7.72811 11.4128 7.45214L12.3339 7.63637C11.4128 7.45214 11.4128 7.45181 11.4129 7.45148L11.4131 7.45071L11.4134 7.44884L11.4145 7.44382L11.4176 7.42869C11.4202 7.41639 11.4238 7.39968 11.4285 7.37886C11.4378 7.33724 11.4513 7.27907 11.4694 7.20671C11.5055 7.06218 11.5602 6.85989 11.6365 6.61887C11.7881 6.14021 12.0302 5.49205 12.3915 4.83517ZM13.5983 6.69697H16.5612C16.9349 6.69697 17.2933 6.54851 17.5576 6.28426C17.8218 6.02 17.9703 5.66159 17.9703 5.28788C17.9703 4.91417 17.8218 4.55576 17.5576 4.2915C17.2933 4.02725 16.9349 3.87879 16.5612 3.87879C15.4397 3.87879 14.6286 4.66632 14.0377 5.74059C13.8582 6.06703 13.713 6.39694 13.5983 6.69697ZM13.2548 7.82218C13.2547 7.82243 13.2547 7.8224 13.2548 7.8221L13.2548 7.82218Z" fill="black"/>
</svg>
