<svg width="24" height="24" viewBox="0 0 24 24" fill="currentColor" xmlns="http://www.w3.org/2000/svg">
<path d="M22 10.921L19.26 9.33102C21.9 7.08102 19.25 2.88102 16.08 4.31102L15.21 4.68102L15.1 3.72102C15 2.64102 14.44 1.87102 13.7 1.42102C12.06 0.468024 9.56 1.12102 9.16 3.50102L6.41 1.92102C5.45 1.36102 4.23 1.69102 3.68 2.65102L2.68 4.38102C2.4 4.86102 2.57 5.47102 3.05 5.75102L10.84 10.251L12.34 7.65102L14.07 8.65102L12.57 11.251L20.36 15.751C20.84 16.001 21.46 15.861 21.73 15.381L22.73 13.651C23.28 12.691 22.96 11.471 22 10.921ZM12.37 5.00102C11.5 5.25102 10.8 4.32102 11.24 3.55102C11.5 3.07102 12.13 2.91102 12.61 3.18102C13.38 3.63102 13.23 4.79102 12.37 5.00102ZM17.56 8.00102C16.7 8.25102 16 7.32102 16.44 6.55102C16.71 6.07102 17.33 5.91102 17.8 6.18102C18.57 6.63102 18.42 7.79102 17.56 8.00102ZM20.87 16.881C21.28 16.881 21.67 16.741 22 16.501V20.001C22 21.111 21.11 22.001 20 22.001H4C3.46957 22.001 2.96086 21.7903 2.58579 21.4152C2.21071 21.0402 2 20.5315 2 20.001V11.001H10.15L11 11.501V20.001H13V12.651L19.87 16.611C20.17 16.791 20.5 16.881 20.87 16.881Z" />
</svg>
