<svg width="24" height="24" viewBox="0 0 24 24" fill="none" xmlns="http://www.w3.org/2000/svg">
<path d="M3.79545 19.1372H6.81818V11.7963L2.5 8.55768V17.8418C2.5 18.5586 3.0808 19.1372 3.79545 19.1372Z" fill="#4285F4"/>
<path d="M17.1816 19.1372H20.2044C20.9212 19.1372 21.4998 18.5564 21.4998 17.8418V8.55768L17.1816 11.7963" fill="#34A853"/>
<path d="M17.1816 6.18267V11.7963L21.4998 8.55768V6.8304C21.4998 5.22836 19.6711 4.31506 18.3907 5.27586" fill="#FBBC04"/>
<path d="M6.81818 11.7963L6.81836 6.18268L12.0002 10.069L17.1816 6.18267V11.7963L12.0002 15.6827" fill="#EA4335"/>
<path d="M2.5 6.83034V8.55768L6.81818 11.7963L6.81836 6.18268L5.60909 5.2758C4.32659 4.315 2.5 5.2283 2.5 6.83034Z" fill="#C5221F"/>
</svg>
