<?xml version="1.0" encoding="iso-8859-1"?>
<!-- Generator: Adobe Illustrator 19.0.0, SVG Export Plug-In . SVG Version: 6.00 Build 0)  -->
<svg version="1.1" id="Layer_1" xmlns="http://www.w3.org/2000/svg" xmlns:xlink="http://www.w3.org/1999/xlink" x="0px" y="0px"
	 viewBox="0 0 500 500" style="enable-background:new 0 0 500 500;" xml:space="preserve">
<path style="fill:#039DBD;" d="M269.09,268.223c20.161,10.321,34.689,8.87,47.524-4.049c9.552-9.614,15.397-29.566,3.141-45.708
	c2.575-2.576,5.146-5.149,7.714-7.719c20.314,27.948,24.644,79.023-9.989,115.606c-37.13,39.219-97.846,39.577-135.781,0.454
	c-35.756-36.877-30.51-88.198-10.521-116.126c2.783,2.881,5.553,5.748,8.342,8.635c-10.024,17.164-8.45,33.431,6.425,46.851
	c13.21,11.918,28.332,12.4,43.716,2.92c6.293,6.5,12.618,13.032,19.37,20.006C256.122,281.715,262.683,274.889,269.09,268.223z"/>
<path style="fill:#039DBD;" d="M144.514,237.95c-6.442,32.125-0.233,61.27,19.058,88.157c-5.344-0.602-10.153-1.098-14.951-1.691
	c-23.479-2.901-46.635-7.327-68.989-15.259c-20.017-7.103-38.724-16.518-53.969-31.772c-10.655-10.661-18.06-23.226-22.152-37.737
	c-0.09-0.321-0.164-0.652-0.194-0.983c-0.017-0.185,0.073-0.379,0.147-0.715C50.369,237.95,97.275,237.95,144.514,237.95z"/>
<path style="fill:#039DBD;" d="M495.864,238.023c-1.721,4.639-3.134,9.087-4.99,13.343c-8.769,20.111-24.075,34.067-42.757,44.677
	c-24.622,13.983-51.554,20.993-79.213,25.569c-10.504,1.738-21.111,2.856-31.673,4.245c-0.495,0.065-1.005,0.008-2.082,0.008
	c9.528-12.865,15.881-26.7,19.12-41.906c3.243-15.225,3.108-30.469-0.184-45.936C401.304,238.023,448.253,238.023,495.864,238.023z"
	/>
<path style="fill:#039DBD;" d="M249.232,273.871c-25.26-25.287-50.729-50.783-76.505-76.585
	c19.895-22.333,44.73-34.681,74.984-35.112c31.501-0.449,57.428,11.875,78.239,35.064
	C300.148,223.011,274.668,248.463,249.232,273.871z M249.378,260.958c21.176-21.133,42.31-42.224,63.723-63.593
	c-20.622-19.214-44.714-27.993-72.674-25.436c-21.225,1.941-39.386,10.707-54.675,25.334
	C207.134,218.668,228.205,239.762,249.378,260.958z"/>
<path style="fill:#039DBD;" d="M282.5,255.676c9.024-8.892,17.96-17.696,26.926-26.53c5.987,4.769,5.844,17.974-0.568,25.002
	C302.115,261.54,288.811,262.362,282.5,255.676z"/>
<path style="fill:#039DBD;" d="M190.024,229.97c8.866,8.901,17.663,17.732,26.462,26.565c-5.214,5.385-17.499,4.876-23.937-1.176
	C185.446,248.684,184.276,236.445,190.024,229.97z"/>
</svg>
