<?xml version="1.0" encoding="iso-8859-1"?>
<!-- Generator: Adobe Illustrator 19.0.0, SVG Export Plug-In . SVG Version: 6.00 Build 0)  -->
<svg version="1.1" id="Layer_1" xmlns="http://www.w3.org/2000/svg" xmlns:xlink="http://www.w3.org/1999/xlink" x="0px" y="0px"
	 viewBox="1000 -1000 2500 2500" style="enable-background:new 1000 -1000 2500 2500;" xml:space="preserve">
<circle style="fill:#002D64;" cx="2250" cy="250" r="1230.049"/>
<path style="fill:#FFFFFF;" d="M2479.773,65.493c60.764-60.764,93.73-140.718,93.73-226.821
	c-0.004-75.167-26.384-147.95-74.541-205.664l186.475-186.475l-41.576-40.346l-186.475,186.475
	c-57.566-47.972-128.909-74.541-204.434-74.541c-177.157,0.121-320.674,143.834-320.553,320.992
	c0.058,84.89,33.764,166.296,93.732,226.38c53.138,53.138,122.513,86.349,197.054,92.746v236.415
	c-74.705,6.196-144.67,39.126-197.054,92.746c-124.972,125.393-124.972,328.249,0,453.642
	c60.764,60.764,140.718,93.73,226.821,93.73c85.081,0.256,166.74-33.487,226.821-93.73c60.764-60.764,93.73-140.718,93.73-226.821
	s-32.966-166.057-93.73-226.821c-53.138-53.138-122.513-86.349-197.054-92.746V158.238
	C2357.438,152.094,2427.42,119.156,2479.773,65.493 M2438.198,528.729c48.956,49.94,76.755,115.133,76.755,185.245
	c0.112,69.507-27.516,136.186-76.755,185.245c-48.956,49.94-115.133,76.755-185.245,76.755
	c-69.507,0.112-136.186-27.516-185.245-76.755c-48.956-49.94-76.755-115.133-76.755-185.245
	c-0.112-69.507,27.516-136.186,76.755-185.245c48.956-49.94,115.133-76.755,185.245-76.755
	C2323.311,452.22,2389.242,478.789,2438.198,528.729 M2252.952,101.656c-69.507,0.112-136.186-27.516-185.245-76.755
	c-48.956-49.94-76.755-115.133-76.755-185.245c-0.066-69.498,27.555-136.16,76.755-185.245
	c48.956-49.94,115.133-76.755,185.245-76.755c69.507-0.112,136.186,27.516,185.245,76.755
	c49.94,48.956,76.755,115.133,76.755,185.245c0.112,69.507-27.516,136.186-76.755,185.245
	C2389.241,75.087,2323.311,101.656,2252.952,101.656"/>
</svg>
