<?xml version="1.0" encoding="iso-8859-1"?>
<!-- Generator: Adobe Illustrator 19.0.0, SVG Export Plug-In . SVG Version: 6.00 Build 0)  -->
<svg version="1.1" id="Layer_2" xmlns="http://www.w3.org/2000/svg" xmlns:xlink="http://www.w3.org/1999/xlink" x="0px" y="0px"
	 viewBox="0 0 500 500" style="enable-background:new 0 0 500 500;" xml:space="preserve">
<polygon style="fill:#11466B;" points="413.859,158.386 252.038,158.386 169.787,299.047 221.641,299.047 277.071,203.982 
	388.23,203.982 442.766,299.047 387.634,394.411 281.759,394.676 249.999,345.239 248.415,345.239 202.338,355.846 249.999,439.709 
	414.455,439.709 495.514,299.047 "/>
<polygon style="fill:#203361;" points="196.31,345.239 202.338,355.846 248.415,345.239 "/>
<polygon style="fill:#F6C329;" points="330.649,203.982 277.071,203.982 267.169,220.965 330.172,204.816 "/>
<polygon style="fill:#F8DC1A;" points="267.169,220.965 221.641,299.047 113.275,299.047 58.041,203.898 113.44,109.128 
	223.031,108.883 252.038,158.386 303.923,158.386 248.332,62.558 87.262,62.558 4.589,203.982 86.193,345.239 249.999,345.239 
	330.172,204.816 "/>
</svg>
