<?xml version="1.0" encoding="utf-8"?>
<!-- Generator: Adobe Illustrator 25.1.0, SVG Export Plug-In . SVG Version: 6.00 Build 0)  -->
<svg version="1.1" id="goc" xmlns="http://www.w3.org/2000/svg" xmlns:xlink="http://www.w3.org/1999/xlink" x="0px" y="0px"
	 viewBox="0 0 500 500" style="enable-background:new 0 0 500 500;" xml:space="preserve">
<style type="text/css">
	.st0{fill:#FBE300;}
	.st1{fill-rule:evenodd;clip-rule:evenodd;fill:#00191B;}
</style>
<circle class="st0" cx="251.2" cy="249.8" r="246.8"/>
<path id="Fill-2" class="st1" d="M206.1,276c-24.3,0-44,19.8-44,44.1c0,2.4,0.2,4.7,0.6,7h24.2c-0.8-2.2-1.3-4.5-1.3-7
	c0-11.3,9.2-20.6,20.5-20.6c11.3,0,20.5,9.2,20.5,20.6c0,2.5-0.5,4.8-1.3,7h24.2c0.4-2.3,0.6-4.6,0.6-7
	C250.1,295.8,230.4,276,206.1,276"/>
<path id="Fill-4" class="st1" d="M383.6,291.4c-9-1.5-17.6,2.7-22.2,10c-0.9,5.6-2.1,11.2-3.7,16.6c-1.8,6.2,1.8,12.8,8,14.6
	c1.1,0.3,2.2,0.5,3.3,0.5c5.1,0,9.8-3.4,11.3-8.5c3-10.6,5-21.5,5.9-32.5C385.3,291.8,384.5,291.6,383.6,291.4"/>
<path id="Fill-6" class="st1" d="M304.7,223.2c6.5,0,11.7-5.3,11.7-11.8c0-6.5-5.3-11.8-11.7-11.8s-11.7,5.3-11.7,11.8
	C292.9,217.9,298.2,223.2,304.7,223.2"/>
<path id="Fill-8" class="st1" d="M427.8,260.6c-1.3-3.7-5.4-5.5-9-4.2l0,0c-10.5,3.8-21.5,6.2-32.5,7.2
	c-3.8-44.7-25.1-88.3-57.6-116.4c-27.3-23.6-59.9-34-92-29.3c-36.7,5.4-62.3,32.2-62.3,65.1c0,25.6,15.1,47.8,36.9,58l18-18.5
	c-18-4.1-31.4-20.3-31.4-39.5c0-17.2,13.2-37.6,42.2-41.9c32.3-4.8,57.6,10.3,73.2,23.8c27.4,23.8,45.6,60.5,49.3,98.5
	c-17.7-1.7-34.8-7.1-49.9-15.6c-2.3-1.3-5.1-1.8-7.9-1.3c-6.2,1.2-10.3,7.3-9,13.5l0.1,0.7c4,18.2,3.8,37.4-0.4,55.5
	c-0.8,3.6-1.9,7.2-3,10.7h24.5c0.5-1.8,0.9-3.6,1.4-5.3c3.5-14.9,4.6-30.2,3.5-45.4c13.6,4.1,27.7,6.1,41.7,6.2
	c21,0.1,41.8-4.5,60.6-13.1C427.4,268,429,264.1,427.8,260.6"/>
<path id="Fill-10" class="st1" d="M161.7,189c1.6-3.2,2.5-6.6,2.5-10.2c0-6-2.1-11.6-5.8-16.3c-41.9,26.9-68.4,73.9-68.4,125.3
	c0,13.4,1.8,26.6,5.3,39.4h24.5c-4.2-12.6-6.3-25.8-6.3-39.4C113.4,248.5,131.8,212.3,161.7,189"/>
</svg>
