<?xml version="1.0" encoding="iso-8859-1"?>
<!-- Generator: Adobe Illustrator 19.0.0, SVG Export Plug-In . SVG Version: 6.00 Build 0)  -->
<svg version="1.1" id="Layer_1" xmlns="http://www.w3.org/2000/svg" xmlns:xlink="http://www.w3.org/1999/xlink" x="0px" y="0px"
	 viewBox="0 0 500 500" style="enable-background:new 0 0 500 500;" xml:space="preserve">
<path style="fill:#4AACF5;" d="M469.067,233.459c0.157,3.262,0.375,5.707,0.376,8.153c0.021,39.714-0.161,79.428,0.13,119.14
	c0.078,10.709-4.182,17.813-13.332,23.084c-63.327,36.488-126.582,73.103-189.761,109.847c-9.049,5.263-17.348,4.738-26.122-0.372
	c-30.997-18.053-158.61-92.097-191.591-110.76c-9.886-5.594-14.587-12.627-14.533-24.331c0.339-72.656,0.301-145.315,0.022-217.972
	c-0.04-10.535,3.943-17.317,12.901-22.479c54.728-31.535,109.318-63.312,163.959-94.998c10.147-5.884,20.304-11.753,30.483-17.581
	c9.842-5.635,18.911-3.124,28.036,2.249c24.49,14.423,140.899,81.686,174.424,101.217c13.332,7.767,13.548,18.407,0.301,26.202
	c-30.914,18.191-62.044,36.011-93.006,54.121c-5.759,3.368-10.899,2.94-16.499-0.317c-24.179-14.061-78.17-44.979-81.454-46.828
	c-61.666,35.666-123.292,71.309-186.218,107.705c3.86,2.362,123.476,71.659,180.46,104.702c3.597,2.086,6.606,3.052,10.586,0.73
	c29.81-17.392,91.306-53.297,92.974-54.667c-6.767-7.474-36.36-39.372-44.559-48.072c-3.493-3.707-6.725-7.555-4.325-13.179
	c2.356-5.52,7.241-6.323,12.391-6.326c49.191-0.033,98.381-0.035,147.572-0.005C464.252,232.724,466.222,233.139,469.067,233.459z"
	/>
</svg>
