<svg aria-hidden="true" data-testid="test-icon" fill="currentColor" viewBox="0 0 24 24" xmlns="http://www.w3.org/2000/svg"><path fill-rule="evenodd" clip-rule="evenodd" d="M3 3.797c0-.44.357-.797.797-.797h6.38c.44 0 .798.357.798.797v6.38c0 .44-.357.798-.798.798h-6.38A.798.798 0 013 10.177v-6.38zm1.595.798V9.38H9.38V4.595H4.595zM13.025 3.797c0-.44.357-.797.798-.797h6.38c.44 0 .797.357.797.797v6.38c0 .44-.357.798-.797.798h-6.38a.798.798 0 01-.798-.798v-6.38zm1.595.798V9.38h4.785V4.595H14.62zM13.025 13.823c0-.44.357-.798.798-.798h6.38c.44 0 .797.357.797.798v6.38c0 .44-.357.797-.797.797h-6.38a.797.797 0 01-.798-.797v-6.38zm1.595.797v4.785h4.785V14.62H14.62zM3 13.823c0-.44.357-.798.797-.798h6.38c.44 0 .798.357.798.798v6.38c0 .44-.357.797-.798.797h-6.38A.797.797 0 013 20.203v-6.38zm1.595.797v4.785H9.38V14.62H4.595z"/></svg>
