<?xml version="1.0" encoding="utf-8"?>
<!-- Generator: Adobe Illustrator 23.0.2, SVG Export Plug-In . SVG Version: 6.00 Build 0)  -->
<svg version="1.1" id="Layer_1" xmlns:serif="http://www.serif.com/"
	 xmlns="http://www.w3.org/2000/svg" xmlns:xlink="http://www.w3.org/1999/xlink" x="0px" y="0px" viewBox="0 0 500 500"
	 style="enable-background:new 0 0 500 500;" xml:space="preserve">
<style type="text/css">
	.st0{fill-rule:evenodd;clip-rule:evenodd;}
	.st1{fill-rule:evenodd;clip-rule:evenodd;fill:#FEF102;}
</style>
<g transform="matrix(1.03804,0,0,1.03804,-19.1739,-16.0598)">
	<g id="Layer1">
		<circle class="st0" cx="259.3" cy="256.3" r="237.9"/>
	</g>
</g>
<g transform="matrix(1.06897,0,0,1.06897,-29.7347,-25.25)">
	<g id="Layer2">
		<circle class="st1" cx="261.2" cy="257.5" r="206.3"/>
	</g>
</g>
<g transform="matrix(1,0,0,1,0.208873,-2)">
	<path d="M353.8,169.2c-5.3-11.8-10.2-35.1-23.7-40.3c-17.4-6.7-28.1,37-30.7,48.1h-2.6c-4.4-18.9-10.3-45.8-31-51.7
		c-9.6,40.4,10.1,84,28.5,119c19.6-9.4,29.2-38.8,31-59.5h2.6l20.7,62.1c16.6-4.8,22.4-21.3,28.4-36.2c12.9-32.1,23.7-71.6,15.5-106
		C367.7,111.6,360.2,147.1,353.8,169.2 M105.5,252c22.2-10.6,32.8-44.2,36.2-67.2h2.6c2.6,11.1,9.7,39.7,23.5,41.6
		c17.7,2.3,26.9-36.9,28.2-49.3h2.6c5.6,19.5,11.6,44.8,31,54.3c7.2-30.2-1.4-62.3-12.4-90.5c-2.8-7.3-8.7-26.8-18.7-26.8
		c-16.4,0-25.6,43.2-28.4,55.3h-2.6l-20.7-62.1C110.5,124.5,90.7,217,105.5,252 M66.7,283c27,117.8,151.6,184.6,263.8,134.9
		c40.8-18.1,73.2-50.4,91.9-90.9c4.8-10.5,14.3-29.4,8.8-43.1c-5.5-13.7-58.9,8.7-72.2,14.5c-1.9,0.8-3.2,2.6-3.5,4.6l0,0
		c-0.4,2.9,0.3,5.8,2.1,8.1c1.8,2.3,4.5,3.7,7.4,3.9c9.8,0.8,22.4,1.7,22.4,1.7c-40.6,78.5-150.3,113.3-227.6,50.5
		c-17.3-14-32.7-30.7-43.1-50.5c-5-9.6-9.7-21.8-18.2-28.4C90.2,282,77.8,279.8,66.7,283z"/>
</g>
</svg>
