<?xml version="1.0" encoding="iso-8859-1"?>
<!-- Generator: Adobe Illustrator 19.0.0, SVG Export Plug-In . SVG Version: 6.00 Build 0)  -->
<svg version="1.1" id="Layer_1" xmlns="http://www.w3.org/2000/svg" xmlns:xlink="http://www.w3.org/1999/xlink" x="0px" y="0px"
	 viewBox="0 0 500 500" style="enable-background:new 0 0 500 500;" xml:space="preserve">
<g>
	<path style="fill:#FBFCFC;" d="M385.127,452.053c-6.658,4.912-13.736,9.125-21.199,12.693c-0.116-5.231,0.953-10.667-2.651-15.293
		c-2.747-7.177-9.152-9.768-15.605-11.947c-6.885-2.326-14.111-3.372-21.345-3.97c-43.146-3.566-86.581-2.565-129.598-8.194
		c-2.017-0.264-3.876-0.254-5.423,1.488c-9.221,10.382-18.181,20.924-22.671,34.418c-2.644,5.196-3.031,10.743-2.548,16.424
		c-9.485-2.911-18.388-7.151-27.087-11.856c1.766-5.562,6.643-8.981,9.502-13.79c9.341-9.784,18.681-19.567,28.123-29.457
		c-5.053-3.59-9.464-6.51-13.642-9.732c-13.779-10.625-16.365-21.796-9.304-37.811c5.491-12.454,14.832-21.767,24.446-30.887
		c5.363-5.087,10.911-9.978,16.78-15.326c-2.398-1.498-4.021-2.559-5.687-3.547c-45.055-26.695-57.53-86.518-26.616-128.743
		c26.937-36.794,64.581-46.49,107.656-41.48c15.677,1.823,30.283,7.258,43.815,15.511c9.155-8.113,16.969-16.786,24.519-25.656
		c11.343-13.327,21.723-27.315,25.426-44.984c4.032-19.232-5.355-36.198-22.071-40.097c-13.919-3.247-28.186,4.13-35.482,18.085
		c-1.23,2.353-1.082,6.622-5.664,5.777c-1.322-1.516-0.633-3.036-0.35-4.512c4.619-24.086,19.086-36.312,44.066-37.253
		c1.246,1.003,2.633,1.048,4.093,0.602c0.905,0.116,1.811,0.231,2.716,0.347c9.068,2.354,16.9,6.844,23.438,13.568
		c11.963,15.178,11.135,31.323,3.408,47.85c-6.702,14.335-16.461,26.53-27.201,38.011c-10.004,10.695-19.936,21.458-31.121,33.506
		c19.263-0.383,36.785,0.89,54.265-0.884c5.207-0.528,9.319-3.78,12.547-7.939c1.308-1.684,2.336-3.965,5.894-1.98
		c-4.266,12.256-8.552,24.567-12.944,37.183c-13.104,0-25.529,0-38.664,0c1.115,2.291,1.814,3.856,2.62,5.365
		c9.994,18.714,11.802,38.857,8.242,59.17c-6.103,34.833-34.659,62.43-70.907,70.117c-23.703,5.026-47.247,4.135-70.833-2.348
		c-8.748,7.011-16.457,14.723-20.238,25.553c-3.062,8.769,0.029,15.771,8.625,19.241c3.239,1.307,6.714,2.179,10.163,2.79
		c9.999,1.772,20.137,2.137,30.262,2.425c28.403,0.81,56.847,1.135,85.113,4.253c28.922,3.19,51.924,15.081,61.74,44.843
		C384.688,439.705,385.598,445.827,385.127,452.053z M300.702,261.172c0.025-25.993-3.289-47.798-15.158-67.519
		c-8.093-13.447-19.128-23.208-35.373-24.887c-26.249-2.712-46.267,12.338-52.993,39.207c-3.691,14.743-3.695,29.742-2.453,44.67
		c1.665,20.01,6.637,39.039,19.591,55.183c22.684,28.27,66.13,22.202,80.089-11.239C299.602,284.14,300.871,271.067,300.702,261.172
		z"/>
	<path style="fill:#829FAA;" d="M146.503,452.027c-2.859,4.809-7.736,8.228-9.502,13.79c-18.703-8.356-34.955-20.432-50.083-33.958
		c-40.359-36.085-66.255-80.755-77.232-133.761c-5.252-25.36-5.832-51.036-3.071-76.873c4.845-45.33,21.125-85.95,49.108-121.827
		c34.951-44.81,79.606-75.304,135.235-87.962c91.589-20.841,171.422,2.071,236.707,69.459
		c48.391,49.95,70.19,111.273,66.245,180.875c-4.518,79.711-40.891,142.118-105.294,188.632c-1.026,0.741-2.32,1.11-3.489,1.652
		c0.471-6.226-0.439-12.348-1.391-18.466c10.074-3.614,16.819-11.779,24.316-18.626c14.646-13.379,26.71-29.01,37.28-45.872
		c19.405-30.955,30.623-64.732,33.466-100.906c1.77-22.52,1.057-45.282-3.914-67.577c-12.014-53.887-39.764-98.048-82.87-132.411
		c-5.8-4.623-10.987-10.902-19.249-11.764c-6.539-6.724-14.37-11.214-23.438-13.567c-0.419-0.725-0.67-1.862-1.283-2.113
		c-8.942-3.662-17.749-7.794-26.946-10.669c-31.139-9.735-62.931-13.161-95.529-9.644c-21.777,2.349-42.911,7.233-62.97,15.659
		C118.337,54.69,82.835,84.008,56.67,124.584c-24.12,37.405-35.475,78.556-36.656,122.621c-0.356,13.287,1.484,26.622,3.609,39.862
		c4.629,28.835,15.042,55.466,29.93,80.363c15.986,26.733,36.816,49.244,62.234,67.227
		C125.364,441.434,134.593,449.212,146.503,452.027z"/>
	<path style="fill:#829FAA;" d="M361.277,449.453c3.605,4.626,2.536,10.062,2.651,15.293c-14.986,9.488-31.561,15.381-48.484,19.882
		c-49.062,13.047-97.861,11.996-146.102-4.495c-1.85-0.632-3.853-0.889-5.254-2.46c-0.483-5.681-0.097-11.228,2.548-16.424
		c1.06,1.569,2.749,2.104,4.408,2.703c13.612,4.912,27.398,8.921,41.826,10.955c27.386,3.861,54.63,3.778,81.811-1.329
		C318.177,469.163,340.282,460.818,361.277,449.453z"/>
	<path style="fill:#6590A1;" d="M146.503,452.027c-11.91-2.815-21.138-10.592-30.716-17.369
		c-25.418-17.983-46.248-40.494-62.234-67.227c-14.888-24.897-25.301-51.529-29.93-80.363c-2.126-13.241-3.966-26.575-3.609-39.862
		c1.181-44.065,12.537-85.216,36.656-122.621c26.165-40.576,61.667-69.894,105.928-88.486c20.059-8.426,41.193-13.31,62.97-15.659
		c32.598-3.517,64.389-0.091,95.529,9.644c9.197,2.875,18.004,7.007,26.946,10.669c0.613,0.251,0.864,1.389,1.283,2.113
		c-0.906-0.116-1.811-0.231-2.716-0.346c-1.236-1.071-2.667-0.822-4.094-0.603c-24.98,0.941-39.446,13.167-44.066,37.253
		c-0.283,1.476-0.972,2.996,0.35,4.512c4.582,0.844,4.434-3.424,5.664-5.777c7.296-13.954,21.563-21.332,35.482-18.085
		c16.716,3.9,26.103,20.866,22.071,40.097c-3.704,17.668-14.084,31.656-25.426,44.984c-7.549,8.871-15.363,17.543-24.519,25.656
		c-13.531-8.253-28.137-13.687-43.815-15.511c-43.075-5.01-80.719,4.686-107.656,41.48
		c-30.913,42.225-18.439,102.048,26.616,128.743c1.666,0.987,3.289,2.048,5.687,3.547c-5.869,5.348-11.417,10.239-16.78,15.326
		c-9.614,9.12-18.955,18.433-24.446,30.887c-7.061,16.015-4.474,27.186,9.304,37.811c4.178,3.222,8.589,6.141,13.642,9.732
		C165.184,432.459,155.843,442.243,146.503,452.027z"/>
	<path style="fill:#6590A1;" d="M372.764,56.432c8.262,0.863,13.449,7.141,19.249,11.764c43.106,34.362,70.856,78.523,82.87,132.411
		c4.97,22.294,5.684,45.057,3.914,67.577c-2.843,36.174-14.061,69.95-33.466,100.906c-10.57,16.861-22.634,32.493-37.28,45.872
		c-7.496,6.848-14.242,15.012-24.316,18.626c-9.816-29.761-32.818-41.652-61.74-44.842c-28.266-3.118-56.709-3.444-85.113-4.253
		c-10.125-0.289-20.263-0.654-30.262-2.425c-3.449-0.611-6.924-1.483-10.163-2.79c-8.596-3.469-11.687-10.472-8.625-19.241
		c3.781-10.829,11.49-18.542,20.238-25.553c23.586,6.483,47.13,7.374,70.833,2.348c36.248-7.687,64.804-35.283,70.907-70.117
		c3.559-20.313,1.751-40.456-8.242-59.17c-0.806-1.508-1.505-3.074-2.62-5.365c13.135,0,25.56,0,38.664,0
		c4.392-12.616,8.677-24.927,12.944-37.183c-3.558-1.985-4.586,0.296-5.894,1.98c-3.229,4.159-7.34,7.41-12.547,7.939
		c-17.481,1.774-35.003,0.501-54.265,0.884c11.185-12.048,21.116-22.811,31.121-33.506c10.74-11.481,20.5-23.676,27.201-38.011
		C383.899,87.755,384.727,71.61,372.764,56.432z"/>
	<path style="fill:#6590A1;" d="M300.702,261.172c0.168,9.895-1.1,22.967-6.296,35.415c-13.96,33.441-57.405,39.509-80.089,11.239
		c-12.954-16.144-17.926-35.173-19.591-55.183c-1.242-14.928-1.238-29.927,2.453-44.67c6.726-26.869,26.744-41.92,52.993-39.207
		c16.245,1.679,27.281,11.44,35.373,24.887C297.413,213.374,300.728,235.18,300.702,261.172z"/>
	<path style="fill:#6590A1;" d="M361.277,449.453c-20.995,11.365-43.1,19.711-66.596,24.125
		c-27.181,5.106-54.425,5.189-81.811,1.329c-14.428-2.034-28.215-6.043-41.826-10.955c-1.659-0.599-3.348-1.134-4.408-2.703
		c4.49-13.494,13.45-24.037,22.671-34.419c1.547-1.742,3.406-1.752,5.423-1.488c43.017,5.629,86.452,4.627,129.598,8.194
		c7.234,0.598,14.46,1.644,21.345,3.97C352.125,439.685,358.529,442.276,361.277,449.453z"/>
	<path style="fill:#829FAA;" d="M342.517,41.916c1.427-0.219,2.858-0.468,4.094,0.603C345.15,42.964,343.763,42.919,342.517,41.916z
		"/>
</g>
</svg>
