<?xml version="1.0" encoding="utf-8"?>
<!-- Generator: Adobe Illustrator 25.0.1, SVG Export Plug-In . SVG Version: 6.00 Build 0)  -->
<svg version="1.1" id="grt" xmlns="http://www.w3.org/2000/svg" xmlns:xlink="http://www.w3.org/1999/xlink" x="0px" y="0px"
	 viewBox="0 0 500 500" style="enable-background:new 0 0 500 500;" xml:space="preserve">
<style type="text/css">
	.st0{fill-rule:evenodd;clip-rule:evenodd;}
</style>
<path id="Fill-19" class="st0" d="M222.1,277.8C160.7,277.8,111,228,111,166.7c0-61.4,49.7-111.1,111.1-111.1
	c61.4,0,111.1,49.7,111.1,111.1C333.2,228,283.5,277.8,222.1,277.8 M222.1,0c92,0,166.7,74.6,166.7,166.7s-74.6,166.7-166.7,166.7
	c-92,0-166.7-74.6-166.7-166.7S130.1,0,222.1,0z M380.6,341.5c10.8,10.8,10.8,28.4,0,39.3L269.5,491.9c-10.8,10.8-28.4,10.8-39.3,0
	c-10.8-10.8-10.8-28.4,0-39.3l111.1-111.1C352.2,330.6,369.8,330.6,380.6,341.5z M444.3,27.8c0,15.3-12.4,27.8-27.8,27.8
	c-15.3,0-27.8-12.4-27.8-27.8S401.2,0,416.6,0C431.9,0,444.3,12.4,444.3,27.8z"/>
</svg>
