<?xml version="1.0" encoding="iso-8859-1"?>
<!-- Generator: Adobe Illustrator 19.0.0, SVG Export Plug-In . SVG Version: 6.00 Build 0)  -->
<svg version="1.1" id="Layer_1" xmlns="http://www.w3.org/2000/svg" xmlns:xlink="http://www.w3.org/1999/xlink" x="0px" y="0px"
	 viewBox="0 0 500 500" style="enable-background:new 0 0 500 500;" xml:space="preserve">
<linearGradient id="SVGID_1_" gradientUnits="userSpaceOnUse" x1="71.6406" y1="419.965" x2="266.9104" y2="233.0587">
	<stop  offset="0" style="stop-color:#FF8402"/>
	<stop  offset="0.9995" style="stop-color:#FF005A"/>
</linearGradient>
<path style="fill:url(#SVGID_1_);" d="M496.042,4.374c-0.407,29.614-12.002,52.642-33.623,70.693
	c-16.986,14.181-36.913,21.008-58.991,21.068c-50.9,0.139-101.8,0.078-152.7,0.085C160.103,96.232,88.47,176.704,99.04,266.635
	c9.882,84.08,82.017,143.537,166.326,137.094c75.118-5.741,135.386-69.56,136.876-144.959c0.163-8.244,0.176-16.492,0.384-24.735
	c0.141-5.583-2.006-8.297-8.006-8.278c-47.203,0.146-94.407-0.073-141.608,0.253c-15.252,0.106-27.313,13.79-27.183,29.388
	c0.129,15.519,13.425,28.783,29.841,28.993c23.598,0.302,47.202,0.101,70.804,0.114c3.051,0.002,6.101,0,10.13,0
	c-0.791,3.005-0.997,4.886-1.756,6.507c-16.329,34.879-51.792,55.113-91.861,52.484c-37.192-2.44-70.103-28.363-81.366-64.091
	c-19.834-62.915,25.394-124.54,91.445-124.559c72.227-0.02,144.454-0.012,216.681-0.002c19.366,0.003,26.586,7.252,26.5,26.836
	c-0.121,27.295,0.252,54.61-0.688,81.879C491.954,368.068,409.627,466.59,307.476,489c-82.137,18.019-156.453,0.819-219.104-55.077
	C14.948,368.415-11.831,285.024,12.198,189.708C35.764,96.229,98.735,37.802,191.1,12.083c20.509-5.711,42.61-7.599,64.017-7.852
	C332.168,3.324,491.883,4.157,496.042,4.374z"/>
</svg>
