<?xml version="1.0" encoding="utf-8"?>
<!-- Generator: Adobe Illustrator 25.2.2, SVG Export Plug-In . SVG Version: 6.00 Build 0)  -->
<svg version="1.1" id="gswap" xmlns="http://www.w3.org/2000/svg" xmlns:xlink="http://www.w3.org/1999/xlink" x="0px" y="0px"
	 viewBox="0 0 500 500" style="enable-background:new 0 0 500 500;" xml:space="preserve">
<path d="M117.4,218.3H63.1c-0.1-0.7-0.1-1.4,0-2.1c7.3-37,14.2-74.1,21.9-111.1C90.7,78.5,120.3,55,147.1,55c90,0,179.9,0,269.9,0
	h4.5l-10.6,54.5h-255c-12.4,0-18.4,4.9-20.7,17.2l-16.7,85.8L117.4,218.3z"/>
<path d="M379.2,273.2h54.3c-0.2,1.4-0.2,2.6-0.4,3.8c-7.1,36.2-13.8,72.5-21.4,108.7c-5.7,27.1-35.1,50.7-62.1,50.7
	c-90.3,0.1-180.6,0.1-270.8,0h-3.6l10.6-54.4h254.7c12.8,0,18.5-4.8,21-17.5c5.5-28.6,11.1-57.2,16.7-85.8L379.2,273.2z"/>
<path d="M324.6,273.2L314,327.6H96.2l-10.5,53.8L0,273.2H324.6z"/>
<path d="M496.7,218.3H172l10.6-54.4h217.8l10.5-53.9L496.7,218.3z"/>
</svg>
