<?xml version="1.0" encoding="utf-8"?>
<!-- Generator: Adobe Illustrator 24.1.0, SVG Export Plug-In . SVG Version: 6.00 Build 0)  -->
<svg version="1.1" id="GT" xmlns="http://www.w3.org/2000/svg" xmlns:xlink="http://www.w3.org/1999/xlink" x="0px" y="0px"
	 viewBox="0 0 500 500" style="enable-background:new 0 0 500 500;" xml:space="preserve">
<style type="text/css">
	.st0{fill:#D35756;}
</style>
<path class="st0" d="M480.1,134L331,212.4v90.9l51.3-27.3v52.7L237.8,412L121.7,345c-17.6-10.1-28.4-28.9-28.4-49.2V161.7
	l119.8-69.2c15.3-8.8,34-8.8,49.3,0l119.8,69.2l73.4-42.4L268.9,11.6c-19.3-11.1-43-11.1-62.3,0L19.9,119.4v218.7
	c0,20.4,10.9,39.1,28.5,49.3l189.4,109.3l189.1-109.2c17.8-10.3,28.7-29.2,28.7-49.8V236.9l24.4-13L480.1,134L480.1,134z"/>
</svg>
