<?xml version="1.0" encoding="iso-8859-1"?>
<!-- Generator: Adobe Illustrator 19.0.0, SVG Export Plug-In . SVG Version: 6.00 Build 0)  -->
<svg version="1.1" id="Layer_1" xmlns="http://www.w3.org/2000/svg" xmlns:xlink="http://www.w3.org/1999/xlink" x="0px" y="0px"
	 viewBox="1000 -1000 2500 2500" style="enable-background:new 1000 -1000 2500 2500;" xml:space="preserve">
<circle style="fill:#7F27FF;" cx="2250" cy="250" r="1221.751"/>
<g>
	<path style="fill:#FFFFFF;" d="M2209.275,87.1H1679.85v529.425c-1.104,111.355,88.272,202.521,199.628,203.625
		c1.332,0.013,2.665,0.013,3.998,0h325.8V87.1z M2290.725,87.1h529.425v529.425c1.104,111.355-88.272,202.521-199.627,203.625
		c-1.333,0.013-2.665,0.013-3.998,0h-325.8V87.1z"/>
	<path style="fill:#FFFFFF;" d="M2290.725,5.65h513.325c56.825,0,97.74-48.87,97.74-97.74c0-56.826-48.87-97.74-97.74-97.74
		H1704.285c-56.826,0-97.74,48.87-97.74,97.74c0,56.826,48.87,97.74,97.74,97.74h504.99v-130.32h81.45"/>
</g>
<g>
	<path style="fill:none;stroke:#FFFFFF;stroke-width:17.2;" d="M2306.826-157.25c114.03-203.625,203.625-268.785,268.785-203.625
		c65.16,65.16,24.435,130.32-114.03,203.625"/>
	<path style="fill:none;stroke:#FFFFFF;stroke-width:17.2;" d="M2193.174-157.25c-114.03-203.625-203.625-268.785-268.785-203.625
		s-24.435,130.32,114.03,203.625"/>
</g>
</svg>
