<?xml version="1.0" encoding="utf-8"?>
<!-- Generator: Adobe Illustrator 23.0.2, SVG Export Plug-In . SVG Version: 6.00 Build 0)  -->
<svg version="1.1" id="gusd" xmlns="http://www.w3.org/2000/svg" xmlns:xlink="http://www.w3.org/1999/xlink" x="0px" y="0px"
	 viewBox="0 0 500 500" style="enable-background:new 0 0 500 500;" xml:space="preserve">
<style type="text/css">
	.st0{fill:#55C8E6;}
</style>
<g>
	<path class="st0" d="M326.4,42.2c35.1,0,68.1,13.7,93,38.5c24.8,24.8,38.5,57.8,38.5,93c0,35.1-13.7,68.1-38.5,93
		c-24.8,24.8-57.8,38.5-93,38.5H194.9V173.6c0-35.1,13.7-68.1,38.5-93C258.2,55.8,291.2,42.2,326.4,42.2 M326.4,2.4L326.4,2.4
		c-94.6,0-171.2,76.7-171.2,171.2v135.6H41.1v35.6h114.1h3.5h167.8c94.6,0,171.2-76.7,171.2-171.2v0C497.6,79.1,420.9,2.4,326.4,2.4
		L326.4,2.4z"/>
</g>
<g>
	<path class="st0" d="M305.6,195.3v131.5c0,35.1-13.7,68.1-38.5,93c-24.8,24.8-57.8,38.5-93,38.5c-35.1,0-68.1-13.7-93-38.5
		c-24.8-24.8-38.5-57.8-38.5-93c0-35.1,13.7-68.1,38.5-93c24.8-24.8,57.8-38.5,93-38.5H305.6 M459.3,155.5H345.4h-3.7H174.2
		C79.6,155.5,3,232.2,3,326.8v0C3,421.3,79.6,498,174.2,498h0c94.6,0,171.2-76.7,171.2-171.2V191.1h113.9V155.5L459.3,155.5z"/>
</g>
</svg>
