<?xml version="1.0" encoding="iso-8859-1"?>
<!-- Generator: Adobe Illustrator 19.0.0, SVG Export Plug-In . SVG Version: 6.00 Build 0)  -->
<svg version="1.1" id="Layer_1" xmlns="http://www.w3.org/2000/svg" xmlns:xlink="http://www.w3.org/1999/xlink" x="0px" y="0px"
	 viewBox="-749 751 500 500" style="enable-background:new -749 751 500 500;" xml:space="preserve">
<path style="fill:#00BEB1;" d="M-399.983,946.846c16.122,0,30.756,0,45.467,0c-14.44,58.157-79.772,109.994-152.905,105.025
	c-92.343-6.274-159.055-90.193-142.072-183.012c129.886,0,259.893,0,391.239,0c3.571,29.349,2.085,58.509-5.178,87.3
	c-12.842,50.909-39.294,93.632-79.431,127.405c-90.96,76.536-216.23,74.051-303.036,6.944
	c-81.677-63.142-103.476-159.333-91.635-221.975c13.567,0,27.198,0,41.83,0c-7.554,79.52,18.739,144.618,83.663,192.156
	c36.827,26.965,79.045,38.906,124.335,35.899c116.639-7.744,183.446-104.093,185.833-182.635c-101.598,0-203.177,0-304.767,0
	c2.753,37.686,36.112,77.656,75.253,89.061c25.541,7.442,51.169,6.695,75.869-3.904
	C-430.776,988.493-412.429,970.636-399.983,946.846z"/>
</svg>
