<?xml version="1.0" encoding="iso-8859-1"?>
<!-- Generator: Adobe Illustrator 19.0.0, SVG Export Plug-In . SVG Version: 6.00 Build 0)  -->
<svg version="1.1" id="Layer_1" xmlns="http://www.w3.org/2000/svg" xmlns:xlink="http://www.w3.org/1999/xlink" x="0px" y="0px"
	 viewBox="-749 751 500 500" style="enable-background:new -749 751 500 500;" xml:space="preserve">
<path id="XMLID_4_" style="fill:#639BF8;" d="M-654.599,761.574c2.72,0,5.442,0.059,8.161-0.01
	c13.134-0.334,24.661,4.273,35.882,10.704c8.701,4.986,15.492,11.96,22.413,18.858c28.68,28.587,57.251,57.284,85.864,85.939
	c3.493,3.498,4.58,3.513,8.167-0.078c26.917-26.937,53.768-53.94,80.766-80.796c6.948-6.911,13.85-14.031,21.653-19.883
	c11.581-8.685,24.535-14.707,39.541-14.68c6.347,0.011,12.696,0.065,19.041-0.064c12.852-0.26,24.111,4.36,34.959,10.743
	c15.199,8.943,26.213,21.584,33.823,37.298c3.096,6.393,5.807,13.022,5.885,20.295c0.113,10.569,0.777,21.206-0.145,31.695
	c-1.501,17.079-9.879,31.311-21.7,43.263c-30.988,31.331-62.297,62.345-93.473,93.49c-3.042,3.039-2.956,4.33,0.152,7.446
	c32.22,32.305,64.753,64.308,96.462,97.107c11.631,12.031,18.666,27.057,18.776,44.472c0.04,6.347,0.023,12.694,0.064,19.04
	c0.141,22.102-10.295,39.252-25.475,54.107c-8.995,8.803-19.723,14.906-31.629,18.769c-3.961,1.285-8.275,1.771-12.463,2.005
	c-6.933,0.387-13.896,0.199-20.843,0.385c-20.619,0.552-37.618-7.821-51.875-21.902c-31.393-31.004-62.477-62.322-93.683-93.516
	c-2.804-2.803-4.563-2.941-7.268-0.243c-20.84,20.789-41.591,41.667-62.5,62.387c-12.968,12.851-25.623,26.1-39.433,37.992
	c-10.24,8.818-22.665,14.502-36.672,14.964c-9.358,0.309-18.739,0.345-28.098,0.096c-11.184-0.298-21.003-4.77-30.464-10.456
	c-10.145-6.097-18.659-13.916-25.338-23.549c-8.642-12.465-14.881-25.884-14.122-41.658c0.276-5.73,0.209-11.49,0.011-17.226
	c-0.435-12.603,4.511-23.457,10.424-34.13c5.827-10.517,14.68-18.358,22.943-26.708c23.595-23.845,47.344-47.538,70.947-71.374
	c2.088-2.108,3.919-2.169,5.866-0.427c3.031,2.713,5.899,5.612,8.793,8.476c7.727,7.645,15.423,15.321,23.148,22.968
	c2.505,2.48,0.948,4.228-0.911,6.077c-8.782,8.735-17.52,17.513-26.285,26.266c-18.172,18.146-36.43,36.206-54.503,54.45
	c-16.456,16.611-12.632,44.807,10.164,54.699c12.24,5.311,26.289,3.707,37.663-7.599c20.876-20.753,41.591-41.668,62.379-62.509
	c9.379-9.403,18.753-18.811,28.166-28.179c4.362-4.341,4.369-4.862-0.11-9.339c-32.379-32.363-64.744-64.741-97.118-97.109
	c-26.285-26.28-52.525-52.606-78.895-78.801c-10.44-10.37-17.232-22.778-21.425-36.706c-0.859-2.853-1.172-5.945-1.257-8.94
	c-0.22-7.702-0.157-15.412-0.233-23.118c-0.17-17.383,7.509-31.628,17.76-44.913c6.954-9.012,15.744-15.856,25.517-21.346
	c11.382-6.395,23.689-9.675,36.903-8.757c1.203,0.084,2.417,0.011,3.627,0.011C-654.599,761.565-654.599,761.569-654.599,761.574z
	 M-341.336,812.835c-8.443-0.601-15.867,2.06-22.031,7.664c-6.47,5.882-12.616,12.126-18.81,18.305
	c-27.69,27.617-55.352,55.263-83.015,82.908c-25.743,25.727-51.466,51.475-77.228,77.182c-2.331,2.326-2.209,4.06,0.186,6.421
	c13.546,13.35,26.947,26.846,40.396,40.295c3.144,3.144,4.334,3.112,7.414,0.029c9.601-9.609,19.211-19.209,28.871-28.759
	c3.48-3.441,3.749-3.441,7.264,0.055c9.957,9.903,19.784,19.937,29.817,29.761c2.449,2.398,2.355,3.982-0.005,6.297
	c-8.622,8.458-17.122,17.041-25.621,25.624c-7.894,7.972-8.481,6.299-0.027,14.783c25.253,25.343,50.485,50.707,75.892,75.896
	c6.502,6.446,12.159,13.914,20.559,18.263c17.049,8.827,39.543,2.726,46.9-17.308c5.001-13.618,2.007-26.48-8.654-37.083
	c-22.584-22.46-45.093-44.995-67.63-67.503c-27.769-27.733-55.538-55.466-83.298-83.208c-4.482-4.479-8.981-8.945-13.352-13.532
	c-1.695-1.778-3.103-3.613-0.503-6.155c10.264-10.032,20.352-20.245,30.541-30.354c2.918-2.895,3.833-2.889,6.735,0.005
	c9.63,9.6,19.235,19.225,28.817,28.873c3.202,3.224,4.699,3.3,7.867,0.13c30.189-30.217,60.375-60.437,90.563-90.655
	c5.233-5.238,8.951-11.217,10.298-18.689C-305.364,829.731-322.851,811.986-341.336,812.835z M-687.281,845.952
	c-0.924,9.632,4.887,19.034,10.156,24.289c19.967,19.91,39.853,39.901,59.773,59.859c10.545,10.565,21.077,21.143,31.661,31.669
	c2.758,2.743,4.199,2.721,6.839,0.082c13.455-13.449,26.897-26.913,40.319-40.396c2.927-2.941,2.928-4.268,0.053-7.17
	c-5.305-5.357-10.652-10.671-15.988-15.997c-25.179-25.138-50.352-50.283-75.544-75.408c-10.483-10.455-23.011-12.594-35.45-8.45
	C-679.342,819.054-688.252,832.307-687.281,845.952z"/>
</svg>
