<?xml version="1.0" encoding="utf-8"?>
<!-- Generator: Adobe Illustrator 25.4.1, SVG Export Plug-In . SVG Version: 6.00 Build 0)  -->
<svg version="1.1" id="hakka" xmlns="http://www.w3.org/2000/svg" xmlns:xlink="http://www.w3.org/1999/xlink" x="0px" y="0px"
	 viewBox="0 0 500 500" style="enable-background:new 0 0 500 500;" xml:space="preserve">
<style type="text/css">
	.st0{fill:#FFFFFF;}
	.st1{fill-rule:evenodd;clip-rule:evenodd;fill:#2DA287;}
</style>
<path class="st0" d="M250,0c138.1,0,250,111.9,250,250S388.1,500,250,500S0,388.1,0,250S111.9,0,250,0z"/>
<path class="st1" d="M442.3,190c-0.3,0.8-0.6,1.7-1,2.5c-0.2,1-0.6,2.4-1.2,4.1l-1.4,3.6l-1.8,4.3l-3.1,6.9l-3.8,7.8l-4.2,8.4
	l-4.6,8.9l-4.8,9.1l-5,9.1l-5,8.8l-4.9,8.4l-4.6,7.7l-4.3,6.8l-1.7,2.5l-3,4.3c-1.4,1.9-2.7,3.5-3.8,4.7l-1.2,1.1l-16.3,13.9
	l80,40.1c-38.7,68-111.9,113.9-195.9,113.9c-85.1,0-159.2-47.2-197.5-116.8l78.4-37.4l-7.6-6.2l-9.2-7.6c-1.5-1.3-3.5-3.8-5.8-7.3
	l-3-4.6l-3.9-6.3l-2-3.5l-4.3-7.5l-4.4-8.1l-4.5-8.5l-4.4-8.7l-4.3-8.7l-4.1-8.4l-3.7-8.1l-3.3-7.4l-2.8-6.7l-2.2-5.7l-1.1-3.1
	l-0.4-1.4c-0.6-0.8-1-1.6-1.5-2.4c14.3,9.7,42.8,19.2,80,25.9l11.4,1.9c5.8,0.9,11.9,1.8,18.1,2.5l12.6,1.4
	c12.8,1.3,26.2,2.3,40.2,2.9l7.7,0.3l7.8,0.2l12.1,0.1l12.1-0.1l5.9-0.1l7.8-0.2c18.1-0.7,35.4-2.1,51.6-4l11.9-1.5
	c44.9-6.2,80-16.6,97.9-27.5l2.5-1.6l2.2-1.6L442.3,190L442.3,190z M145,242.5l4.9,17.6c3.2,10.4,6.9,20.2,11.3,30.2l3.4,7.5l8,15.8
	c0.9,1.9,2.2,3.5,3.8,5l1.7,1.5l6.8,5c11.6,7.8,24.4,13.3,39.5,17.4l5.8,1.5l16,3.1l3,0.3h2.3l3-0.3l16.5-3.2
	c15.3-3.7,28.5-8.8,40.8-16.2l4.5-2.9l6.5-4.8c1.7-1.2,3.1-2.8,4.2-4.5l1.1-1.8l8.2-16.2c4.6-9.8,8.6-19.6,12.1-29.9l2.6-7.9
	l4.5-16.4c-9.8,18.7-29.3,31.9-52.8,34.2l-3.2,0.2l-3.5-0.4c-17.5-2.4-32.9-11.8-42.6-25.4l-1.9-2.8l-1-1.7l-2,3
	c-9.5,13.7-24.7,23.3-42.6,26.4l-3.6,0.5l-3.3,0.3l-3.1-0.2C173.3,275,154.3,261.4,145,242.5z M250.3,50c14.3,0,33.2,11.2,61.2,33.5
	l4.3,3.4l12.2,10l32.5,27.5l23.3,6.2l10.9,3.1l6.2,1.8l5,1.6l6.7,2.2l4,1.4l3.5,1.4c15.5,6.3,23.3,13,23.3,21.9l-0.1,1.8l-0.4,1.8
	l-1.3,1l-2.2,1.7c-24.1,17.1-87.2,33.6-165,36.6l-7.3,0.2l-5.9,0.1l-12.1,0.1l-12.1-0.1l-7.8-0.2c-80.4-2.5-146-19.5-170.5-37
	c-1-2-1.4-4.1-1.4-6.2c0-9.8,8.3-17.8,26.3-24.8c-2.9-3-4.2-5.8-7.7-8.1c5.4-6.2,15.5-11.3,22.4-12.3c8.2-1.4,14.6-0.5,20.3,0.7
	l5.6,1.1c1.8,0.3,3.7,0.6,5.5,0.8c-7.2-3.1-21-16.5-25.8-22.6c-5.8-13-1.7-24.2,1.9-30.5l0.8-1.2l1.2-1.9l1.5-2l0.9-0.1l2.7-0.1
	l3.9,0.1c5.8,0.2,13.2,1.3,16.2,4.6c6.9,9.8,9.3,19.8,11,28.1l1,5.3c0.8,4.2,1.6,7.7,3,10.2c0.6-2.1,1.1-4.1,1.5-6.1l1.2-6
	c1.1-5,2.5-10.2,5.9-16.3c6-10.9,27.1-25.9,42-22.9c0.2,1.5,0.5,2.8,0.8,4l1,3.4c0.6,2.2,0.8,4.4,0,7.7l7.5-5.5
	C225.9,56.5,239.5,50,250.3,50L250.3,50z"/>
</svg>
