<?xml version="1.0" encoding="iso-8859-1"?>
<!-- Generator: Adobe Illustrator 19.0.0, SVG Export Plug-In . SVG Version: 6.00 Build 0)  -->
<svg version="1.1" id="Layer_1" xmlns="http://www.w3.org/2000/svg" xmlns:xlink="http://www.w3.org/1999/xlink" x="0px" y="0px"
	 viewBox="0 0 500 500" enable-background="new 0 0 500 500" xml:space="preserve">
<path d="M5,248.901C4.985,112.627,114.66,2.978,250.959,3c135.398,0.021,244.932,110.135,244.857,246.153
	c-0.075,136.019-110.257,244.738-247.957,244.663C114.899,493.744,5.014,382.929,5,248.901z M343.519,67.129
	c-12.111,0-22.692,0-33.775,0c-19.539,47.314-39.058,94.582-59.347,143.715c-19.865-49.395-38.835-96.562-57.764-143.628
	c-11.516,0-22.312,0-34.313,0c30.597,74.006,60.891,147.282,92.08,222.719C281.886,214.597,312.466,141.429,343.519,67.129z
	 M158.347,207.434c30.631,73.998,60.947,147.232,92.058,222.39c31.493-75.244,62.114-148.406,93.059-222.34
	c-12.105,0-22.876,0-33.89,0c-19.557,47.407-38.987,94.505-59.183,143.46c-19.774-49.215-38.713-96.354-57.66-143.51
	C181.264,207.434,170.438,207.434,158.347,207.434z"/>
</svg>
