<?xml version="1.0" encoding="utf-8"?>
<!-- Generator: Adobe Illustrator 24.2.0, SVG Export Plug-In . SVG Version: 6.00 Build 0)  -->
<svg version="1.1" id="Layer_1" xmlns="http://www.w3.org/2000/svg" xmlns:xlink="http://www.w3.org/1999/xlink" x="0px" y="0px"
	 viewBox="0 0 500 500" style="enable-background:new 0 0 500 500;" xml:space="preserve">
<style type="text/css">
	.st0{fill:#5C4D94;}
</style>
<path class="st0" d="M75.4,118.3c24.3,0,48.9,0,73.9,0c0-9.7,0-19.1,0-28.5c0-2.1-3.3-12.2-4.5-13.8c-2.5-3.4-6-5.3-10.3-5.7
	c0-4.4,0-12.9,0-12.9h93.7c0,0,0,8.5,0,12.8c-7,1.5-12.1,7.1-13.1,14.4c-0.7,5.5-0.4,33.7-0.4,33.7s56.5,0,85.6,0
	c0-10.2,0.6-20.4-0.2-30.5c-0.5-6.6-3.1-13.1-10.2-17.1c-0.8,0-2.5-0.1-4.3-0.2c0-4.3,0-13,0-13H381c0,0,0,7.4,0,11.3
	c-0.9,0.6-1.9,1.7-2.9,1.8c-4.6,0.3-7.3,3.2-8.8,7c-1.7,4.4-3.2,8.7-3.2,13.7c0.1,75,0,235,0,235s19.9,0,29.4,0
	c5.6-9.8,11.2-19.4,17.1-29.6c0-3.9,0-12.8,0-12.8l85-0.6l0.1,14.2c0,0-5.2,1.5-8.5,2.5c-1.3,1.3-2.9,3.2-4.8,4.8
	c-3.7,3.2-6,7.3-8.5,11.4c-5.1,8.6-35,61.5-35.4,62.6c-75.4,0-226.7,0-226.7,0s-0.1,16.1,0,24c0,3.4,3.8,14.4,6,16.9
	c3.5,4,8.3,6,13.5,6.9c1.2,0.2,2.6-0.2,3.7,0.2c1.3,0.4,2.4,1.4,3.7,2.1c0,3.4,0,6.9,0,10.6c-0.6,0.5-1.4,1.1-2.4,2
	c-37.7,0-75.7,0-114,0c0-4.3,0-8.5,0-12.8c0.6-0.6,1.3-1.3,2.1-2.1c7.6,1.2,14-1.9,18.1-8c3-4.5,5.1-9.8,5.1-15.8
	c-0.2-36.6-0.1-73.3-0.1-109.9c0-35.6,0-111.8,0-114.4c21.6,0,42.7,0,64,0c0,14.7,0,43.9,0,43.9l86.8,0.5c0,0,0-34.2,0-51.7
	c-59.8,0-119.8,0-180.5,0c-0.4,0.8-36.3,62.9-41.6,71.7c-2.1,3.5-2.8,6.9-0.5,10.5c3.3,5.3,38.5,67.7,42.6,73.1c7.1,0,14.3,0,21.6,0
	c0,17.4,0,34.5,0,51.9c-22.1,0-44.2,0-66.7,0C71.5,375.1,4.4,256,2.7,253.3c-2.4-3.7-1.6-7.1,0.6-10.5
	C8.6,234.6,73.4,121.8,75.4,118.3z M300.2,274.2c-28.4,0-56.6,0-84.6,0c-0.8,0.8-1.3,1.3-1.8,1.8c0,16.6,0,33.2,0,50
	c28.9,0,57.7,0,86.4,0C300.2,308.7,300.2,291.6,300.2,274.2z"/>
<path class="st0" d="M372.4,120.4c0.8-0.8,1.3-1.3,1.9-1.9c21.3,0,42.7,0,64.9,0c1.2,1.7,2.7,3.7,4,5.9c5.7,9.6,11.3,19.3,16.7,29
	c4.4,7.9,9.4,15.5,13.5,23.5c2.5,5,5.2,10,8.5,14.4c3,3.9,7.4,6.5,12.3,7.9c1.1,0.3,2.1,0.9,3.3,1.5c0,4.3,0,12.7,0,12.7l-85,0.6
	c0,0,0-4.8,0-7.2c0-2.2,0-4.5,0-5.6c-6.1-10.5-11.6-20.2-17.5-30.3c-6.5,0-13.7,0-20.6,0c-0.8-0.8-1.3-1.3-2.1-2.1
	C372.4,152.9,372.4,136.8,372.4,120.4z"/>
<path class="st0" d="M391.4,428.1c0,4.7,0,8.8,0,13.2c-38.8,0-77.5,0-116.4,0c0-4.4,0-8.5,0-12.7c2.9-2.3,6.2-2.2,9.2-2.1
	c2.8-1.6,5.4-2.7,7.6-4.3c5.9-4.2,7.9-10.6,8.4-17.4c0.4-5.9,0.1-11.9,0.1-17.9c0.2-0.2,0.3-0.4,0.5-0.5c0.2-0.1,0.4-0.3,0.6-0.3
	c20.9,0,41.7,0,62.5,0c0.7,0.7,1.2,1.2,2.2,2.2c0,4.6,0.2,9.8,0,15c-0.4,9.1,4,15.7,10.7,20.9c1.9,1.5,4.8,1.6,7.2,2.3
	C386.5,427.1,389,427.6,391.4,428.1z"/>
</svg>
