<svg width="24" height="25" viewBox="0 0 24 25" fill="none" xmlns="http://www.w3.org/2000/svg">
<path d="M12.0019 22.9095C11.7419 22.9095 11.4919 22.8095 11.2919 22.6195L2.45194 13.7795C-0.0780566 11.2395 -0.0780566 7.11947 2.45194 4.57947C4.99194 2.04947 9.11194 2.04947 11.6519 4.57947L12.0019 4.92947L12.3519 4.57947C14.8919 2.03947 19.0119 2.04947 21.5419 4.57947C21.5419 4.57947 21.5519 4.58947 21.5619 4.59947C24.0819 7.13947 24.0719 11.2495 21.5419 13.7695L12.7019 22.6095C12.5019 22.8095 12.2519 22.8995 11.9919 22.8995L12.0019 22.9095ZM7.05194 4.67947C5.90194 4.67947 4.74194 5.11947 3.87194 5.99947C2.12194 7.74947 2.12194 10.6095 3.87194 12.3695L12.0019 20.4995L20.1319 12.3695C21.8819 10.6195 21.8919 7.75947 20.1319 6.00947C18.3719 4.25947 15.5319 4.26947 13.7719 6.00947L12.7119 7.06947C12.3319 7.44947 11.6719 7.44947 11.3019 7.06947L10.2419 6.00947C9.36194 5.12947 8.21194 4.68947 7.06194 4.68947L7.05194 4.67947Z" fill="#68738D"/>
</svg>
