<svg width="24" height="24" viewBox="0 0 24 24" fill="currentColor" xmlns="http://www.w3.org/2000/svg">
<path d="M12.0013 19C11.8196 19 11.6448 18.9308 11.505 18.7993L5.32627 12.6821C3.55791 10.9244 3.55791 8.07334 5.32627 6.31566C7.10162 4.56491 9.98133 4.56491 11.7567 6.31566L12.0013 6.55786L12.2459 6.31566C14.0213 4.55799 16.901 4.56491 18.6693 6.31566C18.6693 6.31566 18.6763 6.32258 18.6833 6.3295C20.4447 8.08718 20.4377 10.9313 18.6693 12.6751L12.4906 18.7924C12.3508 18.9308 12.176 18.9931 11.9943 18.9931L12.0013 19ZM8.54148 6.38486C7.73768 6.38486 6.92688 6.68934 6.31879 7.2983C5.09561 8.50929 5.09561 10.4884 6.31879 11.7063L12.0013 17.3323L17.6838 11.7063C18.907 10.4953 18.914 8.51621 17.6838 7.30522C16.4537 6.09422 14.4686 6.10114 13.2384 7.30522L12.4976 8.03874C12.2319 8.3017 11.7706 8.3017 11.512 8.03874L10.7711 7.30522C10.1561 6.69626 9.35227 6.39178 8.54847 6.39178L8.54148 6.38486Z"/>
</svg>
