<svg aria-hidden="true" data-testid="test-icon" fill="currentColor" viewBox="0 0 24 24" xmlns="http://www.w3.org/2000/svg"><path fill-rule="evenodd" clip-rule="evenodd" d="M12 3.61a8.39 8.39 0 100 16.78 8.39 8.39 0 000-16.78zM2 12C2 6.477 6.477 2 12 2s10 4.477 10 10-4.477 10-10 10S2 17.523 2 12z"/><path fill-rule="evenodd" clip-rule="evenodd" d="M12.257 8.23a1.954 1.954 0 00-2.174 1.278.805.805 0 11-1.518-.534 3.563 3.563 0 016.925 1.188c0 1.346-1 2.245-1.738 2.737a7.281 7.281 0 01-1.525.768l-.03.01-.01.004-.004.001h-.001l-.256-.763.255.764a.805.805 0 01-.51-1.526l.017-.006.07-.027a5.68 5.68 0 001.1-.564c.643-.427 1.022-.907 1.022-1.4a1.954 1.954 0 00-1.623-1.93zM11.195 16.598c0-.445.36-.805.805-.805h.01a.805.805 0 110 1.61H12a.805.805 0 01-.805-.805z"/></svg>
