<?xml version="1.0" encoding="iso-8859-1"?>
<!-- Generator: Adobe Illustrator 19.0.0, SVG Export Plug-In . SVG Version: 6.00 Build 0)  -->
<svg version="1.1" id="Layer_1" xmlns="http://www.w3.org/2000/svg" xmlns:xlink="http://www.w3.org/1999/xlink" x="0px" y="0px"
	 viewBox="0 0 500 500" style="enable-background:new 0 0 500 500;" xml:space="preserve">
<path d="M251.377,439.326c54.468-31.442,108.353-62.548,162.624-93.876c0-63.302,0-126.617,0-191.013
	c-19.686-11.409-39.871-23.106-62.014-35.938c0,70.29,0,138.838,0,207.3c-17.609,10.152-33.995,19.598-52.009,29.983
	c0-29.238,0-56.805,0-85.147c-32.824,0-64.468,0-96.953,0c0,66.38,0,132.228,0,199.34c-3.337-1.271-5.685-1.824-7.686-2.977
	c-49.816-28.705-99.53-57.589-149.451-86.11c-7.636-4.363-10.593-9.76-10.563-18.525c0.252-74.754,0.253-149.509-0.019-224.262
	c-0.033-9.135,2.903-14.794,10.988-19.423C111.127,81.566,175.794,44.16,240.365,6.592c7.521-4.375,14.098-5.132,21.386-0.151
	c4.804,3.283,9.962,6.046,15.183,9.175c0,19.218,0,38.159,0,58.93c-9.019-4.861-17.16-9.25-26.035-14.034
	c-54.108,31.239-108.587,62.692-163.344,94.305c0,63.263,0,126.17,0,190.125c20.032,11.563,40.478,23.365,62.362,35.997
	c0-70.432,0-139.11,0-208.708c16.93-9.822,33.594-19.489,52.075-30.21c0,25.906,0,50.135,0,75.294c32.985,0,64.585,0,97.512,0
	c0-62.215,0-124.559,0-188.879c22.361,12.896,42.884,24.723,63.399,36.566c31.081,17.942,62.04,36.099,93.312,53.7
	c8.059,4.536,11.134,10.207,11.101,19.379c-0.268,74.021-0.339,148.044,0.054,222.063c0.056,10.594-3.695,16.717-12.726,21.879
	c-62.953,35.981-125.799,72.156-188.338,108.851c-10.864,6.375-20.014,7.777-30.133-0.168c-3.401-2.67-7.378-4.605-11.291-6.998
	c0-19.305,0-38.266,0-59.087C234.136,429.759,242.29,434.283,251.377,439.326z"/>
</svg>
