<?xml version="1.0" encoding="utf-8"?>
<!-- Generator: Adobe Illustrator 24.1.0, SVG Export Plug-In . SVG Version: 6.00 Build 0)  -->
<svg version="1.1" id="HEX" xmlns="http://www.w3.org/2000/svg" xmlns:xlink="http://www.w3.org/1999/xlink" x="0px" y="0px"
	 viewBox="0 0 500 500" style="enable-background:new 0 0 500 500;" xml:space="preserve">
<style type="text/css">
	.st0{fill:url(#SVGID_1_);}
	.st1{fill:url(#SVGID_2_);}
	.st2{fill:url(#SVGID_3_);}
</style>
<linearGradient id="SVGID_1_" gradientUnits="userSpaceOnUse" x1="125.8987" y1="458.6709" x2="366.8214" y2="47.168">
	<stop  offset="0" style="stop-color:#FFD802"/>
	<stop  offset="0.5306" style="stop-color:#FE5D49"/>
	<stop  offset="1" style="stop-color:#FF02F8"/>
</linearGradient>
<path class="st0" d="M493.8,237l-113-195c-3.8-6.5-10.7-10.5-18.2-10.5H136.4c-7.5,0-14.5,4-18.2,10.5L5.1,237
	c-3.8,6.5-3.8,14.6,0,21.2l26.1,45.1L106,171.6c2.8-5,8.1-8,13.8-8h167.9c5.7,0,11,3.1,13.8,8l84.2,148.1c2.8,4.9,2.8,10.8,0,15.7
	l-72.9,128.3h49.8c7.5,0,14.5-4,18.2-10.5l113-195C497.6,251.7,497.6,243.6,493.8,237z"/>
<linearGradient id="SVGID_2_" gradientUnits="userSpaceOnUse" x1="126.142" y1="458.8133" x2="367.0646" y2="47.3104">
	<stop  offset="0" style="stop-color:#FFD802"/>
	<stop  offset="0.5026" style="stop-color:#FE5D49"/>
	<stop  offset="1" style="stop-color:#FF02F8"/>
</linearGradient>
<path class="st1" d="M362.2,318.4l-73-124.6c-2.4-4.2-6.9-6.7-11.7-6.7H131.2c-4.8,0-9.3,2.6-11.7,6.7l-73,124.6
	c-2.5,4.2-2.5,9.5,0,13.7l22.4,38.3l40-68.6c1.7-2.8,4.7-4.6,8-4.6H216c3.3,0,6.3,1.7,8,4.6l49.5,84.8c1.7,2.9,1.7,6.4,0,9.3
	L234,463.4h43.5c4.8,0,9.3-2.6,11.7-6.7l73-124.6C364.7,327.9,364.7,322.6,362.2,318.4z"/>
<linearGradient id="SVGID_3_" gradientUnits="userSpaceOnUse" x1="127.3201" y1="459.5031" x2="368.2428" y2="48.0002">
	<stop  offset="0" style="stop-color:#FFD802"/>
	<stop  offset="0.5026" style="stop-color:#FE5D49"/>
	<stop  offset="1" style="stop-color:#FF02F8"/>
</linearGradient>
<path class="st2" d="M206.1,318.8h-76.9c-2.5,0-4.8,1.3-6.1,3.5L84.7,387c-1.3,2.2-1.3,5,0,7.2l38.3,64.8c1.3,2.2,3.6,3.5,6.1,3.5
	h76.9c2.5,0,4.8-1.3,6.1-3.5l38.3-64.8c1.3-2.2,1.3-5,0-7.2l-38.3-64.8C210.9,320.1,208.6,318.8,206.1,318.8z"/>
</svg>
