<?xml version="1.0" encoding="utf-8"?>
<!-- Generator: Adobe Illustrator 24.1.0, SVG Export Plug-In . SVG Version: 6.00 Build 0)  -->
<svg version="1.1" id="HIVE" xmlns="http://www.w3.org/2000/svg" xmlns:xlink="http://www.w3.org/1999/xlink" x="0px" y="0px"
	 viewBox="0 0 500 500" style="enable-background:new 0 0 500 500;" xml:space="preserve">
<style type="text/css">
	.st0{fill:#E31337;}
</style>
<path class="st0" d="M357.4,277.9c1.7,0,2.7,1.8,1.9,3.2L253,464.8c-0.4,0.7-1.1,1.1-1.9,1.1h-64.9c-1.7,0-2.7-1.8-1.9-3.2
	l106.3-183.7c0.4-0.7,1.1-1.1,1.9-1.1H357.4z M294.3,225.2c-0.8,0-1.5-0.4-1.9-1.1l-108-186.8c-0.8-1.4,0.2-3.2,1.9-3.2h64.9
	c0.8,0,1.5,0.4,1.9,1.1l108,186.8c0.8,1.4-0.2,3.2-1.9,3.2H294.3z"/>
<path class="st0" d="M307.1,37.3c-0.8-1.4,0.2-3.2,1.9-3.2h65c0.8,0,1.5,0.4,1.9,1.1l123.8,213.8c0.4,0.7,0.4,1.5,0,2.1L375.9,464.8
	c-0.4,0.7-1.1,1.1-1.9,1.1h-65c-1.7,0-2.7-1.8-1.9-3.2L430.3,250L307.1,37.3z M254.3,248.9c0.4,0.7,0.4,1.5,0,2.2L129.8,464.8
	c-0.8,1.4-2.9,1.4-3.7,0L0.3,251.1c-0.4-0.7-0.4-1.5,0-2.2L124.7,35.2c0.8-1.4,2.9-1.4,3.7,0L254.3,248.9z"/>
</svg>
