<?xml version="1.0" encoding="utf-8"?>
<!-- Generator: Adobe Illustrator 25.4.1, SVG Export Plug-In . SVG Version: 6.00 Build 0)  -->
<svg version="1.1" id="hnt" xmlns="http://www.w3.org/2000/svg" xmlns:xlink="http://www.w3.org/1999/xlink" x="0px" y="0px"
	 viewBox="0 0 500 500" style="enable-background:new 0 0 500 500;" xml:space="preserve">
<style type="text/css">
	.st0{fill:#474DFF;}
</style>
<path id="Fill-1-Copy" class="st0" d="M383.2,196.8c-8.3,8.3-18.4,13.4-29.1,15.5c14.8,40,5.2,85.7-25.3,116.2
	c-21,21-49.3,32.2-78,32.2c-12.9,0-25.9-2.3-38.3-6.9c-2.1,10.7-7.2,20.9-15.5,29.2c-22.1,22.1-57.9,22.1-80,0
	c-22.1-22.1-22.1-57.9,0-80c8.2-8.2,18.4-13.4,29.1-15.5c-15.1-40.1-5.6-86.1,25.1-116.7c30.6-30.6,76.5-40.2,116.6-25.1
	c2.1-10.6,7.3-20.7,15.5-28.9c22.1-22.1,57.9-22.1,80,0C405.3,138.9,405.3,174.7,383.2,196.8z M250,0C111.9,0,0,111.9,0,250
	c0,138.1,111.9,250,250,250c138.1,0,250-111.9,250-250C500,111.9,388.1,0,250,0z M279.5,279.2c-16.2,16.2-42.4,16.2-58.5,0
	c-16.2-16.2-16.2-42.4,0-58.5c16.2-16.2,42.4-16.2,58.5,0C295.7,236.8,295.7,263,279.5,279.2z M316.5,130.1
	c-8.5,8.5-12.4,20.7-10.4,32.6c0.7,3.9,0.3,7.9-1.5,11.6c-2.2,4.8-6.2,8.3-10.8,10c-4.6,1.7-9.9,1.6-14.7-0.6
	c-27.1-12.5-59.5-6.8-80.6,14.3c-21.1,21.1-26.9,53.5-14.3,80.6c2.3,4.9,2.3,10.3,0.5,14.9c-1.7,4.5-5.1,8.4-9.9,10.6
	c-2.6,1.2-5.4,1.8-8.1,1.8c-1.3,0-2.6-0.2-3.8-0.4c-12.4-1.7-23.9,2.1-32.3,10.5c-7.1,7.1-10.9,16.4-10.9,26.4
	c0,10,3.9,19.4,10.9,26.4c14.6,14.6,38.3,14.6,52.8,0c8.5-8.5,12.4-20.7,10.4-32.6c-0.1-0.7-0.1-1.3,0-1.9c-0.2-3.1,0.3-6.4,1.7-9.5
	c2.2-4.8,6.2-8.3,10.8-10c4.6-1.7,9.9-1.7,14.8,0.6c27.1,12.6,59.5,6.8,80.6-14.3c21.1-21.1,26.9-53.5,14.3-80.6
	c-2.2-4.8-2.3-10-0.6-14.6c1.7-4.7,5.2-8.7,10-11c3.4-1.6,7.1-2.1,10.5-1.6c0.5-0.1,1.1-0.1,1.7,0c11.8,1.7,23.3-2.2,31.7-10.6
	c14.6-14.6,14.6-38.3,0-52.8C354.7,115.5,331,115.5,316.5,130.1z"/>
</svg>
