<svg width="24" height="24" viewBox="0 0 24 24" fill="none" xmlns="http://www.w3.org/2000/svg">
<g clip-path="url(#clip0_21677_43973)">
<path d="M3.20995 22.63C2.99995 22.63 2.79995 22.54 2.64995 22.37C2.38995 22.06 2.43995 21.61 2.73995 21.35L4.86995 19.57C5.02995 19.44 5.23995 19.38 5.43995 19.41L11.7099 20.38C12.3599 20.48 13.0299 20.33 13.5699 19.95L21.3899 14.51C21.0799 14.44 20.6799 14.46 20.1999 14.69C18.9799 15.29 17.2299 16.18 16.2899 16.67C15.9299 16.85 15.4899 16.71 15.3099 16.34C15.1399 15.99 15.2699 15.56 15.6199 15.38C16.5499 14.9 18.3299 13.99 19.5599 13.39C21.3399 12.52 22.7599 13.42 23.2599 14.01C23.3899 14.17 23.4499 14.37 23.4199 14.57C23.3899 14.77 23.2799 14.95 23.1199 15.07L14.3999 21.14C13.5499 21.73 12.5099 21.97 11.4899 21.81L5.54995 20.89L3.66995 22.46C3.53995 22.57 3.36995 22.63 3.20995 22.63Z" fill="black"/>
<path d="M0.719946 18.83C0.479946 18.83 0.239946 18.71 0.0999458 18.48C-0.110054 18.14 -5.41806e-05 17.69 0.339946 17.49L4.88995 14.72C5.01995 14.65 7.42995 13.33 9.51995 13.99C11.2999 14.55 13.4799 15.18 13.4799 15.18C13.7499 15.26 13.9599 15.49 13.9899 15.78C13.9999 15.89 14.1099 16.84 13.4699 17.59C13.1699 17.94 12.5999 18.36 11.5599 18.37C10.7399 18.38 9.34995 18.37 8.49995 18.37C8.09995 18.37 7.77995 18.04 7.77995 17.64C7.77995 17.24 8.09995 16.92 8.49995 16.92C9.33995 16.92 10.7199 16.92 11.5299 16.92C11.9299 16.92 12.2099 16.82 12.3599 16.64C12.4199 16.57 12.4599 16.48 12.4899 16.4C11.7199 16.17 10.2999 15.75 9.06995 15.36C7.57995 14.89 5.61995 15.95 5.59995 15.96L1.07995 18.72C0.959946 18.79 0.829946 18.83 0.699946 18.83H0.719946Z" fill="black"/>
<path d="M12.6299 13.97C10.5199 13.97 8.80995 12.25 8.80995 10.15C8.80995 8.05 10.5199 6.33 12.6299 6.33C14.7399 6.33 16.4499 8.05 16.4499 10.15C16.4499 12.25 14.7399 13.97 12.6299 13.97ZM12.6299 7.92C11.3999 7.92 10.4099 8.92 10.4099 10.14C10.4099 11.36 11.4099 12.36 12.6299 12.36C13.8499 12.36 14.8499 11.36 14.8499 10.14C14.8499 8.92 13.8499 7.92 12.6299 7.92Z" fill="black"/>
<path d="M18.2199 7.46C16.7199 7.46 15.4899 6.24 15.4899 4.73C15.4899 3.22 16.7099 2 18.2199 2C19.7299 2 20.9499 3.22 20.9499 4.73C20.9499 6.24 19.7299 7.46 18.2199 7.46ZM18.2199 3.4C17.4899 3.4 16.8899 4 16.8899 4.73C16.8899 5.46 17.4899 6.06 18.2199 6.06C18.9499 6.06 19.5499 5.46 19.5499 4.73C19.5499 4 18.9499 3.4 18.2199 3.4Z" fill="black"/>
</g>
<defs>
<clipPath id="clip0_21677_43973">
<rect width="24" height="24" fill="white"/>
</clipPath>
</defs>
</svg>
