<svg width="24" height="24" fill="currentColor" xmlns="http://www.w3.org/2000/svg"><path fill-rule="evenodd" clip-rule="evenodd" d="M11.447 2.19a.895.895 0 011.106 0l8.1 6.345c.219.172.347.436.347.716v9.03c0 .721-.285 1.413-.79 1.923A2.69 2.69 0 0118.3 21h-3.61a.903.903 0 01-.9-.906v-6.062a.25.25 0 00-.25-.25h-3.1a.25.25 0 00-.25.25v6.062c0 .5-.403.906-.9.906H5.7a2.69 2.69 0 01-1.91-.796A2.729 2.729 0 013 18.28v-9.03c0-.28.128-.544.347-.716l8.1-6.344zM4.8 9.695v8.587c0 .24.095.47.264.64.168.17.397.266.636.266h2.69v-6.31c0-.502.403-.907.9-.907h5.4c.497 0 .9.405.9.906v6.311h2.71a.897.897 0 00.636-.265.91.91 0 00.264-.641V9.694L12 4.054l-7.2 5.64z"/></svg>
