<svg width="18" height="19" viewBox="0 0 18 19" fill="currentColor" xmlns="http://www.w3.org/2000/svg">
<path fill-rule="evenodd" clip-rule="evenodd" d="M8.44745 0.190918C8.77245 -0.0636395 9.22755 -0.0636395 9.55255 0.190918L17.6525 6.5353C17.8718 6.70701 18 6.97103 18 7.25072V16.281C18 17.0021 17.7155 17.6937 17.2092 18.2036C16.7028 18.7135 16.0161 19 15.3 19H11.6903C11.1933 19 10.7903 18.5942 10.7903 18.0937V12.0324C10.7903 11.8943 10.6784 11.7824 10.5403 11.7824H7.44033C7.30226 11.7824 7.19033 11.8943 7.19033 12.0324V18.0937C7.19033 18.5942 6.78739 19 6.29033 19H2.7C1.98392 19 1.29716 18.7135 0.790812 18.2036C0.284463 17.6937 0 17.0021 0 16.281V7.25072C0 6.97103 0.128226 6.70701 0.347453 6.5353L8.44745 0.190918ZM1.8 7.69399V16.281C1.8 16.5214 1.89482 16.7519 2.0636 16.9219C2.23239 17.0918 2.46131 17.1873 2.7 17.1873H5.39033V10.8761C5.39033 10.3755 5.79328 9.96974 6.29033 9.96974H11.6903C12.1874 9.96974 12.5903 10.3755 12.5903 10.8761V17.1873H15.3C15.5387 17.1873 15.7676 17.0918 15.9364 16.9219C16.1052 16.7519 16.2 16.5214 16.2 16.281V7.69399L9 2.05455L1.8 7.69399Z"/>
</svg>
