<?xml version="1.0" encoding="iso-8859-1"?>
<!-- Generator: Adobe Illustrator 19.0.0, SVG Export Plug-In . SVG Version: 6.00 Build 0)  -->
<svg version="1.1" id="Layer_1" xmlns="http://www.w3.org/2000/svg" xmlns:xlink="http://www.w3.org/1999/xlink" x="0px" y="0px"
	 viewBox="0 0 500 500" style="enable-background:new 0 0 500 500;" xml:space="preserve">
<path style="fill:#2C343F;" d="M274.847,8.254c102.736,13.955,170.791,70.499,204.876,167.894
	c5.713,16.324,7.961,33.86,11.81,50.836c1.239,14.958,1.486,28.113,0,43.663c-2.899,14.329-4.51,29.065-8.905,42.919
	c-28.6,90.169-87.635,148.681-180.53,171.22c-21.517,4.985-48.854,5.934-77.823,4.74c-27.315-1.125-53.365-8.97-77.489-21.347
	c-11.15-5.721-21.233-5.303-32.25-3.022c-8.661,1.793-17.247,3.953-25.91,5.735c-17.963,3.694-35.956,7.246-55.551,11.18
	c7.835-25.645,15.501-49.27,22.015-73.207c1.433-5.267,0.189-12.322-2.237-17.399c-11.042-23.113-24.423-45.215-34.032-68.871
	c-6.624-16.308-8.456-34.562-12.429-51.947c-1.643-14.752-0.73-28.968,0-43.663c2.899-14.329,4.51-29.065,8.905-42.919
	c28.6-90.17,87.59-148.869,180.53-171.22C234.381,3.573,273.431,8.061,274.847,8.254z M165.911,99.838c0,96.254,0,190.681,0,285.627
	c20.731,0,40.622,0,61.521,0c0-45.826,0-90.608,0-136.563c9.517-2.584,18.292-5.565,27.308-7.298
	c23.02-4.423,29.857,1.323,29.886,24.387c0.044,35.574-0.013,71.148,0.047,106.722c0.007,4.255,0.475,8.509,0.74,12.925
	c20.924,0,40.519,0,59.995,0c0.527-2.01,1.096-3.167,1.095-4.323c-0.051-50.93,0.531-101.874-0.518-152.784
	c-0.574-27.874-15.423-40.683-43.083-41.575c-25.721-0.83-50.629,2.37-75.466,15.334c0-42.625,0-83.226,0-125.848
	C205.822,84.66,185.987,92.203,165.911,99.838z"/>
<path style="fill:#FFFFFF;" d="M165.911,99.838c20.076-7.635,39.911-15.178,61.523-23.397c0,42.622,0,83.223,0,125.848
	c24.837-12.964,49.745-16.164,75.466-15.334c27.661,0.892,42.509,13.701,43.083,41.575c1.048,50.91,0.467,101.854,0.518,152.784
	c0.001,1.156-0.568,2.313-1.095,4.323c-19.476,0-39.071,0-59.995,0c-0.264-4.416-0.733-8.67-0.74-12.925
	c-0.06-35.574-0.002-71.148-0.047-106.722c-0.029-23.064-6.866-28.81-29.886-24.387c-9.016,1.732-17.791,4.714-27.308,7.298
	c0,45.955,0,90.737,0,136.563c-20.899,0-40.79,0-61.521,0C165.911,290.519,165.911,196.092,165.911,99.838z"/>
</svg>
