<?xml version="1.0" encoding="iso-8859-1"?>
<!-- Generator: Adobe Illustrator 19.0.0, SVG Export Plug-In . SVG Version: 6.00 Build 0)  -->
<svg version="1.1" id="Layer_1" xmlns="http://www.w3.org/2000/svg" xmlns:xlink="http://www.w3.org/1999/xlink" x="0px" y="0px"
	 viewBox="0 0 500 500" style="enable-background:new 0 0 500 500;" xml:space="preserve">
<path style="fill:#00838D;" d="M5.627,427.508c7.597-17.405,14.829-33.974,22.088-50.605c36.158-0.124,68.551-10.645,95.801-34.842
	c18.598-16.514,31.012-36.953,37.135-61.32c-20.009-1.118-40.168,1.946-60.079-3.511c7.338-16.82,14.421-33.157,21.686-49.413
	c0.374-0.838,2.303-1.374,3.513-1.385c11.717-0.102,23.435-0.061,35.658-0.061c-7.338-31.27-24.17-55.756-50-73.895
	c-25.673-18.028-54.647-25.703-86.031-25.041C18.11,110.738,10.938,94.305,3.342,76.9c51.144-5.975,98.294,3.839,141.383,31.275
	c43.631,27.781,71.507,66.775,81.257,118.104c15.671,0,31.223,0,46.651,0c12.566-60.994,48.901-103.089,103.865-129.626
	c37.745-18.223,77.808-24.159,120.168-18.377c-3.107,7.157-5.887,13.547-8.656,19.941c-4.018,9.28-7.89,18.628-12.198,27.771
	c-0.62,1.316-3.331,2.336-5.071,2.331c-24.326-0.067-47.83,4.298-69.274,15.766c-12.171,6.508-23.696,14.741-34.202,23.728
	c-17.271,14.773-28.51,33.844-34.61,55.826c-0.219,0.789-0.417,1.584-0.655,2.489c19.632,1.354,39.5-2.216,59.026,3.765
	c-4.237,9.706-8.335,19.064-12.407,28.433c-2.632,6.056-4.952,12.272-7.998,18.11c-0.976,1.871-3.783,3.841-5.826,3.923
	c-9.971,0.403-19.967,0.182-29.954,0.183c-0.808,0-1.616,0-2.483,0c8.891,41.046,55.181,97.883,141.414,97.625
	c7.1,16.286,14.239,32.662,21.819,50.047c-50.909,6.125-97.825-3.548-140.852-30.623c-43.574-27.419-71.636-65.991-81.85-116.953
	c-15.927,0-31.756,0-47.342,0c-13.097,60.295-49.328,101.814-103.823,128.073C85.21,426.306,46.471,432.104,5.627,427.508z"/>
</svg>
