<?xml version="1.0" encoding="utf-8"?>
<!-- Generator: Adobe Illustrator 23.0.3, SVG Export Plug-In . SVG Version: 6.00 Build 0)  -->
<svg version="1.1" id="hpb" xmlns="http://www.w3.org/2000/svg" xmlns:xlink="http://www.w3.org/1999/xlink" x="0px" y="0px"
	 viewBox="0 0 500 500" style="enable-background:new 0 0 500 500;" xml:space="preserve">
<style type="text/css">
	.st0{fill:url(#SVGID_1_);}
	.st1{fill:url(#SVGID_2_);}
	.st2{fill:url(#SVGID_3_);}
	.st3{fill:url(#SVGID_4_);}
	.st4{fill:url(#SVGID_5_);}
	.st5{fill:url(#SVGID_6_);}
</style>
<linearGradient id="SVGID_1_" gradientUnits="userSpaceOnUse" x1="119.4165" y1="126.6592" x2="381.6642" y2="126.6592">
	<stop  offset="0" style="stop-color:#252D6F"/>
	<stop  offset="1" style="stop-color:#1BF4F8"/>
</linearGradient>
<path class="st0" d="M119.4,39.6c0,0,15.6-8.4,40.7-11.9s114-16.3,114-16.3s18.5-3.5,38.3-0.4s28.6,7.9,28.6,7.9s44,36.1,40.5,99.9
	s-50.2,108-88.5,120.6c-6.6,2.2-10.6,2.8-17.1,4c-8.3,1.5-13.7-4.7-10.9-12c6.4-16.2,13-42.4,6.8-73.4
	C261.3,105.6,209.3,31.3,119.4,39.6z"/>
<linearGradient id="SVGID_2_" gradientUnits="userSpaceOnUse" x1="234.7917" y1="345.952" x2="496.3051" y2="345.952">
	<stop  offset="0" style="stop-color:#252D6F"/>
	<stop  offset="1" style="stop-color:#1BF4F8"/>
</linearGradient>
<path class="st1" d="M496.3,241.6c0,0-0.4,17.7-9.8,41.2c-9.4,23.5-42.3,107.1-42.3,107.1s-6.1,17.8-18.6,33.5
	c-12.5,15.7-21.1,20.9-21.1,20.9s-53.2,20.4-106.8-14.3s-68.9-97.1-61-136.6c1.4-6.8,2.8-10.6,5-16.8c2.8-7.9,10.9-9.6,15.8-3.5
	c10.9,13.6,30.4,32.4,60.4,42.3C368.7,332.2,459,323.8,496.3,241.6z"/>
<linearGradient id="SVGID_3_" gradientUnits="userSpaceOnUse" x1="3.029" y1="327.174" x2="232.4935" y2="327.174">
	<stop  offset="0" style="stop-color:#252D6F"/>
	<stop  offset="1" style="stop-color:#1BF4F8"/>
</linearGradient>
<path class="st2" d="M132.9,467.7c0,0-15.1-9.2-30.8-29.1s-71.7-90.1-71.7-90.1S18,334.4,10.7,315.7C3.3,297.1,3,287,3,287
	s8.9-56.2,65.7-85.4s118.6-11.2,148.8,15.4c5.2,4.6,7.8,7.7,12.1,12.7c5.4,6.4,2.9,14.2-4.8,15.4c-17.3,2.6-43.2,10.2-66.8,31.2
	C118.1,312,80.3,394.4,132.9,467.7z"/>
<linearGradient id="SVGID_4_" gradientUnits="userSpaceOnUse" x1="266.2946" y1="172.5946" x2="650.491" y2="172.5946">
	<stop  offset="0" style="stop-color:#FEFEFF"/>
	<stop  offset="0.1991" style="stop-color:#F9FCFD"/>
	<stop  offset="0.425" style="stop-color:#ECF6F9"/>
	<stop  offset="0.6641" style="stop-color:#D5EDF2"/>
	<stop  offset="0.9107" style="stop-color:#B5E0E7"/>
	<stop  offset="1" style="stop-color:#A8DAE3"/>
</linearGradient>
<path class="st3" d="M366.6,32c0,0,15.1,9.2,30.7,29.2c15.7,19.9,71.4,90.3,71.4,90.3s12.3,14.2,19.6,32.9s7.5,28.7,7.5,28.7
	s-9.1,56.2-66,85.2c-56.9,29.1-118.6,10.9-148.7-15.8c-5.2-4.6-7.8-7.7-12-12.7c-5.4-6.4-2.8-14.3,4.9-15.4
	c17.3-2.6,43.3-10.1,66.9-31.1C380.9,187.9,419,105.5,366.6,32z"/>
<linearGradient id="SVGID_5_" gradientUnits="userSpaceOnUse" x1="117.4772" y1="372.6042" x2="379.3538" y2="372.6042">
	<stop  offset="0" style="stop-color:#FEFEFF"/>
	<stop  offset="0.1991" style="stop-color:#F9FCFD"/>
	<stop  offset="0.425" style="stop-color:#ECF6F9"/>
	<stop  offset="0.6641" style="stop-color:#D5EDF2"/>
	<stop  offset="0.9107" style="stop-color:#B5E0E7"/>
	<stop  offset="1" style="stop-color:#A8DAE3"/>
</linearGradient>
<path class="st4" d="M379.4,460.5c0,0-15.6,8.3-40.7,11.7s-114.1,15.7-114.1,15.7s-18.5,3.4-38.3,0.2c-19.8-3.2-28.6-8.1-28.6-8.1
	s-43.8-36.3-40-100.1c3.8-63.8,50.8-107.7,89.1-120.1c6.6-2.2,10.6-2.8,17.1-3.9c8.3-1.4,13.7,4.8,10.8,12
	c-6.5,16.2-13.3,42.4-7.2,73.4C237.8,393.8,289.4,468.4,379.4,460.5z"/>
<linearGradient id="SVGID_6_" gradientUnits="userSpaceOnUse" x1="2.8731" y1="151.5121" x2="265.8854" y2="151.5121">
	<stop  offset="0" style="stop-color:#FEFEFF"/>
	<stop  offset="0.1991" style="stop-color:#F9FCFD"/>
	<stop  offset="0.425" style="stop-color:#ECF6F9"/>
	<stop  offset="0.6641" style="stop-color:#D5EDF2"/>
	<stop  offset="0.9107" style="stop-color:#B5E0E7"/>
	<stop  offset="1" style="stop-color:#A8DAE3"/>
</linearGradient>
<path class="st5" d="M2.9,254.5c0,0,0.8-17.7,10.7-41s44.6-106.2,44.6-106.2s6.5-17.7,19.3-33.1s21.5-20.5,21.5-20.5
	s53.6-19.2,106.5,16.5s66.9,98.5,58.1,137.8c-1.5,6.8-3,10.5-5.3,16.7c-3,7.8-11.1,9.4-15.8,3.2c-10.6-13.9-29.7-33-59.5-43.5
	C132.4,166.6,41.9,173.1,2.9,254.5z"/>
</svg>
