<?xml version="1.0" encoding="iso-8859-1"?>
<!-- Generator: Adobe Illustrator 19.0.0, SVG Export Plug-In . SVG Version: 6.00 Build 0)  -->
<svg version="1.1" id="Layer_1" xmlns="http://www.w3.org/2000/svg" xmlns:xlink="http://www.w3.org/1999/xlink" x="0px" y="0px"
	 viewBox="1000 -1000 2500 2500" style="enable-background:new 1000 -1000 2500 2500;" xml:space="preserve">
<g>
	<path style="fill:#56428E;" d="M1664.848-691.481h485.255c-58.352,91.941-94.172,193.469-91.941,303.493
		c144.397,1.471,289.162,1.471,433.559,0c1.851-109.288-27.693-213.77-90.85-303.493h488.577
		c-33.602,70.145-90.85,135.129-85.309,217.46c-2.219,368.097,0.736,736.574-0.368,1104.671c48.006,0,96.392,0,144.765,0.368
		c35.453-69.777,66.848-140.977,91.942-214.873c145.133,3.678,291.013-4.058,435.398,15.14
		c-142.914,122.589-217.521,296.848-310.578,455.601c-369.298,0.735-738.597-1.103-1108.263,1.103
		c-17.358,134.026,65.732,226.323,162.124,303.493h-623.78c54.282-71.261,163.594-117.035,152.157-221.53
		c3.678-355.911,0-712.24,1.103-1068.482h316.524v219.311h419.89V-130.65h-876.717C1535.598-3.64,1462.969,123.243,1390.445,250
		c72.385,127.01,145.12,253.893,218.208,380.65h107.878v256.21h-329.763C1266.373,674.218,1141.553,464.138,1024.114,250v-0.368
		c117.808-213.77,242.995-423.85,362.654-636.517c122.981,0,245.95,0,368.931-1.103
		C1756.433-496.908,1726.522-601.023,1664.848-691.481 M2065.173,379.221V630.65h419.89V379.221H2065.173z"/>
	<path style="fill:#56428E;" d="M2835.888-386.885h328.623c90.115,143.993,152.157,310.149,282.15,425.383
		c2.587,8.495,7.355,25.842,9.967,34.325c-138.856,18.094-279.502,4.058-419.523,11.033
		c-17.726-76.79-52.811-147.315-91.586-214.873c-27.693,0-82.355,0.368-109.68,0.368L2835.888-386.885z M2496.501,919.003
		c97.127,0.368,194.622,0,291.761-0.368c-2.219,123.312,84.586,199.746,169.883,272.846h-628.193
		C2410.456,1115.476,2504.629,1043.43,2496.501,919.003"/>
</g>
</svg>
