<?xml version="1.0" encoding="iso-8859-1"?>
<!-- Generator: Adobe Illustrator 19.0.0, SVG Export Plug-In . SVG Version: 6.00 Build 0)  -->
<svg version="1.1" id="Layer_1" xmlns="http://www.w3.org/2000/svg" xmlns:xlink="http://www.w3.org/1999/xlink" x="0px" y="0px"
	 viewBox="0 0 500 500" style="enable-background:new 0 0 500 500;" xml:space="preserve">
<g>
	<path style="fill:#484F70;" d="M86.453,333.579c0.872-48.056,19.028-88.382,55.016-120.685
		c27.877-25.022,50.977-53.996,68.468-87.051c11.389-21.524,16.451-45.266,19.122-69.405c1.694-15.308,2.481-30.674,1.287-46.079
		c-0.178-2.298-0.458-4.727,2.105-5.948c2.539-1.209,4.248,0.483,5.963,2.055c38.094,34.928,62.438,77.695,72.663,128.342
		c3.252,16.109,6.029,32.334,2.552,48.91c-4.27,20.354-15.309,36.96-28.286,52.58c-8.299,9.989-17.553,19.04-27.023,27.898
		c-54.497,50.969-90.593,112.771-108.805,185.076c-1.872,7.434-4.719,8.443-10.296,3.276
		c-31.266-28.972-48.932-64.593-52.149-107.218C86.78,341.495,86.662,337.649,86.453,333.579z"/>
	<path style="fill:#16B4F0;" d="M248.078,493.988c-18.416,0.205-35.204-2.914-51.705-7.919c-2.182-0.662-3.847-1.622-4.146-4.109
		c-0.328-2.735,1.194-4.056,3.449-5.197c12.179-6.16,19.742-15.944,22.306-29.377c6.967-36.494,26.611-65.798,52.138-91.674
		c21.521-21.815,43.175-43.482,61.551-68.133c15.92-21.355,27.715-44.872,36.845-69.802c0.481-1.313,0.964-2.626,1.407-3.953
		c0.64-1.918,1.526-3.573,3.832-3.782c2.343-0.213,3.409,1.378,4.38,3.118c7.526,13.492,13.481,27.66,18.011,42.414
		c7.388,24.061,11.417,48.634,11.308,73.869c-0.192,44.234-14.072,83.22-44.962,115.313c-26.812,27.856-59.657,44.026-98.232,48.293
		C258.505,493.683,252.759,494.076,248.078,493.988z"/>
</g>
</svg>
