<?xml version="1.0" encoding="utf-8"?>
<!-- Generator: Adobe Illustrator 24.1.0, SVG Export Plug-In . SVG Version: 6.00 Build 0)  -->
<svg version="1.1" id="HUSD" xmlns="http://www.w3.org/2000/svg" xmlns:xlink="http://www.w3.org/1999/xlink" x="0px" y="0px"
	 viewBox="0 0 500 500" style="enable-background:new 0 0 500 500;" xml:space="preserve">
<style type="text/css">
	.st0{fill:#1A61F0;}
	.st1{fill:#FFFFFF;}
</style>
<circle class="st0" cx="249.61" cy="250" r="245.39"/>
<path class="st1" d="M324.89,350.97h-38v-64.02c0-9.91-8.04-17.95-17.95-17.95h-55.77c-21.45,0-38.83-17.39-38.83-38.83v-82.81h38
	v65.7c0,9.91,8.04,17.95,17.95,17.95h55.77c21.45,0,38.83,17.39,38.83,38.83V350.97z"/>
<path class="st1" d="M324.89,210.28L324.89,210.28c-20.99,0-38-17.01-38-38v-24.93h38V210.28z"/>
<path class="st1" d="M212.33,350.97h-38v-61.39h0c20.99,0,38,17.01,38,38V350.97z"/>
</svg>
