<?xml version="1.0" encoding="utf-8"?>
<!-- Generator: Adobe Illustrator 25.2.0, SVG Export Plug-In . SVG Version: 6.00 Build 0)  -->
<svg version="1.1" id="hvn" xmlns="http://www.w3.org/2000/svg" xmlns:xlink="http://www.w3.org/1999/xlink" x="0px" y="0px"
	 viewBox="0 0 500 500" style="enable-background:new 0 0 500 500;" xml:space="preserve">
<style type="text/css">
	.st0{fill:#222222;}
</style>
<path id="Combined-Shape" class="st0" d="M325.7,169L325.7,169l-227,131v139.2h75.7v-63.7v-43.4v-0.1l0.1,0L401.3,201V60.8h-75.7
	V169z M288,147.3l-0.1-0.1V23h151.3v199.8L211.7,354l0.5,0.3V477H60.8V278.4L288,147.3z M60.8,234.6V23h151.3v124.2L174.3,169V60.8
	H98.7v151.9L60.8,234.6z M287.8,354.2l37.8-22.2v107.1h75.7V287.8l37.8-21.9V477H287.8V354.2z"/>
</svg>
