<?xml version="1.0" encoding="utf-8"?>
<!-- Generator: Adobe Illustrator 24.2.0, SVG Export Plug-In . SVG Version: 6.00 Build 0)  -->
<svg version="1.1" id="Layer_1" xmlns="http://www.w3.org/2000/svg" xmlns:xlink="http://www.w3.org/1999/xlink" x="0px" y="0px"
	 viewBox="0 0 500 500" style="enable-background:new 0 0 500 500;" xml:space="preserve">
<style type="text/css">
	.st0{fill:#C69C6D;}
</style>
<polygon class="st0" points="135.1,166.9 79.5,92.8 265.2,92.8 282.7,120.8 135.3,120.8 151,141.6 "/>
<polygon class="st0" points="416.6,406.9 233.9,406.9 216.7,379 362.4,379 347.9,358.6 363.1,331.9 "/>
<path class="st0" d="M331.1,250.7c0-10.5-2-20.6-5.7-29.9l91.1-128h-98.2l17.5,28h26.5l-53,74.4c-15-16.3-36.6-26.6-60.4-26.6
	c-23.3,0-44.4,9.8-59.3,25.4l-10.2-13L163,207.3l9.6,10.3l1.8-1.4c-4.9,10.5-7.6,22.2-7.6,34.5c0,10.8,2.1,21.2,6,30.7L79.5,406.9
	h100.9l-16.7-28h-28.5l53.8-72.1c15,16,36.3,26,59.9,26c24.2,0,46.1-10.6,61.1-27.3l10.5,14.8l16.9-23.8l-11.6-16.9
	C329.2,270.6,331.1,260.9,331.1,250.7z M249,308.4c-31.8,0-57.7-25.9-57.7-57.7S217.2,193,249,193c31.8,0,57.7,25.9,57.7,57.7
	S280.8,308.4,249,308.4z"/>
<polygon class="st0" points="320.2,165.9 248.8,54.4 229.8,84.3 197.9,84.3 248.8,1.6 337.5,142.9 "/>
<polygon class="st0" points="135.6,317.1 93.3,250.7 169,130.1 201.3,129.9 126.3,250.7 152.6,293.4 "/>
<polygon class="st0" points="249.7,498.9 161.7,357.8 178.4,334.3 249.6,446.3 268.6,416.5 300.7,416.5 "/>
<polygon class="st0" points="328.3,371.9 296.8,371.9 371.4,250.7 346.1,207.3 363.3,183.6 404.3,250.7 "/>
</svg>
