<?xml version="1.0" encoding="utf-8"?>
<!-- Generator: Adobe Illustrator 24.1.2, SVG Export Plug-In . SVG Version: 6.00 Build 0)  -->
<svg version="1.1" id="IBAT" xmlns="http://www.w3.org/2000/svg" xmlns:xlink="http://www.w3.org/1999/xlink" x="0px" y="0px"
	 viewBox="0 0 500 500" style="enable-background:new 0 0 500 500;" xml:space="preserve">
<style type="text/css">
	.st0{fill:url(#SVGID_1_);}
	.st1{fill:#FFFFFF;}
	.st2{fill:#C43C86;}
	.st3{fill:#EF4B2D;}
	.st4{fill:#9D2063;}
	.st5{fill:#662F8E;}
</style>
<linearGradient id="SVGID_1_" gradientUnits="userSpaceOnUse" x1="467.4997" y1="34.5009" x2="67.5004" y2="434.5001" gradientTransform="matrix(1 0 0 -1 0 502)">
	<stop  offset="0.1594" style="stop-color:#003CDA"/>
	<stop  offset="1" style="stop-color:#33DFCC"/>
</linearGradient>
<path class="st0" d="M250,96.4c30.4,0,60.1,9,85.3,25.9c25.3,16.9,44.9,40.9,56.6,68.9c11.6,28.1,14.7,58.9,8.7,88.7
	c-5.9,29.8-20.6,57.2-42,78.6c-21.5,21.5-48.8,36.1-78.6,42c-29.8,5.9-60.7,2.9-88.7-8.7c-28.1-11.6-52.1-31.3-68.9-56.6
	c-16.9-25.3-25.9-55-25.9-85.3c0.1-40.7,16.3-79.8,45-108.5C170.2,112.7,209.3,96.5,250,96.4z M250,0c-49.4,0-97.8,14.7-138.9,42.1
	C70,69.6,38,108.6,19,154.3C0.1,200-4.8,250.3,4.8,298.8c9.6,48.5,33.5,93,68.4,128c35,35,79.5,58.8,128,68.4
	c48.5,9.6,98.8,4.7,144.4-14.2c45.7-18.9,84.7-51,112.2-92.1C485.3,347.8,500,299.4,500,250c0-66.3-26.3-129.9-73.2-176.8
	C379.9,26.3,316.3,0,250,0z"/>
<path class="st1" d="M250,446c108.2,0,196-87.7,196-196S358.2,54,250,54S54,141.8,54,250S141.8,446,250,446z"/>
<path class="st2" d="M361.8,362.9c-14.8,14.8-32.4,26.4-51.8,34.2c-19.4,7.8-40.1,11.7-61,11.3c-20.8,0.4-41.4-3.4-60.6-11.3
	c-19.2-7.8-36.7-19.5-51.2-34.3c-14.9-14.5-26.7-31.9-34.5-51.2c-7.9-19.3-11.7-39.9-11.2-60.7c0-45.5,15.3-83.5,45.9-113.8
	c14.6-14.8,32-26.5,51.2-34.3c19.2-7.8,39.9-11.6,60.6-11.2c20.9-0.4,41.6,3.5,61,11.3c19.4,7.8,37,19.5,51.7,34.2
	c31.2,30.4,46.9,68.3,46.9,113.8c0.4,20.9-3.6,41.6-11.7,60.9C389,331.2,377,348.5,361.8,362.9L361.8,362.9z"/>
<path class="st1" d="M195.4,294.7l108.9,0.2l-54.3-94.1L195.4,294.7z"/>
<path class="st3" d="M250.2,131.8c-0.9,0-1.8,0.2-2.6,0.7c-0.8,0.5-1.5,1.1-1.9,1.9L137.2,320.9c-0.5,0.8-0.7,1.7-0.7,2.6
	c0,0.9,0.2,1.8,0.7,2.6l66.1-38.2l46.7-80.4L250.2,131.8z"/>
<path class="st4" d="M362.5,321.2L254.7,134.4c-0.5-0.8-1.1-1.4-1.9-1.9c-0.8-0.5-1.7-0.7-2.6-0.7v75.8l46.3,80.5l66,38.4
	c0.5-0.8,0.7-1.7,0.7-2.6C363.2,323,363,322,362.5,321.2L362.5,321.2z"/>
<path class="st5" d="M362.5,326.4l-66-38.4h-93.2l-66.1,38c0.4,0.8,1.1,1.5,1.9,1.9c0.8,0.5,1.7,0.7,2.6,0.7L358,329
	c0.9,0,1.8-0.2,2.6-0.7C361.4,327.9,362,327.2,362.5,326.4L362.5,326.4z"/>
</svg>
