<?xml version="1.0" encoding="iso-8859-1"?>
<!-- Generator: Adobe Illustrator 19.0.0, SVG Export Plug-In . SVG Version: 6.00 Build 0)  -->
<svg version="1.1" id="Layer_1" xmlns="http://www.w3.org/2000/svg" xmlns:xlink="http://www.w3.org/1999/xlink" x="0px" y="0px"
	 viewBox="0 0 500 500" style="enable-background:new 0 0 500 500;" xml:space="preserve">
<g>
	<path style="fill:#4C6F8C;" d="M413.321,248.032c0-68.842-0.003-137.685,0.009-206.527c0.001-3.333,0.008-6.673,0.217-9.997
		c0.839-13.361,9.802-22.565,23.175-23.676c10.567-0.878,21.156-0.891,31.726-0.013c12.701,1.054,20.922,8.617,22.994,21.252
		c0.568,3.462,0.749,7.023,0.75,10.538c0.036,138.862,0.037,277.724-0.003,416.585c-0.001,3.709-0.208,7.469-0.834,11.117
		c-2.101,12.243-10.464,19.884-22.764,20.821c-10.571,0.805-21.169,0.787-31.74-0.002c-13.266-0.99-22.433-10.324-23.298-23.575
		c-0.217-3.323-0.222-6.664-0.223-9.997C413.318,385.717,413.321,316.875,413.321,248.032z"/>
	<path style="fill:#BFCBD5;" d="M221.757,344.461c0,38.827,0.03,77.654-0.013,116.481c-0.02,17.907-9.292,27.151-27.179,27.255
		c-7.451,0.043-14.903,0.031-22.355,0.01c-19.515-0.055-29.247-9.67-29.296-29.235c-0.082-32.552-0.024-65.104-0.024-97.656
		c0-43.533-0.052-87.067,0.047-130.6c0.02-8.796,1.815-16.946,8.985-23.285c4.577-4.046,9.994-6.017,15.5-6.181
		c11.308-0.337,22.701-1.386,33.985,0.755c12.615,2.393,20.279,11.3,20.305,24.21c0.078,39.415,0.028,78.831,0.028,118.246
		C221.745,344.461,221.751,344.461,221.757,344.461z"/>
	<path style="fill:#BFCBD5;" d="M357.049,378.696c0.001,27.447,0.023,54.895-0.007,82.342c-0.019,17.054-9.954,27.048-26.962,27.157
		c-8.234,0.053-16.469,0.048-24.702,0c-17.363-0.102-27.163-9.981-27.179-27.561c-0.042-48.621-0.091-97.243,0.051-145.863
		c0.027-9.36-1.188-18.801,1.092-28.091c2.745-11.188,11.696-18.518,23.227-18.693c9.604-0.145,19.213-0.125,28.819-0.034
		c15.417,0.145,25.601,10.447,25.641,26.048C357.099,322.232,357.048,350.464,357.049,378.696z"/>
	<path style="fill:#BFCBD5;" d="M87.422,411.293c0,16.073,0.278,32.152-0.102,48.216c-0.236,10.012-2.442,19.481-12.198,25.139
		c-4.006,2.324-8.26,3.489-12.831,3.516c-9.212,0.054-18.425,0.089-27.637,0.02c-16.199-0.122-26.03-9.837-26.066-25.966
		c-0.075-34.105-0.073-68.211,0.001-102.316c0.033-15.544,10.264-25.784,25.729-25.951c8.035-0.087,16.073-0.041,24.109-0.019
		c18.774,0.05,28.877,10.157,28.977,29.144C87.489,379.147,87.422,395.22,87.422,411.293z"/>
</g>
</svg>
