<?xml version="1.0" encoding="utf-8"?>
<!-- Generator: Adobe Illustrator 19.0.0, SVG Export Plug-In . SVG Version: 6.00 Build 0)  -->
<svg version="1.1" id="Layer_1" xmlns="http://www.w3.org/2000/svg" xmlns:xlink="http://www.w3.org/1999/xlink" x="0px" y="0px"
	 viewBox="-749 751 500 500" style="enable-background:new -749 751 500 500;" xml:space="preserve">
<style type="text/css">
	.st0{fill:#19B8BA;}
</style>
<path id="XMLID_4_" class="st0" d="M-610.9,1149.9c16.7-16.2,32.8-31.8,49.7-48.3c27.7,16,58.1,22.9,90.7,14.9
	c23.4-5.8,43.6-17.4,59.9-35.2c28.9-31.5,48-85.1,14.7-144.3c16.5-16.2,32.7-32.3,48.9-48.2c49.5,57.9,55.7,166.3-13.6,240.6
	C-426.1,1199.6-537.8,1209.2-610.9,1149.9z M-587.8,921.8c44.8-48.6,97.7-52.8,152.7-25c17.1-16.9,33-32.7,48.8-48.4
	c-70.9-58.1-183.8-48.1-249.3,22.6c-69.1,74.6-61.5,183.5-11.6,241.3c1.2-0.8,2.6-1.4,3.7-2.4c15.1-14.4,30.2-29,45.5-43.6
	C-632.4,1002.9-614.5,950.7-587.8,921.8z M-308.8,858.6c27,0.6,50.1-22.2,50.2-49.5c0.1-27.4-22.6-50-49.8-49.8
	c-26.7,0.2-48.2,22.3-48.3,49.4C-356.8,836-335.6,858.1-308.8,858.6z M-687.6,1140c-26.8,0.6-48.4,22.6-48.5,49.5
	c-0.1,27.3,22.6,50,49.8,49.7c26.6-0.2,48.2-22.4,48.2-49.5C-638.1,1161.9-660.6,1139.4-687.6,1140z"/>
</svg>
