<?xml version="1.0" encoding="utf-8"?>
<!-- Generator: Adobe Illustrator 24.1.2, SVG Export Plug-In . SVG Version: 6.00 Build 0)  -->
<svg version="1.1" id="IDAI" xmlns="http://www.w3.org/2000/svg" xmlns:xlink="http://www.w3.org/1999/xlink" x="0px" y="0px"
	 viewBox="0 0 500 500" style="enable-background:new 0 0 500 500;" xml:space="preserve">
<style type="text/css">
	.st0{fill:url(#SVGID_1_);}
	.st1{fill:#FFFFFF;}
	.st2{fill:#F8A608;}
	.st3{fill-rule:evenodd;clip-rule:evenodd;fill:#FFFFFF;}
</style>
<linearGradient id="SVGID_1_" gradientUnits="userSpaceOnUse" x1="467.5" y1="34.5001" x2="67.5" y2="434.5" gradientTransform="matrix(1 0 0 -1 0 502)">
	<stop  offset="0.1594" style="stop-color:#003CDA"/>
	<stop  offset="1" style="stop-color:#33DFCC"/>
</linearGradient>
<path class="st0" d="M250,96.4c30.4,0,60.1,9,85.3,25.9c25.3,16.9,44.9,40.9,56.6,68.9c11.6,28.1,14.7,58.9,8.7,88.7
	c-5.9,29.8-20.6,57.2-42,78.6s-48.8,36.1-78.6,42c-29.8,5.9-60.7,2.9-88.7-8.7c-28.1-11.6-52.1-31.3-68.9-56.6
	c-16.9-25.3-25.9-55-25.9-85.3c0.1-40.7,16.3-79.8,45-108.5S209.3,96.5,250,96.4z M250,0c-49.4,0-97.8,14.7-138.9,42.1
	C70,69.6,38,108.6,19,154.3C0.1,200-4.8,250.3,4.8,298.8c9.6,48.5,33.5,93,68.4,128c35,35,79.5,58.8,128,68.4
	c48.5,9.6,98.8,4.7,144.4-14.2c45.7-18.9,84.7-51,112.2-92.1C485.3,347.8,500,299.4,500,250c0-66.3-26.3-129.9-73.2-176.8
	C379.9,26.3,316.3,0,250,0z"/>
<path class="st1" d="M250,446c108.2,0,196-87.7,196-196S358.2,54,250,54S54,141.8,54,250S141.8,446,250,446z"/>
<circle class="st2" cx="250" cy="250" r="161.1"/>
<path class="st3" d="M186.1,173.6h65.3c42.2,0,76.4,34.2,76.4,76.4c0,42.2-34.2,76.4-76.4,76.4h-65.3V173.6z M202.9,190.4v119.2
	h48.5c32.9,0,59.6-26.7,59.6-59.6c0-32.9-26.7-59.6-59.6-59.6H202.9z"/>
<path class="st1" d="M164.6,240.7h178.1v-16.8H164.6V240.7z"/>
<path class="st1" d="M164.6,276.5h178.1v-16.8H164.6V276.5z"/>
</svg>
