<?xml version="1.0" encoding="utf-8"?>
<!-- Generator: Adobe Illustrator 24.2.2, SVG Export Plug-In . SVG Version: 6.00 Build 0)  -->
<svg version="1.1" id="Layer_1" xmlns="http://www.w3.org/2000/svg" xmlns:xlink="http://www.w3.org/1999/xlink" x="0px" y="0px"
	 viewBox="0 0 500 500" style="enable-background:new 0 0 500 500;" xml:space="preserve">
<style type="text/css">
	.st0{fill:#333333;}
	.st1{fill:#004B6A;}
</style>
<path id="_Compound_Path_" class="st0" d="M249.9,3.8c135.9,0,246,110.2,246,246.1c0,135.9-110.2,246-246.1,246
	c-135.9,0-246-110.2-246-246.1c0-0.9,0-1.7,0-2.6C5.1,113.1,114.8,3.4,249.9,3.8z M255.1,21.6c-130.7,0-232.7,102-233.3,226.8
	c-0.6,126,101.9,229.6,228,229.2c62.5-0.2,116.5-22.3,160.6-66.4c50.3-50.1,72.3-111.6,66.5-182C473,176,449.6,126.1,411.4,89
	C366.9,44.8,312.7,22.5,255.1,21.6L255.1,21.6z"/>
<path id="_Compound_Path_2" class="st1" d="M470.9,225.7c-4.7-50.2-27.1-97.1-63.1-132.3c-43.6-43.7-96.7-65.9-158.5-66
	C126.5,29.8,28.9,131.4,31.4,254.2c2.4,118.8,97.7,214.7,216.4,217.9c61.6,0.4,115.1-21.1,158.6-64.7
	C456.5,357.3,478,296.2,470.9,225.7z M345.9,76.7c3.7,0.1,6.7,3.2,6.7,6.9s-3.2,6.7-6.9,6.7c-3.7-0.1-6.7-3.2-6.7-6.9c0,0,0,0,0-0.1
	C339.1,79.6,342.2,76.7,345.9,76.7z M315.5,62.6c3.8,0,6.9,3.1,6.9,7c-0.1,3.7-3.2,6.6-6.9,6.6c-3.6,0.1-6.6-2.8-6.7-6.5
	c0-0.1,0-0.2,0-0.3C308.8,65.6,311.8,62.6,315.5,62.6z M283.4,53.9c3.6,0.4,6.4,3.1,6.9,6.7c-0.3,3.9-3.5,6.9-7.4,6.8
	c-3.7-0.1-6.6-3.2-6.6-6.8C276.5,56.8,279.7,53.8,283.4,53.9z M249.9,51.1c3.7,0,6.8,3,6.8,6.7c0,3.7-3,6.8-6.7,6.8
	c-3.7,0-6.7-3-6.8-6.7C243.2,54.2,246.1,51.2,249.9,51.1z M216.7,53.9c3.6,0.2,6.5,3.1,6.7,6.7c0,3.7-3.1,6.8-6.8,6.8
	c-0.1,0-0.2,0-0.2,0c-3.7,0-6.7-3.1-6.6-6.7c0,0,0,0,0,0c0.2-3.7,3.2-6.6,6.9-6.7L216.7,53.9z M184.3,62.6c3.7,0.1,6.7,3.1,6.7,6.8
	c0.1,3.6-2.8,6.6-6.4,6.7c-0.1,0-0.2,0-0.3,0c-3.7,0.1-6.9-2.8-7-6.6c0-0.1,0-0.2,0-0.3C177.5,65.5,180.6,62.6,184.3,62.6z
	 M153.8,76.7c3.7-0.3,7,2.6,7.2,6.3c0.3,3.7-2.6,7-6.3,7.2c-0.3,0-0.6,0-0.9,0c-3.7-0.3-6.6-3.5-6.3-7.2
	C147.7,79.7,150.4,77,153.8,76.7z M126.6,95.9c3.7,0.1,6.7,3.1,6.8,6.8c0,3.7-3,6.7-6.8,6.8c-3.6,0.2-6.7-2.6-6.8-6.2
	c0-0.1,0-0.2,0-0.4c-0.1-3.7,2.8-6.8,6.5-7C126.4,95.9,126.5,95.9,126.6,95.9z M103.1,119.5c3.7,0.2,6.6,3.3,6.6,7
	c-0.1,3.7-3.1,6.7-6.8,6.6c-3.7-0.1-6.7-3.1-6.8-6.8C96.2,122.5,99.3,119.5,103.1,119.5L103.1,119.5z M83.7,147
	c3.6-0.1,6.6,2.8,6.7,6.4c0,0.1,0,0.2,0,0.3c0,3.7-2.9,6.8-6.7,6.9c-3.8-0.1-6.9-3.2-6.9-7C76.9,149.9,80,147,83.7,147L83.7,147z
	 M69.6,177.3c3.8,0,6.8,3.1,6.8,6.9c0,0.1,0,0.1,0,0.2c-0.3,3.8-3.7,6.5-7.4,6.2c-3.4-0.3-6.1-3.1-6.2-6.6
	C62.9,180.2,65.9,177.3,69.6,177.3z M60.8,209.5c3.8,0,6.9,3.1,7,6.9c-0.1,3.7-3.2,6.7-6.9,6.6c-3.6,0-6.5-2.9-6.6-6.5
	c0-0.1,0-0.1,0-0.2C54.2,212.8,57.1,209.7,60.8,209.5L60.8,209.5z M51.1,249.8c0.1-3.7,3-6.7,6.8-6.9c3.7,0,6.8,3,6.8,6.7
	c0,0,0,0,0,0c0.2,3.7-2.7,6.8-6.4,7c-0.2,0-0.5,0-0.7,0C54,256.4,51.2,253.4,51.1,249.8z M54.3,283.1c0-3.7,3-6.8,6.7-6.8
	c3.8,0.1,6.9,3.2,6.9,7c-0.1,3.7-3.2,6.6-6.9,6.6c-3.6,0.1-6.6-2.7-6.7-6.3C54.3,283.3,54.3,283.2,54.3,283.1L54.3,283.1z
	 M69.8,322.2c-3.7,0.1-6.8-2.9-6.9-6.6c0-3.8,3.1-6.9,6.9-7c3.6,0.2,6.5,3.1,6.7,6.8c0,3.7-3,6.7-6.8,6.8L69.8,322.2z M83.9,352.5
	c-3.7,0-6.7-3-6.9-6.7c0-3.8,3-6.8,6.8-6.8c0.1,0,0.1,0,0.2,0c3.6-0.1,6.6,2.8,6.7,6.4c0,0.1,0,0.2,0,0.4
	C90.6,349.5,87.6,352.5,83.9,352.5c-0.1-0.1-0.1-0.1-0.2-0.1L83.9,352.5z M83.9,299.5l0.3-1.2h71.9c18.7,0,18.7,0,18.7-18.9
	c0-15.8,0.2-31.5,0-47.3c0-5.1,0.7-7.5,6.8-7.3c13.5,0.6,27.1,0.4,40.7,0c4.7,0,6.3,1.5,6.3,6.1c-0.1,26.5-0.1,53,0,79.5
	c0,5-1.6,7.6-6.9,7.1c-1.6-0.2-3.1-0.2-4.7,0c-6.1,0.7-8.2-1.7-8.2-7.7c0.3-19.1,0-38.3,0-57.4c0-5.3-1.6-7.7-7.3-7.7
	c-5.6,0-7.5,1.8-7.4,7.4c0.3,19.1,0,38.3,0.2,57.4c0,6.3-1.9,8.1-8,8c-19.4-0.3-38.8,0.9-58-0.5c-9.1-0.7-17.9-5.8-26.7-9.2
	c-6-2.3-11.9-5.4-17.9-8.2L83.9,299.5z M103.8,380c-3.8,0.4-7.3-2.3-7.7-6.1c0-0.4-0.1-0.7,0-1.1c0.2-3.8,3.3-6.8,7.1-6.9
	c3.8,0.5,6.7,3.7,6.9,7.5c-0.5,3.3-3.1,5.9-6.4,6.6L103.8,380z M126.5,403.5c-3.6,0-6.5-2.9-6.5-6.5c0-0.1,0-0.2,0-0.3
	c0.1-3.7,3.1-6.7,6.8-6.7c3.7,0.1,6.7,3.1,6.8,6.8c0,3.7-3.1,6.7-6.8,6.7c-0.1,0-0.3,0-0.4,0L126.5,403.5z M154.2,422.7
	c-3.6,0.1-6.7-2.7-6.8-6.3c0-0.1,0-0.2,0-0.3c-0.1-3.8,2.8-6.9,6.6-7c0.1,0,0.1,0,0.2,0c3.7,0.1,6.7,3.1,6.8,6.8
	C160.9,419.6,157.9,422.6,154.2,422.7c0,0-0.1,0-0.2,0L154.2,422.7z M184.5,436.8c-3.8,0.2-7-2.7-7.2-6.4c0-0.1,0-0.3,0-0.4
	c0.2-3.7,3.2-6.6,6.9-6.7c3.7,0,6.7,3,6.8,6.8C191,433.7,188.2,436.7,184.5,436.8c0,0-0.1,0-0.2,0L184.5,436.8z M158.8,334.3
	c-6-2.4-11.7-5.4-17.6-8.2l0.7-1.9c30.7,0,61.4,0,92.1,0c14.3,0,12.4,1.3,12.5-12.6c0-41.2,0.2-82.4,0-123.5c0-6.8,1.9-8.8,8.6-8.6
	c13.1,0.5,26.2,0.3,39.4,0c4.7,0,6.8,1.2,6.8,6.3c-0.1,51-0.1,101.9,0,152.9c0,5.5-2.3,7.2-7.4,6.3c-1.7-0.4-3.5-0.7-5.2-0.8
	c-8.4,0.3-8.4,0.3-8.4-8.4c0-42.1,0-84.1,0-126.2c0-3.5,1.3-7.9-4.4-8.9c-6.8-1.1-8.8,0.5-8.8,7.6c0,42.7,0,85.5,0,128.2
	c0,8.7,0,8.7-9,8.7c-22.3,0-44.5-0.3-66.8,0c-12.7,0.5-22.1-6.7-32.7-10.9H158.8z M216.7,445.4c-3.7,0.1-6.9-2.8-7-6.5
	c0-0.1,0-0.2,0-0.3c0-3.8,3.1-6.8,6.8-6.8c3.8,0,6.8,3.1,6.8,6.8C223.4,442.3,220.4,445.3,216.7,445.4z M249.9,448.6
	c-3.8-0.1-6.9-3.2-6.8-7c0.1-3.8,3.3-6.8,7-6.7c3.8,0.1,6.8,3.3,6.7,7C256.6,445.6,253.6,448.6,249.9,448.6z M282.7,445.4
	c-3.6-0.3-6.4-3.3-6.3-6.9c0.1-3.8,3.3-6.7,7.1-6.6c3.8,0.1,6.7,3.3,6.6,7.1c-0.2,3.7-3.3,6.6-7.1,6.4
	C282.9,445.4,282.8,445.4,282.7,445.4z M315.5,436.8c-3.6,0.1-6.6-2.8-6.7-6.4c0-0.1,0-0.2,0-0.3c0.1-3.7,3-6.6,6.7-6.7
	c3.8,0.1,6.9,3.2,6.9,7C322.2,434,319.1,436.8,315.5,436.8z M345.9,422.6c-3.7,0.1-6.8-2.8-6.8-6.5c0,0,0-0.1,0-0.1
	c0-3.8,3.1-6.9,6.9-7c3.7,0.1,6.7,3.1,6.7,6.9c0.1,3.6-2.8,6.7-6.4,6.7C346.1,422.7,346,422.7,345.9,422.6L345.9,422.6z
	 M351.6,357.6c1-10-0.4-151-0.4-193.7c0-4.1,0.4-8-5.9-7.9c-5.1,0-6.3,1.9-6.3,6.7c0.2,22.2-0.3,188.3-0.3,188.3s0,13.7,0,20.9
	c-2.4,0.3-4.3,0.6-6.3,0.6c-28.9,0-57.8,0.6-86.7-0.3c-7.3-0.2-14.5-4.8-21.5-7.8c-8.2-3.3-16.1-7.4-23.5-12.2
	c1.9,0,3.8-0.3,5.7-0.3l96.8,0.4c14.8,0,14.6,0,14.6-14.3c0-65,0-130,0-195c0-5.5,1.2-8,7.4-7.8c14,0.4,28,0.3,42,0
	c4.7,0,6.3,1.6,6.3,6.3c0,48.7,0,97.5,0,146.2c0,25.2,0,50.5,0,75.7c0,9,0,9-9.3,9C349.9,372.5,350.1,372.1,351.6,357.6L351.6,357.6
	z M373.2,403.4c-3.7,0-6.8-2.9-6.8-6.7c0.1-3.8,3.2-6.9,7-6.9c3.7,0.1,6.7,3.2,6.6,6.9c0.1,3.6-2.7,6.6-6.3,6.7
	C373.5,403.5,373.3,403.5,373.2,403.4L373.2,403.4z M373.4,109.4c-3.7,0.1-6.9-2.8-7-6.5c0-0.1,0-0.2,0-0.2c0.1-3.7,3-6.7,6.8-6.8
	c3.7,0,6.7,3,6.8,6.7c0.2,3.6-2.5,6.7-6.1,6.9C373.7,109.5,373.5,109.5,373.4,109.4L373.4,109.4z M396.8,379.8c-3.7,0-6.8-3-6.8-6.8
	c0-3.7,3-6.8,6.8-6.8l0,0c3.7,0,6.8,3,6.8,6.8C403.5,376.8,400.5,379.8,396.8,379.8z M396.8,133.2c-3.8,0-6.8-3.1-6.8-6.8
	c0-3.8,3.1-6.8,6.8-6.8c3.8,0,6.8,3.1,6.8,6.8C403.6,130.1,400.6,133.2,396.8,133.2C396.8,133.2,396.8,133.2,396.8,133.2z
	 M445.5,216.5c0.1,3.6-2.8,6.6-6.4,6.7c-0.1,0-0.2,0-0.4,0c-3.7,0-6.8-3-6.8-6.7c0.1-3.9,3.3-7,7.2-6.9c0,0,0.1,0,0.1,0
	C442.8,209.8,445.5,212.9,445.5,216.5z M416,147.1c3.7,0,6.7,3,6.8,6.7c-0.1,3.8-3.2,6.8-7,6.9c-3.7-0.1-6.6-3.2-6.6-6.9
	c-0.1-3.6,2.8-6.6,6.4-6.7c0.2,0,0.3,0,0.5,0L416,147.1z M416,352.5c-3.7,0-6.7-3-6.7-6.7c0,0,0,0,0,0c-0.1-3.6,2.7-6.6,6.3-6.8
	c0.1,0,0.2,0,0.4,0c3.8-0.1,6.9,2.9,7,6.7c0,0.1,0,0.1,0,0.2C422.7,349.5,419.7,352.4,416,352.5L416,352.5z M430.1,177.3
	c3.7,0,6.8,2.9,6.9,6.7c0,3.8-3.1,6.8-6.9,6.8c-3.8,0-6.8-3.1-6.8-6.8C423.5,180.3,426.4,177.3,430.1,177.3z M430.3,322.1
	c-3.7,0.1-6.8-2.8-7-6.5c-0.3-3.8,2.5-7.1,6.2-7.4c3.8-0.3,7.1,2.5,7.4,6.2c0,0.3,0,0.6,0,0.9C437,319,434.1,322,430.3,322.1z
	 M438.7,289.8c-3.7-0.1-6.7-3.1-6.7-6.8c0.1-3.8,3.3-6.8,7.2-6.8c3.6,0.3,6.4,3.3,6.3,7c0,3.6-2.9,6.5-6.5,6.5
	C438.9,289.8,438.8,289.8,438.7,289.8z M441.9,256.5c-3.6,0.2-6.7-2.6-6.8-6.2c0-0.1,0-0.3,0-0.4c-0.4-3.5,2.2-6.6,5.6-6.9
	c0.1,0,0.3,0,0.4,0c4-0.3,7.4,2.7,7.7,6.7c0,0.1,0,0.2,0,0.2c0,3.7-3,6.6-6.6,6.6c-0.1,0-0.1,0-0.2,0L441.9,256.5z"/>
</svg>
