<?xml version="1.0" encoding="iso-8859-1"?>
<!-- Generator: Adobe Illustrator 19.0.0, SVG Export Plug-In . SVG Version: 6.00 Build 0)  -->
<svg version="1.1" id="Layer_1" xmlns="http://www.w3.org/2000/svg" xmlns:xlink="http://www.w3.org/1999/xlink" x="0px" y="0px"
	 viewBox="674 0 500 500" style="enable-background:new 674 0 500 500;" xml:space="preserve">
<path style="fill:#F9C011;" d="M895.407,4.058c36.537,21.827,70.895,47.083,107.096,69.469
	c-44.448,79.264-88.92,158.552-133.414,237.863c-17.708-31.761-34.299-64.152-51.798-96.055
	C842.49,144.606,871.258,75.135,895.407,4.058z"/>
<path style="fill:#DB712A;" d="M779.632,495.943c75.526-140.409,153.992-279.278,228.68-420.038
	c19.949,35.821,39.968,71.641,60.057,107.46c-57.888,104.1-116.196,207.92-173.662,312.229
	C856.349,495.593,817.999,495.104,779.632,495.943"/>
<path style="fill:#B7230F;" d="M901.917,495.382c31.987-55.967,62.157-112.915,94.565-168.603
	c19.319,25.256,38.918,50.372,58.097,75.765C1003.902,433.889,952.943,464.671,901.917,495.382"/>
</svg>
