<?xml version="1.0" encoding="utf-8"?>
<!-- Generator: Adobe Illustrator 24.1.2, SVG Export Plug-In . SVG Version: 6.00 Build 0)  -->
<svg version="1.1" id="IKNC" xmlns="http://www.w3.org/2000/svg" xmlns:xlink="http://www.w3.org/1999/xlink" x="0px" y="0px"
	 viewBox="0 0 500 500" style="enable-background:new 0 0 500 500;" xml:space="preserve">
<style type="text/css">
	.st0{fill:url(#SVGID_1_);}
	.st1{fill:#FFFFFF;}
	.st2{fill:#49BC98;}
</style>
<linearGradient id="SVGID_1_" gradientUnits="userSpaceOnUse" x1="467.5" y1="34.5" x2="67.5" y2="434.5" gradientTransform="matrix(1 0 0 -1 0 502)">
	<stop  offset="0.1594" style="stop-color:#003CDA"/>
	<stop  offset="1" style="stop-color:#33DFCC"/>
</linearGradient>
<path class="st0" d="M250,96.4c30.4,0,60.1,9,85.3,25.9c25.3,16.9,44.9,40.9,56.6,68.9c11.6,28.1,14.7,58.9,8.7,88.7
	c-5.9,29.8-20.6,57.2-42,78.6c-21.5,21.5-48.8,36.1-78.6,42c-29.8,5.9-60.7,2.9-88.7-8.7c-28.1-11.6-52.1-31.3-68.9-56.6
	c-16.9-25.3-25.9-55-25.9-85.3c0.1-40.7,16.3-79.8,45-108.5C170.2,112.7,209.3,96.5,250,96.4L250,96.4z M250,0
	c-49.4,0-97.8,14.7-138.9,42.1C70,69.6,38,108.6,19,154.3C0.1,200-4.8,250.3,4.8,298.8c9.6,48.5,33.5,93,68.4,128
	c35,35,79.5,58.8,128,68.4c48.5,9.6,98.8,4.7,144.4-14.2s84.7-51,112.2-92.1C485.3,347.8,500,299.4,500,250
	c0-66.3-26.3-129.9-73.2-176.8C379.9,26.3,316.3,0,250,0L250,0z"/>
<path class="st1" d="M250,446c108.2,0,196-87.7,196-196S358.2,54,250,54S54,141.8,54,250S141.8,446,250,446z"/>
<path class="st2" d="M361.8,362.9c-14.8,14.8-32.4,26.4-51.8,34.2c-19.4,7.8-40.1,11.7-61,11.3c-20.8,0.4-41.4-3.4-60.6-11.3
	c-19.2-7.8-36.7-19.5-51.2-34.3c-14.9-14.5-26.7-31.9-34.5-51.2c-7.9-19.3-11.7-39.9-11.2-60.7c0-45.5,15.3-83.5,45.9-113.8
	c14.6-14.8,32-26.5,51.2-34.3c19.2-7.8,39.9-11.6,60.6-11.2c20.9-0.4,41.6,3.5,61,11.3c19.4,7.8,37,19.5,51.7,34.2
	c31.2,30.4,46.9,68.3,46.9,113.8c0.4,20.9-3.6,41.6-11.7,60.9C389,331.2,377,348.5,361.8,362.9L361.8,362.9z"/>
<path class="st1" d="M312.6,184.4L260.4,146l-2.6,0.2c-1.3,1.6-2.3,3.3-3,5.2c-4.6,19.8-9.1,39.7-13.6,59.6l0,0l0,0
	c-1.2,5.5-2.5,10.9-3.7,16.4c-0.4,1.9-0.8,3.8-1.3,6l-0.4,1.9c0.6-0.3,1.1-0.6,1.6-0.8c0.6-0.3,1.2-0.6,1.7-0.9l56.1-30.8
	c6.2-3.4,12.4-6.7,18.6-10.2c0.6-0.3,1.1-0.8,1.5-1.4c0.4-0.6,0.6-1.2,0.7-1.9c0.1-0.7-0.1-1.4-0.3-2c-0.3-0.6-0.7-1.2-1.3-1.6
	L312.6,184.4z"/>
<path class="st1" d="M184.6,188.8c-3.3,2.2-5.9,5.4-7.5,9.1L177,303.9c1.5,2.7,3.3,5.2,5.4,7.4c11.8,9.6,23.7,19.2,35.5,28.7l0,0
	c4.1,3.3,8.2,6.6,12.4,9.9c1.6,1.3,3.3,2.2,5.2,1c0.8-0.6,1.5-1.4,1.8-2.4c0.3-1,0.3-2-0.1-2.9c-6.2-30.4-12.4-60.7-18.5-91.1
	c-0.5-2.3-0.5-4.7,0-7.1c6.2-30.3,12.4-60.6,18.7-90.8c0.5-2.2,0.4-4.3-1.7-5.5c-2.1-1.2-3.8,0-5.4,1.3c-4.3,3.4-8.6,6.8-12.8,10.2
	C206.5,171.4,195.5,180.1,184.6,188.8z"/>
<path class="st1" d="M257.4,354c-1.2-1.5-2.2-3.1-3-4.9c-4.8-21.1-9.5-42.3-14.2-63.4c-1.3-5.8-2.6-11.6-3.9-17.5
	c0-0.6-0.1-1.2-0.3-1.9c-0.1-0.4-0.2-0.8-0.2-1.3c0.4,0.2,0.7,0.4,1.1,0.5c0.7,0.3,1.3,0.6,1.9,0.9l73.8,40.7
	c4.6,2.5,4.7,5.3,0.4,8.2l-52.6,38.1l-0.4,0.4L257.4,354z"/>
<path class="st1" d="M248.7,242.8l-10.7,6l2.8,1.7l48.7,27.3l26.6,15.2c2.6,1.4,4.9,1.2,6-0.7c0.6-1.3,0.9-2.7,0.8-4.1v-77.9
	c0-5.7-2.7-7.2-7.7-4.5L248.7,242.8z"/>
</svg>
