<svg aria-hidden="true" data-testid="test-icon" fill="currentColor" viewBox="0 0 24 24" xmlns="http://www.w3.org/2000/svg"><path fill-rule="evenodd" clip-rule="evenodd" d="M5.62 4.595c-.566 0-1.025.459-1.025 1.025v12.76c0 .566.459 1.025 1.025 1.025h12.76c.566 0 1.025-.459 1.025-1.025V5.62c0-.566-.459-1.025-1.025-1.025H5.62zM3 5.62A2.62 2.62 0 015.62 3h12.76A2.62 2.62 0 0121 5.62v12.76A2.62 2.62 0 0118.38 21H5.62A2.62 2.62 0 013 18.38V5.62z"/><path fill-rule="evenodd" clip-rule="evenodd" d="M8.81 8.24a.57.57 0 100 1.14.57.57 0 000-1.14zm-2.164.57a2.165 2.165 0 114.329 0 2.165 2.165 0 01-4.33 0zM15.082 9.613a.797.797 0 011.127 0l4.557 4.557a.797.797 0 11-1.127 1.128l-3.993-3.993-9.462 9.461a.797.797 0 11-1.128-1.127L15.082 9.613z"/></svg>
