<svg width="25" height="24" viewBox="0 0 25 24" fill="currentColor" xmlns="http://www.w3.org/2000/svg">
<path d="M8.1777 1.16498C4.8377 1.16498 2.1377 3.87498 2.1377 7.21498V16.785C2.1377 20.125 4.8477 22.835 8.1877 22.835H17.7577C21.0977 22.835 23.8077 20.125 23.8077 16.785V7.21498C23.8077 3.87498 21.0977 1.16498 17.7577 1.16498H8.1777ZM21.9177 16.605C21.9177 19.045 19.9377 21.025 17.4977 21.025H8.4577C6.0177 21.025 4.0377 19.045 4.0377 16.605V7.57498C4.0377 5.13498 6.0177 3.15498 8.4577 3.15498H17.4977C19.9377 3.15498 21.9177 5.13498 21.9177 7.57498V16.615V16.605Z"/>
<path d="M12.9777 6.38498C9.8377 6.38498 7.2977 8.92498 7.2977 12.065C7.2977 15.205 9.8377 17.745 12.9777 17.745C16.1177 17.745 18.6577 15.205 18.6577 12.065C18.6577 8.92498 16.1177 6.38498 12.9777 6.38498ZM12.9577 15.625C10.9677 15.625 9.3577 14.015 9.3577 12.025C9.3577 10.035 10.9677 8.42498 12.9577 8.42498C14.9477 8.42498 16.5577 10.035 16.5577 12.025C16.5577 14.015 14.9477 15.625 12.9577 15.625Z" />
<path d="M18.7477 7.53498C19.4822 7.53498 20.0777 6.93952 20.0777 6.20498C20.0777 5.47044 19.4822 4.87498 18.7477 4.87498C18.0132 4.87498 17.4177 5.47044 17.4177 6.20498C17.4177 6.93952 18.0132 7.53498 18.7477 7.53498Z"/>
</svg>
