<svg width="24" height="25" viewBox="0 0 24 25" fill="currentColor" xmlns="http://www.w3.org/2000/svg">
<path d="M12 23.5408C10.46 23.5408 9.19996 22.2808 9.19996 20.7408C9.19996 19.2008 10.46 17.9408 12 17.9408C12.41 17.9408 12.81 18.0308 13.2 18.2208L13.33 18.2808L16.62 14.9908C16.77 14.8408 16.97 14.7608 17.19 14.7608C17.41 14.7608 17.6 14.8408 17.76 14.9908C17.91 15.1408 17.99 15.3408 17.99 15.5608C17.99 15.7808 17.91 15.9708 17.76 16.1308L14.47 19.4208L14.53 19.5508C14.72 19.9408 14.81 20.3408 14.81 20.7508C14.81 22.2908 13.55 23.5508 12.01 23.5508L12 23.5408ZM12 19.5408C11.65 19.5408 11.32 19.7008 11.09 19.9808C11.01 20.0708 10.94 20.1608 10.89 20.2808L10.86 20.4008C10.82 20.5508 10.8 20.6408 10.8 20.7308C10.8 21.3908 11.34 21.9308 12 21.9308C12.32 21.9308 12.63 21.8008 12.86 21.5708C13.08 21.3408 13.2 21.0508 13.2 20.7308C13.2 20.0708 12.66 19.5308 12 19.5308V19.5408Z" />
<path d="M20.49 15.0508C18.95 15.0508 17.69 13.7908 17.69 12.2508C17.69 11.8408 17.78 11.4408 17.97 11.0508L18.03 10.9208L14.98 7.87082C14.67 7.56082 14.67 7.05082 14.98 6.74082C15.13 6.59082 15.33 6.51082 15.55 6.51082C15.77 6.51082 15.96 6.59082 16.12 6.74082L19.17 9.79082L19.3 9.73082C19.69 9.54082 20.09 9.45082 20.5 9.45082C22.04 9.45082 23.3 10.7108 23.3 12.2508C23.3 13.7908 22.04 15.0508 20.5 15.0508H20.49ZM20.49 11.0508C19.83 11.0508 19.29 11.5908 19.29 12.2508C19.29 12.5608 19.41 12.8608 19.63 13.0908C19.86 13.3208 20.16 13.4508 20.49 13.4508C20.98 13.4508 21.41 13.1608 21.6 12.7008C21.62 12.6408 21.63 12.5908 21.64 12.5508L21.66 12.4508C21.67 12.4008 21.69 12.3308 21.69 12.2508C21.68 12.0508 21.65 11.9108 21.6 11.7908C21.57 11.7308 21.54 11.6808 21.51 11.6408C21.25 11.2508 20.89 11.0508 20.5 11.0508H20.49Z" />
<path d="M6.68996 9.87082C6.47996 9.87082 6.27996 9.79082 6.11996 9.64082C5.80996 9.33082 5.80996 8.82082 6.11996 8.51082L9.29996 5.33082L9.22996 5.20082C8.98996 4.74082 8.85996 4.25082 8.85996 3.77082C8.85996 2.05082 10.26 0.650818 11.98 0.650818C13.7 0.650818 15.1 2.05082 15.1 3.77082C15.1 5.49082 13.7 6.89082 11.98 6.89082C11.49 6.89082 11.01 6.77082 10.55 6.53082L10.42 6.46082L7.23996 9.64082C7.08996 9.79082 6.88996 9.87082 6.66996 9.87082H6.68996ZM12 2.56082C11.84 2.56082 11.69 2.59082 11.54 2.65082C11.39 2.71082 11.26 2.80082 11.15 2.91082C10.93 3.14082 10.8 3.44082 10.8 3.75082C10.8 4.41082 11.34 4.95082 12 4.95082C12.36 4.95082 12.7 4.78082 12.94 4.47082C13.01 4.38082 13.07 4.30082 13.11 4.21082C13.17 4.06082 13.2 3.91082 13.2 3.75082C13.2 3.59082 13.17 3.43082 13.11 3.29082C12.98 3.02082 12.8 2.83082 12.55 2.70082L12.46 2.65082C12.31 2.59082 12.16 2.56082 12 2.56082Z" />
<path d="M8.71996 18.2608C8.50996 18.2608 8.30996 18.1808 8.14996 18.0308L4.83996 14.7208L4.70996 14.7808C4.31996 14.9708 3.90996 15.0608 3.50996 15.0608C1.96996 15.0608 0.709961 13.8008 0.709961 12.2608C0.709961 10.7208 1.96996 9.46082 3.50996 9.46082C5.04996 9.46082 6.30996 10.7208 6.30996 12.2608C6.30996 12.6708 6.21996 13.0708 6.02996 13.4508L5.96996 13.5808L9.28996 16.9008C9.43996 17.0508 9.51996 17.2508 9.51996 17.4708C9.51996 17.6908 9.43996 17.8808 9.28996 18.0408C9.13996 18.2008 8.93996 18.2708 8.71996 18.2708V18.2608ZM3.46996 11.0608C3.30996 11.0608 3.16996 11.1008 3.04996 11.1508C2.92996 11.2008 2.82996 11.2808 2.74996 11.3508C2.43996 11.6308 2.30996 11.9408 2.30996 12.2608C2.30996 12.5808 2.43996 12.9008 2.68996 13.1308C2.91996 13.3408 3.20996 13.4608 3.50996 13.4608C4.16996 13.4608 4.70996 12.9208 4.70996 12.2608C4.70996 11.7908 4.42996 11.3608 3.99996 11.1708C3.82996 11.1108 3.69996 11.0808 3.56996 11.0708H3.46996V11.0608Z"/>

</svg>
