<?xml version="1.0" encoding="iso-8859-1"?>
<!-- Generator: Adobe Illustrator 19.0.0, SVG Export Plug-In . SVG Version: 6.00 Build 0)  -->
<svg version="1.1" id="Layer_1" xmlns="http://www.w3.org/2000/svg" xmlns:xlink="http://www.w3.org/1999/xlink" x="0px" y="0px"
	 viewBox="1665.5 0 500 500" style="enable-background:new 1665.5 0 500 500;" xml:space="preserve">
<title>资源 7xhdpi</title>
<path d="M1915.5,5.753l-211.531,122.124v244.247L1915.5,494.247l211.531-122.124V127.876L1915.5,5.753z M1919.825,401.362
	l-162.361-92.603l0.658-45.033l161.609,92.509l77.937-44.938l-52.272-30.178l-19.555,11.282l-36.665-21.059l19.649-11.376
	l-25.666-14.854l-15.512,9.025l-36.759-21.059l15.606-9.025l-82.826-47.853l156.063-90.065l147.225,83.954l-39.486,22.939
	l-107.74-61.767l-77.937,44.938l43.622,25.196l22.281-12.974l36.759,21.059l-22.469,12.974l25.666,14.854l18.239-10.624
	l36.759,21.059l-18.427,10.718l91.381,52.742L1919.825,401.362L1919.825,401.362z"/>
</svg>
