<?xml version="1.0" encoding="iso-8859-1"?>
<!-- Generator: Adobe Illustrator 19.0.0, SVG Export Plug-In . SVG Version: 6.00 Build 0)  -->
<svg version="1.1" id="Layer_1" xmlns="http://www.w3.org/2000/svg" xmlns:xlink="http://www.w3.org/1999/xlink" x="0px" y="0px"
	 viewBox="0 0 500 500" style="enable-background:new 0 0 500 500;" xml:space="preserve">
<path id="XMLID_4_" d="M362.853,427.519c-1.432-15.79,13.904-26.773,26.744-26.407c16.128,0.461,27.509,11.518,27.458,26.05
	c-0.052,15.002-12.041,25.511-27.559,25.952C376.69,453.477,361.681,442.216,362.853,427.519z M340.836,37.604
	c-7.306,5.55-11.052,16.253-9.179,24.714c4.116,18.593,26.633,27.498,43.469,15.665c7.917-5.564,12.053-13.639,10.749-23.236
	c-1.948-14.332-12.884-22.974-27.536-22.921C351.503,31.85,346.033,33.656,340.836,37.604z M18.506,248.417
	c-7.303,6.154-10.366,14.156-8.697,23.875c2.63,15.315,18.099,25.27,35.802,19.932c14.904-4.494,23.834-21.654,14.94-36.743
	c-5.275-8.948-13.315-13.411-24.48-13.172C29.773,241.682,23.619,244.108,18.506,248.417z M307.34,445.442
	c-0.013-14.151-11.148-21.799-23.199-22.215c-12.648-0.436-23.406,10.457-23.494,22.233c-0.089,11.96,10.675,22.103,23.459,22.105
	C296.935,467.567,307.352,457.692,307.34,445.442z M404.695,135.18c0.064,11.876,11.398,22.422,23.558,22.17
	c12.746-0.264,23.268-10.5,23.14-22.51c-0.13-12.148-10.707-22.023-23.525-21.964C417.597,112.326,404.62,121.24,404.695,135.18z
	 M95.576,249.11c12.432,0.895,24.701-10.73,24.037-22.698c-0.715-12.892-10.758-20.979-23.014-21.706
	c-13.107-0.777-24.839,11.529-23.514,21.642C72.021,236.952,80.006,247.989,95.576,249.11z M96.098,171.74
	c-0.488-11.782-10.043-21.807-23.955-21.561c-12.552,0.222-22.86,10.243-22.569,21.788c0.325,12.928,9.576,21.97,23.198,21.92
	C85.905,193.84,96.612,184.153,96.098,171.74z M366.987,148.869c12.388-0.216,23.33-10.33,22.887-21.898
	c-0.499-13.036-11.173-22.024-23.653-21.915c-14.778,0.129-23.991,11.934-22.907,22.239
	C343.403,139.694,353.724,149.1,366.987,148.869z M299.23,398.864c-0.028,10.525,4.992,17.225,16.312,21.14
	c9.052,3.131,21.108-1.153,26.236-8.903c4.699-7.101,5.184-14.686,1.475-22.126c-4.128-8.282-11.477-11.796-21.37-11.853
	C310.468,376.213,299.267,384.842,299.23,398.864z M173.05,441.438c-0.037,10.208,8.939,18.906,19.78,18.874
	c11.29-0.033,19.882-7.129,20.275-19.249c0.33-10.191-9.449-18.531-20.216-18.46C181.998,422.675,173.088,431.134,173.05,441.438z
	 M379.008,185.673c-0.137-10.473-9.8-19.119-20.989-18.78c-10.793,0.326-19.615,9.228-19.214,19.387
	c0.413,10.457,9.34,18.549,20.289,18.391C369.7,204.518,379.137,195.515,379.008,185.673z M102.075,99.625
	c0.134,10.321,9.315,18.786,20.138,18.568c10.726-0.216,19.653-9.103,19.471-19.383c-0.184-10.328-9.188-18.497-20.242-18.364
	C110.506,80.578,101.938,89.063,102.075,99.625z M154.138,222.593c10.666-0.425,19.793-9.458,19.668-19.466
	c-0.124-10.014-9.535-18.35-20.591-18.24c-11.528,0.114-19.264,7.867-19.101,19.141C134.267,214.51,143.444,223.019,154.138,222.593
	z M423.833,212.099c12.831-1.129,21.574-16.144,13.651-28.172c-4.31-6.542-10.661-8.695-17.585-8.926
	c-10.555-0.352-18.452,8.26-19.113,18.545c-0.563,8.766,7.156,19.036,18.57,18.835C420.848,212.289,422.344,212.23,423.833,212.099z
	 M253.744,409.367c-0.57-9.985-8.892-18.518-19.166-18.801c-10.547-0.291-21.067,9.462-20.483,19.568
	c0.617,10.685,9.511,18.931,20.426,18.176C245.022,428.935,254.352,420.025,253.744,409.367z M489.571,211.899
	c-0.478-10.603-8.488-19.563-19.475-19.071c-11.656,0.522-19.616,7.79-20.077,18.823c-0.404,9.686,8.314,19.176,19.807,18.625
	C481.846,230.935,489.983,221.013,489.571,211.899z M252.904,363.665c0.509,10.216,8.605,18.327,19.162,18.489
	c10.776,0.166,21.279-9.449,20.512-19.4c-0.812-10.533-9.242-18.705-20.512-18.042C261.469,344.159,252.372,352.992,252.904,363.665
	z M134.956,166.88c9.209-1.691,16.503-11.105,15.191-20.128c-2.109-14.499-20.121-21.685-31.976-12.987
	c-6.686,4.905-9.408,13.626-6.715,21.512c2.511,7.353,9.99,12.037,19.838,11.92C131.991,167.141,133.499,167.148,134.956,166.88z
	 M141.735,402.637c-0.127,9.027,7.77,16.355,17.592,16.326c9.038-0.027,16.683-7.584,16.549-16.358
	c-0.134-8.72-7.861-15.925-17.078-15.923C149.567,386.684,141.858,393.892,141.735,402.637z M340.702,217.059
	c-8.863-0.044-17.272,8.321-17.18,15.876c0.11,8.984,8.116,16.821,17.464,16.589c9.004-0.223,16.681-7.781,16.689-16.43
	C357.721,224.76,349.227,217.101,340.702,217.059z M183.01,123.75c-8.856,0.216-16.759,6.001-17.641,15.781
	c-0.772,8.566,7.201,16.158,16.619,16.528c9.225,0.362,17.098-6.736,17.321-15.615C200.445,131.819,191.131,123.551,183.01,123.75z
	 M419.13,241.274c-0.668-9.085-7.4-16.208-16.797-16.391c-8.41-0.164-17.083,8.102-17.217,16.408
	c-0.136,8.467,7.832,15.734,17.255,15.738C410.712,258.153,419.765,249.923,419.13,241.274z M222.76,194.767
	c0.013-9.51-6.626-15.751-16.722-15.721c-9.26,0.028-17.359,7.391-17.352,15.774c0.007,8.443,7.994,15.658,17.317,15.642
	C216.116,210.445,222.747,204.235,222.76,194.767z M217.186,371.208c-0.003-8.55-7.865-15.703-17.247-15.69
	c-10.199,0.014-16.789,6.132-16.833,15.627c-0.042,9.083,7.009,15.659,16.853,15.72
	C209.306,386.922,217.189,379.758,217.186,371.208z M221.029,324.638c0.07,8.587,7.846,15.533,17.391,15.533
	c10.121,0,16.741-6.24,16.709-15.75c-0.031-9.107-7.1-15.564-17.009-15.537C228.723,308.911,220.96,316.066,221.029,324.638z
	 M468.943,259.687c-0.523-9.944-7.162-16.555-17.52-16.716c-7.545-0.118-16.89,6.238-16.307,16.643
	c0.512,9.13,7.253,15.497,17.229,15.404C461.352,274.934,469.38,268,468.943,259.687z M157.561,90.953
	c0.219,9.373,7.175,15.42,17.374,15.103c9.552-0.297,15.829-6.598,15.775-15.836c-0.056-9.533-6.795-15.734-16.922-15.571
	C163.854,74.808,157.337,81.357,157.561,90.953z M330.615,269.243c0.211-7.592-6.037-13.745-14.271-14.052
	c-7.781-0.291-14.404,5.905-14.493,13.558c-0.099,8.531,5.009,13.55,13.929,13.687C324.074,282.562,330.4,276.936,330.615,269.243z
	 M265.825,197.055c-0.126-7.749-6.531-13.92-14.467-13.936c-7.977-0.017-14.392,6.077-14.412,13.69
	c-0.022,8.545,5.117,13.489,14.064,13.531C259.224,210.377,265.943,204.353,265.825,197.055z M152.52,364.188
	c-0.22-7.775-6.776-13.771-14.731-13.474c-7.775,0.29-14.234,6.878-14.094,14.377c0.131,7.071,7.363,13.509,15.102,13.446
	C146.827,378.472,152.749,372.28,152.52,364.188z M203.025,286.009c-0.293,7.519,6.274,13.948,14.416,14.112
	c7.805,0.157,14.155-5.488,14.427-12.826c0.318-8.578-4.982-14.195-13.544-14.355C209.904,272.783,203.321,278.407,203.025,286.009z
	 M363.21,277.157c-0.12,7.648,6.416,13.819,14.526,13.952c8.074,0.133,14.784-7.233,14.362-14.056
	c-0.469-7.578-5.865-13.068-13.959-13.18C369.732,263.757,363.331,269.452,363.21,277.157z M213.416,142.112
	c0.327,7.447,5.942,13.601,13.504,13.89c7.835,0.3,15.127-5.901,15.46-13.146c0.348-7.596-6.073-13.912-14.226-13.994
	C221,127.983,213.063,134.064,213.416,142.112z M233.571,93.257c0.211-8.004-5.912-14.48-13.758-14.551
	c-8.206-0.075-14.965,5.952-15.088,13.452c-0.127,7.716,6.208,13.756,14.442,13.772C227.365,105.947,233.376,100.658,233.571,93.257
	z M165.1,332.602c-0.12,8.23,6.4,14.416,15.028,14.255c7.529-0.14,13.754-6.337,13.759-13.697
	c0.006-7.792-6.222-13.512-14.655-13.46C171.135,319.751,165.209,325.161,165.1,332.602z M413.172,295.666
	c0.167,7.281,6.453,13.334,13.933,13.417c7.734,0.086,14.509-6.292,14.742-13.879c0.231-7.528-6.318-13.472-14.764-13.4
	C418.25,281.88,412.977,287.134,413.172,295.666z M399.236,309.037c-6.391,0.092-12.449,5.868-12.337,11.763
	c0.108,5.707,6.497,11.547,12.752,11.656c7.07,0.123,12.272-5.248,12.15-12.545C411.692,313.325,406.615,308.931,399.236,309.037z
	 M220.877,251.391c0.3-6.24-6.224-12.526-12.812-12.343c-6.271,0.174-12.381,6.149-12.275,12.003
	c0.117,6.496,5.435,11.422,12.416,11.5C215.299,262.632,220.559,257.998,220.877,251.391z M275.365,207.459
	c0.03,5.865,6.713,11.685,12.799,11.503c6.633-0.199,11.586-5.482,12.155-11.876c0.515-5.777-5.598-12.439-11.97-11.501
	C280.158,194.78,275.34,202.4,275.365,207.459z M268.733,103.195c0.317-6.283-5.101-11.818-11.76-12.014
	c-7.57-0.223-12.535,3.852-12.819,10.522c-0.314,7.36,4.616,12.736,11.788,12.855C262.463,114.667,268.421,109.373,268.733,103.195z
	 M276.755,152.253c0.012-6.216-5.82-12.121-11.926-12.076c-6.448,0.047-12.738,5.58-12.979,11.418
	c-0.283,6.83,5.206,11.956,12.801,11.955C271.99,163.549,276.742,159.113,276.755,152.253z M157.898,297.61
	c0.019,7.058,5.386,11.62,12.905,11.755c5.779,0.104,12.041-6.083,11.924-12.227c-0.112-5.892-6.618-11.41-12.918-11.342
	C162.938,285.87,157.879,290.887,157.898,297.61z M116.421,329.253c-0.371,4.996,5.501,11.603,12.233,12.124
	c6.35,0.491,13.013-6.029,12.905-12.316c-0.111-6.431-5.443-11.091-12.656-11.063C121.67,318.026,116.912,322.628,116.421,329.253z
	 M362.816,303.09c0.387-5.963-5.447-11.827-11.949-12.011c-7.725-0.219-12.93,4.433-12.926,11.552
	c0.004,6.645,5.171,11.754,11.966,11.832C356.221,314.534,362.428,309.065,362.816,303.09z M288.759,282.517
	c-5.809-0.778-11.778,4.855-12.253,10.654c-0.59,7.187,3.674,12.192,10.733,12.599c7.476,0.431,12.653-3.604,13.154-10.252
	C300.915,287.214,296.457,283.549,288.759,282.517z M293.498,157.58c-5.906-0.144-10.94,3.984-11.193,9.178
	c-0.264,5.429,5.233,10.843,10.911,10.745c5.564-0.096,10.485-4.792,10.521-10.04C303.779,161.545,299.83,157.734,293.498,157.58z
	 M371.945,346.744c4.999-0.009,10.354-5.176,10.611-10.24c0.254-5.011-4.829-9.659-10.652-9.74
	c-6.597-0.092-10.432,3.267-10.571,9.258C361.196,341.912,365.989,346.755,371.945,346.744z M284.844,107.494
	c-6.292,0.003-11.099,4.711-10.735,10.515c0.359,5.726,4.672,9.398,10.922,9.299c6.421-0.101,10.13-3.747,10.031-9.862
	C294.967,111.5,290.852,107.492,284.844,107.494z M169.89,256.883c-6.476-0.173-11.279,4.169-11.135,10.066
	c0.134,5.47,4.798,9.731,10.691,9.766c6.099,0.037,10.144-3.814,10.29-9.795C179.885,260.761,176.248,257.053,169.89,256.883z
	 M311.244,319.014c0.217,4.985,5.705,9.938,10.937,9.804c5.18-0.132,10.888-5.403,10.508-10.09c-0.491-6.046-3.8-9.711-10.207-9.836
	C316.312,308.772,311.007,313.55,311.244,319.014z M118.089,298.366c0.018,5.402,4.739,10.317,10.044,10.458
	c5.334,0.141,11.347-5.694,11.101-10.774c-0.241-4.984-5.71-9.881-11.008-9.857C122.605,288.218,118.071,292.769,118.089,298.366z
	 M336.209,344.669c-0.084,4.184,4.184,8.793,8.636,8.76c5.296-0.039,9.79-4.748,9.439-8.884c-0.421-4.963-3.387-8.295-8.523-8.391
	C340.317,336.053,336.311,339.624,336.209,344.669z M125.37,272.578c0.009,4.817,4.311,9.082,9.044,8.965
	c4.564-0.112,9.286-4.999,8.959-9.272c-0.367-4.791-4.651-8.347-9.813-8.143C128.555,264.326,125.361,267.622,125.37,272.578z
	 M314.538,135.497c0.145-5.128-3.6-8.576-9.272-8.538c-5.317,0.036-8.644,3.103-8.741,8.06c-0.106,5.396,3.31,8.546,9.175,8.46
	C311.037,143.399,314.4,140.363,314.538,135.497z"/>
</svg>
