<?xml version="1.0" encoding="iso-8859-1"?>
<!-- Generator: Adobe Illustrator 19.0.0, SVG Export Plug-In . SVG Version: 6.00 Build 0)  -->
<svg version="1.1" id="Layer_2" xmlns="http://www.w3.org/2000/svg" xmlns:xlink="http://www.w3.org/1999/xlink" x="0px" y="0px"
	 viewBox="0 0 500 500" style="enable-background:new 0 0 500 500;" xml:space="preserve">
<polygon style="fill:#32DFC5;" points="299.359,129.091 200.641,74.052 299.359,19.012 "/>
<polygon style="fill:#67E9D1;" points="188.726,174.024 90.009,118.985 188.726,63.946 "/>
<polygon style="fill:#0BDBB5;" points="173.096,277.678 74.379,222.638 173.096,167.599 "/>
<polygon style="fill:#72EBD6;" points="101.924,375.572 3.207,320.533 101.924,265.494 "/>
<polygon style="fill:#99EFE9;" points="279.615,452.078 180.898,397.039 279.615,342 "/>
<polygon style="fill:#1DD7D6;" points="496.793,349.248 398.076,294.208 496.793,239.169 "/>
<polygon style="fill:#00D4CD;" points="496.793,239.169 398.076,184.13 496.793,129.091 "/>
<polygon style="fill:#00D6C2;" points="398.076,184.13 299.359,129.091 398.076,74.052 "/>
<polygon style="fill:#67E7DC;" points="299.359,349.248 200.641,294.208 299.359,239.169 "/>
<polygon style="fill:#6AE6D9;" points="287.443,231.987 188.726,176.947 287.443,121.908 "/>
<polygon style="fill:#99F1DD;" points="52.565,124.478 151.283,179.518 52.565,234.557 "/>
<polygon style="fill:#99F1DD;" points="101.924,237.935 200.641,292.975 101.924,348.014 "/>
<polygon style="fill:#0BDABB;" points="188.726,108.447 287.443,163.486 188.726,218.525 "/>
<polygon style="fill:#1BDAC7;" points="167.337,320.533 266.055,375.572 167.337,430.612 "/>
<polygon style="fill:#4DE3DE;" points="301.428,369.892 400.146,424.931 301.428,479.97 "/>
<polygon style="fill:#00D3D3;" points="398.076,294.208 496.793,349.248 398.076,404.287 "/>
<polygon style="fill:#34DED6;" points="398.076,184.13 496.793,239.169 398.076,294.208 "/>
<polygon style="fill:#19DACD;" points="398.076,74.052 496.793,129.091 398.076,184.13 "/>
<polygon style="fill:#34DFD0;" points="299.359,129.091 398.076,184.13 299.359,239.169 "/>
<polygon style="fill:#00D7BC;" points="299.359,19.012 398.076,74.052 299.359,129.091 "/>
<polygon style="fill:#34DFD3;" points="299.359,239.169 398.076,294.209 299.359,349.248 "/>
<polygon style="fill:#0DD8CB;" points="398.076,294.209 299.359,239.169 398.076,184.13 "/>
<polygon style="fill:#4BE2DC;" points="398.076,404.287 299.359,349.248 398.076,294.208 "/>
</svg>
