<?xml version="1.0" encoding="utf-8"?>
<!-- Generator: Adobe Illustrator 23.0.4, SVG Export Plug-In . SVG Version: 6.00 Build 0)  -->
<svg version="1.1" id="iq" xmlns="http://www.w3.org/2000/svg" xmlns:xlink="http://www.w3.org/1999/xlink" x="0px" y="0px"
	 viewBox="0 0 500 500" style="enable-background:new 0 0 500 500;" xml:space="preserve">
<style type="text/css">
	.st0{fill:#094B89;}
	.st1{fill:#388CE0;}
	.st2{fill:#FFFFFF;}
</style>
<path class="st0" d="M497.3,250.3c0,128.7-98.6,234.4-224.4,245.7c-1.2,0.1-1.6-1.6-0.5-2c11.5-4.5,28.8-13.1,49.4-28.5
	c19-14.2,29.9-30.8,36.1-43.9c2.6-5.5-4-10.8-8.7-6.9c-9.1,7.4-22.5,16.6-40.9,25.8c-41.7,20.8-68.4,9.7-80.9,4.5
	c-12.5-5.2-45.1-34.7-26.4-103.4c16.4-60.4,70.4-86.3,88.8-93.6c2.7-1.1,3.3-4.6,1-6.5c-3.9-3.3-9.2-7.9-12.8-11.4
	c-6.3-6.2-33.3-32.3-33.3-93.7c0-61.5,40-92,62.9-92c22.9,0,39.2,22.2,39.2,57.6c0,32.3-22,54-25.9,57.6c-0.3,0.3-0.4,0.8-0.2,1.3
	c7.5,14.7,17,20.3,30.3,20.3c16.5,0,42.3-29.1,42.3-67.4c0-49-25.6-80.5-25.6-80.5l0.2-0.1C447.4,74,497.3,154.7,497.3,250.3z"/>
<path class="st1" d="M240.3,3.8c1.2,0,1.7,1.5,0.7,2.2c-10.8,6.7-22.1,14.3-31.3,21.7c-26.1,21-46.4,67.8-46.4,105.2
	c0,40.6,17.3,75.1,23.8,86.7c1.2,2,0.3,4.7-1.9,5.6c-5.2,2.2-15.6,7.9-34.6,22c-37.7,27.9-56.9,81.5-58.4,126.3
	c-1.1,33.8,13.4,63.4,25.1,81.7c0.7,1.1-0.6,2.3-1.6,1.6C48.3,412.7,3.9,336.7,3.9,250.3C3.9,117.5,108.8,9.2,240.3,3.8z"/>
<path class="st2" d="M320.3,160.1c7.6,15.2,17.1,21,30.7,21c16.5,0,42.3-29.1,42.3-67.4c0-49-25.6-80.5-25.6-80.5l-4.4-2.4l-0.3-0.2
	c-33.7-17.3-71.9-27-112.3-27c-2,0-3.9,0-5.9,0.1c-11.9,7.2-24.8,15.7-35.1,24c-26.1,21-46.4,67.8-46.4,105.2
	c0,40.6,17.3,75.1,23.8,86.7c1.2,2,0.3,4.7-1.9,5.6c-5.2,2.2-15.6,7.9-34.6,22c-37.7,27.9-56.9,81.5-58.4,126.3
	c-1.2,36.8,16.1,68.7,28.1,86.3c12.6,7.9,26.1,14.7,40.1,20.2c27.2,10.7,56.7,16.7,87.6,17c0.9,0,1.8,0,2.7,0
	c4.9,0,9.8-0.1,14.7-0.4c10.6-3.5,31-12,56.6-31.1c19-14.2,29.9-30.8,36.1-43.9c2.6-5.5-4-10.8-8.7-6.9
	c-9.1,7.4-22.5,16.6-40.9,25.8c-41.7,20.8-68.4,9.7-80.9,4.5c-12.5-5.2-45.1-34.7-26.4-103.4c16.4-60.4,70.4-86.3,88.8-93.6
	c2.7-1.1,3.3-4.6,1-6.5c-3.9-3.3-9.2-7.9-12.8-11.4c-6.3-6.2-33.3-32.3-33.3-93.7c0-61.5,40-92,62.9-92c22.9,0,39.2,22.2,39.2,57.6
	C346.8,137.4,320.3,160.1,320.3,160.1z"/>
</svg>
