<?xml version="1.0" encoding="utf-8"?>
<!-- Generator: Adobe Illustrator 24.1.2, SVG Export Plug-In . SVG Version: 6.00 Build 0)  -->
<svg version="1.1" id="IREP" xmlns="http://www.w3.org/2000/svg" xmlns:xlink="http://www.w3.org/1999/xlink" x="0px" y="0px"
	 viewBox="0 0 500 500" style="enable-background:new 0 0 500 500;" xml:space="preserve">
<style type="text/css">
	.st0{fill:url(#SVGID_1_);}
	.st1{fill:#FFFFFF;}
	.st2{fill:#5F2652;}
	.st3{fill-rule:evenodd;clip-rule:evenodd;fill:#FFFFFF;stroke:#FFFFFF;}
</style>
<linearGradient id="SVGID_1_" gradientUnits="userSpaceOnUse" x1="467.5001" y1="34.5006" x2="67.5001" y2="434.5006" gradientTransform="matrix(1 0 0 -1 0 502)">
	<stop  offset="0.1594" style="stop-color:#003CDA"/>
	<stop  offset="1" style="stop-color:#33DFCC"/>
</linearGradient>
<path class="st0" d="M250,96.4c30.4,0,60.1,9,85.3,25.9c25.3,16.9,44.9,40.9,56.6,68.9c11.6,28.1,14.7,58.9,8.7,88.7
	c-5.9,29.8-20.6,57.2-42,78.6c-21.5,21.5-48.8,36.1-78.6,42c-29.8,5.9-60.7,2.9-88.7-8.7c-28.1-11.6-52.1-31.3-68.9-56.6
	c-16.9-25.3-25.9-55-25.9-85.3c0.1-40.7,16.3-79.8,45-108.6C170.2,112.7,209.3,96.5,250,96.4L250,96.4z M250,0
	c-49.4,0-97.8,14.7-138.9,42.1C70,69.6,38,108.6,19,154.3C0.1,200-4.8,250.3,4.8,298.8c9.6,48.5,33.5,93,68.4,128
	c35,35,79.5,58.8,128,68.4c48.5,9.6,98.8,4.7,144.4-14.2c45.7-18.9,84.7-51,112.2-92.1C485.3,347.8,500,299.4,500,250
	c0-66.3-26.3-129.9-73.2-176.8C379.9,26.3,316.3,0,250,0L250,0z"/>
<path class="st1" d="M250,446c108.2,0,196-87.7,196-196S358.2,54,250,54S54,141.8,54,250S141.8,446,250,446z"/>
<path class="st2" d="M361.6,363c-14.8,14.7-32.4,26.4-51.8,34.2c-19.4,7.8-40.1,11.6-61,11.2c-20.8,0.4-41.4-3.5-60.6-11.4
	s-36.6-19.6-51.2-34.4c-30.5-30.4-45.7-67.7-45.6-112c0-45.5,15.3-83.4,46-113.7c14.6-14.8,32.1-26.4,51.3-34.2
	c19.2-7.8,39.9-11.6,60.7-11.1c20.9-0.3,41.6,3.6,61,11.4c19.4,7.9,36.9,19.5,51.7,34.3c31.2,30.4,46.8,68.3,46.6,113.9
	c0.4,20.9-3.6,41.6-11.7,60.9C388.8,331.3,376.8,348.7,361.6,363L361.6,363z"/>
<path class="st3" d="M215.3,254.2l-0.3,1.9l-0.1,0.8c-1.4,10.6-5.4,13.7-15.5,18.2c0,0,0,0-0.1,0l-36.6,16.3l82.7,47.7v-27.3
	c0-10-0.6-11.8-9.4-16.7c-1.7-1-3.5-2-5.4-3.1l-1.2-0.7c-5.5-3-9.9-7.3-13.2-12.5c-0.1-0.2-1-1.5-1.1-1.7c0.7-0.4,1.3-0.8,1.9-1.4
	c0.6-0.5,1.1-1.2,1.5-1.9c2.9,5.7,7.3,10.5,12.9,13.6l1.4,0.8c1.9,1.1,3.8,2.1,5.5,3.1c10.8,6,11.6,9.7,11.6,20.5v27.3l83.5-48.6
	l-35.7-15.8l-2.3-1c-0.9-0.4-3.8-1.6-6-1.7c-2.2-0.1-5.7,0-7.5,2.4c-1.7,2.2-3.4,4.4-5.1,6.5c-3.9,5.2-9.1,9.4-15.2,11.9
	c0,0,0,0-0.1,0c-1.6,0.7-3.4,1.1-5.1,1.5c-0.4-0.7-0.9-1.5-1.4-2.1c-0.4-0.5-0.9-1.1-1.4-1.6c2.6-0.5,5.6-1.4,8-2.5l0,0
	c4.7-2.2,8.7-5.4,11.8-9.4c0.2-0.2,0.3-0.4,0.4-0.6c0.3-0.4,0.6-0.8,0.9-1.3c0.8-1.1,2.1-2.8,3.8-5c1.2-1.5,2.8-2.5,4.6-3.2l0,0
	c1.9-0.7,4.1-1,6.5-1c3.6,0.1,7.7,2.1,7.7,2.1l1.3,0.5l0.1,0l3.3,1.4c0,0,0,0,0,0l31.2,13.8l-83.1-134v56.7c0,9.8,0.7,11.9,9.6,16.9
	c0.7,0.4,1.4,0.7,2.1,1.1l1.1,0.6c0.3,0.1,0.6,0.3,0.8,0.4l0,0h0c11.6,5.7,19.8,17.1,20.5,30.5c-0.8,0.2-1.9,0.5-2.6,0.7
	c-0.5,0.1-1.2,0.5-1.8,0.8c-0.1-12.4-7.5-23-18.2-28.2l0,0c0,0-0.1,0-0.1,0c-0.6-0.3-1.2-0.6-1.9-0.9c-2.3-1.1-4.4-2.3-6.5-3.7
	c-0.3-0.2-0.6-0.4-0.9-0.7c-0.7-0.5-1.3-1-1.8-1.4c-0.3-0.3-0.6-0.5-0.8-0.8c-3.6-3.6-4.3-7.7-4.3-15.3v-56.8l-83.4,135.3l36.8-16.4
	h0c8.2-3.6,10.6-6.7,11.7-15.5c0-0.1,0.1-0.4,0.1-0.5c2.1-14,12.5-25.3,26.1-29.2l1.8-0.5c0.2,0.7,0.5,1.4,0.9,2.1
	c0.4,0.7,0.9,1.3,1.5,1.9l-1.7,0.4C227.1,232.1,217.6,241.9,215.3,254.2z M155.2,289.6l90.6-146.9c0.2-0.3,0.5-0.6,0.8-0.8
	c0.3-0.2,0.7-0.3,1.1-0.3c0.4,0,0.8,0.1,1.1,0.3c0.3,0.2,0.6,0.5,0.8,0.8L340.4,289c0.1,0.2,0.2,0.5,0.3,0.8c0,0.3,0,0.6,0,0.9
	c-0.1,0.3-0.2,0.5-0.4,0.8c-0.2,0.2-0.4,0.4-0.6,0.6l-90.8,52.8c-0.3,0.2-0.7,0.3-1.1,0.3c-0.4,0-0.8-0.1-1.1-0.3L156,292.6
	c-0.3-0.1-0.5-0.3-0.6-0.6c-0.2-0.2-0.3-0.5-0.4-0.8c-0.1-0.3-0.1-0.6,0-0.9C154.9,290.1,155,289.8,155.2,289.6z"/>
</svg>
