<?xml version="1.0" encoding="utf-8"?>
<!-- Generator: Adobe Illustrator 25.0.1, SVG Export Plug-In . SVG Version: 6.00 Build 0)  -->
<svg version="1.1" id="iris" xmlns="http://www.w3.org/2000/svg" xmlns:xlink="http://www.w3.org/1999/xlink" x="0px" y="0px"
	 viewBox="0 0 500 500" style="enable-background:new 0 0 500 500;" xml:space="preserve">
<style type="text/css">
	.st0{fill:url(#SVGID_1_);}
	.st1{fill:url(#SVGID_2_);}
	.st2{fill:url(#SVGID_3_);}
	.st3{fill:url(#SVGID_4_);}
	.st4{fill:url(#SVGID_5_);}
	.st5{fill:url(#SVGID_6_);}
	.st6{fill:url(#SVGID_7_);}
</style>
<linearGradient id="SVGID_1_" gradientUnits="userSpaceOnUse" x1="96.0974" y1="-402.5025" x2="876.0774" y2="377.4774" gradientTransform="matrix(0.5 0 0 -0.5 0 250)">
	<stop  offset="0" style="stop-color:#009DDE"/>
	<stop  offset="0.5" style="stop-color:#694D9F"/>
	<stop  offset="1" style="stop-color:#ED3554"/>
</linearGradient>
<path class="st0" d="M151.8,362.4L37,375.2l67.3-155.4l-68.9-94l167.6-19.1L248.6,2l99.8,135.6l114.7-12.9l-67.1,154.6l68.4,93.4
	l-166.8,19L251.5,498L151.8,362.4z M199.4,352c-4.4,2.1-9.1,4-13.9,5.3l-4.4,1.2l64.7,87.9l23-52.8l-4.1-0.5
	c-22.6-2.9-43.1-15-56.4-33.4l-6.4-8.9L199.4,352z M176.9,272.4l52.2,72.1c10.6,14.6,27.7,23.4,45.8,23.4c2.1,0,4.2-0.1,6.2-0.4
	L417.2,352L363,278.1c-2.7-3.6-5.8-7-9.2-9.9l-3.2-2.6l-38.8,87.6l-67.5-89.4L176.9,272.4z M179.1,184.5
	c-20.2,2.1-37.8,15.1-45.9,33.8L78.6,344.5l90.8-10.2c4.5-0.5,8.9-1.5,13.1-3.1l3.9-1.5l-56.2-77.6l110.8-14.1l26.3-62.9
	L179.1,184.5z M264.9,248.1l41.1,54.4l25-56.6l11-24.9c8.2-18.6,5.9-40.4-6.2-56.8L254.4,53.5l-36.6,84.1c-1.8,4.1-3.1,8.5-3.9,13
	l-0.7,4.1l94.9-10.1L264.9,248.1z M364.6,161.9l1.6,3.9c8.8,21.1,8.6,45.1-0.6,65.8l-4.5,10l2.1,1.4c4.1,2.8,8,5.9,11.5,9.5l3.2,3.2
	l43.5-100.2L364.6,161.9z M82.8,146.6l34.6,47.2l2.6-3.3c13.7-17.9,34.4-29.4,56.5-31.8l10.9-1.1l0.2-2.6c0.4-5.4,1.3-10.9,2.8-16.2
	l1.2-4.5L82.8,146.6z"/>
<linearGradient id="SVGID_2_" gradientUnits="userSpaceOnUse" x1="181.1974" y1="-487.6026" x2="961.1775" y2="292.3774" gradientTransform="matrix(0.5 0 0 -0.5 0 250)">
	<stop  offset="0" style="stop-color:#009DDE"/>
	<stop  offset="0.5" style="stop-color:#694D9F"/>
	<stop  offset="1" style="stop-color:#ED3554"/>
</linearGradient>
<path class="st1" d="M225.8,500c-72-7-136.7-44.4-179.1-103.8l29-3.2c4.8,5.9,9.9,11.5,15.2,16.9c31.5,31.6,70.8,52.9,114,61.7
	L225.8,500z"/>
<linearGradient id="SVGID_3_" gradientUnits="userSpaceOnUse" x1="403.7268" y1="-710.1318" x2="1183.7067" y2="69.848" gradientTransform="matrix(0.5 0 0 -0.5 0 250)">
	<stop  offset="0" style="stop-color:#009DDE"/>
	<stop  offset="0.5" style="stop-color:#694D9F"/>
	<stop  offset="1" style="stop-color:#ED3554"/>
</linearGradient>
<path class="st2" d="M286.2,473.1c46.7-7.5,89.1-29.4,122.9-63.3c3-3,6-6.3,9.1-9.7l35.1-4C411.1,455.5,346.5,493,274.5,500
	L286.2,473.1z"/>
<linearGradient id="SVGID_4_" gradientUnits="userSpaceOnUse" x1="324.4724" y1="-630.8776" x2="1104.4524" y2="149.1024" gradientTransform="matrix(0.5 0 0 -0.5 0 250)">
	<stop  offset="0" style="stop-color:#009DDE"/>
	<stop  offset="0.5" style="stop-color:#694D9F"/>
	<stop  offset="1" style="stop-color:#ED3554"/>
</linearGradient>
<path class="st3" d="M460.5,330.1c9.6-25.5,14.5-52.5,14.5-80.1c0-24.4-3.9-48.4-11.4-71.3l14.1-32.5C492.5,178.9,500,213.8,500,250
	c0,36.2-7.5,71-22.2,103.7L460.5,330.1z"/>
<linearGradient id="SVGID_5_" gradientUnits="userSpaceOnUse" x1="-130.9276" y1="-175.4775" x2="649.0526" y2="604.5023" gradientTransform="matrix(0.5 0 0 -0.5 0 250)">
	<stop  offset="0" style="stop-color:#009DDE"/>
	<stop  offset="0.5" style="stop-color:#694D9F"/>
	<stop  offset="1" style="stop-color:#ED3554"/>
</linearGradient>
<path class="st4" d="M22.4,354C7.6,321.3,0,286.4,0,250c0-36.6,7.6-71.7,22.6-104.6l17.2,23.5C30,194.8,25,222,25,250
	c0,24.5,3.9,48.5,11.5,71.5L22.4,354z"/>
<linearGradient id="SVGID_6_" gradientUnits="userSpaceOnUse" x1="-210.0172" y1="-96.3879" x2="569.9626" y2="683.5922" gradientTransform="matrix(0.5 0 0 -0.5 0 250)">
	<stop  offset="0" style="stop-color:#009DDE"/>
	<stop  offset="0.5" style="stop-color:#694D9F"/>
	<stop  offset="1" style="stop-color:#ED3554"/>
</linearGradient>
<path class="st5" d="M47.8,102.3C90.1,43.9,154.3,6.9,225.6,0L214,26.8c-46.8,7.5-89.3,29.4-123.1,63.3c-2.6,2.6-5.1,5.3-7.7,8.1
	L47.8,102.3z"/>
<linearGradient id="SVGID_7_" gradientUnits="userSpaceOnUse" x1="12.4973" y1="-318.9023" x2="792.4774" y2="461.0773" gradientTransform="matrix(0.5 0 0 -0.5 0 250)">
	<stop  offset="0" style="stop-color:#009DDE"/>
	<stop  offset="0.5" style="stop-color:#694D9F"/>
	<stop  offset="1" style="stop-color:#ED3554"/>
</linearGradient>
<path class="st6" d="M424.3,107c-4.8-5.9-9.9-11.6-15.2-16.8c-31.4-31.6-70.7-52.9-113.7-61.7L274.4,0C346.3,7,411,44.5,453.2,103.8
	L424.3,107z"/>
</svg>
