<?xml version="1.0" encoding="utf-8"?>
<!-- Generator: Adobe Illustrator 24.1.2, SVG Export Plug-In . SVG Version: 6.00 Build 0)  -->
<svg version="1.1" id="ISUSD" xmlns="http://www.w3.org/2000/svg" xmlns:xlink="http://www.w3.org/1999/xlink" x="0px" y="0px"
	 viewBox="0 0 500 500" style="enable-background:new 0 0 500 500;" xml:space="preserve">
<style type="text/css">
	.st0{fill:url(#SVGID_1_);}
	.st1{fill:#FFFFFF;}
	.st2{fill:url(#SVGID_2_);}
	.st3{fill:#FFFFFF;fill-opacity:0.5;}
</style>
<linearGradient id="SVGID_1_" gradientUnits="userSpaceOnUse" x1="467.5" y1="34.5001" x2="67.5" y2="434.5" gradientTransform="matrix(1 0 0 -1 0 502)">
	<stop  offset="0.1594" style="stop-color:#003CDA"/>
	<stop  offset="1" style="stop-color:#33DFCC"/>
</linearGradient>
<path class="st0" d="M250,96.4c30.4,0,60.1,9,85.3,25.9c25.3,16.9,44.9,40.9,56.6,68.9c11.6,28.1,14.7,58.9,8.7,88.7
	c-5.9,29.8-20.6,57.2-42,78.6s-48.8,36.1-78.6,42c-29.8,5.9-60.7,2.9-88.7-8.7c-28.1-11.6-52.1-31.3-68.9-56.6
	c-16.9-25.3-25.9-55-25.9-85.3c0.1-40.7,16.3-79.8,45-108.5S209.3,96.5,250,96.4z M250,0c-49.4,0-97.8,14.7-138.9,42.1
	C70,69.6,38,108.6,19,154.3C0.1,200-4.8,250.3,4.8,298.8c9.6,48.5,33.5,93,68.4,128c35,35,79.5,58.8,128,68.4
	c48.5,9.6,98.8,4.7,144.4-14.2c45.7-18.9,84.7-51,112.2-92.1C485.3,347.8,500,299.4,500,250c0-66.3-26.3-129.9-73.2-176.8
	C379.9,26.3,316.3,0,250,0L250,0z"/>
<path class="st1" d="M250,446c108.2,0,196-87.7,196-196S358.2,54,250,54S54,141.8,54,250S141.8,446,250,446z"/>
<linearGradient id="SVGID_2_" gradientUnits="userSpaceOnUse" x1="140" y1="362" x2="372.5" y2="129.5" gradientTransform="matrix(1 0 0 -1 0 502)">
	<stop  offset="0" style="stop-color:#342F49"/>
	<stop  offset="1" style="stop-color:#000000"/>
</linearGradient>
<circle class="st2" cx="250" cy="250" r="160"/>
<path class="st1" d="M327.2,286.1c0-10.5-7.5-17.4-16.7-17.4H283v9h27.5c4.7,0,8.5,3.1,8.5,8.5c0,5.2-3.8,8.2-8.5,8.2H283v9.6h27.4
	C319.7,303.9,327.2,296.9,327.2,286.1z"/>
<path class="st1" d="M327.2,245.8c0-9.6-5.2-16.2-13.4-16.2c-7.2,0-11.5,4.8-13.2,12.7l-0.9,4.1c-0.9,4.1-2.5,5.8-4.8,5.8
	c-2.9,0-4.8-2.2-4.8-6.2c0-4.5,2.2-6.6,5.1-7.4v-7.5h-4.4c-5.3,1.2-8.6,6.7-8.6,14.6c0,9.5,4.8,15.7,13.2,15.7
	c7,0,11.2-4.4,12.8-12.3l0.8-4c1-4.4,2.6-6.3,5.4-6.3c3.2,0,5.1,2.7,5.1,6.7c0,4.6-2,7.4-5.3,8.5v7.5h4.3
	C323.2,259.8,327.2,254.7,327.2,245.8z"/>
<path class="st1" d="M326.3,222.5v-15.1c0-13.3-9.8-21.5-21.8-21.5c-11.8,0-21.5,8.2-21.5,21.5v15.1H326.3z M318.2,212.9h-27v-5.4
	c0-7.5,6-11.9,13.3-11.9c7.6,0,13.7,4.3,13.7,11.9V212.9z"/>
<path class="st1" d="M226.9,238.8c4.4,0,8,3.5,8,7.9s-3.6,7.9-8,7.9h-20.7c-20,0-36.2-16.2-36.2-36.1c0-19.9,16.2-36.1,36.2-36.1
	h53.3c4.4,0,8,3.5,8,7.9s-3.6,7.9-8,7.9h-53.3c-11.2,0-20.3,9.1-20.3,20.2c0,11.2,9.1,20.2,20.3,20.2H226.9z"/>
<path class="st1" d="M210.6,254.7c-4.4,0-8-3.6-8-7.9s3.6-7.9,8-7.9h20.7c20,0,36.2,16.2,36.2,36.1c0,19.9-16.2,36.1-36.2,36.1H178
	c-4.4,0-8-3.5-8-7.9c0-4.4,3.6-7.9,8-7.9h53.3c11.2,0,20.3-9.1,20.3-20.2c0-11.2-9.1-20.2-20.3-20.2H210.6z"/>
<path class="st3" d="M184.2,307.8l-12.9-9.2l81.4-113.1l12.9,9.2L184.2,307.8z"/>
</svg>
