<?xml version="1.0" encoding="utf-8"?>
<!-- Generator: Adobe Illustrator 24.1.2, SVG Export Plug-In . SVG Version: 6.00 Build 0)  -->
<svg version="1.1" id="IUSDC" xmlns="http://www.w3.org/2000/svg" xmlns:xlink="http://www.w3.org/1999/xlink" x="0px" y="0px"
	 viewBox="0 0 500 500" style="enable-background:new 0 0 500 500;" xml:space="preserve">
<style type="text/css">
	.st0{fill:url(#SVGID_1_);}
	.st1{fill:#FFFFFF;}
	.st2{fill:#3574B9;}
</style>
<linearGradient id="SVGID_1_" gradientUnits="userSpaceOnUse" x1="467.5001" y1="34.5006" x2="67.5001" y2="434.5006" gradientTransform="matrix(1 0 0 -1 0 502)">
	<stop  offset="0.1594" style="stop-color:#003CDA"/>
	<stop  offset="1" style="stop-color:#33DFCC"/>
</linearGradient>
<path class="st0" d="M250,96.4c30.4,0,60.1,9,85.3,25.9c25.3,16.9,44.9,40.9,56.6,68.9c11.6,28.1,14.7,58.9,8.7,88.7
	c-5.9,29.8-20.6,57.2-42,78.6c-21.5,21.5-48.8,36.1-78.6,42c-29.8,5.9-60.7,2.9-88.7-8.7c-28.1-11.6-52.1-31.3-68.9-56.6
	c-16.9-25.3-25.9-55-25.9-85.3c0.1-40.7,16.3-79.8,45-108.6C170.2,112.7,209.3,96.5,250,96.4L250,96.4z M250,0
	c-49.4,0-97.8,14.7-138.9,42.1C70,69.6,38,108.6,19,154.3C0.1,200-4.8,250.3,4.8,298.8c9.6,48.5,33.5,93,68.4,128
	c35,35,79.5,58.8,128,68.4c48.5,9.6,98.8,4.7,144.4-14.2c45.7-18.9,84.7-51,112.2-92.1C485.3,347.8,500,299.4,500,250
	c0-66.3-26.3-129.9-73.2-176.8C379.9,26.3,316.3,0,250,0L250,0z"/>
<path class="st1" d="M250,446c108.2,0,196-87.7,196-196S358.2,54,250,54S54,141.8,54,250S141.8,446,250,446z"/>
<path class="st2" d="M408.6,250.3c0.2-87.5-70.7-158.5-158.3-158.7c-87.6-0.2-158.7,70.6-158.9,158.1
	c-0.2,87.5,70.7,158.5,158.3,158.7C337.3,408.6,408.4,337.8,408.6,250.3z"/>
<path class="st1" d="M220.7,359.4c0,3.9-2.7,5.3-6.6,5.3c-24.1-7.7-45.2-22.8-60.1-43.2C139,301,131,276.3,131.1,251
	c0-25.3,8.2-50,23.2-70.3c15-20.4,36.1-35.5,60.3-43c3.9-1.3,6.6,1.3,6.6,5.3v9.4c0,1.4-0.3,2.7-1,3.9c-0.7,1.2-1.7,2.1-2.9,2.7
	c-19,6.8-35.4,19.4-47.1,35.9c-11.6,16.5-17.9,36.2-17.9,56.4c0,20.2,6.1,39.9,17.7,56.5c11.6,16.6,27.9,29.2,46.9,36.1
	c1.2,0.6,2.2,1.6,2.9,2.7c0.7,1.2,1,2.5,1,3.9L220.7,359.4z"/>
<path class="st1" d="M260.4,326.6c0,1.4-0.6,2.7-1.6,3.7c-1,1-2.3,1.6-3.7,1.7h-10.6c-1.4-0.1-2.7-0.7-3.6-1.7c-1-1-1.6-2.3-1.6-3.7
	v-15.6c-21.2-2.7-31.7-14.6-35.7-31.8c0-2.6,1.4-5.3,3.9-5.3h11.9c2.6,0,3.9,1.3,5.3,3.9c2.6,9.3,7.8,17.2,25.1,17.2
	c13.2,0,22.5-6.6,22.5-17.1c0-10.5-5.3-14.5-23.8-17.2c-27.8-3.9-41-12-40.9-34.4c0-17.1,13.3-30.4,31.8-32.9v-16.2
	c0.1-1.4,0.7-2.7,1.6-3.6c1-1,2.3-1.6,3.6-1.6h10.6c1.4,0.1,2.7,0.7,3.6,1.6c1,1,1.6,2.3,1.6,3.6v15.9c15.9,2.7,26.4,11.9,29,26.4
	c0,2.6-1.3,5.3-3.9,5.3h-10.5c-2.7,0-3.9-1.3-5.3-3.9c-2.6-9.3-9.2-13.2-21.1-13.2c-13.2,0-19.8,6.6-19.8,15.6s3.9,14.5,23.8,17.2
	c27.7,3.9,40.9,12,40.9,34.4c0,17.1-13.2,31.6-33.1,35.6L260.4,326.6z"/>
<path class="st1" d="M285.5,364.9c-3.9,1.3-6.6-1.3-6.6-5.3v-9.3c0-1.4,0.3-2.7,1-3.8c0.7-1.2,1.7-2.1,2.9-2.7
	c19-6.8,35.4-19.4,47.1-35.9c11.6-16.5,17.9-36.2,17.9-56.4s-6.1-39.9-17.7-56.5c-11.6-16.6-27.9-29.2-46.9-36.1
	c-1.2-0.6-2.2-1.6-2.9-2.7c-0.7-1.2-1-2.5-1-3.9v-9.3c0-3.9,2.7-5.3,6.6-5.3c47.5,15.9,83.1,60.9,83,113.7
	c-0.1,25.3-8.2,49.9-23.2,70.3C330.7,342.2,309.6,357.3,285.5,364.9L285.5,364.9z"/>
</svg>
