<?xml version="1.0" encoding="utf-8"?>
<!-- Generator: Adobe Illustrator 24.1.2, SVG Export Plug-In . SVG Version: 6.00 Build 0)  -->
<svg version="1.1" id="IWBTC" xmlns="http://www.w3.org/2000/svg" xmlns:xlink="http://www.w3.org/1999/xlink" x="0px" y="0px"
	 viewBox="0 0 500 500" style="enable-background:new 0 0 500 500;" xml:space="preserve">
<style type="text/css">
	.st0{fill:url(#SVGID_1_);}
	.st1{fill:#FFFFFF;}
	.st2{fill:url(#SVGID_2_);}
</style>
<linearGradient id="SVGID_1_" gradientUnits="userSpaceOnUse" x1="467.4997" y1="34.5011" x2="67.5005" y2="434.5003" gradientTransform="matrix(1 0 0 -1 0 502)">
	<stop  offset="0.1594" style="stop-color:#003CDA"/>
	<stop  offset="1" style="stop-color:#33DFCC"/>
</linearGradient>
<path class="st0" d="M250,96.4c30.4,0,60.1,9,85.3,25.9c25.3,16.9,44.9,40.9,56.6,68.9c11.6,28.1,14.7,58.9,8.7,88.7
	c-5.9,29.8-20.6,57.2-42,78.6c-21.5,21.5-48.8,36.1-78.6,42c-29.8,5.9-60.7,2.9-88.7-8.7c-28.1-11.6-52.1-31.3-68.9-56.6
	c-16.9-25.3-25.9-55-25.9-85.3c0.1-40.7,16.3-79.8,45-108.5C170.2,112.7,209.3,96.5,250,96.4L250,96.4z M250,0
	c-49.4,0-97.8,14.7-138.9,42.1C70,69.6,38,108.6,19,154.3C0.1,200-4.8,250.3,4.8,298.8c9.6,48.5,33.5,93,68.4,128
	c35,35,79.5,58.8,128,68.4c48.5,9.6,98.8,4.7,144.4-14.2s84.7-51,112.2-92.1C485.3,347.8,500,299.4,500,250
	c0-66.3-26.3-129.9-73.2-176.8C379.9,26.3,316.3,0,250,0L250,0z"/>
<path class="st1" d="M250,446c108.2,0,196-87.7,196-196S358.2,54,250,54S54,141.8,54,250S141.8,446,250,446z"/>
<linearGradient id="SVGID_2_" gradientUnits="userSpaceOnUse" x1="250.2956" y1="444.9749" x2="249.7331" y2="124.9691" gradientTransform="matrix(1 0 0 -1 0 502)">
	<stop  offset="0" style="stop-color:#F8A94B"/>
	<stop  offset="1" style="stop-color:#F6921E"/>
</linearGradient>
<path class="st2" d="M403.8,288.6c-7.6,30.4-24.1,57.9-47.3,79c-23.2,21.1-52.2,34.8-83.2,39.4c-31,4.6-62.7-0.1-91.1-13.5
	c-28.4-13.4-52.1-34.9-68.2-61.8c-16.1-26.9-23.9-58-22.4-89.3c1.6-31.3,12.4-61.5,31.1-86.7s44.5-44.3,74-54.8
	c29.5-10.5,61.6-12.1,92-4.4c40.7,10.3,75.7,36.2,97.3,72.3C407.5,204.7,414,247.8,403.8,288.6z"/>
<path class="st1" d="M320,227.5c3.2-21.1-12.9-32.2-34.8-40l7.2-28.6l-17.4-4.4l-7,27.9c-4.6-1.2-9.3-2.2-13.9-3.3l7-28l-17.4-4.3
	l-7.2,28.5c-3.9-0.9-7.5-1.7-11.1-2.6l-24-6l-4.6,18.6c0,0,12.9,3,12.6,3.2c2.4,0.3,4.6,1.5,6.1,3.4c1.5,1.9,2.2,4.3,2,6.7
	l-19.5,78.1c-0.6,1.5-1.7,2.8-3.1,3.5c-1.5,0.7-3.1,0.9-4.7,0.4c0,0.2-12.7-3.2-12.7-3.2l-8.7,19.9l22.6,5.7l12.4,3.2l-7.6,29
	l17.4,4.4l7.2-28.6c4.8,1.3,9.3,2.5,13.9,3.6l-7.1,28.4l17.4,4.4l7.3-28.8c29.6,5.7,52,3.4,61.4-23.4c7.8-21.6-0.3-34-15.9-42.1
	C309.1,250.4,317.7,242.9,320,227.5L320,227.5z M280.1,283.2c-5.4,21.5-41.8,9.8-53.5,6.9l9.6-38.2
	C247.9,254.8,285.7,260.7,280.1,283.2z M285.6,227.2c-5,19.5-35.2,9.6-45,7.1l8.7-34.7C259.1,202.1,290.7,206.7,285.6,227.2z"/>
</svg>
