<?xml version="1.0" encoding="utf-8"?>
<!-- Generator: Adobe Illustrator 24.1.2, SVG Export Plug-In . SVG Version: 6.00 Build 0)  -->
<svg version="1.1" id="IZRX" xmlns="http://www.w3.org/2000/svg" xmlns:xlink="http://www.w3.org/1999/xlink" x="0px" y="0px"
	 viewBox="0 0 500 500" style="enable-background:new 0 0 500 500;" xml:space="preserve">
<style type="text/css">
	.st0{fill:url(#SVGID_1_);}
	.st1{fill:#FFFFFF;}
	.st2{fill:#6F68AE;}
</style>
<linearGradient id="SVGID_1_" gradientUnits="userSpaceOnUse" x1="467.5001" y1="34.5006" x2="67.5001" y2="434.5006" gradientTransform="matrix(1 0 0 -1 0 502)">
	<stop  offset="0.1594" style="stop-color:#003CDA"/>
	<stop  offset="1" style="stop-color:#33DFCC"/>
</linearGradient>
<path class="st0" d="M250,96.4c30.4,0,60.1,9,85.3,25.9c25.3,16.9,44.9,40.9,56.6,68.9c11.6,28.1,14.7,58.9,8.7,88.7
	c-5.9,29.8-20.6,57.2-42,78.6c-21.5,21.5-48.8,36.1-78.6,42c-29.8,5.9-60.7,2.9-88.7-8.7c-28.1-11.6-52.1-31.3-68.9-56.6
	c-16.9-25.3-25.9-55-25.9-85.3c0.1-40.7,16.3-79.8,45-108.6C170.2,112.7,209.3,96.5,250,96.4L250,96.4z M250,0
	c-49.4,0-97.8,14.7-138.9,42.1C70,69.6,38,108.6,19,154.3C0.1,200-4.8,250.3,4.8,298.8c9.6,48.5,33.5,93,68.4,128
	c35,35,79.5,58.8,128,68.4c48.5,9.6,98.8,4.7,144.4-14.2c45.7-18.9,84.7-51,112.2-92.1C485.3,347.8,500,299.4,500,250
	c0-66.3-26.3-129.9-73.2-176.8C379.9,26.3,316.3,0,250,0L250,0z"/>
<path class="st1" d="M250,446c108.2,0,196-87.7,196-196S358.2,54,250,54S54,141.8,54,250S141.8,446,250,446z"/>
<path class="st2" d="M361.6,363c-14.8,14.7-32.4,26.4-51.8,34.2c-19.4,7.8-40.1,11.6-61,11.2c-20.8,0.4-41.4-3.5-60.6-11.4
	c-19.2-7.9-36.6-19.6-51.2-34.4c-30.5-30.4-45.7-67.7-45.6-112c0-45.5,15.3-83.4,46-113.7c14.6-14.8,32.1-26.4,51.3-34.2
	c19.2-7.8,39.9-11.6,60.7-11.1c20.9-0.3,41.6,3.6,61,11.4c19.4,7.9,36.9,19.5,51.7,34.3c31.2,30.4,46.8,68.3,46.6,113.9
	c0.4,20.9-3.6,41.6-11.7,60.9C388.8,331.3,376.8,348.7,361.6,363L361.6,363z"/>
<path class="st1" d="M190.7,352.9c23.9-17.8,47.4-35.2,71.2-53c5.8,5.7,11.7,11.3,17.2,17.1c0.4,0.6,0.9,1,1.4,1.4
	c0.6,0.4,1.2,0.6,1.9,0.7c0.7,0.1,1.3,0.1,2-0.1c0.6-0.2,1.3-0.5,1.8-0.9c10.5-5.7,19.7-13.7,26.7-23.4c0.6-0.8,1.2-1.6,2.2-2.8
	c4.3,5.6,8.4,10.9,12.5,16.3c4.1,5.4,7.8,10.7,11.7,15.9c0.4,0.3,0.7,0.8,0.9,1.2c0.2,0.5,0.3,1,0.3,1.5c0,0.5-0.2,1-0.4,1.5
	c-0.2,0.5-0.6,0.8-1,1.2c-14.1,15.7-32.1,27.4-52.2,33.9c-13.9,4.7-28.6,6.7-43.3,5.9c-17.9-1-35.4-6.1-51.1-14.8
	C191.8,353.9,191.2,353.4,190.7,352.9z"/>
<path class="st1" d="M208.1,315c-11.4,8.5-22.3,16.6-33.4,24.6c-0.7,0.2-1.5,0.2-2.2,0.1c-0.7-0.2-1.4-0.5-2-1
	c-15.1-13.3-26.5-30.2-33.1-49.2c-5.3-14.5-7.6-30-6.8-45.4c0.9-17,5.5-33.6,13.3-48.8c0.6-1.2,1.4-2.5,2.4-4.4
	c3.1,3.9,6,7.8,8.8,11.3c14.2,18.7,28.4,37.4,42.7,56.1c0.4,0.4,0.8,0.9,1,1.4c0.2,0.6,0.3,1.2,0.3,1.7c0,0.6-0.2,1.2-0.5,1.7
	c-0.3,0.5-0.7,1-1.2,1.3c-5,4.7-9.6,9.9-14.6,14.6c-0.5,0.4-1,0.9-1.3,1.5c-0.3,0.6-0.6,1.2-0.6,1.9c-0.1,0.7,0,1.3,0.2,2
	c0.2,0.6,0.5,1.2,0.9,1.7c5.7,10.4,13.7,19.3,23.2,26.3C205.9,313.2,206.7,313.8,208.1,315z"/>
<path class="st1" d="M184.9,208.1c-5.7-7.6-11.1-14.6-16.5-21.8c-2.7-3.6-5.3-7.4-8-11c-0.3-0.3-0.6-0.6-0.7-1
	c-0.2-0.4-0.3-0.8-0.3-1.2c0-0.4,0.1-0.8,0.3-1.2c0.2-0.4,0.4-0.7,0.7-1c16.6-18.7,38.6-31.7,63-37.2c16.1-3.8,32.9-4.1,49.1-0.9
	c12.2,2.4,24,6.6,34.9,12.6c0.7,0.5,1.3,1,1.9,1.6c-4.9,3.6-9.6,7-14.3,10.4c-18.3,13-36.6,26-54.7,39.1c-2.5,1.8-3.9,1.8-6.2-0.5
	c-4.5-4.7-9.3-9-13.8-13.7c-0.7-0.9-1.6-1.4-2.7-1.6c-1.1-0.1-2.2,0.1-3.1,0.8c-10.4,5.5-19.4,13.2-26.4,22.6
	C187.3,205.2,186.3,206.3,184.9,208.1z"/>
<path class="st1" d="M291.8,185c7.4-5.6,14.4-11,21.4-16.2c3.9-2.8,7.8-5.4,11.3-8.3c1.6-1.2,2.7-1.4,4.3,0
	c17.1,15,29.5,34.5,35.8,56.4c3.7,12.3,5.4,25.1,4.8,38c-0.9,18.2-5.9,35.9-14.6,51.9c0,0.3-0.5,0.5-1.2,1.2
	c-3.2-4.3-6.5-8.4-9.6-12.6c-13.2-17.5-26.4-35-39.6-52.5c-4.4-5.8-3.6-4.5,0.4-8.7c3.9-4.2,8.5-9.1,13-13.4
	c0.9-0.7,1.5-1.8,1.6-2.9c0.1-1.2-0.2-2.3-0.9-3.2c-5.6-10.5-13.4-19.6-22.9-26.6L291.8,185z"/>
</svg>
