<?xml version="1.0" encoding="iso-8859-1"?>
<!-- Generator: Adobe Illustrator 19.0.0, SVG Export Plug-In . SVG Version: 6.00 Build 0)  -->
<svg version="1.1" id="Layer_1" xmlns="http://www.w3.org/2000/svg" xmlns:xlink="http://www.w3.org/1999/xlink" x="0px" y="0px"
	 viewBox="0 0 500 500" style="enable-background:new 0 0 500 500;" xml:space="preserve">
<path style="fill:#0050DB;" d="M22.769,248.645c0-24.675-0.116-49.35,0.032-74.024c0.153-25.404,7.57-48.341,25.533-66.746
	c7.004-7.176,15.278-13.522,23.938-18.603c42.679-25.04,85.773-49.372,128.52-74.298c15.003-8.748,30.983-13.829,48.156-13.971
	c15.951-0.132,31.342,3.46,45.352,11.596c47.506,27.585,95.483,54.405,142.285,83.137c24.227,14.873,37.891,38.793,38.604,67.368
	c1.365,54.766,1.773,109.591,0.902,164.365c-0.558,35.096-17.666,62.038-48.151,79.815c-43.396,25.306-87.017,50.226-130.425,75.511
	c-14.845,8.647-30.848,13.182-47.787,13.205c-16.937,0.023-32.968-4.447-47.814-13.087c-43.583-25.363-87.333-50.437-130.93-75.777
	c-25.534-14.841-41.235-36.862-46.656-65.955c-1.027-5.511-1.458-11.203-1.493-16.816C22.682,299.126,22.769,273.885,22.769,248.645
	z M231.849,114.441c-0.146,3.168-0.367,5.761-0.369,8.355c-0.022,36.738,0.004,73.475-0.018,110.213
	c-0.016,26.94,0.085,53.882-0.201,80.819c-0.151,14.221-7.452,24.442-20.254,29.971c-12.453,5.379-24.602,4.006-35.465-4.776
	c-0.975-0.788-2.131-1.352-2.484-1.572c-8.496,8.593-16.63,16.818-24.888,25.17c-0.101-0.196,0.01,0.189,0.252,0.454
	c0.632,0.696,1.296,1.368,1.992,2c17.293,15.686,37.68,20.564,60.254,16.506c29.786-5.354,53.451-31.241,56.298-61.283
	c0.846-8.926,0.982-17.919,1.456-27.142c30.482,12.662,58.692,11.679,83.3-11.95c-8.931-8.866-17.157-17.032-25.61-25.424
	c-0.608,0.459-1.665,1.208-2.669,2.023c-9.07,7.373-19.53,8.689-30.372,5.947c-14.944-3.78-24.985-16.844-25.053-32.289
	c-0.162-36.548-0.063-73.098-0.097-109.647c-0.002-2.374-0.236-4.748-0.375-7.374C255.509,114.441,244.081,114.441,231.849,114.441z
	"/>
<path style="fill:#FFFFFF;" d="M231.849,114.441c12.232,0,23.661,0,35.7,0c0.139,2.626,0.373,5,0.375,7.374
	c0.034,36.549-0.065,73.099,0.097,109.647c0.068,15.445,10.11,28.509,25.053,32.289c10.841,2.742,21.302,1.427,30.372-5.947
	c1.003-0.816,2.061-1.564,2.669-2.023c8.453,8.392,16.679,16.558,25.61,25.424c-24.608,23.629-52.819,24.612-83.3,11.95
	c-0.475,9.223-0.61,18.216-1.456,27.142c-2.848,30.042-26.513,55.928-56.298,61.283c-22.574,4.058-42.962-0.82-60.254-16.506
	c-0.696-0.632-1.36-1.304-1.992-2c-0.242-0.266-0.353-0.65-0.252-0.454c8.259-8.352,16.392-16.577,24.888-25.17
	c0.353,0.22,1.509,0.784,2.484,1.572c10.863,8.782,23.011,10.155,35.465,4.776c12.802-5.53,20.103-15.75,20.254-29.971
	c0.285-26.937,0.184-53.879,0.201-80.819c0.022-36.738-0.004-73.475,0.018-110.213C231.482,120.202,231.703,117.608,231.849,114.441
	z"/>
</svg>
