<?xml version="1.0" encoding="utf-8"?>
<!-- Generator: Adobe Illustrator 24.2.2, SVG Export Plug-In . SVG Version: 6.00 Build 0)  -->
<svg version="1.1" id="Layer_1" xmlns="http://www.w3.org/2000/svg" xmlns:xlink="http://www.w3.org/1999/xlink" x="0px" y="0px"
	 viewBox="0 0 500 500" style="enable-background:new 0 0 500 500;" xml:space="preserve">
<style type="text/css">
	.st0{fill:#B21514;}
	.st1{fill:#FFFFFF;}
</style>
<circle class="st0" cx="249.1" cy="249.1" r="246.9"/>
<circle class="st1" cx="248.1" cy="148.3" r="32.9"/>
<circle class="st1" cx="248.1" cy="376.2" r="32.9"/>
<rect x="112.1" y="276.9" class="st1" width="269.5" height="44"/>
<path class="st1" d="M341.1,114.8c0,0.1,0,0.3,0,0.4c0,51.7-42.1,93.7-93.7,93.7c-51.7,0-93.7-42.1-93.7-93.7c0-0.1,0-0.3,0-0.4h-43
	c0,0.1,0,0.3,0,0.4c0,75.4,61.3,136.7,136.7,136.7s136.7-61.3,136.7-136.7c0-0.1,0-0.3,0-0.4H341.1z"/>
</svg>
