<?xml version="1.0" encoding="utf-8"?>
<!-- Generator: Adobe Illustrator 26.0.3, SVG Export Plug-In . SVG Version: 6.00 Build 0)  -->
<svg version="1.1" id="juno" xmlns="http://www.w3.org/2000/svg" xmlns:xlink="http://www.w3.org/1999/xlink" x="0px" y="0px"
	 viewBox="0 0 500 500" style="enable-background:new 0 0 500 500;" xml:space="preserve">
<style type="text/css">
	.st0{fill:#FFFFFF;}
	.st1{stroke:#FFFFFF;stroke-width:9.7927;}
	.st2{fill-rule:evenodd;clip-rule:evenodd;fill:#FFFFFF;}
	.st3{fill:none;stroke:#F0827D;stroke-width:5.6256;}
</style>
<path class="st0" d="M249.7,497C388,497,500,386.2,500,249.5C500,112.8,388,2,249.7,2C111.5,2-0.5,112.8-0.5,249.5
	C-0.5,386.2,111.5,497,249.7,497z"/>
<path class="st1" d="M495.1,249.6c0,135.5-109.9,245.4-245.4,245.4C114.2,494.9,4.4,385.1,4.4,249.6C4.4,114.1,114.2,4.2,249.7,4.2
	C385.3,4.2,495.1,114.1,495.1,249.6z"/>
<path class="st2" d="M257.9,150.9c0-4.7-3.6-8.6-8-8.6c0,0,0,0,0,0c-4.4,0-8,3.8-8,8.6c0,34.5,0,163.1,0,197.6c0,4.7,3.6,8.6,8,8.6
	c0,0,0,0,0,0c4.4,0,8-3.8,8-8.6C257.9,314,257.9,185.4,257.9,150.9z"/>
<path class="st2" d="M225.7,313.7c-4.4,0-8,3.8-8,8.5c0,0,0,0,0,0c0,4.7,3.6,8.6,8,8.6c12.3,0,35.6,0,47.9,0c4.4,0,8-3.8,8-8.5
	c0,0,0,0,0,0c0-4.7-3.6-8.6-8-8.6C261.3,313.7,238,313.7,225.7,313.7z"/>
<path class="st2" d="M186.2,201.8c-4.4,0-8,3.8-8,8.5c0,0,0,0,0,0c0,4.7,3.6,8.6,8,8.6c25.1,0,102,0.1,127,0.1c4.4,0,8-3.8,8-8.5
	c0,0,0,0,0,0c0-4.7-3.6-8.6-8-8.6C288.2,201.9,211.3,201.8,186.2,201.8z"/>
<path class="st2" d="M212.6,158.5c-3.1-3.3-8.2-3.3-11.3,0c0,0,0,0,0,0c-3.1,3.3-3.1,8.8,0,12.1c17.2,18.4,68.7,73.5,85.9,91.9
	c3.1,3.3,8.2,3.3,11.3,0c0,0,0,0,0,0c3.1-3.3,3.1-8.8,0-12.1C281.3,232,229.7,176.9,212.6,158.5z"/>
<path class="st2" d="M201.4,250.6c-3.1,3.3-3.1,8.8,0,12.1c0,0,0,0,0,0c3.1,3.3,8.2,3.3,11.3,0c17.1-18.4,68.5-73.7,85.7-92.1
	c3.1-3.3,3.1-8.8,0-12.1c0,0,0,0,0,0c-3.1-3.3-8.2-3.3-11.3,0C269.9,176.8,218.5,232.1,201.4,250.6z"/>
<path class="st3" d="M249.7,469.8c121.6,0,220.2-98.6,220.2-220.2S371.4,29.4,249.7,29.4S29.5,128,29.5,249.6
	S128.1,469.8,249.7,469.8z"/>
</svg>
