<svg width="24" height="24" viewBox="0 0 24 24" fill="currentColor" xmlns="http://www.w3.org/2000/svg">
<path fill-rule="evenodd" clip-rule="evenodd" d="M20.7189 2.38457C21.0588 2.72808 21.0559 3.28209 20.7124 3.62199L19.5348 4.78712L21.6154 6.84581C21.7815 7.01016 21.875 7.23412 21.875 7.46779C21.875 7.70146 21.7815 7.92543 21.6154 8.08978L18.4547 11.2172C18.1137 11.5546 17.5648 11.5546 17.2238 11.2172L15.13 9.14551L12.618 11.6311C12.8976 12.0038 13.1317 12.4095 13.3145 12.8399C13.6137 13.5446 13.7691 14.3011 13.7717 15.066C13.7743 15.8309 13.624 16.5885 13.3296 17.2951C13.0352 18.0017 12.6027 18.6431 12.0574 19.1825C11.5122 19.722 10.865 20.149 10.1534 20.4392C9.44179 20.7295 8.67949 20.8775 7.91032 20.875C7.14114 20.8724 6.37985 20.7194 5.67021 20.4244C4.96054 20.1294 4.31625 19.6981 3.77468 19.155L3.76808 19.1484C2.70286 18.0571 2.11186 16.5936 2.12522 15.0726C2.13858 13.5516 2.75521 12.0986 3.83934 11.0259C4.92317 9.95346 6.38742 9.34678 7.91623 9.33363C9.15735 9.32296 10.3628 9.70414 11.3623 10.4117L19.4815 2.37801C19.825 2.03812 20.379 2.04105 20.7189 2.38457ZM10.8377 12.2434C10.8293 12.2359 10.8211 12.2284 10.8129 12.2206C10.0418 11.4836 9.00709 11.0743 7.93127 11.0836C6.85546 11.0928 5.82819 11.5198 5.07021 12.2698C4.31253 13.0195 3.88443 14.0318 3.87515 15.088C3.86589 16.1426 4.27492 17.1605 5.01716 17.9227C5.39508 18.3008 5.84518 18.6019 6.34193 18.8084C6.84015 19.0155 7.37517 19.1232 7.91612 19.125C8.45707 19.1268 8.99282 19.0227 9.49244 18.8189C9.99205 18.6151 10.4454 18.3157 10.8266 17.9386C11.2077 17.5614 11.5092 17.1139 11.7142 16.622C11.9191 16.1302 12.0235 15.6034 12.0217 15.0719C12.0199 14.5405 11.9119 14.0144 11.7037 13.5239C11.501 13.0465 11.2071 12.6116 10.8377 12.2434ZM16.3741 7.91457L17.8392 9.36431L19.756 7.46779L18.2908 6.01805L16.3741 7.91457Z" />
</svg>
