<svg viewBox="0 0 24 24" xmlns="http://www.w3.org/2000/svg" aria-hidden="true" data-testid="test-icon"><path d="M15.13 7.915l3.16-3.128M20.098 3L18.29 4.787 20.097 3zm-8.679 8.587c.467.455.837.997 1.091 1.595a4.87 4.87 0 01-1.067 5.379 4.97 4.97 0 01-1.62 1.068 5.013 5.013 0 01-5.428-1.092A4.887 4.887 0 013 15.08a4.889 4.889 0 011.455-3.432 4.994 4.994 0 013.469-1.44 4.996 4.996 0 013.494 1.38h0zm0 0l3.712-3.672-3.712 3.672zm3.712-3.672l2.71 2.68L21 7.468l-2.71-2.68-3.16 3.127z" fill="none" stroke-linecap="round" stroke-linejoin="round" stroke-width="1.75" stroke="currentColor"/></svg>
