<?xml version="1.0" encoding="iso-8859-1"?>
<!-- Generator: Adobe Illustrator 19.0.0, SVG Export Plug-In . SVG Version: 6.00 Build 0)  -->
<svg version="1.1" id="Layer_1" xmlns="http://www.w3.org/2000/svg" xmlns:xlink="http://www.w3.org/1999/xlink" x="0px" y="0px"
	 viewBox="0 0 500 500" style="enable-background:new 0 0 500 500;" xml:space="preserve">
<linearGradient id="SVGID_1_" gradientUnits="userSpaceOnUse" x1="3.995" y1="248.5775" x2="497.21" y2="248.5775">
	<stop  offset="0" style="stop-color:#27BAE3"/>
	<stop  offset="1" style="stop-color:#5C469B"/>
</linearGradient>
<path style="fill:url(#SVGID_1_);" d="M497.21,247.957c-0.011,136.856-110.76,247.337-247.796,247.198
	C113.803,495.017,3.932,384.296,3.995,247.836C4.058,111.547,114.539,1.924,251.759,2C387.484,2.075,497.221,112.038,497.21,247.957
	z M267.563,459.505c65.738-0.869,138.414-48.773,171.098-113.315c31.722-62.641,31.866-126.064,2.998-190.705
	c-40.69,23.176-80.269,45.718-121.114,68.982c20.096,10.818,38.517,20.555,56.755,30.622c9.792,5.405,12.848,14.786,8.289,23.512
	c-4.572,8.752-14.261,11.72-23.991,6.597c-28.107-14.798-56.242-29.566-83.891-45.185c-4.512-2.549-9.282-9.297-9.402-14.215
	c-0.814-33.383-0.67-66.799-0.259-100.198c0.136-11.043,10.144-17.996,20.776-15.78c8.503,1.772,13.4,8.675,13.453,19.582
	c0.103,21.416,0.03,42.834,0.03,65.982c41.327-23.517,81.245-46.232,121.179-68.956C391.637,72.65,314.459,33.113,245.882,35.453
	c-70.906,2.42-127.202,32.741-170.547,90.232c41.333,23.494,81.509,46.329,122.909,69.861c0-4.01-0.001-5.914,0-7.817
	c0.015-20.556-0.163-41.115,0.136-61.667c0.132-9.098,6.193-15.404,14.537-16.426c8.626-1.056,16.298,3.68,18.465,11.906
	c0.884,3.355,0.949,6.983,0.997,10.492c0.421,30.487,0.721,60.975,1.134,91.462c0.109,8.074-4.097,13.162-10.825,16.759
	c-27.165,14.52-54.303,29.088-81.478,43.589c-11.823,6.309-21.66,4.358-26.639-5.138c-4.883-9.312-0.945-18.61,10.729-24.943
	c17.75-9.629,35.549-19.166,54.539-29.395c-41.045-23.294-81.057-46.001-121.092-68.722c-29.663,55.639-32.265,137.815,9.77,204.167
	c37.951,59.904,92.845,92.742,163.32,100.611c0-49.19,0-97.105,0-146.245c-19.654,11.337-37.947,21.965-56.318,32.455
	c-11.003,6.283-20.731,4.548-25.997-4.385c-5.321-9.026-2.167-18.567,8.613-24.877c27.14-15.887,54.145-32.034,81.763-47.05
	c4.957-2.695,14.044-2.926,18.739-0.126c27.831,16.596,55.014,34.292,82.228,51.907c8.759,5.669,10.768,15.417,5.768,23.505
	c-5.102,8.252-15.131,10.577-24.487,4.867c-15.889-9.697-31.468-19.9-47.211-29.837c-2.288-1.444-4.762-2.593-7.373-3.999
	C267.563,364.845,267.563,412.174,267.563,459.505z"/>
</svg>
