<?xml version="1.0" encoding="iso-8859-1"?>
<!-- Generator: Adobe Illustrator 19.0.0, SVG Export Plug-In . SVG Version: 6.00 Build 0)  -->
<svg version="1.1" id="kin" xmlns:serif="http://www.serif.com/"
	 xmlns="http://www.w3.org/2000/svg" xmlns:xlink="http://www.w3.org/1999/xlink" x="0px" y="0px" viewBox="0 0 500 500"
	 style="enable-background:new 0 0 500 500;" xml:space="preserve">
<g id="kin_1_">
	<g id="kin_2_">
		<path id="path0_fill" style="fill:#005FFF;" d="M331.91,189.895h-22.72v-22.72c0-7.873,6.386-14.259,14.259-14.259h8.461
			c7.873,0,14.259,6.386,14.259,14.259v8.464C346.169,183.512,339.783,189.895,331.91,189.895L331.91,189.895z"/>
		<path id="path1_fill" style="fill:#005FFF;" d="M198.253,189.895h-22.72c-7.873,0-14.259-6.383-14.259-14.255v-8.464
			c0-7.873,6.386-14.259,14.259-14.259h8.461c7.873,0,14.259,6.386,14.259,14.259L198.253,189.895L198.253,189.895z"/>
		<path id="path2_fill" style="fill:#005FFF;" d="M175.533,341.508c-7.873,0-14.259-6.383-14.259-14.255v-8.464
			c0-7.873,6.386-14.259,14.259-14.259h22.72v22.724c0,7.873-6.386,14.255-14.259,14.255L175.533,341.508L175.533,341.508z"/>
		<path id="path3_fill" style="fill:#005FFF;" d="M323.449,341.508c-7.873,0-14.259-6.383-14.259-14.255v-22.724h22.72
			c7.873,0,14.259,6.386,14.259,14.259v8.464c0,7.873-6.386,14.255-14.259,14.255L323.449,341.508L323.449,341.508z"/>
		<path id="path4_fill" style="fill:#00CCEE;" d="M249.491,156.614c-7.873,0-14.259-6.386-14.259-14.259v-8.464
			c0-7.873,6.386-14.255,14.259-14.255h8.461c7.873,0,14.259,6.383,14.259,14.255v8.464c0,7.873-6.386,14.259-14.259,14.259H249.491
			z"/>
		<path id="path5_fill" style="fill:#00CCEE;" d="M249.491,382.185c-7.873,0-14.259-6.383-14.259-14.255v-8.464
			c0-7.873,6.386-14.259,14.259-14.259h8.461c7.873,0,14.259,6.386,14.259,14.259v8.464c0,7.873-6.386,14.255-14.259,14.255H249.491
			z"/>
		<path id="path6_fill" style="fill:#00CCEE;" d="M360.428,267.551c-7.876,0-14.259-6.383-14.259-14.255v-8.464
			c0-7.873,6.383-14.259,14.259-14.259h8.461c7.873,0,14.259,6.386,14.259,14.259v8.464c0,7.873-6.386,14.255-14.259,14.255H360.428
			z"/>
		<path id="path6_fill1" serif:id="path6_fill" style="fill:#00CCEE;" d="M134.857,267.551c-7.877,0-14.259-6.383-14.259-14.255
			v-8.464c0-7.873,6.383-14.259,14.259-14.259h8.461c7.873,0,14.259,6.386,14.259,14.259v8.464c0,7.873-6.386,14.255-14.259,14.255
			H134.857L134.857,267.551z"/>
		<path id="path7_fill" style="fill:#003EC5;" d="M298.943,231.977c5.658,0,10.247-4.637,10.247-10.358v-28.026h-28.226
			c-5.658,0-10.251,4.633-10.251,10.354l0.004,9.211c-0.004,10.395-7.817,19.34-18.105,19.34c-10.284,0-19.14-8.945-19.14-19.34
			v-9.585c0-5.514-4.423-9.981-9.881-9.981h-25.338v114.635h25.131c5.573,0,10.088-4.563,10.088-10.188v-8.631
			c0-10.949,7.991-20.142,18.279-20.142c10.284,0.037,18.966,8.808,18.966,19.199l-0.004,9.489
			c0.004,5.673,4.556,10.273,10.169,10.273h28.307v-28.344c0-5.669-4.552-10.269-10.169-10.269h-8.453
			c-10.288,0-19.85-8.424-19.85-18.819c0.037-10.395,8.372-18.819,18.66-18.819h9.563L298.943,231.977z"/>
		<path id="path8_fill" style="fill:#0054FF;" d="M309.785,383.173c6.601-2.733,14.17,0.403,16.903,7.004
			c2.74,6.604-0.399,14.17-7,16.907c-6.601,2.733-14.17-0.399-16.907-7.004C300.049,393.475,303.185,385.909,309.785,383.173z"/>
		<path id="path9_fill" style="fill:#0054FF;" d="M191.453,94.737c6.601-2.733,14.174,0.403,16.907,7.004
			c2.733,6.604-0.403,14.17-7.004,16.907c-6.604,2.733-14.174-0.399-16.907-7.004C181.716,105.039,184.852,97.473,191.453,94.737z"
			/>
		<path id="path10_fill" style="fill:#0044FF;" d="M384.135,196.695c-2.733-6.604,0.403-14.17,7.004-16.907
			c6.604-2.733,14.167,0.403,16.907,7.004c2.733,6.604-0.403,14.174-7.004,16.907C394.438,206.432,386.868,203.3,384.135,196.695z"
			/>
		<path id="path11_fill" style="fill:#0054FF;" d="M99.397,315.028c-2.733-6.601,0.403-14.17,7.004-16.903
			c6.604-2.74,14.167,0.399,16.907,7c2.733,6.601-0.403,14.174-7.004,16.907C109.7,324.764,102.13,321.632,99.397,315.028
			L99.397,315.028z"/>
		<path id="path12_fill" style="fill:#002DAE;" d="M99.397,186.792c2.74-6.601,10.302-9.737,16.907-7.004
			c6.601,2.736,9.737,10.306,7.004,16.907c-2.74,6.604-10.302,9.737-16.907,7.004C99.801,200.966,96.665,193.397,99.397,186.792z"/>
		<path id="path13_fill" style="fill:#002DAE;" d="M306.088,118.647c-6.601-2.736-9.737-10.302-7.004-16.907
			c2.733-6.601,10.302-9.737,16.907-7.004c6.601,2.736,9.737,10.302,7.004,16.907C320.262,118.248,312.688,121.38,306.088,118.647z"
			/>
		<path id="path14_fill" style="fill:#00CCEE;" d="M384.135,305.125c2.74-6.601,10.306-9.74,16.907-7
			c6.601,2.733,9.737,10.302,7.004,16.903c-2.733,6.604-10.302,9.737-16.907,7.004C384.538,319.299,381.403,311.726,384.135,305.125
			z"/>
		<path id="path15_fill" style="fill:#0081E9;" d="M184.057,410.781c-6.601-2.736-9.74-10.302-7-16.907
			c2.733-6.601,10.302-9.737,16.903-7.004c6.601,2.736,9.737,10.302,7.004,16.907C198.227,410.382,190.658,413.514,184.057,410.781z
			"/>
		<path id="path16_fill" style="fill:#002DAE;" d="M374.221,373.259c2.892-2.888,7.57-2.888,10.458,0
			c2.888,2.888,2.888,7.57,0,10.458c-2.888,2.888-7.566,2.888-10.458,0C371.333,380.828,371.333,376.147,374.221,373.259z"/>
		<path id="path17_fill" style="fill:#0099C0;" d="M122.764,118.104c2.888-2.888,7.57-2.888,10.458,0s2.888,7.57,0,10.458
			c-2.888,2.888-7.57,2.888-10.458,0C119.876,125.673,119.876,120.992,122.764,118.104z"/>
		<path id="path18_fill" style="fill:#0099C0;" d="M374.221,128.561c-2.888-2.888-2.888-7.57,0-10.458
			c2.892-2.888,7.57-2.888,10.458,0c2.888,2.888,2.888,7.57,0,10.458C381.791,131.45,377.113,131.45,374.221,128.561z"/>
		<path id="path19_fill" style="fill:#0099C0;" d="M122.764,383.716c-2.888-2.888-2.888-7.57,0-10.458
			c2.888-2.888,7.57-2.888,10.458,0c2.888,2.888,2.888,7.57,0,10.458C130.334,386.604,125.652,386.604,122.764,383.716z"/>
		<path id="path20_fill" style="fill:#0099C0;" d="M427.523,249.065c0-4.086,3.313-7.399,7.392-7.399
			c4.086,0,7.399,3.313,7.399,7.399c0,4.079-3.313,7.392-7.399,7.392C430.836,256.457,427.523,253.144,427.523,249.065z"/>
		<path id="path21_fill" style="fill:#0099C0;" d="M68.827,249.065c0-4.086,3.31-7.399,7.396-7.399c4.082,0,7.396,3.313,7.396,7.399
			c0,4.079-3.313,7.392-7.396,7.392C72.137,256.457,68.827,253.144,68.827,249.065z"/>
		<path id="path22_fill" style="fill:#0099C0;" d="M253.725,78.958c-4.086,0-7.399-3.31-7.399-7.396
			c0-4.086,3.313-7.396,7.399-7.396c4.079,0,7.392,3.31,7.392,7.396C261.117,75.648,257.804,78.958,253.725,78.958z"/>
		<path id="path23_fill" style="fill:#83FFEE;" d="M253.725,437.654c-4.086,0-7.399-3.313-7.399-7.396
			c0-4.086,3.313-7.396,7.399-7.396c4.079,0,7.392,3.31,7.392,7.396C261.117,434.34,257.804,437.654,253.725,437.654z"/>
		<path id="path24_fill" style="fill:#005FFF;" d="M482.991,249.061c0,4.079,3.317,7.396,7.396,7.396s7.396-3.317,7.396-7.396
			s-3.317-7.396-7.396-7.396S482.991,244.982,482.991,249.061z"/>
		<path id="path25_fill" style="fill:#005FFF;" d="M7.812,245.363c-3.058,0-5.547,2.485-5.547,5.547
			c0,3.062,2.489,5.547,5.547,5.547c3.062,0,5.547-2.485,5.547-5.547C13.359,247.848,10.874,245.363,7.812,245.363z"/>
		<path id="path24_fill1" serif:id="path24_fill" style="fill:#00CCEE;" d="M242.628,12.396c0,4.079,3.317,7.396,7.396,7.396
			s7.396-3.317,7.396-7.396S254.103,5,250.024,5S242.628,8.317,242.628,12.396z"/>
		<path id="path26_fill" style="fill:#00CCEE;" d="M461.677,337.197c-2.378,5.632,0.274,12.155,5.906,14.533
			c1.405,0.592,2.866,0.873,4.301,0.873c4.33,0,8.45-2.544,10.236-6.775c2.378-5.639-0.27-12.155-5.906-14.536
			C470.574,328.906,464.054,331.561,461.677,337.197L461.677,337.197z"/>
		<path id="path27_fill" style="fill:#00CCEE;" d="M341.647,456.727c-0.921-0.388-1.893-0.584-2.87-0.584
			c-0.943,0-1.886,0.185-2.785,0.547c-1.83,0.743-3.262,2.156-4.031,3.975c-0.765,1.816-0.78,3.824-0.037,5.654
			c0.743,1.83,2.156,3.262,3.975,4.027c1.816,0.769,3.82,0.788,5.654,0.041c1.83-0.743,3.262-2.152,4.031-3.975
			c0.765-1.816,0.78-3.824,0.037-5.654C344.879,458.931,343.47,457.5,341.647,456.727L341.647,456.727z"/>
		<path id="path28_fill" style="fill:#00CCEE;" d="M34.721,149.802c-0.924-0.388-1.897-0.584-2.877-0.584
			c-0.936,0-1.879,0.185-2.777,0.547c-1.834,0.743-3.265,2.156-4.031,3.975c-0.765,1.816-0.78,3.827-0.037,5.654
			c0.743,1.83,2.152,3.262,3.975,4.027c1.816,0.769,3.824,0.784,5.654,0.037c1.83-0.743,3.262-2.152,4.031-3.972
			c0.765-1.816,0.78-3.827,0.037-5.654C37.953,152.002,36.541,150.575,34.721,149.802L34.721,149.802z"/>
		<path id="path29_fill" style="fill:#83FFEE;" d="M14.087,339.763c1.986-4.704,7.407-6.904,12.111-4.922
			c4.704,1.986,6.904,7.407,4.922,12.111c-1.986,4.704-7.407,6.904-12.111,4.922C14.305,349.888,12.105,344.463,14.087,339.763z"/>
		<path id="path30_fill" style="fill:#83FFEE;" d="M337.028,33.855c-4.704-1.986-6.904-7.407-4.922-12.111
			c1.986-4.704,7.407-6.904,12.111-4.922c4.704,1.986,6.904,7.407,4.922,12.111C347.153,33.636,341.728,35.837,337.028,33.855z"/>
		<path id="path31_fill" style="fill:#83FFEE;" d="M475.359,145.93c-1.372,0.558-2.448,1.616-3.021,2.98
			c-0.577,1.365-0.588,2.873-0.03,4.245c0.558,1.368,1.616,2.444,2.98,3.017c1.365,0.577,2.873,0.588,4.242,0.03
			c1.372-0.558,2.448-1.612,3.025-2.977c1.187-2.818-0.137-6.076-2.951-7.266c-0.695-0.296-1.424-0.44-2.156-0.44
			C476.742,145.52,476.032,145.657,475.359,145.93L475.359,145.93z"/>
		<path id="path32_fill" style="fill:#005FFF;" d="M150.617,26.877c-1.191,2.818,0.133,6.076,2.951,7.266
			c1.368,0.581,2.877,0.584,4.245,0.03c1.372-0.558,2.448-1.62,3.025-2.984c1.191-2.818-0.137-6.072-2.955-7.259
			c-0.703-0.3-1.431-0.44-2.148-0.44C153.568,23.489,151.508,24.762,150.617,26.877z"/>
		<path id="path33_fill" style="fill:#50E7F0;" d="M152.037,463.539c-2.163,0-4.223,1.272-5.118,3.391
			c-1.191,2.814,0.137,6.076,2.955,7.266c2.818,1.191,6.079-0.137,7.266-2.955c1.191-2.814-0.133-6.076-2.951-7.263
			C153.487,463.679,152.758,463.539,152.037,463.539L152.037,463.539z"/>
		<path id="path34_fill" style="fill:#50E7F0;" d="M414.266,424.397c2.884-2.888,2.884-7.577,0-10.458
			c-1.398-1.401-3.258-2.171-5.233-2.171c-1.978,0-3.835,0.769-5.233,2.171c-2.884,2.881-2.884,7.57,0,10.458
			C406.685,427.281,411.374,427.285,414.266,424.397z"/>
		<path id="path35_fill" style="fill:#50E7F0;" d="M68.372,74.809c-4.323,4.327-4.323,11.371,0,15.694
			c2.167,2.163,5.007,3.247,7.851,3.247c2.844,0,5.684-1.083,7.851-3.247c4.323-4.323,4.323-11.367,0-15.694
			C79.743,70.479,72.699,70.479,68.372,74.809z"/>
		<path id="path36_fill" style="fill:#50E7F0;" d="M418.056,76.883c-1.05,1.05-1.627,2.441-1.627,3.923
			c0,1.483,0.577,2.877,1.627,3.92c2.16,2.171,5.684,2.167,7.843,0.004c2.163-2.163,2.163-5.684,0.004-7.847
			c-1.083-1.083-2.503-1.623-3.923-1.623C420.556,75.26,419.136,75.8,418.056,76.883L418.056,76.883z"/>
		<path id="path37_fill" style="fill:#00CCEE;" d="M70.45,413.395c-2.163,2.16-2.163,5.684-0.004,7.843
			c2.167,2.167,5.691,2.163,7.851,0c2.163-2.16,2.163-5.684,0-7.843c-1.047-1.05-2.441-1.627-3.923-1.627
			C72.891,411.768,71.501,412.345,70.45,413.395z"/>
		<path id="path24_fill1_1_" serif:id="path24_fill" style="fill:#00CCEE;" d="M246.326,484.737c0,4.079,3.317,7.396,7.396,7.396
			s7.396-3.317,7.396-7.396s-3.317-7.396-7.396-7.396S246.326,480.658,246.326,484.737z"/>
	</g>
</g>
</svg>
