<?xml version="1.0" encoding="utf-8"?>
<!-- Generator: Adobe Illustrator 25.2.0, SVG Export Plug-In . SVG Version: 6.00 Build 0)  -->
<svg version="1.1" id="klv" xmlns="http://www.w3.org/2000/svg" xmlns:xlink="http://www.w3.org/1999/xlink" x="0px" y="0px"
	 viewBox="0 0 500 500" style="enable-background:new 0 0 500 500;" xml:space="preserve">
<style type="text/css">
	.st0{fill:#FFFFFF;}
	.st1{fill:url(#SVGID_1_);}
	.st2{fill:url(#SVGID_2_);}
	.st3{opacity:0.14;fill:url(#SVGID_3_);enable-background:new    ;}
</style>
<path class="st0" d="M500,434.4c0,36.2-29.3,65.5-65.5,65.5H65.8c-36.2,0-65.5-29.3-65.5-65.5V65.6c0-36.2,29.3-65.5,65.5-65.5
	h368.7c36.2,0,65.5,29.3,65.5,65.5C500,65.6,500,434.4,500,434.4z"/>
<linearGradient id="SVGID_1_" gradientUnits="userSpaceOnUse" x1="336.3032" y1="-46.2221" x2="336.3032" y2="125.4877" gradientTransform="matrix(1 0 0 1 0 295.446)">
	<stop  offset="0" style="stop-color:#FF4681"/>
	<stop  offset="1" style="stop-color:#9B44F6"/>
</linearGradient>
<path class="st1" d="M422.5,420.6H250.1L422.5,250V420.6z"/>
<linearGradient id="SVGID_2_" gradientUnits="userSpaceOnUse" x1="-2.1295" y1="-127.9906" x2="341.3238" y2="215.4459" gradientTransform="matrix(1 0 0 1 0 295.446)">
	<stop  offset="0" style="stop-color:#FF4681"/>
	<stop  offset="0.739" style="stop-color:#9B44F6"/>
</linearGradient>
<path class="st2" d="M422.5,420.6H79.6V77.7L422.5,420.6z"/>
<linearGradient id="SVGID_3_" gradientUnits="userSpaceOnUse" x1="-257.5878" y1="-225.7014" x2="-216.3533" y2="-184.4848" gradientTransform="matrix(0.8685 1.214 -0.8089 0.5787 419.0285 777.7738)">
	<stop  offset="0" style="stop-color:#000000"/>
	<stop  offset="1" style="stop-color:#000000"/>
</linearGradient>
<path class="st3" d="M422.5,422.3l-86.2-86.2l15.5-13.8L422.5,422.3z"/>
</svg>
