<?xml version="1.0" encoding="utf-8"?>
<!-- Generator: Adobe Illustrator 25.0.1, SVG Export Plug-In . SVG Version: 6.00 Build 0)  -->
<svg version="1.1" id="ksm" xmlns="http://www.w3.org/2000/svg" xmlns:xlink="http://www.w3.org/1999/xlink" x="0px" y="0px"
	 viewBox="0 0 500 500" style="enable-background:new 0 0 500 500;" xml:space="preserve">
<style type="text/css">
	.st0{stroke:#000000;stroke-width:1.1338;stroke-miterlimit:11.3379;}
	.st1{fill:#FFFFFF;}
</style>
<rect x="0.6" y="0.6" class="st0" width="498.9" height="498.9"/>
<path class="st1" d="M423.6,144.4c-5.9-4.6-12.9-11-25.7-12.6c-12-1.6-24.3,6.5-32.5,11.8c-8.3,5.3-23.9,21-30.4,25.7
	s-23,9.2-49.7,25.2s-131.2,83.1-131.2,83.1l27.2,0.3L60,340.5h12.1l-17.5,13.3c0,0,15.4,4.1,28.3-4.1v3.7c0,0,144.4-56.9,172.3-42.2
	l-17,5c1.5,0,28.9,1.8,28.9,1.8c1.3,11.5,7.7,21.8,17.5,28.1c16.6,10.9,16.9,16.9,16.9,16.9s-8.6,3.5-8.6,7.9c0,0,12.7-3.9,24.5-3.5
	c7.5,0.3,14.9,1.5,22.1,3.5c0,0-0.9-4.8-12.4-7.9c-11.5-3.2-22.8-15.6-28.3-22.4c-6.9-8.8-8.7-20.6-4.6-31.1
	c4-10.3,17.8-16,46.4-30.7c33.7-17.5,41.4-30.4,46.1-40.5c4.8-10.1,11.8-30.2,15.8-39.6c5-12.1,11.1-18.6,16.2-22.4
	c5.1-3.9,27.8-12.4,27.8-12.4S429.1,148.9,423.6,144.4z"/>
</svg>
