<?xml version="1.0" encoding="iso-8859-1"?>
<!-- Generator: Adobe Illustrator 19.0.0, SVG Export Plug-In . SVG Version: 6.00 Build 0)  -->
<svg version="1.1" id="Layer_1" xmlns="http://www.w3.org/2000/svg" xmlns:xlink="http://www.w3.org/1999/xlink" x="0px" y="0px"
	 viewBox="0 0 500 500" style="enable-background:new 0 0 500 500;" xml:space="preserve">
<path d="M33.043,458.831c10.334-17.918,19.915-34.532,30.178-52.327c-20.253,0-39.383,0-61.091,0
	C75.684,279.906,148.188,155.118,221.463,29c10.438,18.137,20.134,34.985,30.296,52.643c10.399-17.733,20.253-34.538,30.869-52.641
	C354.292,154.923,425.215,279.542,497,405.677c-21.048,0-40.192,0-61.165,0c10.358,18.365,19.9,35.281,29.981,53.154
	C321.389,458.831,178.071,458.831,33.043,458.831z M251.434,132.675c-48.305,83.172-95.741,164.846-143.547,247.158
	c95.617,0,189.295,0,284.198,0C345.135,297.331,298.76,215.838,251.434,132.675z M266.087,107.119
	c52.138,91.592,103.835,182.409,155.347,272.902c10.909,0,20.907,0,32.14,0c-57.137-100.4-113.768-199.912-171.208-300.844
	C276.479,89.283,271.466,97.887,266.087,107.119z M221.215,79.251C162.492,180.317,104.74,279.711,46.523,379.907
	c11.511,0,21.787,0,31.965,0c10.307-17.682,20.369-34.889,30.379-52.126c41.373-71.243,82.777-142.468,123.942-213.831
	c1.807-3.132,2.979-8.236,1.689-11.236C231.204,95.053,226.349,88.063,221.215,79.251z M407.291,406.657
	c-105.537,0-210.199,0-315.155,0c-5.044,8.895-9.964,17.57-15.17,26.748c115.726,0,230.075,0,345.555,0
	C417.014,423.733,412.061,415.033,407.291,406.657z"/>
</svg>
