<svg width="24" height="24" viewBox="0 0 24 24" fill="currentColor" xmlns="http://www.w3.org/2000/svg">
<path fill-rule="evenodd" clip-rule="evenodd" d="M11.233 3.1787C11.718 2.94043 12.282 2.94043 12.767 3.1787L22.9893 8.20013C23.6069 8.50352 24 9.14422 24 9.84741C24 10.5506 23.6069 11.1913 22.9893 11.4947L12.767 16.5161C12.282 16.7544 11.718 16.7544 11.233 16.5161L1.01075 11.4947C0.393126 11.1913 0 10.5506 0 9.84741C0 9.14422 0.393126 8.50352 1.01075 8.20013L11.233 3.1787ZM12 4.82598L22.2222 9.84741L12 14.8688L1.77778 9.84741L12 4.82598Z" />
<path fill-rule="evenodd" clip-rule="evenodd" d="M19.0927 19.0733C19.0448 19.2645 18.938 19.4346 18.7881 19.5581C14.7788 22.8629 8.51568 22.8707 4.52952 19.2299C4.38133 19.0945 4.28146 18.9121 4.2458 18.7118L3.00758 11.7526L4.75639 11.4243L5.93804 18.0655C9.18735 20.8274 14.1596 20.8397 17.4466 18.3161L19.1868 11.3612L20.9086 11.8157L19.0927 19.0733Z"/>
</svg>
