<svg width="24" height="24" viewBox="0 0 24 24" fill="currentColor" xmlns="http://www.w3.org/2000/svg">
<path d="M10.4868 4.84812C8.23552 5.37303 6.42328 7.15836 5.86987 9.39645C5.31473 11.6417 5.95008 13.9303 7.56952 15.5184C8.14233 16.0802 8.48438 16.9806 8.48438 17.927V18.0781C8.48438 18.7014 8.7563 19.2622 9.1875 19.6487V20.8906C9.1875 22.0537 10.1338 23 11.2969 23H12.7031C13.8662 23 14.8125 22.0537 14.8125 20.8906V19.6487C15.2437 19.2622 15.5156 18.7014 15.5156 18.0781V17.9243C15.5156 16.9922 15.876 16.0747 16.4795 15.4699C17.6716 14.2752 18.3281 12.6877 18.3281 11C18.3281 6.96505 14.589 3.89197 10.4868 4.84812ZM13.4062 20.8906C13.4062 21.2783 13.0908 21.5938 12.7031 21.5938H11.2969C10.9092 21.5938 10.5938 21.2783 10.5938 20.8906V20.1875H13.4062V20.8906ZM15.484 14.4765C14.6104 15.352 14.1094 16.6086 14.1094 17.9243V18.0781C14.1094 18.4658 13.794 18.7812 13.4062 18.7812H10.5938C10.206 18.7812 9.89062 18.4658 9.89062 18.0781V17.927C9.89062 16.5912 9.40345 15.3473 8.55408 14.5144C7.29361 13.2783 6.80053 11.4913 7.23497 9.734C7.6627 8.00398 9.06445 6.6237 10.8061 6.21767C14.0251 5.46706 16.9219 7.87006 16.9219 11C16.9219 12.3127 16.4112 13.5473 15.484 14.4765Z" />
<path d="M6.53095 4.53659L5.86987 4C5.59533 3.72541 5.15011 3.72541 4.87551 4C4.60092 4.27459 4.60092 4.71977 4.87551 4.99436L5.53659 5.53095C5.81114 5.80555 6.25641 5.80555 6.53095 5.53095C6.80555 5.25636 6.80555 4.81119 6.53095 4.53659Z"/>
<path d="M3.5625 10.2969H2.70312C2.31481 10.2969 2 10.6117 2 11C2 11.3883 2.31481 11.7031 2.70312 11.7031H3.5625C3.95081 11.7031 4.26562 11.3883 4.26562 11C4.26562 10.6117 3.95081 10.2969 3.5625 10.2969Z" />
<path d="M21.2969 10.2969H20.4375C20.0492 10.2969 19.7344 10.6117 19.7344 11C19.7344 11.3883 20.0492 11.7031 20.4375 11.7031H21.2969C21.6852 11.7031 22 11.3883 22 11C22 10.6117 21.6852 10.2969 21.2969 10.2969Z" />
<path d="M18.9944 4C18.7199 3.72541 18.2746 3.72541 18 4L17.469 4.53659C17.1945 4.81114 17.1945 5.25636 17.469 5.53095C17.7436 5.80555 18.1888 5.80555 18.4634 5.53095C18.4634 5.53095 18.7198 5.26891 18.9944 4.99436C19.269 4.71981 19.269 4.27459 18.9944 4Z"/>
<path d="M12 1C11.6117 1 11.2969 1.31481 11.2969 1.70312C11.2969 2.09144 11.2969 2.17419 11.2969 2.5625C11.2969 2.95081 11.6117 3.26562 12 3.26562C12.3883 3.26562 12.7031 2.95081 12.7031 2.5625C12.7031 2.5625 12.7031 2.09144 12.7031 1.70312C12.7031 1.31481 12.3883 1 12 1Z" />
<path d="M12 7.48438C11.711 7.48438 11.4165 7.51902 11.1254 7.58722C9.91298 7.8702 8.898 8.86822 8.59983 10.0706C8.50636 10.4475 8.73609 10.8288 9.11297 10.9223C9.48994 11.0158 9.87122 10.786 9.96469 10.4091C10.1363 9.71736 10.745 9.12008 11.4456 8.95653C11.6323 8.9128 11.8188 8.89062 12 8.89062C12.3883 8.89062 12.7031 8.57581 12.7031 8.1875C12.7031 7.79919 12.3883 7.48438 12 7.48438Z"/>
<path d="M21.2969 10.2969H20.4375C20.0492 10.2969 19.7344 10.6117 19.7344 11C19.7344 11.3883 20.0492 11.7031 20.4375 11.7031H21.2969C21.6852 11.7031 22 11.3883 22 11C22 10.6117 21.6852 10.2969 21.2969 10.2969Z"/>
<path d="M5.37075 16.6802C5.47126 17.0553 5.24865 17.4409 4.87357 17.5414C4.49849 17.6419 4.41856 17.6633 4.04348 17.7638C3.66839 17.8643 3.28283 17.6417 3.18233 17.2666C3.08182 16.8915 3.30443 16.5059 3.67951 16.4054C3.67951 16.4054 4.13452 16.2835 4.5096 16.183C4.88468 16.0825 5.27025 16.3051 5.37075 16.6802Z" />
<path d="M18.182 16.6802C18.0815 17.0553 18.3041 17.4409 18.6792 17.5414C19.0542 17.6419 19.1342 17.6633 19.5093 17.7638C19.8843 17.8643 20.2699 17.6417 20.3704 17.2666C20.4709 16.8915 20.2483 16.5059 19.8732 16.4054C19.8732 16.4054 19.4182 16.2835 19.0431 16.183C18.668 16.0825 18.2825 16.3051 18.182 16.6802Z" />
<path fill-rule="evenodd" clip-rule="evenodd" d="M20.4373 10.1969H21.2967C21.7402 10.1969 22.0998 10.5564 22.0998 11C22.0998 11.4435 21.7402 11.8031 21.2967 11.8031H20.4373C19.9938 11.8031 19.6342 11.4435 19.6342 11C19.6342 10.5564 19.9938 10.1969 20.4373 10.1969ZM10.4412 4.65333C14.6695 3.66777 18.5279 6.83699 18.5279 11C18.5279 12.7407 17.8504 14.3789 16.6209 15.6111C16.0583 16.1749 15.7154 17.0399 15.7154 17.9243V18.0781C15.7154 18.7282 15.4452 19.316 15.0123 19.7356V20.8906C15.0123 22.1642 13.9765 23.2 12.7029 23.2H11.2967C10.0231 23.2 8.9873 22.1642 8.9873 20.8906V19.7356C8.55442 19.316 8.28418 18.7281 8.28418 18.0781V17.927C8.28418 17.0239 7.9569 16.1786 7.42928 15.6612C5.7581 14.0223 5.10382 11.6607 5.67553 9.34844L5.86968 9.39644C5.31454 11.6417 5.94988 13.9303 7.56932 15.5184C8.14213 16.0802 8.48418 16.9806 8.48418 17.927V18.0781C8.48418 18.7014 8.7561 19.2622 9.1873 19.6487V20.8906C9.1873 22.0537 10.1336 23 11.2967 23H12.7029C13.866 23 14.8123 22.0537 14.8123 20.8906V19.6487C15.2435 19.2622 15.5154 18.7014 15.5154 18.0781V17.9243C15.5154 16.9922 15.8758 16.0747 16.4793 15.4698C17.6714 14.2751 18.3279 12.6877 18.3279 11C18.3279 6.96503 14.5888 3.89196 10.4866 4.84811C8.23532 5.37302 6.42309 7.15835 5.86968 9.39644L5.67553 9.34844C6.24704 7.0371 8.11694 5.19526 10.4412 4.65333ZM10.8059 6.21766C9.06426 6.62369 7.66251 8.00397 7.23477 9.73399C6.80034 11.4912 7.29341 13.2783 8.55388 14.5143C9.40326 15.3473 9.89043 16.5911 9.89043 17.927V18.0781C9.89043 18.4658 10.2059 18.7812 10.5936 18.7812H13.4061C13.7938 18.7812 14.1092 18.4658 14.1092 18.0781V17.9243C14.1092 16.6086 14.6102 15.352 15.4838 14.4765C16.411 13.5473 16.9217 12.3127 16.9217 11C16.9217 7.87005 14.0249 5.46705 10.8059 6.21766ZM10.8513 6.41244C9.18257 6.80147 7.83853 8.12529 7.42893 9.78199C7.01094 11.4727 7.48553 13.1865 8.69391 14.3715C9.58652 15.2469 10.0904 16.5447 10.0904 17.927V18.0781C10.0904 18.3554 10.3163 18.5812 10.5936 18.5812H13.4061C13.6833 18.5812 13.9092 18.3554 13.9092 18.0781V17.9243C13.9092 16.5594 14.4287 15.2508 15.3423 14.3352C16.232 13.4435 16.7217 12.2597 16.7217 11C16.7217 7.99791 13.9439 5.69129 10.8513 6.41244ZM6.66485 4.38783L6.67218 4.39516C7.02487 4.74785 7.02488 5.31965 6.67219 5.67235M6.66485 4.38783L6.6568 4.3813ZM4.87532 4.99435C4.60073 4.71975 4.60073 4.27458 4.87532 3.99999C5.14991 3.72539 5.59513 3.72539 5.86968 3.99999L6.53076 4.53658C6.80535 4.81118 6.80535 5.25635 6.53076 5.53094C6.25621 5.80553 5.81095 5.80553 5.5364 5.53094L4.87532 4.99435ZM6.00328 3.85084C5.65004 3.50588 5.08399 3.50847 4.7339 3.85857C4.3812 4.21127 4.3812 4.78307 4.7339 5.13577L4.74123 5.1431L5.40279 5.68009C5.75603 6.02504 6.32213 6.02246 6.67219 5.67235M6.6568 4.3813L6.00328 3.85084ZM17.8584 3.85855C18.2111 3.5059 18.783 3.50584 19.1356 3.85857C19.4883 4.21126 19.4883 4.78312 19.1356 5.13578C18.9987 5.2726 18.8664 5.40638 18.7681 5.50601L18.6503 5.6258L18.6069 5.67007L18.6062 5.6708L18.6046 5.67237C18.2519 6.02505 17.6801 6.02507 17.3274 5.67235C16.9749 5.31982 16.9747 4.74834 17.3269 4.39564C17.3271 4.39548 17.3268 4.39581 17.3269 4.39564L17.8584 3.85855ZM17.4689 4.53658C17.1943 4.81113 17.1943 5.25635 17.4689 5.53094C17.7434 5.80553 18.1886 5.80553 18.4632 5.53094C18.4632 5.53094 18.7196 5.26889 18.9942 4.99435C19.2688 4.7198 19.2688 4.27458 18.9942 3.99999C18.7197 3.72539 18.2744 3.72539 17.9998 3.99999L17.4689 4.53658ZM9.11277 10.9223C8.7359 10.8288 8.50616 10.4475 8.59963 10.0706C8.8978 8.86821 9.91279 7.87019 11.1252 7.58721C11.4164 7.519 11.7108 7.48436 11.9998 7.48436C12.3881 7.48436 12.7029 7.79918 12.7029 8.18749C12.7029 8.5758 12.3881 8.89061 11.9998 8.89061C11.8186 8.89061 11.6321 8.91278 11.4454 8.95652C10.7448 9.12007 10.1361 9.71735 9.96449 10.4091C9.87102 10.786 9.48974 11.0158 9.11277 10.9223ZM11.0796 7.39248C11.3852 7.3209 11.6949 7.28436 11.9998 7.28436C12.4986 7.28436 12.9029 7.68872 12.9029 8.18749C12.9029 8.68626 12.4986 9.09061 11.9998 9.09061C11.8349 9.09061 11.6636 9.11081 11.491 9.15125C10.8628 9.29791 10.3119 9.83922 10.1586 10.4573C10.0386 10.9413 9.54882 11.2365 9.06464 11.1164C8.58057 10.9963 8.28546 10.5066 8.40551 10.0225C8.72187 8.74674 9.79455 7.69248 11.0796 7.39248ZM12.7029 21.3937C12.9802 21.3937 13.2061 21.1679 13.2061 20.8906V20.3875H10.7936V20.8906C10.7936 21.1679 11.0194 21.3937 11.2967 21.3937H12.7029ZM2.70293 10.0969H3.5623C4.06107 10.0969 4.46543 10.5012 4.46543 11C4.46543 11.4988 4.06107 11.9031 3.5623 11.9031H2.70293C2.20416 11.9031 1.7998 11.4988 1.7998 11C1.7998 10.5012 2.20416 10.0969 2.70293 10.0969ZM19.9248 16.2122C20.4066 16.3413 20.6925 16.8366 20.5634 17.3183C20.4343 17.8001 19.9391 18.086 19.4573 17.957L18.6272 17.7345C18.1454 17.6054 17.8595 17.1102 17.9886 16.6284C18.1177 16.1467 18.6129 15.8607 19.0947 15.9898L19.9248 16.2122ZM19.873 16.4054L19.0429 16.183C18.6679 16.0825 18.2823 16.3051 18.1818 16.6802C18.0813 17.0553 18.3039 17.4408 18.679 17.5413L19.5091 17.7638C19.8841 17.8643 20.2697 17.6417 20.3702 17.2666C20.4707 16.8915 20.2481 16.5059 19.873 16.4054ZM11.0967 1.70311C11.0967 1.20434 11.501 0.799988 11.9998 0.799988C12.4986 0.799988 12.9029 1.20434 12.9029 1.70311V2.56159C12.9029 3.06036 12.4986 3.46561 11.9998 3.46561C11.501 3.46561 11.0967 3.06126 11.0967 2.56249V1.70311ZM5.56374 16.6284C5.69283 17.1102 5.40691 17.6054 4.92514 17.7345L4.09504 17.957C3.61327 18.086 3.11804 17.8001 2.98895 17.3183C2.85985 16.8366 3.14578 16.3413 3.62755 16.2122L3.67932 16.4054C3.30423 16.5059 3.08163 16.8915 3.18213 17.2666C3.28263 17.6417 3.6682 17.8643 4.04328 17.7638L4.87337 17.5413C5.24845 17.4408 5.47106 17.0553 5.37056 16.6802C5.27005 16.3051 4.88449 16.0825 4.50941 16.183L3.67932 16.4054L3.62755 16.2122L4.45764 15.9898C4.93942 15.8607 5.43465 16.1467 5.56374 16.6284ZM11.2967 1.70311C11.2967 1.3148 11.6115 0.999988 11.9998 0.999988C12.3881 0.999988 12.7029 1.3148 12.7029 1.70311V2.56249C12.7029 2.9508 12.3881 3.26561 11.9998 3.26561C11.6115 3.26561 11.2967 2.9508 11.2967 2.56249V1.70311ZM12.7029 21.5937C13.0906 21.5937 13.4061 21.2783 13.4061 20.8906V20.1875H10.5936V20.8906C10.5936 21.2783 10.909 21.5937 11.2967 21.5937H12.7029ZM3.5623 10.2969H2.70293C2.31462 10.2969 1.9998 10.6117 1.9998 11C1.9998 11.3883 2.31462 11.7031 2.70293 11.7031H3.5623C3.95062 11.7031 4.26543 11.3883 4.26543 11C4.26543 10.6117 3.95062 10.2969 3.5623 10.2969ZM19.7342 11C19.7342 10.6117 20.049 10.2969 20.4373 10.2969H21.2967C21.685 10.2969 21.9998 10.6117 21.9998 11C21.9998 11.3883 21.685 11.7031 21.2967 11.7031H20.4373C20.049 11.7031 19.7342 11.3883 19.7342 11Z"/>
</svg>
