<?xml version="1.0" encoding="utf-8"?>
<!-- Generator: Adobe Illustrator 23.0.4, SVG Export Plug-In . SVG Version: 6.00 Build 0)  -->
<svg version="1.1" id="leo" xmlns="http://www.w3.org/2000/svg" xmlns:xlink="http://www.w3.org/1999/xlink" x="0px" y="0px"
	 viewBox="0 0 500 500" style="enable-background:new 0 0 500 500;" xml:space="preserve">
<style type="text/css">
	.st0{fill:#11021E;}
	.st1{fill:url(#SVGID_1_);}
	.st2{fill:url(#SVGID_2_);}
	.st3{fill:url(#SVGID_3_);}
	.st4{fill:url(#SVGID_4_);}
	.st5{fill:url(#SVGID_5_);}
	.st6{fill:url(#SVGID_6_);}
	.st7{fill:url(#SVGID_7_);}
	.st8{fill:url(#SVGID_8_);}
</style>
<circle class="st0" cx="249.7" cy="250.5" r="247.1"/>
<linearGradient id="SVGID_1_" gradientUnits="userSpaceOnUse" x1="267.7757" y1="244.5651" x2="267.7757" y2="98.3522">
	<stop  offset="0" style="stop-color:#F2792B"/>
	<stop  offset="1" style="stop-color:#FAEC32"/>
</linearGradient>
<polygon class="st1" points="214.1,116.9 247.5,98.4 321.5,141.9 321.5,224.2 271.8,244.6 271.8,209.7 308,209.7 308,149.5 
	247.5,114.3 227.9,124.5 "/>
<linearGradient id="SVGID_2_" gradientUnits="userSpaceOnUse" x1="172.7042" y1="339.2558" x2="172.7042" y2="210.0998">
	<stop  offset="0" style="stop-color:#F26E2A"/>
	<stop  offset="0.7363" style="stop-color:#FAEB32"/>
</linearGradient>
<polygon class="st2" points="159.9,328.4 132.6,309.1 132.6,248.2 180.1,224.5 225.9,244.1 225.9,210.1 177.2,210.1 119.5,240.5 
	119.5,315.9 151.2,339.3 "/>
<linearGradient id="SVGID_3_" gradientUnits="userSpaceOnUse" x1="282.4347" y1="373.7794" x2="282.4347" y2="253.8612">
	<stop  offset="0" style="stop-color:#F26E2A"/>
	<stop  offset="0.7951" style="stop-color:#FAEB32"/>
</linearGradient>
<polygon class="st3" points="252.8,297.1 252.8,328.8 289.8,357 352.5,312.8 352.5,283.5 366.4,283.5 366.4,319.7 290.1,373.8 
	239.2,335.1 239.2,297.1 198.4,253.9 294.6,253.9 "/>
<linearGradient id="SVGID_4_" gradientUnits="userSpaceOnUse" x1="222.9985" y1="392.9524" x2="222.9985" y2="284.8866">
	<stop  offset="0" style="stop-color:#F26E2A"/>
	<stop  offset="0.7951" style="stop-color:#FAEB32"/>
</linearGradient>
<polygon class="st4" points="186.9,285.2 186.9,346.9 246.5,377.6 267.1,369.6 273,381.8 246.2,393 173,355.3 173,284.9 "/>
<linearGradient id="SVGID_5_" gradientUnits="userSpaceOnUse" x1="345.7055" y1="295.3446" x2="345.7055" y2="153.8132">
	<stop  offset="0" style="stop-color:#F26E2A"/>
	<stop  offset="0.6178" style="stop-color:#FAEB32"/>
</linearGradient>
<polygon class="st5" points="310.7,283.5 365.4,249 365.4,185.9 339.3,164.3 348.7,153.8 380.7,179.6 380.7,256.7 318.3,295.3 "/>
<linearGradient id="SVGID_6_" gradientUnits="userSpaceOnUse" x1="186.5698" y1="215.1667" x2="186.5698" y2="122.0906">
	<stop  offset="0" style="stop-color:#F26E2A"/>
	<stop  offset="0.7951" style="stop-color:#FAEB32"/>
</linearGradient>
<polygon class="st6" points="132.9,214.8 132.9,176.1 196,138.1 246.2,167.1 253.5,155.2 195.3,122.1 119.6,168.1 119.6,215.2 "/>
<linearGradient id="SVGID_7_" gradientUnits="userSpaceOnUse" x1="219.1964" y1="206.2265" x2="201.4941" y2="236.8877">
	<stop  offset="0" style="stop-color:#F26E2A"/>
	<stop  offset="1" style="stop-color:#FAEB32"/>
</linearGradient>
<polygon class="st7" points="225.9,244.1 180.1,224.5 225.9,210.1 "/>
<linearGradient id="SVGID_8_" gradientUnits="userSpaceOnUse" x1="270.4061" y1="243.2045" x2="305.4173" y2="208.1933">
	<stop  offset="0" style="stop-color:#F26E2A"/>
	<stop  offset="0.7089" style="stop-color:#FAEB32"/>
</linearGradient>
<polygon class="st8" points="271.8,244.6 271.8,209.7 321.5,224.2 "/>
</svg>
