<svg aria-hidden="true" data-testid="test-icon" fill="currentColor" viewBox="0 0 24 24" xmlns="http://www.w3.org/2000/svg"><path fill-rule="evenodd" clip-rule="evenodd" d="M5.67 6.907A8.09 8.09 0 003.874 12c0 1.928.672 3.7 1.794 5.093l2.609-2.608A4.454 4.454 0 017.525 12c0-.92.277-1.774.753-2.485L5.669 6.907zm1.237-1.238l2.608 2.609A4.454 4.454 0 0112 7.525c.92 0 1.774.277 2.485.753l2.608-2.609A8.09 8.09 0 0012 3.875a8.09 8.09 0 00-5.093 1.794zM18.33 6.907l-2.609 2.608c.476.711.753 1.566.753 2.485 0 .92-.277 1.774-.753 2.485l2.609 2.608A8.09 8.09 0 0020.125 12a8.09 8.09 0 00-1.794-5.093zM17.093 18.33l-2.608-2.609a4.454 4.454 0 01-2.485.753c-.92 0-1.774-.277-2.485-.753l-2.608 2.609A8.09 8.09 0 0012 20.125a8.09 8.09 0 005.093-1.794zM2.125 12c0-5.454 4.421-9.875 9.875-9.875S21.875 6.546 21.875 12 17.454 21.875 12 21.875 2.125 17.454 2.125 12zM12 9.275a2.725 2.725 0 100 5.45 2.725 2.725 0 000-5.45z"/></svg>
