<svg width="24" height="24" viewBox="0 0 24 24" fill="none" xmlns="http://www.w3.org/2000/svg">
<path d="M6.60204 4.4655L6.60166 4.46588C6.91531 4.77953 6.91531 5.28801 6.60167 5.60166L6.60204 4.4655ZM6.60204 4.4655L6.59397 4.45895M6.60204 4.4655L6.59397 4.45895M6.59397 4.45895L5.93679 3.92552C5.62289 3.61564 5.11718 3.61691 4.8048 3.92929C4.49116 4.24294 4.49116 4.75142 4.8048 5.06507L4.80442 5.06545M6.59397 4.45895L4.80442 5.06545M4.80442 5.06545L4.81249 5.072M4.80442 5.06545L4.81249 5.072M4.81249 5.072L5.46968 5.60543M4.81249 5.072L5.46968 5.60543M17.9289 3.92966L17.9293 3.92928C18.243 3.61566 18.7515 3.61563 19.0651 3.92929C19.3787 4.24293 19.3787 4.75147 19.0651 5.06508C18.928 5.20212 18.7954 5.33609 18.6971 5.43581L18.5791 5.55577L18.5464 5.58914L18.5378 5.5979L18.5356 5.60014L18.5351 5.6007L18.5349 5.60084L18.5349 5.60088L18.4634 5.53095L18.5349 5.60088L18.5341 5.60167C18.2205 5.9153 17.7119 5.91532 17.3983 5.60166C17.3983 5.60166 17.3983 5.60166 17.3983 5.60166L17.469 5.53095L17.9289 3.92966ZM17.9289 3.92966L17.3983 4.46588C17.3983 4.46594 17.3982 4.46601 17.3981 4.46608L17.9289 3.92966ZM5.46968 5.60543C5.78357 5.9153 6.28933 5.91405 6.60166 5.60166L5.46968 5.60543ZM10.4641 4.75074L10.4868 4.84812L10.4641 4.75074C8.17632 5.28415 6.33526 7.09774 5.7728 9.37245C5.20937 11.6512 5.85419 13.9763 7.4995 15.5898C8.04971 16.1294 8.38438 17.0023 8.38438 17.927V18.0781C8.38438 18.7149 8.65543 19.2894 9.0875 19.6927V20.8906C9.0875 22.109 10.0785 23.1 11.2969 23.1H12.7031C13.9215 23.1 14.9125 22.109 14.9125 20.8906V19.6927C15.3446 19.2894 15.6156 18.715 15.6156 18.0781V17.9243C15.6156 17.0161 15.9672 16.1248 16.5503 15.5405L16.4795 15.4699L16.5503 15.5405C17.7611 14.327 18.4281 12.7142 18.4281 11C18.4281 6.90103 14.6293 3.77987 10.4641 4.75074ZM10.8288 6.31506L10.8061 6.21767L10.8288 6.31506C13.9846 5.57918 16.8219 7.93399 16.8219 11C16.8219 12.2862 16.3217 13.4954 15.4132 14.4059C14.5196 15.3014 14.0094 16.584 14.0094 17.9243V18.0781C14.0094 18.4106 13.7387 18.6812 13.4062 18.6812H10.5938C10.2613 18.6812 9.99062 18.4106 9.99062 18.0781V17.927C9.99062 16.5679 9.49508 15.2971 8.62409 14.443C7.38967 13.2324 6.90583 11.482 7.33205 9.758C7.75072 8.06464 9.12361 6.71259 10.8288 6.31506ZM9.08889 11.0194L9.0889 11.0194C9.51948 11.1261 9.95498 10.8636 10.0617 10.4332C10.2242 9.7783 10.8039 9.20902 11.4683 9.05391L11.4684 9.05389C11.648 9.01181 11.8269 8.99062 12 8.99062C12.4435 8.99062 12.8031 8.63104 12.8031 8.1875C12.8031 7.74396 12.4435 7.38438 12 7.38438C11.703 7.38438 11.401 7.41996 11.1027 7.48984C9.85391 7.7813 8.81004 8.80746 8.50277 10.0465C8.39601 10.4771 8.65841 10.9126 9.08889 11.0194ZM13.3062 20.8906C13.3062 21.2231 13.0356 21.4937 12.7031 21.4937H11.2969C10.9644 21.4937 10.6938 21.2231 10.6938 20.8906V20.2875H13.3062V20.8906ZM3.5625 10.1969H2.70312C2.25958 10.1969 1.9 10.5565 1.9 11C1.9 11.4435 2.25958 11.8031 2.70312 11.8031H3.5625C4.00604 11.8031 4.36562 11.4435 4.36562 11C4.36562 10.5565 4.00604 10.1969 3.5625 10.1969ZM20.4375 10.1969C19.994 10.1969 19.6344 10.5565 19.6344 11C19.6344 11.4435 19.994 11.8031 20.4375 11.8031H21.2969C21.7404 11.8031 22.1 11.4435 22.1 11C22.1 10.5565 21.7404 10.1969 21.2969 10.1969H20.4375ZM12 0.9C11.5565 0.9 11.1969 1.25958 11.1969 1.70312V1.7054V1.70766V1.70992V1.71217V1.71441V1.71665V1.71888V1.72111V1.72332V1.72553V1.72774V1.72993V1.73212V1.73431V1.73648V1.73865V1.74082V1.74297V1.74512V1.74727V1.74941V1.75154V1.75366V1.75578V1.75789V1.76V1.7621V1.76419V1.76628V1.76836V1.77043V1.7725V1.77456V1.77662V1.77867V1.78072V1.78275V1.78479V1.78681V1.78883V1.79085V1.79286V1.79486V1.79685V1.79885V1.80083V1.80281V1.80478V1.80675V1.80872V1.81067V1.81262V1.81457V1.81651V1.81844V1.82037V1.8223V1.82422V1.82613V1.82804V1.82994V1.83183V1.83373V1.83561V1.83749V1.83937V1.84124V1.84311V1.84497V1.84682V1.84867V1.85052V1.85236V1.85419V1.85602V1.85785V1.85967V1.86148V1.86329V1.8651V1.8669V1.86869V1.87049V1.87227V1.87405V1.87583V1.8776V1.87937V1.88113V1.88289V1.88465V1.8864V1.88814V1.88988V1.89162V1.89335V1.89508V1.8968V1.89852V1.90024V1.90195V1.90365V1.90535V1.90705V1.90875V1.91044V1.91212V1.9138V1.91548V1.91715V1.91882V1.92049V1.92215V1.92381V1.92546V1.92711V1.92876V1.9304V1.93204V1.93367V1.9353V1.93693V1.93855V1.94017V1.94179V1.9434V1.94501V1.94662V1.94822V1.94982V1.95141V1.953V1.95459V1.95618V1.95776V1.95934V1.96091V1.96248V1.96405V1.96562V1.96718V1.96874V1.9703V1.97185V1.9734V1.97494V1.97649V1.97803V1.97957V1.9811V1.98263V1.98416V1.98569V1.98721V1.98873V1.99025V1.99177V1.99328V1.99479V1.9963V1.9978V1.9993V2.0008V2.0023V2.0038V2.00529V2.00678V2.00826V2.00975V2.01123V2.01271V2.01419V2.01566V2.01714V2.01861V2.02008V2.02154V2.02301V2.02447V2.02593V2.02739V2.02884V2.0303V2.03175V2.0332V2.03465V2.03609V2.03754V2.03898V2.04042V2.04186V2.04329V2.04473V2.04616V2.0476V2.04903V2.05045V2.05188V2.05331V2.05473V2.05615V2.05757V2.05899V2.06041V2.06183V2.06324V2.06465V2.06607V2.06748V2.06889V2.07029V2.0717V2.07311V2.07451V2.07592V2.07732V2.07872V2.08012V2.08152V2.08292V2.08431V2.08571V2.08711V2.0885V2.08989V2.09129V2.09268V2.09407V2.09546V2.09685V2.09824V2.09963V2.10102V2.1024V2.10379V2.10517V2.10656V2.10794V2.10933V2.11071V2.1121V2.11348V2.11486V2.11624V2.11763V2.11901V2.12039V2.12177V2.12315V2.12453V2.12591V2.12729V2.12867V2.13005V2.13143V2.13281V2.13419V2.13557V2.13695V2.13833V2.13971V2.14109V2.14247V2.14386V2.14524V2.14662V2.148V2.14938V2.15076V2.15215V2.15353V2.15491V2.1563V2.15768V2.15907V2.16045V2.16184V2.16322V2.16461V2.166V2.16739V2.16877V2.17016V2.17155V2.17295V2.17434V2.17573V2.17712V2.17852V2.17991V2.18131V2.18271V2.18411V2.1855V2.18691V2.18831V2.18971V2.19111V2.19252V2.19392V2.19533V2.19674V2.19815V2.19956V2.20097V2.20238V2.2038V2.20522V2.20663V2.20805V2.20947V2.2109V2.21232V2.21374V2.21517V2.2166V2.21803V2.21946V2.2209V2.22233V2.22377V2.22521V2.22665V2.22809V2.22953V2.23098V2.23243V2.23388V2.23533V2.23678V2.23824V2.2397V2.24116V2.24262V2.24408V2.24555V2.24702V2.24849V2.24996V2.25144V2.25291V2.25439V2.25588V2.25736V2.25885V2.26034V2.26183V2.26332V2.26482V2.26632V2.26782V2.26933V2.27083V2.27234V2.27386V2.27537V2.27689V2.27841V2.27993V2.28146V2.28299V2.28452V2.28606V2.2876V2.28914V2.29068V2.29223V2.29378V2.29533V2.29689V2.29844V2.30001V2.30157V2.30314V2.30471V2.30629V2.30787V2.30945V2.31103V2.31262V2.31421V2.31581V2.31741V2.31901V2.32062V2.32222V2.32384V2.32545V2.32707V2.3287V2.33032V2.33195V2.33359V2.33523V2.33687V2.33852V2.34017V2.34182V2.34348V2.34514V2.3468V2.34847V2.35015V2.35182V2.3535V2.35519V2.35688V2.35857V2.36027V2.36197V2.36368V2.36539V2.3671V2.36882V2.37055V2.37227V2.37401V2.37574V2.37748V2.37923V2.38098V2.38273V2.38449V2.38625V2.38802V2.38979V2.39157V2.39335V2.39514V2.39693V2.39873V2.40053V2.40233V2.40414V2.40596V2.40778V2.4096V2.41143V2.41327V2.41511V2.41695V2.4188V2.42066V2.42252V2.42439V2.42626V2.42813V2.43001V2.4319V2.43379V2.43569V2.43759V2.4395V2.44141V2.44333V2.44525V2.44718V2.44912V2.45106V2.453V2.45495V2.45691V2.45887V2.46084V2.46281V2.46479V2.46678V2.46877V2.47077V2.47277V2.47478V2.47679V2.47881V2.48084V2.48287V2.48491V2.48695V2.489V2.49106V2.49312V2.49519V2.49727V2.49935V2.50143V2.50353V2.50563V2.50773V2.50984V2.51196V2.51409V2.51622V2.51836V2.5205V2.52265V2.52481V2.52697V2.52914V2.53132V2.5335V2.53569V2.53789V2.54009V2.5423V2.54452V2.54674V2.54897V2.55121V2.55345V2.55571V2.55796V2.56023V2.5625C11.1969 3.00604 11.5565 3.36562 12 3.36562C12.4435 3.36562 12.8031 3.00604 12.8031 2.5625V2.56248V2.56245V2.56241V2.56237V2.56231V2.56224V2.56216V2.56207V2.56196V2.56185V2.56173V2.5616V2.56145V2.5613V2.56114V2.56096V2.56078V2.56058V2.56038V2.56016V2.55993V2.5597V2.55945V2.5592V2.55893V2.55865V2.55836V2.55807V2.55776V2.55744V2.55711V2.55678V2.55643V2.55607V2.55571V2.55533V2.55494V2.55455V2.55414V2.55372V2.5533V2.55286V2.55241V2.55196V2.55149V2.55102V2.55054V2.55004V2.54954V2.54903V2.5485V2.54797V2.54743V2.54688V2.54632V2.54575V2.54517V2.54458V2.54398V2.54338V2.54276V2.54214V2.5415V2.54086V2.5402V2.53954V2.53887V2.53819V2.5375V2.5368V2.53609V2.53538V2.53465V2.53392V2.53317V2.53242V2.53166V2.53089V2.53011V2.52932V2.52853V2.52772V2.52691V2.52608V2.52525V2.52441V2.52356V2.52271V2.52184V2.52097V2.52008V2.51919V2.51829V2.51739V2.51647V2.51554V2.51461V2.51367V2.51272V2.51176V2.51079V2.50982V2.50883V2.50784V2.50684V2.50583V2.50482V2.50379V2.50276V2.50172V2.50067V2.49962V2.49855V2.49748V2.4964V2.49531V2.49422V2.49311V2.492V2.49088V2.48975V2.48862V2.48748V2.48633V2.48517V2.484V2.48283V2.48165V2.48046V2.47926V2.47806V2.47685V2.47563V2.4744V2.47317V2.47193V2.47068V2.46942V2.46816V2.46689V2.46561V2.46433V2.46304V2.46174V2.46043V2.45912V2.45779V2.45647V2.45513V2.45379V2.45244V2.45108V2.44972V2.44835V2.44697V2.44559V2.4442V2.4428V2.44139V2.43998V2.43856V2.43714V2.43571V2.43427V2.43282V2.43137V2.42991V2.42845V2.42698V2.4255V2.42401V2.42252V2.42102V2.41952V2.41801V2.41649V2.41497V2.41344V2.4119V2.41036V2.40881V2.40725V2.40569V2.40412V2.40255V2.40097V2.39938V2.39779V2.39619V2.39459V2.39298V2.39136V2.38974V2.38811V2.38647V2.38483V2.38319V2.38153V2.37987V2.37821V2.37654V2.37486V2.37318V2.3715V2.3698V2.3681V2.3664V2.36469V2.36298V2.36125V2.35953V2.3578V2.35606V2.35431V2.35257V2.35081V2.34905V2.34729V2.34552V2.34374V2.34196V2.34017V2.33838V2.33659V2.33479V2.33298V2.33117V2.32935V2.32753V2.3257V2.32387V2.32203V2.32019V2.31834V2.31649V2.31463V2.31277V2.3109V2.30903V2.30715V2.30527V2.30338V2.30149V2.29959V2.29769V2.29579V2.29388V2.29196V2.29004V2.28812V2.28619V2.28426V2.28232V2.28038V2.27843V2.27648V2.27452V2.27256V2.2706V2.26863V2.26666V2.26468V2.2627V2.26071V2.25872V2.25673V2.25473V2.25273V2.25072V2.24871V2.2467V2.24468V2.24265V2.24063V2.2386V2.23656V2.23452V2.23248V2.23043V2.22838V2.22633V2.22427V2.22221V2.22014V2.21807V2.216V2.21393V2.21185V2.20976V2.20767V2.20558V2.20349V2.20139V2.19929V2.19718V2.19507V2.19296V2.19085V2.18873V2.18661V2.18448V2.18235V2.18022V2.17808V2.17595V2.1738V2.17166V2.16951V2.16736V2.16521V2.16305V2.16089V2.15873V2.15656V2.15439V2.15222V2.15004V2.14786V2.14568V2.1435V2.14131V2.13912V2.13693V2.13473V2.13254V2.13034V2.12813V2.12593V2.12372V2.12151V2.11929V2.11708V2.11486V2.11264V2.11041V2.10818V2.10596V2.10372V2.10149V2.09926V2.09702V2.09478V2.09253V2.09029V2.08804V2.08579V2.08354V2.08128V2.07903V2.07677V2.07451V2.07225V2.06998V2.06772V2.06545V2.06318V2.06091V2.05863V2.05635V2.05408V2.0518V2.04952V2.04723V2.04495V2.04266V2.04037V2.03808V2.03579V2.03349V2.0312V2.0289V2.0266V2.0243V2.022V2.0197V2.01739V2.01509V2.01278V2.01047V2.00816V2.00585V2.00354V2.00122V1.99891V1.99659V1.99427V1.99195V1.98963V1.98731V1.98499V1.98266V1.98034V1.97801V1.97569V1.97336V1.97103V1.9687V1.96637V1.96404V1.9617V1.95937V1.95704V1.9547V1.95237V1.95003V1.94769V1.94535V1.94302V1.94068V1.93834V1.936V1.93365V1.93131V1.92897V1.92663V1.92428V1.92194V1.9196V1.91725V1.91491V1.91256V1.91022V1.90787V1.90552V1.90318V1.90083V1.89848V1.89614V1.89379V1.89144V1.88909V1.88675V1.8844V1.88205V1.8797V1.87736V1.87501V1.87266V1.87031V1.86797V1.86562V1.86327V1.86092V1.85858V1.85623V1.85389V1.85154V1.84919V1.84685V1.8445V1.84216V1.83981V1.83747V1.83513V1.83279V1.83044V1.8281V1.82576V1.82342V1.82108V1.81874V1.8164V1.81406V1.81173V1.80939V1.80705V1.80472V1.80238V1.80005V1.79772V1.79539V1.79306V1.79073V1.7884V1.78607V1.78374V1.78142V1.77909V1.77677V1.77445V1.77212V1.7698V1.76748V1.76517V1.76285V1.76053V1.75822V1.75591V1.7536V1.75129V1.74898V1.74667V1.74436V1.74206V1.73975V1.73745V1.73515V1.73285V1.73056V1.72826V1.72597V1.72368V1.72139V1.7191V1.71681V1.71452V1.71224V1.70996V1.70768V1.7054V1.70312C12.8031 1.25958 12.4435 0.9 12 0.9Z" fill="#041836" stroke="#041836" stroke-width="0.2"/>
<path d="M5.46734 16.6543C5.58214 17.0828 5.32788 17.5232 4.89945 17.6379L4.89726 17.6385L4.89507 17.6391L4.89289 17.6397L4.89071 17.6403L4.88854 17.6409L4.88638 17.6415L4.88423 17.642L4.88208 17.6426L4.87994 17.6432L4.87781 17.6437L4.87568 17.6443L4.87356 17.6449L4.87144 17.6455L4.86933 17.646L4.86723 17.6466L4.86513 17.6471L4.86304 17.6477L4.86096 17.6483L4.85888 17.6488L4.85681 17.6494L4.85475 17.6499L4.85269 17.6505L4.85063 17.651L4.84859 17.6516L4.84655 17.6521L4.84451 17.6527L4.84249 17.6532L4.84046 17.6538L4.83845 17.6543L4.83644 17.6548L4.83443 17.6554L4.83244 17.6559L4.83044 17.6564L4.82846 17.657L4.82648 17.6575L4.8245 17.658L4.82253 17.6586L4.82057 17.6591L4.81861 17.6596L4.81666 17.6601L4.81472 17.6607L4.81278 17.6612L4.81084 17.6617L4.80891 17.6622L4.80699 17.6627L4.80507 17.6632L4.80316 17.6638L4.80125 17.6643L4.79935 17.6648L4.79746 17.6653L4.79557 17.6658L4.79368 17.6663L4.7918 17.6668L4.78993 17.6673L4.78806 17.6678L4.7862 17.6683L4.78434 17.6688L4.78249 17.6693L4.78064 17.6698L4.7788 17.6703L4.77696 17.6708L4.77513 17.6713L4.7733 17.6718L4.77148 17.6722L4.76966 17.6727L4.76785 17.6732L4.76604 17.6737L4.76424 17.6742L4.76244 17.6747L4.76065 17.6751L4.75886 17.6756L4.75708 17.6761L4.7553 17.6766L4.75353 17.677L4.75176 17.6775L4.75 17.678L4.74824 17.6785L4.74649 17.6789L4.74474 17.6794L4.743 17.6799L4.74126 17.6803L4.73952 17.6808L4.73779 17.6813L4.73607 17.6817L4.73434 17.6822L4.73263 17.6826L4.73092 17.6831L4.72921 17.6836L4.72751 17.684L4.72581 17.6845L4.72411 17.6849L4.72242 17.6854L4.72074 17.6858L4.71905 17.6863L4.71738 17.6867L4.7157 17.6872L4.71404 17.6876L4.71237 17.6881L4.71071 17.6885L4.70905 17.689L4.7074 17.6894L4.70575 17.6899L4.70411 17.6903L4.70247 17.6907L4.70084 17.6912L4.6992 17.6916L4.69758 17.692L4.69595 17.6925L4.69433 17.6929L4.69271 17.6933L4.6911 17.6938L4.68949 17.6942L4.68789 17.6946L4.68629 17.6951L4.68469 17.6955L4.6831 17.6959L4.68151 17.6963L4.67992 17.6968L4.67834 17.6972L4.67676 17.6976L4.67518 17.698L4.67361 17.6985L4.67205 17.6989L4.67048 17.6993L4.66892 17.6997L4.66736 17.7001L4.66581 17.7006L4.66426 17.701L4.66271 17.7014L4.66116 17.7018L4.65962 17.7022L4.65809 17.7026L4.65655 17.703L4.65502 17.7034L4.65349 17.7039L4.65197 17.7043L4.65045 17.7047L4.64893 17.7051L4.64741 17.7055L4.6459 17.7059L4.64439 17.7063L4.64289 17.7067L4.64138 17.7071L4.63988 17.7075L4.63839 17.7079L4.63689 17.7083L4.6354 17.7087L4.63391 17.7091L4.63243 17.7095L4.63094 17.7099L4.62946 17.7103L4.62799 17.7107L4.62651 17.7111L4.62504 17.7115L4.62357 17.7119L4.62211 17.7123L4.62064 17.7127L4.61918 17.713L4.61772 17.7134L4.61627 17.7138L4.61481 17.7142L4.61336 17.7146L4.61191 17.715L4.61047 17.7154L4.60902 17.7158L4.60758 17.7162L4.60614 17.7165L4.60471 17.7169L4.60327 17.7173L4.60184 17.7177L4.60041 17.7181L4.59899 17.7185L4.59756 17.7188L4.59614 17.7192L4.59472 17.7196L4.5933 17.72L4.59188 17.7204L4.59047 17.7207L4.58906 17.7211L4.58765 17.7215L4.58624 17.7219L4.58483 17.7223L4.58343 17.7226L4.58202 17.723L4.58062 17.7234L4.57922 17.7238L4.57783 17.7241L4.57643 17.7245L4.57504 17.7249L4.57365 17.7252L4.57226 17.7256L4.57087 17.726L4.56948 17.7264L4.5681 17.7267L4.56672 17.7271L4.56534 17.7275L4.56396 17.7278L4.56258 17.7282L4.5612 17.7286L4.55983 17.729L4.55845 17.7293L4.55708 17.7297L4.55571 17.7301L4.55434 17.7304L4.55297 17.7308L4.55161 17.7312L4.55024 17.7315L4.54888 17.7319L4.54751 17.7323L4.54615 17.7326L4.54479 17.733L4.54343 17.7333L4.54207 17.7337L4.54072 17.7341L4.53936 17.7344L4.53801 17.7348L4.53665 17.7352L4.5353 17.7355L4.53395 17.7359L4.5326 17.7362L4.53125 17.7366L4.5299 17.737L4.52855 17.7373L4.5272 17.7377L4.52586 17.7381L4.52451 17.7384L4.52317 17.7388L4.52183 17.7391L4.52048 17.7395L4.51914 17.7399L4.5178 17.7402L4.51646 17.7406L4.51512 17.7409L4.51378 17.7413L4.51244 17.7416L4.5111 17.742L4.50976 17.7424L4.50842 17.7427L4.50709 17.7431L4.50575 17.7434L4.50441 17.7438L4.50308 17.7442L4.50174 17.7445L4.50041 17.7449L4.49907 17.7452L4.49774 17.7456L4.4964 17.7459L4.49507 17.7463L4.49374 17.7467L4.4924 17.747L4.49107 17.7474L4.48974 17.7477L4.4884 17.7481L4.48707 17.7484L4.48574 17.7488L4.4844 17.7492L4.48307 17.7495L4.48174 17.7499L4.4804 17.7502L4.47907 17.7506L4.47774 17.7509L4.4764 17.7513L4.47507 17.7517L4.47374 17.752L4.4724 17.7524L4.47107 17.7527L4.46973 17.7531L4.4684 17.7534L4.46706 17.7538L4.46573 17.7542L4.46439 17.7545L4.46306 17.7549L4.46172 17.7552L4.46038 17.7556L4.45905 17.756L4.45771 17.7563L4.45637 17.7567L4.45503 17.757L4.45369 17.7574L4.45235 17.7577L4.45101 17.7581L4.44967 17.7585L4.44832 17.7588L4.44698 17.7592L4.44564 17.7595L4.44429 17.7599L4.44295 17.7603L4.4416 17.7606L4.44026 17.761L4.43891 17.7614L4.43756 17.7617L4.43621 17.7621L4.43486 17.7624L4.43351 17.7628L4.43215 17.7632L4.4308 17.7635L4.42945 17.7639L4.42809 17.7643L4.42673 17.7646L4.42538 17.765L4.42402 17.7653L4.42266 17.7657L4.42129 17.7661L4.41993 17.7664L4.41857 17.7668L4.4172 17.7672L4.41583 17.7675L4.41447 17.7679L4.4131 17.7683L4.41173 17.7686L4.41035 17.769L4.40898 17.7694L4.40761 17.7697L4.40623 17.7701L4.40485 17.7705L4.40347 17.7708L4.40209 17.7712L4.40071 17.7716L4.39932 17.772L4.39794 17.7723L4.39655 17.7727L4.39516 17.7731L4.39377 17.7734L4.39237 17.7738L4.39098 17.7742L4.38958 17.7746L4.38818 17.7749L4.38678 17.7753L4.38538 17.7757L4.38398 17.7761L4.38257 17.7764L4.38116 17.7768L4.37975 17.7772L4.37834 17.7776L4.37692 17.778L4.37551 17.7783L4.37409 17.7787L4.37267 17.7791L4.37125 17.7795L4.36982 17.7799L4.36839 17.7802L4.36696 17.7806L4.36553 17.781L4.3641 17.7814L4.36266 17.7818L4.36122 17.7822L4.35978 17.7826L4.35834 17.7829L4.35689 17.7833L4.35544 17.7837L4.35399 17.7841L4.35254 17.7845L4.35108 17.7849L4.34963 17.7853L4.34816 17.7857L4.3467 17.7861L4.34523 17.7865L4.34377 17.7868L4.34229 17.7872L4.34082 17.7876L4.33934 17.788L4.33786 17.7884L4.33638 17.7888L4.33489 17.7892L4.33341 17.7896L4.33192 17.79L4.33042 17.7904L4.32892 17.7908L4.32742 17.7912L4.32592 17.7916L4.32441 17.792L4.32291 17.7924L4.32139 17.7928L4.31988 17.7932L4.31836 17.7937L4.31684 17.7941L4.31531 17.7945L4.31379 17.7949L4.31226 17.7953L4.31072 17.7957L4.30918 17.7961L4.30764 17.7965L4.3061 17.7969L4.30455 17.7974L4.303 17.7978L4.30145 17.7982L4.29989 17.7986L4.29833 17.799L4.29676 17.7994L4.29519 17.7999L4.29362 17.8003L4.29205 17.8007L4.29047 17.8011L4.28889 17.8015L4.2873 17.802L4.28571 17.8024L4.28412 17.8028L4.28252 17.8033L4.28092 17.8037L4.27931 17.8041L4.2777 17.8045L4.27609 17.805L4.27448 17.8054L4.27286 17.8058L4.27123 17.8063L4.2696 17.8067L4.26797 17.8072L4.26634 17.8076L4.2647 17.808L4.26305 17.8085L4.2614 17.8089L4.25975 17.8094L4.2581 17.8098L4.25644 17.8102L4.25477 17.8107L4.2531 17.8111L4.25143 17.8116L4.24975 17.812L4.24807 17.8125L4.24638 17.8129L4.24469 17.8134L4.243 17.8138L4.2413 17.8143L4.2396 17.8148L4.23789 17.8152L4.23618 17.8157L4.23446 17.8161L4.23274 17.8166L4.23102 17.8171L4.22929 17.8175L4.22755 17.818L4.22581 17.8185L4.22407 17.8189L4.22232 17.8194L4.22056 17.8199L4.21881 17.8203L4.21704 17.8208L4.21528 17.8213L4.2135 17.8217L4.21173 17.8222L4.20994 17.8227L4.20816 17.8232L4.20636 17.8237L4.20457 17.8241L4.20277 17.8246L4.20096 17.8251L4.19915 17.8256L4.19733 17.8261L4.19551 17.8266L4.19368 17.8271L4.19185 17.8276L4.19001 17.828L4.18817 17.8285L4.18632 17.829L4.18447 17.8295L4.18261 17.83L4.18075 17.8305L4.17888 17.831L4.177 17.8315L4.17512 17.832L4.17324 17.8325L4.17135 17.833L4.16945 17.8336L4.16755 17.8341L4.16565 17.8346L4.16373 17.8351L4.16182 17.8356L4.15989 17.8361L4.15796 17.8366L4.15603 17.8371L4.15409 17.8377L4.15214 17.8382L4.15019 17.8387L4.14824 17.8392L4.14627 17.8398L4.1443 17.8403L4.14233 17.8408L4.14035 17.8414L4.13836 17.8419L4.13637 17.8424L4.13437 17.843L4.13237 17.8435L4.13036 17.844L4.12834 17.8446L4.12632 17.8451L4.12429 17.8457L4.12226 17.8462L4.12022 17.8467L4.11817 17.8473L4.11612 17.8478L4.11406 17.8484L4.112 17.8489L4.10993 17.8495L4.10785 17.8501L4.10576 17.8506L4.10367 17.8512L4.10158 17.8517L4.09948 17.8523L4.09737 17.8529L4.09525 17.8534L4.09313 17.854L4.091 17.8546L4.08887 17.8551L4.08673 17.8557L4.08458 17.8563L4.08242 17.8569L4.08026 17.8575L4.07809 17.858L4.07592 17.8586L4.07374 17.8592L4.07155 17.8598L4.06936 17.8604C3.64093 17.9752 3.20053 17.7209 3.08573 17.2925C2.97094 16.864 3.2252 16.4237 3.65363 16.3089L3.67951 16.4054L3.65363 16.3089L3.65365 16.3088L3.65368 16.3088L3.65371 16.3088L3.65376 16.3088L3.65382 16.3088L3.65388 16.3088L3.65396 16.3088L3.65405 16.3087L3.65415 16.3087L3.65425 16.3087L3.65437 16.3087L3.6545 16.3086L3.65464 16.3086L3.65479 16.3085L3.65495 16.3085L3.65511 16.3085L3.65529 16.3084L3.65548 16.3084L3.65568 16.3083L3.65589 16.3082L3.65611 16.3082L3.65634 16.3081L3.65657 16.3081L3.65682 16.308L3.65708 16.3079L3.65735 16.3079L3.65762 16.3078L3.65791 16.3077L3.65821 16.3076L3.65851 16.3075L3.65883 16.3075L3.65916 16.3074L3.65949 16.3073L3.65984 16.3072L3.66019 16.3071L3.66056 16.307L3.66093 16.3069L3.66131 16.3068L3.66171 16.3067L3.66211 16.3066L3.66252 16.3065L3.66294 16.3064L3.66337 16.3062L3.66381 16.3061L3.66426 16.306L3.66472 16.3059L3.66519 16.3058L3.66566 16.3056L3.66615 16.3055L3.66664 16.3054L3.66715 16.3052L3.66766 16.3051L3.66819 16.305L3.66872 16.3048L3.66926 16.3047L3.66981 16.3045L3.67037 16.3044L3.67094 16.3042L3.67151 16.3041L3.6721 16.3039L3.6727 16.3037L3.6733 16.3036L3.67391 16.3034L3.67453 16.3033L3.67517 16.3031L3.67581 16.3029L3.67645 16.3027L3.67711 16.3026L3.67778 16.3024L3.67845 16.3022L3.67914 16.302L3.67983 16.3018L3.68053 16.3016L3.68124 16.3015L3.68196 16.3013L3.68268 16.3011L3.68342 16.3009L3.68416 16.3007L3.68491 16.3005L3.68568 16.3003L3.68644 16.3001L3.68722 16.2999L3.68801 16.2996L3.6888 16.2994L3.68961 16.2992L3.69042 16.299L3.69124 16.2988L3.69207 16.2986L3.6929 16.2983L3.69375 16.2981L3.6946 16.2979L3.69546 16.2976L3.69633 16.2974L3.69721 16.2972L3.69809 16.2969L3.69899 16.2967L3.69989 16.2965L3.7008 16.2962L3.70172 16.296L3.70264 16.2957L3.70358 16.2955L3.70452 16.2952L3.70547 16.295L3.70642 16.2947L3.70739 16.2944L3.70836 16.2942L3.70935 16.2939L3.71033 16.2937L3.71133 16.2934L3.71234 16.2931L3.71335 16.2929L3.71437 16.2926L3.7154 16.2923L3.71643 16.292L3.71748 16.2917L3.71853 16.2915L3.71959 16.2912L3.72065 16.2909L3.72173 16.2906L3.72281 16.2903L3.7239 16.29L3.72499 16.2897L3.7261 16.2894L3.72721 16.2891L3.72833 16.2888L3.72945 16.2885L3.73059 16.2882L3.73173 16.2879L3.73287 16.2876L3.73403 16.2873L3.73519 16.287L3.73636 16.2867L3.73754 16.2864L3.73872 16.2861L3.73992 16.2857L3.74111 16.2854L3.74232 16.2851L3.74353 16.2848L3.74475 16.2844L3.74598 16.2841L3.74721 16.2838L3.74846 16.2834L3.7497 16.2831L3.75096 16.2828L3.75222 16.2824L3.75349 16.2821L3.75477 16.2818L3.75605 16.2814L3.75734 16.2811L3.75864 16.2807L3.75994 16.2804L3.76125 16.28L3.76257 16.2797L3.76389 16.2793L3.76522 16.279L3.76656 16.2786L3.7679 16.2782L3.76925 16.2779L3.77061 16.2775L3.77197 16.2771L3.77334 16.2768L3.77472 16.2764L3.7761 16.276L3.77749 16.2757L3.77889 16.2753L3.78029 16.2749L3.7817 16.2745L3.78311 16.2742L3.78454 16.2738L3.78596 16.2734L3.7874 16.273L3.78884 16.2726L3.79029 16.2722L3.79174 16.2718L3.7932 16.2715L3.79466 16.2711L3.79614 16.2707L3.79761 16.2703L3.7991 16.2699L3.80059 16.2695L3.80208 16.2691L3.80359 16.2687L3.8051 16.2683L3.80661 16.2679L3.80813 16.2675L3.80966 16.267L3.81119 16.2666L3.81273 16.2662L3.81427 16.2658L3.81582 16.2654L3.81738 16.265L3.81894 16.2646L3.82051 16.2641L3.82208 16.2637L3.82366 16.2633L3.82524 16.2629L3.82683 16.2624L3.82843 16.262L3.83003 16.2616L3.83164 16.2612L3.83325 16.2607L3.83487 16.2603L3.83649 16.2599L3.83812 16.2594L3.83976 16.259L3.8414 16.2585L3.84305 16.2581L3.8447 16.2577L3.84636 16.2572L3.84802 16.2568L3.84969 16.2563L3.85136 16.2559L3.85304 16.2554L3.85472 16.255L3.85641 16.2545L3.8581 16.2541L3.8598 16.2536L3.86151 16.2532L3.86322 16.2527L3.86493 16.2522L3.86665 16.2518L3.86838 16.2513L3.87011 16.2508L3.87184 16.2504L3.87358 16.2499L3.87533 16.2494L3.87708 16.249L3.87884 16.2485L3.8806 16.248L3.88236 16.2476L3.88413 16.2471L3.88591 16.2466L3.88769 16.2461L3.88947 16.2457L3.89126 16.2452L3.89305 16.2447L3.89485 16.2442L3.89666 16.2437L3.89847 16.2433L3.90028 16.2428L3.9021 16.2423L3.90392 16.2418L3.90575 16.2413L3.90758 16.2408L3.90941 16.2403L3.91125 16.2398L3.9131 16.2393L3.91495 16.2388L3.9168 16.2383L3.91866 16.2378L3.92052 16.2373L3.92239 16.2368L3.92426 16.2363L3.92614 16.2358L3.92802 16.2353L3.9299 16.2348L3.93179 16.2343L3.93369 16.2338L3.93558 16.2333L3.93749 16.2328L3.93939 16.2323L3.9413 16.2318L3.94322 16.2313L3.94513 16.2307L3.94706 16.2302L3.94898 16.2297L3.95091 16.2292L3.95285 16.2287L3.95478 16.2282L3.95673 16.2276L3.95867 16.2271L3.96062 16.2266L3.96258 16.2261L3.96453 16.2255L3.9665 16.225L3.96846 16.2245L3.97043 16.224L3.9724 16.2234L3.97438 16.2229L3.97636 16.2224L3.97835 16.2218L3.98033 16.2213L3.98232 16.2208L3.98432 16.2202L3.98632 16.2197L3.98832 16.2192L3.99033 16.2186L3.99234 16.2181L3.99435 16.2176L3.99636 16.217L3.99838 16.2165L4.00041 16.2159L4.00243 16.2154L4.00446 16.2148L4.0065 16.2143L4.00853 16.2138L4.01057 16.2132L4.01262 16.2127L4.01466 16.2121L4.01671 16.2116L4.01877 16.211L4.02082 16.2105L4.02288 16.2099L4.02495 16.2094L4.02701 16.2088L4.02908 16.2083L4.03115 16.2077L4.03323 16.2071L4.0353 16.2066L4.03739 16.206L4.03947 16.2055L4.04156 16.2049L4.04365 16.2043L4.04574 16.2038L4.04783 16.2032L4.04993 16.2027L4.05203 16.2021L4.05414 16.2015L4.05624 16.201L4.05835 16.2004L4.06047 16.1998L4.06258 16.1993L4.0647 16.1987L4.06682 16.1981L4.06894 16.1976L4.07107 16.197L4.0732 16.1964L4.07533 16.1959L4.07746 16.1953L4.0796 16.1947L4.08174 16.1941L4.08388 16.1936L4.08602 16.193L4.08817 16.1924L4.09031 16.1918L4.09246 16.1913L4.09462 16.1907L4.09677 16.1901L4.09893 16.1895L4.10109 16.189L4.10325 16.1884L4.10542 16.1878L4.10758 16.1872L4.10975 16.1866L4.11192 16.1861L4.11409 16.1855L4.11627 16.1849L4.11845 16.1843L4.12063 16.1837L4.12281 16.1831L4.12499 16.1826L4.12718 16.182L4.12936 16.1814L4.13155 16.1808L4.13374 16.1802L4.13594 16.1796L4.13813 16.179L4.14033 16.1784L4.14253 16.1779L4.14473 16.1773L4.14693 16.1767L4.14913 16.1761L4.15134 16.1755L4.15355 16.1749L4.15576 16.1743L4.15797 16.1737L4.16018 16.1731L4.16239 16.1725L4.16461 16.1719L4.16683 16.1713L4.16905 16.1707L4.17127 16.1702L4.17349 16.1696L4.17571 16.169L4.17794 16.1684L4.18016 16.1678L4.18239 16.1672L4.18462 16.1666L4.18685 16.166L4.18908 16.1654L4.19131 16.1648L4.19355 16.1642L4.19578 16.1636L4.19802 16.163L4.20026 16.1624L4.2025 16.1618L4.20474 16.1612L4.20698 16.1606L4.20922 16.16L4.21146 16.1594L4.21371 16.1588L4.21595 16.1582L4.2182 16.1576L4.22045 16.157L4.2227 16.1564L4.22495 16.1558L4.2272 16.1552L4.22945 16.1546L4.2317 16.154L4.23395 16.1534L4.23621 16.1528L4.23846 16.1521L4.24072 16.1515L4.24297 16.1509L4.24523 16.1503L4.24749 16.1497L4.24975 16.1491L4.25201 16.1485L4.25426 16.1479L4.25652 16.1473L4.25879 16.1467L4.26105 16.1461L4.26331 16.1455L4.26557 16.1449L4.26783 16.1443L4.2701 16.1437L4.27236 16.1431L4.27463 16.1425L4.27689 16.1419L4.27916 16.1412L4.28142 16.1406L4.28369 16.14L4.28595 16.1394L4.28822 16.1388L4.29049 16.1382L4.29275 16.1376L4.29502 16.137L4.29729 16.1364L4.29955 16.1358L4.30182 16.1352L4.30409 16.1346L4.30636 16.134L4.30862 16.1333L4.31089 16.1327L4.31316 16.1321L4.31543 16.1315L4.31769 16.1309L4.31996 16.1303L4.32223 16.1297L4.3245 16.1291L4.32676 16.1285L4.32903 16.1279L4.3313 16.1273L4.33357 16.1267L4.33583 16.1261L4.3381 16.1255L4.34036 16.1248L4.34263 16.1242L4.3449 16.1236L4.34716 16.123L4.34942 16.1224L4.35169 16.1218L4.35395 16.1212L4.35622 16.1206L4.35848 16.12L4.36074 16.1194L4.363 16.1188L4.36527 16.1182L4.36753 16.1176L4.36979 16.117L4.37205 16.1164L4.3743 16.1157L4.37656 16.1151L4.37882 16.1145L4.38108 16.1139L4.38333 16.1133L4.38559 16.1127L4.38784 16.1121L4.3901 16.1115L4.39235 16.1109L4.3946 16.1103L4.39685 16.1097L4.39911 16.1091L4.40135 16.1085L4.4036 16.1079L4.40585 16.1073L4.4081 16.1067L4.41034 16.1061L4.41259 16.1055L4.41483 16.1049L4.41707 16.1043L4.41932 16.1037L4.42156 16.1031L4.42379 16.1025L4.42603 16.1019L4.42827 16.1013L4.4305 16.1007L4.43274 16.1001L4.43497 16.0995L4.4372 16.0989L4.43943 16.0983L4.44166 16.0977L4.44389 16.0971L4.44612 16.0965L4.44834 16.0959L4.45056 16.0953L4.45278 16.0947L4.45501 16.0941L4.45722 16.0935L4.45944 16.0929L4.46166 16.0923L4.46387 16.0918L4.46608 16.0912L4.46829 16.0906L4.4705 16.09L4.47271 16.0894L4.47492 16.0888L4.47712 16.0882L4.47932 16.0876L4.48152 16.087L4.48372 16.0864C4.91215 15.9716 5.35255 16.2259 5.46734 16.6543Z" fill="#041836" stroke="#041836" stroke-width="0.2"/>
<path d="M18.0854 16.6543C17.9706 17.0828 18.2249 17.5232 18.6533 17.6379L18.6555 17.6385L18.6577 17.6391L18.6598 17.6397L18.662 17.6403L18.6642 17.6409L18.6664 17.6415L18.6685 17.642L18.6707 17.6426L18.6728 17.6432L18.6749 17.6437L18.6771 17.6443L18.6792 17.6449L18.6813 17.6455L18.6834 17.646L18.6855 17.6466L18.6876 17.6471L18.6897 17.6477L18.6918 17.6483L18.6939 17.6488L18.6959 17.6494L18.698 17.6499L18.7 17.6505L18.7021 17.651L18.7041 17.6516L18.7062 17.6521L18.7082 17.6527L18.7102 17.6532L18.7123 17.6538L18.7143 17.6543L18.7163 17.6548L18.7183 17.6554L18.7203 17.6559L18.7223 17.6564L18.7243 17.657L18.7263 17.6575L18.7282 17.658L18.7302 17.6586L18.7322 17.6591L18.7341 17.6596L18.7361 17.6601L18.738 17.6607L18.74 17.6612L18.7419 17.6617L18.7438 17.6622L18.7457 17.6627L18.7477 17.6632L18.7496 17.6638L18.7515 17.6643L18.7534 17.6648L18.7553 17.6653L18.7572 17.6658L18.7591 17.6663L18.7609 17.6668L18.7628 17.6673L18.7647 17.6678L18.7665 17.6683L18.7684 17.6688L18.7702 17.6693L18.7721 17.6698L18.7739 17.6703L18.7758 17.6708L18.7776 17.6713L18.7794 17.6718L18.7813 17.6722L18.7831 17.6727L18.7849 17.6732L18.7867 17.6737L18.7885 17.6742L18.7903 17.6747L18.7921 17.6751L18.7939 17.6756L18.7957 17.6761L18.7974 17.6766L18.7992 17.677L18.801 17.6775L18.8027 17.678L18.8045 17.6785L18.8062 17.6789L18.808 17.6794L18.8097 17.6799L18.8115 17.6803L18.8132 17.6808L18.8149 17.6813L18.8167 17.6817L18.8184 17.6822L18.8201 17.6826L18.8218 17.6831L18.8235 17.6836L18.8252 17.684L18.8269 17.6845L18.8286 17.6849L18.8303 17.6854L18.832 17.6858L18.8337 17.6863L18.8354 17.6867L18.837 17.6872L18.8387 17.6876L18.8404 17.6881L18.842 17.6885L18.8437 17.689L18.8453 17.6894L18.847 17.6899L18.8486 17.6903L18.8503 17.6907L18.8519 17.6912L18.8535 17.6916L18.8552 17.692L18.8568 17.6925L18.8584 17.6929L18.86 17.6933L18.8616 17.6938L18.8632 17.6942L18.8648 17.6946L18.8664 17.6951L18.868 17.6955L18.8696 17.6959L18.8712 17.6963L18.8728 17.6968L18.8744 17.6972L18.876 17.6976L18.8775 17.698L18.8791 17.6985L18.8807 17.6989L18.8823 17.6993L18.8838 17.6997L18.8854 17.7001L18.8869 17.7006L18.8885 17.701L18.89 17.7014L18.8916 17.7018L18.8931 17.7022L18.8946 17.7026L18.8962 17.703L18.8977 17.7034L18.8992 17.7039L18.9008 17.7043L18.9023 17.7047L18.9038 17.7051L18.9053 17.7055L18.9068 17.7059L18.9083 17.7063L18.9098 17.7067L18.9114 17.7071L18.9129 17.7075L18.9143 17.7079L18.9158 17.7083L18.9173 17.7087L18.9188 17.7091L18.9203 17.7095L18.9218 17.7099L18.9233 17.7103L18.9247 17.7107L18.9262 17.7111L18.9277 17.7115L18.9292 17.7119L18.9306 17.7123L18.9321 17.7127L18.9336 17.713L18.935 17.7134L18.9365 17.7138L18.9379 17.7142L18.9394 17.7146L18.9408 17.715L18.9423 17.7154L18.9437 17.7158L18.9452 17.7162L18.9466 17.7165L18.948 17.7169L18.9495 17.7173L18.9509 17.7177L18.9523 17.7181L18.9537 17.7185L18.9552 17.7188L18.9566 17.7192L18.958 17.7196L18.9594 17.72L18.9609 17.7204L18.9623 17.7207L18.9637 17.7211L18.9651 17.7215L18.9665 17.7219L18.9679 17.7223L18.9693 17.7226L18.9707 17.723L18.9721 17.7234L18.9735 17.7238L18.9749 17.7241L18.9763 17.7245L18.9777 17.7249L18.9791 17.7252L18.9805 17.7256L18.9819 17.726L18.9832 17.7264L18.9846 17.7267L18.986 17.7271L18.9874 17.7275L18.9888 17.7278L18.9902 17.7282L18.9915 17.7286L18.9929 17.729L18.9943 17.7293L18.9957 17.7297L18.997 17.7301L18.9984 17.7304L18.9998 17.7308L19.0011 17.7312L19.0025 17.7315L19.0039 17.7319L19.0052 17.7323L19.0066 17.7326L19.0079 17.733L19.0093 17.7333L19.0107 17.7337L19.012 17.7341L19.0134 17.7344L19.0147 17.7348L19.0161 17.7352L19.0174 17.7355L19.0188 17.7359L19.0201 17.7362L19.0215 17.7366L19.0228 17.737L19.0242 17.7373L19.0255 17.7377L19.0269 17.7381L19.0282 17.7384L19.0296 17.7388L19.0309 17.7391L19.0323 17.7395L19.0336 17.7399L19.0349 17.7402L19.0363 17.7406L19.0376 17.7409L19.039 17.7413L19.0403 17.7416L19.0416 17.742L19.043 17.7424L19.0443 17.7427L19.0456 17.7431L19.047 17.7434L19.0483 17.7438L19.0497 17.7442L19.051 17.7445L19.0523 17.7449L19.0537 17.7452L19.055 17.7456L19.0563 17.7459L19.0577 17.7463L19.059 17.7467L19.0603 17.747L19.0617 17.7474L19.063 17.7477L19.0643 17.7481L19.0657 17.7484L19.067 17.7488L19.0683 17.7492L19.0697 17.7495L19.071 17.7499L19.0723 17.7502L19.0737 17.7506L19.075 17.7509L19.0763 17.7513L19.0777 17.7517L19.079 17.752L19.0803 17.7524L19.0817 17.7527L19.083 17.7531L19.0843 17.7534L19.0857 17.7538L19.087 17.7542L19.0883 17.7545L19.0897 17.7549L19.091 17.7552L19.0924 17.7556L19.0937 17.756L19.095 17.7563L19.0964 17.7567L19.0977 17.757L19.099 17.7574L19.1004 17.7577L19.1017 17.7581L19.1031 17.7585L19.1044 17.7588L19.1058 17.7592L19.1071 17.7595L19.1084 17.7599L19.1098 17.7603L19.1111 17.7606L19.1125 17.761L19.1138 17.7614L19.1152 17.7617L19.1165 17.7621L19.1179 17.7624L19.1192 17.7628L19.1206 17.7632L19.1219 17.7635L19.1233 17.7639L19.1246 17.7643L19.126 17.7646L19.1274 17.765L19.1287 17.7653L19.1301 17.7657L19.1314 17.7661L19.1328 17.7664L19.1342 17.7668L19.1355 17.7672L19.1369 17.7675L19.1383 17.7679L19.1396 17.7683L19.141 17.7686L19.1424 17.769L19.1438 17.7694L19.1451 17.7697L19.1465 17.7701L19.1479 17.7705L19.1493 17.7708L19.1506 17.7712L19.152 17.7716L19.1534 17.772L19.1548 17.7723L19.1562 17.7727L19.1576 17.7731L19.159 17.7734L19.1604 17.7738L19.1618 17.7742L19.1632 17.7746L19.1646 17.7749L19.166 17.7753L19.1674 17.7757L19.1688 17.7761L19.1702 17.7764L19.1716 17.7768L19.173 17.7772L19.1744 17.7776L19.1758 17.778L19.1772 17.7783L19.1786 17.7787L19.1801 17.7791L19.1815 17.7795L19.1829 17.7799L19.1843 17.7802L19.1858 17.7806L19.1872 17.781L19.1886 17.7814L19.1901 17.7818L19.1915 17.7822L19.193 17.7826L19.1944 17.7829L19.1958 17.7833L19.1973 17.7837L19.1987 17.7841L19.2002 17.7845L19.2016 17.7849L19.2031 17.7853L19.2046 17.7857L19.206 17.7861L19.2075 17.7865L19.209 17.7868L19.2104 17.7872L19.2119 17.7876L19.2134 17.788L19.2149 17.7884L19.2164 17.7888L19.2178 17.7892L19.2193 17.7896L19.2208 17.79L19.2223 17.7904L19.2238 17.7908L19.2253 17.7912L19.2268 17.7916L19.2283 17.792L19.2298 17.7924L19.2313 17.7928L19.2329 17.7932L19.2344 17.7937L19.2359 17.7941L19.2374 17.7945L19.2389 17.7949L19.2405 17.7953L19.242 17.7957L19.2436 17.7961L19.2451 17.7965L19.2466 17.7969L19.2482 17.7974L19.2497 17.7978L19.2513 17.7982L19.2528 17.7986L19.2544 17.799L19.256 17.7994L19.2575 17.7999L19.2591 17.8003L19.2607 17.8007L19.2623 17.8011L19.2638 17.8015L19.2654 17.802L19.267 17.8024L19.2686 17.8028L19.2702 17.8033L19.2718 17.8037L19.2734 17.8041L19.275 17.8045L19.2766 17.805L19.2783 17.8054L19.2799 17.8058L19.2815 17.8063L19.2831 17.8067L19.2848 17.8072L19.2864 17.8076L19.288 17.808L19.2897 17.8085L19.2913 17.8089L19.293 17.8094L19.2946 17.8098L19.2963 17.8102L19.298 17.8107L19.2996 17.8111L19.3013 17.8116L19.303 17.812L19.3047 17.8125L19.3063 17.8129L19.308 17.8134L19.3097 17.8138L19.3114 17.8143L19.3131 17.8148L19.3148 17.8152L19.3166 17.8157L19.3183 17.8161L19.32 17.8166L19.3217 17.8171L19.3234 17.8175L19.3252 17.818L19.3269 17.8185L19.3287 17.8189L19.3304 17.8194L19.3322 17.8199L19.3339 17.8203L19.3357 17.8208L19.3375 17.8213L19.3392 17.8217L19.341 17.8222L19.3428 17.8227L19.3446 17.8232L19.3464 17.8237L19.3482 17.8241L19.35 17.8246L19.3518 17.8251L19.3536 17.8256L19.3554 17.8261L19.3572 17.8266L19.3591 17.8271L19.3609 17.8276L19.3627 17.828L19.3646 17.8285L19.3664 17.829L19.3683 17.8295L19.3701 17.83L19.372 17.8305L19.3739 17.831L19.3757 17.8315L19.3776 17.832L19.3795 17.8325L19.3814 17.833L19.3833 17.8336L19.3852 17.8341L19.3871 17.8346L19.389 17.8351L19.3909 17.8356L19.3928 17.8361L19.3948 17.8366L19.3967 17.8371L19.3986 17.8377L19.4006 17.8382L19.4025 17.8387L19.4045 17.8392L19.4065 17.8398L19.4084 17.8403L19.4104 17.8408L19.4124 17.8414L19.4144 17.8419L19.4164 17.8424L19.4184 17.843L19.4204 17.8435L19.4224 17.844L19.4244 17.8446L19.4264 17.8451L19.4284 17.8457L19.4305 17.8462L19.4325 17.8467L19.4346 17.8473L19.4366 17.8478L19.4387 17.8484L19.4407 17.8489L19.4428 17.8495L19.4449 17.8501L19.447 17.8506L19.4491 17.8512L19.4512 17.8517L19.4533 17.8523L19.4554 17.8529L19.4575 17.8534L19.4596 17.854L19.4617 17.8546L19.4639 17.8551L19.466 17.8557L19.4682 17.8563L19.4703 17.8569L19.4725 17.8575L19.4746 17.858L19.4768 17.8586L19.479 17.8592L19.4812 17.8598L19.4834 17.8604C19.9118 17.9752 20.3522 17.7209 20.467 17.2925C20.5818 16.864 20.3275 16.4237 19.8991 16.3089L19.8732 16.4054L19.8991 16.3089L19.8991 16.3088L19.8991 16.3088L19.899 16.3088L19.899 16.3088L19.8989 16.3088L19.8989 16.3088L19.8988 16.3088L19.8987 16.3087L19.8986 16.3087L19.8985 16.3087L19.8984 16.3087L19.8982 16.3086L19.8981 16.3086L19.8979 16.3085L19.8978 16.3085L19.8976 16.3085L19.8974 16.3084L19.8973 16.3084L19.8971 16.3083L19.8968 16.3082L19.8966 16.3082L19.8964 16.3081L19.8962 16.3081L19.8959 16.308L19.8957 16.3079L19.8954 16.3079L19.8951 16.3078L19.8948 16.3077L19.8945 16.3076L19.8942 16.3075L19.8939 16.3075L19.8936 16.3074L19.8932 16.3073L19.8929 16.3072L19.8925 16.3071L19.8922 16.307L19.8918 16.3069L19.8914 16.3068L19.891 16.3067L19.8906 16.3066L19.8902 16.3065L19.8898 16.3064L19.8894 16.3062L19.8889 16.3061L19.8885 16.306L19.888 16.3059L19.8875 16.3058L19.8871 16.3056L19.8866 16.3055L19.8861 16.3054L19.8856 16.3052L19.8851 16.3051L19.8845 16.305L19.884 16.3048L19.8835 16.3047L19.8829 16.3045L19.8824 16.3044L19.8818 16.3042L19.8812 16.3041L19.8806 16.3039L19.88 16.3037L19.8794 16.3036L19.8788 16.3034L19.8782 16.3033L19.8776 16.3031L19.8769 16.3029L19.8763 16.3027L19.8756 16.3026L19.875 16.3024L19.8743 16.3022L19.8736 16.302L19.8729 16.3018L19.8722 16.3016L19.8715 16.3015L19.8708 16.3013L19.8701 16.3011L19.8693 16.3009L19.8686 16.3007L19.8678 16.3005L19.8671 16.3003L19.8663 16.3001L19.8655 16.2999L19.8647 16.2996L19.8639 16.2994L19.8631 16.2992L19.8623 16.299L19.8615 16.2988L19.8607 16.2986L19.8598 16.2983L19.859 16.2981L19.8581 16.2979L19.8573 16.2976L19.8564 16.2974L19.8555 16.2972L19.8546 16.2969L19.8537 16.2967L19.8528 16.2965L19.8519 16.2962L19.851 16.296L19.8501 16.2957L19.8492 16.2955L19.8482 16.2952L19.8473 16.295L19.8463 16.2947L19.8453 16.2944L19.8444 16.2942L19.8434 16.2939L19.8424 16.2937L19.8414 16.2934L19.8404 16.2931L19.8394 16.2929L19.8384 16.2926L19.8373 16.2923L19.8363 16.292L19.8353 16.2917L19.8342 16.2915L19.8331 16.2912L19.8321 16.2909L19.831 16.2906L19.8299 16.2903L19.8288 16.29L19.8277 16.2897L19.8266 16.2894L19.8255 16.2891L19.8244 16.2888L19.8233 16.2885L19.8221 16.2882L19.821 16.2879L19.8199 16.2876L19.8187 16.2873L19.8175 16.287L19.8164 16.2867L19.8152 16.2864L19.814 16.2861L19.8128 16.2857L19.8116 16.2854L19.8104 16.2851L19.8092 16.2848L19.808 16.2844L19.8068 16.2841L19.8055 16.2838L19.8043 16.2834L19.803 16.2831L19.8018 16.2828L19.8005 16.2824L19.7992 16.2821L19.798 16.2818L19.7967 16.2814L19.7954 16.2811L19.7941 16.2807L19.7928 16.2804L19.7915 16.28L19.7902 16.2797L19.7888 16.2793L19.7875 16.279L19.7862 16.2786L19.7848 16.2782L19.7835 16.2779L19.7821 16.2775L19.7808 16.2771L19.7794 16.2768L19.778 16.2764L19.7766 16.276L19.7752 16.2757L19.7738 16.2753L19.7724 16.2749L19.771 16.2745L19.7696 16.2742L19.7682 16.2738L19.7668 16.2734L19.7653 16.273L19.7639 16.2726L19.7624 16.2722L19.761 16.2718L19.7595 16.2715L19.7581 16.2711L19.7566 16.2707L19.7551 16.2703L19.7536 16.2699L19.7521 16.2695L19.7506 16.2691L19.7491 16.2687L19.7476 16.2683L19.7461 16.2679L19.7446 16.2675L19.7431 16.267L19.7415 16.2666L19.74 16.2662L19.7385 16.2658L19.7369 16.2654L19.7354 16.265L19.7338 16.2646L19.7322 16.2641L19.7307 16.2637L19.7291 16.2633L19.7275 16.2629L19.7259 16.2624L19.7243 16.262L19.7227 16.2616L19.7211 16.2612L19.7195 16.2607L19.7179 16.2603L19.7162 16.2599L19.7146 16.2594L19.713 16.259L19.7113 16.2585L19.7097 16.2581L19.708 16.2577L19.7064 16.2572L19.7047 16.2568L19.703 16.2563L19.7014 16.2559L19.6997 16.2554L19.698 16.255L19.6963 16.2545L19.6946 16.2541L19.6929 16.2536L19.6912 16.2532L19.6895 16.2527L19.6878 16.2522L19.6861 16.2518L19.6844 16.2513L19.6826 16.2508L19.6809 16.2504L19.6791 16.2499L19.6774 16.2494L19.6757 16.249L19.6739 16.2485L19.6721 16.248L19.6704 16.2476L19.6686 16.2471L19.6668 16.2466L19.665 16.2461L19.6633 16.2457L19.6615 16.2452L19.6597 16.2447L19.6579 16.2442L19.6561 16.2437L19.6543 16.2433L19.6525 16.2428L19.6506 16.2423L19.6488 16.2418L19.647 16.2413L19.6452 16.2408L19.6433 16.2403L19.6415 16.2398L19.6396 16.2393L19.6378 16.2388L19.6359 16.2383L19.6341 16.2378L19.6322 16.2373L19.6303 16.2368L19.6285 16.2363L19.6266 16.2358L19.6247 16.2353L19.6228 16.2348L19.6209 16.2343L19.619 16.2338L19.6172 16.2333L19.6152 16.2328L19.6133 16.2323L19.6114 16.2318L19.6095 16.2313L19.6076 16.2307L19.6057 16.2302L19.6038 16.2297L19.6018 16.2292L19.5999 16.2287L19.598 16.2282L19.596 16.2276L19.5941 16.2271L19.5921 16.2266L19.5902 16.2261L19.5882 16.2255L19.5862 16.225L19.5843 16.2245L19.5823 16.224L19.5803 16.2234L19.5784 16.2229L19.5764 16.2224L19.5744 16.2218L19.5724 16.2213L19.5704 16.2208L19.5684 16.2202L19.5664 16.2197L19.5644 16.2192L19.5624 16.2186L19.5604 16.2181L19.5584 16.2176L19.5564 16.217L19.5543 16.2165L19.5523 16.2159L19.5503 16.2154L19.5483 16.2148L19.5462 16.2143L19.5442 16.2138L19.5422 16.2132L19.5401 16.2127L19.5381 16.2121L19.536 16.2116L19.534 16.211L19.5319 16.2105L19.5299 16.2099L19.5278 16.2094L19.5257 16.2088L19.5237 16.2083L19.5216 16.2077L19.5195 16.2071L19.5174 16.2066L19.5153 16.206L19.5133 16.2055L19.5112 16.2049L19.5091 16.2043L19.507 16.2038L19.5049 16.2032L19.5028 16.2027L19.5007 16.2021L19.4986 16.2015L19.4965 16.201L19.4944 16.2004L19.4923 16.1998L19.4902 16.1993L19.488 16.1987L19.4859 16.1981L19.4838 16.1976L19.4817 16.197L19.4795 16.1964L19.4774 16.1959L19.4753 16.1953L19.4731 16.1947L19.471 16.1941L19.4689 16.1936L19.4667 16.193L19.4646 16.1924L19.4624 16.1918L19.4603 16.1913L19.4581 16.1907L19.456 16.1901L19.4538 16.1895L19.4516 16.189L19.4495 16.1884L19.4473 16.1878L19.4452 16.1872L19.443 16.1866L19.4408 16.1861L19.4386 16.1855L19.4365 16.1849L19.4343 16.1843L19.4321 16.1837L19.4299 16.1831L19.4277 16.1826L19.4256 16.182L19.4234 16.1814L19.4212 16.1808L19.419 16.1802L19.4168 16.1796L19.4146 16.179L19.4124 16.1784L19.4102 16.1779L19.408 16.1773L19.4058 16.1767L19.4036 16.1761L19.4014 16.1755L19.3992 16.1749L19.397 16.1743L19.3948 16.1737L19.3926 16.1731L19.3903 16.1725L19.3881 16.1719L19.3859 16.1713L19.3837 16.1707L19.3815 16.1702L19.3792 16.1696L19.377 16.169L19.3748 16.1684L19.3726 16.1678L19.3703 16.1672L19.3681 16.1666L19.3659 16.166L19.3637 16.1654L19.3614 16.1648L19.3592 16.1642L19.357 16.1636L19.3547 16.163L19.3525 16.1624L19.3502 16.1618L19.348 16.1612L19.3458 16.1606L19.3435 16.16L19.3413 16.1594L19.339 16.1588L19.3368 16.1582L19.3345 16.1576L19.3323 16.157L19.33 16.1564L19.3278 16.1558L19.3255 16.1552L19.3233 16.1546L19.321 16.154L19.3188 16.1534L19.3165 16.1528L19.3143 16.1521L19.312 16.1515L19.3098 16.1509L19.3075 16.1503L19.3052 16.1497L19.303 16.1491L19.3007 16.1485L19.2985 16.1479L19.2962 16.1473L19.2939 16.1467L19.2917 16.1461L19.2894 16.1455L19.2872 16.1449L19.2849 16.1443L19.2826 16.1437L19.2804 16.1431L19.2781 16.1425L19.2758 16.1419L19.2736 16.1412L19.2713 16.1406L19.269 16.14L19.2668 16.1394L19.2645 16.1388L19.2622 16.1382L19.26 16.1376L19.2577 16.137L19.2554 16.1364L19.2532 16.1358L19.2509 16.1352L19.2486 16.1346L19.2464 16.134L19.2441 16.1333L19.2418 16.1327L19.2396 16.1321L19.2373 16.1315L19.235 16.1309L19.2328 16.1303L19.2305 16.1297L19.2282 16.1291L19.226 16.1285L19.2237 16.1279L19.2214 16.1273L19.2192 16.1267L19.2169 16.1261L19.2146 16.1255L19.2124 16.1248L19.2101 16.1242L19.2078 16.1236L19.2056 16.123L19.2033 16.1224L19.201 16.1218L19.1988 16.1212L19.1965 16.1206L19.1943 16.12L19.192 16.1194L19.1897 16.1188L19.1875 16.1182L19.1852 16.1176L19.1829 16.117L19.1807 16.1164L19.1784 16.1157L19.1762 16.1151L19.1739 16.1145L19.1717 16.1139L19.1694 16.1133L19.1671 16.1127L19.1649 16.1121L19.1626 16.1115L19.1604 16.1109L19.1581 16.1103L19.1559 16.1097L19.1536 16.1091L19.1514 16.1085L19.1491 16.1079L19.1469 16.1073L19.1446 16.1067L19.1424 16.1061L19.1401 16.1055L19.1379 16.1049L19.1357 16.1043L19.1334 16.1037L19.1312 16.1031L19.1289 16.1025L19.1267 16.1019L19.1245 16.1013L19.1222 16.1007L19.12 16.1001L19.1178 16.0995L19.1155 16.0989L19.1133 16.0983L19.1111 16.0977L19.1088 16.0971L19.1066 16.0965L19.1044 16.0959L19.1022 16.0953L19.0999 16.0947L19.0977 16.0941L19.0955 16.0935L19.0933 16.0929L19.0911 16.0923L19.0889 16.0918L19.0867 16.0912L19.0844 16.0906L19.0822 16.09L19.08 16.0894L19.0778 16.0888L19.0756 16.0882L19.0734 16.0876L19.0712 16.087L19.069 16.0864C18.6406 15.9716 18.2002 16.2259 18.0854 16.6543Z" fill="#041836" stroke="#041836" stroke-width="0.2"/>
</svg>
