<svg aria-hidden="true" data-testid="test-icon" fill="currentColor" viewBox="0 0 24 24" xmlns="http://www.w3.org/2000/svg"><path d="M12.638 4.386A4.932 4.932 0 0121 7.896a4.941 4.941 0 01-1.385 3.474l-.01.01-2.467 2.47a4.932 4.932 0 01-7.441-.534.824.824 0 011.317-.986 3.292 3.292 0 003.784 1.113 3.291 3.291 0 001.177-.757l2.461-2.464a3.295 3.295 0 00-2.342-5.576 3.288 3.288 0 00-2.31.92l-1.41 1.404a.822.822 0 11-1.16-1.168l1.415-1.407.009-.009z"/><path d="M8.627 9.015a4.93 4.93 0 015.676 1.669.824.824 0 01-1.317.986 3.292 3.292 0 00-3.784-1.113 3.29 3.29 0 00-1.176.757l-2.462 2.464a3.294 3.294 0 002.342 5.576c.86.007 1.689-.323 2.309-.92l1.4-1.402a.822.822 0 111.164 1.164l-1.406 1.408-.01.01a4.932 4.932 0 01-6.918-.06 4.941 4.941 0 01-.06-6.924l.01-.01 2.467-2.47c.5-.5 1.103-.888 1.765-1.135z"/></svg>
