<svg width="24" height="24" viewBox="0 0 24 24" fill="none" xmlns="http://www.w3.org/2000/svg">
<path d="M4.46519 6.88498C5.78516 6.88498 6.85519 5.81494 6.85519 4.49498C6.85519 3.17502 5.78516 2.10498 4.46519 2.10498C3.14523 2.10498 2.0752 3.17502 2.0752 4.49498C2.0752 5.81494 3.14523 6.88498 4.46519 6.88498Z" fill="black"/>
<path d="M6.4752 8.66498H2.3952V21.855H6.4752V8.66498Z" fill="black"/>
<path d="M17.7752 21.895C19.1552 21.885 20.5452 21.865 21.9252 21.855C21.9152 19.115 21.8952 16.365 21.8852 13.625C21.8852 13.315 21.8552 12.875 21.7652 12.355C21.6652 11.745 21.5852 11.235 21.3052 10.665C21.2052 10.465 20.8252 9.73498 19.9952 9.12498C18.9952 8.39498 17.9652 8.31497 17.4552 8.27497C16.4452 8.20497 15.7052 8.44497 15.5352 8.50497C14.7552 8.76497 14.2352 9.17498 13.9252 9.42498C13.7252 9.58498 13.4352 9.82498 13.1352 10.155V8.65498H9.0552V21.845H13.1352V14.385C13.1352 14.195 13.1652 13.925 13.2652 13.615C13.5352 12.845 14.1152 12.435 14.3052 12.305C14.4852 12.185 14.8152 11.965 15.3052 11.885C15.5252 11.845 16.1252 11.755 16.7252 12.115C17.1852 12.385 17.3952 12.775 17.4952 12.965C17.7552 13.445 17.7652 13.895 17.7652 14.115V21.885L17.7752 21.895Z" fill="black"/>
</svg>
