<svg width="24" height="24" viewBox="0 0 24 24" fill="none" xmlns="http://www.w3.org/2000/svg">
<path d="M12 22.32C9.6 22.32 7.34 21.39 5.64 19.69C3.94 17.99 3 15.73 3 13.32C3 10.92 3.93 8.66 5.63 6.96L11.29 1.29C11.48 1.1 11.73 1 12 1C12.27 1 12.52 1.11 12.71 1.29L18.37 6.95C21.88 10.46 21.88 16.17 18.37 19.68C16.67 21.38 14.41 22.32 12.01 22.32H12ZM12 3.42L7.06 8.37C5.73 9.7 5.01 11.45 5.01 13.33C5.01 15.2 5.74 16.96 7.06 18.28C9.79 21.01 14.23 21.01 16.96 18.28C19.69 15.55 19.69 11.11 16.96 8.38L12 3.42Z" fill="black"/>
<path d="M7.25 15.25C6.82 15.25 6.45 14.94 6.37 14.51C5.97 12.21 6.93 9.87 8.96 8.26C9.31 7.91 9.84 7.94 10.19 8.29C10.54 8.64 10.5 9.24 10.15 9.58C10.13 9.6 10.1 9.63 10.07 9.65C8.54 10.87 7.83 12.53 8.13 14.2C8.22 14.69 7.89 15.15 7.41 15.23C7.36 15.23 7.31 15.24 7.25 15.24V15.25Z" fill="black"/>
<path d="M8.63 18.03C8.38 18.03 8.13 17.93 7.96 17.73C7.89 17.65 7.83 17.58 7.77 17.5C7.46 17.12 7.52 16.56 7.9 16.24C8.28 15.92 8.85 15.99 9.16 16.37L9.31 16.55C9.64 16.92 9.6 17.49 9.23 17.81C9.06 17.96 8.85 18.03 8.64 18.03H8.63Z" fill="black"/>
</svg>
