<?xml version="1.0" encoding="utf-8"?>
<!-- Generator: Adobe Illustrator 23.0.3, SVG Export Plug-In . SVG Version: 6.00 Build 0)  -->
<svg version="1.1" id="lky" xmlns="http://www.w3.org/2000/svg" xmlns:xlink="http://www.w3.org/1999/xlink" x="0px" y="0px"
	 viewBox="0 0 500 500" style="enable-background:new 0 0 500 500;" xml:space="preserve">
<style type="text/css">
	.st0{fill:url(#SVGID_1_);}
</style>
<linearGradient id="SVGID_1_" gradientUnits="userSpaceOnUse" x1="252.9196" y1="497.6571" x2="252.9196" y2="1.8456">
	<stop  offset="0" style="stop-color:#4B1015"/>
	<stop  offset="0.9996" style="stop-color:#AB1B21"/>
</linearGradient>
<path class="st0" d="M257.2,5.7c0.2,1,0.6,1.8,0.5,2.5c-0.6,4.2-2.5,8.7-1.8,12.6c0.7,4,4.4,7.3,6,11.3c0.8,1.8,0.2,4.6-0.6,6.6
	c-5.2,12.6-3.4,25.9-3.2,38.9c0,3,3.2,5.9,5,8.9c1.8-1,2.8-1.5,3.8-2.1c9.1-5.5,15.5-2.3,20,8.7c0.9,2.2,1.4,4.6,2.6,6.5
	c7.3,11.5,8.3,24.5,9.1,37.4c0.7,12.4,0.2,24.9,0.2,37.3c0.1,10.7-0.4,21.2-4,31.6c-2.4,6.9-1.7,14.9-3.3,22.1
	c-2.1,9.6-1.4,19.6-4.2,29.1c-1.3,4.4-1.5,9.9-0.1,14.3c4.1,12.8,1.1,24.8-1.6,37.2c-1.7,8-1.2,16.7-0.9,25c0.1,2.8,3.1,5.3,4.4,8.1
	c2.2,4.6,3.4,9.9,6.4,13.8c3,4,8.1,6.4,11.6,10.1c9.6,10.2,21.1,17.5,33.4,24.1c10.6,5.7,21.2,7.9,32.9,7.5
	c4.7-0.1,9.3-0.4,14.1,1.8c3,1.4,7.3,1.1,10.7,0.1c13.8-4,27.8-1.1,41.7-1.7c2.5-0.1,5.1,1.7,8.2,2.8c-0.3,12.7-4,24.6-8.5,37.4
	c-9.7,1.9-21.5-1.6-33.4,2.2c2.6,5.7,4.4,9.5,6.2,13.4c0.1,0.3,0.9,11.3,0.8,11.3c-4.3,2.5-8,6.9-13.9,3.2c-2.3-1.4-5.1-2.1-7.7-2.8
	c-4-1.1-7,0.1-8.4,4.2c7.2,8.6,8.9,9.3,25,10.1c4.9,4.2,3.8,8.8,0.9,13.5c-0.6,1-1.8,2.4-2.6,2.3c-7.1-0.5-13.6,4-20.8,1.9
	c-2.2-0.6-4.6-1.1-7-1.1c-13.1,0-26-1.6-38.7-4.7c-1.1-0.3-2.4,0-3.6-0.1c-12.3-0.9-24.5-1.7-36.8-2.8c-5.5-0.5-11.1-0.8-16.3-2.5
	c-8.6-2.8-17.3-1.9-26-2.1c-26.1-0.5-49.4-9-70.3-24.2c-9.7-7-21.2-10.1-32.2-14.1c-7-2.5-14.3-4.2-21.5-6c-3-0.8-6.3-1.6-9.3-1.2
	c-11.1,1.4-21.1,5.4-29.7,13c-5.6,5-12,9.1-18.1,13.4c-3.9,2.8-7.8,5.6-13.6,4.4c-6.8-7.1-3.3-16.2-4.4-24.4
	C68.6,432.3,81.3,423,95,414.7c12.1-7.3,24.1-15,36.4-22c7.8-4.4,16-9.6,25.5-7.4c8.1,1.9,14.7,1.5,21.8-3.5
	c7-4.9,14.3-0.5,16.3,8.9c0.7,3.2,0.7,6.2,3.3,8.6c4.2,3.8,5.7,3.7,12-2.4c-2.6-2.2-5.1-4.3-9.1-7.6c1.4-0.6,2.4-1.3,3.4-1.3
	c1.5,0,3.6-0.1,4.4,0.8c3.7,4.2,8.6,4.1,13.3,3.7c4.5-0.4,9.4,1.2,13.4-3.2c5-5.4,9.4-11.2,9.6-18.5c0.5-14.4,0.6-28.9-0.1-43.3
	c-0.4-7.3-2.2-14.8-4.7-21.7c-1.7-4.6-6-8.3-8.5-12.7c-3.8-6.5-7.5-12.6-14.3-16.7c-2.7-1.6-4.8-5.6-5.5-8.8
	c-1.4-6.9-2.5-14.1-2.4-21.1c0.4-18.7,0.8-37.5,2.6-56.1c0.7-7,2.7-14.2,1.6-21.1c-2.6-15.9-1.9-32.2-6.3-47.9
	c-2.2-7.9-2.7-16.4-2.9-24.6c-0.3-12.3-2.1-24.2-4.5-36.3c-1.8-9.5-2.4-19.8,4.1-28.8c3.5-4.7,5.6-10.5,9.3-15
	c2.9-3.6,7-7.5,11.1-8.4c8.6-1.9,16.3-8.5,25.9-5.5C253.3,3.3,255.3,4.7,257.2,5.7z"/>
</svg>
