<?xml version="1.0" encoding="utf-8"?>
<!-- Generator: Adobe Illustrator 25.4.1, SVG Export Plug-In . SVG Version: 6.00 Build 0)  -->
<svg version="1.1" baseProfile="tiny" id="LN" xmlns="http://www.w3.org/2000/svg" xmlns:xlink="http://www.w3.org/1999/xlink"
	 x="0px" y="0px" viewBox="0 0 500 500" overflow="visible" xml:space="preserve">
<path fill="#0B0381" d="M495.7,236c0,92.3-58.7,171.2-141.6,203.3c59.5-39.3,98.5-105.7,98.5-181C452.5,137.4,352,39.5,228,39.5
	c-29.3,0-57.3,5.5-83,15.4c35.9-23.8,79.4-37.7,126.1-37.7C395.1,17.2,495.7,115.2,495.7,236z"/>
<path fill="#00024C" d="M228,39.5c-29.3,0-57.3,5.5-83,15.4C85.5,94.3,46.5,160.7,46.5,236c0,120.8,100.6,218.7,224.6,218.7
	c29.3,0,57.3-5.5,82.9-15.4c59.5-39.3,98.5-105.7,98.5-181C452.5,137.4,352,39.5,228,39.5z M296.1,344.1
	c-18.7,13.9-42.1,22.1-67.3,22.1c-61.8,0-112-49.3-112-110.2c0-52.4,37.2-96.3,87-107.5c18.7-13.9,42.1-22.1,67.3-22.1
	c61.8,0,112,49.3,112,110.2C383.2,289.1,346,332.9,296.1,344.1z"/>
<path fill="#00D397" d="M354,439.3c-35.9,23.8-79.3,37.7-126,37.7c-124,0-224.6-97.9-224.6-218.7C3.4,166,62,87.1,145,54.9
	C85.5,94.3,46.5,160.7,46.5,236c0,120.8,100.6,218.7,224.6,218.7C300.4,454.7,328.4,449.2,354,439.3z"/>
<path fill="#00D397" d="M383.2,236.6c0,52.4-37.2,96.3-87.1,107.5c27.1-20.1,44.7-52.1,44.7-88.1c0-60.9-50.1-110.2-112-110.2
	c-8.6,0-16.9,0.9-24.9,2.7c18.7-13.9,42.1-22.1,67.3-22.1C333.1,126.4,383.2,175.8,383.2,236.6z"/>
<path fill="#0B0381" d="M296.1,344.1c-18.7,13.9-42.1,22.1-67.3,22.1c-61.8,0-112-49.3-112-110.2c0-52.4,37.2-96.3,87-107.5
	c-27.1,20.1-44.6,52.1-44.6,88.1c0,60.9,50.1,110.2,112,110.2C279.8,346.8,288.1,345.9,296.1,344.1z"/>
</svg>
