<svg width="19" height="18" viewBox="0 0 19 18" xmlns="http://www.w3.org/2000/svg">
<path fill-rule="evenodd" clip-rule="evenodd" d="M1.88574 6.625H3.14768C3.27706 4.23291 3.94843 2.60461 5.01517 1.5618C6.20657 0.397133 7.72618 0.125 8.99976 0.125C10.2733 0.125 11.793 0.397133 12.9844 1.5618C14.0511 2.60461 14.7225 4.23291 14.8518 6.625H16.1315C17.167 6.625 18.0065 7.46447 18.0065 8.5V16.1245C18.0065 17.16 17.167 17.9995 16.1315 17.9995H1.88574C0.850209 17.9995 0.0107422 17.16 0.0107422 16.1245V8.5C0.0107422 7.46447 0.850209 6.625 1.88574 6.625ZM4.9004 6.625C5.02618 4.56658 5.598 3.43932 6.23849 2.8132C6.96512 2.10287 7.94552 1.875 8.99976 1.875C10.054 1.875 11.0344 2.10286 11.761 2.81317L12.9844 1.5618C14.0511 2.60461 14.7225 4.23291 14.8518 6.625H4.9004ZM1.76074 8.5C1.76074 8.43096 1.81671 8.375 1.88574 8.375H16.1315C16.2005 8.375 16.2565 8.43096 16.2565 8.5V16.1245C16.2565 16.1935 16.2005 16.2495 16.1315 16.2495H1.88574C1.81671 16.2495 1.76074 16.1935 1.76074 16.1245V8.5ZM9.87477 11.5C9.87477 11.0168 9.48302 10.625 8.99977 10.625C8.51652 10.625 8.12477 11.0168 8.12477 11.5V13.5C8.12477 13.9832 8.51652 14.375 8.99977 14.375C9.48302 14.375 9.87477 13.9832 9.87477 13.5V11.5Z" fill="black"/>
</svg>
