<svg viewBox="0 0 24 24" xmlns="http://www.w3.org/2000/svg" aria-hidden="true" data-testid="test-icon" fill="currentColor"><path d="M17.96 22H4.51c-.55 0-1-.45-1-1s.45-1 1-1h13.44c.42 0 .78-.46.78-1v-4.95c0-.55.45-1 1-1s1 .45 1 1V19c0 1.65-1.25 3-2.78 3h.01zM3.74 17.55c-.55 0-1-.45-1-1V12c0-1.65 1.25-3 2.78-3h13.44c.55 0 1 .45 1 1s-.45 1-1 1H5.51c-.42 0-.78.46-.78 1v4.55c0 .55-.45 1-1 1h.01z"/><path d="M16.74 11c-.55 0-1-.45-1-1V8c0-2.21-1.79-4-4-4s-4 1.79-4 4v2c0 .55-.45 1-1 1s-1-.45-1-1V8c0-3.31 2.69-6 6-6s6 2.69 6 6v2c0 .55-.45 1-1 1zM22.26 17.26c-.26 0-.51-.1-.71-.29l-1.92-1.92-1.92 1.92a.996.996 0 11-1.41-1.41l2.63-2.63a.996.996 0 011.41 0l2.63 2.63a.996.996 0 01-.71 1.7zM3.63 17.89c-.26 0-.51-.1-.71-.29L.29 14.97a.996.996 0 111.41-1.41l1.92 1.92 1.92-1.92a.996.996 0 111.41 1.41L4.32 17.6c-.2.2-.45.29-.71.29h.02zM11.74 17.69c-.55 0-1-.45-1-1v-2c0-.55.45-1 1-1s1 .45 1 1v2c0 .55-.45 1-1 1z"/><defs><clipPath id="prefix__clip0_16372_180596"><path fill="#fff" d="M0 0h24v24H0z"/></clipPath></defs></svg>
