<svg width="19" height="18" viewBox="0 0 19 18" xmlns="http://www.w3.org/2000/svg">
<path fill-rule="evenodd" clip-rule="evenodd" d="M3.14768 6.625H1.88574C0.850209 6.625 0.0107422 7.46447 0.0107422 8.5V16.1245C0.0107422 17.16 0.850209 17.9995 1.88574 17.9995H16.1315C17.167 17.9995 18.0065 17.16 18.0065 16.1245V8.5C18.0065 7.46447 17.167 6.625 16.1315 6.625H14.8518C14.7225 4.23291 14.0511 2.60461 12.9844 1.5618C11.793 0.397133 10.2733 0.125 8.99976 0.125C7.72618 0.125 6.20657 0.397133 5.01517 1.5618C3.94843 2.60461 3.27706 4.23291 3.14768 6.625ZM4.9004 6.625H13.0991C12.9733 4.56658 12.4015 3.43932 11.761 2.8132C11.0344 2.10287 10.054 1.875 8.99976 1.875C7.94552 1.875 6.96512 2.10287 6.23849 2.8132C5.598 3.43932 5.02618 4.56658 4.9004 6.625ZM1.88574 8.375C1.81671 8.375 1.76074 8.43096 1.76074 8.5V16.1245C1.76074 16.1935 1.81671 16.2495 1.88574 16.2495H16.1315C16.2005 16.2495 16.2565 16.1935 16.2565 16.1245V8.5C16.2565 8.43096 16.2005 8.375 16.1315 8.375H1.88574ZM8.99977 10.625C9.48302 10.625 9.87477 11.0168 9.87477 11.5V13.5C9.87477 13.9832 9.48302 14.375 8.99977 14.375C8.51652 14.375 8.12477 13.9832 8.12477 13.5V11.5C8.12477 11.0168 8.51652 10.625 8.99977 10.625Z" fill="black"/>
</svg>
