<svg aria-hidden="true" data-testid="test-icon" fill="currentColor" viewBox="0 0 24 24" xmlns="http://www.w3.org/2000/svg"><path d="M7 3.875A1.125 1.125 0 005.875 5v14A1.125 1.125 0 007 20.125h4a.875.875 0 010 1.75H7A2.875 2.875 0 014.125 19V5A2.875 2.875 0 017 2.125h4a.875.875 0 010 1.75H7zM16.381 7.381a.875.875 0 011.238 0l4 4a.875.875 0 010 1.238l-4 4a.875.875 0 11-1.238-1.238L19.763 12 16.38 8.619a.875.875 0 010-1.238z"/><path d="M11.125 12c0-.483.392-.875.875-.875h9a.875.875 0 010 1.75h-9a.875.875 0 01-.875-.875z"/></svg>
