<?xml version="1.0" encoding="utf-8"?>
<!-- Generator: Adobe Illustrator 25.4.1, SVG Export Plug-In . SVG Version: 6.00 Build 0)  -->
<svg version="1.0" id="lon" xmlns="http://www.w3.org/2000/svg" xmlns:xlink="http://www.w3.org/1999/xlink" x="0px" y="0px"
	 viewBox="0 0 500 500" enable-background="new 0 0 500 500" xml:space="preserve">
<linearGradient id="SVGID_1_" gradientUnits="userSpaceOnUse" x1="1.2" y1="248.15" x2="467.2" y2="248.15" gradientTransform="matrix(1 0 0 1 0 2)">
	<stop  offset="0" style="stop-color:#2D2D4B"/>
	<stop  offset="1" style="stop-color:#1D1D3A"/>
</linearGradient>
<path fill-rule="evenodd" clip-rule="evenodd" fill="url(#SVGID_1_)" d="M251.7,0c-8.9,0-17.9,0.5-26.7,1.5
	C99.1,14.8,1.2,121,1.2,250.2c0,138.1,112.1,250.1,250.5,250.1h0.6c39.9,0,79.1-9.6,114.5-27.9c10.1-5.2,5.7-20.5-5.6-20.2h-0.5
	c-100.2,2.5-190.1-39.8-226.8-118.2c-22-46.9-21.1-90.4-10.9-124.7c0.1-0.3,0.2-0.6,0.2-0.9c5.2-21.2,15-40.7,29.5-55.9
	c1.1-1.3,2.3-2.6,3.6-3.8c0.8-0.9,1.7-1.7,2.6-2.4c0.3-0.4,0.7-0.7,1.1-1c0.3-0.2,0.6-0.5,0.9-0.8c0.6-0.6,1.4-1.2,2.1-1.7
	c24.7-20.1,55.6-31,87.4-30.9c74.7,0,135.3,58.3,135.3,130.3c0,24.7-7.3,48.9-21,69.6c59.7-20.6,102.5-75.6,102.5-140.3
	c0-36.8-13.9-70.4-37-96.5c-9.7-9.9-20.1-19-31.3-27.1l-0.1-0.1C356.3,16.7,304.9,0,252.1,0C251.9,0,251.8,0,251.7,0z"/>
<linearGradient id="SVGID_00000052067926476575698330000000703586996001848974_" gradientUnits="userSpaceOnUse" x1="132.8873" y1="245.2227" x2="499" y2="245.2227" gradientTransform="matrix(1 0 0 1 0 2)">
	<stop  offset="0" style="stop-color:#95A1D4"/>
	<stop  offset="1" style="stop-color:#594DA0"/>
</linearGradient>
<path fill-rule="evenodd" clip-rule="evenodd" fill="url(#SVGID_00000052067926476575698330000000703586996001848974_)" d="
	M465.9,170c0,64.6-40.7,119.6-97.7,140.3c-16,5.9-32.9,8.8-50,8.8c-54.8,0-102.6-30.1-128.1-75c-6.2-10.9-11.1-29.5-14.4-45.3
	c-3.1-15-22.7-18.9-31.3-6.2c-3,4.3-5.2,9.1-6.5,14.2c-0.2,0.7-0.4,1.5-0.6,2.2c-0.1,0.2-0.1,0.4-0.1,0.7
	c-4.1,16.9-5.3,34.4-3.5,51.7c0,0.2,0,0.4,0.1,0.7c0.8,7.9,2.2,15.6,4.2,23.3c2.4,10,5.8,19.8,10.1,29.2
	C179.3,384.4,249,427.4,341,419.9c9.1-0.7,18.1-2,27-3.9c75.9-16,130.5-84.8,131-165.9v-1.5c0-10-0.6-20.1-1.8-30
	c-6-54.2-29.5-105.1-66.8-144.9C453.3,100.6,465.9,134.7,465.9,170z"/>
</svg>
