<?xml version="1.0" encoding="utf-8"?>
<!-- Generator: Adobe Illustrator 26.0.3, SVG Export Plug-In . SVG Version: 6.00 Build 0)  -->
<svg version="1.1" id="looks" xmlns="http://www.w3.org/2000/svg" xmlns:xlink="http://www.w3.org/1999/xlink" x="0px" y="0px"
	 viewBox="0 0 500 500" style="enable-background:new 0 0 500 500;" xml:space="preserve">
<style type="text/css">
	.st0{fill:#71E580;}
	.st1{fill:#FFFFFF;}
</style>
<polygon class="st0" points="149.3,53.3 351.3,53.3 498.3,200.4 250.7,448 2.7,200 "/>
<path d="M84.9,199.6l61.1-61.1c0,0,32.9-38.7,105.2-38.7c76.3,0,105.2,38.7,105.2,38.7L418,200l-57.6,57.6c0,0-36.4,43.3-108.3,43.3
	s-108.3-41.8-108.3-41.8L84.9,199.6z"/>
<path class="st1" d="M251.5,124.5c-41.9,0-75.8,34-75.8,75.8s34,75.8,75.8,75.8c41.9,0,75.8-34,75.8-75.8S293.4,124.5,251.5,124.5z
	 M251.5,233.6c-18.4,0-33.3-14.9-33.3-33.3s14.9-33.3,33.3-33.3c18.4,0,33.3,14.9,33.3,33.3S269.9,233.6,251.5,233.6z"/>
</svg>
