<?xml version="1.0" encoding="iso-8859-1"?>
<!-- Generator: Adobe Illustrator 19.0.0, SVG Export Plug-In . SVG Version: 6.00 Build 0)  -->
<svg version="1.1" id="Layer_1" xmlns="http://www.w3.org/2000/svg" xmlns:xlink="http://www.w3.org/1999/xlink" x="0px" y="0px"
	 viewBox="0 0 500 500" style="enable-background:new 0 0 500 500;" xml:space="preserve">
<g>
	<path style="fill:#4DC0C8;" d="M7.612,153.496c2.608-20.691,10.22-37.502,23.458-52.539c3.127-3.552,7.02-6.545,10.921-9.283
		C68.97,72.74,96.044,53.941,123.647,34.709c5.364,3.729,10.901,7.561,16.419,11.419c24.748,17.303,49.525,34.566,74.229,51.933
		c45.084,31.693,90.127,63.446,135.183,95.18c17.671,12.446,35.332,24.907,52.998,37.361c-5.406,3.974-10.622,8.25-16.287,11.812
		c-3.516,2.211-6.421,5.598-10.812,6.34c-5.214-2.095-9.303-5.913-13.812-9.076c-33.572-23.548-67.101-47.158-100.666-70.715
		c-42.832-30.06-85.677-60.102-128.55-90.104c-2.829-1.979-5.377-4.61-8.503-4.953c-1.942,0.17-2.963,0.849-4.02,1.584
		c-19.405,13.508-38.92,26.86-58.198,40.545c-5.537,3.93-10.347,8.85-14.302,14.491c-15.711,22.406-12.54,57.206,13.577,75.74
		c11.252,7.985,22.414,16.098,33.616,24.154c-5.837,4.204-11.651,8.439-17.519,12.599c-3.013,2.136-5.731,4.786-9.472,5.729
		c-1.919-1.168-3.963-2.174-5.738-3.531c-12.144-9.283-25.924-16.507-35.569-28.933c-10.405-13.405-17.843-27.922-18.571-45.252
		C7.586,169.556,6.823,159.762,7.612,153.496z"/>
	<path style="fill:#05829C;" d="M67.526,248.748c3.741-0.943,6.459-3.593,9.472-5.729c5.868-4.16,11.682-8.395,17.519-12.599
		c1.495-0.89,3.055-1.689,4.477-2.683c24.551-17.162,49.044-34.407,73.646-51.494c7.788-5.409,15.354-11.207,23.841-15.682
		c8.846,6.279,17.409,12.356,26.337,18.693c-1.846,1.479-2.965,2.478-4.183,3.337c-24.078,16.97-48.211,33.863-72.23,50.916
		c-7.751,5.503-16.071,10.233-23.089,16.747c-8.911,4.513-16.169,11.499-24.729,16.543c-0.902,0.532-1.186,1.561-1.08,2.631
		c-2.515-0.343-4.237,1.187-6.11,2.484c-10.148,7.027-20.389,13.922-30.49,21.015c-31.961,22.441-29.943,69.246-0.134,89.833
		c20.75,14.332,41.304,28.948,62.55,43.862c24.006-16.751,48.128-33.583,72.481-50.577c8.783,6.176,17.415,12.247,27.048,19.021
		c-33.272,23.774-66.358,46.451-99.427,69.724c-9.419-6.539-18.524-12.812-27.58-19.156c-17.352-12.154-34.701-24.312-52.004-36.535
		c-19.427-13.723-31.601-32.154-35.836-55.675c-1.722-14.348-0.177-26.88-0.228-29.083c2.646-19.844,11.989-36.131,26.372-49.762
		c6.641-6.294,14.555-10.873,21.796-16.357C59.921,255.209,64.497,252.921,67.526,248.748z"/>
	<path style="fill:#4DC0C8;" d="M97.507,269.427c-0.107-1.07,0.177-2.099,1.08-2.631c8.56-5.043,15.818-12.03,24.729-16.543
		c83.92,58.853,167.84,117.705,251.622,176.461c2.368-1.529,4.086-2.563,5.726-3.708c18.14-12.664,36.18-25.474,54.425-37.986
		c18.57-12.735,27.251-29.912,25.37-52.569c-1.318-15.867-8.576-28.341-20.875-37.747c-11.575-8.852-23.79-16.867-35.724-25.25
		c7.732-5.663,15.459-11.333,23.2-16.983c1.29-0.942,2.805-0.825,4.295-0.732c2.377-0.381,3.616,1.534,5.205,2.659
		c10.879,7.702,22.387,14.55,31.715,24.321c15.479,16.212,23.337,35.419,23.759,57.823c0.512,27.195-9.997,49.483-30.154,67.227
		c-9.249,8.142-19.946,14.462-30.059,21.508c-16.927,11.793-33.841,23.603-50.718,35.467c-2.066,1.452-4.105,2.841-6.653,3.828
		c-10.61-7.365-21.156-14.63-31.642-21.978c-23.905-16.751-47.792-33.528-71.665-50.323
		c-45.077-31.712-90.137-63.449-135.211-95.165c-11.938-8.4-23.899-16.766-35.865-25.125
		C99.047,271.269,97.783,270.858,97.507,269.427z"/>
	<path style="fill:#05829C;" d="M431.354,251.738c-1.49-0.093-3.005-0.209-4.295,0.732c-7.741,5.651-15.468,11.32-23.2,16.983
		c-0.899,0.438-1.874,0.765-2.684,1.329c-25.613,17.83-51.16,35.757-76.843,53.486c-7.184,4.959-14.017,10.505-22.072,14.806
		c-8.767-6.189-25.967-18.332-25.967-18.332s64.091-46.089,93.114-66.53c2.201-1.55,5.023-2.504,5.969-5.459
		c4.391-0.742,7.296-4.129,10.812-6.34c5.665-3.563,10.881-7.838,16.287-11.812c13.627-8.61,27.457-17.088,39.743-27.456
		c26.063-21.996,25.444-62.448-0.977-83.387c-14.604-11.574-30.345-21.714-45.587-32.481c-6.573-4.643-13.18-9.239-20.301-14.227
		c-24.049,16.793-47.982,33.504-72.415,50.565c-8.861-6.176-17.649-12.3-27.279-19.012c33.542-23.484,66.305-46.422,99.631-69.755
		c9.727,6.746,19.642,13.555,29.485,20.466c16.72,11.74,33.465,23.445,50.072,35.343c28.118,20.146,40.455,47.842,36.746,81.924
		c-2.79,25.643-15.959,45.825-37.117,60.7c-7.011,4.929-13.909,10.021-20.941,14.919
		C432.181,249.144,431.127,249.963,431.354,251.738z"/>
</g>
</svg>
