<?xml version="1.0" encoding="utf-8"?>
<!-- Generator: Adobe Illustrator 24.1.2, SVG Export Plug-In . SVG Version: 6.00 Build 0)  -->
<svg version="1.1" id="LQD" xmlns="http://www.w3.org/2000/svg" xmlns:xlink="http://www.w3.org/1999/xlink" x="0px" y="0px"
	 viewBox="0 0 500 500" style="enable-background:new 0 0 500 500;" xml:space="preserve">
<style type="text/css">
	.st0{fill:#333333;}
</style>
<path class="st0" d="M403.8,239.5c-24.6,0-45.9,19.7-49.1,44.2h-67.1c-1.6-8.2-4.9-16.4-9.8-22.9l80.2-81.9
	c14.7,9.8,36,8.2,47.5-6.6c11.5-14.7,11.5-36-1.6-49.1s-32.8-14.7-47.5-3.3c-14.7,11.5-18,32.8-8.2,49.1l-80.2,81.9
	c-6.6-4.9-14.7-8.2-22.9-9.8V98.6c27.8-3.3,45.9-29.5,42.6-55.7c-1.6-27.8-27.8-45.9-54-42.6S187.7,29.9,191,57.7
	c3.3,21.3,19.7,39.3,42.6,42.6v140.8c-8.2,1.6-16.4,4.9-22.9,9.8l-63.9-65.5c4.9-11.5,0-24.6-9.8-29.5c-1.6,0-1.6,0-3.3-1.6
	c-9.8-4.9-19.7-1.6-26.2,6.6c-4.9,8.2-4.9,19.7,1.6,26.2c6.6,8.2,16.4,9.8,26.2,4.9l63.9,67.1c-11.5,16.4-13.1,39.3-3.3,57.3
	L94.3,421.3c-13.1-11.5-34.4-9.8-45.9,4.9c-11.5,14.7-11.5,36,1.6,49.1c13.1,13.1,32.8,14.7,47.5,3.3c14.7-11.5,18-32.8,8.2-49.1
	l99.9-103.2c6.6,6.5,16.4,11.5,26.2,13.1v88.4c-18,3.3-29.5,21.3-27.8,39.3c1.6,19.7,18,34.4,37.7,32.8c18-1.6,31.1-14.7,32.8-32.8
	c1.6-18-9.8-36-27.8-39.3v-88.4c8.2-1.6,16.4-4.9,22.9-9.8l63.9,65.5c-1.6,3.3-1.6,6.6-1.6,9.8c0,11.5,9.8,21.3,21.3,21.3
	c11.5,0,21.3-9.8,21.3-21.3s-9.8-21.3-21.3-21.3c-3.3,0-6.6,0-9.8,1.6l-63.9-65.5c4.9-6.6,8.2-14.7,9.8-22.9h67.1
	c3.3,26.2,27.8,45.9,54,44.2c27.8-3.3,47.5-29.5,44.2-57.3C449.7,259.1,430.1,239.5,403.8,239.5z"/>
</svg>
