<?xml version="1.0" encoding="iso-8859-1"?>
<!-- Generator: Adobe Illustrator 19.0.0, SVG Export Plug-In . SVG Version: 6.00 Build 0)  -->
<svg version="1.1" id="Layer_1" xmlns="http://www.w3.org/2000/svg" xmlns:xlink="http://www.w3.org/1999/xlink" x="0px" y="0px"
	 viewBox="0 0 500 500" style="enable-background:new 0 0 500 500;" xml:space="preserve">
<linearGradient id="XMLID_2_" gradientUnits="userSpaceOnUse" x1="250" y1="5" x2="250" y2="486.0509">
	<stop  offset="0" style="stop-color:#0C4EA2"/>
	<stop  offset="1" style="stop-color:#092D64"/>
</linearGradient>
<path id="XMLID_4_" style="fill:url(#XMLID_2_);" d="M239.208,483.061c40.526-45.46,81.052-90.919,121.899-136.739
	c-51.23-88.032-102.268-175.733-153.405-263.605c13.783-23.628,27.352-46.89,41.834-71.717c2.736,3.468,4.828,5.556,6.267,8.025
	c31.764,54.499,63.423,109.059,95.171,163.567c31.733,54.482,63.553,108.914,95.289,163.395c1.719,2.95,3.012,6.148,4.786,9.816
	c-5.581,6.353-10.997,12.608-16.51,18.777c-29.355,32.851-59.27,65.225-87.77,98.802c-8.236,9.703-16.419,12.721-28.354,12.364
	c-23.61-0.706-47.258-0.13-70.891-0.085c-2.346,0.004-4.691,0.001-7.037,0.001C240.061,484.795,239.635,483.928,239.208,483.061z
	 M57.145,365.14c10.481,11.578,21.191,22.951,31.558,34.63c23.958,26.989,47.817,54.067,71.571,81.236
	c3.093,3.538,6.587,4.6,10.996,4.56c9.732-0.087,19.471-0.084,29.198,0.192c4.201,0.119,6.931-1.345,9.745-4.549
	c15.572-17.729,31.496-35.148,47.189-52.772c4.022-4.517,7.646-9.389,12.627-15.551c-4.772-0.354-7.729-0.748-10.688-0.763
	c-18.078-0.092-36.16-0.286-54.234-0.025c-5.782,0.083-9.547-1.849-13.145-6.412c-6.432-8.156-13.679-15.671-20.597-23.443
	c-10.582-11.89-21.175-23.771-31.954-35.871c7.006-12.058,13.766-23.721,20.552-35.369c23.56-40.436,46.981-80.955,70.827-121.222
	c4.521-7.635,5.401-13.744,0.379-21.716c-11.27-17.888-21.492-36.435-32.231-54.66c-1.145-1.943-2.888-3.533-5.367-6.499
	c-48.524,83.263-96.435,165.476-144.62,248.158C52.336,359.247,54.596,362.324,57.145,365.14z"/>
</svg>
