<?xml version="1.0" encoding="utf-8"?>
<!-- Generator: Adobe Illustrator 25.0.1, SVG Export Plug-In . SVG Version: 6.00 Build 0)  -->
<svg version="1.1" id="lto" xmlns="http://www.w3.org/2000/svg" xmlns:xlink="http://www.w3.org/1999/xlink" x="0px" y="0px"
	 viewBox="0 0 500 500" style="enable-background:new 0 0 500 500;" xml:space="preserve">
<style type="text/css">
	.st0{fill:url(#SVGID_1_);}
</style>
<linearGradient id="SVGID_1_" gradientUnits="userSpaceOnUse" x1="-845.05" y1="6.3076" x2="-844.22" y2="6.3076" gradientTransform="matrix(500 0 0 434.1772 422710.5625 -2488.5969)">
	<stop  offset="0" style="stop-color:#7CB7FF"/>
	<stop  offset="1" style="stop-color:#BA6DF6"/>
</linearGradient>
<path class="st0" d="M300.4,37.1l-47.3,47.3l9.7,9.7c5.4,5.5,14.2,5.5,19.7,0.1c0,0,0.1-0.1,0.1-0.1L330,46.8l-9.7-9.7
	c-5.4-5.5-14.2-5.5-19.7-0.1C300.5,37,300.5,37.1,300.4,37.1L300.4,37.1z M180.2,37.1l-11.4,9.7l49.4,47.3
	c5.2,5.4,13.7,5.5,19.1,0.3c0.1-0.1,0.2-0.2,0.3-0.3l9.7-9.7l-47.7-47.3c-5.2-5.4-13.7-5.5-19.1-0.3C180.4,36.9,180.3,37,180.2,37.1
	z M345.1,99.2L255.3,189l18.1,18.6c10.3,10.1,26.8,10.1,37.1,0l89.9-90.3l-18.1-18.1c-10.2-10-26.5-10-36.7,0L345.1,99.2z
	 M117.7,99.2l-18.1,18.1l89.9,89.9c9.8,10.3,26.1,10.6,36.4,0.7c0.3-0.2,0.5-0.5,0.7-0.7l18.1-18.1l-89.9-89.9
	C144.5,89.1,128,89.1,117.7,99.2L117.7,99.2z M240.1,97l-9.3,9.7l19.4,19.4l19.4-19.4l-9.7-9.7c-5.2-5.4-13.7-5.5-19.1-0.3
	c-0.1,0.1-0.2,0.2-0.3,0.3L240.1,97z M408.9,186.9L259.1,336.3l30,30.4c15.9,17,42.6,17.9,59.6,2c0.7-0.6,1.3-1.3,2-2L500,217.3
	l-30-30.4c-15.9-17-42.6-17.9-59.6-2c-0.7,0.6-1.3,1.3-2,2L408.9,186.9z M29.1,186.9L0,216.9l149.4,149.8c15.9,17,42.6,17.9,59.6,2
	c0.7-0.6,1.3-1.3,2-2l30.4-30.4L92,186.9c-15.9-17-42.6-17.9-59.6-2c-0.7,0.6-1.3,1.3-2,2H29.1z M230.4,213.1l-18.1,18.1l36.7,36.7
	l38-36.7l-18.1-18.1c-10.2-10.3-26.7-10.3-37-0.1c0,0-0.1,0.1-0.1,0.1H230.4z M219.4,375.9l-30.4,30l61.2,61.2l60.8-61.2l-30-30
	c-15.9-17-42.6-17.9-59.6-2C220.7,374.6,220,375.3,219.4,375.9z"/>
</svg>
