<?xml version="1.0" encoding="iso-8859-1"?>
<!-- Generator: Adobe Illustrator 19.0.0, SVG Export Plug-In . SVG Version: 6.00 Build 0)  -->
<svg version="1.1" id="Layer_1" xmlns="http://www.w3.org/2000/svg" xmlns:xlink="http://www.w3.org/1999/xlink" x="0px" y="0px"
	 viewBox="-749 751 500 500" style="enable-background:new -749 751 500 500;" xml:space="preserve">
<path style="fill:#F9544C;" d="M-289.615,876.939c-1.374,6.799-6.429,9.364-11.309,12.178
	c-36.707,21.161-73.398,42.35-110.085,63.545c-15.781,9.117-31.53,18.289-47.326,27.381c-2.513,1.446-5.196,2.596-6.966,3.471
	c-8.577-4.861-16.22-9.193-24.954-14.144c0-16.831,0-34.984,0-53.889c3.023-1.243,6.449-2.502,9.748-4.034
	c16.668-7.735,25.14-25.895,20.532-43.852c-4.095-15.957-20.865-28.577-37.676-27.449c-15.727,1.055-30.549,10.263-35.274,30.344
	c-3.569,15.168,3.727,31.301,18.702,39.496c3.542,1.938,7.359,3.376,11.665,5.322c0,18.226,0,36.73,0,54.165
	c-8.12,4.745-15.393,8.995-23.118,13.508c-8.598-2.156-168.224-94.043-175.51-101.261c-2.645-8.023,1.475-12.342,8.026-16.093
	c49.111-28.119,98.118-56.42,147.159-84.663c12.592-7.252,25.504-14.014,37.67-21.922c8.313-5.403,15.065-5.282,23.65-0.284
	c51.812,30.161,103.916,59.819,155.93,89.632c9.687,5.552,19.449,10.976,29.091,16.604
	C-295.13,867.639-290.69,870.53-289.615,876.939z M-553.796,979.113c-45.374-26.233-90.748-52.467-136.146-78.658
	c-4.807-2.773-9.583-6.049-15.648-3.798c-7.001,3.985-7.005,10.688-7.003,17.584c0.014,67.177,0.171,134.357-0.323,201.531
	c-0.08,10.839,3.729,17.116,12.956,22.268c30.206,16.867,60.056,34.372,90.035,51.647c29.351,16.913,58.668,33.883,88.048,50.743
	c9.853,5.654,12.827,5.014,19.544-3.488c1.929-62.784,1.144-182.907-0.829-190.504c-8.3-4.916-15.553-9.212-24.456-14.486
	c-15.161,8.669-31.39,17.948-47.132,26.949c2.189,24.463-7.844,41.864-26.288,47.158c-16.648,4.779-35.827-3.184-43.796-18.75
	c-8.419-16.445-4.301-34.833,9.736-46.018c6.603-5.261,13.997-8.273,22.46-8.531c13.69-0.419,23.842,6.721,33.558,16.782
	c16.177-9.294,32.111-18.448,46.627-26.787c0-11.095,0-20.144,0-31.186C-539.065,987.708-546.414,983.381-553.796,979.113z
	 M-280.302,1121.533c0.001-69.826,0.002-139.653,0-209.479c0-1.867,0.148-3.757-0.088-5.596c-1.125-8.782-7.934-12.646-16.201-9.186
	c-1.698,0.711-3.228,1.826-4.836,2.752c-51.247,29.521-102.498,59.034-153.723,88.593c-2.156,1.244-4.058,2.926-5,3.615
	c0,10.935,0,20.506,0,30.311c16.211,9.235,31.412,18.961,48.924,27.35c2.225-2.849,3.738-5.568,5.948-7.483
	c11.742-10.177,25.139-12.764,39.384-6.513c14.549,6.385,22.41,18.1,22.765,34.058c0.456,20.491-15.947,36.673-36.601,36.75
	c-22.753,0.084-37.633-14.772-37.609-37.547c0.003-3.281,0-6.561,0-10.298c-16.391-9.297-32.434-18.396-47.096-26.712
	c-9.821,5.527-17.788,10.011-25.988,14.626c0.004-0.014-0.185,0.345-0.186,0.705c-0.12,61.6-0.309,123.201-0.248,184.801
	c0.01,9.751,7.075,14.029,15.939,10.359c2.05-0.849,3.917-2.143,5.854-3.258c59.379-34.163,118.771-68.303,178.097-102.557
	c3.769-2.176,7.028-5.235,10.663-7.989C-280.302,1125.245-280.302,1123.389-280.302,1121.533z"/>
</svg>
