<?xml version="1.0" encoding="utf-8"?>
<!-- Generator: Adobe Illustrator 24.1.2, SVG Export Plug-In . SVG Version: 6.00 Build 0)  -->
<svg version="1.1" id="LUNA" xmlns="http://www.w3.org/2000/svg" xmlns:xlink="http://www.w3.org/1999/xlink" x="0px" y="0px"
	 viewBox="0 0 500 500" style="enable-background:new 0 0 500 500;" xml:space="preserve">
<style type="text/css">
	.st0{fill:#5493F8;}
	.st1{fill:#2745AD;}
</style>
<path class="st0" d="M153.8,425.5c0,55.7-2,61.8-2,61.8s-0.4,0.1-1.1,0.3h0C62.9,449.2,1.6,361.6,1.6,259.6c0-23.2,3.2-45.7,9.2-67
	c0,0,0-0.1,0-0.1c4.4-11.6,7.5-19,7.5-19s47.6,50.7,86.9,115C139.7,345.2,153.8,376.8,153.8,425.5z"/>
<path class="st1" d="M451.9,114l-265.5,59.5c0,0-18,3-42.2-12.2c-7.1-4.5-14.8-10.5-22.7-18.7c-4.4-4.5-8.3-10-11.9-16.1
	c-9.3-15.8-16.1-36-20.9-55c-0.1-0.3-0.2-0.5-0.2-0.8c43.5-37.3,100-59.8,161.8-59.8c67.3,0,128.4,26.8,173.2,70.2
	C433.9,91.3,443.4,102.3,451.9,114z"/>
<path class="st1" d="M311.6,484c0,0-17.7,1.7-36.8-9.8s-60-43.8-61.8-92.8c-1.9-52.2,69.2-86.5,69.2-86.5L470,320.5
	c0,0-14.4,49.3-36.9,76.4C410.7,424,335.8,479.4,311.6,484z"/>
<path class="st0" d="M463.6,375.9c6.3,7.3-41.2,64.9-79,89.2c-28.2,18.1-50.8,20.7-58.8,8.1c-7.4-11.8,5.1-28.7,24.3-44.7
	C377.9,405.6,459.2,370.9,463.6,375.9z"/>
<path class="st0" d="M28.3,149.8c0,0,27.6-53.3,65.3-82.2c47.6-36.5,68.4-35.8,86.1-24c14.5,9.7,4.8,33.9-22.2,55
	S67.1,149.5,28.3,149.8z"/>
<path class="st0" d="M499,259.6c0,32.4-6.2,63.4-17.5,91.9c-6.4,2.9-14.8,5-25,5.5h0c-1.6,0.1-3.2,0.1-4.9,0.1
	c-34.6,0-120.1-19.8-190.5-49.5c-19.8-8.3-38.4-17.5-54.4-27.2c-72.8-44.1-69.8-75.2-70.1-88.2c-0.3-11,2.5-21.3,7.7-30.9
	c25.1-46.9,105.5-77.8,147.9-90.6c51.1-15.5,100.6-14.7,126.2,6.2c1.6,1.3,3.4,2.8,5.2,4.3c10.4,10.1,19.9,21.1,28.5,32.9
	C481.6,155,499,205.3,499,259.6z"/>
</svg>
