<?xml version="1.0" encoding="utf-8"?>
<!-- Generator: Adobe Illustrator 23.0.4, SVG Export Plug-In . SVG Version: 6.00 Build 0)  -->
<svg version="1.1" id="lxt" xmlns="http://www.w3.org/2000/svg" xmlns:xlink="http://www.w3.org/1999/xlink" x="0px" y="0px"
	 viewBox="0 0 500 500" style="enable-background:new 0 0 500 500;" xml:space="preserve">
<style type="text/css">
	.st0{fill:#1178BA;}
	.st1{fill:#29A7E4;}
</style>
<polygon class="st0" points="148.7,25.4 75.2,25.4 238.9,280.2 122.9,458.2 96.1,458.4 212.4,280.2 200.4,261.4 187.2,240.9 
	34.4,3.1 160.6,3.1 256.6,146.5 242.7,165.5 "/>
<polygon class="st1" points="318.9,237.6 300.6,225.1 436.4,25.5 363,25.5 226.5,224 107.4,41.2 133.9,41 227.1,184 351.3,3.3 
	478.5,3.3 "/>
<polygon class="st0" points="484.1,497.1 354.6,497.1 247.8,343.1 265.1,328.2 366.3,474.9 443.7,474.9 267.7,196.9 375.3,40.6 
	402.6,40.4 294.3,197.4 "/>
<polygon class="st1" points="407.5,458.1 380.7,458.2 279.7,308 154.4,497.8 14.5,497.8 187.2,240.9 200.4,261.4 56.2,475.5 
	142.4,475.5 279.6,267.9 "/>
</svg>
