<svg width="24" height="25" viewBox="0 0 24 25" fill="currentColor" xmlns="http://www.w3.org/2000/svg">
<path d="M18.94 6.23C18.63 5.92 18.12 5.92 17.81 6.23L15.31 8.73C15 9.04 15 9.55 15.31 9.86C15.47 10.02 15.67 10.09 15.88 10.09C16.09 10.09 16.29 10.01 16.45 9.86L18.95 7.36C19.26 7.05 19.26 6.54 18.95 6.23H18.94Z" />
<path d="M13.65 5.55L11.44 4.73L10.62 2.52C10.5 2.21 10.2 2 9.86996 2C9.53996 2 9.23996 2.21 9.11996 2.52L8.29996 4.73L6.08996 5.55C5.77996 5.67 5.56996 5.97 5.56996 6.3C5.56996 6.63 5.77996 6.93 6.08996 7.05L8.29996 7.87L9.11996 10.08C9.23996 10.39 9.53996 10.6 9.86996 10.6C10.2 10.6 10.5 10.39 10.62 10.08L11.44 7.87L13.65 7.05C13.96 6.93 14.17 6.63 14.17 6.3C14.17 5.97 13.96 5.67 13.65 5.55ZM10.54 6.49C10.32 6.57 10.15 6.74 10.07 6.96L9.87996 7.49L9.67996 6.96C9.59996 6.74 9.42996 6.57 9.20996 6.49L8.67996 6.3L9.20996 6.11C9.42996 6.03 9.59996 5.86 9.67996 5.64L9.87996 5.11L10.07 5.64C10.15 5.86 10.32 6.03 10.54 6.11L11.07 6.3L10.54 6.49Z" />
<path d="M21.65 12.05L20.54 11.64L20.13 10.53C20.01 10.22 19.71 10.01 19.38 10.01C19.05 10.01 18.75 10.22 18.63 10.53L18.22 11.64L17.11 12.05C16.8 12.17 16.59 12.47 16.59 12.8C16.59 13.13 16.8 13.43 17.11 13.55L18.22 13.96L18.63 15.07C18.75 15.38 19.05 15.59 19.38 15.59C19.71 15.59 20.01 15.38 20.13 15.07L20.54 13.96L21.65 13.55C21.96 13.43 22.17 13.13 22.17 12.8C22.17 12.47 21.96 12.17 21.65 12.05Z" />
<path d="M12.81 11.23L2.42996 20.86C1.12996 22.12 3.04996 24.03 4.30996 22.74L13.94 12.37C14.63 11.63 13.55 10.55 12.81 11.24V11.23Z" />
</svg>
