<?xml version="1.0" encoding="utf-8"?>
<!-- Generator: Adobe Illustrator 25.4.1, SVG Export Plug-In . SVG Version: 6.00 Build 0)  -->
<svg version="1.1" id="maha" xmlns="http://www.w3.org/2000/svg" xmlns:xlink="http://www.w3.org/1999/xlink" x="0px" y="0px"
	 viewBox="0 0 500 500" style="enable-background:new 0 0 500 500;" xml:space="preserve">
<style type="text/css">
	.st0{fill:url(#SVGID_1_);}
	.st1{opacity:0.4;fill:url(#SVGID_00000037685152292643804720000015133364750461257880_);enable-background:new    ;}
	.st2{opacity:0.4;fill:url(#SVGID_00000060028852619938880600000015692886166655271828_);enable-background:new    ;}
	.st3{opacity:0.4;fill:url(#SVGID_00000140015899159469103680000016135058006244794767_);enable-background:new    ;}
	.st4{opacity:0.6;fill:url(#SVGID_00000132771676656731460560000015269447145482980228_);enable-background:new    ;}
	.st5{opacity:0.6;fill:url(#SVGID_00000034781130573453472670000005240848068911838398_);enable-background:new    ;}
	.st6{opacity:0.6;fill:url(#SVGID_00000092424929570956337670000016060320931087752621_);enable-background:new    ;}
</style>
<linearGradient id="SVGID_1_" gradientUnits="userSpaceOnUse" x1="92.2842" y1="94.3004" x2="407.7204" y2="409.7365" gradientTransform="matrix(1 0 0 -1 0 502)">
	<stop  offset="0" style="stop-color:#FF8506"/>
	<stop  offset="0.5805" style="stop-color:#FD3947"/>
	<stop  offset="1" style="stop-color:#FB0078"/>
</linearGradient>
<path class="st0" d="M488.2,214.1L378.1,63.4c-8.2-11.3-20.9-17.7-34.8-17.7c-13.9,0-26.6,6.4-34.8,17.7l-12,16.4l-12-16.4
	c-8.2-11.3-20.9-17.7-34.8-17.7c-13.9,0-26.6,6.4-34.8,17.7l-11.8,16.2l-11.8-16.2c-8.2-11.3-20.9-17.7-34.8-17.7
	c-13.9,0-26.6,6.4-34.8,17.7L11.7,214.1c-15.7,21.4-15.7,50.2,0,71.7l110.1,150.7c8.2,11.2,20.8,17.7,34.8,17.7
	c13.9,0,26.6-6.4,34.8-17.7l58.6-80.2l12.1,16.6c0.1,0.1,0.1,0.1,0.1,0.2l46.4,63.5c8.2,11.2,20.8,17.7,34.8,17.7
	c13.9,0,26.6-6.4,34.8-17.7l110.1-150.7C503.9,264.4,503.9,235.6,488.2,214.1z M232.7,76.3c4-5.5,10.3-8.7,17.2-8.7
	s13.2,3.2,17.2,8.7l16.1,22L250,143.6L216.7,98L232.7,76.3z M173.9,423.7c-4,5.5-10.3,8.7-17.2,8.7c-6.9,0-13.2-3.2-17.2-8.7
	L29.4,273c-10-13.7-10-32.3,0-46L139.4,76.3c4-5.5,10.3-8.7,17.2-8.7c6.9,0,13.2,3.2,17.2,8.7l15.9,21.8l-84.8,116
	c-15.7,21.4-15.7,50.2,0.1,71.7l6.5,8.7l56.8,78.3c7.2,9.9,18,16.1,29.9,17.4L173.9,423.7z M220.4,360.1c-4.1,5.5-10.3,8.7-17.2,8.7
	c-6.9,0-13.2-3.2-17.2-8.7l-58.4-80.5h-0.1l-4.9-6.6c-10-13.7-10-32.3,0-46l80.7-110.4l33.3,45.6l-38,52
	c-15.7,21.4-15.7,50.2,0,71.7l38,52L220.4,360.1z M250,180.5l34,46.4c10,13.7,10,32.3,0,46l-34,46.4L216,273c-10-13.7-10-32.3,0-46
	L250,180.5z M301.5,285.8c15.7-21.4,15.7-50.2,0-71.7l-38-52l33.2-45.3L377.2,227c10,13.7,10,32.3-0.1,46.1l-12.9,17.9L314.1,360
	c-4,5.5-10.3,8.7-17.2,8.7c-6.8,0-13-3.1-17.1-8.5l-16.3-22.4L301.5,285.8z M470.7,273L360.6,423.7c-4,5.5-10.3,8.7-17.2,8.7
	c-6.9,0-13.2-3.2-17.2-8.7l-24.4-33.4c12-1.3,22.7-7.5,29.9-17.4l43.1-59.3l0.1,0.1l7-9.8l8.3-11.4l-0.1-0.1l4.7-6.5
	c15.7-21.4,15.7-50.2,0-71.7L310.1,98.3l16.1-22c4-5.5,10.3-8.7,17.2-8.7c6.9,0,13.2,3.2,17.2,8.7L470.7,227
	C480.7,240.8,480.7,259.2,470.7,273z"/>
<linearGradient id="SVGID_00000115475832257024289190000008013090190001662140_" gradientUnits="userSpaceOnUse" x1="221.8539" y1="126.3787" x2="185.0061" y2="74.2309" gradientTransform="matrix(1 0 0 -1 0 502)">
	<stop  offset="0" style="stop-color:#78005B"/>
	<stop  offset="0.3483" style="stop-color:#7A025A;stop-opacity:0.6517"/>
	<stop  offset="0.51" style="stop-color:#820955;stop-opacity:0.49"/>
	<stop  offset="0.6332" style="stop-color:#8E154E;stop-opacity:0.3668"/>
	<stop  offset="0.7369" style="stop-color:#A12643;stop-opacity:0.2631"/>
	<stop  offset="0.8283" style="stop-color:#B83C36;stop-opacity:0.1717"/>
	<stop  offset="0.9111" style="stop-color:#D65725;stop-opacity:8.890000e-02"/>
	<stop  offset="0.9857" style="stop-color:#F87711;stop-opacity:1.430000e-02"/>
	<stop  offset="1" style="stop-color:#FF7E0D;stop-opacity:0"/>
</linearGradient>
<path style="opacity:0.4;fill:url(#SVGID_00000115475832257024289190000008013090190001662140_);enable-background:new    ;" d="
	M203.1,390.5c-1.7,0-3.3-0.1-5-0.3l-23.6,32.6l17.8,12.6l43.2-59.3C227.4,385.3,215.6,390.5,203.1,390.5z"/>
<linearGradient id="SVGID_00000168799876679514065670000016455071775399787178_" gradientUnits="userSpaceOnUse" x1="311.9252" y1="78.1086" x2="277.2432" y2="127.9932" gradientTransform="matrix(1 0 0 -1 0 502)">
	<stop  offset="0" style="stop-color:#FF7E0D;stop-opacity:0"/>
	<stop  offset="9.287430e-03" style="stop-color:#F97811;stop-opacity:1.270000e-02"/>
	<stop  offset="6.510000e-02" style="stop-color:#D65825;stop-opacity:8.880000e-02"/>
	<stop  offset="0.1269" style="stop-color:#B93D36;stop-opacity:0.1729"/>
	<stop  offset="0.1949" style="stop-color:#A12643;stop-opacity:0.2657"/>
	<stop  offset="0.272" style="stop-color:#8F154E;stop-opacity:0.3707"/>
	<stop  offset="0.3632" style="stop-color:#820955;stop-opacity:0.495"/>
	<stop  offset="0.4822" style="stop-color:#7A025A;stop-opacity:0.6573"/>
	<stop  offset="0.7336" style="stop-color:#78005B"/>
</linearGradient>
<path style="opacity:0.4;fill:url(#SVGID_00000168799876679514065670000016455071775399787178_);enable-background:new    ;" d="
	M296.8,390.5c1.7,0,3.3-0.1,5-0.3l23.6,32.6l-17.8,12.6l-43-59.3C272.7,385.4,284.3,390.5,296.8,390.5z"/>
<linearGradient id="SVGID_00000111874208206239021990000011379112613507215524_" gradientUnits="userSpaceOnUse" x1="223.07" y1="126.6367" x2="251.1156" y2="166.9739" gradientTransform="matrix(1 0 0 -1 0 502)">
	<stop  offset="0" style="stop-color:#FF7E0D;stop-opacity:0"/>
	<stop  offset="1.330000e-02" style="stop-color:#F97910;stop-opacity:1.920000e-02"/>
	<stop  offset="0.1144" style="stop-color:#D25427;stop-opacity:0.1659"/>
	<stop  offset="0.219" style="stop-color:#B1363A;stop-opacity:0.3175"/>
	<stop  offset="0.3263" style="stop-color:#981E48;stop-opacity:0.4731"/>
	<stop  offset="0.4375" style="stop-color:#860D53;stop-opacity:0.6344"/>
	<stop  offset="0.5551" style="stop-color:#7B0359;stop-opacity:0.8048"/>
	<stop  offset="0.6897" style="stop-color:#78005B"/>
</linearGradient>
<path style="opacity:0.4;fill:url(#SVGID_00000111874208206239021990000011379112613507215524_);enable-background:new    ;" d="
	M236.4,337.7l13.7,18.8l-20.9,28.1l-13.7-18.3L236.4,337.7z"/>
<linearGradient id="SVGID_00000073721466189315853550000001679186936406570117_" gradientUnits="userSpaceOnUse" x1="139.9384" y1="328.9474" x2="202.3438" y2="391.3534" gradientTransform="matrix(1 0 0 -1 0 502)">
	<stop  offset="0" style="stop-color:#FF4630;stop-opacity:0"/>
	<stop  offset="0.5722" style="stop-color:#B31F48;stop-opacity:0.5722"/>
	<stop  offset="1" style="stop-color:#78005B"/>
</linearGradient>
<path style="opacity:0.6;fill:url(#SVGID_00000073721466189315853550000001679186936406570117_);enable-background:new    ;" d="
	M189.7,98l13.6,18.6l-49,67.2l-17.1-13.5L189.7,98z"/>
<linearGradient id="SVGID_00000084529927319653564040000016821997188915503761_" gradientUnits="userSpaceOnUse" x1="205.998" y1="287.4328" x2="247.5531" y2="328.9878" gradientTransform="matrix(1 0 0 -1 0 502)">
	<stop  offset="0" style="stop-color:#FF4630;stop-opacity:0"/>
	<stop  offset="0.5722" style="stop-color:#B31F48;stop-opacity:0.5722"/>
	<stop  offset="1" style="stop-color:#78005B"/>
</linearGradient>
<path style="opacity:0.6;fill:url(#SVGID_00000084529927319653564040000016821997188915503761_);enable-background:new    ;" d="
	M236.6,162l13.3,18.6l-31.2,43.1l-17.1-13.6L236.6,162z"/>
<linearGradient id="SVGID_00000169546571747356937030000013869614862369215637_" gradientUnits="userSpaceOnUse" x1="252.4677" y1="350.9956" x2="294.1676" y2="392.6958" gradientTransform="matrix(1 0 0 -1 0 502)">
	<stop  offset="0" style="stop-color:#FF4630;stop-opacity:0"/>
	<stop  offset="0.5722" style="stop-color:#B31F48;stop-opacity:0.5722"/>
	<stop  offset="1" style="stop-color:#78005B"/>
</linearGradient>
<path style="opacity:0.6;fill:url(#SVGID_00000169546571747356937030000013869614862369215637_);enable-background:new    ;" d="
	M283.1,98.3l13.5,18.5L263.5,162L250,143.6L283.1,98.3z"/>
</svg>
