<svg aria-hidden="true" data-testid="test-icon" fill="currentColor" viewBox="0 0 24 24" xmlns="http://www.w3.org/2000/svg"><path d="M4.644 5.577a1.03 1.03 0 00-1.035 1.015v10.817a1.03 1.03 0 001.035 1.014h14.712a1.03 1.03 0 001.035-1.014V6.591a1.03 1.03 0 00-1.035-1.015H4.644zM2 6.592C2 5.164 3.188 4 4.644 4h14.712C20.812 4 22 5.164 22 6.592v10.817C22 18.835 20.812 20 19.356 20H4.644C3.188 20 2 18.836 2 17.409V6.591z"/><path d="M2.146 6.14a.815.815 0 011.12-.195L12 11.94l8.734-5.994a.815.815 0 011.12.194.779.779 0 01-.197 1.099l-9.196 6.31a.818.818 0 01-.922 0l-9.196-6.31a.779.779 0 01-.197-1.099z"/></svg>
