<?xml version="1.0" encoding="iso-8859-1"?>
<!-- Generator: Adobe Illustrator 19.0.0, SVG Export Plug-In . SVG Version: 6.00 Build 0)  -->
<svg version="1.1" id="Layer_1" xmlns="http://www.w3.org/2000/svg" xmlns:xlink="http://www.w3.org/1999/xlink" x="0px" y="0px"
	 viewBox="0 0 500 500" style="enable-background:new 0 0 500 500;" xml:space="preserve">
<g>
	<g>
		<linearGradient id="SVGID_1_" gradientUnits="userSpaceOnUse" x1="426.0708" y1="69.0366" x2="37.9065" y2="382.8988">
			<stop  offset="0" style="stop-color:#6790B3"/>
			<stop  offset="1" style="stop-color:#2E5170"/>
		</linearGradient>
		<path style="fill:url(#SVGID_1_);" d="M264.86,248.528c2.497-1.789,4.625-2.94,6.287-4.566
			c8.543-8.361,17.088-16.727,25.387-25.327c4.944-5.124,4.763-11.405,0.104-15.95c-4.462-4.352-10.426-4.403-15.554-0.012
			c-1.779,1.523-3.363,3.275-5.02,4.938c-8.561,8.595-17.116,17.195-25.91,26.031c-1.899-1.705-3.352-2.896-4.675-4.216
			c-28.571-28.485-57.125-56.987-85.688-85.48c-4.08-4.07-8.033-8.286-12.318-12.129c-5.7-5.11-13.647-4.339-17.019,1.93
			c-1.513,2.813-1.903,6.513-1.908,9.812c-0.083,51.659-0.019,103.318,0.01,154.978c0.001,2.514,0,5.028,0,7.106
			c-18.324,11.106-24.936,23.889-21.007,39.67c3.584,14.398,16.194,24.582,31.088,25.108c14.157,0.5,27.489-8.615,32.154-21.982
			c5.718-16.388,0.072-28.67-19.758-42.893c0-45.719,0-91.477,0-137.41c27.365,27.647,54.421,54.982,82.018,82.863
			c-7.689,7.572-16.434,15.709-24.635,24.362c-17.603,18.573-20.369,45.617-7.279,67.513c13.234,22.137,38.723,32.271,64.195,25.524
			c23.618-6.256,40.899-28.53,41.413-53.354c0.337-16.271-5.554-29.982-16.962-41.443
			C281.862,265.644,273.956,257.68,264.86,248.528z M139.567,348.305c-6.066-0.01-11.061-5.047-10.94-11.032
			c0.117-5.768,4.876-10.536,10.666-10.686c6.084-0.158,11.128,4.679,11.196,10.737
			C150.557,343.436,145.704,348.315,139.567,348.305z M273.128,339.509c-12.919,11.854-33.796,11.794-46.705-0.134
			c-13.263-12.254-15.262-33.409-3.475-46.809c8.266-9.398,17.805-17.677,26.657-26.339c9.342,8.993,19.058,17.11,27.265,26.54
			C288.773,306.442,286.62,327.13,273.128,339.509z"/>
		<linearGradient id="SVGID_2_" gradientUnits="userSpaceOnUse" x1="486.6137" y1="143.9121" x2="98.4494" y2="457.7743">
			<stop  offset="0" style="stop-color:#6790B3"/>
			<stop  offset="1" style="stop-color:#2E5170"/>
		</linearGradient>
		<path style="fill:url(#SVGID_2_);" d="M359.546,128.308c-14.564,0.224-27.227,9.867-31.394,23.907
			c-4.762,16.043,1.388,28.604,20.69,41.467c0,2.143-0.002,4.673,0,7.202c0.039,50.374,0.078,100.749,0.122,151.124
			c0.002,2.561-0.108,5.135,0.102,7.681c0.521,6.315,5.429,10.939,11.296,10.822c5.709-0.113,10.204-4.493,10.778-10.63
			c0.178-1.906,0.1-3.839,0.105-5.759c0.126-51.014,0.247-102.028,0.368-153.042c0.006-2.537,0.001-5.075,0.001-7.189
			c20.075-14.674,25.604-26.621,20.209-42.843C387.234,137.248,374.224,128.082,359.546,128.308z M360.011,172.109
			c-5.891-0.081-10.554-4.812-10.523-10.676c0.03-5.743,4.937-10.528,10.752-10.486c5.795,0.042,10.506,4.884,10.44,10.731
			C370.612,167.637,365.955,172.191,360.011,172.109z"/>
		<linearGradient id="SVGID_3_" gradientUnits="userSpaceOnUse" x1="444.7944" y1="92.1928" x2="56.6302" y2="406.055">
			<stop  offset="0" style="stop-color:#6790B3"/>
			<stop  offset="1" style="stop-color:#2E5170"/>
		</linearGradient>
		<path style="fill:url(#SVGID_3_);" d="M249.091,2.915C111.862,2.914-3.512,117.551,3.195,261.996
			c6.042,130.14,115.091,235.728,245.823,234.284c133.505,2.199,247.185-107.342,247.462-245.715
			C496.754,113.311,386.395,2.916,249.091,2.915z M265.329,368.396c-25.471,6.747-50.96-3.387-64.195-25.524
			c-13.09-21.896-10.324-48.94,7.279-67.513c8.201-8.653,16.947-16.789,24.635-24.362c-27.597-27.881-54.653-55.216-82.018-82.863
			c0,45.933,0,91.691,0,137.41c19.83,14.223,25.476,26.504,19.758,42.893c-4.664,13.368-17.996,22.482-32.154,21.982
			c-14.894-0.526-27.504-10.71-31.088-25.108c-3.928-15.781,2.684-28.564,21.007-39.67c0-2.078,0.001-4.592,0-7.106
			c-0.03-51.659-0.093-103.318-0.01-154.978c0.005-3.299,0.395-6.999,1.908-9.812c3.372-6.269,11.32-7.04,17.019-1.93
			c4.286,3.843,8.238,8.059,12.318,12.129c28.563,28.493,57.117,56.995,85.688,85.48c1.324,1.32,2.777,2.51,4.675,4.216
			c8.795-8.837,17.35-17.437,25.91-26.031c1.657-1.663,3.241-3.415,5.02-4.938c5.128-4.39,11.092-4.34,15.554,0.012
			c4.659,4.544,4.84,10.826-0.104,15.95c-8.299,8.601-16.843,16.967-25.387,25.327c-1.662,1.627-3.79,2.778-6.287,4.566
			c9.096,9.152,17.002,17.117,24.919,25.071c11.408,11.461,17.299,25.172,16.962,41.443
			C306.228,339.866,288.947,362.139,265.329,368.396z M371.614,193.891c0,2.114,0.005,4.652-0.001,7.189
			c-0.121,51.014-0.242,102.028-0.368,153.042c-0.005,1.921,0.074,3.853-0.105,5.759c-0.574,6.137-5.068,10.517-10.778,10.63
			c-5.867,0.116-10.775-4.508-11.296-10.822c-0.21-2.546-0.1-5.12-0.102-7.681c-0.044-50.375-0.082-100.749-0.122-151.124
			c-0.002-2.529,0-5.059,0-7.202c-19.303-12.863-25.453-25.424-20.69-41.467c4.167-14.04,16.83-23.683,31.394-23.907
			c14.677-0.226,27.688,8.94,32.277,22.74C397.218,167.27,391.689,179.217,371.614,193.891z"/>
		<linearGradient id="SVGID_4_" gradientUnits="userSpaceOnUse" x1="475.3029" y1="129.9236" x2="87.1386" y2="443.7858">
			<stop  offset="0" style="stop-color:#6790B3"/>
			<stop  offset="1" style="stop-color:#2E5170"/>
		</linearGradient>
		<path style="fill:url(#SVGID_4_);" d="M249.605,266.227c-8.852,8.662-18.391,16.941-26.657,26.339
			c-11.787,13.4-9.787,34.555,3.475,46.809c12.909,11.928,33.786,11.988,46.705,0.134c13.491-12.379,15.644-33.067,3.742-46.742
			C268.662,283.336,258.946,275.219,249.605,266.227z"/>
		<linearGradient id="SVGID_5_" gradientUnits="userSpaceOnUse" x1="444.0585" y1="91.2826" x2="55.8942" y2="405.1448">
			<stop  offset="0" style="stop-color:#6790B3"/>
			<stop  offset="1" style="stop-color:#2E5170"/>
		</linearGradient>
		<path style="fill:url(#SVGID_5_);" d="M139.293,326.587c-5.789,0.15-10.548,4.918-10.666,10.686
			c-0.122,5.985,4.873,11.022,10.94,11.032c6.137,0.01,10.99-4.869,10.922-10.981C150.421,331.266,145.377,326.429,139.293,326.587z
			"/>
		<linearGradient id="SVGID_6_" gradientUnits="userSpaceOnUse" x1="445.2495" y1="92.7556" x2="57.0853" y2="406.6178">
			<stop  offset="0" style="stop-color:#6790B3"/>
			<stop  offset="1" style="stop-color:#2E5170"/>
		</linearGradient>
		<path style="fill:url(#SVGID_6_);" d="M360.24,150.947c-5.816-0.042-10.722,4.743-10.752,10.486
			c-0.031,5.864,4.633,10.595,10.523,10.676c5.944,0.082,10.601-4.472,10.669-10.43C370.745,155.831,366.035,150.989,360.24,150.947
			z"/>
	</g>
</g>
<path style="fill:#FFFFFF;" d="M250.153,233.641c8.795-8.837,17.35-17.437,25.91-26.031c1.657-1.663,3.241-3.415,5.02-4.938
	c5.128-4.39,11.092-4.34,15.554,0.012c4.659,4.544,4.84,10.826-0.104,15.95c-8.299,8.601-16.844,16.967-25.387,25.327
	c-1.662,1.627-3.79,2.778-6.287,4.566c9.096,9.152,17.002,17.117,24.92,25.071c11.408,11.461,17.299,25.172,16.962,41.443
	c-0.514,24.824-17.795,47.098-41.413,53.354c-25.471,6.747-50.96-3.387-64.195-25.524c-13.09-21.896-10.324-48.94,7.279-67.513
	c8.201-8.653,16.947-16.789,24.635-24.362c-27.597-27.881-54.653-55.216-82.018-82.863c0,45.932,0,91.691,0,137.41
	c19.83,14.223,25.476,26.504,19.758,42.893c-4.664,13.368-17.996,22.482-32.154,21.982c-14.894-0.526-27.504-10.71-31.088-25.108
	c-3.928-15.781,2.684-28.564,21.007-39.67c0-2.078,0.001-4.592,0-7.106c-0.03-51.659-0.093-103.318-0.01-154.977
	c0.005-3.299,0.395-6.999,1.908-9.812c3.372-6.269,11.32-7.04,17.019-1.93c4.286,3.843,8.238,8.059,12.318,12.129
	c28.563,28.493,57.117,56.995,85.688,85.48C246.802,230.746,248.254,231.936,250.153,233.641z M249.605,266.227
	c-8.852,8.662-18.39,16.941-26.657,26.339c-11.787,13.4-9.787,34.555,3.475,46.809c12.91,11.928,33.786,11.988,46.705,0.134
	c13.491-12.379,15.644-33.067,3.742-46.742C268.662,283.336,258.946,275.219,249.605,266.227z M139.567,348.305
	c6.137,0.01,10.99-4.869,10.922-10.981c-0.068-6.058-5.111-10.895-11.196-10.737c-5.789,0.15-10.548,4.918-10.666,10.686
	C128.506,343.258,133.501,348.295,139.567,348.305z"/>
<path style="fill:#FFFFFF;" d="M371.614,193.891c0,2.114,0.005,4.652-0.001,7.189c-0.121,51.014-0.242,102.028-0.368,153.042
	c-0.005,1.921,0.074,3.853-0.105,5.759c-0.574,6.137-5.068,10.517-10.778,10.63c-5.867,0.116-10.775-4.508-11.296-10.822
	c-0.21-2.546-0.1-5.12-0.102-7.681c-0.044-50.375-0.082-100.749-0.122-151.124c-0.002-2.529,0-5.059,0-7.202
	c-19.303-12.863-25.453-25.424-20.69-41.467c4.167-14.04,16.83-23.683,31.394-23.907c14.677-0.226,27.688,8.94,32.277,22.74
	C397.218,167.27,391.689,179.217,371.614,193.891z M360.24,150.947c-5.816-0.042-10.722,4.743-10.752,10.486
	c-0.031,5.864,4.633,10.595,10.523,10.676c5.944,0.082,10.601-4.472,10.669-10.43C370.745,155.831,366.035,150.989,360.24,150.947z"
	/>
</svg>
