<?xml version="1.0" encoding="iso-8859-1"?>
<!-- Generator: Adobe Illustrator 19.0.0, SVG Export Plug-In . SVG Version: 6.00 Build 0)  -->
<svg version="1.1" id="Layer_1" xmlns="http://www.w3.org/2000/svg" xmlns:xlink="http://www.w3.org/1999/xlink" x="0px" y="0px"
	 viewBox="0 0 500 500" style="enable-background:new 0 0 500 500;" xml:space="preserve">
<g>
	<path style="fill:#32302B;" d="M249.533,5c134.833-0.064,244.742,109.728,244.728,244.466
		c-0.014,135.025-109.607,244.578-244.659,244.57C114.213,494.028,4.69,384.351,4.769,248.857
		C4.847,114.737,114.929,5.064,249.533,5z M287.837,251.624c-7.197,4.432-14.215,4.957-22.137,0.986
		c-7.771-3.895-16.24-6.398-24.753-9.646c-17.843,22.555-35.661,45.077-53.85,68.068c-5.318-4.269-10.127-8.13-15.38-12.347
		c8.497-10.716,16.637-20.981,25.265-31.862c-4.419-2.486-8.191-4.607-11.705-6.583c-17.645,4.473-34.854,8.836-52.543,13.32
		c-7.639-24.992-14.999-49.068-22.34-73.084c-9.018,0-17.108,0-25.602,0c-12.361,21.625-24.77,43.334-37.043,64.805
		c-7.661,0.845-14.911-0.155-22.442,2.025c1.105,14.752,3.262,28.977,7.811,42.706c4.105,0.299,7.53,0.92,11.058-0.463
		c8.564-25.346,17.128-50.689,26.341-77.955c8.016,23.8,15.324,45.499,22.633,67.197c0.511-0.03,1.022-0.061,1.533-0.091
		c5.229-15.124,10.458-30.248,16.381-47.382c7.637,22.449,14.549,42.764,21.513,63.236c7.827,0.857,15.206,1.528,22.546,2.493
		c21.171,2.782,42.447,5.337,61.968,14.847c21.581,10.514,23.928,29.293,6.066,45.541c-6.23,5.667-13.572,9.746-20.159,14.871
		c-5.909,4.597-12.16,8.947-16.809,16.417c56.259,15.275,114.088,19.203,168.359,39.164
		c63.516-30.81,110.563-101.108,116.919-164.72c-10.734-12.155-21.618-24.479-32.443-36.736c-7.685,1.283-14.959,2.498-22.479,3.754
		c-10.699-14.575-21.245-28.942-32.092-43.719c-7.836,0.759-11.353,8.587-18.434,11.143c-5.953-7.844-11.883-15.657-18.196-23.975
		c-9.791,10.526-18.881,20.298-27.971,30.07c10.309-1.443,17.626-6.595,22.628-15.749c4.675,8.745,11.657,13.431,20.039,16.227
		c20.275,6.763,34.109,19.336,37.199,40.97c4.274,5.292,9.674,7.761,15.359,10.036c15.228,6.094,26.496,16.049,30.445,32.72
		c2.668,11.262-0.692,18.714-10.849,24.355c-5.564,3.09-11.589,4.623-17.77,5.858c-12.14,2.425-17.474,9.004-17.53,21.295
		c-0.027,6.038,0.069,12.077-0.036,18.113c-0.12,6.91-3.85,11.196-9.619,11.294c-5.808,0.098-9.73-4.127-9.895-11.055
		c-0.166-6.963,0.08-13.936-0.091-20.899c-0.194-7.935-4.002-13.852-11.259-16.947c-4.825-2.058-10.099-2.916-16.188-3.341
		c0,10.59,0.004,20.755-0.001,30.92c-0.008,15.577-4.35,21.204-19.271,26.375c-11.86,4.111-24.194,4.626-36.416,4.727
		c-13.875,0.115-27.834-0.618-41.131-5.682c-15.306-5.829-20.586-17.748-13.981-32.777c6.146-13.985,16.873-23.125,31.249-27.874
		c9.419-3.111,18.251-6.817,23.38-17.546c7.748,15.654,23.641,16.211,36.649,24.24c0-10.674,0.039-19.907-0.01-29.139
		c-0.064-11.892-4.988-17.999-16.581-20.473c-5.911-1.262-11.824-2.442-17.239-5.304c-11.069-5.85-14.729-13.788-11.961-25.898
		c0.499-2.184,1.997-4.277,0.766-6.665c0.276-0.063,0.551-0.125,0.453-0.103C288.285,251.321,288.061,251.472,287.837,251.624z
		 M473.477,255.009c0.528-85.594-35.022-151.865-106.768-197.246c-74.303-46.999-174.654-43.487-245.279,7.056
		c-61.938,44.327-94,104.81-97.445,180.934c4.778,0.775,8.207,0.693,12.157,0.042c12.306-21.491,24.728-43.186,36.964-64.553
		c17.595,0,34.457,0,51.568,0c7.055,22.804,14.02,45.314,21.143,68.336c14.375-3.617,28.038-7.055,41.852-10.531
		c7.142,3.878,14.235,7.73,21.742,11.806c9.163-11.472,18.084-22.64,27.198-34.051c12.68,7.93,25.052,14.727,39.428,18.074
		c3.698-1.899,7.647-3.927,12.373-6.354c-54.137-18.862-70.985-73.127-54.672-112.52c16.022-38.69,59.566-60.087,101.048-48.287
		c20.432,5.812,36.707,17.857,47.705,36.145c15.854,26.364,16.544,53.816,3.515,82.075c3.688,0.352,6.409,0.612,9.522,0.91
		c9.942,13.778,19.959,27.659,30.042,41.632c7.282-1.174,14.113-2.275,21.193-3.416
		C455.727,235.108,464.602,245.059,473.477,255.009z M39.403,331.13c29.071,68.12,77.956,113.601,148.24,134.594
		c46.661,13.937,93.367,11.574,139.118-5.401c-33.82-9.878-68.295-15.984-102.5-23.294c-14.962-3.198-30.364-4.703-44.59-10.712
		c-14.901-6.294-17.97-19.423-7.859-32.081c2.02-2.529,4.348-4.833,6.693-7.074c7.071-6.76,15.015-12.391,23.079-17.898
		c5.482-3.744,11.197-7.444,13.846-13.894c-7.628-10.188-46.491-20.347-75.873-20.082c-7.313,13.5-16.979,18.527-33.269,16.495
		c-15.064-1.879-20.978-7.322-23.597-20.843C68.722,333.765,54.734,328.755,39.403,331.13z M364.563,180.608
		c12.677-12.765,15.484-47.543-1.012-70.088c-18.633-25.464-51.309-32.618-77.509-21.19c-31.161,13.592-43.451,44.454-36.472,73.788
		c6.823,28.677,32.346,46.854,55.54,47.393c14.888-15.804,29.726-31.555,44.65-47.397
		C356.078,168.627,358.778,175.947,364.563,180.608z M258.848,372.233c15.514,9.082,61.681,8.625,73.438-0.493
		c-2.125-13.731-17.36-23.855-36.078-23.973C276.55,347.642,261.191,357.56,258.848,372.233z M426.82,314.888
		c-1.421-15.407-20.251-27.984-43.349-25.276c-16.945,1.987-30.164,12.919-29.748,25.646
		C377.943,322.141,402.171,322.34,426.82,314.888z M379.781,265.824c-3.951-17.689-22.266-27.687-43.572-25.084
		c-17.06,2.084-30.119,12.808-29.799,25.706C330.667,273.077,354.925,273.603,379.781,265.824z M110.992,313.136
		c-1.788,6.776-5.037,12.122-5.177,18.436c4.13,2.391,7.743,1.968,11.965-0.629C116.259,325.13,114.982,319.239,110.992,313.136z
		 M76.509,310.94c-0.517-6.271-3.179-11.503-6.716-17.091c-1.715,5.462-3.43,10.923-5.367,17.091
		C69.058,310.94,72.645,310.94,76.509,310.94z"/>
	<path style="fill:#D1C9BD;" d="M473.477,255.009c-8.875-9.951-17.75-19.901-26.712-29.948c-7.081,1.141-13.912,2.242-21.193,3.416
		c-10.083-13.973-20.1-27.854-30.042-41.632c-3.114-0.297-5.835-0.557-9.522-0.91c13.03-28.258,12.339-55.711-3.515-82.075
		c-10.998-18.288-27.273-30.332-47.705-36.145c-41.482-11.8-85.026,9.597-101.048,48.287c-16.313,39.393,0.535,93.658,54.672,112.52
		c-4.726,2.427-8.675,4.455-12.373,6.354c-14.377-3.347-26.748-10.144-39.428-18.074c-9.115,11.411-18.035,22.579-27.198,34.051
		c-7.506-4.076-14.6-7.928-21.742-11.806c-13.814,3.476-27.477,6.914-41.852,10.531c-7.123-23.023-14.088-45.533-21.143-68.336
		c-17.111,0-33.973,0-51.568,0c-12.235,21.367-24.658,43.062-36.964,64.553c-3.951,0.65-7.379,0.733-12.157-0.042
		c3.445-76.124,35.506-136.607,97.445-180.934c70.624-50.543,170.975-54.054,245.279-7.056
		C438.456,103.144,474.006,169.416,473.477,255.009z M157.394,179.565c30.667,0.847,57.072-24.083,57.872-54.642
		c0.842-32.139-23.763-57.899-56.007-58.637c-31.014-0.709-56.882,24.375-57.497,55.756
		C101.15,153.251,125.754,178.691,157.394,179.565z"/>
	<path style="fill:#B5ADA4;" d="M287.74,251.484c1.232,2.39-0.266,4.483-0.765,6.667c-2.769,12.11,0.892,20.048,11.961,25.898
		c5.416,2.862,11.328,4.043,17.239,5.304c11.592,2.474,16.517,8.581,16.581,20.473c0.049,9.232,0.01,18.465,0.01,29.139
		c-13.008-8.029-28.902-8.586-36.649-24.24c-5.13,10.729-13.961,14.434-23.38,17.546c-14.376,4.749-25.103,13.889-31.249,27.874
		c-6.604,15.029-1.324,26.948,13.981,32.777c13.297,5.064,27.256,5.796,41.131,5.682c12.222-0.101,24.555-0.616,36.416-4.727
		c14.921-5.172,19.263-10.798,19.271-26.375c0.005-10.165,0.001-20.33,0.001-30.92c6.089,0.425,11.363,1.283,16.188,3.341
		c7.257,3.094,11.064,9.012,11.259,16.947c0.17,6.963-0.075,13.936,0.091,20.899c0.165,6.928,4.088,11.153,9.895,11.055
		c5.769-0.098,9.499-4.384,9.619-11.294c0.105-6.036,0.008-12.076,0.036-18.113c0.055-12.292,5.39-18.87,17.53-21.295
		c6.181-1.235,12.206-2.768,17.77-5.858c10.157-5.641,13.517-13.092,10.849-24.355c-3.949-16.671-15.217-26.625-30.445-32.72
		c-5.685-2.275-11.085-4.745-15.359-10.036c-3.09-21.635-16.924-34.207-37.199-40.97c-8.381-2.796-15.363-7.482-20.039-16.227
		c-5.002,9.154-12.319,14.306-22.628,15.749c9.09-9.772,18.179-19.544,27.971-30.07c6.313,8.318,12.242,16.13,18.196,23.975
		c7.082-2.556,10.598-10.385,18.434-11.143c10.847,14.776,21.393,29.144,32.092,43.719c7.52-1.256,14.794-2.47,22.479-3.754
		c10.825,12.258,21.708,24.582,32.443,36.736c-6.357,63.612-53.403,133.91-116.919,164.72
		c-54.272-19.962-112.101-23.89-168.359-39.164c4.649-7.47,10.9-11.819,16.809-16.417c6.587-5.125,13.929-9.204,20.159-14.871
		c17.862-16.248,15.515-35.027-6.066-45.541c-19.52-9.51-40.797-12.065-61.968-14.847c-7.34-0.964-14.718-1.636-22.546-2.493
		c-6.965-20.472-13.876-40.788-21.513-63.236c-5.924,17.134-11.152,32.258-16.381,47.382c-0.511,0.03-1.022,0.061-1.533,0.091
		c-7.308-21.698-14.616-43.397-22.633-67.197c-9.213,27.266-17.776,52.609-26.341,77.955c-3.528,1.383-6.953,0.761-11.058,0.463
		c-4.548-13.729-6.706-27.954-7.811-42.706c7.53-2.179,14.781-1.179,22.442-2.025c12.273-21.471,24.682-43.181,37.043-64.805
		c8.495,0,16.584,0,25.602,0c7.341,24.015,14.7,48.092,22.34,73.084c17.689-4.484,34.897-8.847,52.543-13.32
		c3.513,1.976,7.285,4.098,11.705,6.583c-8.628,10.88-16.768,21.146-25.265,31.862c5.253,4.217,10.062,8.078,15.38,12.347
		c18.189-22.991,36.007-45.514,53.85-68.068c8.514,3.248,16.983,5.751,24.753,9.646c7.922,3.971,14.94,3.446,22.137-0.986
		L287.74,251.484z"/>
	<path style="fill:#D1C9BD;" d="M39.403,331.13c15.331-2.374,29.319,2.636,43.288-0.19c2.618,13.521,8.533,18.964,23.597,20.843
		c16.29,2.032,25.956-2.995,33.269-16.495c29.382-0.265,68.245,9.893,75.873,20.082c-2.649,6.451-8.365,10.15-13.846,13.894
		c-8.064,5.507-16.007,11.138-23.079,17.898c-2.345,2.242-4.674,4.546-6.693,7.074c-10.111,12.658-7.042,25.787,7.859,32.081
		c14.227,6.009,29.628,7.515,44.59,10.712c34.205,7.31,68.68,13.415,102.5,23.294c-45.751,16.975-92.457,19.338-139.118,5.401
		C117.359,444.731,68.474,399.25,39.403,331.13z"/>
	<path style="fill:#E07640;" d="M364.563,180.608c-5.785-4.66-8.485-11.981-14.803-17.494
		c-14.924,15.842-29.762,31.593-44.65,47.397c-23.194-0.539-48.717-18.716-55.54-47.393c-6.979-29.333,5.31-60.196,36.472-73.788
		c26.2-11.428,58.876-4.275,77.509,21.19C380.047,133.064,377.24,167.842,364.563,180.608z"/>
	<path style="fill:#B5ADA4;" d="M258.848,372.233c2.343-14.672,17.702-24.591,37.36-24.466
		c18.718,0.119,33.953,10.242,36.078,23.973C320.529,380.858,274.362,381.315,258.848,372.233z"/>
	<path style="fill:#B5ADA4;" d="M426.82,314.888c-24.65,7.452-48.878,7.253-73.097,0.37c-0.415-12.728,12.803-23.659,29.748-25.646
		C406.569,286.904,425.399,299.481,426.82,314.888z"/>
	<path style="fill:#B5ADA4;" d="M379.781,265.824c-24.856,7.779-49.115,7.253-73.371,0.623
		c-0.32-12.898,12.739-23.622,29.799-25.706C357.516,238.137,375.831,248.135,379.781,265.824z"/>
	<path style="fill:#E07640;" d="M110.992,313.136c3.99,6.103,5.267,11.993,6.788,17.807c-4.222,2.596-7.835,3.019-11.965,0.629
		C105.954,325.258,109.204,319.912,110.992,313.136z"/>
	<path style="fill:#E07640;" d="M76.509,310.94c-3.864,0-7.451,0-12.083,0c1.937-6.167,3.652-11.629,5.367-17.091
		C73.33,299.436,75.992,304.669,76.509,310.94z"/>
	<path style="fill:#32302B;" d="M157.394,179.565c-31.64-0.874-56.244-26.314-55.632-57.522
		c0.615-31.381,26.483-56.465,57.497-55.756c32.244,0.738,56.849,26.498,56.007,58.637
		C214.466,155.482,188.061,180.413,157.394,179.565z M195.788,122.895c-0.07-20.081-17.137-37.005-37.366-37.054
		c-19.906-0.048-37.577,17.43-37.511,37.101c0.067,19.89,17.413,36.917,37.623,36.93
		C178.926,159.886,195.858,143.079,195.788,122.895z"/>
	<path style="fill:#E07640;" d="M195.788,122.895c0.071,20.184-16.862,36.991-37.254,36.978c-20.21-0.013-37.557-17.04-37.623-36.93
		c-0.066-19.671,17.605-37.149,37.511-37.101C178.651,85.89,195.717,102.814,195.788,122.895z"/>
</g>
</svg>
