<svg aria-hidden="true" data-testid="test-icon" fill="currentColor" viewBox="0 0 36 32" xmlns="http://www.w3.org/2000/svg"><path d="M21.607 7.615h-9.246v16.772h9.246V7.615z" fill="#FF5F00"/><path d="M12.955 16a10.73 10.73 0 011.06-4.662 10.63 10.63 0 012.976-3.724A10.481 10.481 0 005.842 6.406a10.602 10.602 0 00-4.338 3.935 10.74 10.74 0 00-1.61 5.66c0 2 .558 3.962 1.61 5.658a10.602 10.602 0 004.339 3.935 10.48 10.48 0 0011.148-1.208 10.631 10.631 0 01-2.975-3.723A10.731 10.731 0 0112.956 16z" fill="#EB001B"/><path d="M34.081 16a10.74 10.74 0 01-1.61 5.66 10.6 10.6 0 01-4.338 3.934 10.48 10.48 0 01-11.149-1.208 10.65 10.65 0 002.974-3.724 10.75 10.75 0 000-9.323 10.65 10.65 0 00-2.974-3.725 10.48 10.48 0 0111.148-1.208 10.602 10.602 0 014.34 3.935 10.74 10.74 0 011.61 5.66zM33.087 22.612v-.343h.137v-.07h-.35v.07h.138v.343h.075zm.678 0v-.414h-.107l-.123.285-.123-.285h-.108v.414h.076V22.3l.115.27h.079l.115-.27v.312h.076z" fill="#F79E1B"/></svg>
