<?xml version="1.0" encoding="utf-8"?>
<!-- Generator: Adobe Illustrator 25.2.0, SVG Export Plug-In . SVG Version: 6.00 Build 0)  -->
<svg version="1.1" id="math" xmlns="http://www.w3.org/2000/svg" xmlns:xlink="http://www.w3.org/1999/xlink" x="0px" y="0px"
	 viewBox="0 0 500 500" style="enable-background:new 0 0 500 500;" xml:space="preserve">
<circle cx="157.6" cy="158.6" r="26.3"/>
<circle cx="111.7" cy="204.5" r="26.3"/>
<circle cx="157.9" cy="250.7" r="26.3"/>
<circle cx="65.4" cy="250.7" r="19.9"/>
<circle cx="250.2" cy="250.7" r="19.9"/>
<circle cx="296.5" cy="296.9" r="19.9"/>
<circle cx="204" cy="296.9" r="19.9"/>
<circle cx="111.7" cy="296.9" r="19.9"/>
<circle cx="19" cy="296.9" r="13.2"/>
<circle cx="65.4" cy="342.7" r="13.2"/>
<circle cx="435.1" cy="250.7" r="19.9"/>
<circle cx="388.9" cy="296.9" r="19.9"/>
<circle cx="481.5" cy="296.9" r="13.2"/>
<circle cx="435.1" cy="342.7" r="13.2"/>
<circle cx="250.2" cy="342.7" r="13.2"/>
<circle cx="204" cy="204.5" r="26.3"/>
<circle cx="342.4" cy="158.6" r="26.3"/>
<circle cx="296.4" cy="204.5" r="26.3"/>
<circle cx="342.7" cy="250.7" r="26.3"/>
<circle cx="388.8" cy="204.5" r="26.3"/>
</svg>
