<?xml version="1.0" encoding="utf-8"?>
<!-- Generator: Adobe Illustrator 25.4.1, SVG Export Plug-In . SVG Version: 6.00 Build 0)  -->
<svg version="1.1" id="matter" xmlns="http://www.w3.org/2000/svg" xmlns:xlink="http://www.w3.org/1999/xlink" x="0px" y="0px"
	 viewBox="0 0 500 500" style="enable-background:new 0 0 500 500;" xml:space="preserve">
<style type="text/css">
	.st0{fill-rule:evenodd;clip-rule:evenodd;}
</style>
<path class="st0" d="M369.5,231.3c-55.8,0-101,45.2-101,101c0,19.4,5.5,37.6,15,53c-49.1,39.4-98.8,65.8-141.2,77.3
	c-44,11.9-76.2,6.7-94-11.1c-19.8-19.8-23.9-57.5-6.6-108.7c2.5-7.6-1.5-15.7-9.1-18.3c-7.6-2.5-15.7,1.5-18.3,9.1
	C-3.8,387.6-4,440,27.9,472c28.8,28.8,74.3,31.4,121.9,18.6c47.3-12.8,100.7-41.6,152.2-83c17.9,16.1,41.6,25.9,67.5,25.9
	c55.8,0,101-45.2,101-101C470.6,276.5,425.3,231.3,369.5,231.3z M369.5,408.2c-41.9,0-75.9-34-75.9-75.9c0-41.9,34-75.9,75.9-75.9
	c41.9,0,75.9,34,75.9,75.9C445.4,374.3,411.4,408.2,369.5,408.2z"/>
<path class="st0" d="M472.4,25.9C444.9-1.6,402.1-5.2,357,5.7c-44.3,10.7-94.3,36-143.3,72.7c-16.9-12.7-37.9-20.3-60.7-20.3
	c-55.8,0-101,45.2-101,101c0,55.8,45.2,101,101,101c55.8,0,101-45.2,101-101c0-22.5-7.4-43.3-19.8-60.1
	c45.7-33.7,90.9-56,129.5-65.3C405,23.8,435,29.4,452,46.3c19.8,19.8,23.9,57.5,6.6,108.7c-2.5,7.6,1.5,15.7,9.1,18.3
	c7.6,2.5,15.7-1.5,18.3-9.1C504.1,110.3,504.3,57.9,472.4,25.9z M203.5,169.2h-40.4v40.4h-20.2v-40.4h-40.4V149h40.4v-40.4h20.2V149
	h40.4V169.2z"/>
<path d="M405.6,341v-20.2h-72.2V341H405.6z"/>
</svg>
