<svg aria-hidden="true" data-testid="test-icon" fill="currentColor" viewBox="0 0 24 24" xmlns="http://www.w3.org/2000/svg"><path fill-rule="evenodd" clip-rule="evenodd" d="M13.8 3.9a.9.9 0 01.9-.9h5.4a.9.9 0 01.9.9v5.4a.9.9 0 11-1.8 0V4.8h-4.5a.9.9 0 01-.9-.9zM3.9 13.8a.9.9 0 01.9.9v4.5h4.5a.9.9 0 110 1.8H3.9a.9.9 0 01-.9-.9v-5.4a.9.9 0 01.9-.9z"/><path fill-rule="evenodd" clip-rule="evenodd" d="M20.736 3.264a.9.9 0 010 1.272l-6.3 6.3a.9.9 0 11-1.272-1.272l6.3-6.3a.9.9 0 011.272 0zM10.836 13.164a.9.9 0 010 1.272l-6.3 6.3a.9.9 0 11-1.272-1.272l6.3-6.3a.9.9 0 011.272 0z"/></svg>
