<?xml version="1.0" encoding="utf-8"?>
<!-- Generator: Adobe Illustrator 24.1.2, SVG Export Plug-In . SVG Version: 6.00 Build 0)  -->
<svg version="1.1" id="MBC" xmlns="http://www.w3.org/2000/svg" xmlns:xlink="http://www.w3.org/1999/xlink" x="0px" y="0px"
	 viewBox="0 0 500 500" style="enable-background:new 0 0 500 500;" xml:space="preserve">
<style type="text/css">
	.st0{fill:url(#SVGID_1_);}
	.st1{fill:#FFFFFF;}
</style>
<linearGradient id="SVGID_1_" gradientUnits="userSpaceOnUse" x1="409.6763" y1="430.0272" x2="80.5466" y2="58.9496">
	<stop  offset="0" style="stop-color:#D85BF0"/>
	<stop  offset="1" style="stop-color:#5F3CBE"/>
</linearGradient>
<circle class="st0" cx="250" cy="250" r="250"/>
<path class="st1" d="M340.46,366.48c-13.19,0-25.55,0-38.94,0c0-49.47,0-97.98,0-146.5c-0.95-0.28-25.52,53.33-36.99,80.74
	c-10.3,0-19.9,0-31.2,0c-11.09-26.82-35.26-81.36-36.03-81.26c0,48.61,0,97.23,0,146.86c-13.86,0-26.21,0-39.4,0
	c0-78.31,0-155.91,0-234.37c15.63,0,30.38,0,46.66,0c14.15,35.38,44.67,107.71,45.54,107.88c14.41-36.06,28.81-72.13,43.13-107.96
	c16.25,0,31.29,0,47.23,0C340.46,210.36,340.46,287.97,340.46,366.48z"/>
<path class="st1" d="M268.25,366.46c-12.98,0-25.28,0-38.3,0c0-13.04,0-25.14,0-38.33c12.74,0,25.01,0,38.3,0
	C268.25,340.95,268.25,353.25,268.25,366.46z"/>
</svg>
