<?xml version="1.0" encoding="iso-8859-1"?>
<!-- Generator: Adobe Illustrator 19.0.0, SVG Export Plug-In . SVG Version: 6.00 Build 0)  -->
<svg version="1.1" id="Layer_1" xmlns="http://www.w3.org/2000/svg" xmlns:xlink="http://www.w3.org/1999/xlink" x="0px" y="0px"
	 viewBox="1000 -1000 2500 2500" style="enable-background:new 1000 -1000 2500 2500;" xml:space="preserve">
<path style="fill:#0A2F4B;" d="M1497.779,332.887l274.943-204.7l243.034,154.527v277.831l183.873,176.293l-0.084,82.696
	l-177.171,165.223h-149.738L1497.779,332.887z M2366.574,819.738l-0.361-83.225l183.247-175.932V282.714l240.424-156.416
	l274.414,206.589l-372.992,649.981h-147.729L2366.574,819.738z M2105.937,282.714l-89.458-233.156h531.887l-87.653,233.156
	l25.881,260.517l-205.254,0.445l-202.811,0.361L2105.937,282.714z M2281.34-14.236l-505.464-0.241l93.97-417.871h820.583
	l99.023,418.413L2281.34-14.236z M2281.34-953.587L1243.904-352.444V850.624l1037.435,600.926l1.203,0.626l1045.365-601.6v-1203.02
	L2282.603-954.176L2281.34-953.587z"/>
</svg>
