<?xml version="1.0" encoding="iso-8859-1"?>
<!-- Generator: Adobe Illustrator 19.0.0, SVG Export Plug-In . SVG Version: 6.00 Build 0)  -->
<svg version="1.1" id="Layer_1" xmlns="http://www.w3.org/2000/svg" xmlns:xlink="http://www.w3.org/1999/xlink" x="0px" y="0px"
	 viewBox="2000 0.5 500 500" style="enable-background:new 2000 0.5 500 500;" xml:space="preserve">
<circle style="fill:#1E252C;" cx="2205.528" cy="202.647" r="37.191"/>
<circle style="fill:#1E252C;" cx="2296.816" cy="202.647" r="37.191"/>
<circle style="fill:#1E252C;" cx="2205.528" cy="293.935" r="37.191"/>
<circle style="fill:#1E252C;" cx="2296.816" cy="293.935" r="37.191"/>
<circle style="fill:#1E252C;" cx="2388.104" cy="202.647" r="27.048"/>
<circle style="fill:#1E252C;" cx="2388.104" cy="293.935" r="27.048"/>
<circle style="fill:#1E252C;" cx="2110.859" cy="202.647" r="27.048"/>
<circle style="fill:#1E252C;" cx="2110.859" cy="293.935" r="27.048"/>
<circle style="fill:#1E252C;" cx="2205.528" cy="385.222" r="27.048"/>
<circle style="fill:#1E252C;" cx="2296.816" cy="385.222" r="27.048"/>
<circle style="fill:#1E252C;" cx="2205.528" cy="111.359" r="27.048"/>
<circle style="fill:#1E252C;" cx="2296.816" cy="111.359" r="27.048"/>
<circle style="fill:#1E252C;" cx="2205.528" cy="20.072" r="16.905"/>
<circle style="fill:#1E252C;" cx="2296.816" cy="20.072" r="16.905"/>
<circle style="fill:#1E252C;" cx="2479.391" cy="202.647" r="16.905"/>
<circle style="fill:#1E252C;" cx="2479.391" cy="293.935" r="16.905"/>
<circle style="fill:#1E252C;" cx="2019.572" cy="202.647" r="16.905"/>
<circle style="fill:#1E252C;" cx="2019.572" cy="293.935" r="16.905"/>
<circle style="fill:#1E252C;" cx="2205.528" cy="479.891" r="16.905"/>
<circle style="fill:#1E252C;" cx="2296.816" cy="479.891" r="16.905"/>
</svg>
