<?xml version="1.0" encoding="utf-8"?>
<!-- Generator: Adobe Illustrator 25.2.0, SVG Export Plug-In . SVG Version: 6.00 Build 0)  -->
<svg version="1.1" id="med" xmlns="http://www.w3.org/2000/svg" xmlns:xlink="http://www.w3.org/1999/xlink" x="0px" y="0px"
	 viewBox="0 0 500 500" style="enable-background:new 0 0 500 500;" xml:space="preserve">
<style type="text/css">
	.st0{fill:#0073F1;}
	.st1{fill:#C2E4FF;}
</style>
<path class="st0" d="M191.2,132.9L74.8,394.6c-7.8,17.6-28.5,25.5-46.1,17.7l0,0c-17.6-7.8-25.5-28.5-17.7-46.1l116.4-261.7
	c7.8-17.6,28.5-25.5,46.1-17.7l0,0C191.1,94.7,199.1,115.3,191.2,132.9z"/>
<path class="st1" d="M489.4,132.9L373,394.6c-7.8,17.6-28.5,25.5-46.1,17.7l0,0c-17.6-7.8-25.5-28.5-17.7-46.1l116.4-261.7
	c7.8-17.6,28.5-25.5,46.1-17.7l0,0C489.3,94.7,497.3,115.3,489.4,132.9z"/>
<path class="st0" d="M340.1,133.5l-57.9,130.2c-7.8,17.6-28.5,25.5-46.1,17.7h0c-17.6-7.8-25.5-28.5-17.7-46.1l57.9-130.2
	c7.8-17.6,28.5-25.5,46.1-17.7l0,0C340,95.2,347.9,115.8,340.1,133.5z"/>
<path class="st0" d="M489.4,132.9L489.4,132.9c-7.8,17.6-28.5,25.5-46.1,17.7l0,0c-17.6-7.8-25.5-28.5-17.7-46.1l0,0
	c7.8-17.6,28.5-25.5,46.1-17.7l0,0C489.3,94.7,497.3,115.3,489.4,132.9z"/>
<path class="st0" d="M373,394.6L373,394.6c-7.8,17.6-28.5,25.5-46.1,17.7l0,0c-17.6-7.8-25.5-28.5-17.7-46.1l0,0
	c7.8-17.6,28.5-25.5,46.1-17.7l0,0C372.9,356.4,380.8,377,373,394.6z"/>
</svg>
