<svg width="24" height="24" viewBox="0 0 24 24" fill="currentColor" xmlns="http://www.w3.org/2000/svg">
<path d="M13.4138 12C13.4138 15.3113 10.6414 18 7.2069 18C3.77241 18 1 15.3113 1 12C1 8.68874 3.77241 6 7.2069 6C10.6414 6 13.4138 8.68874 13.4138 12ZM20.2138 12C20.2138 15.1126 18.8207 17.6424 17.1103 17.6424C15.4 17.6424 14.0069 15.1126 14.0069 12C14.0069 8.88742 15.4 6.35761 17.1103 6.35761C18.8207 6.35761 20.2138 8.87417 20.2138 12ZM23 12C23 14.7947 22.5172 17.0596 21.9103 17.0596C21.3034 17.0596 20.8207 14.7947 20.8207 12C20.8207 9.2053 21.3034 6.94039 21.9103 6.94039C22.5172 6.94039 23 9.2053 23 12Z" />
</svg>
