<svg width="24" height="24" viewBox="0 0 24 24" fill="currentColor" xmlns="http://www.w3.org/2000/svg">
<path fill-rule="evenodd" clip-rule="evenodd" d="M6.75 6C6.55109 6 6.36032 6.07902 6.21967 6.21967C6.07902 6.36032 6 6.55109 6 6.75V16.9393L7.71967 15.2197C7.86032 15.079 8.05109 15 8.25 15H17.25C17.4489 15 17.6397 14.921 17.7803 14.7803C17.921 14.6397 18 14.4489 18 14.25V6.75C18 6.55109 17.921 6.36032 17.7803 6.21967C17.6397 6.07902 17.4489 6 17.25 6H6.75ZM5.15901 5.15901C5.58097 4.73705 6.15326 4.5 6.75 4.5H17.25C17.8467 4.5 18.419 4.73705 18.841 5.15901C19.2629 5.58097 19.5 6.15326 19.5 6.75V14.25C19.5 14.8467 19.2629 15.419 18.841 15.841C18.419 16.2629 17.8467 16.5 17.25 16.5H8.56066L5.78033 19.2803C5.56583 19.4948 5.24324 19.559 4.96299 19.4429C4.68273 19.3268 4.5 19.0533 4.5 18.75V6.75C4.5 6.15326 4.73705 5.58097 5.15901 5.15901Z" />
</svg>
