<?xml version="1.0" encoding="iso-8859-1"?>
<!-- Generator: Adobe Illustrator 19.0.0, SVG Export Plug-In . SVG Version: 6.00 Build 0)  -->
<svg version="1.1" id="Layer_1" xmlns="http://www.w3.org/2000/svg" xmlns:xlink="http://www.w3.org/1999/xlink" x="0px" y="0px"
	 viewBox="0 0 500 500" style="enable-background:new 0 0 500 500;" xml:space="preserve">
<path style="fill:#29272A;" d="M249.661,494.755C113.379,493.925,3.19,383.111,4.21,247.911
	C5.241,111.144,116.014,1.995,252.759,3.007c134.55,0.995,244.052,112.23,243.238,247.089
	C495.18,385.476,384.327,495.575,249.661,494.755z M343.076,274.873c0,13.396-0.027,26.792,0.009,40.187
	c0.027,10.255,5.879,17.32,14.36,17.452c8.197,0.127,14.55-7.342,14.584-17.319c0.052-15.25,0.168-30.503-0.03-45.751
	c-0.19-14.602,0.338-29.327-1.366-43.772c-3.647-30.911-32.692-56.21-63.87-56.596c-20.224-0.251-37.347,7.384-51.222,21.998
	c-3.231,3.403-4.986,3.481-8.187-0.123c-12.396-13.954-28.339-21.273-46.813-21.81c-36.342-1.055-68.399,28.049-69.899,64.412
	c-1.146,27.775-0.272,55.634-0.206,83.456c0.014,5.824,3.045,10.202,7.768,13.303c4.305,2.826,9.163,3.119,13.485,0.492
	c5.003-3.042,7.702-7.753,7.685-13.919c-0.076-26.379-0.103-52.759-0.025-79.138c0.067-22.589,17.168-39.774,39.348-39.731
	c21.819,0.043,37.975,16.711,38.038,39.348c0.053,18.96,0.001,37.92-0.001,56.88c-0.001,7.625-0.156,15.255,0.057,22.875
	c0.244,8.697,6.842,15.606,14.506,15.587c7.564-0.018,14.099-7.122,14.379-15.664c0.061-1.853,0.016-3.709,0.017-5.564
	c0.005-25.143-0.168-50.287,0.068-75.428c0.203-21.586,17.714-38.138,39.671-38.005c21.083,0.128,37.505,16.878,37.639,38.496
	C343.148,249.317,343.083,262.095,343.076,274.873z"/>
<path style="fill:#7F61F6;" d="M343.079,274.873c0.004-12.777,0.068-25.555-0.011-38.332c-0.134-21.618-16.556-38.369-37.639-38.496
	c-21.956-0.133-39.467,16.419-39.671,38.005c-0.237,25.141-0.063,50.285-0.068,75.428c0,1.855,0.044,3.711-0.017,5.564
	c-0.28,8.542-6.815,15.645-14.379,15.664c-7.664,0.019-14.262-6.89-14.506-15.587c-0.214-7.619-0.058-15.249-0.057-22.875
	c0.002-18.96,0.054-37.92,0.001-56.88c-0.063-22.638-16.219-39.306-38.038-39.348c-22.18-0.043-39.281,17.141-39.348,39.731
	c-0.078,26.379-0.051,52.759,0.025,79.138c0.018,6.166-2.681,10.878-7.685,13.919c-4.321,2.627-9.18,2.334-13.485-0.492
	c-4.723-3.101-7.754-7.478-7.768-13.303c-0.066-27.822-0.94-55.681,0.206-83.456c1.5-36.363,33.556-65.467,69.899-64.412
	c18.474,0.536,34.417,7.856,46.813,21.81c3.202,3.604,4.956,3.526,8.187,0.123c13.875-14.614,30.999-22.249,51.222-21.998
	c31.178,0.387,60.223,25.686,63.87,56.596c1.704,14.445,1.176,29.17,1.366,43.772c0.198,15.248,0.082,30.501,0.03,45.751
	c-0.034,9.977-6.388,17.447-14.584,17.319c-8.481-0.132-14.333-7.197-14.36-17.452C343.049,301.664,343.076,288.268,343.079,274.873
	z"/>
</svg>
