<svg width="20" height="20" fill="none" xmlns="http://www.w3.org/2000/svg"><path d="M19.011.75l-7.813 5.781 1.453-3.407L19.011.75z" fill="url(#prefix__paint0_linear_9993_54109)"/><path d="M19.011.75l-7.813 5.781 1.453-3.407L19.011.75z" fill="url(#prefix__paint1_linear_9993_54109)"/><path d="M.99.75l7.743 5.835-1.383-3.46L.99.75z" fill="url(#prefix__paint2_linear_9993_54109)"/><path d="M.99.75l7.743 5.835-1.383-3.46L.99.75z" fill="url(#prefix__paint3_linear_9993_54109)"/><path d="M16.198 14.155L14.12 17.33l4.451 1.226 1.275-4.332-3.648-.07z" fill="url(#prefix__paint4_linear_9993_54109)"/><path d="M16.198 14.155L14.12 17.33l4.451 1.226 1.275-4.332-3.648-.07z" fill="url(#prefix__paint5_linear_9993_54109)"/><path d="M.163 14.224l1.267 4.332 4.444-1.226-2.071-3.175-3.64.069z" fill="url(#prefix__paint6_linear_9993_54109)"/><path d="M.163 14.224l1.267 4.332 4.444-1.226-2.071-3.175-3.64.069z" fill="url(#prefix__paint7_linear_9993_54109)"/><path d="M5.634 8.79l-1.237 1.865 4.405.2-.146-4.74L5.634 8.79z" fill="url(#prefix__paint8_linear_9993_54109)"/><path d="M5.634 8.79l-1.237 1.865 4.405.2-.146-4.74L5.634 8.79z" fill="url(#prefix__paint9_linear_9993_54109)"/><path d="M14.367 8.79L11.299 6.06l-.1 4.795 4.404-.2-1.236-1.866z" fill="url(#prefix__paint10_linear_9993_54109)"/><path d="M5.874 17.33l2.666-1.287-2.295-1.788-.371 3.075zM11.46 16.043l2.659 1.287-.363-3.075-2.296 1.788z" fill="#E27625"/><path d="M14.119 17.33l-2.659-1.287.217 1.727-.023.732 2.465-1.172z" fill="url(#prefix__paint11_linear_9993_54109)"/><path d="M5.874 17.33l2.473 1.172-.016-.732.209-1.727-2.666 1.287z" fill="url(#prefix__paint12_radial_9993_54109)"/><path d="M8.393 13.114l-2.21-.648 1.56-.717.65 1.365z" fill="url(#prefix__paint13_linear_9993_54109)"/><path d="M11.608 13.114l.65-1.365 1.568.717-2.218.648z" fill="url(#prefix__paint14_linear_9993_54109)"/><path d="M5.873 17.33l.387-3.175-2.458.069 2.071 3.106zM13.74 14.155l.379 3.175 2.079-3.106-2.458-.07zM15.603 10.655l-4.405.2.41 2.259.649-1.365 1.569.717 1.777-1.811zM6.183 12.466l1.56-.717.65 1.365.41-2.259-4.406-.2 1.786 1.811z" fill="#CC6228"/><path d="M4.397 10.655l1.847 3.6-.061-1.789-1.786-1.811zM13.826 12.466l-.07 1.789 1.847-3.6-1.777 1.811zM8.803 10.855l-.41 2.259.518 2.667.116-3.515-.224-1.41zM11.197 10.855l-.216 1.403.108 3.523.518-2.667-.41-2.259z" fill="#E27525"/><path d="M11.607 13.114l-.518 2.667.371.262 2.296-1.788.07-1.789-2.219.648z" fill="url(#prefix__paint15_linear_9993_54109)"/><path d="M6.183 12.466l.061 1.789 2.296 1.788.37-.262-.517-2.667-2.21-.648z" fill="url(#prefix__paint16_linear_9993_54109)"/><path d="M11.654 18.502l.023-.732-.2-.17H8.523l-.193.17.016.732-2.473-1.172.865.71 1.754 1.21H11.5l1.762-1.21.857-.71-2.465 1.172z" fill="#C0AC9D"/><path d="M11.46 16.043l-.371-.262h-2.18l-.37.262-.209 1.727.193-.17h2.952l.201.17-.216-1.727z" fill="url(#prefix__paint17_linear_9993_54109)"/><path d="M19.343 6.909L20 3.718 19.01.75l-7.55 5.588 2.906 2.452 4.104 1.194.904-1.056-.394-.285.626-.57-.48-.37.627-.478-.41-.316z" fill="url(#prefix__paint18_linear_9993_54109)"/><path d="M0 3.718l.665 3.191-.425.316.633.478-.479.37.626.57-.394.286.904 1.056L5.634 8.79 8.54 6.339.99.75 0 3.718z" fill="url(#prefix__paint19_linear_9993_54109)"/><path d="M18.47 9.985L14.368 8.79l1.236 1.865-1.847 3.6 2.442-.03h3.648l-1.375-4.24z" fill="url(#prefix__paint20_radial_9993_54109)"/><path d="M18.47 9.985L14.368 8.79l1.236 1.865-1.847 3.6 2.442-.03h3.648l-1.375-4.24z" fill="url(#prefix__paint21_linear_9993_54109)"/><path d="M5.634 8.79L1.53 9.985l-1.367 4.24h3.64l2.442.03-1.847-3.6L5.634 8.79z" fill="url(#prefix__paint22_radial_9993_54109)"/><path d="M5.634 8.79L1.53 9.985l-1.367 4.24h3.64l2.442.03-1.847-3.6L5.634 8.79z" fill="url(#prefix__paint23_linear_9993_54109)"/><path d="M11.2 10.856l.262-4.517 1.19-3.215H7.351L8.54 6.34l.262 4.517.1 1.418.009 3.507h2.179l.008-3.507.1-1.418z" fill="url(#prefix__paint24_linear_9993_54109)"/><defs><linearGradient id="prefix__paint0_linear_9993_54109" x1="12.175" y1="6.126" x2="22.215" y2="-4.073" gradientUnits="userSpaceOnUse"><stop stop-color="#E17726"/><stop offset="1" stop-color="#E17726" stop-opacity="0"/></linearGradient><linearGradient id="prefix__paint1_linear_9993_54109" x1="15.174" y1="6.167" x2="12.531" y2="-2.345" gradientUnits="userSpaceOnUse"><stop stop-color="#E27625"/><stop offset="1" stop-color="#FCA15C" stop-opacity=".83"/></linearGradient><linearGradient id="prefix__paint2_linear_9993_54109" x1="9.488" y1="6.6" x2="-.395" y2="-3.756" gradientUnits="userSpaceOnUse"><stop stop-color="#E27625"/><stop offset="1" stop-color="#E27625" stop-opacity="0"/></linearGradient><linearGradient id="prefix__paint3_linear_9993_54109" x1="4.93" y1="6.217" x2="2.222" y2="-2.346" gradientUnits="userSpaceOnUse"><stop stop-color="#E27625"/><stop offset="1" stop-color="#FCA15C" stop-opacity=".83"/></linearGradient><linearGradient id="prefix__paint4_linear_9993_54109" x1="13.124" y1="14.19" x2="18.739" y2="22.195" gradientUnits="userSpaceOnUse"><stop offset=".256" stop-color="#E27625"/><stop offset="1" stop-color="#E27625" stop-opacity="0"/></linearGradient><linearGradient id="prefix__paint5_linear_9993_54109" x1="17.034" y1="18.279" x2="14.958" y2="11.843" gradientUnits="userSpaceOnUse"><stop stop-color="#E27625"/><stop offset="1" stop-color="#FCA15C" stop-opacity=".83"/></linearGradient><linearGradient id="prefix__paint6_linear_9993_54109" x1="6.325" y1="14.19" x2="-.949" y2="20.831" gradientUnits="userSpaceOnUse"><stop offset=".247" stop-color="#E27625"/><stop offset="1" stop-color="#E27625" stop-opacity="0"/></linearGradient><linearGradient id="prefix__paint7_linear_9993_54109" x1="3.069" y1="18.279" x2=".989" y2="11.846" gradientUnits="userSpaceOnUse"><stop stop-color="#E27625"/><stop offset="1" stop-color="#FCA15C" stop-opacity=".83"/></linearGradient><linearGradient id="prefix__paint8_linear_9993_54109" x1="5.218" y1="10.079" x2="13.677" y2="3.122" gradientUnits="userSpaceOnUse"><stop stop-color="#E27625"/><stop offset="1" stop-color="#E27625" stop-opacity="0"/></linearGradient><linearGradient id="prefix__paint9_linear_9993_54109" x1="6.639" y1="10.557" x2="3.768" y2="4.201" gradientUnits="userSpaceOnUse"><stop stop-color="#E27625"/><stop offset="1" stop-color="#FCA15C" stop-opacity=".83"/></linearGradient><linearGradient id="prefix__paint10_linear_9993_54109" x1="13.44" y1="10.553" x2="10.515" y2="4.15" gradientUnits="userSpaceOnUse"><stop stop-color="#E27625"/><stop offset="1" stop-color="#FCA15C" stop-opacity=".83"/></linearGradient><linearGradient id="prefix__paint11_linear_9993_54109" x1="12.79" y1="16.043" x2="15.652" y2="22.446" gradientUnits="userSpaceOnUse"><stop stop-color="#D5BFB2"/><stop offset="1" stop-color="#D5BFB2" stop-opacity="0"/></linearGradient><linearGradient id="prefix__paint13_linear_9993_54109" x1="7.288" y1="11.749" x2="7.288" y2="13.114" gradientUnits="userSpaceOnUse"><stop stop-color="#041836"/><stop offset="1" stop-color="#17396B"/></linearGradient><linearGradient id="prefix__paint14_linear_9993_54109" x1="12.717" y1="11.749" x2="12.717" y2="13.114" gradientUnits="userSpaceOnUse"><stop stop-color="#041836"/><stop offset="1" stop-color="#17396B"/></linearGradient><linearGradient id="prefix__paint15_linear_9993_54109" x1="13.518" y1="12.451" x2="6.482" y2="20.515" gradientUnits="userSpaceOnUse"><stop offset=".2" stop-color="#F5841F"/><stop offset="1" stop-color="#F5841F" stop-opacity="0"/></linearGradient><linearGradient id="prefix__paint16_linear_9993_54109" x1="6.167" y1="12.451" x2="11.78" y2="19.803" gradientUnits="userSpaceOnUse"><stop offset=".328" stop-color="#F5841F"/><stop offset="1" stop-color="#F5841F" stop-opacity="0"/></linearGradient><linearGradient id="prefix__paint17_linear_9993_54109" x1="10.003" y1="15.781" x2="10.003" y2="17.77" gradientUnits="userSpaceOnUse"><stop stop-color="#041836"/><stop offset="1" stop-color="#17396B"/></linearGradient><linearGradient id="prefix__paint18_linear_9993_54109" x1="13.924" y1="8.012" x2="19.971" y2="3.831" gradientUnits="userSpaceOnUse"><stop stop-color="#592B0D"/><stop offset="1" stop-color="#763E1A"/></linearGradient><linearGradient id="prefix__paint19_linear_9993_54109" x1="7.942" y1="6.725" x2=".415" y2="2.673" gradientUnits="userSpaceOnUse"><stop stop-color="#592B0D"/><stop offset="1" stop-color="#763E1A"/></linearGradient><linearGradient id="prefix__paint21_linear_9993_54109" x1="16.855" y1="13.911" x2="13.945" y2="6.184" gradientUnits="userSpaceOnUse"><stop stop-color="#E27625"/><stop offset="1" stop-color="#FCA15C" stop-opacity=".83"/></linearGradient><linearGradient id="prefix__paint23_linear_9993_54109" x1="3.258" y1="13.911" x2=".345" y2="6.187" gradientUnits="userSpaceOnUse"><stop stop-color="#E27625"/><stop offset="1" stop-color="#FCA15C" stop-opacity=".83"/></linearGradient><linearGradient id="prefix__paint24_linear_9993_54109" x1="9.962" y1="3.122" x2="9.962" y2="28.579" gradientUnits="userSpaceOnUse"><stop offset=".268" stop-color="#F5841F"/><stop offset="1" stop-color="#FFC796" stop-opacity=".89"/></linearGradient><radialGradient id="prefix__paint12_radial_9993_54109" cx="0" cy="0" r="1" gradientUnits="userSpaceOnUse" gradientTransform="rotate(116.98 -.498 10.363) scale(12.5928 13.6543)"><stop stop-color="#D5BFB2"/><stop offset="1" stop-color="#D5BFB2" stop-opacity="0"/></radialGradient><radialGradient id="prefix__paint20_radial_9993_54109" cx="0" cy="0" r="1" gradientUnits="userSpaceOnUse" gradientTransform="matrix(8.62568 1.78463 -1.9886 9.61153 15.17 11.19)"><stop offset=".264" stop-color="#F5841F"/><stop offset="1" stop-color="#F5841F" stop-opacity="0"/></radialGradient><radialGradient id="prefix__paint22_radial_9993_54109" cx="0" cy="0" r="1" gradientUnits="userSpaceOnUse" gradientTransform="matrix(-14.62585 -5.37605 5.98288 -16.27676 6.878 14.19)"><stop offset=".3" stop-color="#F5841F"/><stop offset=".567" stop-color="#F5841F" stop-opacity="0"/></radialGradient></defs></svg>
