<svg aria-hidden="true" data-testid="test-icon" viewBox="0 0 24 24" fill="currentColor" xmlns="http://www.w3.org/2000/svg"><path fill-rule="evenodd" clip-rule="evenodd" d="M20.57 11.96a.207.207 0 00-.02.169l1.274 3.99a.207.207 0 010 .12l-1.179 4.216a.208.208 0 01-.258.145l-4.098-1.17a.206.206 0 00-.178.031l-2.575 1.831a.207.207 0 01-.121.039h-2.826a.207.207 0 01-.122-.039l-2.574-1.831a.207.207 0 00-.178-.03l-4.099 1.168a.209.209 0 01-.258-.144l-1.18-4.215a.206.206 0 010-.12l1.274-3.99a.209.209 0 00-.019-.17l-.11-.188a.211.211 0 01-.025-.061L2.005 5.804a.208.208 0 01.005-.11l.923-2.8a.208.208 0 01.272-.13l5.997 2.297a.21.21 0 00.074.014L12 5.081l2.724-.006c.025 0 .05-.005.074-.014l5.997-2.297a.209.209 0 01.273.128l.922 2.801a.208.208 0 01.006.11l-1.293 5.907a.199.199 0 01-.023.062l-.11.188zm-1.102-.693l1.193-5.45-.47-1.43-4.931 1.89a1.508 1.508 0 01-.536.098m0 0l.738.76-1.747 1.372-4.44-2.132m-.001 0a1.51 1.51 0 01-.533-.098l-.004-.002-4.928-1.888-.47 1.43 1.191 5.444.024.04a1.509 1.509 0 01.136 1.224v.002l-1.173 3.674.797 2.848 3.036-.866a1.507 1.507 0 011.297.22l.004.002 2.286 1.626h2.13l2.288-1.628a1.506 1.506 0 011.293-.222l3.04.867.797-2.848-1.172-3.671-.001-.003a1.505 1.505 0 01.137-1.227l.019-.032m1.111 4.597l-.006.021.006-.021zm-9.997 4.167h.007-.007zm-7.16-4.167l.006.021-.006-.02z"/><path d="M3.522 3.656l-.898 2.277a.206.206 0 00-.008.13l1.376 5.253a.208.208 0 00.256.148l3.596-.977a.213.213 0 00.074-.037l2.542-2.005a.21.21 0 00-.011-.335L3.834 3.56a.208.208 0 00-.312.096zM20.477 3.656l.898 2.276c.015.041.018.086.006.128l-1.375 5.253a.208.208 0 01-.257.148l-3.595-.976a.212.212 0 01-.075-.037L13.54 8.445a.208.208 0 01.011-.335l6.614-4.551a.209.209 0 01.312.097zM12.02 18.408l1.403-.02a.207.207 0 00.197-.147.209.209 0 00.007-.087l-.126-.974s-.03-.093-.065-.126l-.264-.248a.21.21 0 00-.14-.056h-2.067a.207.207 0 00-.14.056l-.265.248a.213.213 0 00-.065.126l-.126.974a.209.209 0 00.204.235l1.402.02h.047-.001zM10.6 14.263l-.624-1.266a.265.265 0 00-.354-.12l-1.472.719a.266.266 0 00.05.496l2.095.55a.266.266 0 00.305-.38zM13.658 14.263l.624-1.266a.266.266 0 01.354-.12l1.472.719a.266.266 0 01-.049.496l-2.096.55a.266.266 0 01-.305-.38z"/></svg>
