<svg width="20" height="20" viewBox="0 0 20 20" fill="none" xmlns="http://www.w3.org/2000/svg">
<path d="M19.0114 0.75L11.1982 6.53117L12.6512 3.12414L19.0114 0.75Z" fill="url(#paint0_linear_9993_54109)"/>
<path d="M19.0114 0.75L11.1982 6.53117L12.6512 3.12414L19.0114 0.75Z" fill="url(#paint1_linear_9993_54109)"/>
<path d="M0.989258 0.75L8.73283 6.58512L7.34951 3.12413L0.989258 0.75Z" fill="url(#paint2_linear_9993_54109)"/>
<path d="M0.989258 0.75L8.73283 6.58512L7.34951 3.12413L0.989258 0.75Z" fill="url(#paint3_linear_9993_54109)"/>
<path d="M16.1985 14.1545L14.1196 17.3303L18.571 18.556L19.8462 14.224L16.1985 14.1545Z" fill="url(#paint4_linear_9993_54109)"/>
<path d="M16.1985 14.1545L14.1196 17.3303L18.571 18.556L19.8462 14.224L16.1985 14.1545Z" fill="url(#paint5_linear_9993_54109)"/>
<path d="M0.162598 14.224L1.43 18.556L5.87368 17.3303L3.80253 14.1545L0.162598 14.224Z" fill="url(#paint6_linear_9993_54109)"/>
<path d="M0.162598 14.224L1.43 18.556L5.87368 17.3303L3.80253 14.1545L0.162598 14.224Z" fill="url(#paint7_linear_9993_54109)"/>
<path d="M5.63394 8.78972L4.39746 10.6551L8.80248 10.8555L8.65566 6.11499L5.63394 8.78972Z" fill="url(#paint8_linear_9993_54109)"/>
<path d="M5.63394 8.78972L4.39746 10.6551L8.80248 10.8555L8.65566 6.11499L5.63394 8.78972Z" fill="url(#paint9_linear_9993_54109)"/>
<path d="M14.3667 8.78974L11.2987 6.06104L11.1982 10.8556L15.6032 10.6551L14.3667 8.78974Z" fill="url(#paint10_linear_9993_54109)"/>
<path d="M5.87354 17.3304L8.5397 16.0432L6.2445 14.2549L5.87354 17.3304Z" fill="#E27625"/>
<path d="M11.4604 16.0432L14.1189 17.3304L13.7557 14.2549L11.4604 16.0432Z" fill="#E27625"/>
<path d="M14.1189 17.3302L11.4604 16.043L11.6768 17.7696L11.6536 18.5019L14.1189 17.3302Z" fill="url(#paint11_linear_9993_54109)"/>
<path d="M5.87354 17.3302L8.34655 18.5019L8.33108 17.7696L8.5397 16.043L5.87354 17.3302Z" fill="url(#paint12_radial_9993_54109)"/>
<path d="M8.39287 13.1136L6.18262 12.4662L7.74369 11.7493L8.39287 13.1136Z" fill="url(#paint13_linear_9993_54109)"/>
<path d="M11.6084 13.1136L12.2576 11.7493L13.8264 12.4662L11.6084 13.1136Z" fill="url(#paint14_linear_9993_54109)"/>
<path d="M5.87336 17.3303L6.25979 14.1545L3.80225 14.224L5.87336 17.3303Z" fill="#CC6228"/>
<path d="M13.7402 14.1545L14.1189 17.3303L16.1978 14.224L13.7402 14.1545Z" fill="#CC6228"/>
<path d="M15.6032 10.6548L11.1982 10.8552L11.6078 13.1138L12.257 11.7494L13.8258 12.4662L15.6032 10.6548Z" fill="#CC6228"/>
<path d="M6.18265 12.4662L7.74372 11.7494L8.39291 13.1138L8.80248 10.8552L4.39746 10.6548L6.18265 12.4662Z" fill="#CC6228"/>
<path d="M4.39746 10.6548L6.24449 14.2545L6.18263 12.4662L4.39746 10.6548Z" fill="#E27525"/>
<path d="M13.8259 12.4662L13.7563 14.2545L15.6034 10.6548L13.8259 12.4662Z" fill="#E27525"/>
<path d="M8.8027 10.8555L8.39307 13.114L8.91085 15.781L9.02679 12.2661L8.8027 10.8555Z" fill="#E27525"/>
<path d="M11.1974 10.8555L10.981 12.2584L11.0892 15.781L11.6069 13.114L11.1974 10.8555Z" fill="#E27525"/>
<path d="M11.6071 13.1138L11.0894 15.7808L11.4603 16.0429L13.7556 14.2546L13.8251 12.4663L11.6071 13.1138Z" fill="url(#paint15_linear_9993_54109)"/>
<path d="M6.18262 12.4663L6.24448 14.2546L8.53969 16.0429L8.91065 15.7808L8.39287 13.1138L6.18262 12.4663Z" fill="url(#paint16_linear_9993_54109)"/>
<path d="M11.6542 18.502L11.6773 17.7697L11.4764 17.6001L8.5243 17.6001L8.33108 17.7697L8.34655 18.502L5.87354 17.3303L6.73908 18.0395L8.49336 19.2497L11.4996 19.2497L13.2616 18.0395L14.1194 17.3303L11.6542 18.502Z" fill="#C0AC9D"/>
<path d="M11.46 16.0433L11.089 15.7812L8.90966 15.7812L8.53876 16.0433L8.33008 17.77L8.52329 17.6004L11.4754 17.6004L11.6764 17.77L11.46 16.0433Z" fill="url(#paint17_linear_9993_54109)"/>
<path d="M19.3431 6.90885L20 3.71767L19.0108 0.75L11.4604 6.33849L14.3662 8.78967L18.4698 9.98447L19.374 8.92845L18.9799 8.64321L19.6058 8.07285L19.1267 7.70283L19.7527 7.22491L19.3431 6.90885Z" fill="url(#paint18_linear_9993_54109)"/>
<path d="M-9.57447e-10 3.71791L0.664618 6.9091L0.239574 7.22516L0.873276 7.70308L0.394134 8.07309L1.02011 8.64346L0.625975 8.9287L1.53017 9.98472L5.63382 8.78991L8.53954 6.33873L0.989199 0.750244L-9.57447e-10 3.71791Z" fill="url(#paint19_linear_9993_54109)"/>
<path d="M18.4705 9.98454L14.3669 8.78979L15.6034 10.6552L13.7563 14.2549L16.1984 14.2241L19.8461 14.2241L18.4705 9.98454Z" fill="url(#paint20_radial_9993_54109)"/>
<path d="M18.4705 9.98454L14.3669 8.78979L15.6034 10.6552L13.7563 14.2549L16.1984 14.2241L19.8461 14.2241L18.4705 9.98454Z" fill="url(#paint21_linear_9993_54109)"/>
<path d="M5.63407 8.78979L1.53047 9.98454L0.162598 14.2241L3.80254 14.2241L6.24459 14.2549L4.3976 10.6552L5.63407 8.78979Z" fill="url(#paint22_radial_9993_54109)"/>
<path d="M5.63407 8.78979L1.53047 9.98454L0.162598 14.2241L3.80254 14.2241L6.24459 14.2549L4.3976 10.6552L5.63407 8.78979Z" fill="url(#paint23_linear_9993_54109)"/>
<path d="M11.1992 10.8556L11.4619 6.33857L12.652 3.12427L7.35059 3.12427L8.54069 6.33857L8.80345 10.8556L8.90392 12.2739L8.91166 15.7812L11.091 15.7812L11.0987 12.2739L11.1992 10.8556Z" fill="url(#paint24_linear_9993_54109)"/>
<defs>
<linearGradient id="paint0_linear_9993_54109" x1="12.1751" y1="6.126" x2="22.2155" y2="-4.07259" gradientUnits="userSpaceOnUse">
<stop stop-color="#E17726"/>
<stop offset="1" stop-color="#E17726" stop-opacity="0"/>
</linearGradient>
<linearGradient id="paint1_linear_9993_54109" x1="15.1744" y1="6.16694" x2="12.5312" y2="-2.34498" gradientUnits="userSpaceOnUse">
<stop stop-color="#E27625"/>
<stop offset="1" stop-color="#FCA15C" stop-opacity="0.83"/>
</linearGradient>
<linearGradient id="paint2_linear_9993_54109" x1="9.48777" y1="6.60035" x2="-0.394579" y2="-3.75635" gradientUnits="userSpaceOnUse">
<stop stop-color="#E27625"/>
<stop offset="1" stop-color="#E27625" stop-opacity="0"/>
</linearGradient>
<linearGradient id="paint3_linear_9993_54109" x1="4.93005" y1="6.21749" x2="2.22192" y2="-2.3459" gradientUnits="userSpaceOnUse">
<stop stop-color="#E27625"/>
<stop offset="1" stop-color="#FCA15C" stop-opacity="0.83"/>
</linearGradient>
<linearGradient id="paint4_linear_9993_54109" x1="13.1243" y1="14.1901" x2="18.7392" y2="22.1949" gradientUnits="userSpaceOnUse">
<stop offset="0.256463" stop-color="#E27625"/>
<stop offset="1" stop-color="#E27625" stop-opacity="0"/>
</linearGradient>
<linearGradient id="paint5_linear_9993_54109" x1="17.0339" y1="18.2787" x2="14.958" y2="11.8429" gradientUnits="userSpaceOnUse">
<stop stop-color="#E27625"/>
<stop offset="1" stop-color="#FCA15C" stop-opacity="0.83"/>
</linearGradient>
<linearGradient id="paint6_linear_9993_54109" x1="6.32455" y1="14.1901" x2="-0.948858" y2="20.8311" gradientUnits="userSpaceOnUse">
<stop offset="0.247205" stop-color="#E27625"/>
<stop offset="1" stop-color="#E27625" stop-opacity="0"/>
</linearGradient>
<linearGradient id="paint7_linear_9993_54109" x1="3.06903" y1="18.2787" x2="0.988544" y2="11.8462" gradientUnits="userSpaceOnUse">
<stop stop-color="#E27625"/>
<stop offset="1" stop-color="#FCA15C" stop-opacity="0.83"/>
</linearGradient>
<linearGradient id="paint8_linear_9993_54109" x1="5.2177" y1="10.079" x2="13.677" y2="3.1218" gradientUnits="userSpaceOnUse">
<stop stop-color="#E27625"/>
<stop offset="1" stop-color="#E27625" stop-opacity="0"/>
</linearGradient>
<linearGradient id="paint9_linear_9993_54109" x1="6.63922" y1="10.5569" x2="3.76845" y2="4.20062" gradientUnits="userSpaceOnUse">
<stop stop-color="#E27625"/>
<stop offset="1" stop-color="#FCA15C" stop-opacity="0.83"/>
</linearGradient>
<linearGradient id="paint10_linear_9993_54109" x1="13.44" y1="10.5535" x2="10.5148" y2="4.14973" gradientUnits="userSpaceOnUse">
<stop stop-color="#E27625"/>
<stop offset="1" stop-color="#FCA15C" stop-opacity="0.83"/>
</linearGradient>
<linearGradient id="paint11_linear_9993_54109" x1="12.7897" y1="16.043" x2="15.6521" y2="22.4464" gradientUnits="userSpaceOnUse">
<stop stop-color="#D5BFB2"/>
<stop offset="1" stop-color="#D5BFB2" stop-opacity="0"/>
</linearGradient>
<radialGradient id="paint12_radial_9993_54109" cx="0" cy="0" r="1" gradientUnits="userSpaceOnUse" gradientTransform="translate(8.5112 15.509) rotate(116.98) scale(12.5928 13.6543)">
<stop stop-color="#D5BFB2"/>
<stop offset="1" stop-color="#D5BFB2" stop-opacity="0"/>
</radialGradient>
<linearGradient id="paint13_linear_9993_54109" x1="7.28774" y1="11.7493" x2="7.28774" y2="13.1136" gradientUnits="userSpaceOnUse">
<stop stop-color="#041836"/>
<stop offset="1" stop-color="#17396B"/>
</linearGradient>
<linearGradient id="paint14_linear_9993_54109" x1="12.7174" y1="11.7493" x2="12.7174" y2="13.1136" gradientUnits="userSpaceOnUse">
<stop stop-color="#041836"/>
<stop offset="1" stop-color="#17396B"/>
</linearGradient>
<linearGradient id="paint15_linear_9993_54109" x1="13.5183" y1="12.4508" x2="6.48202" y2="20.5148" gradientUnits="userSpaceOnUse">
<stop offset="0.200338" stop-color="#F5841F"/>
<stop offset="1" stop-color="#F5841F" stop-opacity="0"/>
</linearGradient>
<linearGradient id="paint16_linear_9993_54109" x1="6.16656" y1="12.4508" x2="11.7797" y2="19.8033" gradientUnits="userSpaceOnUse">
<stop offset="0.32798" stop-color="#F5841F"/>
<stop offset="1" stop-color="#F5841F" stop-opacity="0"/>
</linearGradient>
<linearGradient id="paint17_linear_9993_54109" x1="10.0032" y1="15.7812" x2="10.0032" y2="17.77" gradientUnits="userSpaceOnUse">
<stop stop-color="#041836"/>
<stop offset="1" stop-color="#17396B"/>
</linearGradient>
<linearGradient id="paint18_linear_9993_54109" x1="13.9241" y1="8.01205" x2="19.9712" y2="3.83055" gradientUnits="userSpaceOnUse">
<stop stop-color="#592B0D"/>
<stop offset="1" stop-color="#763E1A"/>
</linearGradient>
<linearGradient id="paint19_linear_9993_54109" x1="7.94157" y1="6.72543" x2="0.414883" y2="2.67259" gradientUnits="userSpaceOnUse">
<stop stop-color="#592B0D"/>
<stop offset="1" stop-color="#763E1A"/>
</linearGradient>
<radialGradient id="paint20_radial_9993_54109" cx="0" cy="0" r="1" gradientUnits="userSpaceOnUse" gradientTransform="translate(15.1692 11.1899) rotate(11.6894) scale(8.80836 9.81509)">
<stop offset="0.263819" stop-color="#F5841F"/>
<stop offset="1" stop-color="#F5841F" stop-opacity="0"/>
</radialGradient>
<linearGradient id="paint21_linear_9993_54109" x1="16.8555" y1="13.9106" x2="13.9454" y2="6.1841" gradientUnits="userSpaceOnUse">
<stop stop-color="#E27625"/>
<stop offset="1" stop-color="#FCA15C" stop-opacity="0.83"/>
</linearGradient>
<radialGradient id="paint22_radial_9993_54109" cx="0" cy="0" r="1" gradientUnits="userSpaceOnUse" gradientTransform="translate(6.87796 14.1901) rotate(-159.818) scale(15.5826 17.3415)">
<stop offset="0.299865" stop-color="#F5841F"/>
<stop offset="0.567167" stop-color="#F5841F" stop-opacity="0"/>
</radialGradient>
<linearGradient id="paint23_linear_9993_54109" x1="3.25779" y1="13.9106" x2="0.344971" y2="6.18654" gradientUnits="userSpaceOnUse">
<stop stop-color="#E27625"/>
<stop offset="1" stop-color="#FCA15C" stop-opacity="0.83"/>
</linearGradient>
<linearGradient id="paint24_linear_9993_54109" x1="9.96169" y1="3.1218" x2="9.96169" y2="28.5787" gradientUnits="userSpaceOnUse">
<stop offset="0.267932" stop-color="#F5841F"/>
<stop offset="1" stop-color="#FFC796" stop-opacity="0.89"/>
</linearGradient>
</defs>
</svg>
