<?xml version="1.0" encoding="utf-8"?>
<!-- Generator: Adobe Illustrator 24.2.2, SVG Export Plug-In . SVG Version: 6.00 Build 0)  -->
<svg version="1.1" id="Layer_1" xmlns="http://www.w3.org/2000/svg" xmlns:xlink="http://www.w3.org/1999/xlink" x="0px" y="0px"
	 viewBox="0 0 500 500" style="enable-background:new 0 0 500 500;" xml:space="preserve">
<style type="text/css">
	.st0{fill:url(#SVGID_1_);}
	.st1{fill:#FFFFFF;}
</style>
<linearGradient id="SVGID_1_" gradientUnits="userSpaceOnUse" x1="22.9341" y1="249.41" x2="476.9259" y2="249.41">
	<stop  offset="0" style="stop-color:#26A8E1"/>
	<stop  offset="0.5086" style="stop-color:#2B4192"/>
	<stop  offset="1" style="stop-color:#582D8C"/>
</linearGradient>
<path class="st0" d="M476.9,158.6v181.6c0,23-12.4,44.1-32.4,55.4l-163.4,92.1c-19.4,10.9-43.1,10.9-62.5,0l-22.3-12.6l-45-25.3
	l-96.2-54.2c-20-11.3-32.4-32.4-32.4-55.4V158.6c0-23,12.4-44.1,32.4-55.4l163.4-92.1c19.4-10.9,43.1-10.9,62.5,0l17.9,10.1l45,25.3
	l100.5,56.7C464.6,114.5,476.9,135.7,476.9,158.6z"/>
<path class="st1" d="M378.4,232.7l-23.5,79.4l-18.3-31.6l-118.9,64c-18.5,10-38.5,14.7-58.1,14.7c-43.8,0-86.4-23.5-108.6-64.7
	c-15.6-28.9-18.9-62.2-9.5-93.7c9.4-31.5,30.6-57.4,59.5-73l198-106.6l45,25.3L121.7,166.2c-38.6,20.8-53,69-32.3,107.6
	c20.8,38.6,69,53,107.6,32.3l117.7-63.4l-17.9-31L378.4,232.7z"/>
<path class="st1" d="M398.7,366.3L196.4,475.2l-45-25.3L378,327.9c38.6-20.8,53.1-69,32.3-107.6c-10.1-18.7-26.8-32.3-47.1-38.4
	c-20.3-6.1-41.8-3.9-60.5,6.1L185,251.4l17.9,31l-81.5-21l23.5-79.4l18.2,31.6l118.9-64c28.9-15.6,62.2-19,93.7-9.5
	c31.5,9.4,57.4,30.6,73,59.5C480.9,259.4,458.4,334.2,398.7,366.3z"/>
</svg>
