<?xml version="1.0" encoding="utf-8"?>
<!-- Generator: Adobe Illustrator 25.2.0, SVG Export Plug-In . SVG Version: 6.00 Build 0)  -->
<svg version="1.1" id="mf" xmlns="http://www.w3.org/2000/svg" xmlns:xlink="http://www.w3.org/1999/xlink" x="0px" y="0px"
	 viewBox="0 0 500 500" style="enable-background:new 0 0 500 500;" xml:space="preserve">
<style type="text/css">
	.st0{fill:#781CFE;}
</style>
<path class="st0" d="M241.8,398.3l157-157c10.4-10.4,24.5-16.2,39.2-16.2c14.7,0,28.8,5.8,39.2,16.2c10.4,10.4,16.2,24.5,16.2,39.2
	s-5.8,28.8-16.2,39.2l-157,157c-10.4,10.4-24.5,16.2-39.2,16.2s-28.8-5.8-39.2-16.2c-10.4-10.4-16.2-24.5-16.2-39.2
	C225.6,422.8,231.4,408.7,241.8,398.3z M22.7,257.7c10.4,10.4,24.5,16.2,39.2,16.2s28.8-5.8,39.2-16.2l157-157
	c10.4-10.4,16.2-24.5,16.2-39.2s-5.8-28.8-16.2-39.2C247.8,11.8,233.6,6,218.9,6s-28.8,5.8-39.2,16.2l-157,157
	c-10.4,10.4-16.2,24.5-16.2,39.2S12.3,247.3,22.7,257.7z M191.1,308.3c10.4,10.4,24.5,16.2,39.2,16.2c14.7,0,28.8-5.8,39.2-16.2
	l39.2-39.2c10.4-10.4,16.2-24.5,16.2-39.2c0-14.7-5.8-28.8-16.2-39.2c-10.4-10.4-24.5-16.2-39.2-16.2s-28.8,5.8-39.2,16.2
	l-39.2,39.2c-10.4,10.4-16.2,24.5-16.2,39.2C174.9,283.8,180.7,297.9,191.1,308.3z"/>
</svg>
