<?xml version="1.0" encoding="utf-8"?>
<!-- Generator: Adobe Illustrator 26.0.2, SVG Export Plug-In . SVG Version: 6.00 Build 0)  -->
<svg version="1.1" id="mim" xmlns="http://www.w3.org/2000/svg" xmlns:xlink="http://www.w3.org/1999/xlink" x="0px" y="0px"
	 viewBox="0 0 500 500" style="enable-background:new 0 0 500 500;" xml:space="preserve">
<style type="text/css">
	.st0{fill:#FED955;}
	.st1{fill:#9695F8;}
	.st2{fill:#5552FD;}
</style>
<rect x="83.3" y="166.7" class="st0" width="41.7" height="41.7"/>
<rect x="83.3" y="250" class="st0" width="41.7" height="41.7"/>
<rect x="83.3" y="208.3" class="st0" width="41.7" height="41.7"/>
<rect x="83.3" y="291.7" class="st0" width="41.7" height="41.7"/>
<rect x="250" y="83.3" class="st0" width="41.7" height="41.7"/>
<rect x="250" y="375" class="st0" width="41.7" height="41.7"/>
<rect x="291.7" y="83.3" class="st0" width="41.7" height="41.7"/>
<rect x="333.3" y="83.3" class="st1" width="41.7" height="41.7"/>
<rect x="125" y="83.3" class="st1" width="41.7" height="41.7"/>
<rect x="375" y="333.3" class="st1" width="41.7" height="41.7"/>
<rect x="83.3" y="333.3" class="st1" width="41.7" height="41.7"/>
<rect x="291.7" y="41.7" class="st1" width="41.7" height="41.7"/>
<rect x="291.7" class="st2" width="41.7" height="41.7"/>
<rect x="291.7" y="458.3" class="st2" width="41.7" height="41.7"/>
<rect x="291.7" y="416.7" class="st1" width="41.7" height="41.7"/>
<rect x="208.3" y="41.7" class="st1" width="41.7" height="41.7"/>
<rect x="208.3" class="st2" width="41.7" height="41.7"/>
<rect x="208.3" y="458.3" class="st2" width="41.7" height="41.7"/>
<rect x="208.3" y="416.7" class="st1" width="41.7" height="41.7"/>
<rect x="250" y="41.7" class="st1" width="41.7" height="41.7"/>
<rect x="250" class="st2" width="41.7" height="41.7"/>
<rect x="250" y="458.3" class="st2" width="41.7" height="41.7"/>
<rect x="250" y="416.7" class="st1" width="41.7" height="41.7"/>
<rect x="166.7" y="41.7" class="st1" width="41.7" height="41.7"/>
<rect x="166.7" class="st2" width="41.7" height="41.7"/>
<rect x="166.7" y="458.3" class="st2" width="41.7" height="41.7"/>
<rect x="166.7" y="416.7" class="st1" width="41.7" height="41.7"/>
<rect x="375" y="125" class="st1" width="41.7" height="41.7"/>
<rect x="83.3" y="125" class="st1" width="41.7" height="41.7"/>
<rect x="333.3" y="375" class="st1" width="41.7" height="41.7"/>
<rect x="125" y="375" class="st1" width="41.7" height="41.7"/>
<rect x="416.7" y="166.7" class="st1" width="41.7" height="41.7"/>
<rect x="41.7" y="166.7" class="st1" width="41.7" height="41.7"/>
<rect y="166.7" class="st2" width="41.7" height="41.7"/>
<rect x="41.7" y="125" class="st2" width="41.7" height="41.7"/>
<rect x="416.7" y="125" class="st2" width="41.7" height="41.7"/>
<rect x="333.3" y="416.7" class="st2" width="41.7" height="41.7"/>
<rect x="41.7" y="333.3" class="st2" width="41.7" height="41.7"/>
<rect x="83.3" y="83.3" class="st2" width="41.7" height="41.7"/>
<rect x="375" y="83.3" class="st2" width="41.7" height="41.7"/>
<rect x="375" y="375" class="st2" width="41.7" height="41.7"/>
<rect x="83.3" y="375" class="st2" width="41.7" height="41.7"/>
<rect x="125" y="41.7" class="st2" width="41.7" height="41.7"/>
<rect x="333.3" y="41.7" class="st2" width="41.7" height="41.7"/>
<rect x="416.7" y="333.3" class="st2" width="41.7" height="41.7"/>
<rect x="125" y="416.7" class="st2" width="41.7" height="41.7"/>
<rect x="458.3" y="166.7" class="st2" width="41.7" height="41.7"/>
<rect x="416.7" y="208.3" class="st1" width="41.7" height="41.7"/>
<rect x="41.7" y="208.3" class="st1" width="41.7" height="41.7"/>
<rect y="208.3" class="st2" width="41.7" height="41.7"/>
<rect x="458.3" y="208.3" class="st2" width="41.7" height="41.7"/>
<rect x="416.7" y="250" class="st1" width="41.7" height="41.7"/>
<rect x="41.7" y="250" class="st1" width="41.7" height="41.7"/>
<rect y="250" class="st2" width="41.7" height="41.7"/>
<rect x="458.3" y="250" class="st2" width="41.7" height="41.7"/>
<rect x="416.7" y="291.7" class="st1" width="41.7" height="41.7"/>
<rect x="41.7" y="291.7" class="st1" width="41.7" height="41.7"/>
<rect y="291.7" class="st2" width="41.7" height="41.7"/>
<rect x="458.3" y="291.7" class="st2" width="41.7" height="41.7"/>
<rect x="291.7" y="375" class="st0" width="41.7" height="41.7"/>
<rect x="250" y="166.7" class="st0" width="41.7" height="41.7"/>
<rect x="250" y="250" class="st0" width="41.7" height="41.7"/>
<rect x="250" y="291.7" class="st0" width="41.7" height="41.7"/>
<rect x="250" y="125" class="st0" width="41.7" height="41.7"/>
<rect x="250" y="333.3" class="st0" width="41.7" height="41.7"/>
<rect x="166.7" y="250" class="st0" width="41.7" height="41.7"/>
<rect x="166.7" y="208.3" class="st0" width="41.7" height="41.7"/>
<rect x="166.7" y="291.7" class="st0" width="41.7" height="41.7"/>
<rect x="166.7" y="125" class="st0" width="41.7" height="41.7"/>
<rect x="166.7" y="333.3" class="st0" width="41.7" height="41.7"/>
<rect x="291.7" y="250" class="st0" width="41.7" height="41.7"/>
<rect x="291.7" y="208.3" class="st0" width="41.7" height="41.7"/>
<rect x="291.7" y="291.7" class="st0" width="41.7" height="41.7"/>
<rect x="291.7" y="125" class="st0" width="41.7" height="41.7"/>
<rect x="291.7" y="333.3" class="st0" width="41.7" height="41.7"/>
<rect x="208.3" y="83.3" class="st0" width="41.7" height="41.7"/>
<rect x="208.3" y="375" class="st0" width="41.7" height="41.7"/>
<rect x="166.7" y="83.3" class="st0" width="41.7" height="41.7"/>
<rect x="166.7" y="375" class="st0" width="41.7" height="41.7"/>
<rect x="208.3" y="166.7" class="st0" width="41.7" height="41.7"/>
<rect x="208.3" y="250" class="st0" width="41.7" height="41.7"/>
<rect x="166.7" y="166.7" class="st2" width="41.7" height="41.7"/>
<rect x="250" y="208.3" class="st2" width="41.7" height="41.7"/>
<rect x="333.3" y="166.7" class="st2" width="41.7" height="41.7"/>
<rect x="333.3" y="250" class="st2" width="41.7" height="41.7"/>
<rect x="333.3" y="208.3" class="st2" width="41.7" height="41.7"/>
<rect x="333.3" y="291.7" class="st2" width="41.7" height="41.7"/>
<rect x="333.3" y="125" class="st2" width="41.7" height="41.7"/>
<rect x="333.3" y="333.3" class="st2" width="41.7" height="41.7"/>
<rect x="125" y="166.7" class="st2" width="41.7" height="41.7"/>
<rect x="125" y="250" class="st2" width="41.7" height="41.7"/>
<rect x="125" y="208.3" class="st2" width="41.7" height="41.7"/>
<rect x="125" y="291.7" class="st2" width="41.7" height="41.7"/>
<rect x="125" y="125" class="st2" width="41.7" height="41.7"/>
<rect x="125" y="333.3" class="st2" width="41.7" height="41.7"/>
<rect x="291.7" y="166.7" class="st2" width="41.7" height="41.7"/>
<rect x="208.3" y="208.3" class="st2" width="41.7" height="41.7"/>
<rect x="208.3" y="291.7" class="st0" width="41.7" height="41.7"/>
<rect x="208.3" y="125" class="st0" width="41.7" height="41.7"/>
<rect x="208.3" y="333.3" class="st0" width="41.7" height="41.7"/>
<rect x="375" y="166.7" class="st0" width="41.7" height="41.7"/>
<rect x="375" y="250" class="st0" width="41.7" height="41.7"/>
<rect x="375" y="208.3" class="st0" width="41.7" height="41.7"/>
<rect x="375" y="291.7" class="st0" width="41.7" height="41.7"/>
</svg>
