<svg aria-hidden="true" data-testid="test-icon" fill="currentColor" viewBox="0 0 24 24" xmlns="http://www.w3.org/2000/svg"><path fill-rule="evenodd" clip-rule="evenodd" d="M4 13.875c0-.483.392-.875.875-.875h5.25c.483 0 .875.392.875.875v5.25a.875.875 0 01-1.75 0V14.75H4.875A.875.875 0 014 13.875zM13.875 4c.483 0 .875.392.875.875V9.25h4.375a.875.875 0 010 1.75h-5.25a.875.875 0 01-.875-.875v-5.25c0-.483.392-.875.875-.875z"/><path fill-rule="evenodd" clip-rule="evenodd" d="M20.74 3.26a.889.889 0 010 1.257l-6.223 6.223a.889.889 0 01-1.257-1.257l6.223-6.223a.889.889 0 011.257 0zM10.74 13.26a.889.889 0 010 1.257L4.517 20.74a.889.889 0 01-1.257-1.257l6.223-6.223a.889.889 0 011.257 0z"/></svg>
