<?xml version="1.0" encoding="utf-8"?>
<!-- Generator: Adobe Illustrator 23.0.2, SVG Export Plug-In . SVG Version: 6.00 Build 0)  -->
<svg version="1.1" id="mith" xmlns="http://www.w3.org/2000/svg" xmlns:xlink="http://www.w3.org/1999/xlink" x="0px" y="0px"
	 viewBox="0 0 500 500" style="enable-background:new 0 0 500 500;" xml:space="preserve">
<style type="text/css">
	.st0{fill:#003977;}
</style>
<path class="st0" d="M251.7,239.5c2.6-4.9,4.4-8,5.9-11.3c18.2-38.7,36.3-77.3,54.4-116c1-2.2,1.8-4.5,3.2-6.4c5.3-7.5,14-8,19.9-1
	c1.7,2.1,3,4.6,4.3,6.9c28.2,50,55.7,100.4,84.7,150c15.5,26.5,33.6,51.5,50.5,77.2c5.5,8.3,11,16.5,16.4,24.8
	c3.2,4.9,6.4,10.2,3.1,16.2c-3.3,6-9.3,6-15.3,6c-118.6,0-237.3,0-355.9,0c-33.8,0-67.7,0-101.5,0c-2.7,0-5.5,0.2-8.2-0.2
	c-8.5-1.3-12.6-9.4-8.5-16.9c1.4-2.6,3.7-4.9,5.8-7.1c18.4-19.3,36.4-39,55.2-57.8c17.3-17.4,29.7-38.3,43.4-58.3
	c19.4-28.1,38.4-56.5,57.6-84.8c1-1.4,1.9-2.9,2.9-4.2c7.5-9.6,15.1-9.6,22.3,0.4c14.7,20.2,29,40.6,43.6,60.9
	C240.6,224.6,245.6,231.3,251.7,239.5z M260.9,329.5l67.8,31.8l63.7-0.3c0,0-47-67.1-70.9-101.2C301.3,284,260.9,329.5,260.9,329.5z
	 M124.7,359.4l66.4-83.4l-19.4-21.8l-65.8,33.1l-9.4,12.8L124.7,359.4z M242.9,332.2c-14.9-16.1-28.5-30.7-43.6-46.9
	c-19.3,26.2-38.4,50.4-57.4,77c26.4,0,49.2-0.1,73.9-0.1C224.4,352.9,233.6,342.4,242.9,332.2z M316.4,159.7l-60.6,117.7v36.4
	l59.4-66.9L316.4,159.7z M178.2,243.6l66.5,73.4l1.4-48.5l-61.7-80.1L178.2,243.6z M398.6,262.2l-70.7-120.4l-2.4,103.2L398.6,262.2
	z M402.6,354.1l6.2-77.9L333.3,257L402.6,354.1z M36.4,362H112l-22.8-52.1L36.4,362z M419.5,299.2l-5.2,61.9l47.3,0.4L419.5,299.2z
	 M170.2,193.9L121.7,266c0,0,32.1-16.9,44.8-24.7C167.7,228.1,170.2,193.9,170.2,193.9z M231.3,362.1l71.2-0.3L252,339.2
	L231.3,362.1z"/>
</svg>
