<?xml version="1.0" encoding="iso-8859-1"?>
<!-- Generator: Adobe Illustrator 19.0.0, SVG Export Plug-In . SVG Version: 6.00 Build 0)  -->
<svg version="1.1" id="Layer_1" xmlns="http://www.w3.org/2000/svg" xmlns:xlink="http://www.w3.org/1999/xlink" x="0px" y="0px"
	 viewBox="0 0 2000 2000" style="enable-background:new 0 0 2000 2000;" xml:space="preserve">
<g>
	<path style="fill:#1EBC9C;" d="M87.37,415.616c-3.31,5.196-1.683,11.275-1.684,16.962c-0.09,411.449-0.068,822.898-0.127,1234.346
		c-0.001,7.048,0.047,14.313-1.536,21.102c-3.792,16.263-19.381,27.065-35.329,25.491c-16.575-1.635-29.254-14.332-30.657-30.995
		c-0.411-4.88-0.205-9.817-0.205-14.727c-0.001-437.643,0.005-875.287,0.011-1312.93c0-2.183,0.101-4.371-0.01-6.547
		c-0.791-15.464,4.145-28.098,18.641-35.232c14.327-7.051,27.139-3.52,39.514,5.922c56.799,43.336,113.837,86.36,170.775,129.514
		c213.426,161.756,426.777,323.609,640.421,485.076c14.463,10.931,20.852,23.429,20.826,41.491
		c-0.334,231.372-0.242,462.745-0.258,694.117c0,2.728,0.081,5.46-0.023,8.185c-0.823,21.501-14.703,36.242-34.199,36.367
		c-19.14,0.122-33.492-15.042-33.538-36.627c-0.187-87.856-0.087-175.712-0.089-263.568c-0.003-138.605-0.091-277.211,0.178-415.815
		c0.019-9.99-2.234-16.649-10.789-23.116c-244.531-184.826-488.799-370-733.167-555.043
		C93.734,417.779,91.866,414.298,87.37,415.616z"/>
	<path style="fill:#576B7C;" d="M1914.718,411.719c-11.712,8.753-20.302,15.098-28.813,21.547
		c-236.92,179.511-473.778,359.103-710.92,538.32c-10.612,8.02-14.818,15.985-14.788,29.508
		c0.479,222.076,0.34,444.153,0.332,666.23c0,4.91,0.248,9.85-0.201,14.723c-1.586,17.222-15.443,30.792-32.014,31.658
		c-17.097,0.893-32.783-12.251-35.318-29.977c-0.69-4.825-0.422-9.801-0.423-14.707c-0.019-230.262,0.167-460.524-0.342-690.784
		c-0.046-20.711,7.289-34.416,23.642-46.776c268.022-202.579,535.74-405.559,803.392-608.626
		c13.797-10.468,27.509-18.434,44.821-9.722c16.636,8.371,18.644,23.508,18.637,40.306c-0.185,439.243-0.144,878.486-0.164,1317.729
		c-0.001,26.568-13.344,42.995-34.334,42.566c-21.106-0.432-33.6-16.647-33.598-43.651c0.028-407.05,0.06-814.1,0.091-1221.15
		C1914.719,438.024,1914.718,427.136,1914.718,411.719z"/>
</g>
</svg>
