<?xml version="1.0" encoding="utf-8"?>
<!-- Generator: Adobe Illustrator 24.1.2, SVG Export Plug-In . SVG Version: 6.00 Build 0)  -->
<svg version="1.1" id="MLN" xmlns="http://www.w3.org/2000/svg" xmlns:xlink="http://www.w3.org/1999/xlink" x="0px" y="0px"
	 viewBox="0 0 500 500" style="enable-background:new 0 0 500 500;" xml:space="preserve">
<style type="text/css">
	.st0{fill:#1D1D1B;}
</style>
<path id="Path_25" class="st0" d="M181.9,193.2c-2.2-6.7-6.2-13.4-10.6-19c-4.5-4.5-10.1-6.7-16.2-6.2h-5.6c5,1.7,9.5,5,13.4,9
	c3.9,5.6,7.3,11.8,10.1,17.9l63.3,151.2c1.7-2.8,2.8-6.2,3.4-9.5c-0.6-3.9-1.7-7.8-3.4-11.2L181.9,193.2z"/>
<path id="Path_26" class="st0" d="M304.6,346.7h5c6.2,0,10.1-1.7,11.8-5c1.7-6.2,2.2-12.3,2.2-18.5V190.4
	c-0.6-7.3,0.6-14.6,2.8-21.8c-3.9,0.6-6.2,1.1-7.8,3.4c-1.7,2.2-2.8,4.5-2.8,7.3c-0.6,5-0.6,10.1-0.6,15.1v132.7
	c0.6,4.5,0,9-2.2,13.4C310.2,342.7,307.4,345,304.6,346.7z"/>
<path id="Path_27" class="st0" d="M250.2,26.3C127,26.3,26.8,126.6,26.8,249.8S127,473.2,250.2,473.2S473.7,373,473.7,249.8l0,0
	C473.7,126.6,373.4,26.3,250.2,26.3L250.2,26.3z M371.2,168.6c-6.7-0.6-13.4,0.6-19.6,3.9c-3.9,2.2-6.2,5.6-6.2,10.1
	c-0.6,7.8-1.1,15.7-1.1,24.1v118.7c0,4.5,0.6,9.5,2.8,14c1.7,3.4,4.5,5.6,7.8,6.2c5.6,1.7,11.2,2.2,16.8,2.8v7.3h-89v-7.3
	c6.7,0.6,12.9-0.6,19-3.4c3.4-1.7,6.2-4.5,6.7-8.4c0.6-5.6,1.1-11.8,1.1-17.4V185.4l-68.9,169.1h-7.8l-67.2-164.1V303
	c-0.6,10.6,2.2,20.7,7.3,29.7c6.2,7.8,14.6,12.9,24.1,14.6v7.3h-69.4v-7.3c9-0.6,17.4-5,23-11.8c5.6-7.8,8.4-17.9,7.8-27.4V180.9
	c-3.4-3.9-8.4-7.3-13.4-9c-5.6-1.7-11.2-2.8-16.8-2.8v-7.3h62.7l61,146.7l59.9-146.7h58.8L371.2,168.6L371.2,168.6z"/>
<path id="Path_28" class="st0" d="M160.1,328.7c-1.1,3.9-3.4,7.3-5.6,10.1c-3.4,2.8-6.7,5.6-10.1,7.8h28.6c-3.4-1.7-6.2-4.5-7.8-7.3
	C162.3,336,161.2,332.7,160.1,328.7z"/>
<path id="Path_29" class="st0" d="M250.2,500.1C112.5,500.1,0.5,388.7-0.1,250.3C-0.1,112.6,111.3,0.6,249.7,0
	C387.4,0,499.4,111.4,500,249.8l0,0C499.4,387.5,388,499.5,250.2,500.1z M250.2,10.1c-132.2,0-239.7,107-239.7,239.7
	c0,132.2,107,239.7,239.7,239.7s239.7-107,239.7-239.7C489.4,117.6,382.4,10.6,250.2,10.1L250.2,10.1z"/>
</svg>
