<?xml version="1.0" encoding="utf-8"?>
<!-- Generator: Adobe Illustrator 26.0.3, SVG Export Plug-In . SVG Version: 6.00 Build 0)  -->
<svg version="1.1" id="mango" xmlns="http://www.w3.org/2000/svg" xmlns:xlink="http://www.w3.org/1999/xlink" x="0px" y="0px"
	 viewBox="0 0 500 500" style="enable-background:new 0 0 500 500;" xml:space="preserve">
<style type="text/css">
	.st0{fill-rule:evenodd;clip-rule:evenodd;fill:url(#SVGID_1_);}
	.st1{fill-rule:evenodd;clip-rule:evenodd;fill:url(#SVGID_00000020366719767193130850000018276905054898533286_);}
	.st2{fill:url(#SVGID_00000051344479517905347220000016238926615918691744_);}
	.st3{fill:url(#SVGID_00000042717542343685874090000016168730819736764088_);}
	.st4{fill:url(#SVGID_00000163789899021414270830000010438767461563171972_);}
	.st5{fill:url(#SVGID_00000109745262842712988170000007244434898067665314_);}
	.st6{fill:url(#SVGID_00000008839941912123637120000018330011925693222285_);}
	.st7{fill:url(#SVGID_00000160903787400131645130000015023851513184263091_);}
	.st8{fill:url(#SVGID_00000103960805134169099430000015631745274383582397_);}
</style>
<linearGradient id="SVGID_1_" gradientUnits="userSpaceOnUse" x1="-5.4247" y1="349.1936" x2="533.9823" y2="25.9545" gradientTransform="matrix(1 0 0 -1 0 500)">
	<stop  offset="0" style="stop-color:#E54033"/>
	<stop  offset="0.4896" style="stop-color:#FECA1A"/>
	<stop  offset="1" style="stop-color:#AFD803"/>
</linearGradient>
<path class="st0" d="M236.6,116.8C236.6,116.8,236.6,116.8,236.6,116.8c21,10.8,44,14.5,66,14.4c12.8,11.7,23.4,25.5,33.4,39.7
	c4.1,5.9,7.9,12.1,11.2,18.5c7.6,14.7,13.3,30.3,18.9,46c1.7,4.6,3.3,9.3,5.1,13.9c0.5,2,1.1,4,1.7,6l0,0
	c8.8,30.1,21.6,62.3,38.8,88.8l0,0c5.7,8.7,12,17,19,24.7c1.4,1.5,2.8,3,4.2,4.4l0,0l0,0l0,0c6.6,6.9,13.2,13.8,17,22.5
	c4.7,10.8,4.3,23.3,1.5,34.7c-13.3,54-65.3,68.2-114.9,69.5l0-0.1c-18.6,0.4-37.1-1-53.5-2.7c0,0-79.1-8.2-146.2-57.2l-2.2-1.6
	c0,0,0,0,0,0c-7.8-5.8-15.3-12.1-22.4-18.9c-18.8-17.9-35.5-38.3-48.3-60.6c0.1-0.1,0.2-0.2,0.3-0.3c-1.5-2.7-3-5.5-4.4-8.3
	c-12.4-24.8-19.9-51.7-20.3-80.4c-0.6-48.1,15.9-97.3,47.1-133c0,0,0-0.1,0-0.1c16.9-18.5,38.1-33.1,63.1-41.4
	c15.7-5.2,32.2-7.8,48.7-7.4C210.6,99.9,222.8,109.6,236.6,116.8z M198,431.4c11.3-4.1,22-9.7,32-16.5
	C220,421.7,209.3,427.3,198,431.4z"/>
<linearGradient id="SVGID_00000163043862609542341840000004816552192824722321_" gradientUnits="userSpaceOnUse" x1="83292.6094" y1="-84929.9688" x2="49524.1055" y2="-50194.2969" gradientTransform="matrix(1 0 0 -1 0 500)">
	<stop  offset="0.15" style="stop-color:#6CBF00"/>
	<stop  offset="1" style="stop-color:#AFD803"/>
</linearGradient>
<path style="fill-rule:evenodd;clip-rule:evenodd;fill:url(#SVGID_00000163043862609542341840000004816552192824722321_);" d="
	M400.8,77.7C400.8,77.7,400.8,77.7,400.8,77.7l0.7-0.4C313.3-73.2,198,45.2,198,45.2l0.2,0.3c0,0,0,0,0,0
	C264.4,161.8,390.5,84.3,400.8,77.7z"/>
<linearGradient id="SVGID_00000052809352801036782900000013676994237596246174_" gradientUnits="userSpaceOnUse" x1="83.0305" y1="55.8995" x2="421.0281" y2="138.0838" gradientTransform="matrix(1 0 0 -1 0 500)">
	<stop  offset="0.21" style="stop-color:#E54033"/>
	<stop  offset="0.84" style="stop-color:#FECA1A"/>
</linearGradient>
<path style="fill:url(#SVGID_00000052809352801036782900000013676994237596246174_);" d="M291.5,336.9
	c-24.3,58.1-71,96.6-127.5,102.4c-1.2,0.2-16.7,1.4-25.2,0.8c67.1,49,146.2,57.2,146.2,57.2c16.9,1.7,36.1,3.2,55.4,2.7
	c6.8-17.7,10.6-37.9,9.5-60.9c-2.5-53.4,28.4-80.8,61.9-94.8c-17.2-26.6-30-58.7-38.8-88.8C346.7,262.2,313.5,284.1,291.5,336.9z"/>
<linearGradient id="SVGID_00000111907193821391797480000018074623137182322061_" gradientUnits="userSpaceOnUse" x1="349.323" y1="78.7076" x2="453.6161" y2="77.9263" gradientTransform="matrix(1 0 0 -1 0 500)">
	<stop  offset="0" style="stop-color:#FECA1A"/>
	<stop  offset="0.4" style="stop-color:#FECA1A"/>
	<stop  offset="1" style="stop-color:#AFD803"/>
</linearGradient>
<path style="fill:url(#SVGID_00000111907193821391797480000018074623137182322061_);" d="M348.7,438.6c1.1,23-3.5,43.7-10.3,61.4
	c49.7-1.3,101.7-15.5,114.9-69.5c2.8-11.5,3.2-23.9-1.5-34.7c-4.6-10.5-13.4-18.5-21.2-27c-7.3-8.1-13.9-16.7-19.8-25.9
	C377.4,357,346.1,385.2,348.7,438.6z"/>
<linearGradient id="SVGID_00000141421980282356160960000015025853168059792786_" gradientUnits="userSpaceOnUse" x1="113.2627" y1="53.7935" x2="327.0866" y2="343.2733" gradientTransform="matrix(1 0 0 -1 0 500)">
	<stop  offset="0.16" style="stop-color:#E54033"/>
	<stop  offset="0.84" style="stop-color:#FECA1A"/>
</linearGradient>
<path style="fill:url(#SVGID_00000141421980282356160960000015025853168059792786_);" d="M371.2,249.3c-7.6-20.4-14.1-40.9-24-59.9
	c-3.3-6.4-7-12.6-11.2-18.5c-10-14.2-20.6-27.9-33.4-39.7c-22,0.1-45-3.6-66-14.4c-21.3,30.2-45.6,81.4-23.3,139.8
	c32.9,86.3-33.9,145.3-76.7,181.8l2.2,1.6c8,0.6,16.1,0.5,24.1-0.3c56.5-5.8,105.9-45.2,130.2-103.3c22-52.7,54.1-72.7,80.2-79.7
	C372.5,254.2,371.8,251.8,371.2,249.3z"/>
<linearGradient id="SVGID_00000011726712970794408530000017463793079119859361_" gradientUnits="userSpaceOnUse" x1="82.1138" y1="341.4354" x2="72.6452" y2="154.4603" gradientTransform="matrix(1 0 0 -1 0 500)">
	<stop  offset="0" style="stop-color:#FECA1A"/>
	<stop  offset="0.76" style="stop-color:#E54033"/>
</linearGradient>
<path style="fill:url(#SVGID_00000011726712970794408530000017463793079119859361_);" d="M90.9,134.4c-32.8,35.9-50,86.3-49.4,135.6
	c0.3,28.7,7.9,55.6,20.3,80.4c1.9,3.7,3.8,7.4,5.9,11C136.5,292.3,111.6,189.3,90.9,134.4z"/>
<linearGradient id="SVGID_00000144303188594111456710000017572334358091882390_" gradientUnits="userSpaceOnUse" x1="186.7138" y1="389.9878" x2="129.6073" y2="173.1427" gradientTransform="matrix(1 0 0 -1 0 500)">
	<stop  offset="0.16" style="stop-color:#FECA1A"/>
	<stop  offset="1" style="stop-color:#E54033"/>
</linearGradient>
<path style="fill:url(#SVGID_00000144303188594111456710000017572334358091882390_);" d="M214.4,256.6
	c-22.3-58.5,1.5-109.3,22.8-139.5c-14-7.2-26.5-17.1-36.7-29.1c-16.6-0.3-33,2.2-48.7,7.4c-25,8.3-46.2,22.9-63.1,41.4
	c20.3,53.6,44.6,154.4-22.7,222c12.8,22.3,29.5,42.7,48.3,60.6c7.4,7.1,15.3,13.7,23.5,19.7C180.5,402.8,247.3,342.9,214.4,256.6z"
	/>
<linearGradient id="SVGID_00000020357901521901314430000008546461603029131438_" gradientUnits="userSpaceOnUse" x1="208.8364" y1="493.8128" x2="420.2758" y2="415.8765" gradientTransform="matrix(1 0 0 -1 0 500)">
	<stop  offset="0.15" style="stop-color:#6CBF00"/>
	<stop  offset="1" style="stop-color:#AFD803"/>
</linearGradient>
<path style="fill:url(#SVGID_00000020357901521901314430000008546461603029131438_);" d="M297.5,54.8c46.6,18.4,79.3,23.4,103,22.7
	l0.7-0.4C312.9-73.4,197.6,45,197.6,45l0.2,0.3C222.6,40.9,258.8,39.6,297.5,54.8z"/>
<linearGradient id="SVGID_00000127024977214861361230000008401330483883984561_" gradientUnits="userSpaceOnUse" x1="83289.4453" y1="-84932.3125" x2="49520.9414" y2="-50196.6367" gradientTransform="matrix(1 0 0 -1 0 500)">
	<stop  offset="0.15" style="stop-color:#6CBF00"/>
	<stop  offset="1" style="stop-color:#AFD803"/>
</linearGradient>
<path style="fill:url(#SVGID_00000127024977214861361230000008401330483883984561_);" d="M298.1,53.8c-38.7-15.2-75-14.7-100.3-8.4
	c66.3,116.3,192.4,38.8,202.7,32.2C376.8,78.2,344.7,72.2,298.1,53.8z"/>
</svg>
