<svg aria-hidden="true" data-testid="test-icon" fill="currentColor" viewBox="0 0 24 24" xmlns="http://www.w3.org/2000/svg"><path d="M5.89 10.79h3.898a.47.47 0 00.487-.468.47.47 0 00-.487-.468H5.89a.47.47 0 00-.488.468.47.47 0 00.488.469zM5.89 12.508h4.71a.47.47 0 00.487-.468.47.47 0 00-.487-.469H5.89a.47.47 0 00-.487.469.47.47 0 00.488.468zM17.746 13.288h-1.787a.47.47 0 00-.487.469.47.47 0 00.487.468h1.787a.47.47 0 00.487-.468.48.48 0 00-.487-.469zM14.497 13.288H5.89a.47.47 0 00-.487.469.47.47 0 00.488.468h8.606a.47.47 0 00.488-.468.48.48 0 00-.488-.469z"/><path d="M21.01 4h-8.25c-.552 0-.99.421-.99.952v.453H3.795c-.439 0-.796.343-.796.765v10.912c0 .265.244.5.52.5h6.69v.514c0 .453-.113.89-.325 1.28-.016.016-.016.047-.016.063H8.684c-.13 0-.244.11-.244.234v1.093c0 .125.114.234.244.234h6.496c.13 0 .243-.11.243-.234v-1.093c0-.125-.114-.234-.243-.234h-1.365c0-.016-.016-.047-.016-.063a2.73 2.73 0 01-.325-1.28v-.515h6.545c.292 0 .52-.234.52-.5V10.557h.47c.552 0 .991-.421.991-.952V4.952c0-.53-.439-.952-.99-.952zM4.461 14.928V6.81h7.307v2.794c0 .5.406.921.926.953l-.114 1.576c0 .094.049.188.146.234.033.016.065.016.098.016a.25.25 0 00.178-.063l1.852-1.764h4.222v4.372H4.462zm8.996-8.352c0-.219.179-.39.406-.39h3.898c.227 0 .405.171.405.39 0 .218-.178.39-.405.39h-3.898a.395.395 0 01-.406-.39zm5.522 1.717c0 .218-.18.39-.407.39h-4.709a.395.395 0 01-.406-.39c0-.219.179-.39.406-.39h4.71c.227 0 .405.171.405.39z"/></svg>
