<?xml version="1.0" encoding="iso-8859-1"?>
<!-- Generator: Adobe Illustrator 19.0.0, SVG Export Plug-In . SVG Version: 6.00 Build 0)  -->
<svg version="1.1" id="Layer_1" xmlns="http://www.w3.org/2000/svg" xmlns:xlink="http://www.w3.org/1999/xlink" x="0px" y="0px"
	 viewBox="0 0 500 500" style="enable-background:new 0 0 500 500;" xml:space="preserve">
<path style="fill:#354368;" d="M220.59,175.726c11.577,13.56,22.75,26.649,34.298,40.175c9.128-1.886,18.318-3.786,27.801-5.745
	c16.093,20.589,32.002,40.941,47.874,61.246c8.416,1.449,15.174,0.587,21.781-6.09c16.505-16.679,33.979-32.398,51.715-49.116
	c31.245,41.165,62.203,81.952,93.161,122.738c-0.259,0.231-0.518,0.463-0.778,0.694c-30.611-34.167-61.221-68.334-92.327-103.053
	c-12.259,13.388-24.15,26.374-36.427,39.781c8.061,29.611,16.124,59.233,24.188,88.855c-0.368,0.221-0.736,0.442-1.104,0.663
	c-35.79-42.879-71.581-85.758-107.473-128.759c-5.012,0-9.921,0-15.132,0c-0.411,1.367-0.811,2.698-1.46,4.853
	c-15.366-16.277-30.352-32.152-46.26-49.002c-23.056,67.008-45.718,132.869-68.38,198.731c-0.48-0.072-0.96-0.144-1.44-0.217
	c-2.29-21.313-4.579-42.625-6.898-64.208c-18.878-8.436-37.516-16.765-56.55-25.27c-28.157,23.081-56.223,46.087-84.289,69.094
	c-0.241-0.236-0.481-0.472-0.722-0.708c25.616-29.868,51.233-59.737,77.055-89.846c9.423,5.247,18.59,10.352,28.191,15.698
	C145.049,256.166,182.499,216.288,220.59,175.726z M238.939,119.149c0.253-8.567-6.709-15.921-15.137-15.988
	c-8.552-0.068-15.568,6.973-15.517,15.573c0.051,8.497,6.574,15.019,15.112,15.108C231.954,133.931,238.69,127.563,238.939,119.149z
	 M157.498,163.985c0.065-8.659-6.815-15.583-15.481-15.582c-8.081,0.001-15.121,7.079-15.211,15.293
	c-0.094,8.619,6.851,15.487,15.577,15.404C150.918,179.018,157.434,172.502,157.498,163.985z M320.41,163.904
	c0.029-8.435-7.295-15.686-15.676-15.52c-8.583,0.17-15.241,7.286-15.009,16.042c0.223,8.431,6.936,14.77,15.53,14.667
	C313.632,178.993,320.382,172.227,320.41,163.904z"/>
</svg>
