<?xml version="1.0" encoding="utf-8"?>
<!-- Generator: Adobe Illustrator 25.4.1, SVG Export Plug-In . SVG Version: 6.00 Build 0)  -->
<svg version="1.1" id="mpl" xmlns="http://www.w3.org/2000/svg" xmlns:xlink="http://www.w3.org/1999/xlink" x="0px" y="0px"
	 viewBox="0 0 500 500" style="enable-background:new 0 0 500 500;" xml:space="preserve">
<style type="text/css">
	.st0{fill:#FF8801;}
</style>
<path class="st0" d="M487.4,217.1c-4.5,6.8-15.9,19.3-46.5,35.1c-6.8,3.4-14.7,6.8-23.8,10.2c-6.8,2.3-7.9,9.1-9.1,13.6v5.7l0,0l0,0
	v51c45.3-15.9,77.1-37.4,88.4-63.5c2.3-5.7,3.4-11.3,3.4-18.1C501,238.7,495.3,227.3,487.4,217.1z"/>
<path class="st0" d="M357,273.8c-24.9,4.5-51,7.9-79.3,9.1v20.4c0,11.3-7.9,21.5-17,21.5c-9.1,0-17-9.1-17-21.5V284
	c-103.1-1.1-190.4-29.5-223.3-68c-7.9,10.2-12.5,20.4-12.5,31.7c0,5.7,1.1,11.3,3.4,18.1c20.4,47.6,121.3,83.9,242.6,83.9
	c43.1,0,82.7-4.5,117.9-12.5v-45.3C370.6,274.9,358.2,273.8,357,273.8z"/>
<path class="st0" d="M247.1,46C109.9,46,0,92.4,0,149.1c0,5.7,1.1,12.5,3.4,18.1C23.8,213.7,120.1,250,238,251.1V250
	c0-20.4-1.1-48.7-13.6-61.2c-7.9-7.9-38.5-19.3-52.1-27.2c-4.5-2.3-9.1-4.5-12.5-6.8c-1.1-1.1-2.3-2.3-3.4-3.4
	c-5.7-5.7-9.1-11.3-9.1-18.1c0-23.8,48.7-43.1,108.8-43.1S365,109.5,365,133.3c0,12.5-12.5,22.7-31.7,30.6
	c-7.9,4.5-41.9,12.5-51,29.5c-7.9,14.7-7.9,37.4-7.9,57.8c108.8-4.5,197.2-39.7,215.4-83.9c2.3-5.7,3.4-11.3,3.4-18.1
	C493.1,92.4,383.1,46,247.1,46z"/>
<path class="st0" d="M400.1,362.2v35.1c0,9.1-7.9,17-17,17c-9.1,0-17-7.9-17-17v-24.9c-35.1,7.9-75.9,12.5-117.9,12.5
	C141.7,384.9,51,356.5,15.9,318C5.7,328.2,0,340.7,0,352c0,55.5,109.9,102,247.1,102c136,0,247.1-45.3,247.1-102
	c0-12.5-5.7-23.8-14.7-35.1C462.5,335,435.2,350.9,400.1,362.2z"/>
</svg>
