<?xml version="1.0" encoding="utf-8"?>
<!-- Generator: Adobe Illustrator 24.2.2, SVG Export Plug-In . SVG Version: 6.00 Build 0)  -->
<svg version="1.1" id="logo-m" xmlns="http://www.w3.org/2000/svg" xmlns:xlink="http://www.w3.org/1999/xlink" x="0px" y="0px"
	 viewBox="0 0 500 500" style="enable-background:new 0 0 500 500;" xml:space="preserve">
<style type="text/css">
	.st0{fill:#FFFFFF;}
</style>
<circle cx="250.6" cy="249.2" r="243.9"/>
<path class="st0" d="M152.9,185.9c0-7.7-0.5-15.1-1.2-22.7H186l1.2,15.6c3.8-5.3,13.1-18.2,37.3-18.2c27.8,0,35.6,17,38,22.7
	c10-19.4,26.3-22.5,38.8-22.5c24.4,0,34.2,14.6,36.8,19.4c6.5,10.5,6,25.1,6,35.7V282h-35.6v-69c0-12.9-1.9-27.3-20.3-27.3
	c-21.3,0-21.8,19.9-21.8,37.8V282h-35.6v-69.8c0-9.3-0.2-26.6-19.9-26.6c-22.2,0-22.2,19.2-22.2,27.3v69h-35.7V185.9z"/>
<path class="st0" d="M151.7,308.6h192.4V338H151.7V308.6z"/>
</svg>
