<?xml version="1.0" encoding="iso-8859-1"?>
<!-- Generator: Adobe Illustrator 19.0.0, SVG Export Plug-In . SVG Version: 6.00 Build 0)  -->
<svg version="1.1" id="Layer_1" xmlns="http://www.w3.org/2000/svg" xmlns:xlink="http://www.w3.org/1999/xlink" x="0px" y="0px"
	 viewBox="0 0 500 500" style="enable-background:new 0 0 500 500;" xml:space="preserve">
<path d="M452.711,6.743c11.872,0,21.618,0,32.583,0c0,160.663,0,320.773,0,482.214c-10.508,0-21.06,0-32.583,0
	C452.711,328.366,452.711,168.246,452.711,6.743z M47.616,9.369c-11.531,0-22.078,0-32.584,0c0,161.441,0,321.551,0,482.214
	c10.964,0,20.711,0,32.584,0C47.616,330.082,47.616,169.962,47.616,9.369z M150.532,403.816c12.83,0,24.476,0,36.161,0
	c0-105.28,0-209.182,0-313.871c-12.238,0-23.586,0-36.161,0C150.532,195.251,150.532,299.056,150.532,403.816z M306.806,324.249
	c11.656,0,21.809,0,32.599,0c0-50.89,0-100.716,0-151.082c-11.339,0-21.55,0-32.599,0
	C306.806,224.822,306.806,274.656,306.806,324.249z"/>
</svg>
