<?xml version="1.0" encoding="iso-8859-1"?>
<!-- Generator: Adobe Illustrator 19.0.0, SVG Export Plug-In . SVG Version: 6.00 Build 0)  -->
<svg version="1.1" id="Layer_1" xmlns="http://www.w3.org/2000/svg" xmlns:xlink="http://www.w3.org/1999/xlink" x="0px" y="0px"
	 viewBox="0 0 500 500" style="enable-background:new 0 0 500 500;" xml:space="preserve">
<linearGradient id="SVGID_1_" gradientUnits="userSpaceOnUse" x1="251.4578" y1="452.7452" x2="249.9743" y2="48.5162">
	<stop  offset="0" style="stop-color:#1D2C87"/>
	<stop  offset="0.9995" style="stop-color:#5CBFD7"/>
</linearGradient>
<path style="fill:url(#SVGID_1_);" d="M425.607,74.794c-28.68-26.073-57.024-25.028-79.523-15.209
	c-18.647,8.138-82.13,17.817-104.727,16.947c-22.597-0.869-59.533-6.518-95.601-19.989c-36.068-13.471-70.609,17.593-70.609,17.593
	C61.9,87.385,50.59,109.124,50.155,129.548c-0.435,20.424,28.673,68.577,25.41,126.658c-1.828,32.543-19.326,78.449-23.237,98.873
	c-3.911,20.424,2.872,50.194,25.981,71.174c26.188,23.775,51.204,23.122,84.829,10.087c26.494-10.271,69.093-14.34,98.643-14.34
	c29.549,0,69.093,12.602,96.036,21.293c26.942,8.691,56.926-9.126,70.832-23.031c13.906-13.906,28.68-39.979,19.989-66.052
	c-8.691-26.073-22.597-81.695-23.031-110.81c-0.435-29.115,21.293-87.345,23.466-100.816
	C451.245,129.113,454.287,100.867,425.607,74.794z M392.537,172.898c-1.557,9.655-13.867,43.718-13.578,70.018
	c0.229,20.868,7.038,62.968,13.266,81.655c6.229,18.687,19.102,44.352,0.894,62.56c-19.363,19.363-46.677,7.514-65.986,1.286
	c-19.309-6.229-49.825-12.846-71.003-12.846c-21.178,0-49.038,2.87-68.524,7.863c-25.038,6.416-57.372,25.196-75.297,7.27
	c-26.983-26.983-6.924-50.872-4.121-65.51c2.803-14.638,12.821-48.55,14.131-71.874c2.339-41.627-11.624-75.7-15.688-89.766
	c-5.023-17.383-20.438-31.329,2.93-54.696c0,0,17.961-23.741,65.588,2.373c12.481,6.843,45.144,11.746,66.531,11.746
	c20.305,0,60.141-5.234,77.044-9.565c17.043-4.367,51.275-26.85,73.01-5.115C415.952,132.515,394.094,163.243,392.537,172.898z"/>
<linearGradient id="SVGID_2_" gradientUnits="userSpaceOnUse" x1="252.8387" y1="496.7387" x2="247.6467" y2="2.0204">
	<stop  offset="0" style="stop-color:#1D2C87"/>
	<stop  offset="0.9995" style="stop-color:#5CBFD7"/>
</linearGradient>
<path style="fill:url(#SVGID_2_);" d="M497.312,250.277c-1.844-38.716-22.625-58.019-45.476-66.986
	c-18.939-7.431-70.673-45.476-86.037-62.069c-15.364-16.593-37.487-46.706-53.466-81.735C296.355,4.458,249.965,2,249.965,2
	c-18.735,0-42.105,7.375-56.854,21.509c-14.749,14.135-28.216,68.766-71.594,107.528c-24.304,21.718-69.138,41.807-86.345,53.483
	c-17.207,11.676-33.462,37.524-31.956,68.699c1.706,35.329,19.857,52.557,52.851,67.116c25.997,11.472,58.996,38.716,79.891,59.611
	c20.895,20.895,39.946,57.767,52.851,82.964c12.905,25.196,46.706,33.8,66.371,33.8c19.665,0,48.549-7.989,60.84-32.571
	c12.291-24.582,41.789-73.746,62.069-94.64c20.28-20.895,76.818-46.706,87.88-54.695
	C477.032,306.815,499.156,288.993,497.312,250.277z M404.558,296.263c-7.928,5.726-40.719,21.108-59.111,39.909
	c-14.594,14.918-39.549,49.502-48.358,67.12s-17.854,44.869-43.604,44.869c-27.383,0-38.319-27.692-47.568-45.75
	c-9.249-18.058-26.148-44.315-41.123-59.291c-14.975-14.975-36.705-32.646-54.014-42.893
	c-22.241-13.168-58.384-22.752-58.384-48.102c0-38.16,31.076-40.868,43.409-49.237c12.333-8.368,43.396-25.264,60.815-40.83
	c31.089-27.781,45.308-61.747,52.38-74.567c8.74-15.843,7.701-36.604,40.747-36.604c0,0,29.488-4.087,44.7,48.056
	c3.986,13.664,23.617,40.227,38.739,55.35c14.358,14.358,46.228,38.825,61.242,47.715c15.139,8.963,55.242,17.271,55.242,48.009
	C449.67,284.265,412.486,290.537,404.558,296.263z"/>
</svg>
