<?xml version="1.0" encoding="utf-8"?>
<!-- Generator: Adobe Illustrator 25.2.0, SVG Export Plug-In . SVG Version: 6.00 Build 0)  -->
<svg version="1.1" id="mvc" xmlns="http://www.w3.org/2000/svg" xmlns:xlink="http://www.w3.org/1999/xlink" x="0px" y="0px"
	 viewBox="0 0 500 500" style="enable-background:new 0 0 500 500;" xml:space="preserve">
<style type="text/css">
	.st0{fill:#383635;}
</style>
<polygon class="st0" points="314.6,340.3 249.9,286.9 185.2,340.3 249.9,364.9 "/>
<path class="st0" d="M250,3.5C113.9,3.5,3.5,113.9,3.5,250S113.9,496.5,250,496.5S496.5,386.1,496.5,250S386.1,3.5,250,3.5z
	 M309.3,404.6L249.9,382l-59.4,22.6L72.9,306.8l21.3-151.5l152.3-59.8l-18.2,152.7l21.6,17.9l21.6-17.9L253.3,95.5l152.3,59.8
	l21.3,151.5L309.3,404.6z"/>
<polygon class="st0" points="237.3,276.5 211.3,255 227.4,120.2 108.7,166.8 89.9,300.2 193.5,386.3 227.4,373.4 153.8,345.5 "/>
<polygon class="st0" points="391.1,166.8 272.4,120.2 288.5,255 262.5,276.5 346,345.5 272.4,373.4 306.3,386.3 409.8,300.2 "/>
</svg>
