<?xml version="1.0" encoding="utf-8"?>
<!-- Generator: Adobe Illustrator 25.2.0, SVG Export Plug-In . SVG Version: 6.00 Build 0)  -->
<svg version="1.1" id="mvl" xmlns="http://www.w3.org/2000/svg" xmlns:xlink="http://www.w3.org/1999/xlink" x="0px" y="0px"
	 viewBox="0 0 500 500" style="enable-background:new 0 0 500 500;" xml:space="preserve">
<style type="text/css">
	.st0{fill:#FEBF00;}
</style>
<path d="M44.2,426.9c-16,0-29-13-29-29v-72c0-16,13-29,29-29s29,13,29,29v72C73.2,413.9,60.2,426.9,44.2,426.9z"/>
<path d="M461.8,434.9c-16,0-29-13-29-29V142.4c0-10.6-8.6-19.3-19.3-19.3c-8.6,0-16.3,5.8-18.6,14.1l-65,233.8
	c-9.6,34.6-40.1,57.7-76,57.7c-0.2,0-0.5,0-0.7,0c-36.2-0.3-66.6-24-75.7-59L118,140.2c-2.6-10-11.6-17-22-17
	c-12.5,0-22.7,10.2-22.7,22.7v16.5c0,16-13,29-29,29s-29-13-29-29v-16.5c0-44.6,36.3-80.8,80.8-80.8c36.8,0,69,24.9,78.2,60.5
	l59.7,229.6c3.7,14.3,16.2,15.5,19.9,15.6c0.1,0,0.1,0,0.2,0c3.9,0,16.1-1.2,20-15.2l65-233.8c9.3-33.3,39.9-56.6,74.5-56.6
	c42.7,0,77.4,34.7,77.4,77.4v263.4C490.9,421.9,477.9,434.9,461.8,434.9z"/>
<path class="st0" d="M74.2,255l-19.8,19.8c-5.6,5.6-14.8,5.6-20.4,0L14.2,255c-5.6-5.6-5.6-14.8,0-20.4L34,214.8
	c5.6-5.6,14.8-5.6,20.4,0l19.8,19.8C79.8,240.2,79.8,249.4,74.2,255z"/>
</svg>
