<?xml version="1.0" encoding="iso-8859-1"?>
<!-- Generator: Adobe Illustrator 19.0.0, SVG Export Plug-In . SVG Version: 6.00 Build 0)  -->
<svg version="1.1" id="Layer_1" xmlns="http://www.w3.org/2000/svg" xmlns:xlink="http://www.w3.org/1999/xlink" x="0px" y="0px"
	 viewBox="0 0 500 500" style="enable-background:new 0 0 500 500;" xml:space="preserve">
<linearGradient id="SVGID_1_" gradientUnits="userSpaceOnUse" x1="9.4157" y1="141.7232" x2="486.4162" y2="416.8724">
	<stop  offset="0" style="stop-color:#833CFE"/>
	<stop  offset="1" style="stop-color:#4444DA"/>
</linearGradient>
<path style="fill:url(#SVGID_1_);" d="M8.802,278.512c0-43.637,0.087-87.275-0.101-130.911c-0.026-5.985,1.946-9.65,7.204-12.668
	c74.854-42.977,149.624-86.1,224.353-129.295c4.766-2.755,8.805-2.903,13.64-0.118c56.87,32.758,113.83,65.359,170.738,98.052
	c8.454,4.857,8.531,11.841,0.267,16.847c-8.203,4.969-16.65,9.552-24.687,14.77c-5.274,3.424-9.728,3.205-15.108,0.088
	c-42.468-24.606-85.132-48.875-127.545-73.573c-6.535-3.805-11.622-3.732-18.141,0.056C181.053,95.68,122.545,129.359,63.96,162.905
	c-5.924,3.392-8.452,7.402-8.43,14.355c0.223,67.9,0.234,135.801,0.044,203.702c-0.019,6.92,2.264,11.217,8.385,14.383
	c8.342,4.315,16.296,9.375,24.466,14.029c9.151,5.214,15.421,1.544,15.428-9.093c0.042-61.318,0.038-122.635,0.052-183.953
	c0.003-13.602,5.178-16.56,17.107-9.762c39.539,22.531,79.136,44.963,118.544,67.721c6.166,3.561,11.017,3.496,17.146-0.112
	c39.702-23.376,79.596-46.425,119.439-69.559c10.686-6.205,16.193-2.975,16.197,9.461c0.023,61.13,0.031,122.259,0.054,183.389
	c0.005,12.927,5.82,16.283,16.988,9.846c8.147-4.695,16.212-9.544,24.488-13.998c5.251-2.826,7.327-6.716,7.316-12.725
	c-0.13-67.901,0.039-135.802-0.198-203.702c-0.026-7.394,2.312-11.914,8.885-15.203c7.552-3.779,14.671-8.424,21.99-12.67
	c11.588-6.722,16.833-3.777,16.85,9.474c0.06,45.894,0.062,211.79,0.287,248.843c0.04,6.625-2.247,10.688-8.055,14.018
	c-39.967,22.921-79.713,46.229-119.72,69.08c-3.451,1.971-9.159,3.261-12.189,1.701c-2.581-1.329-3.906-7.216-3.921-11.094
	c-0.224-60.188-0.142-120.378-0.134-180.567c0-1.881,0.076-3.768-0.053-5.641c-0.6-8.74-6.939-12.355-14.521-8.001
	c-24.624,14.142-49.246,28.292-73.67,42.774c-5.966,3.538-10.822,3.348-16.696-0.12c-23.641-13.957-47.486-27.572-71.28-41.269
	c-9.818-5.652-15.997-2.069-15.999,9.297c-0.012,62.07,0.09,124.14-0.164,186.209c-0.016,3.789-1.764,9.111-4.527,10.885
	c-2.426,1.558-7.992,0.146-11.174-1.685c-40.258-23.171-80.285-46.741-120.515-69.96c-5.59-3.226-7.792-7.068-7.758-13.535
	C8.856,365.787,8.783,278.512,8.802,278.512z"/>
</svg>
