<?xml version="1.0" encoding="utf-8"?>
<!-- Generator: Adobe Illustrator 23.0.2, SVG Export Plug-In . SVG Version: 6.00 Build 0)  -->
<svg version="1.1" id="mxm" xmlns="http://www.w3.org/2000/svg" xmlns:xlink="http://www.w3.org/1999/xlink" x="0px" y="0px"
	 viewBox="0 0 500 500" style="enable-background:new 0 0 500 500;" xml:space="preserve">
<style type="text/css">
	.st0{fill:url(#SVGID_1_);}
</style>
<linearGradient id="SVGID_1_" gradientUnits="userSpaceOnUse" x1="83.041" y1="152.6078" x2="417.9573" y2="487.5241">
	<stop  offset="0" style="stop-color:#4DC5DA"/>
	<stop  offset="1" style="stop-color:#76CBC2"/>
</linearGradient>
<path class="st0" d="M299.2,33.8c-43.3,0-54.1,0-97.4,0L5.3,374.2C27,411.6,32.4,421,54,458.5h393c21.6-37.5,27.1-46.9,48.7-84.3
	L299.2,33.8z M288.1,155.8l-84.3,135.1h-37.7L288.8,76.5l171.9,297.7l-20.3,35.1L288.1,155.8z M249.7,274.7l9.1,16.3h-19.3
	L249.7,274.7z M219.3,64.2h41.6l-147,257.1h162l22.3,39.6l-250.6,0.7L219.3,64.2z M66.2,418.9l-15.7-27.1L350,391l-82-145.6
	l19.6-31.5l128.8,214.3H71.5L66.2,418.9z"/>
</svg>
