<?xml version="1.0" encoding="iso-8859-1"?>
<!-- Generator: Adobe Illustrator 19.0.0, SVG Export Plug-In . SVG Version: 6.00 Build 0)  -->
<svg version="1.1" id="Layer_1" xmlns="http://www.w3.org/2000/svg" xmlns:xlink="http://www.w3.org/1999/xlink" x="0px" y="0px"
	 viewBox="1000 -1000 2500 2500" style="enable-background:new 1000 -1000 2500 2500;" xml:space="preserve">
<circle style="fill:#4A90E2;" cx="1202.203" cy="596.413" r="176.166"/>
<path style="fill:#4A90E2;" d="M3301.476-277.058c-95.37,0-176.166,77.117-176.166,176.166
	c0,139.518-22.074,176.166-176.166,176.166h-14.716c-88.012,7.358-157.771,80.796-157.771,172.487v3.679
	c0,135.839-25.753,168.808-176.166,168.808c-7.358,0-14.716,0-18.395,3.679c-88.012,11.037-157.771,84.475-157.771,172.487
	c0,95.37,77.117,176.166,176.166,176.166c91.691,0,168.808-73.438,172.487-161.45v-14.716c0-124.802,40.327-172.487,172.487-176.166
	h3.679c91.691,0,168.808-73.438,172.487-165.129v-11.037c0-128.481,40.327-176.166,176.166-176.166
	c95.37,0,176.166-77.117,176.166-176.166C3473.963-199.942,3396.846-277.058,3301.476-277.058z M2266.555,75.273h-14.716
	c-154.092,0-176.166-36.648-176.166-176.166c0-95.37-77.117-176.166-176.166-176.166c-95.37,0-176.166,77.117-176.166,176.166
	c0,139.518-22.074,172.487-176.166,172.487h-14.716c-88.012,7.358-157.771,80.796-157.771,172.487
	c0,95.37,77.117,176.166,176.166,176.166c91.691,0,168.808-73.438,172.487-161.45V247.76c0-128.481,40.327-176.166,176.166-176.166
	s176.166,47.685,176.166,172.487c0,95.37,77.117,176.166,176.166,176.166c99.049,0,176.166-77.117,176.166-176.166
	C2424.326,156.069,2354.567,82.631,2266.555,75.273z"/>
</svg>
