<?xml version="1.0" encoding="iso-8859-1"?>
<!-- Generator: Adobe Illustrator 19.0.0, SVG Export Plug-In . SVG Version: 6.00 Build 0)  -->
<svg version="1.1" id="Layer_1" xmlns="http://www.w3.org/2000/svg" xmlns:xlink="http://www.w3.org/1999/xlink" x="0px" y="0px"
	 viewBox="0 0 500 500" style="enable-background:new 0 0 500 500;" xml:space="preserve">
<g>
	<path d="M5,248.734c65.825-32.475,130.18-64.225,194.418-95.916c16.864-49.682,33.576-98.913,50.856-149.82
		c32.429,65.733,64.137,130.002,95.929,194.444c49.494,16.806,98.89,33.579,149.796,50.864
		c-65.656,32.389-129.818,64.041-194.449,95.925c-16.713,49.228-33.498,98.664-50.834,149.727
		c-32.414-65.69-64.127-129.96-95.914-194.38C105.303,282.777,55.9,266.009,5,248.734z M253.107,46.387
		c-26.236,77.383-51.815,152.829-77.985,230.016c52.474-25.885,102.944-50.782,153.953-75.944
		C303.751,149.099,278.846,98.589,253.107,46.387z M452.547,251.142c-38.565-13.073-75.4-25.558-111.754-37.881
		c-52.678,25.997-104.557,51.601-158.264,78.106c38.485,13.061,74.844,25.4,111.648,37.891
		C346.253,303.571,398.465,277.818,452.547,251.142z M155.532,282.193c11.981-35.348,23.742-70.048,35.504-104.748
		c-0.477-0.384-0.954-0.768-1.43-1.153c-46.531,22.94-93.063,45.88-141.15,69.587C84.958,258.258,119.913,270.113,155.532,282.193z
		 M247.859,450.527c12.393-36.521,24.245-71.45,36.321-107.039c-35.351-11.924-70.061-23.633-106.876-36.051
		C201.236,355.972,224.16,402.465,247.859,450.527z"/>
	<path style="fill:#FFFFFF;" d="M253.107,46.387c25.739,52.202,50.644,102.713,75.968,154.072
		c-51.008,25.162-101.478,50.059-153.953,75.944C201.292,199.216,226.871,123.77,253.107,46.387z"/>
	<path style="fill:#FFFFFF;" d="M452.547,251.142c-54.083,26.676-106.294,52.429-158.37,78.115
		c-36.804-12.491-73.163-24.83-111.648-37.891c53.707-26.505,105.586-52.109,158.264-78.106
		C377.148,225.584,413.982,238.07,452.547,251.142z"/>
	<path style="fill:#FFFFFF;" d="M155.532,282.193c-35.619-12.08-70.574-23.935-107.077-36.314
		c48.087-23.707,94.618-46.647,141.15-69.587c0.477,0.384,0.954,0.768,1.43,1.153C179.274,212.144,167.513,246.844,155.532,282.193z
		"/>
	<path style="fill:#FFFFFF;" d="M247.859,450.527c-23.698-48.062-46.623-94.555-70.555-143.09
		c36.815,12.418,71.525,24.126,106.876,36.051C272.104,379.077,260.251,414.006,247.859,450.527z"/>
</g>
</svg>
