<?xml version="1.0" encoding="iso-8859-1"?>
<!-- Generator: Adobe Illustrator 19.0.0, SVG Export Plug-In . SVG Version: 6.00 Build 0)  -->
<svg version="1.1" id="Layer_3" xmlns="http://www.w3.org/2000/svg" xmlns:xlink="http://www.w3.org/1999/xlink" x="0px" y="0px"
	 viewBox="0 0 500 500" style="enable-background:new 0 0 500 500;" xml:space="preserve">
<polygon style="fill:#3EBAEC;" points="387.644,119.631 492.729,119.631 377.537,249.6 "/>
<polygon style="fill:#28B1E9;" points="366.925,379.569 377.537,249.6 492.729,119.631 "/>
<polygon style="fill:#439FE2;" points="310.831,278.533 387.644,119.631 377.537,249.6 327.002,307.338 "/>
<polygon style="fill:#2A96E0;" points="327.002,307.338 377.537,249.6 366.925,379.569 "/>
<polygon style="fill:#2E53BD;" points="327.002,307.338 312.678,322.921 366.925,379.569 "/>
<polygon style="fill:#1244B9;" points="312.678,322.921 262.383,379.569 366.925,379.569 "/>
<polygon style="fill:#2E53BD;" points="262.383,379.569 297.406,307.338 312.678,322.921 "/>
<polygon style="fill:#4068C6;" points="297.406,307.338 310.831,278.533 327.002,307.338 312.678,322.921 "/>
<polygon style="fill:#707FD7;" points="310.831,278.533 223.102,119.631 242.38,249.6 297.406,307.338 "/>
<polygon style="fill:#5876D4;" points="242.38,249.6 297.406,307.338 262.383,379.569 "/>
<polygon style="fill:#8371D1;" points="242.38,249.6 262.383,379.569 176.833,226.288 190.81,195.924 "/>
<polygon style="fill:#8E81D7;" points="242.38,249.6 190.81,195.924 223.102,119.631 "/>
<polygon style="fill:#775CB8;" points="223.102,119.631 174.423,178.573 118.514,119.631 "/>
<polygon style="fill:#644BB3;" points="174.423,178.573 190.81,195.924 223.102,119.631 "/>
<polygon style="fill:#B44FC4;" points="118.514,119.631 7.511,379.569 160.446,195.924 "/>
<polygon style="fill:#7046AC;" points="160.446,195.924 174.423,178.573 118.514,119.631 "/>
<polygon style="fill:#5933A5;" points="176.833,226.288 160.446,195.924 174.423,178.573 190.81,195.924 "/>
<polygon style="fill:#AA3CBD;" points="7.511,379.569 160.446,195.924 176.833,226.288 113.213,379.569 "/>
</svg>
