<?xml version="1.0" encoding="iso-8859-1"?>
<!-- Generator: Adobe Illustrator 19.0.0, SVG Export Plug-In . SVG Version: 6.00 Build 0)  -->
<svg version="1.1" xmlns="http://www.w3.org/2000/svg" xmlns:xlink="http://www.w3.org/1999/xlink" x="0px" y="0px"
	 viewBox="0 0 500 500" style="enable-background:new 0 0 500 500;" xml:space="preserve">
<g id="Layer_4">
	<g id="XMLID_6_">
		<path id="XMLID_36_" style="fill:#14566C;" d="M200.477,403.763l-1.027-5.979L89.384,416.692l-3.345-101.004l43.786-105.546
			l0.562,1.165l5.464-2.634l-45.219-93.815L214.201,67.52l31.162,62.486l-30.185,15.522l3.533,4.28l30.872-15.169l48.142,18.986
			l2.227-5.643l-45.214-17.831l75.185-77.749l43.976,47.542l2.228-2.06l2.227-2.059l-77.288-83.555l-2.954-0.886l-98.873,24.369
			l-0.939,0.41L84.804,110.669l-1.067,3.852l41.053,85.171H40.3l-11.591-29.12l-5.635,2.243l56.709,142.464l-23.379,79.768
			l5.821,1.706l18.357-62.633l2.857,86.251l3.544,2.889L200.477,403.763z M201.194,41.522l96.632-23.817l27.971,30.239
			l-75.595,78.174L219.892,65.34l7.616-2.917l-2.17-5.665L111.623,100.32L201.194,41.522z M125.076,205.758L83.044,307.074
			L42.714,205.758H125.076z"/>
		<polygon id="XMLID_38_" style="fill:#14566C;" points="427.678,427.488 376.476,302.815 376.1,316.267 420.126,424.999 
			224.387,401.421 220.169,396.989 293.749,365.969 291.391,360.381 215.699,392.292 210.516,386.847 206.123,391.029 
			219.007,404.567 169.655,472.805 174.57,476.359 223.26,409.036 302.21,491.992 306.606,487.81 230.955,408.322 424.503,431.636 
					"/>
	</g>
</g>
<g id="Layer_3">
	<g id="XMLID_19_">
		<path id="XMLID_20_" style="fill:#15A9D5;" d="M492.614,320.113l-8.779-5.012l-57.818,101.27l-39.587-36.165l-6.82,7.464
			l37.637,34.384l-103.261,30.472l-96.937-73.743l-3.075,9.154l86.916,67.24l-120.8,22.156l30.005-89.187l-9.382-1.605
			l-28.23,81.832l-29.796-87.45l-8.363,8.09l28.386,82.027l-91.686-62.751l57.835-21.503l-3.523-9.478L63.97,400.123L42.834,288.405
			l79.524,82.086l5.885-8.292l-87.777-90.81l48.452-149.212l31.37,6.606l2.083-9.893l-28.842-6.073l43.041-71.061l90.749,16.309
			l-30.559,60.448l10.298,0.123l28.984-55.436l52.696,59.861l8.413-5.082l-51.039-58.616h129.531l-4.516,59.686l9.095,2.675
			l4.871-53.832l75.289,99.185l-77.218-40.036l-2.942,7.482l95.505,51.971l6.834-6.794l-50.792-98.682l-1.803-1.966l-46.379-29.162
			L300.147,3.449l-3.319-0.564L133.184,31.185l-2.759,1.453L16.587,149.461l-1.431,3.332l-5.804,150.2l0.426,2.233l45.713,103.761
			l1.77,2.135l112.379,76.914l2.563,0.875l138,7.983l2.822-0.669l116.777-67.482l1.86-1.872L492.614,320.113z M305.536,486.497
			l-90.749-5.25l92.574-16.979L305.536,486.497z M317.692,461.973l70.293-20.743l-72.007,41.61L317.692,461.973z M81.878,112.537
			l-33.583,18.87l58.541-60.076L81.878,112.537z M76.708,127.039L36.983,249.375l-11.35-93.636L76.708,127.039z M29.477,271.465
			l-9.329,13.995l2.665-68.973L29.477,271.465z M32.055,285.823l14.887,78.687l-26.796-60.822L32.055,285.823z M361.65,49.251
			H250.305l47.773-35.382L361.65,49.251z M233.733,48.945l-70.578-12.684l114.417-19.786L233.733,48.945z M447.04,132.778
			l-45.094-59.407l21.467,13.501L447.04,132.778z"/>
	</g>
</g>
<g id="Layer_5">
	<g id="XMLID_2_">
		<path id="XMLID_73_" style="fill:#E5E5E5;" d="M378.208,365.385V141.452c4.669-1.977,7.954-6.605,7.954-11.986
			c0-7.173-5.836-13.009-13.009-13.009c-5.381,0-10.009,3.284-11.986,7.954h-52.031c-1.977-4.669-6.605-7.954-11.986-7.954
			c-7.173,0-13.009,5.836-13.009,13.009c0,5.381,3.284,10.009,7.953,11.986v91.888c-0.339,0.144-0.668,0.307-0.992,0.478
			l-79.242-96.278c1.765-2.221,2.828-5.024,2.828-8.074c0-7.173-5.836-13.009-13.009-13.009c-5.381,0-10.009,3.284-11.986,7.954
			h-47.124c-1.977-4.669-6.605-7.954-11.986-7.954c-7.173,0-13.009,5.836-13.009,13.009c0,5.381,3.285,10.009,7.954,11.986v223.933
			c-4.669,1.977-7.954,6.605-7.954,11.986c0,7.173,5.836,13.009,13.009,13.009c5.381,0,10.01-3.285,11.986-7.954h52.044
			c1.977,4.67,6.605,7.954,11.986,7.954c7.173,0,13.009-5.836,13.009-13.009c0-5.381-3.284-10.009-7.954-11.986v-91.658
			c0.567-0.24,1.105-0.531,1.627-0.846l80.989,97.521c-1.286,2.017-2.043,4.404-2.043,6.969c0,7.173,5.836,13.009,13.009,13.009
			c5.381,0,10.01-3.285,11.986-7.954h43.943c1.977,4.67,6.605,7.954,11.986,7.954c7.173,0,13.009-5.836,13.009-13.009
			C386.162,371.99,382.878,367.362,378.208,365.385z M373.153,124.545c2.713,0,4.921,2.208,4.921,4.921
			c0,2.713-2.208,4.921-4.921,4.921s-4.921-2.208-4.921-4.921C368.233,126.753,370.44,124.545,373.153,124.545z M297.151,124.545
			c2.713,0,4.921,2.208,4.921,4.921c0,2.713-2.208,4.921-4.921,4.921c-2.713,0-4.921-2.208-4.921-4.921
			C292.23,126.753,294.438,124.545,297.151,124.545z M297.151,240.406c2.713,0,4.921,2.208,4.921,4.921
			c0,2.713-2.208,4.921-4.921,4.921c-2.713,0-4.921-2.208-4.921-4.921C292.23,242.613,294.438,240.406,297.151,240.406z
			 M201.681,124.545c2.713,0,4.921,2.208,4.921,4.921c0,2.713-2.208,4.921-4.921,4.921c-2.713,0-4.921-2.208-4.921-4.921
			C196.76,126.753,198.968,124.545,201.681,124.545z M130.585,124.545c2.713,0,4.921,2.208,4.921,4.921
			c0,2.713-2.208,4.921-4.921,4.921c-2.713,0-4.921-2.208-4.921-4.921C125.664,126.753,127.872,124.545,130.585,124.545z
			 M130.585,382.292c-2.713,0-4.921-2.208-4.921-4.921c0-2.713,2.208-4.921,4.921-4.921c2.713,0,4.921,2.208,4.921,4.921
			C135.506,380.084,133.298,382.292,130.585,382.292z M206.601,382.292c-2.713,0-4.921-2.208-4.921-4.921
			c0-2.713,2.208-4.921,4.921-4.921s4.921,2.208,4.921,4.921C211.522,380.084,209.314,382.292,206.601,382.292z M201.681,261.741
			c0-2.713,2.208-4.921,4.921-4.921s4.921,2.208,4.921,4.921c0,2.713-2.208,4.921-4.921,4.921S201.681,264.454,201.681,261.741z
			 M305.239,382.292c-2.713,0-4.921-2.208-4.921-4.921c0-2.713,2.208-4.921,4.921-4.921c2.713,0,4.921,2.208,4.921,4.921
			C310.159,380.084,307.952,382.292,305.239,382.292z M361.168,372.315h-43.943c-1.977-4.669-6.605-7.953-11.986-7.953
			c-0.897,0-1.773,0.091-2.619,0.265l-83.274-100.272c0.173-0.845,0.264-1.719,0.264-2.614c0-7.173-5.836-13.009-13.009-13.009
			s-13.009,5.836-13.009,13.009c0,5.381,3.285,10.009,7.954,11.986v91.658c-3.114,1.318-5.612,3.816-6.931,6.93h-52.045
			c-1.319-3.114-3.816-5.612-6.93-6.93V141.452c3.114-1.319,5.612-3.817,6.931-6.931h47.124c1.977,4.669,6.605,7.954,11.986,7.954
			c0.372,0,0.738-0.025,1.102-0.056l81.843,99.439c-0.307,1.106-0.484,2.266-0.484,3.468c0,7.173,5.836,13.009,13.009,13.009
			c7.173,0,13.009-5.836,13.009-13.009c0-5.381-3.285-10.01-7.954-11.986v-91.888c3.115-1.318,5.613-3.817,6.931-6.931h52.031
			c1.318,3.114,3.817,5.613,6.931,6.931v223.933C364.984,366.703,362.486,369.201,361.168,372.315z M373.153,382.292
			c-2.713,0-4.921-2.208-4.921-4.921c0-2.713,2.208-4.921,4.921-4.921s4.921,2.208,4.921,4.921
			C378.074,380.084,375.867,382.292,373.153,382.292z"/>
	</g>
</g>
</svg>
