<?xml version="1.0" encoding="iso-8859-1"?>
<!-- Generator: Adobe Illustrator 19.0.0, SVG Export Plug-In . SVG Version: 6.00 Build 0)  -->
<svg version="1.1" id="Layer_1" xmlns="http://www.w3.org/2000/svg" xmlns:xlink="http://www.w3.org/1999/xlink" x="0px" y="0px"
	 viewBox="957 -1000 2413 2500" style="enable-background:new 957 -1000 2413 2500;" xml:space="preserve">
<path style="fill:#3377B5;" d="M1546.511-36.921v-47.226l-488.46-264.367c-32.046,51.601-49.075,111.112-49.176,171.854v429.389
	l1.197,0.658L1546.511-36.921z"/>
<path style="fill:#4F6CB0;" d="M1010.083,253.398l536.428,290.307V-36.909L1010.083,253.398"/>
<path style="fill:#504CA1;" d="M3272.108-342.963L2793.901-84.147v47.226l524.224,283.715v-423.454
	c0-59.215-16.404-116.204-46.005-166.314"/>
<path style="fill:#3B9CC7;" d="M1546.511,566.774v-23.057l-536.44-290.307l-1.197,0.658v422.581
	c0,63.415,18.785,124.317,52.491,176.855l486.091-263.075L1546.511,566.774z"/>
<path style="fill:#5465AD;" d="M2744.558-115.196v-570.122l-526.7,285.055L2744.558-115.196"/>
<path style="fill:#513D9A;" d="M2793.901-88.502v4.343l478.206-258.815c-31.696-53.639-78.527-99.31-137.143-131.065
	l-390.407-211.278v570.122"/>
<path style="fill:#214688;" d="M2169.913,825.614l523.446-283.296v-5.623l-523.446-283.296V825.614"/>
<path style="fill:#4395C4;" d="M1589.131,614.73v574.19l6.306,3.41l530.481-287.089L1589.131,614.73"/>
<path style="fill:#54A4CB;" d="M1547.529,592.2l-0.06-1.771l-486.091,263.063c31.468,49.057,75.918,90.934,130.634,120.512
	l397.167,214.916V614.73L1547.529,592.2z"/>
<path style="fill:#7F6FB3;" d="M2173.562-424.217l44.271,23.93l526.688-285.067l-397.921-215.37
	c-54.276-29.178-114.773-44.879-176.388-45.778v524.068L2173.562-424.217z"/>
<path style="fill:#5054A4;" d="M2125.918-398.444l44.271-23.93v-524.128c-57.34-1.061-114.199,10.644-166.457,34.268
	l-413.583,223.842L2125.918-398.444z"/>
<path style="fill:#50479E;" d="M1590.148-688.393l-1.029,0.538v579.921l536.787-290.511L1590.148-688.393"/>
<path style="fill:#5057A6;" d="M1546.511-84.709l22.734-12.491l19.814-10.769v-579.873l-419.434,227.048
	c-45.208,28.506-83.358,66.901-111.574,112.292l488.46,264.355V-84.709z"/>
<path style="fill:#2C7AB6;" d="M2173.562,931.026l-3.35-1.807v517.284c61.63-0.913,122.137-16.626,176.424-45.814l391.639-211.948
	l-520.419-281.645L2173.562,931.026z"/>
<path style="fill:#4FA2CA;" d="M2125.918,905.229l-530.481,287.161l384.891,208.323c58.307,31.319,123.699,47.089,189.873,45.79
	V929.207"/>
<path style="fill:#4D8DC0;" d="M2217.857,907.048l520.419,281.645l6.282-3.41V622.005L2217.857,907.048"/>
<g>
	<path style="fill:#4488BE;" d="M2793.901,595.287l-49.332,26.706v563.289l390.395-211.29
		c56.738-30.702,102.54-74.446,134.188-125.848l-475.251-257.248"/>
	<path style="fill:#6687BE;" d="M2793.901,590.932l475.251,257.248c31.921-51.531,48.877-110.926,48.973-171.543V260.003
		l-524.224,283.715"/>
</g>
<path style="fill:#415CA8;" d="M2793.901,543.718l524.224-283.715v-13.209L2793.901-36.933V543.718"/>
<path style="fill:#5D62AC;" d="M2693.347,536.694v-566.58l-523.446,283.284L2693.347,536.694"/>
</svg>
