<?xml version="1.0" encoding="utf-8"?>
<!-- Generator: Adobe Illustrator 24.2.2, SVG Export Plug-In . SVG Version: 6.00 Build 0)  -->
<svg version="1.1" id="Layer_1" xmlns="http://www.w3.org/2000/svg" xmlns:xlink="http://www.w3.org/1999/xlink" x="0px" y="0px"
	 viewBox="0 0 500 500" style="enable-background:new 0 0 500 500;" xml:space="preserve">
<style type="text/css">
	.st0{fill:#6642FA;}
</style>
<path class="st0" d="M93.9,309.8c-9.2-10.5-9.2-27.4,0-37.9l93.1-106L150,123.6c-9.2-10.5-24.1-10.5-33.3,0L9.5,245.6
	c-9.2,10.5-9.2,27.4,0,37.9l113.1,128.8c9.2,10.5,24.1,10.5,33.3,0l14-16C170,396.4,93.9,309.8,93.9,309.8z"/>
<path class="st0" d="M284.7,470.3L103.9,264.3c-9.2-10.5-9.2-27.4,0-37.9L275.9,30.4c9.2-10.5,24.1-10.5,33.3,0l180.8,205.9
	c9.2,10.5,9.2,27.4,0,37.9L318.2,470.3C308.9,480.8,293.9,480.8,284.7,470.3z"/>
</svg>
