<svg aria-hidden="true" data-testid="test-icon" fill="currentColor" viewBox="0 0 24 24" xmlns="http://www.w3.org/2000/svg"><path fill-rule="evenodd" clip-rule="evenodd" d="M5.455 4.636a.818.818 0 00-.819.819v3.272c0 .452.367.818.819.818h13.09a.818.818 0 00.819-.818V5.455a.818.818 0 00-.819-.819H5.456zM3 5.455A2.455 2.455 0 015.455 3h13.09A2.455 2.455 0 0121 5.455v3.272a2.454 2.454 0 01-2.454 2.455H5.455A2.455 2.455 0 013 8.727V5.455z"/><path fill-rule="evenodd" clip-rule="evenodd" d="M11.182 17.727v-7.363h1.636v7.363h-1.636zM6.273 7.09c0-.451.366-.817.818-.817h.008a.818.818 0 110 1.636h-.008a.818.818 0 01-.818-.818zM9.545 7.09c0-.451.367-.817.819-.817h.008a.818.818 0 110 1.636h-.008a.818.818 0 01-.819-.818z"/><path fill-rule="evenodd" clip-rule="evenodd" d="M12 19.364a.818.818 0 100-1.637.818.818 0 000 1.637zM12 21a2.454 2.454 0 100-4.909A2.454 2.454 0 0012 21z"/></svg>
