<?xml version="1.0" encoding="utf-8"?>
<!-- Generator: Adobe Illustrator 23.0.4, SVG Export Plug-In . SVG Version: 6.00 Build 0)  -->
<svg version="1.1" id="new" xmlns="http://www.w3.org/2000/svg" xmlns:xlink="http://www.w3.org/1999/xlink" x="0px" y="0px"
	 viewBox="0 0 500 500" style="enable-background:new 0 0 500 500;" xml:space="preserve">
<path d="M227.6,350c-6.6,0-13.3-1-19.9-3.1c-3-1.2-7.2-1.3-12.4-0.6c-14.8,2.5-26.7,0.9-36.1-4.7c-1.8-0.9-5.7-1.5-10.3-1.5
	c-16.3,0.9-26.4-1.3-33-7c-1.2-0.3-4.3-0.8-8.6-0.8c-16.3,0-26.6-3.5-30-10.3c-0.9-0.4-2.9-1.1-6.1-1.6c-12.8-1.4-20.1-4.1-23.5-8.5
	c-1.2-1.5-1.8-3.2-2-5c-0.6-0.2-1.5-0.4-2.8-0.6c-12-2.1-18.1-5.4-20-10.6c-0.4-1.2-0.9-3.1-0.3-5.5C15.9,288.4,9,285.5,8,279.4
	c-0.5-2.8,0.4-5.5,2.6-8c-3.4-1.8-7.4-4.9-7.4-9.8c0-4.9,4-8,7.4-9.8c-2.2-2.5-3.1-5.1-2.6-8c1-6.3,8.2-9.2,14.6-10.9
	c-0.6-2.3-0.2-4.2,0.2-5.4c1.9-5.2,8-8.5,19.8-10.6c1.4-0.2,2.4-0.5,3-0.7c0.2-2.2,1-4.2,2.3-5.9c3.5-4.5,10.2-7,22.6-8.3
	c3.2-0.5,5.1-1.2,6-1.6c4.1-8,14.8-10.3,29.7-11c4.6,0,7.5-1.2,8.1-1.6c6-6,17.6-8.7,34.2-7.8c5.5,0,9.1-1,9.8-1.4
	c8.7-5.2,20.1-6.8,36.1-4.9c3.7,0.5,7.8,0.3,12.6-0.6c10.4-3.9,22-4.4,36.5-1.7c3.9,0.7,8.8,0.7,12.9,0c12.2-3.1,24.3-2.8,36.5,1
	c3,1.2,7.2,1.3,12.4,0.6c14.8-2.5,26.7-0.9,36.1,4.7c1.8,0.9,5.7,1.5,10.3,1.5c17.2-0.9,27.5,1.5,34,8c0.4,0.3,3.3,1.4,7.6,1.4
	c16.4,0,26.7,3.6,30.1,10.4c0.9,0.5,3,1.4,5.2,1.4c13.1,0.9,21.3,5,25.5,12.4c0.7,1.4,0.9,1.7,2.7,1.7c9.1,0,17.3,4.1,20.1,9.9
	c0.9,1.9,1.2,3.9,0.9,5.9c7.1,0.8,12.3,4.4,13.8,9.4c0.8,2.7,0.6,6.4-1.9,9.7c3.6,1.9,7.6,5,7.6,9.9c0,4.7-3.7,7.7-6.9,9.5
	c1.8,2.3,2.6,4.8,2.1,7.4c-1.1,6.5-8.7,9.4-15.3,11.1c-0.1,0-0.3,0.1-0.4,0.1c-0.6,10.7-6.5,13.5-19,15.7c-1.4,0.2-2.3,0.5-3,0.7
	c-0.2,2.2-1,4.2-2.3,5.9c-3.5,4.5-10.2,7-22.6,8.3c-3.2,0.5-5.1,1.2-6,1.6c-4.6,9-17.7,10.3-30,10.3c-4.3,0-7.2,1.2-7.8,1.6
	c-6,6-17.5,8.7-34.1,7.8c-5.5,0-9.1,1-9.8,1.4c-8.7,5.2-20.2,6.7-36.1,4.9c-3.7-0.5-7.7-0.3-12.6,0.6c-10.4,3.9-22,4.4-36.5,1.7
	c-4-0.7-8.8-0.7-12.9,0C238.6,349.3,233.1,350,227.6,350z M201.2,334.1c4,0,7.5,0.6,10.4,1.7c9.6,2.9,19.6,3.2,30.2,0.5
	c5.8-1,12-1,17.3-0.1c12.8,2.4,22.2,2,30.7-1.3l1-0.3c6.4-1.3,11.9-1.6,16.9-0.8c12.9,1.5,22.3,0.5,28.3-3.2
	c4.1-2.8,12.1-3.2,16.4-3.2c18.7,1,24.4-3.2,25.7-4.6c3-3,9.2-4.9,16-4.9c16.1,0,19.2-3,19.7-4.3c2-3.9,6.9-6.3,14.8-7.4
	c12.8-1.4,14.7-3.8,14.8-3.9c-0.2-3.7,1.5-9.2,12.6-11c7.3-1.3,8.8-2.3,9.1-2.6c0-0.1,0.1-0.7,0.1-2.6c0-6.2,3.1-8.4,8.7-10.3
	c2.3-0.6,4-1.2,5.1-1.7c-2.6-2-3.9-4.9-3.4-7.9c0.6-3.3,3.1-5.8,6.8-6.9c0.3-0.1,0.5-0.2,0.7-0.3c-0.3-0.1-0.7-0.3-1.1-0.5
	c-5.4-2.2-6.6-5.8-6.8-7.8c-0.3-3.1,1.3-6.1,4.2-8.1c0.1,0,0.1-0.1,0.2-0.1c-0.7-0.4-2-0.8-4-0.8c-5,0-9-2.3-10.6-6.1
	c-1-2.4-0.8-5,0.5-7.1c-1.3-1-4.4-2.5-8.8-2.5c-6.1,0-10.5-2.7-13.1-8c-1.2-2.1-4.3-5.4-15.6-6.2c0,0,0,0,0,0
	c-5.3,0-12.8-2.7-15-7.2l-0.3-0.8c-0.6-0.9-5.5-3.8-19.6-3.8c-6.7,0-13-1.9-15.9-4.9c-3.9-3.9-11.7-5.3-25.4-4.6c0,0-0.1,0-0.1,0
	c-4.9,0-11.3-0.5-16.2-3c-7.3-4.4-16.5-5.4-28.6-3.4c-7.5,1.1-13.5,0.7-18.1-1.1c-9.6-2.9-19.6-3.2-30.2-0.5c-5.8,1-12,1-17.3,0.1
	c-12.6-2.4-22.3-2-30.7,1.3l-1,0.3c-6.4,1.3-11.9,1.5-16.9,0.8c-13-1.5-22.3-0.5-28.3,3.1c-4.1,2.8-12,3.2-16.4,3.2
	c-18.7-1-24.4,3.2-25.7,4.6c-2.9,3-9.2,4.9-15.9,4.9c-14.8,0.8-18.9,3.2-19.7,5.1c-1.9,3.9-6.9,6.3-14.8,7.4
	c-12.8,1.4-14.7,3.8-14.8,3.9c0.2,3.6-1.5,9.2-12.6,11c-5.3,0.9-8.1,2-9.6,2.7c0.9,1.6,1.2,3.5,0.8,5.3c-1,4.3-5.4,6.2-9.1,7.5
	c-2.3,0.6-4,1.2-5.1,1.7c2.4,1.8,3.6,4.4,3.4,7.1c-0.2,3.3-2.5,6.3-6.2,8.1c-0.5,0.2-1,0.4-1.4,0.6c0.3,0.1,0.7,0.3,1,0.5
	c4.1,2,6.3,5,6.6,8.3c0.2,2.8-1.1,5.4-3.5,7.2c1.1,0.4,2.6,1,4.8,1.6c6.5,1,8.6,4.7,9.3,6.8c0.7,2.1,0.4,4.2-0.6,6.1
	c1.5,0.7,4.3,1.8,9.7,2.7c10.4,1.5,12.7,6.5,12.7,10.4c1.1,0.7,4.7,2.5,15.2,3.7c8.1,1.2,13,3.6,14.8,7.2l0.3,0.8
	c0.6,0.9,5.5,3.8,19.5,3.8c4.6,0,11.2,0.6,14.4,2.2l1.5,1.1c3.9,3.9,11.7,5.3,25.4,4.6c0,0,0.1,0,0.1,0c4.9,0,11.3,0.5,16.2,3
	c7.3,4.4,16.5,5.4,28.6,3.4C196.3,334.3,198.9,334.1,201.2,334.1z M25.5,291L25.5,291L25.5,291z M25,285.7c-0.1,0.1-0.1,0.2-0.2,0.3
	C24.9,285.9,24.9,285.8,25,285.7z M25,237.4c0.1,0.2,0.3,0.3,0.4,0.5C25.2,237.7,25.1,237.6,25,237.4z M475.8,234.8
	c-0.1,0.1-0.2,0.2-0.3,0.3C475.6,235,475.7,234.9,475.8,234.8z"/>
<path id="Fill-3_1_" d="M233.8,85.3c8.6-3.1,16.5-11.8,15.7-23.6C248.7,49.9,236.9,46,222,51.5c-29.8,10.2-37.7,44-42.4,77.8
	c-1.6,9.4-2.4,19.6-3.1,28.3c-8.6,69.9-14.9,152.4-12.6,215.2c0.8,12.6,4.7,26.7-5.5,40.1c-17.3,1.6-12.6-8.6-28.3-3.1
	c-24.3,8.6-18.9,41.6-0.8,40.1c5.5,0,10.2-1.6,16.5-5.5c30.6-15.7,34.6-56.6,40.1-97.4c9.4-76.2,14.1-150.8,13.4-222.3v-0.8
	c0-13.4-2.4-35.3,6.3-40.1C214.1,79.8,220.4,90.8,233.8,85.3"/>
<path id="Fill-5_1_" d="M348.8,53.3c-29.8,10.2-37.7,44-42.4,77.8c-1.6,9.4-2.4,19.6-3.1,28.3c-8.6,69.9-14.9,152.4-12.6,215.2
	c0.8,12.6,4.7,26.7-5.5,40.1c-17.3,2.4-12.6-8.6-28.3-3.1c-24.3,8.6-18.9,41.6-0.8,40.1c5.5,0,10.2-1.6,16.5-5.5
	c30.6-15.7,34.6-56.6,40.1-97.4c9.4-76.2,14.1-150.8,13.4-222.3v-0.8c0-13.4-2.4-35.3,6.3-40.1c8.6-4.7,14.9,6.3,28.3,0.8
	c8.6-3.1,16.5-11.8,15.7-23.6C375.5,51.7,363.7,47.8,348.8,53.3"/>
</svg>
