<?xml version="1.0" encoding="utf-8"?>
<!-- Generator: Adobe Illustrator 23.0.4, SVG Export Plug-In . SVG Version: 6.00 Build 0)  -->
<svg version="1.1" id="nex" xmlns="http://www.w3.org/2000/svg" xmlns:xlink="http://www.w3.org/1999/xlink" x="0px" y="0px"
	 viewBox="0 0 500 500" style="enable-background:new 0 0 500 500;" xml:space="preserve">
<style type="text/css">
	.st0{fill:#0B69FF;}
	.st1{fill:#0048D8;}
	.st2{fill:#FFFFFF;}
</style>
<circle class="st0" cx="250.5" cy="250.3" r="245.8"/>
<path class="st1" d="M320.3,198.8h-85c-6.2,0-11-5.6-9.9-11.7l5.8-34.4c1.9-11.1,11.5-19.2,22.7-19.2h79.3c6.8,0,12,6,11.1,12.7
	l-5,36C338.1,191.7,330,198.8,320.3,198.8z"/>
<path class="st1" d="M319.7,380.1H211c-6.2,0-11-5.6-9.9-11.7l5.8-34.4c1.9-11.1,11.5-19.2,22.7-19.2h103.1c6.8,0,12,6,11.1,12.7
	l-5,36C337.5,373,329.4,380.1,319.7,380.1z"/>
<path class="st1" d="M278.7,290.1H133.3c-6.2,0-11-5.6-9.9-11.7l5.8-34.4c1.9-11.1,11.5-19.2,22.7-19.2h139.7c6.8,0,12,6,11.1,12.7
	l-5,36C296.5,283,288.4,290.1,278.7,290.1z"/>
<path class="st2" d="M306.7,184.5h-85c-6.2,0-11-5.6-9.9-11.7l5.8-34.4c1.9-11.1,11.5-19.2,22.7-19.2h79.3c6.8,0,12,6,11.1,12.7
	l-5,36C324.5,177.4,316.3,184.5,306.7,184.5z"/>
<path class="st2" d="M306.1,365.9H197.3c-6.2,0-11-5.6-9.9-11.7l5.8-34.4c1.9-11.1,11.5-19.2,22.7-19.2h103.1c6.8,0,12,6,11.1,12.7
	l-5,36C323.9,358.8,315.7,365.9,306.1,365.9z"/>
<path class="st2" d="M265.1,275.8H119.7c-6.2,0-11-5.6-9.9-11.7l5.8-34.4c1.9-11.1,11.5-19.2,22.7-19.2h139.7c6.8,0,12,6,11.1,12.7
	l-5,36C282.9,268.7,274.7,275.8,265.1,275.8z"/>
</svg>
