<?xml version="1.0" encoding="utf-8"?>
<!-- Generator: Adobe Illustrator 25.4.1, SVG Export Plug-In . SVG Version: 6.00 Build 0)  -->
<svg version="1.1" id="nexxo" xmlns="http://www.w3.org/2000/svg" xmlns:xlink="http://www.w3.org/1999/xlink" x="0px" y="0px"
	 viewBox="0 0 500 500" style="enable-background:new 0 0 500 500;" xml:space="preserve">
<style type="text/css">
	.st0{fill:#F8931F;}
	.st1{fill:#FFFFFF;}
</style>
<path id="Path_6" class="st0" d="M500,250c0,138.1-111.9,250-250,250S0,388.1,0,250S111.9,0,250,0S500,111.9,500,250"/>
<path id="Path_7" class="st1" d="M368.3,218.6l-8-27l-37.9,9.1l-18.1-60.8l-45,10.9l34.3,115.1l-0.7,0.4l-105.6-98.2L141.9,179
	l18.1,60.8l-38.2,9.2l8,27l38.2-9.2l5.3,17.8l-38.2,9.2l8,27l38.2-9.2l14.4,48.4l45.3-10.9L206.8,234l0.7-0.4l105.6,98.2l45-10.9
	l-14.4-48.4l37.9-9.1l-8-27l-37.9,9.1l-5.3-17.8L368.3,218.6z"/>
</svg>
