<?xml version="1.0" encoding="utf-8"?>
<!-- Generator: Adobe Illustrator 26.0.3, SVG Export Plug-In . SVG Version: 6.00 Build 0)  -->
<svg version="1.1" id="nft" xmlns="http://www.w3.org/2000/svg" xmlns:xlink="http://www.w3.org/1999/xlink" x="0px" y="0px"
	 viewBox="0 0 500 500" style="enable-background:new 0 0 500 500;" xml:space="preserve">
<style type="text/css">
	.st0{fill:#070001;}
</style>
<path id="形状" class="st0" d="M250,9.7c49.5,0,97.2,18.6,131.6,53c35.3,34.5,54.8,79.5,54.8,128.1v299.5H63.6V190.8
	c0-48.6,19.4-93.6,54.8-128.1C152.8,28.3,199.6,9.7,250,9.7 M250,0c-52.1,0-101.6,19.4-138.7,55.7s-57.4,83.9-57.4,135.2V500h392.2
	V190.8c0-51.2-20.3-98.9-57.4-134.3C351.6,19.4,302.1,0,250,0z"/>
<path id="形状_1_" class="st0" d="M365.4,80.5l-8.8-8.8c-29.2-25.6-66.3-38.9-106-38.9c-43.3,0-84.8,16.8-114.8,47.7
	C104.8,111.4,88,152.1,88,195.4v270.3h325.1V196.2C413.1,152.1,395.4,111.4,365.4,80.5z M315.1,448.9c-15,5.3-31.8,8-48.6,8H149V403
	c-2.7-2.7-5.3-6.2-7.1-8.8c-20.3-26.5-30.9-59.2-30.9-92.8V199.8c0-39.8,15-76.9,41.5-106c3.5,0,8,0,12.4,0.9
	c27.4,2.7,64.5,12.4,96.3,34.5c28.3,19.4,62.7,54.8,62.7,112.2v204.9C321.2,447.1,318.6,448,315.1,448.9z"/>
<path id="形状_2_" class="st0" d="M262,129.1c-31.8-21.2-68.9-31.8-96.3-34.5c-4.4,0-8.8-0.9-12.4-0.9
	c-26.5,29.2-41.5,66.3-41.5,106v101.6c0,33.6,10.6,66.3,30.9,92.8c2.7,2.7,4.4,6.2,7.1,8.8v53.9h117.5c16.8,0,32.7-2.7,48.6-8
	c3.5-0.9,6.2-1.8,9.7-3.5V240.4C324.8,183,290.3,148.5,262,129.1z M158.7,447.1v-34.5c15.9,15,34.5,27.4,54.8,34.5
	C213.5,447.1,158.7,447.1,158.7,447.1z M315.1,439.2c-15,5.3-31.8,8-48.6,8c-38.9,0-75.1-15-103.4-43.3l-5.3-5.3
	c-3.5-3.5-7.1-8-9.7-12.4c-18.6-24.7-28.3-54.8-28.3-85.7V199.8c0-35.3,13.3-69.8,36.2-96.3c61.8,2.7,158.1,45.1,158.1,136.9v198.8
	C314.2,439.2,315.1,439.2,315.1,439.2z"/>
<path id="路径_7_" class="st0" d="M212.9,329c-2.7,0-5.3-2.7-5.3-5.3v-90.1c0-23.9,19.4-43.3,43.3-43.3s43.3,19.4,43.3,43.3
	c0,2.7-2.7,5.3-5.3,5.3s-5.3-2.7-5.3-5.3c0-17.7-15-32.7-32.7-32.7s-32.7,15-32.7,32.7v90.1C218.2,326.3,215.5,329,212.9,329z"/>
<path id="路径_8_" class="st0" d="M266.8,259.2c-2.7,0-5.3-2.7-5.3-5.3c0-6.2-4.4-10.6-10.6-10.6c-6.2,0-10.6,4.4-10.6,10.6
	c0,2.7-2.7,5.3-5.3,5.3s-5.3-2.7-5.3-5.3c0-12.4,9.7-22.1,22.1-22.1c12.4,0,22.1,9.7,22.1,22.1C272.1,256.5,269.4,259.2,266.8,259.2
	z"/>
<path id="路径_9_" class="st0" d="M212.9,329c-15.9,0-29.2-13.3-29.2-29.2c0-2.7,2.7-5.3,5.3-5.3s5.3,2.7,5.3,5.3
	c0,9.7,8,17.7,17.7,17.7c9.7,0,17.7-8,17.7-17.7c0-2.7,2.7-5.3,5.3-5.3s5.3,2.7,5.3,5.3C241.1,315.7,228.8,329,212.9,329z"/>
<path id="路径_10_" class="st0" d="M182,268c-1.8,0-2.7-0.9-3.5-1.8l-23.9-23.9v20.3c0,2.7-2.7,5.3-5.3,5.3s-6.2-2.7-6.2-6.2
	v-32.7c0-2.7,1.8-4.4,3.5-5.3c2.7-0.9,4.4-0.9,6.2,0.9l23.9,23.9v-14.1c0-2.7,2.7-5.3,5.3-5.3s5.3,2.7,5.3,5.3v27.4
	c0,2.7-1.8,4.4-3.5,5.3C183.7,268,182.8,268,182,268z"/>
<path id="路径_11_" class="st0" d="M212,239.8c-2.7,0-5.3-2.7-5.3-5.3c0-0.9,0-23-15-23c-2.7,0-5.3-2.7-5.3-5.3
	c0-2.7,2.7-5.3,5.3-5.3c20.3,0,25.6,22.1,25.6,33.6C217.3,237.1,214.6,239.8,212,239.8z"/>
</svg>
