<?xml version="1.0" encoding="utf-8"?>
<!-- Generator: Adobe Illustrator 23.0.2, SVG Export Plug-In . SVG Version: 6.00 Build 0)  -->
<svg version="1.1" id="ngc" xmlns="http://www.w3.org/2000/svg" xmlns:xlink="http://www.w3.org/1999/xlink" x="0px" y="0px"
	 viewBox="0 0 500 500" style="enable-background:new 0 0 500 500;" xml:space="preserve">
<style type="text/css">
	.st0{fill:#EC2032;}
	.st1{fill:#FFFFFF;}
</style>
<circle class="st0" cx="250" cy="250" r="246.9"/>
<path class="st1" d="M215.6,413.1c1.4-41.2,2.8-80.4,4.2-120.3c-8.4,0-15.8,0-24.3,0c3.7-35.9,7.2-71.2,10.9-107
	c34.1-5,102.5-15.1,102.5-15.1l-32.5,94.7c0,0,25.4-1.3,37.8-1.9C311.8,270.6,227,399.2,215.6,413.1z"/>
<path class="st1" d="M245.3,142.1c4.7-17.1-1.7-33.2-17.1-41.5c0.4-1.9,2.7-10.2,3.8-13.3c11,3.9,18.7,11,23.9,21.1
	c5.1,10.1,6.2,21,5.6,31.9c15.1,8,44.4,24,44.4,24l-99,13.6C206.9,177.9,233,153.2,245.3,142.1z"/>
</svg>
