<?xml version="1.0" encoding="utf-8"?>
<!-- Generator: Adobe Illustrator 25.4.1, SVG Export Plug-In . SVG Version: 6.00 Build 0)  -->
<svg version="1.1" id="niox" xmlns="http://www.w3.org/2000/svg" xmlns:xlink="http://www.w3.org/1999/xlink" x="0px" y="0px"
	 viewBox="0 0 500 500" style="enable-background:new 0 0 500 500;" xml:space="preserve">
<style type="text/css">
	.st0{fill:#66D5BB;}
	.st1{fill:#08192E;}
</style>
<path class="st0" d="M108.7,320.8l-37.4,61.7h69.2C125.3,365.1,114.3,344,108.7,320.8z"/>
<path class="st0" d="M359.4,382.5h69.2l-37.4-61.7C385.6,344,374.6,365.1,359.4,382.5z"/>
<path class="st0" d="M249.9,141.5c12.1,0,23.8,1.5,35.1,4.3L249.9,88l-35.1,57.8C226.1,143,237.8,141.5,249.9,141.5z"/>
<path class="st1" d="M104.8,288.8c0-0.6,0-1.3,0-1.9c0-56.9,32.6-106.1,80-130l42.9-70.8C126.9,97.3,48.3,182.9,48.3,287
	c0,25.6,4.8,50.2,13.5,72.7L104.8,288.8z"/>
<path class="st1" d="M315.1,157c47.4,23.9,80,73.1,80,130c0,0.6,0,1.3,0,1.9l43,70.9c8.7-22.5,13.5-47.1,13.5-72.7
	c0-104.1-78.6-189.7-179.5-200.8L315.1,157z"/>
<path class="st1" d="M341.4,400c-25,20.3-56.8,32.5-91.5,32.5s-66.5-12.2-91.5-32.5H82.7c36.2,53.7,97.6,89,167.2,89
	c69.6,0,131-35.3,167.2-89H341.4z"/>
<path class="st0" d="M227.8,86.2l22.2-36.6l22.2,36.6c9,1,17.9,2.6,26.5,4.8l-48.7-80.3L201.2,91C209.9,88.8,218.7,87.2,227.8,86.2z
	"/>
<path class="st0" d="M399.3,422.7H500l-53.9-88.8c-2.1,8.8-4.8,17.5-8,25.8l24.4,40.2h-45.3C411.8,408,405.8,415.5,399.3,422.7z"/>
<path class="st0" d="M82.7,400H37.4l24.4-40.2c-3.2-8.3-5.9-17-8-25.8l-53.9,88.8h100.7C94.1,415.5,88.1,408,82.7,400z"/>
</svg>
