<?xml version="1.0" encoding="utf-8"?>
<!-- Generator: Adobe Illustrator 23.0.2, SVG Export Plug-In . SVG Version: 6.00 Build 0)  -->
<svg version="1.1" id="nkn" xmlns="http://www.w3.org/2000/svg" xmlns:xlink="http://www.w3.org/1999/xlink" x="0px" y="0px"
	 viewBox="0 0 500 500" style="enable-background:new 0 0 500 500;" xml:space="preserve">
<style type="text/css">
	.st0{fill:url(#SVGID_1_);}
	.st1{fill:#FFFFFF;}
</style>
<linearGradient id="SVGID_1_" gradientUnits="userSpaceOnUse" x1="250.9725" y1="495.9781" x2="250.9725" y2="2.724">
	<stop  offset="0" style="stop-color:#25346E"/>
	<stop  offset="1" style="stop-color:#6073B4"/>
</linearGradient>
<circle class="st0" cx="251" cy="249.4" r="246.6"/>
<path class="st1" d="M130.5,172.4c51.6-49.4,126.9-34.5,162.8,22.5C246,240.1,165.9,234.9,130.5,172.4z"/>
<path class="st1" d="M199.1,257.4c50.7,60.7,31.1,131.7-22,163.1C135.1,381.5,131,303.7,199.1,257.4z"/>
<path class="st1" d="M243.1,311c2.9-70.2,66.9-117.3,130.9-98.6C373.8,281.3,309,327.5,243.1,311z"/>
<path class="st1" d="M273.6,68.5c43.7,14.6,64.6,67,37.2,109.3C262.7,160.1,247.9,105.4,273.6,68.5z"/>
<path class="st1" d="M181.8,240.5c-19.8,50.6-75.1,62.1-109.1,36.9C88.7,232.7,139.3,214.7,181.8,240.5z"/>
<path class="st1" d="M242.6,336.1c46.2-21.7,96.3,6.8,103.4,50.2C311.7,405.1,258.4,391.6,242.6,336.1z"/>
<path class="st1" d="M183.3,78.8c38.8-6.7,64.5,26.5,61.6,55C215,140.7,181.2,116.9,183.3,78.8z"/>
<path class="st1" d="M83.6,368.6c-4.9-13.7-0.5-26.1,6.1-37.8c8.9-15.8,30.4-26.3,47.7-24.2C145.3,337.2,123,363.4,83.6,368.6z"/>
<path class="st1" d="M402.7,316.1c-22.5,28.1-59.9,29.8-82.1,4.1C340.6,291.9,382,289.7,402.7,316.1z"/>
</svg>
