<?xml version="1.0" encoding="utf-8"?>
<!-- Generator: Adobe Illustrator 24.1.0, SVG Export Plug-In . SVG Version: 6.00 Build 0)  -->
<svg version="1.1" id="NMR" xmlns="http://www.w3.org/2000/svg" xmlns:xlink="http://www.w3.org/1999/xlink" x="0px" y="0px"
	 viewBox="0 0 500 500" style="enable-background:new 0 0 500 500;" xml:space="preserve">
<style type="text/css">
	.st0{fill:#FFFFFF;}
</style>
<path class="st0" d="M496.5,496.5c-164.3,0-328.6,0-492.9,0c0-164.3,0-328.6,0-492.9c164.3,0,328.6,0,492.9,0
	C496.5,167.8,496.5,332.2,496.5,496.5z M464,249.9c0-26.3-0.1-52.6,0.1-78.8c0.1-8.8-2.9-15.1-10.2-20.3
	c-39.9-28.9-79.6-58.1-119.4-87.1C310,45.7,285.4,27.8,260.9,9.8c-4.6-3.4-9.6-4.9-15-3.6c-3.3,0.8-6.4,2.6-9.2,4.6
	c-35.2,25.6-70.3,51.3-105.5,77c-29,21.2-57.9,42.5-87,63.6c-6,4.3-9.2,9.7-9.4,17c0,1.4,0,2.9,0,4.3c0,51.5,0,103.1,0,154.6
	c0,1.8,0,3.7,0.1,5.5c0.4,6.3,3.2,11.2,8.4,15c64.7,47.2,129.4,94.4,193.9,141.8c7.8,5.7,17.7,5.1,24.9-0.2
	c63.5-46.7,127.1-93.2,190.9-139.5c7.8-5.6,11.2-12.2,11.1-21.8C463.8,302.1,464,276,464,249.9z"/>
<path d="M464,249.9c0,26.1-0.2,52.2,0.1,78.2c0.1,9.5-3.3,16.1-11.1,21.8c-63.8,46.3-127.4,92.8-190.9,139.5
	c-7.2,5.3-17.2,5.9-24.9,0.2C172.7,442.3,108,395.1,43.3,347.9c-5.2-3.8-8-8.7-8.4-15c-0.1-1.8-0.1-3.7-0.1-5.5
	c0-51.5,0-103.1,0-154.6c0-1.4,0-2.9,0-4.3c0.2-7.3,3.4-12.7,9.4-17c29.1-21.1,58-42.4,87-63.6c35.1-25.7,70.3-51.4,105.5-77
	c2.8-2,5.9-3.9,9.2-4.6c5.4-1.3,10.4,0.2,15,3.6c24.5,18,49,35.9,73.6,53.8c39.8,29.1,79.5,58.3,119.4,87.1
	c7.2,5.2,10.3,11.6,10.2,20.3C463.8,197.4,464,223.6,464,249.9z M272.6,90.3c0,19.3,0,37.9,0,56.5c3.4,0,6.3,0,9.9,0
	c0-12.2,0-23.9,0-35.6c2,1.3,3.1,2.7,4,4.2c5.3,8.3,10.6,16.6,15.9,24.9c1.2,1.8,2.2,4.1,5,2.9c1.6-9.2,1.3-10.9-3.2-18.1
	c-5.5-8.7-11-17.3-16.5-26c-2-3.1-4-6.1-5.8-8.9C278.6,90.3,275.8,90.3,272.6,90.3z M219.2,300.6c0.6-0.3,1.1-0.6,1.7-0.9
	c0.4-4.8,1.7-9.7-1-14.2c-8-12.9-16.2-25.6-24.6-38.8c-1.8,0-3.7-0.1-5.5,0c-1.2,0.1-2.4,0.3-3.9,0.5c0,18.8,0,37.4,0,56.2
	c3.4,0,6.5,0,10.1,0c0-12.2,0-23.8,0-35.4c2.2,1.5,3.5,3.2,4.7,5c4.9,7.6,9.6,15.3,14.5,22.9C216.2,297.7,217.8,299.1,219.2,300.6z
	 M415,290.8c-12.2,7.8-23.9,15.2-35.6,22.6c0,3.5,0,6.7,0,9.9c19,0,37.5,0,56.1,0c0-3.4,0-6.4,0-9.9c-12.2-0.4-24.1,0.1-35.9-0.8
	c3.9-3.1,7.9-5.6,11.8-8.2c3.8-2.5,8.1-4.4,11.4-8.2C420.2,294.4,417.9,292.8,415,290.8z M149.5,363.1c0,3.5,0,6.5,0,9.4
	c7.6,1.2,52.3,0.9,56.5-0.3c0-2.9,0-5.9,0-9.5c-12.3,0-24,0-35.7,0c-0.1-0.4-0.2-0.8-0.3-1.1c7.8-5,15.5-10,24-15.4
	c-3.5-2.3-6.1-4.1-8.8-5.8C173,348.1,161.1,355.7,149.5,363.1z M243.9,324.9c19.3,0,37.8,0,56.6,0c0-3.4,0-6.3,0-9.9
	c-12.2,0-23.9,0-35.7,0c-0.1-0.4-0.2-0.8-0.3-1.1c7.8-5,15.6-10.1,24.1-15.6c-3.4-2.3-6-4-8.7-5.8c-12.3,7.8-24.2,15.4-36,22.9
	C243.9,318.8,243.9,321.6,243.9,324.9z M411.7,235.5c-2.4,1.8-4.3,3.1-5.2,3.8c0,5.3,0,9.3,0,13.4c3.2,0,5.9,0,8.8,0
	c0.3-2.6,0.6-4.8,0.9-7.1c7.5,0,14.7,0,22.5,0c0,14.1,0,27.7,0,41.8c3.5,0,6.4,0,9.6,0c0-16,0-31.5,0-47.5c-1.4-1.5-2.9-3.1-4-4.4
	C432.7,235.5,422,235.5,411.7,235.5z M67.8,293.4c0-3.3,0-6,0-9c-4.6,0-8.6,0-12.7,0c-1.6,1.7-3.2,3.3-4.4,4.6c0,11.2,0,21.9,0,33.4
	c1.2,1.3,2.8,2.9,3.6,3.8c15.2,0,29,0,43.2,0c0-3.3,0-6.2,0-9.7c-12.6,0-24.6,0-36.9,0c0-7.7,0-14.8,0-22.1
	C63,294,65.2,293.7,67.8,293.4z M294.6,208.6c0,11.6,0,22.5,0,33.2c1.5,1.7,2.9,3.2,4.1,4.4c14.5,0,28.5,0,42.7,0c0-3.3,0-6.2,0-9.7
	c-12.6,0-24.6,0-37,0c-0.2-7.8-0.3-15,0-22.1c3-0.4,5.1-0.8,7.3-1.1c0-3.2,0-5.9,0-9c-4.5,0-8.5,0-12.9,0
	C297.4,205.7,296,207.1,294.6,208.6z M209.7,158.9c0,4.4,0,8.4,0,12.8c1.5,1.4,3.1,2.9,4.4,4.2c11.3,0,22.2,0,33.1,0
	c1.7-1.5,3.4-2.9,4.7-4.1c-0.2-14.7,0.4-28.5-0.4-42.5c-3.4,0-6.1,0-9.5,0c0,12.4,0,24.4,0,36.6c-7.9,0-15.1,0-22.4,0
	c-0.4-2.6-0.7-4.7-1-7C215.6,158.9,212.8,158.9,209.7,158.9z M165.6,264c-4.1-14.2-7.9-27.5-11.6-40.6c-6.8,0-12.6,0-19,0
	c-3.9,13.5-7.7,26.7-11.6,40.6c3.6,0,6.4,0,9.7,0c3-10.4,5.9-20.8,8.9-31.4c2.1,0.2,3.6,0.4,5.2,0.6c1.5,5.4,3,10.6,4.4,15.7
	c1.4,5.1,2.9,10.2,4.3,15.2C159.3,264,161.9,264,165.6,264z M256.2,262.4c4.5,0,8.5,0,12.8,0c1.4-1.5,3-3.1,4.3-4.5
	c0-11.3,0-22.2,0-33.1c-1.5-1.6-2.9-3.1-3.9-4.1c-12.8-1.1-38.5-0.7-42.7,0.6c0,2.8,0,5.6,0,9c12.5,0,24.5,0,36.6,0
	c0,7.8,0,14.8,0,22c-2.6,0.4-4.7,0.7-7.1,1.1C256.2,256.3,256.2,259,256.2,262.4z M261.2,423.5c0-11.8,0-22.8,0-33.4
	c-1.6-2-2.9-3.6-3.7-4.5c-14.1-1.1-38.8-0.7-43.2,0.7c0,2.6,0,5.2,0,8.7c12.4,0,24.6,0,37,0c0,7.9,0,15,0,22.2c-2.6,0.4-5,0.7-7.1,1
	c0,3.3,0,6.1,0,9c4.5,0,8.6,0,12.9,0C258.5,425.9,260,424.5,261.2,423.5z M380,187c-3.9-13.8-7.7-27.1-11.5-40.2
	c-6.8,0-12.8,0-19.2,0c-3.8,13.5-7.6,26.7-11.4,40.2c3.7,0,6.5,0,9.6,0c2.9-10.4,5.8-20.5,8.7-30.9c2,0.1,3.5,0.2,5.4,0.2
	c3,10.4,5.9,20.5,8.7,30.6C373.8,187,376.6,187,380,187z M293.2,340.9c-3.9,13.7-8.1,26.8-11.4,40.8c2.3,0,3.8,0.1,5.2,0
	c1.4-0.1,2.8-0.3,4.4-0.5c2.9-10.4,5.8-20.6,8.7-30.9c1.9,0,3.4,0,5.2,0c3,10.5,6,20.9,8.9,31c3.5,0,6.3,0,9.6,0
	c-4-13.8-7.8-27.1-11.6-40.4C305.7,340.9,299.8,340.9,293.2,340.9z M101,188.1c-9.3-1.3-45.9-0.9-50,0.4c0,3,0,5.9,0,9.4
	c10,0,19.6,0,29.1,0c0.1,0.3,0.2,0.7,0.4,1c-3.3,2.2-6.5,4.5-10.3,7.1c3,2.3,5.5,4.2,8.1,6.1c8-5.1,15.5-9.9,22.7-14.5
	C101,194,101,191.2,101,188.1z M237,49.5c7.9,0,15.1,0,23,0c0,8.9,0,17.4,0,26c3.4,0,6.2,0,9.3,0c0-10.7,0-21.1,0-31.6
	c-1.4-1.6-2.8-3.3-3.7-4.5c-12,0-22.8,0-33.9,0c-1.6,1.5-3.2,3-4.1,3.8c0,5.2,0,9.2,0,13.1c3.3,0,6.1,0,8.9,0
	C236.7,53.9,236.8,51.9,237,49.5z M351.9,326.8c0-10.9,0-21.3,0-31.8c-1.5-1.5-3-2.9-4.4-4.2c-11.2,0-22.3,0-33.6,0
	c-1.5,1.4-2.9,2.8-4,3.8c0,4.8,0,8.9,0,13.1c3.3,0,6.2,0,9.1,0c0.4-2.7,0.6-4.9,1-7.2c7.4,0,14.5,0,22.3,0c0,8.8,0,17.3,0,26.3
	C345.6,326.8,348.4,326.8,351.9,326.8z M324.4,392.5c-12.1,7.7-24.2,15.4-35.9,22.8c0,3.6,0,6.5,0,9.6c10.4,0,20.2,0,30.2,0
	c0-3.4,0-6.4,0-9.5c-3.5-0.2-6.6-0.4-11-0.7c9-5.8,16.8-10.9,25.2-16.3C329.7,396.2,327.2,394.5,324.4,392.5z M131.6,124.7
	c3.2,2.4,5.7,4.2,8.3,6.2c10.9-6.9,21.6-13.6,31.9-20.1c0-3.5,0-6.3,0-9.4c-10,0-19.7,0-29.4,0c0,3.4,0,6.4,0,9.4
	c3.2,0.3,5.8,0.5,9.7,0.9C144.7,116.3,138.6,120.2,131.6,124.7z M360.5,393.7c1.6-2.1,2.7-3.5,3.7-5c2.9-4.4,5.5-9.2,8.8-13.3
	c5.1-6.3,3.7-13.1,2.4-20.2c-4.8,7.2-9.6,14.5-14.7,22.2c-5.2-8-10-15.2-14.8-22.5c-0.5,0.1-0.9,0.3-1.4,0.4c0.2,5-1,10.7,1,14.8
	C349.4,378.3,355.1,385.5,360.5,393.7z M194.9,155.5c4.4-6.7,8-12.9,12.3-18.5c5.1-6.5,3.8-13.5,3.4-22
	c-5.6,8.5-10.5,15.9-15.7,23.9c-5.4-8.1-10.3-15.4-15.2-22.8c-0.5,0.2-0.9,0.4-1.4,0.6c0.4,5-0.7,10.8,1.4,15
	C183.8,139.9,189.5,147.3,194.9,155.5z M134.6,331.2c-5.3-7.9-10.2-15.2-15.1-22.6c-0.3,0.2-0.6,0.3-0.8,0.5c0,4.9,0,9.7,0,14.6
	c5.2,7.9,10.4,15.7,15.9,24.1c5.6-8.6,10.8-16.5,15.6-23.7c0-5.5,0-10.2,0-16.4C144.6,316.1,139.8,323.4,134.6,331.2z M121.2,195.6
	c8.8,5.8,16.8,11,23.9,15.7c5.7,0,10.4,0,16.3,0c-8.4-5.6-15.8-10.5-23.7-15.7c8-5.3,15.3-10.1,23.7-15.7
	c-9.2-0.6-16.7-1.3-23.4,4.4C133.2,188.5,127.4,191.5,121.2,195.6z M195.2,207c9.9,1.2,39.1,0.8,43.2-0.5c0-3,0-5.9,0-8.7
	c-10-1.1-38.9-0.7-43.2,0.6C195.2,201.1,195.2,203.9,195.2,207z M121.6,151.6c-15,0.3-29.3-0.5-43.7,0.5c0,3.6,0,6.4,0,9.6
	c14.7,0,29.1,0,43.7,0C121.6,158.4,121.6,155.6,121.6,151.6z M375.8,218.4c14.4,0,28.6,0,43,0c0-3.4,0-6.5,0-9.7
	c-14.6,0-28.6,0-43,0C375.8,212,375.8,214.9,375.8,218.4z M375.1,116.2c-16.2,0-31.7,0-47.6,0c0,3.3,0,6.2,0,9
	c9.8,1.2,43.2,0.8,47.6-0.6C375.1,122.1,375.1,119.5,375.1,116.2z M164.3,413.1c9.5,1.1,35.6,0.8,40-0.5c0-2.8,0-5.6,0-9
	c-13.4-0.4-26.6-0.4-40-0.1C164.3,407.2,164.3,410,164.3,413.1z M211.7,100.8c0-14.7,0-29,0-43.5c-3.3,0-6.3,0-9.5,0
	c0,14.7,0,28.9,0,43.5C205.4,100.8,208.2,100.8,211.7,100.8z M116.9,290.6c14.8,0,28.8,0,43,0c0-3.4,0-6.3,0-9.5
	c-14.5,0-28.5,0-43,0C116.9,284.4,116.9,287.3,116.9,290.6z M223.4,333c0,12.8-0.5,25.1,0.3,37.3c3.7,0,6.6,0,9.6,0
	c0-12.7,0-24.8,0-37.3C230.1,333,227.3,333,223.4,333z M375.1,302.1c0-11.8,0-23.1,0-34.6c-3.4,0-6.4,0-9.6,0c0,11.7,0,23,0,34.6
	C368.9,302.1,371.9,302.1,375.1,302.1z M397.6,170.5c3.5,0,6.6,0,9.7,0c0-10.8,0-20.9,0-31.5c-3.3,0-6.3,0-9.7,0
	C397.6,149.7,397.6,160,397.6,170.5z M97.6,236.5c0,10.9,0,21,0,31.4c3.5,0,6.6,0,9.7,0c0-10.7,0-20.8,0-31.4
	C103.9,236.5,101,236.5,97.6,236.5z M282.6,199.5c0-10.9,0-21.1,0-31.6c-3.2,0-6,0-9.1,0c0,10.7,0,21,0,31.6
	C276.6,199.5,279.3,199.5,282.6,199.5z M354.6,266.2c-10.6,0-20.5,0-30.6,0c0,3.4,0,6.3,0,9.4c10.4,0,20.3,0,30.5,0
	c0.2-1.6,0.4-2.8,0.4-4C354.8,269.9,354.7,268.3,354.6,266.2z M317.8,73.5c-6.4-1.2-22.4-1.1-27,0.2c0,2.9,0,5.9,0,9.5
	c9.2,0.1,18,0.2,27-0.1C317.8,79.3,317.8,76.4,317.8,73.5z M106.3,363.7c0,3.6,0,6.6,0,9.5c8.9,0,17.2,0,25.8,0c0-3.3,0-6.3,0-9.5
	C123.3,363.7,114.9,363.7,106.3,363.7z M253.8,472.5c1.4-7.1,1.1-18.4-0.3-22.4c-3,0-5.9,0-8.8,0c0,7.7,0,14.9,0,22.4
	C247.8,472.5,250.6,472.5,253.8,472.5z M230.5,254.2c-1.3,7.9-1,20.5,0.7,25c2.7-0.1,5.7-0.3,8.4-0.4c0-8.6,0-16.4,0-24.5
	C236.4,254.2,233.7,254.2,230.5,254.2z M172.1,230.4c8.3-0.2,16.2,0.4,24.2-0.4c0-3.4,0-6.2,0-9.3c-8.2,0-16.1,0-24.2,0
	C172.1,224,172.1,227,172.1,230.4z M200.2,429.1c4.2,7.4,8,14.1,11.6,20.4c3.7,0,6.6,0,10.9,0c-4-7.4-7.6-13.9-11.2-20.4
	C208,429.1,204.7,429.1,200.2,429.1z M245.5,78.4c-3.8,0-7.1,0-11.3,0c4.2,7.4,7.9,13.9,11.7,20.5c3.6-0.2,6.6-0.4,10.7-0.6
	C252.5,90.8,248.9,84.4,245.5,78.4z M271.3,363.1c-3.3-7.6-7.3-13.9-10.9-20.1c-3.8,0-7,0-11.2,0c4.1,7.3,7.8,13.8,11.4,20.1
	C264.2,363.1,267.2,363.1,271.3,363.1z M421.4,159.4c4.3,7.6,8,14,11.5,20.2c3.7,0,6.8,0,11,0c-4.2-7.4-7.8-13.9-11.3-20.2
	C428.9,159.4,425.9,159.4,421.4,159.4z M165.5,175.5c3.3,0,6.2,0,9.1,0c0-7.9,0-15.3,0-22.7c-3.3,0-6,0-9.1,0
	C165.5,160.4,165.5,167.7,165.5,175.5z M291.6,265.4c0,3.5,0,6.6,0,9.7c3.4,0,6.1,0,9.1,0c0-3.5,0-6.6,0-9.7
	C297.4,265.4,294.6,265.4,291.6,265.4z M129,152.1c0,3.2,0,6.3,0,9.7c3.2,0,6.2,0,9.3,0c0-3.4,0-6.4,0-9.7
	C135.1,152.1,132.3,152.1,129,152.1z M273.7,274.3c0,3.5,0,6.6,0,9.5c3.3,0,6.1,0,8.8,0c0-3.5,0-6.4,0-9.5
	C279.3,274.3,276.6,274.3,273.7,274.3z M176.6,327.4c3.6,0,6.6,0,9.6,0c0-3.4,0-6.3,0-9.3c-3.5,0-6.4,0-9.6,0
	C176.6,321.3,176.6,324.1,176.6,327.4z M352,218.4c0-3.6,0-6.5,0-9.7c-3.4,0-6.3,0-9.4,0c0,3.4,0,6.4,0,9.7
	C345.9,218.4,348.6,218.4,352,218.4z M397.8,186.4c0,3.4,0,6.5,0,9.7c3.4,0,6.4,0,9.9,0c-0.2-3.6-0.3-6.6-0.4-9.7
	C403.7,186.4,401,186.4,397.8,186.4z M313.1,98.3c0,3.5,0,6.3,0,9.2c3.4,0,6.3,0,9.5,0c0-3.2,0-6,0-9.2
	C319.3,98.3,316.4,98.3,313.1,98.3z M65.5,254.4c3.7,0,6.6,0,9.5,0c0-3.3,0-6,0-9c-3.4,0-6.3,0-9.5,0
	C65.5,248.6,65.5,251.4,65.5,254.4z M228.4,105c0,3.6,0,6.6,0,9.4c3.4,0,6.3,0,9.1,0c0-3.4,0-6.3,0-9.4
	C234.2,105,231.5,105,228.4,105z M258.4,197.7c-3.3,0-6.2,0-9.5,0c0,3.2,0,6.1,0,9.1c3.4,0,6.5,0,9.5,0
	C258.4,203.5,258.4,200.7,258.4,197.7z M389.4,356.5c3.7,0,6.6,0,9.4,0c0-3.4,0-6.3,0-9.7c-3.5,0.2-6.4,0.3-9.4,0.4
	C389.4,350.7,389.4,353.4,389.4,356.5z M307.8,180.5c3.5,0,6.3,0,9.3,0c0-3.3,0-6.3,0-9.3c-3.3,0-6.3,0-9.3,0
	C307.8,174.5,307.8,177.3,307.8,180.5z M145.7,389.2c0,3.5,0,6.4,0,9.5c3.4,0,6.3,0,9.4,0c0-3.4,0-6.3,0-9.5
	C151.9,389.2,149.1,389.2,145.7,389.2z M267.7,440c0,3.4,0,6.3,0,9.2c3.4,0,6.3,0,9.1,0c0-3.3,0-6.1,0-9.2
	C273.8,440,271,440,267.7,440z"/>
<path class="st0" d="M272.6,90.3c3.1,0,5.9,0,9.3,0c1.8,2.8,3.8,5.8,5.8,8.9c5.5,8.6,11,17.3,16.5,26c4.5,7.1,4.8,8.8,3.2,18.1
	c-2.9,1.1-3.9-1.1-5-2.9c-5.3-8.3-10.6-16.6-15.9-24.9c-1-1.5-2-2.9-4-4.2c0,11.7,0,23.4,0,35.6c-3.6,0-6.5,0-9.9,0
	C272.6,128.2,272.6,109.7,272.6,90.3z"/>
<path class="st0" d="M219.2,300.6c-1.4-1.5-3-2.9-4.1-4.6c-4.9-7.6-9.7-15.2-14.5-22.9c-1.2-1.8-2.5-3.6-4.7-5c0,11.6,0,23.2,0,35.4
	c-3.6,0-6.7,0-10.1,0c0-18.8,0-37.4,0-56.2c1.5-0.2,2.7-0.5,3.9-0.5c1.8-0.1,3.6,0,5.5,0c8.4,13.2,16.6,25.9,24.6,38.8
	c2.8,4.5,1.4,9.4,1,14.2C220.3,300,219.7,300.3,219.2,300.6z"/>
<path class="st0" d="M415,290.8c2.8,2,5.1,3.6,7.8,5.5c-3.3,3.9-7.6,5.7-11.4,8.2c-3.9,2.6-7.9,5.1-11.8,8.2
	c11.9,0.9,23.7,0.4,35.9,0.8c0,3.5,0,6.4,0,9.9c-18.6,0-37.2,0-56.1,0c0-3.2,0-6.4,0-9.9C391.1,306,402.8,298.6,415,290.8z"/>
<path class="st0" d="M149.5,363.1c11.6-7.4,23.5-15,35.8-22.8c2.7,1.8,5.3,3.5,8.8,5.8c-8.5,5.4-16.2,10.4-24,15.4
	c0.1,0.4,0.2,0.8,0.3,1.1c11.7,0,23.5,0,35.7,0c0,3.6,0,6.5,0,9.5c-4.2,1.2-48.9,1.6-56.5,0.3C149.5,369.6,149.5,366.6,149.5,363.1z
	"/>
<path class="st0" d="M243.9,324.9c0-3.4,0-6.2,0-9.5c11.8-7.5,23.7-15.1,36-22.9c2.7,1.8,5.3,3.6,8.7,5.8
	c-8.5,5.5-16.3,10.5-24.1,15.6c0.1,0.4,0.2,0.8,0.3,1.1c11.7,0,23.5,0,35.7,0c0,3.5,0,6.5,0,9.9
	C281.7,324.9,263.1,324.9,243.9,324.9z"/>
<path class="st0" d="M411.7,235.5c10.4,0,21,0,32.5,0c1.2,1.3,2.7,2.9,4,4.4c0,15.9,0,31.5,0,47.5c-3.2,0-6.1,0-9.6,0
	c0-14,0-27.7,0-41.8c-7.7,0-15,0-22.5,0c-0.3,2.3-0.5,4.5-0.9,7.1c-2.9,0-5.7,0-8.8,0c0-4.1,0-8.1,0-13.4
	C407.4,238.6,409.2,237.3,411.7,235.5z"/>
<path class="st0" d="M67.8,293.4c-2.6,0.3-4.8,0.6-7.2,0.9c0,7.3,0,14.4,0,22.1c12.3,0,24.3,0,36.9,0c0,3.5,0,6.4,0,9.7
	c-14.1,0-28,0-43.2,0c-0.9-0.9-2.4-2.5-3.6-3.8c0-11.5,0-22.1,0-33.4c1.2-1.3,2.8-2.9,4.4-4.6c4.1,0,8.2,0,12.7,0
	C67.8,287.3,67.8,290.1,67.8,293.4z"/>
<path class="st0" d="M294.6,208.6c1.4-1.4,2.9-2.9,4.2-4.2c4.4,0,8.4,0,12.9,0c0,3,0,5.8,0,9c-2.2,0.3-4.3,0.6-7.3,1.1
	c-0.3,7.1-0.2,14.3,0,22.1c12.4,0,24.4,0,37,0c0,3.5,0,6.4,0,9.7c-14.2,0-28.2,0-42.7,0c-1.2-1.3-2.5-2.8-4.1-4.4
	C294.6,231.1,294.6,220.2,294.6,208.6z"/>
<path class="st0" d="M209.7,158.9c3.1,0,5.9,0,9,0c0.3,2.3,0.6,4.4,1,7c7.3,0,14.5,0,22.4,0c0-12.2,0-24.2,0-36.6c3.4,0,6.1,0,9.5,0
	c0.8,13.9,0.2,27.8,0.4,42.5c-1.3,1.2-3,2.6-4.7,4.1c-10.9,0-21.8,0-33.1,0c-1.4-1.3-3-2.8-4.4-4.2
	C209.7,167.3,209.7,163.3,209.7,158.9z"/>
<path class="st0" d="M165.6,264c-3.7,0-6.4,0-9.7,0c-1.4-5-2.9-10.1-4.3-15.2c-1.5-5.1-2.9-10.2-4.4-15.7c-1.6-0.2-3.2-0.3-5.2-0.6
	c-3,10.6-5.9,20.9-8.9,31.4c-3.2,0-6,0-9.7,0c4-13.8,7.8-27.1,11.6-40.6c6.4,0,12.2,0,19,0C157.8,236.5,161.6,249.8,165.6,264z"/>
<path class="st0" d="M256.2,262.4c0-3.4,0-6.1,0-9c2.4-0.4,4.5-0.7,7.1-1.1c0-7.1,0-14.2,0-22c-12.1,0-24.1,0-36.6,0
	c0-3.4,0-6.2,0-9c4.2-1.2,29.9-1.7,42.7-0.6c1,1.1,2.4,2.6,3.9,4.1c0,10.9,0,21.7,0,33.1c-1.3,1.3-2.8,3-4.3,4.5
	C264.7,262.4,260.6,262.4,256.2,262.4z"/>
<path class="st0" d="M261.2,423.5c-1.1,1-2.6,2.4-4.1,3.7c-4.3,0-8.3,0-12.9,0c0-3,0-5.7,0-9c2.1-0.3,4.4-0.6,7.1-1
	c0-7.2,0-14.3,0-22.2c-12.4,0-24.5,0-37,0c0-3.5,0-6.1,0-8.7c4.4-1.4,29.1-1.9,43.2-0.7c0.8,1,2.1,2.5,3.7,4.5
	C261.2,400.7,261.2,411.7,261.2,423.5z"/>
<path class="st0" d="M380,187c-3.5,0-6.2,0-9.6,0c-2.9-10-5.8-20.2-8.7-30.6c-1.8-0.1-3.4-0.1-5.4-0.2c-2.9,10.4-5.8,20.5-8.7,30.9
	c-3.1,0-5.9,0-9.6,0c3.8-13.5,7.6-26.8,11.4-40.2c6.4,0,12.4,0,19.2,0C372.3,159.9,376.1,173.2,380,187z"/>
<path class="st0" d="M293.2,340.9c6.6,0,12.4,0,19,0c3.8,13.3,7.6,26.6,11.6,40.4c-3.3,0-6,0-9.6,0c-2.9-10.1-5.9-20.4-8.9-31
	c-1.8,0-3.3,0-5.2,0c-2.9,10.3-5.8,20.5-8.7,30.9c-1.6,0.2-3,0.4-4.4,0.5c-1.4,0.1-2.8,0-5.2,0C285.1,367.7,289.3,354.6,293.2,340.9
	z"/>
<path class="st0" d="M101,188.1c0,3.1,0,5.9,0,9.5c-7.2,4.6-14.7,9.4-22.7,14.5c-2.6-1.9-5.1-3.8-8.1-6.1c3.8-2.6,7-4.8,10.3-7.1
	c-0.1-0.3-0.2-0.7-0.4-1c-9.6,0-19.1,0-29.1,0c0-3.5,0-6.4,0-9.4C55.1,187.2,91.7,186.8,101,188.1z"/>
<path class="st0" d="M237,49.5c-0.2,2.4-0.4,4.4-0.6,6.9c-2.8,0-5.6,0-8.9,0c0-4,0-7.9,0-13.1c0.9-0.8,2.6-2.3,4.1-3.8
	c11.1,0,21.9,0,33.9,0c0.9,1.1,2.4,2.8,3.7,4.5c0,10.5,0,20.9,0,31.6c-3.1,0-5.9,0-9.3,0c0-8.6,0-17.1,0-26
	C252.2,49.5,244.9,49.5,237,49.5z"/>
<path class="st0" d="M351.9,326.8c-3.5,0-6.3,0-9.7,0c0-8.9,0-17.4,0-26.3c-7.7,0-14.8,0-22.3,0c-0.3,2.3-0.6,4.5-1,7.2
	c-2.9,0-5.8,0-9.1,0c0-4.2,0-8.3,0-13.1c1.1-1,2.5-2.4,4-3.8c11.3,0,22.3,0,33.6,0c1.4,1.3,2.9,2.8,4.4,4.2
	C351.9,305.5,351.9,315.9,351.9,326.8z"/>
<path class="st0" d="M324.4,392.5c2.8,2,5.3,3.7,8.5,5.9c-8.4,5.4-16.2,10.4-25.2,16.3c4.5,0.3,7.5,0.5,11,0.7c0,3.1,0,6.1,0,9.5
	c-10,0-19.8,0-30.2,0c0-3,0-6,0-9.6C300.3,407.9,312.3,400.3,324.4,392.5z"/>
<path class="st0" d="M131.6,124.7c7-4.4,13.1-8.4,20.5-13c-3.9-0.4-6.6-0.6-9.7-0.9c0-3,0-5.9,0-9.4c9.7,0,19.3,0,29.4,0
	c0,3,0,5.8,0,9.4c-10.3,6.5-20.9,13.2-31.9,20.1C137.2,128.9,134.8,127.1,131.6,124.7z"/>
<path class="st0" d="M360.5,393.7c-5.3-8.2-11.1-15.5-15-23.6c-2-4.1-0.8-9.8-1-14.8c0.5-0.1,0.9-0.3,1.4-0.4
	c4.8,7.3,9.6,14.5,14.8,22.5c5.1-7.7,9.9-14.9,14.7-22.2c1.3,7.1,2.7,14-2.4,20.2c-3.4,4.1-5.9,8.9-8.8,13.3
	C363.2,390.3,362,391.6,360.5,393.7z"/>
<path class="st0" d="M194.9,155.5c-5.4-8.3-11.1-15.6-15.1-23.8c-2.1-4.2-1-9.9-1.4-15c0.5-0.2,0.9-0.4,1.4-0.6
	c4.9,7.4,9.8,14.7,15.2,22.8c5.2-8,10.1-15.4,15.7-23.9c0.4,8.4,1.7,15.5-3.4,22C202.9,142.6,199.3,148.9,194.9,155.5z"/>
<path class="st0" d="M134.6,331.2c5.2-7.8,10-15.1,15.6-23.5c0,6.2,0,10.9,0,16.4c-4.8,7.3-9.9,15.1-15.6,23.7
	c-5.5-8.4-10.7-16.2-15.9-24.1c0-4.8,0-9.7,0-14.6c0.3-0.2,0.6-0.3,0.8-0.5C124.4,316,129.3,323.3,134.6,331.2z"/>
<path class="st0" d="M121.2,195.6c6.2-4,12.1-7.1,16.9-11.2c6.7-5.8,14.2-5,23.4-4.4c-8.4,5.5-15.7,10.3-23.7,15.7
	c7.9,5.2,15.2,10.1,23.7,15.7c-5.9,0-10.6,0-16.3,0C137.9,206.6,130,201.3,121.2,195.6z"/>
<path class="st0" d="M195.2,207c0-3.1,0-5.9,0-8.6c4.3-1.3,33.2-1.7,43.2-0.6c0,2.8,0,5.8,0,8.7C234.3,207.8,205.1,208.2,195.2,207z
	"/>
<path class="st0" d="M121.6,151.6c0,4,0,6.8,0,10.1c-14.6,0-29,0-43.7,0c0-3.2,0-6,0-9.6C92.3,151.1,106.6,151.9,121.6,151.6z"/>
<path class="st0" d="M375.8,218.4c0-3.4,0-6.4,0-9.7c14.4,0,28.4,0,43,0c0,3.2,0,6.3,0,9.7C404.4,218.4,390.2,218.4,375.8,218.4z"/>
<path class="st0" d="M375.1,116.2c0,3.3,0,5.9,0,8.4c-4.3,1.4-37.8,1.8-47.6,0.6c0-2.8,0-5.7,0-9
	C343.4,116.2,358.9,116.2,375.1,116.2z"/>
<path class="st0" d="M164.3,413.1c0-3.2,0-5.9,0-9.6c13.3-0.4,26.5-0.4,40,0.1c0,3.4,0,6.2,0,9C199.9,413.9,173.9,414.2,164.3,413.1
	z"/>
<path class="st0" d="M211.7,100.8c-3.5,0-6.3,0-9.5,0c0-14.6,0-28.8,0-43.5c3.2,0,6.2,0,9.5,0C211.7,71.8,211.7,86.1,211.7,100.8z"
	/>
<path class="st0" d="M116.9,290.6c0-3.3,0-6.2,0-9.5c14.5,0,28.5,0,43,0c0,3.2,0,6.1,0,9.5C145.8,290.6,131.7,290.6,116.9,290.6z"/>
<path class="st0" d="M223.4,333c4,0,6.8,0,10,0c0,12.5,0,24.6,0,37.3c-3,0-6,0-9.6,0C222.9,358,223.4,345.7,223.4,333z"/>
<path class="st0" d="M375.1,302.1c-3.2,0-6.2,0-9.6,0c0-11.6,0-22.9,0-34.6c3.2,0,6.2,0,9.6,0C375.1,279,375.1,290.3,375.1,302.1z"
	/>
<path class="st0" d="M397.6,170.5c0-10.4,0-20.8,0-31.5c3.4,0,6.3,0,9.7,0c0,10.6,0,20.7,0,31.5
	C404.2,170.5,401.1,170.5,397.6,170.5z"/>
<path class="st0" d="M97.6,236.5c3.4,0,6.3,0,9.7,0c0,10.5,0,20.7,0,31.4c-3.1,0-6.2,0-9.7,0C97.6,257.5,97.6,247.3,97.6,236.5z"/>
<path class="st0" d="M282.6,199.5c-3.3,0-6,0-9.1,0c0-10.7,0-21,0-31.6c3.1,0,5.8,0,9.1,0C282.6,178.3,282.6,188.6,282.6,199.5z"/>
<path class="st0" d="M354.6,266.2c0.1,2.1,0.3,3.8,0.3,5.4c0,1.2-0.2,2.4-0.4,4c-10.1,0-20.1,0-30.5,0c0-3.1,0-6,0-9.4
	C334,266.2,344,266.2,354.6,266.2z"/>
<path class="st0" d="M317.8,73.5c0,2.9,0,5.8,0,9.6c-8.9,0.3-17.8,0.2-27,0.1c0-3.6,0-6.6,0-9.5C295.3,72.4,311.4,72.3,317.8,73.5z"
	/>
<path class="st0" d="M106.3,363.7c8.7,0,17,0,25.8,0c0,3.2,0,6.2,0,9.5c-8.6,0-16.9,0-25.8,0C106.3,370.3,106.3,367.4,106.3,363.7z"
	/>
<path class="st0" d="M253.8,472.5c-3.1,0-5.9,0-9.2,0c0-7.5,0-14.7,0-22.4c2.9,0,5.9,0,8.8,0C254.9,454.1,255.1,465.5,253.8,472.5z"
	/>
<path class="st0" d="M230.5,254.2c3.2,0,5.9,0,9.2,0c0,8.1,0,15.9,0,24.5c-2.8,0.1-5.7,0.3-8.4,0.4
	C229.5,274.8,229.2,262.2,230.5,254.2z"/>
<path class="st0" d="M172.1,230.4c0-3.4,0-6.4,0-9.7c8.1,0,16,0,24.2,0c0,3.1,0,5.9,0,9.3C188.4,230.8,180.5,230.2,172.1,230.4z"/>
<path class="st0" d="M200.2,429.1c4.5,0,7.8,0,11.4,0c3.6,6.5,7.1,13,11.2,20.4c-4.2,0-7.2,0-10.9,0
	C208.2,443.2,204.4,436.5,200.2,429.1z"/>
<path class="st0" d="M245.5,78.4c3.4,6.1,6.9,12.4,11.1,19.9c-4,0.2-7.1,0.4-10.7,0.6c-3.8-6.6-7.5-13.1-11.7-20.5
	C238.4,78.4,241.7,78.4,245.5,78.4z"/>
<path class="st0" d="M271.3,363.1c-4.1,0-7.1,0-10.6,0c-3.6-6.3-7.3-12.8-11.4-20.1c4.1,0,7.4,0,11.2,0
	C264,349.2,268,355.5,271.3,363.1z"/>
<path class="st0" d="M421.4,159.4c4.4,0,7.5,0,11.2,0c3.5,6.2,7.1,12.8,11.3,20.2c-4.2,0-7.3,0-11,0
	C429.4,173.4,425.7,166.9,421.4,159.4z"/>
<path class="st0" d="M165.5,175.5c0-7.9,0-15.1,0-22.7c3.1,0,5.9,0,9.1,0c0,7.5,0,14.9,0,22.7C171.8,175.5,168.8,175.5,165.5,175.5z
	"/>
<path class="st0" d="M291.6,265.4c3,0,5.8,0,9.1,0c0,3.1,0,6.2,0,9.7c-3,0-5.8,0-9.1,0C291.6,272,291.6,268.9,291.6,265.4z"/>
<path class="st0" d="M129,152.1c3.3,0,6.1,0,9.3,0c0,3.3,0,6.3,0,9.7c-3.2,0-6.1,0-9.3,0C129,158.4,129,155.3,129,152.1z"/>
<path class="st0" d="M273.7,274.3c2.8,0,5.6,0,8.8,0c0,3.1,0,6.1,0,9.5c-2.8,0-5.5,0-8.8,0C273.7,280.8,273.7,277.7,273.7,274.3z"/>
<path class="st0" d="M176.6,327.4c0-3.3,0-6,0-9.3c3.2,0,6.2,0,9.6,0c0,2.9,0,5.9,0,9.3C183.1,327.4,180.2,327.4,176.6,327.4z"/>
<path class="st0" d="M352,218.4c-3.4,0-6.2,0-9.4,0c0-3.3,0-6.2,0-9.7c3,0,6,0,9.4,0C352,211.9,352,214.8,352,218.4z"/>
<path class="st0" d="M397.8,186.4c3.1,0,5.9,0,9.4,0c0.1,3.1,0.3,6.1,0.4,9.7c-3.5,0-6.4,0-9.9,0
	C397.8,192.8,397.8,189.8,397.8,186.4z"/>
<path class="st0" d="M313.1,98.3c3.3,0,6.2,0,9.5,0c0,3.2,0,6,0,9.2c-3.1,0-6.1,0-9.5,0C313.1,104.6,313.1,101.8,313.1,98.3z"/>
<path class="st0" d="M65.5,254.4c0-3,0-5.8,0-9c3.2,0,6.1,0,9.5,0c0,2.9,0,5.7,0,9C72.1,254.4,69.1,254.4,65.5,254.4z"/>
<path class="st0" d="M228.4,105c3.1,0,5.9,0,9.1,0c0,3.1,0,6,0,9.4c-2.8,0-5.7,0-9.1,0C228.4,111.5,228.4,108.6,228.4,105z"/>
<path class="st0" d="M258.4,197.7c0,3.1,0,5.8,0,9.1c-3.1,0-6.1,0-9.5,0c0-3,0-5.9,0-9.1C252.2,197.7,255.1,197.7,258.4,197.7z"/>
<path class="st0" d="M389.4,356.5c0-3.1,0-5.8,0-9.2c3-0.1,6-0.3,9.4-0.4c0,3.3,0,6.2,0,9.7C396,356.5,393.1,356.5,389.4,356.5z"/>
<path class="st0" d="M307.8,180.5c0-3.2,0-6,0-9.3c3,0,5.9,0,9.3,0c0,3,0,6,0,9.3C314.1,180.5,311.4,180.5,307.8,180.5z"/>
<path class="st0" d="M145.7,389.2c3.4,0,6.2,0,9.4,0c0,3.2,0,6.1,0,9.5c-3.1,0-6,0-9.4,0C145.7,395.6,145.7,392.7,145.7,389.2z"/>
<path class="st0" d="M267.7,440c3.3,0,6,0,9.1,0c0,3.1,0,5.8,0,9.2c-2.9,0-5.8,0-9.1,0C267.7,446.3,267.7,443.4,267.7,440z"/>
</svg>
