<svg width="24" height="24" viewBox="0 0 24 24" fill="currentColor" xmlns="http://www.w3.org/2000/svg">
<path fill-rule="evenodd" clip-rule="evenodd" d="M6.63478 3.70707C7.04111 3.27232 7.59221 3.02809 8.16685 3.02809H13.9446C14.1362 3.02809 14.3199 3.1095 14.4553 3.25441L18.7886 7.89078C18.9241 8.03569 19.0002 8.23224 19.0002 8.43718V17.7099C19.0002 18.3247 18.7719 18.9144 18.3656 19.3491C17.9593 19.7838 17.4082 20.0281 16.8335 20.0281H8.16685C7.59221 20.0281 7.04111 19.7838 6.63478 19.3491C6.22845 18.9144 6.00018 18.3247 6.00018 17.7099V5.34627C6.00018 4.73145 6.22845 4.14181 6.63478 3.70707ZM8.16685 4.57354C7.9753 4.57354 7.7916 4.65495 7.65616 4.79987C7.52072 4.94478 7.44463 5.14133 7.44463 5.34627V17.7099C7.44463 17.9148 7.52072 18.1114 7.65616 18.2563C7.7916 18.4012 7.9753 18.4826 8.16685 18.4826H16.8335C17.0251 18.4826 17.2088 18.4012 17.3442 18.2563C17.4796 18.1114 17.5557 17.9148 17.5557 17.7099V8.75725L13.6455 4.57354H8.16685Z"/>
<path fill-rule="evenodd" clip-rule="evenodd" d="M13.9446 3.02809C14.3435 3.02809 14.6668 3.37405 14.6668 3.80081V7.66445H18.278C18.6768 7.66445 19.0002 8.01041 19.0002 8.43718C19.0002 8.86394 18.6768 9.2099 18.278 9.2099H13.9446C13.5458 9.2099 13.2224 8.86394 13.2224 8.43718V3.80081C13.2224 3.37405 13.5458 3.02809 13.9446 3.02809Z"/>
<path fill-rule="evenodd" clip-rule="evenodd" d="M5.34468 2.22833C4.93833 2.52951 4.85306 3.10308 5.15423 3.50944L18.3749 21.3474C18.676 21.7538 19.2496 21.839 19.6559 21.5379C20.0623 21.2367 20.1476 20.6631 19.8464 20.2568L6.62578 2.41878C6.3246 2.01242 5.75104 1.92716 5.34468 2.22833Z" />
</svg>
