<?xml version="1.0" encoding="utf-8"?>
<!-- Generator: Adobe Illustrator 25.2.0, SVG Export Plug-In . SVG Version: 6.00 Build 0)  -->
<svg version="1.1" id="noia" xmlns="http://www.w3.org/2000/svg" xmlns:xlink="http://www.w3.org/1999/xlink" x="0px" y="0px"
	 viewBox="0 0 500 500" style="enable-background:new 0 0 500 500;" xml:space="preserve">
<style type="text/css">
	.st0{fill-rule:evenodd;clip-rule:evenodd;fill:#050505;}
</style>
<path class="st0" d="M458.3,178.5c-25.8-14.8-57.6-14.8-83.3,0L250,250l125,71.5c25.8,14.8,57.6,14.8,83.3,0
	c25.8-14.8,41.7-42,41.7-71.5C500,220.5,484.1,193.2,458.3,178.5z"/>
<path class="st0" d="M41.7,178.5C15.9,193.2,0,220.5,0,250c0,29.5,15.9,56.8,41.7,71.5c25.8,14.8,57.6,14.8,83.3,0L250,250
	l-125-71.5C99.2,163.7,67.4,163.7,41.7,178.5z"/>
<path class="st0" d="M177.8,456.5c14.9,25.6,42.4,41.3,72.2,41.3c29.8,0,57.3-15.7,72.2-41.3c14.9-25.6,14.9-57,0-82.6L250,250
	l-72.2,123.9C163,399.4,163,430.9,177.8,456.5z"/>
<path class="st0" d="M322.2,43.5C307.3,18,279.8,2.2,250,2.2c-29.8,0-57.3,15.7-72.2,41.3c-14.9,25.6-14.9,57,0,82.6L250,250
	l72.2-123.9C337.1,100.6,337.1,69.1,322.2,43.5z"/>
</svg>
