<?xml version="1.0" encoding="iso-8859-1"?>
<!-- Generator: Adobe Illustrator 19.0.0, SVG Export Plug-In . SVG Version: 6.00 Build 0)  -->
<svg version="1.1" id="Layer_1" xmlns="http://www.w3.org/2000/svg" xmlns:xlink="http://www.w3.org/1999/xlink" x="0px" y="0px"
	 viewBox="0 0 2000 2000" style="enable-background:new 0 0 2000 2000;" xml:space="preserve">
<path d="M1254.595,1425.984c-131.161-103.859-259.282-205.31-388.489-307.622c0-9.207,0-18.834,0-32.648
	c213.69,168.841,425.035,335.829,640.61,506.159c-167.678,132.562-332.878,263.165-499.544,394.927
	c-187.174-147.982-373.465-295.265-559.763-442.554c0-350.414,0-699.821,0-1056.145c279.339,220.753,554.407,438.13,833.597,658.764
	c0-185.197,0-364.899,0-548.865c-88.728-70.058-180.462-142.49-273.837-216.217c-82.694,65.334-163.69,129.327-247.587,195.611
	c131.998,104.456,260.046,205.785,389.334,308.096c0,8.949,0,18.569,0,32.665c-213.699-168.828-425.078-335.822-641.23-506.588
	c166.983-132.123,331.961-262.661,499.268-395.041c188.231,148.689,375.336,296.488,560.612,442.843c0,352.46,0,701.896,0,1056.428
	c-278.582-220.141-553.743-437.579-833.454-658.613c0,186.105,0,365.81,0,548.874c88.827,70.068,179.821,141.846,272.872,215.246
	C1088.814,1556.756,1170.081,1492.651,1254.595,1425.984z"/>
</svg>
