<?xml version="1.0" encoding="utf-8"?>
<!-- Generator: Adobe Illustrator 23.0.4, SVG Export Plug-In . SVG Version: 6.00 Build 0)  -->
<svg version="1.1" id="Layer_1" xmlns="http://www.w3.org/2000/svg" xmlns:xlink="http://www.w3.org/1999/xlink" x="0px" y="0px"
	 viewBox="0 0 500 500" style="enable-background:new 0 0 500 500;" xml:space="preserve">
<style type="text/css">
	.st0{fill-rule:evenodd;clip-rule:evenodd;fill:#2BD0F4;}
</style>
<title>Fill 1 Copy</title>
<desc>Created with Sketch.</desc>
<g>
	<path id="Fill-1-Copy" class="st0" d="M421.8,391.6c0,19.5-15.5,35.4-34.4,35.4c-9.5,0-18.1-4-24.4-10.4
		c-6.2-6.4-10.1-15.3-10.1-25v-70.8c0-83.8-57-154.3-133.3-172.5c7.4-25.1,23.8-46.4,45.1-59.8c15.7-9.9,34.1-15.5,53.7-15.5
		c57,0,103.3,47.6,103.3,106.2V391.6z M318.4,2.2c-56.2,0-106.2,27.9-137.7,70.8h-0.1c-15.6,21.4-26.6,46.5-31.5,73.8
		C69.2,162,8.5,234.3,8.5,320.8v70.8c0,10.8,1.5,21.1,4.4,30.9c12.9,43.6,52.4,75.3,98.9,75.3c57,0,103.3-47.6,103.3-106.2v-70.8
		c0-19.5-15.5-35.4-34.4-35.4c-19,0-34.4,15.9-34.4,35.4v70.8c0,19.5-15.5,35.4-34.4,35.4c-9.5,0-18.1-4-24.4-10.4
		c-6.2-6.4-10.1-15.3-10.1-25v-70.8c0-46.2,28.8-85.5,68.9-100.1c10.8-3.9,22.4-6.1,34.4-6.1c12.1,0,23.7,2.2,34.4,6.1
		c40.1,14.6,68.9,54,68.9,100.1v70.8c0,10.8,1.5,21.1,4.4,30.9c12.9,43.6,52.4,75.3,98.9,75.3c57,0,103.3-47.6,103.3-106.2V179.2
		C490.6,81.6,413.4,2.2,318.4,2.2z"/>
</g>
</svg>
