<?xml version="1.0" encoding="utf-8"?>
<!-- Generator: Adobe Illustrator 25.2.0, SVG Export Plug-In . SVG Version: 6.00 Build 0)  -->
<svg version="1.1" id="nu" xmlns="http://www.w3.org/2000/svg" xmlns:xlink="http://www.w3.org/1999/xlink" x="0px" y="0px"
	 viewBox="0 0 500 500" style="enable-background:new 0 0 500 500;" xml:space="preserve">
<style type="text/css">
	.st0{fill:#1E65F3;}
</style>
<path class="st0" d="M376.5,95.8l-39.8,18.9c-0.2,0.1-0.4,0.2-0.5,0.4c-0.2,0.2-0.3,0.4-0.3,0.6c-0.1,0.2-0.1,0.4-0.1,0.7
	c0,0.2,0.1,0.4,0.2,0.6l60.6,127.7c22.5,47.5,16.5,83.6-17.7,99.9c-27.7,13.1-51.6,4-70.3-28.1l-71.7-151.3
	C207.6,103.9,168,87.7,120.9,110c-30.6,14.5-48.3,40.4-48,73.4c0,0.4-0.1,0.8-0.4,1.1c-0.2,0.3-0.6,0.5-1,0.6
	c-0.4,0.1-0.8,0-1.1-0.1c-0.4-0.2-0.6-0.5-0.8-0.8l-15.7-33c-0.1-0.2-0.2-0.4-0.4-0.5c-0.2-0.2-0.4-0.3-0.6-0.3
	c-0.2-0.1-0.4-0.1-0.7-0.1c-0.2,0-0.4,0.1-0.6,0.2L12,169.1c-0.4,0.2-0.7,0.5-0.9,1c-0.2,0.4-0.1,0.9,0.1,1.3l110,232
	c0.2,0.4,0.5,0.7,1,0.9c0.4,0.2,0.9,0.1,1.3-0.1l39.8-18.9c0.2-0.1,0.4-0.2,0.5-0.4c0.2-0.2,0.3-0.4,0.3-0.6
	c0.1-0.2,0.1-0.4,0.1-0.7c0-0.2-0.1-0.4-0.2-0.6l-58.9-124.2c-24-50.6-19.4-87.2,17.3-104.6c28.2-13.4,50.2-4.4,69.9,29.9
	c0,0,0,0.1,0.1,0.1l71,149.8c27.4,57.8,70,77.6,114.9,56.3c34.8-16.5,49.2-41.3,48.3-73.9c0-0.4,0.1-0.8,0.4-1.1
	c0.2-0.3,0.6-0.5,1-0.6c0.4-0.1,0.8,0,1.1,0.1c0.4,0.2,0.6,0.5,0.8,0.8l15.8,33.4c0.1,0.2,0.2,0.4,0.4,0.5c0.2,0.2,0.4,0.3,0.6,0.3
	c0.2,0.1,0.4,0.1,0.7,0.1c0.2,0,0.4-0.1,0.6-0.2l39.8-18.9c0.2-0.1,0.4-0.2,0.5-0.4c0.2-0.2,0.3-0.4,0.3-0.6
	c0.1-0.2,0.1-0.4,0.1-0.7c0-0.2-0.1-0.4-0.2-0.6l-110-232c-0.2-0.4-0.5-0.7-1-0.9S376.9,95.6,376.5,95.8z"/>
</svg>
