<?xml version="1.0" encoding="iso-8859-1"?>
<!-- Generator: Adobe Illustrator 19.0.0, SVG Export Plug-In . SVG Version: 6.00 Build 0)  -->
<svg version="1.1" id="Layer_1" xmlns="http://www.w3.org/2000/svg" xmlns:xlink="http://www.w3.org/1999/xlink" x="0px" y="0px"
	 viewBox="0 0 500 500" style="enable-background:new 0 0 500 500;" xml:space="preserve">
<linearGradient id="SVGID_1_" gradientUnits="userSpaceOnUse" x1="234.0608" y1="-1.6484" x2="232.1953" y2="425.5495">
	<stop  offset="0" style="stop-color:#71C7EB"/>
	<stop  offset="1" style="stop-color:#186D94"/>
</linearGradient>
<path style="fill:url(#SVGID_1_);" d="M465.447,132.779c-2.851-0.893-4.981-1.512-7.079-2.227
	c-14.558-4.961-29.115-9.772-44.611-11.136c-19.087-1.68-37.883,0.105-56.532,3.972c-62.245,12.909-118.935,38.653-170.664,75.241
	c-18.58,13.142-35.987,27.942-53.928,41.987c-0.944,0.739-1.871,1.502-2.819,2.236c-3.284,2.541-6.175,3.761-10.623,1.24
	c-8.371-4.744-19.11-2.632-25.999,4.025c-7.035,6.797-9.531,17.218-5.272,25.821c2.819,5.694,1.084,9.895-2.34,14.163
	c-5.583,6.96-11.318,13.802-16.758,20.871c-13.054,16.962-24.196,35.022-31.401,55.333c-0.787,2.219-2.629,4.064-4.382,6.681
	c-2.434-5.108-4.603-9.515-6.648-13.979c-12.837-28.029-21.529-57.231-24.398-88.006c-3.723-39.935,3.1-78.144,19.462-114.672
	c13.677-30.535,31.851-58.125,55.442-81.909c31.979-32.242,70.44-52.736,114.836-62.208c23.609-5.037,47.507-6.8,71.546-5.735
	c57.423,2.544,107.726,23.043,150.736,61.162c20.615,18.271,37.806,39.314,50.043,64.168
	C464.413,130.533,464.743,131.273,465.447,132.779z M341.759,179.636c-10.186-4.062-20.935-5.388-31.739-5.499
	c-20.603-0.212-40.467,4.503-60.029,10.42c-36.431,11.021-69.214,29.257-100.016,51.293c-5.73,4.099-11.328,8.385-16.956,12.626
	c-2.692,2.029-3.925,3.977-2.291,7.887c3.853,9.217,1.923,17.856-4.982,25.108c-6.416,6.738-16.494,8.608-25.362,5.041
	c-4.269-1.717-7.862-0.953-10.451,2.832C80.498,303.139,70.765,316.761,62,330.976c-8.342,13.528-13.804,28.274-13.96,45.029
	c0.111,1.829,0.08,4.172,0.419,6.459c3.013,20.288,16.055,31.279,34.555,37.276c19.61,6.357,39.392,4.177,58.621-0.509
	c80.823-19.697,147.453-61.829,198.364-128.023c14.877-19.343,25.911-40.481,28.951-65.175
	C371.475,205.515,360.92,187.276,341.759,179.636z"/>
<linearGradient id="SVGID_2_" gradientUnits="userSpaceOnUse" x1="159.4755" y1="352.9177" x2="497.1292" y2="352.9177">
	<stop  offset="0" style="stop-color:#71C7EB"/>
	<stop  offset="1" style="stop-color:#186D94"/>
</linearGradient>
<path style="fill:url(#SVGID_2_);" d="M159.475,477.492c9.985-2.676,18.924-4.901,27.764-7.468
	c45.195-13.121,87.344-32.935,126.905-58.303c35.066-22.486,67.96-47.751,97.48-77.251c28.305-28.286,50.738-60.633,67.237-97.108
	c3.644-8.057,7.662-15.945,11.518-23.906c0.284-0.587,0.654-1.132,1.655-2.846c1.362,6.065,2.874,11.042,3.557,16.13
	c3.968,29.57-0.102,58.472-8.051,86.922c-11.697,41.868-31.753,79.061-63.027,109.675c-40.031,39.186-87.929,62.43-143.464,69.692
	c-36.439,4.765-72.255,1.929-107.167-10.009C169.31,481.457,164.851,479.565,159.475,477.492z"/>
</svg>
