<?xml version="1.0" encoding="iso-8859-1"?>
<!-- Generator: Adobe Illustrator 19.0.0, SVG Export Plug-In . SVG Version: 6.00 Build 0)  -->
<svg version="1.1" id="Layer_1" xmlns="http://www.w3.org/2000/svg" xmlns:xlink="http://www.w3.org/1999/xlink" x="0px" y="0px"
	 viewBox="1500 0 500 500" style="enable-background:new 1500 0 500 500;" xml:space="preserve">
<path style="fill:#008FBB;" d="M1858.9,321.69l-141.416-93.677h-37.936c-13.112,0-23.742-10.63-23.742-23.742
	c0-13.112,10.63-23.742,23.742-23.742l0,0h52.119l141.416,93.677h61.419c1.806-15.345,1.806-30.848,0-46.193h-70.697
	c-13.112,0-23.742-10.63-23.742-23.742c0-13.112,10.63-23.742,23.742-23.742h58.065c-39.227-94.965-147.869-140.115-242.579-100.901
	c-51.589,21.163-90.853,64.502-106.837,117.923l116.127,76.903h36.645c13.112,0,23.742,10.63,23.742,23.742
	s-10.63,23.742-23.742,23.742h-51.353l-109.428-72.763v2.064c0.248,102.707,83.611,185.555,186.318,185.287
	c74.836-0.248,142.449-45.418,171.095-114.578l-62.967-0.248l0,0L1858.9,321.69z"/>
<g>
	<path style="opacity:0.3;fill:#008FBB;enable-background:new    ;" d="M1750,468.799c-29.53,0-58.186-5.787-85.172-17.201
		c-26.057-11.021-49.454-26.795-69.542-46.883c-20.089-20.088-35.862-43.486-46.883-69.542
		c-11.414-26.986-17.201-55.642-17.201-85.172s5.787-58.186,17.201-85.172c11.021-26.056,26.795-49.454,46.883-69.542
		c20.088-20.089,43.486-35.862,69.542-46.883c26.986-11.414,55.642-17.201,85.172-17.201s58.186,5.787,85.172,17.201
		c26.056,11.021,49.454,26.795,69.542,46.883c20.089,20.088,35.862,43.486,46.883,69.542c11.414,26.986,17.201,55.642,17.201,85.172
		s-5.787,58.186-17.201,85.172c-11.021,26.056-26.795,49.454-46.883,69.542c-20.088,20.089-43.486,35.862-69.542,46.883
		C1808.186,463.011,1779.53,468.799,1750,468.799z M1750,65.711c-24.886,0-49.019,4.87-71.728,14.475
		c-21.943,9.281-41.653,22.571-58.584,39.502c-16.93,16.93-30.221,36.641-39.502,58.584c-9.605,22.709-14.475,46.842-14.475,71.728
		s4.87,49.019,14.475,71.728c9.281,21.943,22.571,41.653,39.502,58.584c16.93,16.93,36.641,30.221,58.584,39.502
		c22.709,9.605,46.842,14.475,71.728,14.475s49.019-4.87,71.728-14.475c21.943-9.281,41.653-22.571,58.583-39.502
		s30.221-36.641,39.502-58.584c9.605-22.709,14.475-46.842,14.475-71.728s-4.87-49.019-14.475-71.728
		c-9.281-21.943-22.571-41.653-39.502-58.584c-16.93-16.93-36.641-30.221-58.583-39.502
		C1799.019,70.581,1774.886,65.711,1750,65.711z"/>
	<path style="opacity:0.1;fill:#008FBB;enable-background:new    ;" d="M1750,496.427c-33.261,0-65.535-6.518-95.925-19.371
		c-29.346-12.412-55.698-30.179-78.325-52.806s-40.393-48.979-52.806-78.325c-12.854-30.39-19.371-62.664-19.371-95.925
		s6.517-65.535,19.371-95.925c12.412-29.346,30.179-55.698,52.806-78.325s48.979-40.393,78.325-52.806
		c30.39-12.854,62.664-19.371,95.925-19.371s65.535,6.517,95.925,19.371c29.346,12.412,55.698,30.179,78.325,52.806
		s40.393,48.979,52.806,78.325c12.854,30.39,19.371,62.664,19.371,95.925s-6.517,65.535-19.371,95.925
		c-12.412,29.346-30.179,55.699-52.806,78.325s-48.979,40.393-78.325,52.806C1815.535,489.91,1783.261,496.427,1750,496.427z
		 M1750,31.92c-29.447,0-58.005,5.764-84.882,17.132c-25.967,10.983-49.291,26.709-69.323,46.742
		c-20.033,20.033-35.759,43.356-46.742,69.323c-11.368,26.877-17.132,55.435-17.132,84.882c0,29.447,5.764,58.005,17.132,84.882
		c10.983,25.967,26.709,49.291,46.742,69.324c20.033,20.033,43.356,35.759,69.323,46.742c26.877,11.368,55.435,17.132,84.882,17.132
		c29.447,0,58.005-5.764,84.882-17.132c25.967-10.983,49.291-26.709,69.323-46.742c20.033-20.033,35.759-43.357,46.742-69.324
		c11.368-26.877,17.132-55.435,17.132-84.882c0-29.447-5.764-58.005-17.132-84.882c-10.983-25.967-26.709-49.291-46.742-69.323
		c-20.032-20.033-43.356-35.759-69.323-46.742C1808.005,37.684,1779.447,31.92,1750,31.92z"/>
</g>
<circle style="fill:#008FBB;" cx="1751.291" cy="251.806" r="187.093"/>
<g transform="translate(-5-5)">
	<path style="fill:#FFFFFF;" d="M1617.196,256.141h30.967c7.126,0,12.903,5.777,12.903,12.903c0,7.126-5.777,12.903-12.903,12.903
		h-30.967c-7.126,0-12.903-5.777-12.903-12.903C1604.293,261.918,1610.07,256.141,1617.196,256.141 M1818.483,208.4h77.418
		c7.126,0,12.903,5.777,12.903,12.903c0,7.126-5.777,12.903-12.903,12.903h-77.418c-7.126,0-12.903-5.777-12.903-12.903
		C1805.579,214.177,1811.356,208.4,1818.483,208.4"/>
	<path style="fill:#FFFFFF;" d="M1882.998,249.948v-28.901c0.016-6.971,5.663-12.618,12.635-12.635h0.515
		c6.971,0.016,12.618,5.663,12.635,12.635v28.901c-0.016,6.971-5.663,12.618-12.635,12.635h-0.515
		C1888.416,262.592,1882.998,256.917,1882.998,249.948 M1655.905,210.981l69.676,46.451h23.225c7.126,0,12.903,5.777,12.903,12.903
		c0,7.126-5.777,12.903-12.903,12.903h-30.967c-4.645,0-8.775-2.324-11.096-6.441l0.776,1.291l-64.516-43.882h-25.807
		c-7.126,0-12.903-5.777-12.903-12.903c0-7.126,5.777-12.903,12.903-12.903h30.967c3.612,0,7.226,1.548,9.548,4.387
		 M1761.441,210.981l73.04,46.451h24.258c7.226-0.248,13.42,5.678,13.42,12.902c-0.248,7.226-6.193,13.16-13.42,12.902h-32.516
		c-4.645,0-9.29-2.324-11.614-6.441l0.775,1.291l-67.612-43.879h-26.837c-7.226,0.248-13.42-5.678-13.42-12.902
		c0.248-7.226,6.193-13.16,13.42-12.902h32.516c3.826-0.033,7.486,1.562,10.066,4.387"/>
</g>
</svg>
