<?xml version="1.0" encoding="iso-8859-1"?>
<!-- Generator: Adobe Illustrator 19.0.0, SVG Export Plug-In . SVG Version: 6.00 Build 0)  -->
<svg version="1.1" id="Layer_1" xmlns="http://www.w3.org/2000/svg" xmlns:xlink="http://www.w3.org/1999/xlink" x="0px" y="0px"
	 viewBox="1000 -1000 2500 2500" style="enable-background:new 1000 -1000 2500 2500;" xml:space="preserve">
<path style="fill:#1B457D;" d="M2509.471,323.782h-158.907l-125.5-245.028l-125.431,248.084l-66.674,137.376l-70.286,141.058
	h-155.156l421.367-845.095L2509.471,323.782z M3303.797-239.963L3063.839,67.642l88.482,114.943l329.065-422.548H3303.797z
	 M3063.839,297.598l239.957,307.674h177.59l-329.065-422.687L3063.839,297.598z M1733.619-117.588L1733.619-117.588
	c-78.543-80.477-186.91-124.83-299.339-122.514c-87.548-1.507-173.161,25.827-243.639,77.787l103.067,104.178
	c42.31-25.636,91.121-38.514,140.572-37.088c75.066-1.967,147.476,27.844,199.397,82.093
	c52.052,53.58,81.198,125.321,81.259,200.023c1.779,75.206-27.662,147.792-81.329,200.509c-2.709,2.848-5.556,5.626-8.404,8.404
	c-110.122,105.42-284.839,101.658-390.322-8.404c-52.058-53.57-81.183-125.324-81.19-200.022
	c-0.34-51.076,13.717-101.214,40.56-144.669L1090.63-61.47c-51.747,70.785-78.985,156.522-77.578,244.194
	c-0.049,3.448-0.054,6.896-0.017,10.344c2.478,230.131,191.044,414.681,421.176,412.204c118.208,0,218.219-37.157,299.409-122.236
	c79.024-79.857,122.879-187.969,121.819-300.312C1858.191,70.066,1814.077-38.683,1733.619-117.588z M2823.256-236.212h-181.201
	l331.2,420.673l-328.604,417.512l-68.506-137.759H2420.85l70.286,141.058h150.92h4.237h176.964l239.958-307.813l-87.038-112.999
	l87.038-112.999L2823.256-236.212z"/>
</svg>
