<?xml version="1.0" encoding="utf-8"?>
<!-- Generator: Adobe Illustrator 24.1.0, SVG Export Plug-In . SVG Version: 6.00 Build 0)  -->
<svg version="1.1" id="OCEAN" xmlns="http://www.w3.org/2000/svg" xmlns:xlink="http://www.w3.org/1999/xlink" x="0px" y="0px"
	 viewBox="0 0 500 500" style="enable-background:new 0 0 500 500;" xml:space="preserve">
<style type="text/css">
	.st0{fill-rule:evenodd;clip-rule:evenodd;fill:#141414;}
</style>
<path class="st0" d="M66.1,240.7c0,14.7-11.9,26.6-26.6,26.6c-14.7,0-26.6-11.9-26.6-26.6s11.9-26.6,26.6-26.6
	C54.2,214.1,66.1,226,66.1,240.7 M488.5,240.7c0,14.7-11.9,26.6-26.6,26.6c-14.7,0-26.6-11.9-26.6-26.6s11.9-26.6,26.6-26.6
	C476.6,214.1,488.5,226,488.5,240.7 M277.3,345.5c0,14.7-11.9,26.6-26.6,26.6c-14.7,0-26.6-11.9-26.6-26.6
	c0-14.7,11.9-26.6,26.6-26.6C265.4,319,277.3,330.9,277.3,345.5 M171,293.8c0,14.7-11.9,26.6-26.6,26.6c-14.7,0-26.6-11.9-26.6-26.6
	c0-14.7,11.9-26.6,26.6-26.6C159.1,267.2,171,279.1,171,293.8 M382.2,293.8c0,14.7-11.9,26.6-26.6,26.6c-14.7,0-26.6-11.9-26.6-26.6
	c0-14.7,11.9-26.6,26.6-26.6C370.3,267.2,382.2,279.1,382.2,293.8 M57.5,321.1c0,9.9-8,18-18,18c-9.9,0-18-8.1-18-18
	c0-9.9,8-18,18-18C49.4,303.2,57.5,311.2,57.5,321.1 M479.9,321.1c0,9.9-8,18-18,18c-9.9,0-18-8.1-18-18c0-9.9,8-18,18-18
	C471.8,303.2,479.9,311.2,479.9,321.1 M268.7,427.4c0,9.9-8,18-18,18c-9.9,0-18-8.1-18-18c0-9.9,8.1-17.9,18-17.9
	C260.6,409.5,268.7,417.5,268.7,427.4 M162.4,374.3c0,9.9-8,18-18,18c-9.9,0-18-8-18-18c0-9.9,8-18,18-18
	C154.3,356.3,162.4,364.4,162.4,374.3 M373.6,374.3c0,9.9-8.1,18-18,18c-9.9,0-18-8-18-18c0-9.9,8-18,18-18
	C365.5,356.3,373.6,364.4,373.6,374.3 M48.9,384.3c0,5.2-4.2,9.3-9.3,9.3c-5.2,0-9.3-4.2-9.3-9.3c0-5.2,4.2-9.3,9.3-9.3
	C44.7,375,48.9,379.2,48.9,384.3 M471.3,384.3c0,5.2-4.2,9.3-9.3,9.3c-5.2,0-9.3-4.2-9.3-9.3c0-5.2,4.2-9.3,9.3-9.3
	C467.1,375,471.3,379.2,471.3,384.3 M260.1,490.7c0,5.2-4.2,9.3-9.3,9.3c-5.2,0-9.3-4.2-9.3-9.3c0-5.2,4.2-9.3,9.3-9.3
	C255.9,481.3,260.1,485.5,260.1,490.7 M153.7,437.5c0,5.2-4.2,9.3-9.3,9.3c-5.2,0-9.3-4.2-9.3-9.3c0-5.2,4.2-9.3,9.3-9.3
	C149.6,428.2,153.7,432.3,153.7,437.5 M364.9,437.5c0,5.2-4.2,9.3-9.3,9.3c-5.2,0-9.3-4.2-9.3-9.3c0-5.2,4.2-9.3,9.3-9.3
	C360.8,428.2,364.9,432.3,364.9,437.5 M285.9,35.9c0,19.8-16.1,35.9-35.9,35.9c-19.8,0-35.9-16.1-35.9-35.9
	C214.1,16.1,230.2,0,250,0C269.8,0,285.9,16.1,285.9,35.9 M285.9,142.2c0,19.8-16.1,35.9-35.9,35.9c-19.8,0-35.9-16.1-35.9-35.9
	c0-19.8,16.1-35.9,35.9-35.9C269.8,106.3,285.9,122.4,285.9,142.2 M285.9,247.1c0,19.8-16.1,35.9-35.9,35.9
	c-19.8,0-35.9-16.1-35.9-35.9c0-19.8,16.1-35.9,35.9-35.9C269.8,211.2,285.9,227.3,285.9,247.1 M497.1,142.2
	c0,19.8-16.1,35.9-35.9,35.9c-19.8,0-35.9-16.1-35.9-35.9c0-19.8,16.1-35.9,35.9-35.9C481,106.3,497.1,122.4,497.1,142.2
	 M74.7,142.2c0,19.8-16.1,35.9-35.9,35.9S2.9,162.1,2.9,142.2c0-19.8,16.1-35.9,35.9-35.9S74.7,122.4,74.7,142.2 M181,89.1
	c0,19.8-16.1,35.9-35.9,35.9s-35.9-16.1-35.9-35.9c0-19.8,16.1-35.9,35.9-35.9S181,69.2,181,89.1 M181,194
	c0,19.8-16.1,35.9-35.9,35.9s-35.9-16.1-35.9-35.9c0-19.8,16.1-35.9,35.9-35.9S181,174.1,181,194 M392.2,89.1
	c0,19.8-16.1,35.9-35.9,35.9c-19.8,0-35.9-16.1-35.9-35.9c0-19.8,16.1-35.9,35.9-35.9C376.2,53.2,392.2,69.2,392.2,89.1 M392.2,194
	c0,19.8-16.1,35.9-35.9,35.9c-19.8,0-35.9-16.1-35.9-35.9c0-19.8,16.1-35.9,35.9-35.9C376.2,158,392.2,174.1,392.2,194"/>
</svg>
