<?xml version="1.0" encoding="iso-8859-1"?>
<!-- Generator: Adobe Illustrator 19.0.0, SVG Export Plug-In . SVG Version: 6.00 Build 0)  -->
<svg version="1.1" id="Layer_1" xmlns="http://www.w3.org/2000/svg" xmlns:xlink="http://www.w3.org/1999/xlink" x="0px" y="0px"
	 viewBox="0 0 500 500" style="enable-background:new 0 0 500 500;" xml:space="preserve">
<g>
	<path style="fill:#182227;" d="M250.065,494.119C114.081,494.173,4.851,382.881,5.951,247.975
		C7.039,114.469,116.557,4.41,252.892,5.896c131.62,1.435,242.093,108.373,241.16,246.361
		C493.156,384.655,385.617,493.92,250.065,494.119z M471.993,261.655c0.16-135.331-101.682-234.948-224.504-233.819
		C130.637,28.91,25.82,125.324,28.058,253.414c1.072,61.358,23.994,113.888,68.198,156.374
		c51.822,49.809,114.708,69.29,185.239,60.168c49.445-6.395,92.432-28.815,127.349-65.035
		C450.464,361.748,471.268,309.885,471.993,261.655z"/>
	<path style="fill:#FBFCFC;" d="M471.993,261.655c-0.725,48.23-21.528,100.093-63.149,143.266
		c-34.917,36.22-77.904,58.64-127.349,65.035c-70.531,9.122-133.417-10.36-185.239-60.168
		c-44.203-42.486-67.126-95.015-68.198-156.374C25.82,125.324,130.637,28.91,247.488,27.836
		C370.311,26.707,472.152,126.324,471.993,261.655z M249.889,41.462c-115.538-0.009-208.409,93.59-208.217,210.361
		c0.187,113.279,94.366,207.806,210.486,206.679c112.366-1.091,205.188-92.747,206.384-206.144
		C459.771,135.854,365.118,41.28,249.889,41.462z"/>
	<path style="fill:#FBFCFC;" d="M371.523,328.542c-16.85,26.428-40.156,44.957-69.129,56.588
		c-7.924,3.181-16.119,5.326-24.886,7.039c0-12.628,0-25.128,0-38.125c32.032-9.369,56.054-29.059,70.345-59.77
		c10.131-21.772,12.293-44.696,6.924-68.1c-8.882-38.718-47.829-78.674-77.171-78.967c0-12.987,0-25.996,0-39.407
		c11.088,1.723,21.691,5.24,31.887,9.981c55.978,26.033,88.059,79.462,85.295,141.478c-0.22,4.936,0.308,10.543-0.827,14.751
		c-2.254,8.363-4.073,17.018-7.533,25.085C385.239,301.872,377.148,322.3,371.523,328.542z"/>
	<path style="fill:#FBFCFC;" d="M113.213,297.288c-11.257-31.85-11.196-63.849,0.164-95.491
		c14.808-41.246,43.08-69.935,83.503-86.823c8.3-3.467,16.906-5.381,25.877-7.413c0,13.134,0,25.703,0,38.193
		c-53.653,15.804-78.679,61.116-80.147,100.573c-1.611,43.32,25.81,92.561,80.097,107.954c0,12.572,0,25.156,0,38.261
		c-43.279-9.681-76.389-32.666-98.516-70.972C120.798,317.424,114.613,303.019,113.213,297.288z"/>
	<path style="fill:#182227;" d="M249.889,41.462c115.229-0.182,209.882,94.392,208.654,210.896
		c-1.196,113.397-94.018,205.053-206.384,206.144c-116.12,1.127-210.299-93.4-210.486-206.679
		C41.479,135.053,134.351,41.454,249.889,41.462z M113.213,297.288c2.364,8.68,6.238,16.677,10.979,24.282
		c22.126,38.306,55.237,61.291,98.516,70.972c0-13.105,0-25.689,0-38.261c-54.287-15.394-81.708-64.634-80.097-107.954
		c1.468-39.457,26.494-84.769,80.147-100.573c0-12.489,0-25.059,0-38.193c-8.971,2.032-17.577,3.945-25.877,7.413
		c-40.423,16.888-68.695,45.577-83.503,86.823C102.017,233.438,101.956,265.438,113.213,297.288z M371.523,328.542
		c4.817-6.483,7.935-13.507,11.318-21.126c1.626-3.611,2.397-5.544,3.588-8.319c3.46-8.067,6.277-19.147,6.978-24.441
		c0.673-4.647,1.161-10.46,1.381-15.396c2.764-62.016-29.318-115.445-85.295-141.478c-10.195-4.741-20.798-8.258-31.887-9.981
		c0,13.41,0,26.42,0,39.407c29.341,0.293,68.289,40.248,77.171,78.967c5.369,23.405,3.207,46.328-6.924,68.1
		c-14.29,30.711-38.313,50.401-70.345,59.77c0,12.997,0,25.497,0,38.125c8.767-1.713,16.962-3.858,24.886-7.039
		C331.367,373.499,354.673,354.97,371.523,328.542z"/>
</g>
</svg>
