<?xml version="1.0" encoding="iso-8859-1"?>
<!-- Generator: Adobe Illustrator 19.0.0, SVG Export Plug-In . SVG Version: 6.00 Build 0)  -->
<svg version="1.1" id="Layer_1" xmlns="http://www.w3.org/2000/svg" xmlns:xlink="http://www.w3.org/1999/xlink" x="0px" y="0px"
	 viewBox="0 0 500 500" style="enable-background:new 0 0 500 500;" xml:space="preserve">
<path style="fill:#1CB5E0;" d="M338.755,396.449c1.197,1.707,2.235,2.5,2.24,3.299c0.077,11.418,0.154,22.842-0.168,34.252
	c-0.047,1.672-1.94,3.496-3.335,4.895c-11.959,12-23.814,24.112-36.053,35.822c-30.492,29.174-72.462,28.55-102.306-1.27
	C141.52,415.882,83.868,358.354,26.285,300.756C0.2,274.666-3.547,236.659,17.76,208.323c6.822-9.073,15.277-16.969,23.339-25.051
	C93.283,130.957,145.485,78.658,197.85,26.524c25.499-25.387,59.031-30.629,87.799-13.759c6.257,3.669,12.049,8.482,17.207,13.618
	c57.135,56.891,114.15,113.903,171.098,170.981c31.04,31.11,30.805,73.291-0.36,104.465c-25.4,25.407-50.707,50.907-76.302,76.116
	c-4.459,4.392-6.188,8.845-6.115,15.042c0.305,25.716,0.149,51.438,0.115,77.157c-0.013,10.197-5.055,16.033-13.597,15.927
	c-8.206-0.101-13.432-5.96-13.252-15.727c0.507-27.533,1.382-55.06,1.756-82.594c0.045-3.307-1.128-7.655-3.375-9.815
	c-32.508-31.248-65.295-62.205-98.024-93.224c-0.289-0.274-0.686-0.433-1.637-1.017c-13.752,3.563-27.128,2.143-38.057-8.728
	c-7.631-7.591-10.793-16.985-10.304-27.823c0.92-20.387,18.939-35.155,40.578-32.953c22.557,2.295,33.344,21.384,28.352,51.543
	c30.658,30.108,61.757,60.65,93.229,91.559c2.062-1.898,53.51-53.05,77.585-77.184c18.22-18.265,18.29-42.624,0.043-60.896
	c-57.84-57.918-115.719-115.798-173.638-173.637c-18.376-18.351-42.558-18.386-60.9-0.071
	c-57.922,57.836-115.797,115.72-173.641,173.635c-18.286,18.309-18.291,42.69-0.08,60.916
	c57.856,57.902,115.735,115.781,173.637,173.638c18.228,18.214,42.708,18.217,60.935,0.06
	C298.257,436.466,336.416,398.577,338.755,396.449z"/>
</svg>
