<?xml version="1.0" encoding="utf-8"?>
<!-- Generator: Adobe Illustrator 26.0.3, SVG Export Plug-In . SVG Version: 6.00 Build 0)  -->
<svg version="1.1" id="ohm" xmlns="http://www.w3.org/2000/svg" xmlns:xlink="http://www.w3.org/1999/xlink" x="0px" y="0px"
	 viewBox="0 0 500 500" style="enable-background:new 0 0 500 500;" xml:space="preserve">
<style type="text/css">
	.st0{fill:#81949F;}
	.st1{fill:#FFFFFB;}
</style>
<circle class="st0" cx="250" cy="250" r="250"/>
<path class="st1" d="M360.1,246.4c0-58.6-49.3-106.1-110.1-106.1s-110.1,47.5-110.1,106.1c0,33.5,16.1,63.4,41.3,82.8h-41.3v31.6
	h85.8v-10.9v-30.6c-31.2-10.1-53.7-38.9-53.7-73c0-42.4,34.9-76.8,77.9-76.8s77.9,34.4,77.9,76.8c0,34.1-22.5,62.9-53.7,73v30.6
	v10.9h85.8v-31.6h-41.3C344,309.8,360.1,279.9,360.1,246.4z"/>
</svg>
