<?xml version="1.0" encoding="iso-8859-1"?>
<!-- Generator: Adobe Illustrator 19.0.0, SVG Export Plug-In . SVG Version: 6.00 Build 0)  -->
<svg version="1.1" id="Layer_1" xmlns="http://www.w3.org/2000/svg" xmlns:xlink="http://www.w3.org/1999/xlink" x="0px" y="0px"
	 viewBox="0 0 500 500" style="enable-background:new 0 0 500 500;" xml:space="preserve">
<path style="fill:#008D9F;" d="M464.732,437.107c-33.549,19.388-67.339,38.915-101.86,58.865
	c-34.191-19.713-68.261-39.356-102.143-58.891c0-40.152,0-79.205,0-119.743c33.339-19.254,67.11-38.757,102.044-58.933
	c33.786,19.46,67.857,39.083,101.959,58.724C464.732,357.265,464.732,396.637,464.732,437.107z"/>
<path style="fill:#008D9F;" d="M36.551,180.499c0-39.882,0-78.946,0-119.632C70.003,41.542,104.038,21.881,138.452,2
	c34.291,19.787,68.085,39.287,101.778,58.729c0,40.13,0,79.202,0,119.892c-33.447,19.31-67.5,38.971-101.807,58.778
	C104.131,219.572,70.344,200.037,36.551,180.499z"/>
<path style="fill:#00F1D0;" d="M463.07,180.046c-33.116,19.155-66.005,38.178-100.214,57.965
	c-33.277-19.287-66.693-38.654-100.719-58.375c0-38.731,0-77.338,0-117.902c32.792-18.998,66.487-38.518,100.696-58.337
	c33.51,19.316,66.682,38.438,100.238,57.78C463.07,100.646,463.07,139.609,463.07,180.046z"/>
<path style="fill:#00F1D0;" d="M139.127,260.187c34.884,20.199,67.395,39.023,99.731,57.746c0,39.714,0,78.031,0,118.442
	c-32.784,18.932-66.437,38.365-100.318,57.931c-34.066-19.496-67.602-38.689-101.22-57.929c0-39.512,0-78.144,0-118.453
	C71.217,298.701,105.563,279.222,139.127,260.187z"/>
</svg>
