<?xml version="1.0" encoding="utf-8"?>
<!-- Generator: Adobe Illustrator 24.2.0, SVG Export Plug-In . SVG Version: 6.00 Build 0)  -->
<svg version="1.1" id="Layer_1" xmlns="http://www.w3.org/2000/svg" xmlns:xlink="http://www.w3.org/1999/xlink" x="0px" y="0px"
	 viewBox="0 0 500 500" style="enable-background:new 0 0 500 500;" xml:space="preserve">
<path d="M249.9,498.1c-136.4,0-247.3-111-247.3-247.3c0-136.4,111-247.3,247.3-247.3s247.3,111,247.3,247.3
	C497.2,387.2,386.3,498.1,249.9,498.1z M249.9,23.3c-125.4,0-227.5,102.1-227.5,227.5c0,125.4,102.1,227.5,227.5,227.5
	s227.5-102.1,227.5-227.5C477.4,125.4,375.3,23.3,249.9,23.3z"/>
<path d="M257.5,310h-19.7l-30.4-78.9c0,0,0,52.3,0,78.9c-6.9,0-19.6,0-19.6,0l-0.3-117.2h27.7l32.6,89.5l32.5-89.6h27l0.5,117.7
	c0,0-6.4,0-9.6,0c-3.3,0-6.5,0-10.5,0c0-26.5,0-78.4,0-78.4L257.5,310z"/>
<path d="M433.1,247c0,21.1,0,41.7,0,62.9c-6.6,0.8-13.1,0.2-20,0.4c-0.2-4.2-0.4-7.7-0.6-10.8c-4.9,3.4-9.4,7.5-14.8,9.8
	c-22.3,9.6-51.6,2.3-65.3-22.2c-8.3-15-10.3-31.1-7.6-47.9c1.7-10.4,5.2-20,11.4-28.4c8.9-12.1,21-18.6,35.9-20.6
	c12.6-1.8,24.7-0.5,36.2,5c14.8,7.1,22.5,19.3,24.8,35.8c-7.5,0-14.7,0-21.8,0c-0.3-0.6-0.7-1.1-0.9-1.7c-2.2-8.8-8-14.2-16.4-17
	c-18-6-39.9-0.5-46.4,24.1c-3.1,11.8-2.9,23.3,1.5,34.6c5.2,13.4,14.9,21.1,29.6,21.3c4.9,0.1,10.1,0,14.7-1.4
	c11-3.3,16.9-11.2,18.4-23.4c-5.6-0.1-27.6-0.2-33.6-0.2c0-6.9,0-13.4,0-20.2C396.6,247,414.5,247,433.1,247z"/>
<path d="M52.7,251.6c0.7-18.7,6.2-35.1,20.2-47.9c8.6-7.9,18.9-12,30.5-13.7c13.8-2,26.8,0,38.8,6.7c16.2,9,25,23.4,28.3,41.5
	c2.9,16,1.1,31.3-6.6,45.6c-8.4,15.7-21.6,25.1-39.2,28.3c-14.5,2.7-28.4,1.2-41.4-5.8c-14-7.5-23-19.4-27.1-34.6
	C54.5,265.1,53.9,258.3,52.7,251.6z M75.1,251c0.9,5.3,1.4,10.6,2.8,15.7c4.1,14.8,16.5,24.5,31.6,25.3c17.4,0.9,30.4-6.9,36.5-22
	c4.2-10.3,4.7-20.9,2-31.5c-3.7-14.3-12.3-24.3-27.2-27.3c-14.9-3-27.9,0.7-37.3,13.4C77.7,232.3,75.5,241.3,75.1,251z"/>
</svg>
