<?xml version="1.0" encoding="utf-8"?>
<!-- Generator: Adobe Illustrator 23.0.4, SVG Export Plug-In . SVG Version: 6.00 Build 0)  -->
<svg version="1.1" id="one" xmlns="http://www.w3.org/2000/svg" xmlns:xlink="http://www.w3.org/1999/xlink" x="0px" y="0px"
	 viewBox="0 0 500 500" style="enable-background:new 0 0 500 500;" xml:space="preserve">
<style type="text/css">
	.st0{fill:url(#Shape_1_);}
</style>
<linearGradient id="Shape_1_" gradientUnits="userSpaceOnUse" x1="-0.1454" y1="498.7394" x2="2.2574" y2="501.1487" gradientTransform="matrix(180 0 0 -179.5068 60 89993.9141)">
	<stop  offset="0" style="stop-color:#00AEE9"/>
	<stop  offset="1" style="stop-color:#69FABD"/>
</linearGradient>
<path id="Shape" class="st0" d="M390.8,3C331.9,3,284.1,50.6,284,109.5v118c-11,0.7-22.2,1.2-33.9,1.2c-11.7,0-22.9,0.5-33.9,1.1
	V109.5C215.2,51.2,167.7,4.4,109.4,4.4S3.5,51.2,2.6,109.5v282.1C3.5,449.9,51,496.7,109.4,496.7s105.9-46.8,106.8-105.1v-118
	c11-0.7,22.2-1.2,33.9-1.2c11.7,0,22.9-0.5,33.9-1.1v120.4c0.9,58.3,48.5,105.1,106.8,105.1s105.9-46.8,106.8-105.1V109.5
	C497.4,50.6,449.7,3,390.8,3z M109.4,46.7c34.7,0,62.9,28.1,63,62.8v125c-31.2,4.5-61.8,13.2-90.8,25.7c-12.6,5.5-24.4,12.6-35.2,21
	V109.5C46.5,74.8,74.7,46.7,109.4,46.7z M172.4,391.6c0,34.8-28.2,63-63,63s-63-28.2-63-63v-28.3c0-25,19.8-48.7,53-63.4
	c23.4-10.1,47.9-17.3,73.1-21.4V391.6z M390.8,454.4c-34.7,0-62.9-28.1-63-62.8v-125c31.2-4.5,61.8-13.2,90.8-25.7
	c12.6-5.5,24.4-12.6,35.2-21v171.7C453.6,426.3,425.5,454.4,390.8,454.4z M400.8,201c-23.4,10.1-47.9,17.3-73.1,21.4V109.5
	c0-34.8,28.2-63,63-63s63,28.2,63,63v28.3C453.8,162.7,434,186.4,400.8,201z"/>
</svg>
