<?xml version="1.0" encoding="utf-8"?>
<!-- Generator: Adobe Illustrator 23.0.3, SVG Export Plug-In . SVG Version: 6.00 Build 0)  -->
<svg version="1.1" id="Layer_1" xmlns="http://www.w3.org/2000/svg" xmlns:xlink="http://www.w3.org/1999/xlink" x="0px" y="0px"
	 viewBox="0 0 500 500" style="enable-background:new 0 0 500 500;" xml:space="preserve">
<style type="text/css">
	.st0{fill:#7D50D0;}
	.st1{fill:#FFFFFF;}
</style>
<g>
	<path class="st0" d="M250.4,497.7C113.7,497.4,3.3,386.8,3.5,250.2C3.7,113.4,114.6,3.2,251.8,3.5C387.7,3.7,498,114.9,497.7,251.3
		C497.4,387.7,386.7,497.9,250.4,497.7z M207.4,58.3c1.7,3.8,3,6.3,4.1,9c8.2,18.8,8.4,37-4.8,53.9c-3.9,5.1-7.5,10.5-11.8,15.2
		c-22.8,24.7-45.9,49-68.6,73.7c-21.3,23.2-35.7,50.1-38,81.9c-3.8,51.7,18.6,91.3,59.9,120.3c37.4,26.3,79.7,34.5,124.8,29.4
		c39.7-4.4,74.8-19.2,102.4-48.4c37.6-39.9,48.7-86,28.5-138.1c-8.7-22.5-24.2-40.3-40.3-57.7c-23.1-24.9-46-50-68.2-75.6
		c-13.5-15.6-14-33.9-6.5-52.6c1.4-3.4,2.9-6.7,4.7-11c-19.3-0.4-32.8,7.8-43,23.6C240.6,65.9,226.9,57.9,207.4,58.3z"/>
	<path class="st1" d="M207.4,58.3c19.5-0.4,33.2,7.7,43.2,23.6c10.2-15.8,23.7-24,43-23.6c-1.8,4.3-3.4,7.6-4.7,11
		c-7.5,18.7-7,37,6.5,52.6c22.2,25.7,45.1,50.8,68.2,75.6c16.2,17.4,31.6,35.2,40.3,57.7c20.1,52.1,9.1,98.3-28.5,138.1
		c-27.6,29.2-62.7,43.9-102.4,48.4c-45.1,5-87.4-3.1-124.8-29.4c-41.3-29.1-63.7-68.7-59.9-120.3c2.3-31.8,16.7-58.7,38-81.9
		c22.7-24.8,45.8-49.1,68.6-73.7c4.3-4.7,7.9-10.1,11.8-15.2c13.2-16.9,13-35.1,4.8-53.9C210.4,64.6,209.1,62,207.4,58.3z
		 M234.1,148.6c1.1,1.3,2,2.7,3.2,3.8c19.1,18.7,38.3,37.3,57.4,56c14.5,14.2,30.1,27.4,43.4,42.7c32.5,37.2,29,81-7.8,110.9
		c-42.7,34.7-116,35-158.8,0.4c-19-15.3-30.5-34.7-30.4-59.9c0.1-21.7,10.5-39.1,24.4-54.3c12.6-13.7,26.6-26.1,40.1-38.9
		c7.6-7.3,15.3-14.4,22-20.7c-5.4-6.1-10.3-11.7-15.2-17.3c-14.1,13.1-28.2,25.3-41.2,38.7c-12.5,12.9-25.2,26-35.5,40.6
		c-29.3,41.5-20.2,88.6,11.3,120.8c23.8,24.4,53.8,36.4,87,39.6c41.8,4,80.4-5.5,113.2-33c32.9-27.6,44.2-69.8,29.3-107.6
		c-7.5-19-19.7-35.1-34.1-49.3c-17.2-17-35.4-33.1-52.7-50.1c-13.6-13.3-26.6-27.1-40.1-40.9C244.9,135.8,239.6,142.1,234.1,148.6z
		 M201.4,251.6c-11.9,11.8-22.3,23.5-27.8,38.7c-5,13.7-2.8,26.5,6.3,38c7.6,9.6,17.3,16.5,28.7,21.1c17.5,7,35.8,9,54.3,7
		c20.1-2.1,38.9-8,53.7-23c9.3-9.5,15-20.6,12.8-34.1c-3.1-19.7-16.2-33.2-27.7-45.4c-6.5,5.4-12.3,10.2-18.2,15
		c3.4,3.8,6.3,6.8,8.8,10c14.2,18.2,11,34.8-9.6,45.4c-22.4,11.5-45.2,10.9-67.2-1.4c-17.2-9.6-20.5-25.3-9-41.3
		c3.2-4.5,7.1-8.5,11-13.1C212.2,263,207.1,257.7,201.4,251.6z M270,300c-2.7-16.1-5.3-31.5-7.8-46.5c13.5-13.2,15.3-27.1,5.1-37.4
		c-8.9-9-23.5-9.3-32.5-0.7c-8.8,8.5-12.5,24.3,4.5,38.2c-2.7,15.3-5.3,30.7-8.1,46.3C244.4,306.4,256.8,306.9,270,300z"/>
	<path class="st0" d="M234.1,148.6c5.5-6.5,10.9-12.8,15.7-18.5c13.5,13.8,26.5,27.7,40.1,40.9c17.4,16.9,35.5,33,52.7,50.1
		c14.4,14.2,26.6,30.3,34.1,49.3c14.9,37.8,3.6,80-29.3,107.6c-32.8,27.5-71.4,37-113.2,33c-33.2-3.2-63.3-15.2-87-39.6
		c-31.5-32.2-40.5-79.3-11.3-120.8c10.3-14.6,22.9-27.7,35.5-40.6c13-13.3,27.1-25.5,41.2-38.7c4.9,5.6,9.8,11.1,15.2,17.3
		c-6.7,6.3-14.4,13.4-22,20.7c-13.5,12.9-27.5,25.2-40.1,38.9c-14,15.2-24.3,32.6-24.4,54.3c-0.1,25.2,11.4,44.5,30.4,59.9
		c42.8,34.6,116.1,34.3,158.8-0.4c36.8-29.9,40.3-73.7,7.8-110.9c-13.3-15.2-28.9-28.5-43.4-42.7c-19.1-18.7-38.3-37.3-57.4-56
		C236.1,151.3,235.2,149.9,234.1,148.6z"/>
	<path class="st0" d="M201.4,251.6c5.8,6,10.9,11.4,16.1,16.8c-3.9,4.6-7.8,8.6-11,13.1c-11.5,16-8.2,31.7,9,41.3
		c22,12.3,44.7,12.9,67.2,1.4c20.6-10.6,23.8-27.2,9.6-45.4c-2.5-3.2-5.4-6.2-8.8-10c5.9-4.8,11.7-9.7,18.2-15
		c11.5,12.1,24.7,25.7,27.7,45.4c2.1,13.6-3.5,24.6-12.8,34.1c-14.8,15.1-33.6,20.9-53.7,23c-18.5,1.9-36.8,0-54.3-7
		c-11.4-4.6-21.1-11.4-28.7-21.1c-9.1-11.5-11.3-24.3-6.3-38C179,275.2,189.5,263.5,201.4,251.6z"/>
	<path class="st0" d="M270,300c-13.2,6.9-25.6,6.4-38.8-0.1c2.7-15.6,5.4-31,8.1-46.3c-17-13.9-13.3-29.8-4.5-38.2
		c9-8.7,23.7-8.4,32.5,0.7c10.1,10.3,8.4,24.2-5.1,37.4C264.7,268.5,267.3,283.9,270,300z"/>
</g>
</svg>
