<?xml version="1.0" encoding="iso-8859-1"?>
<!-- Generator: Adobe Illustrator 19.0.0, SVG Export Plug-In . SVG Version: 6.00 Build 0)  -->
<svg version="1.1" id="Layer_1" xmlns="http://www.w3.org/2000/svg" xmlns:xlink="http://www.w3.org/1999/xlink" x="0px" y="0px"
	 viewBox="-749 751 500 500" style="enable-background:new -749 751 500 500;" xml:space="preserve">
<path id="XMLID_4_" style="fill:#23A4BC;" d="M-737.913,774.929c131.131,130.953,261.565,261.21,392.538,392.005
	c-35.627,35.405-78.666,57.654-128.755,63.994c-118.155,14.956-218.282-48.466-254.874-161.792
	c-6.523-20.201-8.881-42.463-9.178-63.829c-1.043-75.028-0.351-150.08-0.289-225.122
	C-738.47,778.551-738.133,776.917-737.913,774.929z M-256.88,1222.554c0.015-75.04,0.292-150.082-0.124-225.119
	c-0.345-62.175-23.113-115.892-67.589-158.674c-72.17-69.421-156.984-83.936-250.23-50.474
	c-29.015,10.413-54.29,27.817-75.588,50.238c131.016,130.962,261.184,261.077,392.759,392.598
	C-257.297,1227.324-256.88,1224.939-256.88,1222.554z"/>
</svg>
