<svg width="49" height="48" viewBox="0 0 49 48" fill="none" xmlns="http://www.w3.org/2000/svg">
<g clip-path="url(#clip0_4239_20441)">
<path d="M24.5 48C37.7548 48 48.5 37.2548 48.5 24C48.5 10.7452 37.7548 0 24.5 0C11.2452 0 0.5 10.7452 0.5 24C0.5 37.2548 11.2452 48 24.5 48Z" fill="#2081E2"/>
<path d="M12.3409 24.8093L12.4446 24.6465L18.6875 14.8795C18.7083 14.8471 18.7374 14.821 18.7718 14.8038C18.8061 14.7866 18.8445 14.779 18.8828 14.7818C18.9212 14.7846 18.9581 14.7977 18.9896 14.8197C19.0211 14.8417 19.0461 14.8718 19.0619 14.9068C20.1049 17.2444 21.0049 20.1513 20.5835 21.9614C20.4035 22.7059 19.9106 23.7144 19.3557 24.6465C19.2837 24.7824 19.2049 24.9153 19.1214 25.0435C19.1019 25.0725 19.0754 25.0963 19.0444 25.1126C19.0134 25.129 18.9789 25.1374 18.9438 25.1371H12.5233C12.3505 25.1371 12.2497 24.9499 12.3409 24.8093Z" fill="white"/>
<path d="M40.1692 26.6228V28.1684C40.1692 28.2577 40.115 28.3364 40.0362 28.371C39.5529 28.5784 37.8983 29.3377 37.2105 30.2944C35.4546 32.7376 34.1135 36.232 31.115 36.232H18.6062C14.1729 36.232 10.5801 32.6272 10.5801 28.1785V28.036C10.5801 27.9174 10.6761 27.8214 10.7946 27.8214H17.7681C17.9058 27.8214 18.0071 27.9496 17.9946 28.0854C17.9455 28.5464 18.0321 29.0117 18.2438 29.4241C18.4465 29.8343 18.7599 30.1795 19.1486 30.4209C19.5372 30.6623 19.9856 30.7902 20.4431 30.7902H23.8953V28.095H20.4825C20.4425 28.0945 20.4035 28.0831 20.3695 28.0621C20.3355 28.0411 20.3079 28.0112 20.2897 27.9757C20.2714 27.9401 20.2632 27.9003 20.2658 27.8604C20.2685 27.8206 20.282 27.7822 20.3049 27.7494C20.3423 27.6928 20.3841 27.6342 20.4282 27.567C20.8735 26.9261 21.2884 26.2645 21.6714 25.5846C21.9844 25.0374 22.2878 24.4528 22.5316 23.8662C22.581 23.7601 22.6204 23.6516 22.6598 23.5456C22.7265 23.3584 22.7956 23.1832 22.845 23.008C22.894 22.8601 22.9338 22.7046 22.9732 22.5592C23.0889 22.0609 23.1383 21.5334 23.1383 20.9862C23.1383 20.7716 23.1287 20.547 23.1086 20.3324C23.099 20.0982 23.0692 19.864 23.0394 19.6297C23.0165 19.4196 22.9845 19.2106 22.9434 19.0033C22.892 18.6882 22.8264 18.3755 22.7466 18.0664L22.7193 17.9483C22.6598 17.7337 22.6108 17.5292 22.5417 17.3147C22.3508 16.6579 22.1319 16.0096 21.8855 15.3716C21.7991 15.1273 21.7007 14.8931 21.6023 14.6588C21.4569 14.306 21.3086 13.9859 21.1732 13.6825C21.1041 13.5443 21.045 13.4185 20.986 13.2904C20.9201 13.1462 20.8518 13.0031 20.781 12.8612C20.7316 12.7556 20.675 12.6568 20.6356 12.5579L20.2137 11.7788C20.2005 11.7553 20.1945 11.7283 20.1965 11.7014C20.1986 11.6744 20.2085 11.6487 20.2251 11.6273C20.2417 11.606 20.2642 11.5901 20.2899 11.5815C20.3155 11.5729 20.3431 11.5721 20.3692 11.5792L23.0078 12.2944H23.015C23.0198 12.2944 23.0226 12.2968 23.0246 12.2968L23.3726 12.3928L23.7546 12.5012L23.8953 12.5406V10.9724C23.8953 10.2155 24.502 9.60156 25.2513 9.60156C25.6262 9.60156 25.9665 9.7542 26.2108 10.0033C26.4546 10.2529 26.6078 10.5928 26.6078 10.9729V13.3004L26.8886 13.3792C26.9116 13.3864 26.9333 13.3972 26.9529 13.4113C27.022 13.4632 27.1209 13.5395 27.2462 13.6331C27.345 13.7118 27.4511 13.8083 27.5793 13.9067C27.8332 14.1116 28.1361 14.3752 28.4692 14.6785C28.558 14.7553 28.6444 14.834 28.7236 14.9128C29.2015 15.3526 29.658 15.815 30.0916 16.2985C30.2202 16.444 30.346 16.5918 30.4742 16.7473C30.6023 16.9052 30.7382 17.0603 30.8562 17.2158C31.0118 17.4232 31.1793 17.6377 31.3247 17.8619C31.3938 17.968 31.4726 18.0764 31.5393 18.1825C31.7265 18.4657 31.8916 18.7595 32.0495 19.0528C32.1162 19.1886 32.1854 19.3364 32.2444 19.4819C32.4196 19.874 32.5574 20.2739 32.6462 20.6728C32.6735 20.7592 32.6932 20.8528 32.7028 20.9368V20.9564C32.7326 21.075 32.7426 21.2008 32.7522 21.3289C32.7932 21.7401 32.7698 22.1551 32.6831 22.5592C32.645 22.7337 32.5964 22.9059 32.5377 23.0747C32.4786 23.2427 32.4196 23.4174 32.3428 23.5825C32.1942 23.9319 32.017 24.2684 31.8129 24.5886C31.7462 24.7067 31.6674 24.8324 31.5882 24.951C31.5018 25.0768 31.4135 25.1953 31.3343 25.311C31.2258 25.4588 31.1102 25.6144 30.9916 25.7526C30.886 25.898 30.777 26.0435 30.659 26.1716C30.5005 26.361 30.3378 26.5466 30.1708 26.7284C30.0719 26.8446 29.9658 26.9632 29.8574 27.0692C29.7518 27.1873 29.6428 27.2934 29.5444 27.3923C29.3793 27.5574 29.241 27.6856 29.1254 27.7916L28.8542 28.0408C28.8138 28.0758 28.7622 28.0951 28.7087 28.095H26.6073V30.7902H29.2506C29.8402 30.7899 30.4103 30.579 30.8582 30.1955C31.0137 30.0601 31.6914 29.4731 32.493 28.588C32.5199 28.558 32.5549 28.5367 32.5938 28.5265L39.8951 26.4155C39.9271 26.4065 39.9608 26.4051 39.9934 26.4113C40.0261 26.4175 40.0569 26.4312 40.0834 26.4513C40.1099 26.4713 40.1314 26.4973 40.1462 26.527C40.161 26.5568 40.1687 26.5896 40.1687 26.6228H40.1692Z" fill="white"/>
</g>
<defs>
<clipPath id="clip0_4239_20441">
<rect width="48" height="48" fill="white" transform="translate(0.5)"/>
</clipPath>
</defs>
</svg>
