<?xml version="1.0" encoding="iso-8859-1"?>
<!-- Generator: Adobe Illustrator 19.0.0, SVG Export Plug-In . SVG Version: 6.00 Build 0)  -->
<svg version="1.1" id="Layer_1" xmlns="http://www.w3.org/2000/svg" xmlns:xlink="http://www.w3.org/1999/xlink" x="0px" y="0px"
	 viewBox="0 0 500 500" style="enable-background:new 0 0 500 500;" xml:space="preserve">
<path style="fill:#4D93DF;" d="M327.27,152.244c37.754-26.358,58.33-61.49,58.048-107.982
	c85.973,50.306,144.71,179.235,90.82,303.887c-54.194,125.356-204.665,182.722-328.217,125.388
	C21.012,414.645-32.934,264.271,28.228,140.806C92.478,11.109,240.961-25.495,346.961,22.719
	c1.525,29.002-8.415,54.513-26.096,77.545c-1.113,1.45-2.398,2.769-3.612,4.14c-14.321,16.182-28.028,26.417-53.951,22.771
	c-51.673-7.267-93.576,14.858-119.779,60.406c-26.185,45.517-23.082,91.562,7.438,134.284
	c32.419,45.38,91.352,62.136,142.936,42.393c52.06-19.924,84.719-72.192,79.051-127.74c-3.083-30.221-16.122-56-37.94-77.235
	C332.713,157.05,330.271,154.967,327.27,152.244z"/>
</svg>
