<?xml version="1.0" encoding="utf-8"?>
<!-- Generator: Adobe Illustrator 24.1.0, SVG Export Plug-In . SVG Version: 6.00 Build 0)  -->
<svg version="1.1" id="ORBS" xmlns="http://www.w3.org/2000/svg" xmlns:xlink="http://www.w3.org/1999/xlink" x="0px" y="0px"
	 viewBox="0 0 500 500" style="enable-background:new 0 0 500 500;" xml:space="preserve">
<style type="text/css">
	.st0{fill-rule:evenodd;clip-rule:evenodd;fill:#404971;}
	.st1{fill-rule:evenodd;clip-rule:evenodd;fill:#546096;}
	.st2{fill-rule:evenodd;clip-rule:evenodd;fill:#15F9FF;}
</style>
<path id="Fill-1" class="st0" d="M141.8,320.9c-1.5,5.3-6.2,6.6-10.4,2.8L48,251.2c-4.3-3.7-3.3-8.4,2.1-10.5l116.9-43.6
	c5.4-2,8.7,0.6,7.2,5.9L141.8,320.9z"/>
<path id="Fill-3" class="st1" d="M77.5,388.6c-4.3,3.6-8.7,2.1-9.7-3.3L45.6,266.3c-1-5.4,1.6-6.8,5.7-3l77.2,69.7
	c4.2,3.8,4,9.8-0.3,13.4L77.5,388.6z"/>
<path id="Fill-5" class="st1" d="M172.5,169.5c3.9,4.5,2.5,9.9-3,12.1L52.3,228.1c-5.5,2.2-8.3-0.5-6.2-6.1L94.2,93.5
	c2.1-5.5,6.9-6.4,10.8-1.9L172.5,169.5z"/>
<path id="Fill-7" class="st1" d="M55.8,375c1.1,5.7-0.7,6.4-4.1,1.5L4.6,308c-3.3-4.8-3.1-12.6,0.6-17.2l21.1-26.6
	c3.7-4.6,7.6-3.8,8.7,1.9L55.8,375z"/>
<path id="Fill-9" class="st1" d="M36,214c-2,5.4-5.2,5.4-7-0.1l-15.3-45.8c-1.8-5.5,0.2-13.2,4.5-17.1l54.5-49.3
	c4.3-3.9,6.2-2.6,4.2,2.8L36,214z"/>
<path id="Fill-11" class="st1" d="M23.1,222.3c1.6,5.1,0.4,12.7-2.6,17L6.9,258.5c-3,4.3-5.1,3.4-4.6-1.9l6.5-66.7
	c0.5-5.3,2.3-5.5,3.8-0.4L23.1,222.3z"/>
<path id="Fill-13" class="st1" d="M87.7,67.9c1.9,2,0,6.4-4.2,9.8L59.8,97.2c-4.2,3.4-4.9,2.9-1.5-1.2l19.9-24.2
	C81.5,67.7,85.8,66,87.7,67.9"/>
<path id="Fill-15" class="st1" d="M229.4,451.4c-2.9,5-8,5.2-11.2,0.4l-63.5-92.2c-3.3-4.7-1.2-9.1,4.5-9.7l127.7-13.1
	c5.7-0.6,8.1,3,5.1,8L229.4,451.4z"/>
<path id="Fill-17" class="st1" d="M205.4,449.4c3.2,4.7,1.5,7.1-4,5.2l-119-40.2c-5.4-1.8-6.3-6.4-2-10.1l51-43.7
	c4.3-3.7,10.6-2.9,13.8,1.8L205.4,449.4z"/>
<path id="Fill-19" class="st2" d="M291.2,314.2c3.7,4.4,2.1,8.4-3.5,9l-126.6,13.4c-5.6,0.6-9.1-3.5-7.6-9.1l31.7-126.1
	c1.4-5.6,5.6-6.6,9.2-2.2L291.2,314.2z"/>
<path id="Fill-21" class="st1" d="M388.2,416.8c3.7,4.4,2.2,9-3.3,10.2l-128.7,28c-5.5,1.2-7.7-1.9-4.9-7L312,340.8
	c2.8-5,8.2-5.5,11.8-1.1L388.2,416.8z"/>
<path id="Fill-23" class="st1" d="M175.9,486c-4.8,2.8-12.1,1.9-16.2-2.1l-57.9-56.4c-4.1-4-3.2-5.7,2-3.7l99.2,37.2
	c5.2,1.9,5.5,5.9,0.7,8.7L175.9,486z"/>
<path id="Fill-25" class="st1" d="M322.4,495c-4.3,3.6-11.9,4.5-16.8,1.9l-41.2-21.5c-5-2.6-4.6-5.7,0.9-6.9l109.4-23.7
	c5.4-1.2,6.4,0.8,2.1,4.4L322.4,495z"/>
<path id="Fill-27" class="st1" d="M201.2,495.3c-6.1-0.2-6.7-2.5-1.3-5.1l24.1-11.4c5.4-2.5,14.2-2.6,19.6-0.2l35.2,15.8
	c5.4,2.4,4.9,4.2-1.2,4L201.2,495.3z"/>
<path id="Fill-29" class="st1" d="M411.1,435c2,2.6-0.7,7.3-6.1,10.5l-31.9,18.7c-5.4,3.2-5.9,2.3-1.2-2l26.9-24.1
	C403.5,433.8,409.1,432.4,411.1,435"/>
<path id="Fill-31" class="st0" d="M333.2,303.6c-5.4,2-8.7-0.6-7.2-5.9l32.5-117.8c1.5-5.3,6.2-6.6,10.5-2.8l83.4,72.5
	c4.3,3.7,3.3,8.4-2.1,10.5L333.2,303.6z"/>
<path id="Fill-33" class="st1" d="M454.7,234.5c1,5.4-1.6,6.8-5.7,3l-77.2-69.7c-4.2-3.8-4-9.8,0.3-13.4l50.7-42.2
	c4.3-3.6,8.7-2.1,9.7,3.3L454.7,234.5z"/>
<path id="Fill-35" class="st1" d="M406.1,407.4c-2.1,5.5-6.9,6.4-10.8,1.9l-67.5-77.9c-3.9-4.5-2.5-9.9,3-12.1L448,272.7
	c5.5-2.2,8.3,0.5,6.2,6L406.1,407.4z"/>
<path id="Fill-37" class="st1" d="M495.7,192.8c3.3,4.9,3.1,12.6-0.6,17.2L474,236.6c-3.7,4.6-7.6,3.8-8.7-1.9l-20.9-109
	c-1.1-5.7,0.7-6.4,4.1-1.5L495.7,192.8z"/>
<path id="Fill-39" class="st1" d="M486.5,332.7c1.8,5.5-0.2,13.2-4.5,17.1l-54.5,49.3c-4.3,3.9-6.2,2.6-4.2-2.8l40.8-109.5
	c2-5.4,5.2-5.4,7,0.1L486.5,332.7z"/>
<path id="Fill-41" class="st1" d="M491.4,311c-0.5,5.3-2.3,5.5-3.9,0.4l-10.4-32.9c-1.6-5.1-0.4-12.7,2.6-17l13.6-19.2
	c3-4.3,5.1-3.4,4.6,1.9L491.4,311z"/>
<path id="Fill-43" class="st1" d="M422,429c-3.4,4.1-7.7,5.8-9.5,3.9c-1.9-2,0-6.4,4.2-9.8l23.8-19.5c4.2-3.4,4.9-2.9,1.5,1.2
	L422,429z"/>
<path id="Fill-45" class="st0" d="M334.8,141.2c3.3,4.7,1.2,9.1-4.5,9.7l-127.7,13.1c-5.7,0.6-8-3-5.1-8L260,49.4
	c2.9-5,8-5.2,11.2-0.4L334.8,141.2z"/>
<path id="Fill-47" class="st1" d="M368.8,140.2c-4.3,3.7-10.6,2.9-13.8-1.8l-60.1-87.1c-3.3-4.7-1.5-7.1,4-5.2l119,40.2
	c5.4,1.8,6.3,6.4,2,10.1L368.8,140.2z"/>
<path id="Fill-49" class="st1" d="M315.1,299.4c-1.4,5.6-5.6,6.6-9.2,2.2l-96.9-115c-3.7-4.4-2.1-8.4,3.5-9l126.6-13.4
	c5.6-0.6,9.1,3.5,7.6,9.1L315.1,299.4z"/>
<path id="Fill-51" class="st1" d="M188.2,160c-2.8,5-8.2,5.5-11.9,1.1L112,84c-3.7-4.4-2.2-9,3.3-10.2l128.7-28
	c5.5-1.2,7.7,1.9,4.9,7L188.2,160z"/>
<path id="Fill-53" class="st1" d="M297.3,39.9c-5.2-1.9-5.5-5.9-0.6-8.7l27.6-16.4c4.8-2.8,12.1-1.9,16.2,2.1l57.9,56.4
	c4.1,4,3.2,5.7-2,3.7L297.3,39.9z"/>
<path id="Fill-55" class="st1" d="M125.6,56c-5.4,1.2-6.4-0.8-2.1-4.4l54.4-45.8c4.3-3.6,11.9-4.5,16.8-1.9l41.2,21.5
	c5,2.6,4.6,5.7-0.9,6.8L125.6,56z"/>
<path id="Fill-57" class="st1" d="M276.3,22c-5.4,2.5-14.2,2.6-19.6,0.2L221.5,6.4c-5.4-2.4-4.9-4.2,1.2-4L299,5.6
	c6.1,0.2,6.7,2.5,1.3,5.1L276.3,22z"/>
<path id="Fill-59" class="st1" d="M101.4,62.8c-4.7,4.2-10.3,5.6-12.3,3c-2-2.6,0.7-7.3,6.1-10.5l31.9-18.7c5.4-3.2,5.9-2.3,1.2,2
	L101.4,62.8z"/>
<path id="Fill-61" class="st1" d="M67.7,412.9c2-1.9,6.4,0,9.8,4.2L97,440.8c3.4,4.2,2.9,4.9-1.2,1.5l-24.2-19.9
	C67.5,419,65.7,414.7,67.7,412.9"/>
<path id="Fill-63" class="st1" d="M434.7,89.4c2.6-2,7.3,0.7,10.5,6.1l18.7,31.9c3.2,5.4,2.3,5.9-2,1.2l-24.1-26.9
	C433.4,96.9,432.1,91.4,434.7,89.4"/>
<path id="Fill-65" class="st1" d="M428.7,78.4c4.1,3.4,5.8,7.7,3.9,9.5c-2,1.9-6.4,0-9.8-4.2L403.3,60c-3.4-4.2-2.9-4.9,1.2-1.5
	L428.7,78.4z"/>
<path id="Fill-67" class="st1" d="M51.8,399.2c4.2,4.7,5.6,10.3,3,12.3c-2.6,2-7.3-0.7-10.4-6.1l-18.7-31.9c-3.2-5.4-2.3-5.9,2-1.2
	L51.8,399.2z"/>
</svg>
