<?xml version="1.0" encoding="utf-8"?>
<!-- Generator: Adobe Illustrator 26.0.3, SVG Export Plug-In . SVG Version: 6.00 Build 0)  -->
<svg version="1.1" id="orc" xmlns="http://www.w3.org/2000/svg" xmlns:xlink="http://www.w3.org/1999/xlink" x="0px" y="0px"
	 viewBox="0 0 500 500" style="enable-background:new 0 0 500 500;" xml:space="preserve">
<style type="text/css">
	.st0{fill-rule:evenodd;clip-rule:evenodd;fill:url(#SVGID_1_);}
</style>
<linearGradient id="SVGID_1_" gradientUnits="userSpaceOnUse" x1="5.041449e-02" y1="249.4804" x2="499" y2="249.4804">
	<stop  offset="0" style="stop-color:#006BB8"/>
	<stop  offset="1" style="stop-color:#00B288"/>
</linearGradient>
<path class="st0" d="M249.5,335.9c47.7,0,86.4-38.7,86.4-86.4s-38.7-86.4-86.4-86.4s-86.4,38.7-86.4,86.4S201.8,335.9,249.5,335.9z
	 M249.5,99.8c82.7,0,149.7,67,149.7,149.7s-67,149.7-149.7,149.7s-149.7-67-149.7-149.7S166.9,99.8,249.5,99.8z M499,244.2v0.3
	c0,11.9-9.6,21.6-21.5,21.6l0,0c-11.9,0-21.6-9.7-21.5-21.6c0,0,0,0,0,0v-0.3c-0.1-111-89.8-201-200.5-201h-0.1v0l-0.9,0
	c-11.9,0-21.6-9.7-21.5-21.6c0-11.9,9.6-21.6,21.5-21.6c0.3,0,0.6,0,0.9,0v0h0.1C389.9,0,499,109.3,499,244.2z M465.7,288.3
	c12.3,0,22.2,9.9,22.2,22.2c0,12.3-9.9,22.2-22.2,22.2s-22.2-9.9-22.2-22.2S453.5,288.3,465.7,288.3z M244.6,455.7
	c11.9,0,21.6,9.7,21.5,21.6v0c0,11.9-9.6,21.6-21.5,21.6c-0.3,0-0.6,0-0.9,0v0h3.5c-19.7,0.3-39.3-1.8-58.5-6.2
	C80.7,467.7,0.1,370.7,0.1,254.8v-0.3c0-11.9,9.6-21.6,21.5-21.6c0,0,0,0,0,0c11.9,0,21.6,9.7,21.6,21.6c0,0.1,0,0.1,0,0.2h0.1v0.1
	c0,96.2,67.4,176.6,157.5,196.4c13.8,3,28.2,4.6,42.9,4.6h0.1v0L244.6,455.7L244.6,455.7z M33.3,210.7c-12.3,0-22.2-9.9-22.2-22.2
	c0-12.3,9.9-22.2,22.2-22.2s22.2,9.9,22.2,22.2C55.5,200.7,45.6,210.7,33.3,210.7z"/>
</svg>
