<?xml version="1.0" encoding="utf-8"?>
<!-- Generator: Adobe Illustrator 25.2.0, SVG Export Plug-In . SVG Version: 6.00 Build 0)  -->
<svg version="1.1" id="orn" xmlns="http://www.w3.org/2000/svg" xmlns:xlink="http://www.w3.org/1999/xlink" x="0px" y="0px"
	 viewBox="0 0 500 500" style="enable-background:new 0 0 500 500;" xml:space="preserve">
<style type="text/css">
	.st0{fill:url(#SVGID_1_);}
	.st1{fill:url(#SVGID_2_);}
	.st2{fill:url(#SVGID_3_);}
	.st3{fill:url(#SVGID_4_);}
	.st4{fill:url(#SVGID_5_);}
	.st5{fill:url(#SVGID_6_);}
</style>
<linearGradient id="SVGID_1_" gradientUnits="userSpaceOnUse" x1="66.4763" y1="210.1987" x2="416.1012" y2="210.1987">
	<stop  offset="0" style="stop-color:#4B83BC"/>
	<stop  offset="1" style="stop-color:#70C3D5"/>
</linearGradient>
<path class="st0" d="M416.1,251c0,37-9.7,71.7-26.8,101.7c-0.3,0.6-0.7,1.2-1.1,1.8c-7.7,12.7-21.7,21.2-37.6,21.2
	c-24.3,0-44-19.7-44-44c0-7.4,1.9-14.5,5.1-20.6c0,0,0,0,0,0c0.4-0.7,0.8-1.4,1.2-2.2c0-0.1,0.1-0.1,0.1-0.1
	c0.4-0.8,0.8-1.5,1.3-2.3c12.7-23.2,19.9-49.9,19.9-78.2C334.3,138.1,261.2,65,171,65c-39.8,0-76.2,14.2-104.5,37.8
	c37.1-35.9,87.7-58.1,143.4-58.1C323.8,44.7,416.1,137.1,416.1,251z"/>
<linearGradient id="SVGID_2_" gradientUnits="userSpaceOnUse" x1="8.0646" y1="228.2787" x2="331.0991" y2="228.2787">
	<stop  offset="0" style="stop-color:#A1D5D9"/>
	<stop  offset="1" style="stop-color:#3866B0"/>
</linearGradient>
<path class="st1" d="M314.4,306.5c8.9-16.8,13.9-35.9,13.9-56.2c0-66.3-53.7-120.1-120.1-120.1c-66.3,0-120.1,53.7-120.1,120.1
	c0,66.3,53.8,120.1,120.1,120.1c42.2,0,79.4-21.8,100.8-54.7c-28.9,45.7-80,76-138,76c-90.2,0-163.3-73.1-163.3-163.3
	c0-10,0.9-19.9,2.6-29.4c9.7-37.1,29.4-70.2,56.1-96.1C94.8,79.2,131.2,65,171,65c90.2,0,163.3,73.1,163.3,163.3
	C334.3,256.6,327.1,283.2,314.4,306.5z"/>
<linearGradient id="SVGID_3_" gradientUnits="userSpaceOnUse" x1="384.9623" y1="112.8432" x2="432.7538" y2="43.8111">
	<stop  offset="0" style="stop-color:#59388D"/>
	<stop  offset="1" style="stop-color:#E06EA6"/>
</linearGradient>
<circle class="st2" cx="413" cy="72.3" r="40.7"/>
<linearGradient id="SVGID_4_" gradientUnits="userSpaceOnUse" x1="399.3403" y1="270.5761" x2="455.0969" y2="138.7072">
	<stop  offset="0" style="stop-color:#FFE080"/>
	<stop  offset="1" style="stop-color:#FF753E"/>
</linearGradient>
<path class="st3" d="M494.1,183.6c0-23.6-19.2-42.8-42.8-42.8c-5.9,0-11.5,1.2-16.6,3.3l0,0c-20.8,7.1-40.2,18.9-58.2,34.7
	l18.1,121.3c13.8-31.5,35.1-62.5,71.4-76.3c0.1,0,0.2-0.1,0.2-0.1c0.2-0.1,0.5-0.2,0.7-0.3l0,0C482.8,217.2,494.1,201.7,494.1,183.6
	z"/>
<linearGradient id="SVGID_5_" gradientUnits="userSpaceOnUse" x1="305.4267" y1="260.8583" x2="428.053" y2="260.8583">
	<stop  offset="0" style="stop-color:#59388D"/>
	<stop  offset="1" style="stop-color:#E06EA6"/>
</linearGradient>
<path class="st4" d="M428.1,213.1c0-23.6-19.2-42.8-42.8-42.8c-14.4,0-27.2,7.1-34.9,18.1l0,0c0,0,0,0,0,0c-0.7,1-1.4,2.1-2.1,3.2
	c-26.7,41.9-42.1,86.5-42.8,134.8l84.3,25.1c6.9-9.6,10.3-23.2,10.4-34.1c0.3-39.8,4.1-55.7,18.8-77.9
	C424.7,232.2,428.1,223,428.1,213.1z"/>
<linearGradient id="SVGID_6_" gradientUnits="userSpaceOnUse" x1="3.7028" y1="328.0025" x2="394.6109" y2="328.0025">
	<stop  offset="0.155" style="stop-color:#529FC1"/>
	<stop  offset="0.7646" style="stop-color:#FF7714"/>
</linearGradient>
<path class="st5" d="M350.7,287.7c-15.9,0-29.8,8.4-37.5,21c0,0-0.1,0.1-0.1,0.1c-0.4,0.7-0.8,1.4-1.2,2.2c0,0,0,0,0,0
	c-0.9,1.5-1.8,3-2.8,4.5c-28.9,45.7-80,76-138,76c-90.2,0-163.3-73.1-163.3-163.3c0-10,0.9-19.9,2.6-29.4C6,215.5,3.7,233,3.7,251
	c0,113.9,92.3,206.2,206.2,206.2c76.1,0,142.6-41.3,178.3-102.7c0.4-0.6,0.7-1.2,1.1-1.8c3.4-6.2,5.3-13.4,5.3-21
	C394.6,307.4,374.9,287.7,350.7,287.7z"/>
</svg>
