<?xml version="1.0" encoding="utf-8"?>
<!-- Generator: Adobe Illustrator 26.0.3, SVG Export Plug-In . SVG Version: 6.00 Build 0)  -->
<svg version="1.1" id="osmo" xmlns="http://www.w3.org/2000/svg" xmlns:xlink="http://www.w3.org/1999/xlink" x="0px" y="0px"
	 viewBox="0 0 500 500" style="enable-background:new 0 0 500 500;" xml:space="preserve">
<style type="text/css">
	.st0{fill:#5E12A0;}
	.st1{fill:url(#SVGID_1_);}
	.st2{fill:url(#SVGID_00000034059715567646130550000017370851040138725285_);}
	.st3{opacity:0.6;fill:#A98698;enable-background:new    ;}
	.st4{opacity:0.6;fill:url(#SVGID_00000009563507004093579290000007852565703977182130_);enable-background:new    ;}
	.st5{opacity:0.6;fill:url(#SVGID_00000000219855062028823270000005442627662863279506_);enable-background:new    ;}
	.st6{fill:url(#SVGID_00000148626369060980781790000014924387803913407887_);}
	.st7{opacity:0.6;}
	.st8{opacity:0.6;fill:url(#SVGID_00000023967887151891174750000016195974238620125602_);enable-background:new    ;}
	.st9{opacity:0.7;}
	.st10{opacity:0.7;fill:url(#SVGID_00000046340055859330761120000010225654052713463947_);enable-background:new    ;}
	.st11{fill:url(#SVGID_00000047025020051567694600000006025307181825183675_);}
	.st12{fill:#FFFFFF;}
	.st13{opacity:0.6;fill:url(#SVGID_00000025429273521058645380000005975187692671664538_);enable-background:new    ;}
	.st14{opacity:0.2;fill:#FFFFFF;enable-background:new    ;}
	.st15{opacity:0.4;}
	.st16{opacity:0.6;fill:url(#SVGID_00000005966443507529511730000005985192306014618517_);enable-background:new    ;}
	.st17{opacity:0.3;fill:#FFFFFF;enable-background:new    ;}
	.st18{opacity:0.6;fill:url(#SVGID_00000122712753295048288160000015364616917129143986_);enable-background:new    ;}
	.st19{opacity:0.6;fill:url(#SVGID_00000108311212145160666420000014786233312157168823_);enable-background:new    ;}
	.st20{opacity:0.6;fill:url(#SVGID_00000130644399807451107710000014603721876505504171_);enable-background:new    ;}
	.st21{opacity:0.6;fill:url(#SVGID_00000027565198447191839590000010322315508521284508_);enable-background:new    ;}
	.st22{opacity:0.6;fill:url(#SVGID_00000037663782810901396940000004783350697160484230_);enable-background:new    ;}
</style>
<path class="st0" d="M477.8,88.4c-5.1-19.6-21.5-39.2-50.9-61C403.3,10,378.2,0,358.2,0c-4,0-7.6,0.4-11.3,1.1
	c-9.1,1.8-17.1,8.5-22.2,18.5c-6.2,11.8-7.6,27.7-3.6,37.4c1.5,3,3.3,6.7,5.5,10c-19.3,11.8-30.2,15.2-31.6,15.5
	c50.2,17,92,52.5,118.2,98.7l0.4-4.4c1.1-12.2,4.7-26.3,9.8-40.7c5.1,1.5,10.2,2.2,15.3,2.2c13.5,0,25.1-5.5,32.4-15.5
	C478.2,112.8,481.1,99.5,477.8,88.4z"/>
<radialGradient id="SVGID_1_" cx="27.7811" cy="497.1864" r="10.4167" gradientTransform="matrix(15.5992 0 0 -15.8678 27.6588 7957.2998)" gradientUnits="userSpaceOnUse">
	<stop  offset="0" style="stop-color:#FFEAFF;stop-opacity:0.6"/>
	<stop  offset="0.6807" style="stop-color:#A087C9"/>
	<stop  offset="1" style="stop-color:#10002F"/>
</radialGradient>
<path class="st1" d="M425.5,125.4c33.1,9.2,46.5-16.6,42.2-34c-4.7-17.4-20-35.1-46.9-55.1c-26.9-20-54.2-28.1-71.6-24.4
	c-17.5,3.7-22.5,30.7-18.2,41.1c1.8,4.1,5.8,10,11.3,16.6c-6.9,4.8-13.5,8.5-18.9,11.8c33.4,15.2,62.5,38.8,84.3,68.4
	c2.5-10,6.2-18.9,9.5-26.6C419.7,123.5,422.6,124.3,425.5,125.4z"/>
<radialGradient id="SVGID_00000094580604224715599370000005710334235510790074_" cx="9.8048" cy="497.7999" r="10.4167" gradientTransform="matrix(38.1657 0 0 -38.8229 -3.5863 19464.5723)" gradientUnits="userSpaceOnUse">
	<stop  offset="0" style="stop-color:#FFEAFF;stop-opacity:0.6"/>
	<stop  offset="0.6807" style="stop-color:#A087C9"/>
	<stop  offset="1" style="stop-color:#10002F"/>
</radialGradient>
<path style="fill:url(#SVGID_00000094580604224715599370000005710334235510790074_);" d="M236.1,487.8
	c112.2,0,203.2-92.6,203.2-206.7s-91-206.7-203.2-206.7c-112.2,0-203.2,92.6-203.2,206.7S123.8,487.8,236.1,487.8z"/>
<path class="st3" d="M450.9,74.3C423.3,44.7,400,37,372,30.7c-21.8-5.2-16-17.8,10.5-15.2c-12.7-4.4-24.7-5.5-33.4-3.7
	c-17.5,3.7-22.5,30.7-18.2,41.1c1.8,4.1,5.8,10,11.3,16.6c-9.8,6.7-18.2,11.5-25.1,15.2c3.3,1.5,7.3,3.3,12,5.9
	c12.4,6.7,25.8,17.8,25.8,17.8c-20.4-17.8-16-25.9,12-45.9c8.7-6.3,24.7-5.5,39.6,2.2s32.4,27.4,32.4,27.4l-16.7,32.5
	c1.1,0.4,2.2,0.7,3.3,1.1c10.5,3,18.9,2.2,25.4-0.4C458.6,120.6,478.6,104.3,450.9,74.3z"/>
<path class="st0" d="M371.7,48.4c7.3,3,16.7,8.1,28.4,15.9c13.8,9.2,25.8,19.6,33.4,27.7c-12.7,17-21.1,40.3-26.2,56.6
	c2.5,3.7,5.5,7.4,8,11.1c2.5-9.2,6.9-22.9,12.7-36.6c1.5,0.4,3.3,0.4,5.1,0.4c4.4,0,9.5-0.7,13.5-4.1c2.9-2.2,6.2-6.3,5.8-13.7
	c0-7-5.5-15.9-16.7-26.6c-8-7.8-18.9-16.3-29.8-24c-31.3-21.1-53.1-27-62.9-17c-6.5,6.7-5.8,14.8-3.6,20.7
	c-11.6,7.8-21.5,13.3-28,17c4.4,1.5,8.4,3.3,12.7,5.2C335.7,74.7,352.4,64,371.7,48.4z M440.4,101.3c1.1,1.8,1.5,3.7,1.5,4.8
	c0,3.3-1.1,4.4-1.8,5.2c-1.5,1.1-4.4,1.8-6.9,1.8C435.3,108.7,437.8,105,440.4,101.3z M350.6,46.2c1.1-1.1,4-1.8,8.7-1.1
	c-3.6,3-7.3,5.5-10.9,8.1C348,50.7,348.4,48.1,350.6,46.2z"/>
<path class="st0" d="M236.1,62.1c-118.9,0-215.2,98-215.2,218.9S117.2,500,236.1,500c118.9,0,215.2-98,215.2-218.9
	S354.6,62.1,236.1,62.1z M236.1,487.8c-112.3,0-203.2-92.5-203.2-206.7S123.7,74.3,236.1,74.3c112.3,0,203.2,92.5,203.2,206.7
	S348,487.8,236.1,487.8z"/>
<linearGradient id="SVGID_00000095330433515026164360000000288858043849332918_" gradientUnits="userSpaceOnUse" x1="202.4401" y1="17.0161" x2="269.6847" y2="424.8502" gradientTransform="matrix(1 0 0 -1 0 502)">
	<stop  offset="0" style="stop-color:#81FFFF"/>
	<stop  offset="0.6202" style="stop-color:#FFFFFF;stop-opacity:0"/>
</linearGradient>
<path style="opacity:0.6;fill:url(#SVGID_00000095330433515026164360000000288858043849332918_);enable-background:new    ;" d="
	M236.1,487.8c112.2,0,203.2-92.6,203.2-206.7s-91-206.7-203.2-206.7c-112.2,0-203.2,92.6-203.2,206.7S123.8,487.8,236.1,487.8z"/>
<path class="st3" d="M234.6,462.6c-110.9-18.1-186.1-124.3-168-237.1c8-49.9,32.7-92.5,67.6-123.2c-50.9,30-88.7,82.1-98.9,145.7
	c-17.8,112.8,57.4,218.9,168,237.1c61.8,10.4,121.4-9.2,165.4-47.7C329.9,460.4,282.6,470.4,234.6,462.6z"/>
<linearGradient id="SVGID_00000030454250345058865460000017296666141942356391_" gradientUnits="userSpaceOnUse" x1="381.0271" y1="359.4052" x2="210.3538" y2="205.4591" gradientTransform="matrix(1 0 0 -1 0 502)">
	<stop  offset="0.2888" style="stop-color:#FFFFFF"/>
	<stop  offset="0.7796" style="stop-color:#FFFFFF;stop-opacity:0"/>
</linearGradient>
<path style="opacity:0.6;fill:url(#SVGID_00000030454250345058865460000017296666141942356391_);enable-background:new    ;" d="
	M268.4,77.3c-51.3-8.5-101.1,3.3-141.8,29.6c-0.7,0.7-1.5,1.5-1.5,1.5c15.6-9.6,38.5-18.1,38.5-18.1c-58.9,34.8-77.1,74.3-77.1,74.3
	c22.9-45.1,90.2-76.9,142.9-79.1c52.7-2.2,87.3,13.7,129.4,48.1c42.2,34.8,67.6,105.8,65.1,162c-2.2,56.2-31.3,101.7-31.3,101.7
	c20-26.3,32-45.5,39.6-65.1c1.5-5.9,2.9-11.8,3.6-18.1C454.2,201.6,379.3,95.4,268.4,77.3z"/>
<linearGradient id="SVGID_00000075161604990002678350000000823090729468920494_" gradientUnits="userSpaceOnUse" x1="42.6469" y1="124.5956" x2="429.1152" y2="124.5956" gradientTransform="matrix(1 0 0 -1 0 502)">
	<stop  offset="0" style="stop-color:#0002E9"/>
	<stop  offset="0.9952" style="stop-color:#FF00C7"/>
</linearGradient>
<path style="fill:url(#SVGID_00000075161604990002678350000000823090729468920494_);" d="M429.1,279.2
	c0,108.4-86.5,196.4-193.1,196.4s-193.4-88-193.4-196.4H429.1z"/>
<g class="st7">
	
		<linearGradient id="SVGID_00000160185768708110615030000001632569196819629245_" gradientUnits="userSpaceOnUse" x1="448.3224" y1="204.4561" x2="234.7271" y2="6.013" gradientTransform="matrix(1 0 0 -1 0 502)">
		<stop  offset="0.2888" style="stop-color:#FFFFFF"/>
		<stop  offset="0.7796" style="stop-color:#FFFFFF;stop-opacity:0"/>
	</linearGradient>
	<path style="opacity:0.6;fill:url(#SVGID_00000160185768708110615030000001632569196819629245_);enable-background:new    ;" d="
		M413.8,279.2c0,105.8-82.2,192.3-185.4,196.4c2.5,0,5.1,0,7.6,0c106.5,0,193.1-88,193.1-196.4H413.8z"/>
</g>
<g class="st9">
	
		<linearGradient id="SVGID_00000047753061883334440450000007051049476768181647_" gradientUnits="userSpaceOnUse" x1="42.6469" y1="124.5956" x2="249.1513" y2="124.5956" gradientTransform="matrix(1 0 0 -1 0 502)">
		<stop  offset="0" style="stop-color:#000292"/>
		<stop  offset="0.9952" style="stop-color:#7D00C7"/>
	</linearGradient>
	<path style="opacity:0.7;fill:url(#SVGID_00000047753061883334440450000007051049476768181647_);enable-background:new    ;" d="
		M69.9,279.2H42.6c0,108.4,86.5,196.4,193.1,196.4c4.7,0,9.1,0,13.5-0.4C149.2,467.8,69.9,382.8,69.9,279.2z"/>
</g>
<linearGradient id="SVGID_00000008148337645738371000000015844648592892697739_" gradientUnits="userSpaceOnUse" x1="43.0697" y1="204.7406" x2="428.7621" y2="204.7406" gradientTransform="matrix(1 0 0 -1 0 502)">
	<stop  offset="0" style="stop-color:#000292"/>
	<stop  offset="0.9952" style="stop-color:#BE00C7"/>
</linearGradient>
<path style="fill:url(#SVGID_00000008148337645738371000000015844648592892697739_);" d="M428.8,281.1c0-22.6-38.5-35.5-89.8-39.9
	c-37.1-3-74.5,0.7-117.4,14.1c-37.1,11.1-70.5,9.2-94.9,6.3c-54.2-6.3-84-7-84,19.6c0,38.5,77.1,86.5,192.7,69.9
	c58.5-8.5,88.7-25.9,123.2-37.7C396,300.7,428.8,301,428.8,281.1z"/>
<path class="st12" d="M299.3,187.9c18.1,0,32.7-14.9,32.7-33.3s-14.7-33.3-32.7-33.3s-32.7,14.9-32.7,33.3S281.3,187.9,299.3,187.9z
	"/>
<path class="st12" d="M352.8,212.6c7.6,0,13.8-6.3,13.8-14.1s-6.2-14.1-13.8-14.1s-13.8,6.3-13.8,14.1S345.1,212.6,352.8,212.6z"/>
<g class="st7">
	
		<linearGradient id="SVGID_00000150798874951005133420000001226388746310529701_" gradientUnits="userSpaceOnUse" x1="422.9164" y1="414.7403" x2="394.5048" y2="369.3523" gradientTransform="matrix(1 0 0 -1 0 502)">
		<stop  offset="0.2888" style="stop-color:#FFFFFF"/>
		<stop  offset="0.7796" style="stop-color:#FFFFFF;stop-opacity:0"/>
	</linearGradient>
	<path style="opacity:0.6;fill:url(#SVGID_00000150798874951005133420000001226388746310529701_);enable-background:new    ;" d="
		M402.2,128c-0.4,0-0.7,0-0.7,0c-2.2-0.4-3.6-2.6-3.3-5.2c3.3-17,17.1-33.3,17.8-34c1.5-1.8,4.4-1.8,5.8-0.4
		c1.8,1.5,1.8,4.4,0.4,5.9c-0.4,0.4-13.1,15.5-16,30.3C405.8,126.9,404,128,402.2,128z"/>
</g>
<path class="st14" d="M222.6,435.3c5.6,0,10.2-4.6,10.2-10.4c0-5.7-4.6-10.4-10.2-10.4s-10.2,4.6-10.2,10.4
	C212.5,430.6,217,435.3,222.6,435.3z"/>
<g class="st15">
	
		<linearGradient id="SVGID_00000131326086965300313880000014717746897649597060_" gradientUnits="userSpaceOnUse" x1="212.3405" y1="76.9822" x2="227.7218" y2="76.9822" gradientTransform="matrix(1 0 0 -1 0 502)">
		<stop  offset="0.2888" style="stop-color:#FFFFFF"/>
		<stop  offset="0.7796" style="stop-color:#FFFFFF;stop-opacity:0"/>
	</linearGradient>
	<path style="opacity:0.6;fill:url(#SVGID_00000131326086965300313880000014717746897649597060_);enable-background:new    ;" d="
		M216.8,431.6c-4-4.1-4-10.7,0-14.8c0.7-0.7,1.5-1.1,2.2-1.9c-1.5,0.4-2.5,1.1-3.6,2.2c-4,4.1-4,10.7,0,14.8
		c3.3,3.3,8.4,4.1,12.4,1.8C224.1,435.3,219.7,434.6,216.8,431.6z"/>
</g>
<path class="st17" d="M226.2,422c1.2,0,2.2-1,2.2-2.2c0-1.2-1-2.2-2.2-2.2c-1.2,0-2.2,1-2.2,2.2C224.1,421,225,422,226.2,422z"/>
<path class="st14" d="M275.7,430.1c5.6,0,10.2-4.6,10.2-10.4c0-5.7-4.6-10.4-10.2-10.4c-5.6,0-10.2,4.6-10.2,10.4
	C265.5,425.5,270.1,430.1,275.7,430.1z"/>
<g class="st15">
	
		<linearGradient id="SVGID_00000170254646177894542060000015427967547835965314_" gradientUnits="userSpaceOnUse" x1="265.3732" y1="82.1646" x2="280.7555" y2="82.1646" gradientTransform="matrix(1 0 0 -1 0 502)">
		<stop  offset="0.2888" style="stop-color:#FFFFFF"/>
		<stop  offset="0.7796" style="stop-color:#FFFFFF;stop-opacity:0"/>
	</linearGradient>
	<path style="opacity:0.6;fill:url(#SVGID_00000170254646177894542060000015427967547835965314_);enable-background:new    ;" d="
		M269.9,426.4c-4-4.1-4-10.7,0-14.8c0.7-0.7,1.5-1.1,2.2-1.8c-1.5,0.4-2.5,1.1-3.6,2.2c-4,4.1-4,10.7,0,14.8
		c3.3,3.3,8.4,4.1,12.4,1.8C277.1,430.1,272.8,429.4,269.9,426.4z"/>
</g>
<path class="st17" d="M279.3,416.8c1.2,0,2.2-1,2.2-2.2c0-1.2-1-2.2-2.2-2.2c-1.2,0-2.2,1-2.2,2.2
	C277.1,415.8,278.1,416.8,279.3,416.8z"/>
<path class="st14" d="M249.5,454.1c4.2,0,7.6-3.5,7.6-7.8c0-4.3-3.4-7.8-7.6-7.8c-4.2,0-7.6,3.5-7.6,7.8
	C241.9,450.7,245.3,454.1,249.5,454.1z"/>
<g class="st15">
	
		<linearGradient id="SVGID_00000002358931381940948310000015120875904690656152_" gradientUnits="userSpaceOnUse" x1="241.8325" y1="55.4041" x2="253.3804" y2="55.4041" gradientTransform="matrix(1 0 0 -1 0 502)">
		<stop  offset="0.2888" style="stop-color:#FFFFFF"/>
		<stop  offset="0.7796" style="stop-color:#FFFFFF;stop-opacity:0"/>
	</linearGradient>
	<path style="opacity:0.6;fill:url(#SVGID_00000002358931381940948310000015120875904690656152_);enable-background:new    ;" d="
		M245.2,451.2c-2.9-3-2.9-8.1,0-11.1c0.4-0.4,1.1-0.7,1.5-1.1c-1.1,0.4-1.8,1.1-2.5,1.8c-2.9,3-2.9,8.1,0,11.1
		c2.5,2.6,6.2,3,9.5,1.1C250.6,454.2,247.3,453.4,245.2,451.2z"/>
</g>
<path class="st17" d="M252.1,443.8c0.8,0,1.5-0.7,1.5-1.5c0-0.8-0.7-1.5-1.5-1.5c-0.8,0-1.5,0.7-1.5,1.5
	C250.6,443.1,251.3,443.8,252.1,443.8z"/>
<path class="st14" d="M296.4,448.6c4.2,0,7.6-3.5,7.6-7.8c0-4.3-3.4-7.8-7.6-7.8s-7.6,3.5-7.6,7.8
	C288.8,445.1,292.2,448.6,296.4,448.6z"/>
<g class="st15">
	
		<linearGradient id="SVGID_00000053530958082996745370000015431297764998259102_" gradientUnits="userSpaceOnUse" x1="288.5742" y1="60.953" x2="300.1222" y2="60.953" gradientTransform="matrix(1 0 0 -1 0 502)">
		<stop  offset="0.2888" style="stop-color:#FFFFFF"/>
		<stop  offset="0.7796" style="stop-color:#FFFFFF;stop-opacity:0"/>
	</linearGradient>
	<path style="opacity:0.6;fill:url(#SVGID_00000053530958082996745370000015431297764998259102_);enable-background:new    ;" d="
		M292.1,445.6c-2.9-3-2.9-8.1,0-11.1c0.4-0.4,1.1-0.7,1.5-1.1c-1.1,0.4-1.8,1.1-2.5,1.8c-2.9,3-2.9,8.1,0,11.1
		c2.5,2.6,6.2,3,9.5,1.1C297.5,448.6,294.2,447.9,292.1,445.6z"/>
</g>
<path class="st17" d="M299,438.2c0.8,0,1.5-0.7,1.5-1.5c0-0.8-0.7-1.5-1.5-1.5s-1.5,0.7-1.5,1.5C297.5,437.6,298.2,438.2,299,438.2z
	"/>
<path class="st14" d="M179.3,431.6c9.2,0,16.7-7.6,16.7-17c0-9.4-7.5-17-16.7-17c-9.2,0-16.7,7.6-16.7,17
	C162.6,424,170.1,431.6,179.3,431.6z"/>
<g class="st15">
	
		<linearGradient id="SVGID_00000067210299838681100100000015780734119767497910_" gradientUnits="userSpaceOnUse" x1="162.6469" y1="86.948" x2="187.7668" y2="86.948" gradientTransform="matrix(1 0 0 -1 0 502)">
		<stop  offset="0.2888" style="stop-color:#FFFFFF"/>
		<stop  offset="0.7796" style="stop-color:#FFFFFF;stop-opacity:0"/>
	</linearGradient>
	<path style="opacity:0.6;fill:url(#SVGID_00000067210299838681100100000015780734119767497910_);enable-background:new    ;" d="
		M169.9,425.3c-6.5-6.7-6.5-17.4,0-24c1.1-1.1,2.2-1.8,3.6-2.6c-2.2,0.7-4,2.2-5.8,3.7c-6.5,6.7-6.5,17.4,0,24
		c5.5,5.5,13.8,6.7,20.4,2.6C181.9,431.6,174.6,430.5,169.9,425.3z"/>
</g>
<path class="st17" d="M185.2,409.4c2,0,3.6-1.7,3.6-3.7s-1.6-3.7-3.6-3.7c-2,0-3.6,1.7-3.6,3.7S183.2,409.4,185.2,409.4z"/>
<path class="st14" d="M328.8,389.8c9.2,0,16.7-7.6,16.7-17c0-9.4-7.5-17-16.7-17c-9.2,0-16.7,7.6-16.7,17
	C312.1,382.2,319.5,389.8,328.8,389.8z"/>
<g class="st15">
	
		<linearGradient id="SVGID_00000077284678091164996690000004927564663873905584_" gradientUnits="userSpaceOnUse" x1="311.8378" y1="128.7367" x2="336.9587" y2="128.7367" gradientTransform="matrix(1 0 0 -1 0 502)">
		<stop  offset="0.2888" style="stop-color:#FFFFFF"/>
		<stop  offset="0.7796" style="stop-color:#FFFFFF;stop-opacity:0"/>
	</linearGradient>
	<path style="opacity:0.6;fill:url(#SVGID_00000077284678091164996690000004927564663873905584_);enable-background:new    ;" d="
		M319,383.5c-6.5-6.7-6.5-17.4,0-24c1.1-1.1,2.2-1.8,3.6-2.6c-2.2,0.7-4,2.2-5.8,3.7c-6.5,6.7-6.5,17.4,0,24
		c5.5,5.5,13.8,6.7,20.4,2.6C331,389.8,324,388.7,319,383.5z"/>
</g>
<path class="st17" d="M334.6,367.6c2,0,3.6-1.7,3.6-3.7c0-2-1.6-3.7-3.6-3.7c-2,0-3.6,1.7-3.6,3.7C331,366,332.6,367.6,334.6,367.6z
	"/>
</svg>
