<?xml version="1.0" encoding="iso-8859-1"?>
<!-- Generator: Adobe Illustrator 19.0.0, SVG Export Plug-In . SVG Version: 6.00 Build 0)  -->
<svg version="1.1" id="Layer_1" xmlns="http://www.w3.org/2000/svg" xmlns:xlink="http://www.w3.org/1999/xlink" x="0px" y="0px"
	 viewBox="-749 751 500 500" style="enable-background:new -749 751 500 500;" xml:space="preserve">
<path style="fill:#1F3B4A;" d="M-514.457,907.96c17.684-27.552,34.899-54.372,51.974-80.974
	c-15.013-26.613-6.019-46.034,6.177-56.837c14.281-12.648,33.68-15.156,50.769-4.311c15.841,10.053,23.288,29.701,18.064,47.088
	c-6.198,20.63-22.884,31.127-49.948,30.763c-13.946,20.718-27.327,42.453-41.572,64.471c53.345,8.212,94.82,33.544,123.139,78.838
	c19.931,31.878,28.13,67.016,24.021,104.203c-10.043,90.892-89.571,154.725-177.471,148.952
	c-70.572-4.635-145.105-58.609-154.954-149.309c-4.926-45.369,7.83-86.672,37.059-122.175
	C-598.058,933.276-560.314,913.293-514.457,907.96z M-417.606,1107.88c-29.854,26.158-59.934,16.257-75.029,0.258
	c-16.945-17.959-19.264-45.698-2.149-67.102c7.417-9.276,17.112-15.569,28.914-17.525c17.739-2.939,33.765,1.117,47.768,15.013
	c-7.419-26.207-43.911-59.362-92.603-52.484c-38.678,5.463-73.735,36.873-75.547,84.337c-1.537,40.259,24.095,78.728,69.898,89.173
	C-475.056,1168.97-431.579,1144.764-417.606,1107.88z"/>
</svg>
