<?xml version="1.0" encoding="utf-8"?>
<!-- Generator: Adobe Illustrator 23.0.3, SVG Export Plug-In . SVG Version: 6.00 Build 0)  -->
<svg version="1.1" id="ovc" xmlns="http://www.w3.org/2000/svg" xmlns:xlink="http://www.w3.org/1999/xlink" x="0px" y="0px"
	 viewBox="0 0 500 500" style="enable-background:new 0 0 500 500;" xml:space="preserve">
<style type="text/css">
	.st0{fill:#434FA2;}
	.st1{fill:#4078BB;}
	.st2{fill:#3FBBEC;}
</style>
<path class="st0" d="M250.1,3.9c-11.3,0-22.5,0.8-33.4,2.3c85.5,24.3,148.1,103,148.1,196.3c0,112.7-91.3,204-204,204
	c-49.5,0-94.9-17.6-130.2-47c40.4,80.3,123.5,135.5,219.5,135.5c135.6,0,245.5-109.9,245.5-245.5S385.7,3.9,250.1,3.9z"/>
<path class="st1" d="M349.4,414.1c-112.7,0-204-91.3-204-204c0-98.2,69.3-180.1,161.7-199.6c-18.3-4.3-37.4-6.7-57-6.7
	C114.5,3.9,4.6,113.8,4.6,249.4s109.9,245.5,245.5,245.5c85.6,0,160.9-43.8,204.8-110.2C424.2,403.4,388,414.1,349.4,414.1z"/>
<path class="st2" d="M50.9,355.8c0-112.7,91.3-204,204-204s204,91.3,204,204c0,8.5-0.5,17-1.6,25.2c24.2-38.1,38.3-83.2,38.3-131.7
	c0-135.6-109.9-245.5-245.5-245.5S4.6,113.8,4.6,249.4c0,56.3,19,108.2,50.9,149.6C52.5,385.1,50.9,370.7,50.9,355.8z"/>
</svg>
