<svg width="24" height="25" viewBox="0 0 24 25" fill="currentColor" xmlns="http://www.w3.org/2000/svg">
<path d="M22.2095 20.7316L22.0712 20.5934C21.6861 20.2083 21.0639 20.2083 20.6788 20.5934C20.2937 20.9785 20.2937 21.6007 20.6788 21.9858L20.8171 22.1241C21.0146 22.3216 21.2614 22.4104 21.5182 22.4104C21.775 22.4104 22.0218 22.3117 22.2193 22.1241C22.6045 21.7389 22.6045 21.1168 22.2193 20.7316H22.2095Z" />
<path d="M19.0691 17.5913C20.3529 15.9323 21.1331 13.8486 21.1331 11.5872C21.1331 6.17554 16.7287 1.77118 11.3171 1.77118C5.90544 1.77118 1.49121 6.17554 1.49121 11.597C1.49121 17.0186 5.89557 21.4229 11.3171 21.4229C13.7661 21.4229 15.9979 20.5144 17.7162 19.0331L18.7136 20.0305C18.9111 20.228 19.158 20.3169 19.4148 20.3169C19.6715 20.3169 19.9184 20.2181 20.1159 20.0305C20.5011 19.6454 20.5011 19.0232 20.1159 18.6381L19.0691 17.5913ZM3.46626 11.597C3.46626 7.27169 6.98185 3.74623 11.3171 3.74623C15.6523 3.74623 19.1679 7.26181 19.1679 11.597C19.1679 15.9323 15.6523 19.4479 11.3171 19.4479C6.98185 19.4479 3.46626 15.9323 3.46626 11.597Z" />
<path d="M7.1596 9.63187H10.5567C11.0998 9.63187 11.5442 9.18749 11.5442 8.64435C11.5442 8.10121 11.0998 7.65682 10.5567 7.65682H7.1596C6.61646 7.65682 6.17208 8.10121 6.17208 8.64435C6.17208 9.18749 6.61646 9.63187 7.1596 9.63187Z" />
<path d="M13.4205 9.63187H14.9215C15.4647 9.63187 15.9091 9.18749 15.9091 8.64435C15.9091 8.10121 15.4647 7.65682 14.9215 7.65682H13.4205C12.8774 7.65682 12.433 8.10121 12.433 8.64435C12.433 9.18749 12.8774 9.63187 13.4205 9.63187Z" />
<path d="M10.7838 13.8585H7.38673C6.84359 13.8585 6.39921 14.3029 6.39921 14.846C6.39921 15.3891 6.84359 15.8335 7.38673 15.8335H10.7838C11.327 15.8335 11.7713 15.3891 11.7713 14.846C11.7713 14.3029 11.327 13.8585 10.7838 13.8585Z" />
<path d="M15.1487 13.8585H13.6476C13.1045 13.8585 12.6601 14.3029 12.6601 14.846C12.6601 15.3891 13.1045 15.8335 13.6476 15.8335H15.1487C15.6918 15.8335 16.1362 15.3891 16.1362 14.846C16.1362 14.3029 15.6918 13.8585 15.1487 13.8585Z" />
<path d="M7.38673 10.7577C6.84359 10.7577 6.39921 11.202 6.39921 11.7452C6.39921 12.2883 6.84359 12.7327 7.38673 12.7327H14.2303C14.7734 12.7327 15.2178 12.2883 15.2178 11.7452C15.2178 11.202 14.7734 10.7577 14.2303 10.7577H7.38673Z" />
</svg>
