<?xml version="1.0" encoding="utf-8"?>
<!-- Generator: Adobe Illustrator 24.1.0, SVG Export Plug-In . SVG Version: 6.00 Build 0)  -->
<svg version="1.1" id="OXT" xmlns="http://www.w3.org/2000/svg" xmlns:xlink="http://www.w3.org/1999/xlink" x="0px" y="0px"
	 viewBox="0 0 500 500" style="enable-background:new 0 0 500 500;" xml:space="preserve">
<style type="text/css">
	.st0{fill-rule:evenodd;clip-rule:evenodd;fill:#5F46BA;}
</style>
<path class="st0" d="M141.6,65.6c-6.8,11.5-21.6,15.2-33.1,8.4C97,67.3,93.2,52.4,100,41c6.8-11.5,21.6-15.2,33.1-8.4
	C144.6,39.3,148.4,54.2,141.6,65.6"/>
<path class="st0" d="M22.5,47.4c-3.4,5.7-10.8,7.6-16.5,4.2C0.2,48.2-1.7,40.8,1.7,35c3.4-5.7,10.8-7.6,16.6-4.2
	C24,34.2,25.9,41.6,22.5,47.4"/>
<path class="st0" d="M443.7,103.2C403.9,59.7,348.9,33.7,288.8,30c-14.5-0.9-29.2-0.4-43.7,1.4h0c-5,0.4-9.8,1-14.5,1.8l-4.3,0.5
	l0.4,0.1c-20.8,4-36.1,10.5-36.9,10.9l-0.1,0.1c-22.9,10.8-35.5,28.6-35.5,50.3c0,29.8,25.2,54.1,56.2,54.1c6.4,0,26.4-6.5,26.6-6.6
	c14.4-4.8,29.4-6.8,44.8-5.9c39,2.4,73.7,23.5,92.8,56.5l0,0.1c10.6,18.4,15.5,39.2,14.1,60.3c-4,60.6-58.3,106.8-121.3,103
	c-35.8-2.2-67.6-19.9-87.7-48.5v0l-0.7-0.8l-4.5-6.6C159,275,161,239.6,161.6,232.3l0.1-0.7l0-0.3c-1.1-29.3-25.8-52.3-56.2-52.3
	c-25.3,0-47.6,16.5-54.3,40.1c-1.3,4.8-1.9,17.5-1.8,18.9c-5,117,89.7,218.2,211,225.6c4.6,0.3,9.2,0.4,13.8,0.4
	c8.5,0,17-0.5,25.6-1.4l0.1,0l1.2-0.1l17.9-2l-1.3-0.5c99.9-18.6,175.3-100.1,181.8-199.5C503.3,202.5,483.5,146.7,443.7,103.2"/>
<path class="st0" d="M91.5,132.2c-10.2,17.2-32.4,22.9-49.7,12.6C24.7,134.6,19,112.4,29.2,95.2C39.5,78,61.7,72.3,78.9,82.5
	C96.1,92.8,101.8,115,91.5,132.2"/>
</svg>
