<?xml version="1.0" encoding="utf-8"?>
<!-- Generator: Adobe Illustrator 23.0.2, SVG Export Plug-In . SVG Version: 6.00 Build 0)  -->
<svg version="1.1" id="pai" xmlns="http://www.w3.org/2000/svg" xmlns:xlink="http://www.w3.org/1999/xlink" x="0px" y="0px"
	 viewBox="0 0 500 500" style="enable-background:new 0 0 500 500;" xml:space="preserve">
<style type="text/css">
	.st0{fill:url(#SVGID_1_);}
	.st1{fill:#3BA7DB;}
	.st2{fill:#05FFFF;}
	.st3{fill:url(#SVGID_2_);}
	.st4{fill:url(#SVGID_3_);}
</style>
<linearGradient id="SVGID_1_" gradientUnits="userSpaceOnUse" x1="360.641" y1="360.1342" x2="360.641" y2="204.293">
	<stop  offset="0" style="stop-color:#0DF7FB"/>
	<stop  offset="0.9976" style="stop-color:#14D9EA"/>
</linearGradient>
<path class="st0" d="M360.6,360.1c-10.6,0-19.1-8.6-19.1-19.1V223.4c0-10.6,8.6-19.1,19.1-19.1s19.1,8.6,19.1,19.1V341
	C379.8,351.6,371.2,360.1,360.6,360.1z"/>
<path class="st1" d="M244.9,358.2c-74.3,0-134.8-60.5-134.8-134.8c0-74.3,60.5-134.8,134.8-134.8c74.3,0,134.8,60.5,134.8,134.8
	C379.7,297.8,319.3,358.2,244.9,358.2z M244.9,126.9c-53.2,0-96.5,43.3-96.5,96.5c0,53.2,43.3,96.5,96.5,96.5s96.5-43.3,96.5-96.5
	C341.5,170.2,298.2,126.9,244.9,126.9z"/>
<circle class="st2" cx="370.6" cy="35.9" r="28.2"/>
<linearGradient id="SVGID_2_" gradientUnits="userSpaceOnUse" x1="240.068" y1="493.8784" x2="240.068" y2="88.6419">
	<stop  offset="0" style="stop-color:#861DAF"/>
	<stop  offset="0.4943" style="stop-color:#4C8AD0"/>
	<stop  offset="0.8108" style="stop-color:#11F6FB"/>
	<stop  offset="1" style="stop-color:#0CFFFF"/>
</linearGradient>
<path class="st3" d="M129.3,493.9c-10.6,0-19.1-8.6-19.1-19.1V223.4c0-74.3,60.5-134.8,134.8-134.8c53.4,0,101.9,31.6,123.4,80.5
	c4.3,9.7-0.1,21-9.8,25.2c-9.7,4.3-21-0.1-25.2-9.8c-15.4-35-50.1-57.7-88.4-57.7c-53.2,0-96.5,43.3-96.5,96.5v251.3
	C148.4,485.3,139.9,493.9,129.3,493.9z"/>
<linearGradient id="SVGID_3_" gradientUnits="userSpaceOnUse" x1="253.4068" y1="358.2229" x2="253.4068" y2="157.7353">
	<stop  offset="0" style="stop-color:#22D2EF"/>
	<stop  offset="1" style="stop-color:#10F7FC"/>
</linearGradient>
<path class="st4" d="M244.9,358.2c-23.5,0-46.6-6.1-66.9-17.8c-19.7-11.3-36.3-27.4-48.1-46.8c-5.5-9-2.7-20.8,6.3-26.3
	c9-5.5,20.8-2.7,26.3,6.3c17.7,28.9,48.5,46.2,82.4,46.2c53.2,0,96.5-43.3,96.5-96.5c0-13.5-2.7-26.6-8.1-38.8
	c-4.3-9.7,0.1-21,9.8-25.2c9.7-4.3,21,0.1,25.2,9.8c7.5,17.1,11.4,35.4,11.4,54.3C379.7,297.8,319.3,358.2,244.9,358.2z"/>
</svg>
