<?xml version="1.0" encoding="iso-8859-1"?>
<!-- Generator: Adobe Illustrator 19.0.0, SVG Export Plug-In . SVG Version: 6.00 Build 0)  -->
<svg version="1.1" id="Layer_1" xmlns="http://www.w3.org/2000/svg" xmlns:xlink="http://www.w3.org/1999/xlink" x="0px" y="0px"
	 viewBox="0 0 500 500" style="enable-background:new 0 0 500 500;" xml:space="preserve">
<linearGradient id="SVGID_1_" gradientUnits="userSpaceOnUse" x1="118.5413" y1="36.253" x2="383.0296" y2="466.5121">
	<stop  offset="0" style="stop-color:#3D8382"/>
	<stop  offset="0.4997" style="stop-color:#14BCA1"/>
	<stop  offset="0.9995" style="stop-color:#3D8382"/>
</linearGradient>
<path style="fill:url(#SVGID_1_);" d="M284.968,212.833c-30.652,17.652-61.093,35.674-91.867,53.109
	c-10.242,5.802-15.218,13.458-14.67,25.376c0.566,12.313,0.297,24.676,0.014,37.009c-0.1,4.35-0.755,8.867-2.153,12.968
	c-2.676,7.85-9.881,11.539-17.776,9.148c-4.617-1.399-9.107-3.528-13.313-5.927c-24.057-13.718-47.941-27.743-72.04-41.387
	c-8.86-5.017-12.805-12.246-12.776-22.242c0.095-33.059,0.036-66.118,0.036-99.178c-0.048,0-0.097,0-0.145,0
	c0-32.594,0.145-65.188-0.083-97.78c-0.075-10.657,4.12-17.992,13.411-23.294C104.331,43.101,134.934,25.349,165.42,7.4
	c9.216-5.426,17.61-5.428,26.846,0.028c31.06,18.346,62.314,36.364,93.543,54.422c7.58,4.383,11.385,10.96,11.406,19.473
	c0.095,37.25,0.074,74.5-0.095,111.749C297.08,201.905,292.729,208.364,284.968,212.833z M439.094,317.916c-0.093,0-0.186,0-0.279,0
	c0-33.284-0.069-66.568,0.049-99.851c0.029-8.326-2.512-15.275-9.839-19.527c-26.763-15.531-53.52-31.08-80.537-46.161
	c-15.311-8.547-26.619-1.506-26.885,16.248c-0.212,14.195,0.026,28.396-0.142,42.593c-0.109,9.28-4.029,16.326-12.349,21.118
	c-31.447,18.113-62.745,36.485-94.157,54.657c-8.194,4.741-12.289,11.421-12.26,21.044c0.108,36.309,0.129,72.62-0.163,108.928
	c-0.082,10.243,4.142,17.117,12.84,22.124c30.649,17.646,61.27,35.346,91.7,53.367c9.468,5.607,18.019,5.573,27.468-0.005
	c30.254-17.862,60.643-35.503,91.178-52.88c9.312-5.3,13.55-12.505,13.468-23.201C438.933,383.554,439.094,350.734,439.094,317.916z
	"/>
</svg>
