<svg aria-hidden="true" data-testid="test-icon" fill="currentColor" viewBox="0 0 24 24" xmlns="http://www.w3.org/2000/svg"><path fill-rule="evenodd" clip-rule="evenodd" d="M15.256 3.68c-.66 0-1.293.266-1.76.74l-7.622 7.722a4.233 4.233 0 00-1.215 2.973c0 1.115.437 2.184 1.215 2.973a4.122 4.122 0 002.934 1.231c1.1 0 2.156-.443 2.934-1.231l6.842-6.933a.822.822 0 011.173 0 .848.848 0 010 1.189l-6.842 6.932A5.77 5.77 0 018.808 21a5.77 5.77 0 01-4.107-1.724A5.925 5.925 0 013 15.115c0-1.56.612-3.058 1.701-4.161l7.622-7.723A4.121 4.121 0 0115.256 2c1.1 0 2.156.443 2.934 1.231a4.232 4.232 0 011.215 2.972 4.232 4.232 0 01-1.215 2.973l-7.63 7.722c-.467.473-1.1.739-1.76.739-.66 0-1.293-.266-1.76-.739a2.539 2.539 0 01-.73-1.783c0-.669.263-1.31.73-1.783l5.872-5.95a.822.822 0 011.172 0 .848.848 0 010 1.189l-5.871 5.95a.847.847 0 000 1.189.825.825 0 001.174 0l7.63-7.723a2.54 2.54 0 00.73-1.784c0-.669-.263-1.31-.73-1.783a2.473 2.473 0 00-1.76-.74z"/></svg>
