<?xml version="1.0" encoding="utf-8"?>
<!-- Generator: Adobe Illustrator 25.4.1, SVG Export Plug-In . SVG Version: 6.00 Build 0)  -->
<svg version="1.1" id="par" xmlns="http://www.w3.org/2000/svg" xmlns:xlink="http://www.w3.org/1999/xlink" x="0px" y="0px"
	 viewBox="0 0 500 500" style="enable-background:new 0 0 500 500;" xml:space="preserve">
<style type="text/css">
	.st0{fill:#0022FF;}
	.st1{fill:#FFFFFF;}
</style>
<circle class="st0" cx="250.3" cy="249.7" r="249.7"/>
<path class="st1" d="M239.8,97c65.1,0,117.8,52.7,117.8,117.7s-52.8,117.7-117.8,117.7c-17.2,0-33.6-3.7-48.3-10.3l0-44.4
	c13.1,9.8,29.3,15.5,46.9,15.5c43.4,0,78.6-35.1,78.6-78.5s-35.2-78.5-78.6-78.5c-23.8,0-45.1,10.6-59.5,27.3l-40.2-9.2
	C159.2,120,196.8,97,239.8,97L239.8,97z M167.2,247.9l-5.9,0l0,54.5c-5.5-5-10.6-10.4-15.1-16.3l0-28.8l19.6-12.7
	C166.2,245.8,166.7,246.9,167.2,247.9z"/>
<path class="st1" d="M218.6,210.7l0,191.2h-30.2l0-171.7L218.6,210.7z M176.3,238l0,163.9h-30.2V257.5L176.3,238L176.3,238z"/>
</svg>
