<?xml version="1.0" encoding="utf-8"?>
<!-- Generator: Adobe Illustrator 24.1.0, SVG Export Plug-In . SVG Version: 6.00 Build 0)  -->
<svg version="1.1" id="Layer_1" xmlns="http://www.w3.org/2000/svg" xmlns:xlink="http://www.w3.org/1999/xlink" x="0px" y="0px"
	 viewBox="0 0 500 500" style="enable-background:new 0 0 500 500;" xml:space="preserve">
<style type="text/css">
	.st0{clip-path:url(#SVGID_2_);}
	.st1{fill:#46D593;}
</style>
<g>
	<defs>
		<rect id="SVGID_1_" width="500" height="500"/>
	</defs>
	<clipPath id="SVGID_2_">
		<use xlink:href="#SVGID_1_"  style="overflow:visible;"/>
	</clipPath>
	<g class="st0">
		<path class="st1" d="M311.3,312.2H187.7V187.8h123.6V312.2z M497.9,104.1c-5.1-29.6-21.4-57.6-45-76.3C431,9.8,403,0.1,374.7,0
			c-83.9,0-167.9-0.1-251.9,0C79,0.6,37.6,26,16.3,64.1C4.5,84.6,0,107.6,0,131.1c0.1,76.5,0,153.1,0,229.7
			c-0.1,17.8,0.6,34.9,6.2,52c12.4,39.6,45.7,71.6,85.6,82.8c-12-9.6-17.4-23-21.3-37.5c-8.1-31.8-8.7-64.7-7.4-97.3
			c-0.1-76.6,0-153.1-0.1-229.7c0.1-13.2,1.1-25.6,7.8-37.2c10.4-18.6,30.6-31,52-30.8c79.8,0,159.6,0,239.4,0c12,0,23-0.9,34.5,3.5
			c19.1,6.4,34.3,23.5,38.5,43.2c2.4,11.6,1.7,24.4,1.8,36.2v224.7c0,11-1.2,21.8-6,31.9c-9.8,20.5-30.9,34.7-53.8,34.3
			c-63.1,0.1-126.3,0-189.5,0c-0.1-20.6-0.1-41.2,0-61.8c51.5,0,103-0.1,154.6,0c11.1,0.6,23.9-5,29-15.3c2.9-5.2,3.4-10.8,3.5-16.6
			c-0.1-62.4,0-124.8,0-187.3c0.5-11.6-5.1-21.9-15.3-27.4c-8.5-5-17.7-3.7-27.2-3.9c-59,0.1-118.1-0.1-177,0.1
			c-16.9-0.4-30.9,14.3-30.4,31.1c-0.2,89.7,0,179.9-0.1,269.6c0.5,17.8-0.1,34.7,10.2,50.2c7.8,12.8,21.1,19.2,35.3,22
			c16.8,2.7,32.9,2.1,49.8,2.1c51.5,0,103,0,154.6,0.1c25.6,0.2,50.6-8.1,71.6-22.6c22.6-16.7,40.1-39.6,48.1-66.7
			c5.6-18.3,5.5-36.1,5.6-55c0-71.6,0-143.1,0-214.7C499.9,128.8,499.8,116.2,497.9,104.1"/>
	</g>
</g>
</svg>
