<svg width="20" height="20" viewBox="0 0 20 20" fill="currentColor" xmlns="http://www.w3.org/2000/svg">
<path d="M7.8125 6.25C7.29688 6.25 6.875 6.67188 6.875 7.1875V12.8125C6.875 13.332 7.29688 13.75 7.8125 13.75C8.32812 13.75 8.75 13.332 8.75 12.8125V7.1875C8.75 6.67188 8.33203 6.25 7.8125 6.25ZM12.1875 6.25C11.6719 6.25 11.25 6.67188 11.25 7.1875V12.8125C11.25 13.3301 11.6699 13.75 12.1875 13.75C12.7051 13.75 13.125 13.3301 13.125 12.8125V7.1875C13.125 6.67188 12.707 6.25 12.1875 6.25ZM10 0C4.47656 0 0 4.47656 0 10C0 15.5234 4.47656 20 10 20C15.5234 20 20 15.5234 20 10C20 4.47656 15.5234 0 10 0ZM10 18.125C5.51953 18.125 1.875 14.4801 1.875 10C1.875 5.51992 5.51953 1.875 10 1.875C14.4805 1.875 18.125 5.51992 18.125 10C18.125 14.4801 14.4805 18.125 10 18.125Z" />
</svg>
