<?xml version="1.0" encoding="utf-8"?>
<!-- Generator: Adobe Illustrator 23.0.2, SVG Export Plug-In . SVG Version: 6.00 Build 0)  -->
<svg version="1.1" id="pax" xmlns="http://www.w3.org/2000/svg" xmlns:xlink="http://www.w3.org/1999/xlink" x="0px" y="0px"
	 viewBox="0 0 500 500" style="enable-background:new 0 0 500 500;" xml:space="preserve">
<style type="text/css">
	.st0{fill-rule:evenodd;clip-rule:evenodd;fill:#B3D336;}
	.st1{fill-rule:evenodd;clip-rule:evenodd;fill:#1E94D2;}
	.st2{fill-rule:evenodd;clip-rule:evenodd;fill:#EDE80A;}
	.st3{fill-rule:evenodd;clip-rule:evenodd;fill:#52B849;}
	.st4{fill-rule:evenodd;clip-rule:evenodd;fill:#00855E;}
	.st5{fill-rule:evenodd;clip-rule:evenodd;fill:#0D5229;}
</style>
<path id="Fill-1" class="st0" d="M139.9,75.2c9.5-10.8,18.1-20,26.3-27.7c-139.4-4.5-98.8,97-144.2,200.2
	c-52.3,118.8,6.2,164.1,93.2,178.2c-12.1-14.4-21.9-30.8-29.4-48.5C29.4,305.7,52.1,175.2,139.9,75.2"/>
<path id="Fill-3" class="st1" d="M475.3,201.7c-13,36.8-36.8,78.1-70.4,118.8c-26.2,31.7-55.4,56.6-85.5,74.7
	c-34.8,22.7-77.9,36.1-126.2,36.1c-27,0-53.6-1.5-77.9-5.5c14.4,17.1,31.8,31.3,52.2,41.1c126,61.4,134-52.7,267.3-110.5
	C509.6,323.9,509.9,260.4,475.3,201.7"/>
<path id="Fill-5" class="st2" d="M319.3,83c18.6,3.4,36.2,9.6,52,18.6c42.3,24.1,80.9,61,103.9,100.1
	c22.7-64.4,12.1-115.1-37.5-124.2c-54.6-10.1-97.3-13.3-138.3-42.1C249-0.2,204.7,11.5,166.3,47.5c2.7,0.1,5.5,0.2,8.3,0.4
	C227.9,51,278.8,61.5,319.3,83"/>
<path id="Fill-7" class="st3" d="M139.9,75.2c-87.8,100-110.5,230.5-54,302.1c-25.4-60-23.6-134.8,12.1-194.5
	c47.6-79.5,143-114.2,221.3-99.8c-40.6-21.6-91.4-32-144.7-35.2c-2.9-0.2-5.6-0.3-8.3-0.4C158,55.2,149.4,64.4,139.9,75.2"/>
<path id="Fill-9" class="st4" d="M371.3,101.6c-15.8-9-33.4-15.1-52-18.6c53.4,28.4,89,76.2,88.6,152.3
	c-0.4,66-34.2,124.3-88.6,159.9c30.1-18.1,59.3-43,85.5-74.7c33.7-40.6,57.4-81.9,70.4-118.8C452.2,162.7,413.7,125.7,371.3,101.6"
	/>
<path id="Fill-11" class="st5" d="M310.5,359c-60.3,39.1-140.8,21.6-179.7-38.9s-19.7-138.6,38.8-180.4
	c65.3-46.8,149.2-28.3,179.7,38.9C379.1,244.2,370.9,319.9,310.5,359 M319.3,83C241,68.6,145.6,103.3,98,182.8
	c-35.7,59.7-37.5,134.5-12.1,194.5c7.5,17.7,17.3,34.2,29.4,48.5c24.3,3.9,50.9,5.4,77.9,5.4c48.3,0,91.4-13.4,126.2-36.1
	c54.4-35.5,88.2-93.8,88.6-159.9C408.3,159.2,372.8,111.5,319.3,83"/>
</svg>
