<?xml version="1.0" encoding="utf-8"?>
<!-- Generator: Adobe Illustrator 24.1.0, SVG Export Plug-In . SVG Version: 6.00 Build 0)  -->
<svg version="1.1" id="PAXG" xmlns="http://www.w3.org/2000/svg" xmlns:xlink="http://www.w3.org/1999/xlink" x="0px" y="0px"
	 viewBox="0 0 500 500" style="enable-background:new 0 0 500 500;" xml:space="preserve">
<style type="text/css">
	.st0{filter:url(#Adobe_OpacityMaskFilter);}
	.st1{fill-rule:evenodd;clip-rule:evenodd;fill:#FFFFFF;}
	.st2{mask:url(#mask-2_1_);fill:#EFE812;}
	.st3{fill:#EDE70A;}
	.st4{fill:#DEC21C;}
	.st5{fill:#E5CB22;}
	.st6{fill:#CCA727;}
</style>
<defs>
	<filter id="Adobe_OpacityMaskFilter" filterUnits="userSpaceOnUse" x="4.3" y="50.6" width="162.5" height="372.3">
		<feColorMatrix  type="matrix" values="1 0 0 0 0  0 1 0 0 0  0 0 1 0 0  0 0 0 1 0"/>
	</filter>
</defs>
<mask maskUnits="userSpaceOnUse" x="4.3" y="50.6" width="162.5" height="372.3" id="mask-2_1_">
	<g class="st0">
		<polygon id="path-1_2_" class="st1" points="4.3,50.6 166.8,50.6 166.8,422.9 4.3,422.9 		"/>
	</g>
</mask>
<path id="Fill-1" class="st2" d="M140.7,78c9.4-10.6,17.9-19.7,26.1-27.3C28.7,46.3,68.9,146.1,23.9,247.6
	C-27.9,364.5,30,409,116.3,422.9c-12-14.1-21.7-30.3-29.2-47.7C31.2,304.7,53.7,176.4,140.7,78"/>
<path id="Fill-4" class="st3" d="M473.1,202.5c-12.9,36.2-36.4,76.8-69.8,116.8c-26,31.1-54.9,55.7-84.7,73.5
	c-34.5,22.3-77.3,35.5-125.1,35.5c-26.8,0-53.1-1.5-77.2-5.4c14.2,16.8,31.6,30.7,51.7,40.5c124.9,60.4,132.8-51.8,264.9-108.7
	C507.2,322.7,507.4,260.2,473.1,202.5"/>
<path id="Fill-6" class="st3" d="M318.6,85.8c18.4,3.4,35.9,9.4,51.6,18.3c41.9,23.7,80.1,60,103,98.5
	c22.5-63.4,12-113.2-37.2-122.2c-54.1-9.9-96.4-13.1-137-41.5c-50.1-35-94-23.4-132,11.9c2.7,0.1,5.4,0.2,8.2,0.4
	C227.9,54.2,278.4,64.5,318.6,85.8"/>
<path id="Fill-8" class="st4" d="M140.7,78c-87,98.3-109.5,226.7-53.6,297.2c-25.1-59-23.4-132.6,12-191.3
	c47.2-78.2,141.7-112.3,219.4-98.1c-40.2-21.2-90.6-31.5-143.5-34.6c-2.8-0.2-5.6-0.3-8.3-0.4C158.7,58.3,150.1,67.4,140.7,78"/>
<path id="Fill-10" class="st5" d="M370.1,104c-15.7-8.9-33.1-14.9-51.6-18.3c53,28,88.2,74.9,87.8,149.8
	c-0.4,64.9-33.9,122.3-87.8,157.2c29.8-17.8,58.7-42.3,84.7-73.5c33.4-40,56.9-80.6,69.8-116.8C450.3,164.1,412.1,127.7,370.1,104"
	/>
<path id="Fill-12" class="st6" d="M318.6,85.8c-77.6-14.2-172.2,19.9-219.4,98.1c-35.4,58.7-37.2,132.3-12,191.3
	c7.4,17.4,17.2,33.6,29.2,47.7c24.1,3.9,50.4,5.3,77.2,5.3c47.8,0,90.6-13.2,125.1-35.5c53.9-34.9,87.4-92.3,87.8-157.2
	C406.8,160.7,371.5,113.7,318.6,85.8 M309.9,357.2c-59.8,38.4-139.5,21.3-178.1-38.3c-38.6-59.6-19.5-136.3,38.4-177.5
	c64.8-46,147.8-27.9,178.1,38.3C377.8,244.2,369.7,318.8,309.9,357.2"/>
</svg>
