<?xml version="1.0" encoding="iso-8859-1"?>
<!-- Generator: Adobe Illustrator 19.0.0, SVG Export Plug-In . SVG Version: 6.00 Build 0)  -->
<svg version="1.1" id="Layer_1" xmlns="http://www.w3.org/2000/svg" xmlns:xlink="http://www.w3.org/1999/xlink" x="0px" y="0px"
	 viewBox="0 0 500 500" style="enable-background:new 0 0 500 500;" xml:space="preserve">
<path style="fill:#2D2D2D;" d="M361.576,406.222c-37.682-40.253-74.857-79.963-112.56-120.238
	c-37.3,39.956-74.368,79.663-111.693,119.644c-35.691-38.798-71.002-77.185-106.315-115.57
	c-8.061-8.762-16.336-17.338-24.133-26.329c-7.432-8.569-8.091-18.164-0.38-26.618c43.057-47.209,86.397-94.161,130.182-141.789
	c37.443,39.99,74.698,79.779,112.492,120.144c37.286-39.95,74.349-79.661,111.664-119.641
	c39.003,42.374,77.69,84.316,116.274,126.352c26.592,28.972,26.621,29.114,0.098,58.069
	c-37.252,40.668-74.659,81.194-111.994,121.787C364.05,403.294,362.961,404.621,361.576,406.222z M216.169,250.856
	c-26.133-28.026-51.958-55.721-78.059-83.713c-21.084,22.539-41.99,44.403-62.293,66.812c-9.101,10.045-8.389,25.852,0.772,36.134
	c7.909,8.877,16.279,17.344,24.47,25.969c12.209,12.855,24.439,25.69,36.823,38.704C164.232,306.52,189.985,278.919,216.169,250.856
	z M360.071,334.313c21.096-22.563,42.146-44.339,62.267-66.941c8.643-9.709,9.87-22.79,1.466-32.545
	c-20.164-23.403-41.904-45.447-63.297-68.35c-26.588,28.479-52.535,56.272-78.521,84.107
	C308.245,278.741,333.895,306.245,360.071,334.313z"/>
</svg>
