<?xml version="1.0" encoding="utf-8"?>
<!-- Generator: Adobe Illustrator 25.2.2, SVG Export Plug-In . SVG Version: 6.00 Build 0)  -->
<svg version="1.1" id="pbr" xmlns="http://www.w3.org/2000/svg" xmlns:xlink="http://www.w3.org/1999/xlink" x="0px" y="0px"
	 viewBox="0 0 500 500" style="enable-background:new 0 0 500 500;" xml:space="preserve">
<style type="text/css">
	.st0{fill:#E0077D;}
</style>
<circle class="st0" cx="442.3" cy="207.6" r="47.2"/>
<path class="st0" d="M112.3,238.6c0,0,40.6-31,103.1-31c70.5,0,169.1,53.6,231.5,53.6c35,0,42.5-11.2,42.5-11.2s-33.5,39-101.2,39
	c-75.6,0-156.2-55.6-228.5-55.6C119.9,233.4,112.3,238.6,112.3,238.6z"/>
<path class="st0" d="M11.1,293.1c0,0,40.6-31,103.1-31c70.5,0,169.1,53.6,231.5,53.6c35,0,42.5-11.2,42.5-11.2s-33.5,39-101.2,39
	c-75.6,0-156.2-55.6-228.5-55.6C18.6,288,11.1,293.1,11.1,293.1z"/>
</svg>
