<?xml version="1.0" encoding="utf-8"?>
<!-- Generator: Adobe Illustrator 24.2.2, SVG Export Plug-In . SVG Version: 6.00 Build 0)  -->
<svg version="1.1" id="Layer_1" xmlns="http://www.w3.org/2000/svg" xmlns:xlink="http://www.w3.org/1999/xlink" x="0px" y="0px"
	 viewBox="0 0 500 500" style="enable-background:new 0 0 500 500;" xml:space="preserve">
<style type="text/css">
	.st0{fill:#FF6766;}
	.st1{fill:#D95E59;}
	.st2{fill:#FEF4C8;}
	.st3{fill:#F5F7E2;}
	.st4{fill:#FFFFFF;}
	.st5{fill:#F39321;}
</style>
<path class="st0" d="M495.5,250.1c0,67.8-27.6,129.2-72.1,173.6C379.1,467.8,318,495,250.5,495s-128.6-27.3-172.9-71.4
	C33.1,379.2,5.5,317.8,5.5,250.1c0-135.3,109.7-245,245-245C385.9,4.9,495.5,114.6,495.5,250.1z"/>
<path class="st1" d="M495.5,250.1c0,135.3-109.7,245-245,245c-67.6,0-128.7-27.3-173-71.5L424,76.9
	C468.1,121.2,495.5,182.4,495.5,250.1z"/>
<path class="st2" d="M423.5,423.7C379.2,467.8,318.1,495,250.6,495S122,467.8,77.7,423.7c44.3-44.1,105.4-71.4,172.9-71.4
	S379,379.5,423.5,423.7z"/>
<path class="st3" d="M407,250c0,43.3-17.6,82.5-46,110.9c-28.3,28.2-67.3,45.6-110.4,45.6s-82.1-17.4-110.4-45.6
	C111.6,332.6,94,293.4,94,250c0-86.4,70.1-156.5,156.5-156.5C336.9,93.5,407,163.6,407,250z"/>
<path class="st4" d="M372.6,250c0,33.8-13.7,64.4-35.9,86.5c-22.1,22-52.5,35.6-86.1,35.6s-64.1-13.6-86.1-35.6
	c-22.2-22.1-36-52.7-36-86.5c0-67.4,54.6-122,122-122C317.9,128,372.6,182.6,372.6,250z"/>
<path class="st5" d="M132,179c4.3-6.1,8.4-12.3,13.3-18c8.9-10.3,19-19.2,30.5-26.5c10.4-6.6,21.3-11.8,33-15.4
	c18.2-5.6,36.8-7.3,55.7-5.2c13.8,1.6,27.2,5.1,39.8,10.8c7.7,3.5,14.9,7.7,22,12.4c14.3,9.3,25.7,21.4,35.3,35.3
	c10.2,14.8,16.8,31.2,20.5,48.9c2.6,12.4,3.6,24.9,2.5,37.5c-1.4,15.5-4.8,30.5-11.2,44.8c-5.4,12.2-12.2,23.3-20.8,33.4
	c-8.4,9.9-17.9,18.5-28.8,25.6c-7.4,4.8-15.2,9.2-23.3,12.4c-13.7,5.4-27.9,9-42.7,9.6c-10.4,0.4-20.8,0.3-31.1-1.6
	c-8.9-1.6-17.5-3.9-26-7c-8.2-3.1-16.2-6.7-23.5-11.3c-10.6-6.7-20.1-14.7-28.6-24c-9.4-10.4-17.1-21.9-23-34.6
	c-8.3-17.9-12.4-36.8-12.6-56.6c-0.1-7.4,0.8-14.8,1.7-22.1c0.1-0.5,0-1.1,0-1.6c0.9-0.5,0.8-1.5,0.9-2.3
	c2.2-11.5,5.9-22.6,10.9-33.2C128.4,186.5,130.8,183,132,179z M290.8,251.9c3.7-2,7.2-3.1,9.9-5.5c10.7-9.5,13.5-31.9-3.8-42.7
	c-5.4-3.4-11.1-5.9-17.3-8.4c1-8.3,4.3-16.1,5.4-24.6c-5.1-1.3-9.9-2.9-14.9-3.5c-2,8-4,15.6-6,23.6c-3.8-1.2-7.8-1.1-11.3-3.1
	c1.3-8.1,4.4-15.7,5.2-23.8c-5.3-0.8-9.7-2.9-14.8-3.1c-2,8-3.9,15.8-6,23.8c-10.1-1.5-19.4-5-29.6-6.9c-2.2,5-3.2,10.3-4.1,16
	c3.3,0.8,6.2,1.5,9.1,2.1c7.3,1.7,9.3,5.7,7.6,12.1c-1.2,4.5-2.3,9.1-3.5,13.7c-4.1,16.4-8.1,32.9-12.2,49.3c-0.9,3.7-3.2,4.9-7,4.4
	c-3.7-0.5-7.2-2.2-11.3-2.1c-1.8,5.7-5.3,10.6-6.5,16.9c9.7,2.5,19.1,4.9,28.9,7.4c-0.7,8.6-4.3,16.4-5.3,25
	c4.9,1.2,9.6,2.3,14.4,3.4c3.2-7.9,3.9-16.2,6.9-24.4c3.6,1.8,7.5,1.3,11,3.6c-1.9,7.9-3.8,15.7-5.7,23.7c5.1,1.8,10,2.6,15.1,3.8
	c2.1-8.2,4-16.2,6-23.9c1.2-0.6,2.1-0.5,2.9-0.3c8,1.7,16,2.1,24,1.2c7-0.8,13.2-3.4,18.1-8.7c5.5-5.8,8.3-12.9,9.6-20.6
	c1.1-6.2,0.8-12.6-2.9-18.1C299.8,257.9,295.9,254.6,290.8,251.9z M233.3,284.4c9.8,2.4,19.6,5,29.9,3.2c5.5-1,9.6-3.8,11.3-9.3
	c1.6-5.2,0.7-9.9-3.2-14c-4-4.3-9.2-6.5-14.5-8.3c-6.3-2.2-12.8-4.2-19.7-4.8c-2.7,10.8-5.2,21.3-7.9,32
	C230.8,283.6,232,284.1,233.3,284.4z M267.9,239.1c5.4-0.8,9.9-4.4,11.2-9.2c1.6-6-0.2-11.2-5-14.7c-5.5-4-11.8-6.1-18.3-7.5
	c-2.4-0.5-4.8-1.9-7.7-1c-2.3,9.5-4.7,19-7.1,28.9C250.3,237.8,258.8,240.4,267.9,239.1z"/>
</svg>
