<?xml version="1.0" encoding="utf-8"?>
<!-- Generator: Adobe Illustrator 25.0.1, SVG Export Plug-In . SVG Version: 6.00 Build 0)  -->
<svg version="1.1" id="perl" xmlns="http://www.w3.org/2000/svg" xmlns:xlink="http://www.w3.org/1999/xlink" x="0px" y="0px"
	 viewBox="0 0 500 500" style="enable-background:new 0 0 500 500;" xml:space="preserve">
<style type="text/css">
	.st0{fill-rule:evenodd;clip-rule:evenodd;}
	.st1{fill-rule:evenodd;clip-rule:evenodd;fill:#B4E1FF;}
	.st2{fill-rule:evenodd;clip-rule:evenodd;fill:#90D595;}
	.st3{fill-rule:evenodd;clip-rule:evenodd;fill:#FFFFFF;}
	.st4{fill-rule:evenodd;clip-rule:evenodd;fill:#41474E;}
</style>
<path id="logo-perlin_svg_Shape" class="st0" d="M237.1,12.2v10.8c3.8-1.5,7.3-3.5,10.5-6c-3.6,0-7.2-4.8-10.8-4.8L237.1,12.2z"/>
<path id="logo-perlin_svg_Shape-2" class="st1" d="M249.8,12.9c-3.8,0-7.8-0.6-11.5-0.7h-1.2C105.9,19.3,5.2,131.5,12.3,262.8
	c4,73.4,41.6,140.9,102.1,182.9c-15.4-13.9-24.1-33.8-24.1-54.5c0.3-40.6,33.1-73.4,73.7-73.7l14.7-0.5v-3.2
	c0-31.7,20.3-59.7,50.4-69.6c7.4-2.5,15.1-3.7,22.8-3.7c28.8,0,55,16.9,66.8,43.2l0,0c67.8-46.5,85-139.1,38.5-206.9
	C332.6,40.7,293.3,17.4,249.8,12.9z"/>
<path id="logo-perlin_svg_Shape-3" class="st2" d="M257.6,12.2c128.7,15.6,168.5,110.1,168.6,195.4c0,87.3-73.3,150.9-137.4,167.7
	c-23.9,5.9-48.2,10.2-72.6,13.1l-9.7,1.2c-2.3,0.3-4.6,0.8-6.9,1.5c-13.9,4.1-25.3,14.3-30.8,27.7c-2.4,5.8-3.6,11.9-3.6,18.2
	c0,20.4,12.9,38.5,32.1,45.3c3.3,0.8,6.8,1.4,10.3,2.1c14,2.5,28.1,3.7,42.3,3.7c131.4-0.4,237.7-107.3,237.2-238.8
	C486.7,121.4,385.4,16.8,257.6,12.2L257.6,12.2z"/>
<path id="logo-perlin_svg_Shape-4" class="st3" d="M257.6,12.2c-2.6,0-5.1,0-7.8,0l0,0c-3.8,0-7.8,0-11.5,0c3.9,0,7.8,0.4,11.5,0.8
	C331.6,21.1,391.2,94,383,175.7c-4.4,43.8-27.9,83.3-64.2,108.1l0,0c-16.3-37-59.6-53.8-96.6-37.4c-26.7,11.8-43.9,38.3-43.7,67.5
	v3.1l-14.8,0.5c-40.7,0.1-73.6,33.1-73.5,73.8c0,20.7,8.8,40.4,24.1,54.3c4.7,3.3,9.4,6.2,14.3,9.2c21.3,12.7,44.5,21.9,68.6,27.3
	c-19.2-6.7-32.1-24.8-32.1-45.2c0-6.3,1.2-12.5,3.6-18.2c5.6-13.4,16.9-23.6,30.8-27.7c2.3-0.6,4.5-1.1,6.9-1.4l9.7-1.1
	c24.4-2.9,48.7-7.3,72.6-13.2c64.1-16.9,137.5-80.5,137.4-167.7C426.2,121.8,386.3,27.4,257.6,12.2z"/>
<path id="logo-perlin_svg_Shape-5" class="st4" d="M249.9,0c-4.1,0-7.8,0-12.1,0h-0.5C99.5,6.9-6.6,124.3,0.3,262.2
	c3.9,77.3,43.4,148.5,107,192.7c4.6,4.1,9.6,7.7,14.9,10.8c1.3,0.7,2.8,1.1,4.3,1.3c21.2,12.1,44.1,21,67.9,26.4
	c3.9,1.3,7.9,2.3,11.9,2.7l0,0c14.5,2.6,29.1,3.9,43.8,3.9c138.1,2.4,251.9-107.5,254.3-245.6S396.8,2.4,258.7,0
	C255.8-0.1,252.9-0.1,249.9,0z M156.4,455.7c-12.5-5.6-24.4-12.4-35.6-20.2c-24.5-23.8-25.1-62.9-1.3-87.4
	c11.7-12,27.8-18.8,44.5-18.7c4.8,0,10.4,0,15-0.5c6.4-0.3,11.4-5.5,11.5-11.9v-3.1c0-33.9,27.4-61.4,61.3-61.4
	c24.2,0,46.2,14.2,56.1,36.3c2.7,5.9,9.6,8.6,15.6,6c0.6-0.3,1.2-0.7,1.7-1.2l0,0c67.4-45.8,89.6-134.9,51.7-207
	c31.8,41.2,37.1,92.1,37.1,120.8c0,79.5-66.2,139.8-128.5,155.8c-26.7,6.4-53.7,11-81,13.9c-29.5,4.2-51.4,29.4-51.5,59.2
	c0.1,6.4,1.2,12.7,3.3,18.8L156.4,455.7z M24,250C23.9,128.7,119.7,28.9,240.9,24.1c75.4,3.2,133.9,66.9,130.7,142.3
	c-1.6,38.5-19.5,74.5-49.1,99.2c-26.4-38.9-79.4-49-118.3-22.6c-20.9,14.2-34.4,36.9-36.9,62h-3.7c-47.3,0-85.7,38.4-85.7,85.7
	c0,2.1,0,4.1,0.5,6.2c-35.2-40.9-54.6-93-54.5-146.9L24,250z M249.9,475.9c-16.7-0.1-33.4-2-49.7-5.7c-18.5-7-27.9-27.8-20.9-46.3
	c4.6-12.2,15.4-20.9,28.3-22.8c28.4-3.1,56.5-8,84.2-14.6c70.9-18.6,146.3-87.8,146.2-179.2c1.1-42.5-10-84.4-31.9-120.8
	c90.4,86.1,93.8,229.1,7.8,319.4c-42.6,44.8-101.8,70.1-163.6,70.1L249.9,475.9z"/>
</svg>
