<?xml version="1.0" encoding="utf-8"?>
<!-- Generator: Adobe Illustrator 25.4.1, SVG Export Plug-In . SVG Version: 6.00 Build 0)  -->
<svg version="1.1" id="perp" xmlns="http://www.w3.org/2000/svg" xmlns:xlink="http://www.w3.org/1999/xlink" x="0px" y="0px"
	 viewBox="0 0 500 500" style="enable-background:new 0 0 500 500;" xml:space="preserve">
<style type="text/css">
	.st0{fill-rule:evenodd;clip-rule:evenodd;fill:#3CEAAA;}
	.st1{fill-rule:evenodd;clip-rule:evenodd;fill:#03BCE4;}
	.st2{opacity:0.95;fill:#00A4E1;enable-background:new    ;}
</style>
<path class="st0" d="M143.5,44.1c28.1-27.5,73-27.5,101.1,0l66.5,65.1c28.9,28.3,28.9,74.9,0,103.2L195.3,325.9l83.1,81.4
	c15.8,15.5,16.1,40.9,0.6,56.7c-15.5,15.8-40.9,16.1-56.7,0.6L20.9,267.5C-8,239.1-8,192.6,20.9,164.3L143.5,44.1z M137.9,269.8
	l111.2-108.9l-55-53.9L82.9,215.9L137.9,269.8z"/>
<path class="st1" d="M310.7,99.1c28.1-27.5,73-27.5,101.1,0l66.5,65.1c28.9,28.3,28.9,74.9,0,103.2L277,464.7
	c-15.8,15.5-41.2,15.2-56.7-0.6c-15.5-15.8-15.2-41.2,0.6-56.7l83.1-81.4l-59.7-58.5c-28.9-28.3-28.9-74.9,0-103.2L310.7,99.1z
	 M361.3,269.8l55-53.9l-55-53.9l-55,53.9L361.3,269.8z"/>
<path class="st2" d="M306.2,216l-58.4-55.5l-56.1,55.1l57.1,56.8L306.2,216z"/>
</svg>
