<?xml version="1.0" encoding="utf-8"?>
<!-- Generator: Adobe Illustrator 25.4.1, SVG Export Plug-In . SVG Version: 6.00 Build 0)  -->
<svg version="1.1" id="pickle" xmlns="http://www.w3.org/2000/svg" xmlns:xlink="http://www.w3.org/1999/xlink" x="0px" y="0px"
	 viewBox="0 0 500 500" style="enable-background:new 0 0 500 500;" xml:space="preserve">
<style type="text/css">
	.st0{fill:#0E560E;}
	.st1{fill:#48C148;}
</style>
<path class="st0" d="M169.7,131.7h0.4c-42.9,0-81.6-26.1-97.7-65.9c-5.1,12.6-7.8,26-7.8,39.6v290.3
	c1.3,57.4,48.2,103.2,105.5,103.2s104.2-45.8,105.5-103.2V237.8c0-58.5-47.4-105.9-105.9-105.9"/>
<path class="st1" d="M272.6,1.2C265.5,0.4,258.4,0,251.3,0h-81c-43-0.1-81.7,26-97.9,65.8c16.1,39.8,54.8,65.9,97.7,65.9
	c58.4,0.2,105.6,47.7,105.5,106.2v129.7c92.1-12.5,160.5-91.6,159.7-184.5C434.6,90.1,364.8,12.2,272.6,1.2 M98.2,206.9
	c-2.2,0-4.3-0.9-5.8-2.4c-6.9-6.9-10.7-16.2-10.7-25.9c0-9.7,3.9-19,10.7-25.9c3.2-3.2,8.4-3.2,11.6,0c3.2,3.2,3.2,8.4,0,11.6
	c-7.8,7.9-7.8,20.6,0,28.5c2.4,2.4,3.1,5.9,1.8,9S101.5,206.9,98.2,206.9 M98.2,298.1c-2.2,0-4.2-0.9-5.8-2.4
	c-14.3-14.3-14.3-37.6,0-51.9c3.2-3.2,8.4-3.2,11.6,0c3.2,3.2,3.2,8.4,0,11.7c-7.8,7.9-7.8,20.6,0,28.5c1.6,1.5,2.4,3.6,2.4,5.8
	c0,2.2-0.9,4.3-2.4,5.8C102.5,297.3,100.4,298.1,98.2,298.1 M98.2,389.2c-2.2,0-4.3-0.9-5.8-2.4c-6.9-6.9-10.7-16.2-10.7-25.9
	c0-9.7,3.9-19,10.7-25.9c3.2-3.2,8.4-3.2,11.6,0c3.2,3.2,3.2,8.4,0,11.7c-7.8,7.9-7.8,20.6,0,28.5c2.3,2.4,3,5.9,1.7,9
	C104.5,387.2,101.5,389.2,98.2,389.2 M140.3,252.5c-2.2,0-4.3-0.8-5.8-2.4c-14.3-14.4-14.3-37.5,0-51.9c3.2-3.2,8.4-3.2,11.7,0
	c1.6,1.5,2.4,3.6,2.4,5.8s-0.9,4.3-2.4,5.8c-7.8,7.9-7.8,20.6,0,28.5c2.4,2.4,3.1,5.9,1.8,9C146.7,250.5,143.6,252.5,140.3,252.5
	 M140.3,343.7c-2.2,0-4.3-0.9-5.8-2.4c-14.3-14.4-14.3-37.5,0-51.9c3.2-3.2,8.4-3.2,11.7,0c1.6,1.6,2.4,3.6,2.4,5.8
	c0,2.2-0.9,4.3-2.4,5.8c-8,7.8-8.2,20.6-0.4,28.6c1.6,1.5,2.4,3.6,2.4,5.8c0,2.2-0.9,4.3-2.4,5.8c-1.6,1.5-3.7,2.4-5.8,2.4"/>
</svg>
