<svg width="24" height="24" viewBox="0 0 24 24" fill="none" xmlns="http://www.w3.org/2000/svg">
<path fill-rule="evenodd" clip-rule="evenodd" d="M8.91645 2.43004C9.13734 2.93623 8.90606 3.52564 8.39988 3.74653C7.05247 4.33452 5.86961 5.24362 4.95472 6.39436C4.03982 7.5451 3.42075 8.90243 3.15161 10.3477C2.88248 11.793 2.97149 13.2822 3.41085 14.6851C3.85021 16.088 4.62655 17.3619 5.67199 18.3955C6.71744 19.4291 8.00016 20.1908 9.40801 20.6141C10.8159 21.0375 12.306 21.1095 13.7481 20.8238C15.1902 20.5382 16.5403 19.9037 17.6806 18.9757C18.8208 18.0477 19.7163 16.8546 20.2889 15.5005C20.504 14.9919 21.0907 14.7539 21.5994 14.969C22.1081 15.1841 22.3461 15.7708 22.131 16.2795C21.4312 17.9344 20.3366 19.3927 18.943 20.5269C17.5494 21.6611 15.8992 22.4366 14.1366 22.7857C12.3741 23.1348 10.5528 23.0468 8.83212 22.5294C7.11141 22.0121 5.54364 21.081 4.26588 19.8178C2.98811 18.5545 2.03925 16.9975 1.50225 15.2828C0.965257 13.5681 0.856473 11.748 1.18541 9.98156C1.51435 8.21512 2.271 6.55616 3.38921 5.1497C4.50741 3.74324 5.95313 2.63212 7.59996 1.91347C8.10614 1.69258 8.69556 1.92385 8.91645 2.43004Z" fill="black"/>
<path fill-rule="evenodd" clip-rule="evenodd" d="M11.2928 1.29289C11.4803 1.10536 11.7347 1 11.9999 1C13.4445 1 14.8749 1.28452 16.2094 1.83733C17.544 2.39013 18.7566 3.20038 19.7781 4.22183C20.7995 5.24327 21.6098 6.4559 22.1626 7.79048C22.7154 9.12506 22.9999 10.5555 22.9999 12C22.9999 12.5523 22.5522 13 21.9999 13H11.9999C11.4476 13 10.9999 12.5523 10.9999 12V2C10.9999 1.73478 11.1053 1.48043 11.2928 1.29289ZM12.9999 3.05573V11H20.9442C20.8504 10.1614 20.639 9.33849 20.3148 8.55585C19.8625 7.46392 19.1996 6.47177 18.3639 5.63604C17.5281 4.80031 16.536 4.13738 15.4441 3.68508C14.6614 3.3609 13.8385 3.14949 12.9999 3.05573Z" fill="black"/>
</svg>
