<?xml version="1.0" encoding="iso-8859-1"?>
<!-- Generator: Adobe Illustrator 19.0.0, SVG Export Plug-In . SVG Version: 6.00 Build 0)  -->
<svg version="1.1" id="Layer_1" xmlns="http://www.w3.org/2000/svg" xmlns:xlink="http://www.w3.org/1999/xlink" x="0px" y="0px"
	 viewBox="1000 -1000 2500 2500" style="enable-background:new 1000 -1000 2500 2500;" xml:space="preserve">
<g>
	<path style="fill:#5E4778;" d="M2248.986-971.772l-997.174,208.434V618.805c0,202.362,207.323,393.594,431.835,542.332
		c175.935,115.348,360.032,216.535,550.164,304.563l16.176,6.109l16.176-6.109c40.453-15.175,982.012-415.855,982.012-846.896
		V-763.337L2248.986-971.772z M3167.282,618.805c0,301.521-648.26,620.245-918.296,726.49l-13.146-5.058l-5.058-2.028l-9.102-4.044
		l-5.058-2.028l-9.102-4.044l-3.03-1.014l-11.13-5.058l-3.03-1.014l-12.132-5.058l-2.028-1.014l-13.146-5.058h-0.99l-15.174-6.109
		h-1.014c-134.505-59.696-309.463-147.724-463.186-250.927l-18.204-12.144l-18.204-13.158l-17.19-12.144l-1.014-1.014
		l-16.176-12.144l-1.014-1.014l-16.201-12.047l-1.014-1.014l-16.176-12.144l-2.028-1.014l-15.174-11.13l-2.028-1.014l-14.16-11.13
		l-2.028-2.028l-13.146-11.13l-2.028-2.028l-12.132-11.13l-3.03-2.028l-11.13-11.13l-3.03-3.03l-11.13-11.13l-3.03-3.03
		l-11.13-10.116l-3.03-3.03l-10.116-10.116l-3.03-4.044l-9.102-10.116l-3.03-4.044l-9.102-10.116l-3.03-4.044l-8.088-10.116
		l-4.044-4.044l-7.074-9.102l-4.044-5.058l-7.074-9.102l-4.044-5.058l-6.109-9.102l-3.03-5.058l-6.109-9.102l-3.03-6.109
		c-2.028-3.03-3.03-6.109-5.058-8.1l-4.044-6.109c-1.746-2.482-3.109-5.213-4.044-8.1l-3.03-6.109c-1.014-3.03-3.03-5.058-4.044-8.1
		c-0.801-2.133-1.816-4.18-3.03-6.109c-1.177-2.635-2.189-5.34-3.03-8.1c-1.014-3.03-2.028-4.044-3.03-7.086
		c-0.824-2.438-1.837-4.807-3.03-7.086c-1.138-2.205-1.827-4.613-2.028-7.086c0-2.028-2.028-5.058-2.028-7.086
		c-0.201-2.473-0.89-4.882-2.028-7.086c-1.014-2.028-1.014-4.044-2.028-7.086c-1.014-3.042-1.014-5.058-2.028-8.1
		c-0.758-1.944-1.103-4.024-1.014-6.109c0-2.028-1.014-5.058-1.014-8.1c0-3.042-1.014-4.044-1.014-6.109
		c-0.295-3.107-0.977-6.164-2.028-9.102c-1.014-3.03,0-3.03,0-5.058V-689.469l913.323-146.686h8.088l913.299,146.686l1.014,1308.286
		L3167.282,618.805z"/>
	<path style="fill:#5E4778;" d="M2248.986-735.005l-691.731,111.303l-142.617,22.261V583.398
		c0,274.202,589.603,564.593,834.348,660.722c142.593-55.652,401.499-177.071,592.645-322.768
		c14.16-11.13,29.323-22.261,42.481-33.391c65.731-53.624,120.344-110.289,155.751-167.957
		c27.307-44.521,43.483-90.057,43.483-135.617V-601.44L2248.986-735.005z M1846.473-106.672h486.449V-5.484h-486.449V-106.672z
		 M2795.106-59.108c0,239.797-166.87,394.632-397.455,394.632h-319.579v505.911h-126.417V221.167h428.842
		c171.928,0,284.184-104.217,284.184-280.275c0-174.029-112.257-275.216-282.168-275.216h-133.527l-319.579,1.014v-115.348h467.206
		c231.599,0,398.469,149.753,398.469,389.55"/>
	<path style="fill:#5E4778;" d="M2248.986-971.772v135.617h4.044l913.299,146.686V617.754c0,301.521-648.26,620.245-918.296,726.49
		v126.478l16.176-6.109c40.453-15.175,982.012-415.855,982.012-846.896V-763.337L2248.986-971.772z"/>
	<path style="fill:#5E4778;" d="M2396.613,334.486h-318.541v59.684c54.153,43.262,111.641,82.174,171.928,116.374
		c201.25,115.348,460.156,193.26,790.865,208.434c27.307-44.521,43.483-90.057,43.483-135.617V-601.44L2250-735.005
		l-692.745,111.303C1589.62-363.659,1685.7-4.47,1951.68,277.832v-56.666h428.842c171.928,0,284.184-104.217,284.184-280.275
		c0-174.029-112.256-275.216-282.168-275.216h-133.552l-319.579,1.014v-115.348h467.206c230.585,0,397.455,150.767,397.455,388.524
		c0,239.797-165.856,394.632-397.455,394.632 M2248.986-106.672h82.873V-5.484h-485.386v-101.187H2248.986L2248.986-106.672z"/>
</g>
<g>
	<path style="fill:#3D3144;" d="M2236.854,1340.237l-5.058-2.028l-9.102-3.03l-5.058-2.028l-9.102-4.044l-3.03-1.014l-11.13-5.058
		l-3.03-1.014l-12.132-5.058l-2.028-1.014l-13.146-6.109h-2.004l-15.174-6.109h-1.014
		c-133.491-59.696-308.461-147.724-462.184-251.942l-18.204-12.144l-18.204-14.16l-17.19-12.144l-1.014-1.014l-16.176-12.144
		l-1.014-1.014l-16.176-12.144l-1.014-1.014l-16.176-12.144l-2.028-1.014l-15.174-11.13l-2.028-1.014l-14.16-11.13l-2.016-1.943
		l-13.146-11.13l-2.028-2.028l-12.132-11.13l-3.03-2.028l-11.13-11.13l-3.03-3.03l-11.13-11.13l-3.03-3.03l-11.13-10.116l-3.03-3.03
		l-10.116-10.116l-3.03-4.044l-9.102-10.116l-3.03-4.044l-9.102-10.116l-3.03-4.044l-9.102-8.1l-4.044-4.044l-7.074-9.102
		l-4.044-5.058l-7.074-9.102l-4.044-5.058l-6.109-9.102l-3.03-5.058l-6.109-9.102l-3.03-5.058c-2.028-3.03-3.03-6.109-5.058-8.1
		l-4.044-6.109l-4.044-8.1l-3.03-6.109c-1.014-3.03-3.03-5.058-4.044-8.1c-0.801-2.133-1.816-4.18-3.03-6.109
		c-1.177-2.635-2.189-5.34-3.03-8.1c-1.014-3.03-2.028-4.044-3.03-7.086c-0.824-2.438-1.837-4.807-3.03-7.086
		c-1.269-2.151-1.967-4.59-2.028-7.086c0-3.03-2.028-6.109-2.028-8.1c-0.201-2.473-0.89-4.882-2.028-7.086
		c-1.014-2.028-1.014-4.044-2.028-7.086c-1.014-3.042-1.014-5.058-2.028-8.1c-0.758-1.944-1.104-4.024-1.014-6.109
		c0-2.028-1.014-5.058-1.014-8.1c0-3.042-1.014-4.044-1.014-6.109c-0.295-3.107-0.977-6.164-2.028-9.102c-1.014-3.03,0-3.03,0-5.058
		V-689.469l913.299-146.686h4.044v-135.617l-997.174,208.434V618.805c0,202.362,207.323,393.594,431.835,542.332
		c175.935,115.348,360.032,216.535,550.164,304.563l16.176,6.109v-126.515l-13.146-5.058"/>
	<path style="fill:#3D3144;" d="M2248.986,510.543c-60.287-34.199-117.775-73.112-171.928-116.374v447.169h-126.392V277.82
		c-266.004-283.305-361.07-642.505-393.411-901.521l-142.617,22.261V583.398c0,274.202,589.603,564.593,834.348,660.722
		c142.593-55.652,401.499-177.071,592.645-322.768c14.16-11.13,29.323-22.261,42.481-33.391
		c65.731-53.624,120.344-110.289,155.751-167.957c-330.709-17.203-588.601-95.115-790.865-209.448"/>
</g>
</svg>
