<svg width="24" height="24" viewBox="0 0 24 24" fill="currentColor" xmlns="http://www.w3.org/2000/svg">
<path d="M9.35547 7.74609C9.64844 7.57812 10.0117 7.55078 10.3008 7.76172L15.9258 11.1992C16.2031 11.3711 16.375 11.6719 16.375 12C16.375 12.3281 16.2031 12.6289 15.9258 12.8008L10.3008 16.2383C10.0117 16.4141 9.64844 16.4219 9.35547 16.2539C9.05859 16.0898 8.875 15.7773 8.875 15.4375V8.52734C8.875 8.22266 9.05859 7.91016 9.35547 7.74609ZM22 12C22 17.5234 17.5234 22 12 22C6.47656 22 2 17.5234 2 12C2 6.47656 6.47656 2 12 2C17.5234 2 22 6.47656 22 12ZM12 3.875C7.51172 3.875 3.875 7.51172 3.875 12C3.875 16.4883 7.51172 20.125 12 20.125C16.4883 20.125 20.125 16.4883 20.125 12C20.125 7.51172 16.4883 3.875 12 3.875Z"/>
</svg>
