<svg width="24" height="24" viewBox="0 0 24 24" fill="currentColor" xmlns="http://www.w3.org/2000/svg">
<path d="M21.67 6.63002C21.65 6.56002 21.64 6.49002 21.6 6.42002C21.54 6.31002 21.45 6.22002 21.36 6.15002C21.12 5.84002 20.85 5.57002 20.5 5.37002L13.5 1.36002C12.57 0.830024 11.42 0.830024 10.5 1.36002L3.5 5.36002C3.15 5.56002 2.88 5.84002 2.64 6.15002C2.55 6.22002 2.46 6.31002 2.4 6.42002C2.36 6.49002 2.35 6.56002 2.33 6.64002C2.13 7.05002 2 7.49002 2 7.96002V15.96C2 17.03 2.58 18.02 3.5 18.56L10.5 22.56C10.82 22.74 11.16 22.84 11.51 22.9C11.66 22.99 11.82 23.05 12 23.05C12.18 23.05 12.34 22.99 12.49 22.9C12.84 22.84 13.18 22.75 13.5 22.57L20.5 18.57C21.42 18.04 22 17.04 22 15.98V7.96002C22 7.49002 21.87 7.04002 21.66 6.63002H21.67ZM11.5 3.09002C11.65 3.00002 11.83 2.96002 12 2.96002C12.17 2.96002 12.35 3.01002 12.51 3.10002L18.97 6.79002L16.61 8.15002H7.4L5.04 6.79002L11.5 3.10002V3.09002ZM13.65 12.16L13 13.14L12 14.64L11 13.14L10.34 12.15L9 10.14H15L13.66 12.16H13.65ZM4.5 16.81C4.19 16.63 4 16.3 4 15.95V8.49002L6.43 9.89003L11 16.75V20.53L4.5 16.82V16.81ZM20 15.94C20 16.3 19.81 16.63 19.5 16.8L13 20.52V16.73L17.56 9.88002L20 8.47002V15.93V15.94Z" />
</svg>
