<?xml version="1.0" encoding="utf-8"?>
<!-- Generator: Adobe Illustrator 24.1.0, SVG Export Plug-In . SVG Version: 6.00 Build 0)  -->
<svg version="1.1" id="plDAI" xmlns="http://www.w3.org/2000/svg" xmlns:xlink="http://www.w3.org/1999/xlink" x="0px" y="0px"
	 viewBox="0 0 500 500" style="enable-background:new 0 0 500 500;" xml:space="preserve">
<style type="text/css">
	.st0{fill:#8340FB;}
	.st1{fill:#7936F9;}
	.st2{fill:#702EF7;}
	.st3{fill:#6527E5;}
	.st4{fill:#5A22D2;}
	.st5{fill:#501CC1;}
	.st6{fill:#4719AC;}
	.st7{fill:#3A128F;}
	.st8{fill:#300D79;}
	.st9{fill:#2A0A6A;}
	.st10{fill:#FFFFFF;}
</style>
<polygon class="st0" points="34.1,126 34.1,374 248.1,498 462.1,374 462.1,126 248.1,2 "/>
<polygon class="st1" points="402.1,106 352.5,106 330.3,67.5 286.1,67.5 261.2,24.2 212.5,24.2 211.8,23 178.6,42.2 188.8,59.8 
	237.4,59.8 262.4,103.1 306.6,103.1 328.8,141.6 378.3,141.6 402.4,183.3 449.6,183.3 462.1,204.9 462.1,147.7 426.1,147.7 "/>
<polygon class="st2" points="402.4,183.3 378.3,141.6 328.8,141.6 306.6,103.1 262.4,103.1 237.4,59.8 188.8,59.8 178.6,42.2 
	145.9,61.2 167.6,98.8 216.3,98.8 241.2,142.1 285.4,142.1 307.6,180.6 357.2,180.6 381.2,222.3 428.4,222.3 449.5,258.9 
	462.1,258.9 462.1,204.9 449.6,183.3 "/>
<polygon class="st3" points="428.4,222.3 381.2,222.3 357.2,180.6 307.6,180.6 285.4,142.1 241.2,142.1 216.3,98.8 167.6,98.8 
	145.9,61.2 86.1,95.9 120.1,95.9 147.3,142.8 195.9,142.8 220.9,186.1 265,186.1 287.3,224.6 336.8,224.6 360.9,266.3 408.1,266.3 
	429.2,302.9 462.1,302.9 462.1,258.9 449.5,258.9 "/>
<polygon class="st4" points="429.2,302.9 408.1,266.3 360.9,266.3 336.8,224.6 287.3,224.6 265,186.1 220.9,186.1 195.9,142.8 
	147.3,142.8 120.1,95.9 86.1,95.9 34.1,126 34.1,130.2 97.3,130.2 124.4,177.1 173,177.1 198,220.4 242.2,220.4 264.4,258.9 
	313.9,258.9 338,300.6 385.2,300.6 406.3,337.2 450.8,337.2 462.1,356.7 462.1,302.9 "/>
<polygon class="st5" points="406.3,337.2 385.2,300.6 338,300.6 313.9,258.9 264.4,258.9 242.2,220.4 198,220.4 173,177.1 
	124.4,177.1 97.3,130.2 34.1,130.2 34.1,166.6 75.2,166.6 102.4,213.6 151,213.6 176,256.8 220.1,256.8 242.4,295.4 291.9,295.4 
	316,337 363.2,337 384.3,373.6 428.8,373.6 437.3,388.4 462.1,374 462.1,356.7 450.8,337.2 "/>
<polygon class="st6" points="384.3,373.6 363.2,337 316,337 291.9,295.4 242.4,295.4 220.1,256.8 176,256.8 151,213.6 102.4,213.6 
	75.2,166.6 34.1,166.6 34.1,205.6 54.1,205.6 81.2,252.5 129.8,252.5 154.8,295.8 199,295.8 221.2,334.3 270.7,334.3 294.8,376 
	342,376 363.1,412.6 395.4,412.6 437.3,388.4 428.8,373.6 "/>
<polygon class="st7" points="342,376 294.8,376 270.7,334.3 221.2,334.3 199,295.8 154.8,295.8 129.8,252.5 81.2,252.5 54.1,205.6 
	34.1,205.6 34.1,242.6 60.8,289 109.5,289 134.5,332.2 178.6,332.2 200.9,370.8 250.4,370.8 274.5,412.4 321.6,412.4 340.2,444.6 
	395.4,412.6 363.1,412.6 "/>
<polygon class="st8" points="321.6,412.4 274.5,412.4 250.4,370.8 200.9,370.8 178.6,332.2 134.5,332.2 109.5,289 60.8,289 
	34.1,242.6 34.1,318.2 35.6,320.9 84.3,320.9 109.3,364.2 153.4,364.2 175.7,402.7 225.2,402.7 249.3,444.4 296.4,444.4 
	307.5,463.6 340.2,444.6 "/>
<polygon class="st9" points="296.4,444.4 249.3,444.4 225.2,402.7 175.7,402.7 153.4,364.2 109.3,364.2 84.3,320.9 35.6,320.9 
	34.1,318.2 34.1,374 248.1,498 307.5,463.6 "/>
<path class="st10" d="M291.7,293.4c-0.2,15.8-5.6,28.7-17.5,38.1c-8.9,7-19.5,10.2-28,9c-0.1-1.6-0.4-3.2-0.4-4.9
	c-0.1-45.8-0.3-91.6-0.2-137.4c0.1-28.8,20-53.5,48.3-59c39.7-7.8,70.7,22.4,72.2,53.1c0.8,17.3,1.5,34.8-0.6,51.9
	c-2.5,21-15.3,36.1-34.4,45.2C318.9,295.2,305.8,296.1,291.7,293.4z M319.4,199.1c-0.2-8-5.5-13.5-13.1-13.7
	c-7.5-0.2-14.2,5.6-14.4,13.3c-0.3,12-0.3,24-0.1,36c0.1,7.7,6.5,13.5,14.1,13.5c7.9-0.1,13.7-5.6,13.9-13.6
	C320.1,228.7,319.6,205.1,319.4,199.1z"/>
<path class="st10" d="M144.2,341.7c0-11.4-0.6-22.3,0.2-33.1c0.8-10.7,5.2-20.1,13.2-27.5c16.4-15.1,53.1-13.7,64.1,15.1
	c5.6,14.8,3.1,29.9,3.5,45.5C198.1,341.7,171.6,341.7,144.2,341.7z M159.8,321.8c16.8,0,32.8,0,49.1,0c0.3-10.5-1.2-20.1-10.3-25.6
	c-9.2-5.6-19.5-5.1-28.6,0.4C161,302.1,159.7,311.4,159.8,321.8z"/>
<path class="st10" d="M225,207.3c-4.3,1.6-8.7,3.3-13.3,5.1c0,8.4,0,16.7,0,25.3c4.4,1.7,8.7,3.5,13.4,5.3c0,6.8,0,13.6,0,21.8
	c-27.7-11.5-54.4-22.6-81.3-33.7c0-5.4,0-10.3,0-16.1c26.6-10,53.4-20.1,81.2-30.6C225,192.2,225,199.3,225,207.3z M195.1,217.6
	c-6.9,2.3-12.9,4.3-18.9,6.2c0,0.4,0,0.9,0,1.3c6.1,2.1,12.2,4.2,18.9,6.5C195.1,226.7,195.1,222.8,195.1,217.6z"/>
<path class="st10" d="M225.5,152.5c0,6.7,0,13,0,19.7c-27.5,0-54.5,0-81.8,0c0-6.8,0-12.8,0-19.7C171,152.5,197.9,152.5,225.5,152.5
	z"/>
</svg>
