<?xml version="1.0" encoding="utf-8"?>
<!-- Generator: Adobe Illustrator 24.1.0, SVG Export Plug-In . SVG Version: 6.00 Build 0)  -->
<svg version="1.1" id="plUSDC" xmlns="http://www.w3.org/2000/svg" xmlns:xlink="http://www.w3.org/1999/xlink" x="0px" y="0px"
	 viewBox="0 0 500 500" style="enable-background:new 0 0 500 500;" xml:space="preserve">
<style type="text/css">
	.st0{fill:#8340FB;}
	.st1{fill:#7936F9;}
	.st2{fill:#702EF7;}
	.st3{fill:#6527E5;}
	.st4{fill:#5A22D2;}
	.st5{fill:#501CC1;}
	.st6{fill:#4719AC;}
	.st7{fill:#3A128F;}
	.st8{fill:#300D79;}
	.st9{fill:#2A0A6A;}
	.st10{fill:#FFFFFF;}
</style>
<polygon class="st0" points="36,126 36,374 250,498 464,374 464,126 250,2 "/>
<polygon class="st1" points="404,106 354.5,106 332.2,67.5 288.1,67.5 263.1,24.2 214.4,24.2 213.7,23 180.6,42.2 190.7,59.8 
	239.4,59.8 264.3,103.1 308.5,103.1 330.7,141.6 380.3,141.6 404.3,183.3 451.5,183.3 464,204.9 464,147.7 428.1,147.7 "/>
<polygon class="st2" points="404.3,183.3 380.3,141.6 330.7,141.6 308.5,103.1 264.3,103.1 239.4,59.8 190.7,59.8 180.6,42.2 
	147.8,61.2 169.5,98.8 218.2,98.8 243.2,142.1 287.3,142.1 309.5,180.6 359.1,180.6 383.1,222.3 430.3,222.3 451.4,258.9 464,258.9 
	464,204.9 451.5,183.3 "/>
<polygon class="st3" points="430.3,222.3 383.1,222.3 359.1,180.6 309.5,180.6 287.3,142.1 243.2,142.1 218.2,98.8 169.5,98.8 
	147.8,61.2 88,95.9 122.1,95.9 149.2,142.8 197.8,142.8 222.8,186.1 267,186.1 289.2,224.6 338.7,224.6 362.8,266.3 410,266.3 
	431.1,302.9 464,302.9 464,258.9 451.4,258.9 "/>
<polygon class="st4" points="431.1,302.9 410,266.3 362.8,266.3 338.7,224.6 289.2,224.6 267,186.1 222.8,186.1 197.8,142.8 
	149.2,142.8 122.1,95.9 88,95.9 36,126 36,130.2 99.2,130.2 126.3,177.1 175,177.1 200,220.4 244.1,220.4 266.3,258.9 315.9,258.9 
	339.9,300.6 387.1,300.6 408.2,337.2 452.7,337.2 464,356.7 464,302.9 "/>
<polygon class="st5" points="408.2,337.2 387.1,300.6 339.9,300.6 315.9,258.9 266.3,258.9 244.1,220.4 200,220.4 175,177.1 
	126.3,177.1 99.2,130.2 36,130.2 36,166.6 77.2,166.6 104.3,213.6 152.9,213.6 177.9,256.8 222.1,256.8 244.3,295.4 293.8,295.4 
	317.9,337 365.1,337 386.2,373.6 430.7,373.6 439.2,388.4 464,374 464,356.7 452.7,337.2 "/>
<polygon class="st6" points="386.2,373.6 365.1,337 317.9,337 293.8,295.4 244.3,295.4 222.1,256.8 177.9,256.8 152.9,213.6 
	104.3,213.6 77.2,166.6 36,166.6 36,205.6 56,205.6 83.1,252.5 131.8,252.5 156.7,295.8 200.9,295.8 223.1,334.3 272.7,334.3 
	296.7,376 343.9,376 365,412.6 397.3,412.6 439.2,388.4 430.7,373.6 "/>
<polygon class="st7" points="343.9,376 296.7,376 272.7,334.3 223.1,334.3 200.9,295.8 156.7,295.8 131.8,252.5 83.1,252.5 
	56,205.6 36,205.6 36,242.6 62.8,289 111.4,289 136.4,332.2 180.6,332.2 202.8,370.8 252.3,370.8 276.4,412.4 323.6,412.4 
	342.1,444.6 397.3,412.6 365,412.6 "/>
<polygon class="st8" points="323.6,412.4 276.4,412.4 252.3,370.8 202.8,370.8 180.6,332.2 136.4,332.2 111.4,289 62.8,289 
	36,242.6 36,318.2 37.5,320.9 86.2,320.9 111.2,364.2 155.3,364.2 177.6,402.7 227.1,402.7 251.2,444.4 298.3,444.4 309.4,463.6 
	342.1,444.6 "/>
<polygon class="st9" points="298.3,444.4 251.2,444.4 227.1,402.7 177.6,402.7 155.3,364.2 111.2,364.2 86.2,320.9 37.5,320.9 
	36,318.2 36,374 250,498 309.4,463.6 "/>
<path class="st10" d="M297,294c-1,17.2-7.1,31.7-22.3,41c-7.2,4.4-14.9,7.2-24.1,6.4c-0.1-2.1-0.3-4-0.3-5.9
	c-0.1-45.6-0.3-91.2-0.2-136.9c0-28.4,18.5-52.2,46.1-59.5c34.3-9.1,66.7,13.1,74.2,43.7c1.1,4.4,1.9,9,1.9,13.5
	c0,15.2,0.9,30.5-0.9,45.6c-2.9,24.6-17.3,41-40.4,49.8C320,295.9,308.8,295.5,297,294z M297,216.5c0,0-0.1,0-0.1,0c0,3,0,6,0,9
	c0,3.2-0.1,6.4,0.1,9.5c0.5,7.5,6.6,13.1,14,13.1c7.9,0,14-5.6,14.1-13.4c0.1-12,0.1-24-0.1-36c-0.2-7.9-6.4-14-13.8-14
	c-7.6,0-13.9,6.3-14.1,14.3C296.9,204.8,297,210.7,297,216.5z"/>
<path class="st10" d="M228.9,242.5c-18.5,0-35.5,0-52.7,0c-0.4-0.6-1.1-1.2-1-1.8c0.6-9.1,0.2-18.5,2.2-27.2
	c2.6-10.8,13.8-17.3,25.4-16.8c12.1,0.5,21.6,7.4,23.9,18.8C228.4,224.1,228.2,233.1,228.9,242.5z M216.9,228.7
	c0.2-7.2-1.5-12.7-7.4-16c-4.8-2.7-14.3-1.7-18.1,1.7c-4.3,3.8-5.5,8.7-4.9,14.3C196.9,228.7,206.7,228.7,216.9,228.7z"/>
<path class="st10" d="M175.6,348.1c0-5.2,0-8.8,0-13.3c8.3,0,16.4,0.1,24.4,0c3.3,0,6.8,0.1,10-0.7c5.7-1.4,8.4-4.8,7.9-9
	c-0.5-4.4-4.2-7.6-9.8-7.8c-7.9-0.3-15.9-0.2-23.8-0.2c-2.6,0-5.2,0-8.5,0c0-4.5,0-8.3,0-13.5c13.2,0.6,26.3,0.4,39.1,2.1
	c9.8,1.3,14.7,9.9,14.5,21.1c-0.2,10.3-5.9,18.6-15.6,19.7C201.4,347.8,188.8,347.6,175.6,348.1z"/>
<path class="st10" d="M219.4,294.6c-2.4-2.6-4.6-5-7.2-7.8c0.9-1.5,2.2-3,2.8-4.7c1.1-3.2,2.5-6.6,2.6-9.9c0.1-1.6-2.3-4.1-4-4.6
	c-1.3-0.4-4,1.3-4.9,2.7c-1.9,3.1-3,6.7-4.6,10.1c-3.6,7.6-9.2,11.1-16.2,10.3c-6.7-0.8-11.9-5.8-13.4-13.8
	c-1.5-8.3,0.7-15.5,6.7-22.4c3,2.3,5.5,4.2,8.3,6.3c-1.3,5.7-8.1,11.4,0.8,18c1.8-3.5,3.1-6.2,4.4-8.9c2.1-4,3.6-8.5,6.5-11.9
	c6.3-7.4,18.3-6.3,23.8,1.6C232.4,270.1,230.1,285.9,219.4,294.6z"/>
<path class="st10" d="M180.4,142.3c3.2,2.1,6.2,4,9.1,5.8c-4.8,13.2-4.2,18.2,2.4,22.7c6.1,4.1,15.5,3.9,20.8-0.5
	c5.4-4.5,5.7-10.9,0.6-22c2.7-2.2,5.6-4.7,8.3-7c9.6,6.7,10.9,24.8,2.9,35.8c-8.6,11.9-28,14.7-39.3,5.8
	C172.4,172.7,170,155.3,180.4,142.3z"/>
</svg>
