<?xml version="1.0" encoding="utf-8"?>
<!-- Generator: Adobe Illustrator 25.2.0, SVG Export Plug-In . SVG Version: 6.00 Build 0)  -->
<svg version="1.1" id="png" xmlns="http://www.w3.org/2000/svg" xmlns:xlink="http://www.w3.org/1999/xlink" x="0px" y="0px"
	 viewBox="0 0 500 500" style="enable-background:new 0 0 500 500;" xml:space="preserve">
<style type="text/css">
	.st0{fill:#FE6C02;}
</style>
<path class="st0" d="M276.6,180.1c3.8,9.1,7.5,18.3,11.2,27.5c0.6,1.5,1.3,3,0.9,5.3c-6.9-3.1-12.7-7.2-18.3-11.3
	c-19.6-14.4-35.6-32-47.5-53.3c-3.7-6.6-3.8-6.6-10.1-1.7c-25.6,20-50.5,41-77.1,59.8c-7.4,5.2-15.1,7.9-24.1,5.7
	c-7.5-1.8-9.5-5.5-5.7-11.9c14.6-24.9,19.2-52.6,22.5-80.5c2.9-25,9-48.7,24.9-68.9c10-12.7,22.2-23,36.6-30.5
	c2.1-1.1,4.1-2.9,7.4-2.2c0.9,8.5,1.9,17.2,2.9,26.2c4.1,0.1,5.6-3.4,7.7-5.5c12.9-13.3,27.9-23.2,45.7-28.6
	C257.7,8.7,281.3,6,289,6c2,1.8,3.3,3.7,3.5,6.7c1.4,17.2-3.1,32.4-14.1,45.6c-4,4.8-8,9.7-12,14.5c-0.5,0.7-1.6,2-1.6,2.1
	c1.2,1.2,19.9-9.7,28.6-13.9c15-7.1,30.2-13.4,47-14.4c6.7-0.4,13.1,0.7,19.4,3.2c3.5,1.4,3.7,3.2,1.9,6.2
	c-7.3,11.7-17,20.9-27.8,29.2c-11.9,9-24.6,16.7-38.2,22.9c-1.7,0.8-3.7,1.3-5.7,3.9c24.7,6.7,49.6,12.7,66.8,34.8
	c-16,7.4-31.5,8-47.2,5.6c-17.1-2.6-32.7-9.5-46.6-20c-2.2-1.6-7.6-5.8-8.3-5.1C254.1,128,269.6,163.1,276.6,180.1z M194.1,110.8
	c0.2-3.8-3-7.4-6.9-7.7c-4.2-0.3-7.4,2.4-7.6,6.7c-0.2,4.4,2.3,7.3,6.7,7.5C190.7,117.5,193.9,114.8,194.1,110.8z M146.8,103.3
	c-4.1,0.2-6.7,2.8-6.7,6.8c0,4.1,3.1,7.2,7.4,7.2c4.3,0,7.4-3.2,7.2-7.3C154.5,106,151.1,103.1,146.8,103.3z"/>
<path class="st0" d="M324.5,9.9c51.5,12.6,90.4,43,121.3,84.9c5.7,7.7,10.9,15.9,15.5,24.7c-4.6,3.2-9.8,3.7-14.9,4.1
	c-19.7,1.7-38.5-2.5-56.3-10.3c-17.5-7.7-35.4-13.5-56.6-13.5c4.5-3.5,7.6-5.9,10.7-8.4c11.7-9.5,22-20.1,29.1-33.5
	c4.3-8.2,3.7-10.4-4.1-15.4c-11.9-7.5-25-8-38.3-6c-10.6,1.6-20.7,5.3-31.7,9.6c3.9-13.7,7-26.7,3.1-40.1
	C304.4,6,319.3,8.6,324.5,9.9z"/>
<path class="st0" d="M231.1,494.4c-2.6-6.8-0.2-13.1,2.2-19.1c4.7-12,12.7-21.9,22.4-30.2c16.8-14.3,36.7-23.1,56.7-31.7
	c0.6-0.3,1.6,0.1,3.1,0.2c-3.5,6.8-7.4,13-9.7,19.9c-5.2,15.8-4.6,31.4,1.4,46.8c2.6,6.6,2.5,6.8-4.6,8.3
	c-7.8,1.6-15.7,2.8-23.6,4.1C277.7,492.9,245.9,494.4,231.1,494.4z"/>
<path class="st0" d="M7.6,254.3c13.1,3.4,18.5,14,22.7,25.2c3.2,8.5,6.8,16.8,11.6,24.5c2.8,4.4,5.9,8.6,8.8,13
	c1.3,2,3.3,3.7,3.4,6.5c-4.9,1.1-9.3-1.3-14-1.2c-4.1,0.1-8.3-0.1-12.4,0.1c-9.8,0.6-9.7,0.7-12.4-9.2c-2.7-9.8-4.4-19.8-6-29.9
	C9.2,281.8,7.6,262.6,7.6,254.3z"/>
<path class="st0" d="M10.8,213.1c1.5-6.6,2.4-13.3,4.9-20.5c5.6,4.2,5.9,9.8,5.5,14.9c-0.8,11.3-1.1,22.4-0.1,33.7
	c0.5,4.9-0.6,5.4-5.7,3.9c-2.6-0.8-5.2-1.6-7.9-2.3C7.6,237.8,9.7,218,10.8,213.1z"/>
<path class="st0" d="M215.7,158.4c7.4,9.7,14.4,19.5,22.6,28.4c14.8,15.9,31.3,29.4,50.9,38.9c3.9,1.9,5.8,4.4,6.6,8.6
	c2.7,15.4,2.6,30.6-0.3,46.2c-6.4-1.7-11.4-5.1-16.6-8c-17.3-9.6-35.7-12.5-55.1-8.7c-3.6,0.7-5.9,0.3-8-3.5
	c-3.3-5.9-3.7-5.8-10.4-2.5c-24.8,12.3-50.8,21-77.7,27.2c-6.4,1.5-12.9,2.8-19.6,2.6c-3.4-0.1-6.2-1.1-7-4.5
	c-0.8-3.4,1.2-5.7,4.2-7.2c1.2-0.6,2.5-1.2,3.8-1.6c21.5-6.3,36.7-20.6,49.1-38.4c8.4-12,15.6-24.7,21.8-37.9
	C188,181.4,200.3,168.9,215.7,158.4z"/>
<path class="st0" d="M279.3,155.1c10.4,4,20.7,7.5,31.6,9c18.9,2.6,36.7-0.3,53.9-8.3c5.9-2.7,6.5-4.5,3.5-10.3
	c-6.1-12-16-20.2-27.4-26.7c-4.2-2.4-8.5-4.5-13.9-7.3c43.8-2,72,13.3,86.7,50.1c5.1,12.6,7.6,25.8,8,39.4c0.1,2.9,0,5.2-3,6.9
	c-34,18.9-69.5,27.2-107.9,15c-5.2-1.6-8.2-4.2-9.6-9.7c-4.6-17.3-13.1-33.2-19.6-49.9C280.5,160.9,278.5,158.7,279.3,155.1z"/>
<path class="st0" d="M187,304.9c1.4-2.2,2.4-3.6,3.2-5c15.9-27.3,48-32.9,72-23.1c9.5,3.9,18,9.5,27.3,13.7c4,1.8,1.6,4,0.9,5.9
	c-11,32.5-34.2,52.3-65.6,63.9c-12.4,4.6-25.3,7.5-38.4,9.6c-7.5,1.2-9.2,0.3-12.4-6.3c-9-18.8-18-37.8-26.9-56.7
	c-0.9-2-1.7-4.1-2.4-6.1c-3.4-9.3-0.5-13.2,9.6-13.5c6.7-0.2,12.3,2.6,17.8,5.8C177.3,296.2,181.9,300.2,187,304.9z"/>
<path class="st0" d="M306.8,233.3c41.1,12.6,78.8,5.2,115.7-15c0.8,20.8,0.8,39.9-6.7,58.1c-5,12.3-15.3,18.2-27.9,20.9
	c-15.8,3.4-31.3,0.9-46.7-2.3c-8.9-1.8-17.4-5-26.3-7c-4-0.9-5.5-3.2-5.7-6.9c-0.3-5.8-0.6-11.6-0.4-17.3
	C309.1,254,308.1,244.2,306.8,233.3z"/>
<path class="st0" d="M431.9,257.4c2,3.5,3.4,6.1,4.9,8.7c9.9,16.6,23.8,27,43.6,28.7c7,0.6,7,0.9,5.7,7.5
	c-5.6,27.8-16.2,53.6-31.1,77.6c-3.6,5.7-3.7,5.7-9.5,2.6c-8.2-4.4-12.7-11.9-15.8-20.3c-5.2-14.2-6.2-29-5.9-43.9
	C424.1,298.1,427.4,278.3,431.9,257.4z"/>
<path class="st0" d="M410.7,300.6c-9.4,28.3-21.1,53.4-45.6,70.1c-14,9.5-23.2,7.6-32.4-6.7c-8.9-13.8-13.3-29.4-17-45.3
	c-1.5-6.3-2.4-12.7-3.8-19.9C344.8,307.7,376.7,316.9,410.7,300.6z"/>
<path class="st0" d="M246,438.2c-4,4.6-7.7,8.6-11.1,12.8c-8.6,11-15.2,23-15.6,37.5c-0.1,3.4-1.3,4-4.6,3.5
	c-34.5-5.3-66.5-17.1-96.3-36.4c5.7-7,13.2-10.8,20.9-14c19.9-8.3,40.5-9.8,61.6-6.5c13.6,2.1,27.3,3.2,41.2,2.8
	C243.1,437.8,244.1,438,246,438.2z"/>
<path class="st0" d="M378.6,374.2c-6.6,27.3-13.6,53.4,10.3,74.8c-0.5,1.8-2,2.6-3.3,3.5c-18.3,12.3-37.9,22.1-58.8,29.3
	c-4.7,1.6-6.8,0.7-8.7-3.8c-7.9-19.6-6-38.2,5.1-56c5.7-9.2,12.9-17.1,21.3-23.9C354.9,389.5,366.8,383.3,378.6,374.2z"/>
<path class="st0" d="M431.3,186.7c4.4,4.1,7.6,7.4,11.2,10.4c12.2,10.3,25.8,16.8,42.3,14.6c3-0.4,4.3,0.1,4.7,3.6
	c2.4,20.9,2.2,41.8,0.7,62.7c-0.3,4.9-2.1,6.5-7.1,6.1c-14.1-1.1-25.2-7.2-33.5-18.6c-8.4-11.7-12-25.2-14.9-39
	C432.1,213.8,433.9,200.8,431.3,186.7z"/>
<path class="st0" d="M445.1,394.5c-12.7,17.3-26.5,31.7-42.1,44.5c-3.4,2.8-5.6,2.1-8.5-0.3c-7.7-6.5-10.6-15.1-11.1-24.8
	c-0.7-15.2,3.7-29.3,8.8-43.3c5.3-14.5,13.3-27.7,20.2-41.7c0.8,9.1,1.8,18.1,4,26.9C420.5,372.4,427.4,387,445.1,394.5z"/>
<path class="st0" d="M274,343.7c1.2,3.3-0.3,6.2-0.9,9.4c-2.4,13.5-5,27-2.9,41c1.2,8.1,3.6,15.5,9,22.3c-7.4,4.7-15.2,6.9-23.2,8.4
	c-14.2,2.7-28.5,2-42.8,0.7c-4.9-0.4-5.7-2.3-4.6-6.9c4-16.4,13.6-29.3,24.9-41.2c6.4-6.9,14.1-12.3,21.4-18.2
	C261.2,354.1,267.6,348.9,274,343.7L274,343.7z"/>
<path class="st0" d="M107.7,366c18.8,8.1,38.2,13.8,58.9,14.9c16.4,0.9,32.4-0.8,48.3-4.7c1.3-0.3,2.5-1.1,4.1-0.4
	c0.1,2.4-1.9,3.6-3.2,5.2c-8.8,11.5-16.2,23.7-18.1,38.4c-0.4,3.3-2,4.1-5,3.5c-18.1-3.7-36-7.8-52.7-16.1
	c-9.4-4.7-16.6-11.7-22.5-20.2c-4.2-6.1-8.4-12.3-10.9-19.3C107,366.8,107.3,366.4,107.7,366z"/>
<path class="st0" d="M409.2,131.7c5.7,0.8,10,1.4,14.3,2.1c13,2.4,25.8,1.6,38.4-2.3c3.7-1.1,5.2-0.8,6.8,2.8
	c8.5,19.8,14.2,40.4,18.2,61.5c0.7,3.8-0.7,5-4.1,5.3c-10.1,0.8-19-2.4-27.2-7.9c-10.7-7.2-18.6-17-25.9-27.5
	C422.4,155.1,418,142.9,409.2,131.7z"/>
<path class="st0" d="M107,391.7c-17.3-3.1-33.5-2.9-47.1,10.6c-16.5-20.4-28.6-42.6-38-67.8c9.1-1.6,17.7-1.6,26.2,0
	c19.2,3.5,33.9,14.1,44.1,30.6C97.5,373.4,101.8,382.3,107,391.7z"/>
<path class="st0" d="M301.5,303.6c2.8,17.8,6.9,34.8,13.8,51.1c6.6,15.5,11.8,22,24.9,31.5c-15.3,8.9-30.9,16.8-46.8,24.2
	c-3,1.4-4.7,0.3-6.3-1.8c-4.4-5.6-6-12.2-6.5-19.2c-1-15,2-29.6,5.5-44c3-12.3,7.1-24.2,11.5-36C298.4,307.5,298.4,305,301.5,303.6z
	"/>
<path class="st0" d="M152.7,424.7c-15.5,4.6-29.6,10.9-41.4,21.6c-2.5,2.2-4.2,1.6-6.4-0.1c-12.3-9.7-24-20-34.4-31.8
	c-3.2-3.6-1.9-5.5,1.2-7.7c9.5-6.8,20.1-6.5,30.8-4.4c7.8,1.6,15.2,4.6,22.2,8.5C133.7,415.8,142.8,420.9,152.7,424.7z"/>
<path class="st0" d="M106.6,367.2c-0.7-0.3-1.3-0.8-0.7-1.5c0.6-0.7,1.2-0.1,1.8,0.3C107.3,366.4,107,366.8,106.6,367.2z"/>
</svg>
