<?xml version="1.0" encoding="utf-8"?>
<!-- Generator: Adobe Illustrator 24.2.2, SVG Export Plug-In . SVG Version: 6.00 Build 0)  -->
<svg version="1.1" id="Layer_1" xmlns="http://www.w3.org/2000/svg" xmlns:xlink="http://www.w3.org/1999/xlink" x="0px" y="0px"
	 viewBox="0 0 500 500" style="enable-background:new 0 0 500 500;" xml:space="preserve">
<style type="text/css">
	.st0{fill:#FF6766;}
	.st1{fill:#D95E59;}
	.st2{fill:#FEF4C8;}
	.st3{fill:#016273;}
	.st4{fill:#FFFFFF;}
</style>
<path class="st0" d="M494.8,249.6c0,67.8-27.6,129.2-72.1,173.6c-44.3,44.1-105.4,71.4-172.9,71.4s-128.6-27.3-172.9-71.4
	C32.3,378.8,4.7,317.4,4.7,249.6c0-135.3,109.7-245,245-245C385.1,4.5,494.8,114.2,494.8,249.6z"/>
<g>
	<path class="st1" d="M494.8,249.6c0,135.3-109.7,245-245,245c-67.6,0-128.7-27.3-173-71.5L423.2,76.5
		C467.4,120.8,494.8,182,494.8,249.6z"/>
</g>
<path class="st2" d="M422.7,423.2c-44.3,44.1-105.4,71.4-172.9,71.4s-128.6-27.3-172.9-71.4c44.3-44.1,105.4-71.4,172.9-71.4
	S378.3,379,422.7,423.2z"/>
<g>
	<circle class="st3" cx="250" cy="119.6" r="30.7"/>
	<path class="st4" d="M250,89c16.9,0,30.7,13.7,30.7,30.7s-13.7,30.7-30.7,30.7s-30.7-13.7-30.7-30.7S233,89,250,89 M250,58.2
		c-33.9,0-61.5,27.6-61.5,61.5s27.6,61.5,61.5,61.5s61.5-27.6,61.5-61.5S283.9,58.2,250,58.2L250,58.2z"/>
</g>
</svg>
