<?xml version="1.0" encoding="iso-8859-1"?>
<!-- Generator: Adobe Illustrator 19.0.0, SVG Export Plug-In . SVG Version: 6.00 Build 0)  -->
<svg version="1.1" id="Layer_1" xmlns="http://www.w3.org/2000/svg" xmlns:xlink="http://www.w3.org/1999/xlink" x="0px" y="0px"
	 viewBox="1000 -1000 2500 2500" style="enable-background:new 1000 -1000 2500 2500;" xml:space="preserve">
<g id="Po.et">
	<g id="Ellipse" transform="translate(-121 -292)">
		<path id="path0_fill" style="fill:#393534;" d="M3596.077,542c0,676.684-548.393,1225.077-1225.077,1225.077
			S1145.923,1218.684,1145.923,542S1694.316-683.077,2371-683.077S3596.077-134.684,3596.077,542z"/>
	</g>
	<g id="Ellipse_1_" transform="translate(-119 -290)">
		<path id="path1_fill" style="fill:#F2F2F2;" d="M3451.59,550.516c0,592.033-480.041,1072.074-1072.074,1072.074
			S1307.442,1142.548,1307.442,550.516S1787.483-521.558,2379.516-521.558S3451.59-41.517,3451.59,550.516z"/>
	</g>
	<g id="poe">
		<g id="Group">
			<g id="Vector" transform="translate(-110.56 -283.616)">
				<path id="path2_fill" style="fill:#FFFFFF;" d="M2776.666,235.412l-769.748,787.099l-16.825-317.048l464.267-470.051
					l192.437-199.798l124.611-41.011l90.435,23.66l84.651,70.455l-102.002,117.25L2776.666,235.412z"/>
			</g>
			<g id="Shape" transform="translate(-101.969 -282.328)">
				<path id="path3_fill" style="fill:#E1DED9;" d="M2837.957,256.144l-154.055,158.787h233.448l26.289-26.815
					c18.402-18.928,33.124-42.063,43.114-66.775c9.99-25.238,14.722-52.053,14.722-78.868c0-53.63-19.98-104.631-55.733-143.539
					l-106.208,110.415c5.784,6.309,8.413,15.248,8.413,23.66C2847.42,241.422,2843.74,249.835,2837.957,256.144z"/>
			</g>
			<g id="Shape_1_" transform="translate(-109.362 -272.234)">
				<path id="path4_fill" style="fill:#E1DED9;" d="M2212.342,914.29l-125.663,130.394h233.448l126.714-130.394H2212.342z"/>
			</g>
			<g id="Shape_2_" transform="translate(-107.056 -274.811)">
				<path id="path5_fill" style="fill:#E1DED9;" d="M2273.162,850.739h233.448l139.333-144.591h-233.448L2273.162,850.739z"/>
			</g>
			<g id="Shape_3_" transform="translate(-104.571 -277.511)">
				<path id="path6_fill" style="fill:#E1DED9;" d="M2856.322,488.019h-233.448l-149.323,154.055h233.448L2856.322,488.019z"/>
			</g>
		</g>
		<g id="Shape_4_" transform="translate(-113 -284)">
			<path id="path7_fill" style="fill:#393534;" d="M2941.888,43.443c-24.186-25.238-53.104-45.217-84.651-58.888
				s-65.723-20.506-99.899-20.506c-34.176,0-68.352,6.835-99.899,20.506c-31.547,13.67-60.465,34.176-84.651,59.414
				l-604.652,624.632c-5.784,6.835-9.464,15.773-8.938,24.712v321.78l-166.674,174.034h91.486l123.559-127.766h309.161
				c4.206,0,8.413-0.526,12.619-2.629c3.681-1.577,7.361-4.732,9.99-7.887l600.971-622.528l1.052-1.052
				c48.898-51.001,76.239-119.879,75.713-191.385c0.526-35.753-6.309-70.981-19.454-103.58
				C2985.528,98.125,2966.074,68.681,2941.888,43.443L2941.888,43.443z M2590.664,116.002l26.289-26.815
				c37.331-38.382,87.806-59.939,140.385-59.939c52.578,0,103.054,21.557,140.384,59.939c1.052,1.052,1.052,2.103,2.103,2.103
				c35.753,38.908,55.733,90.961,55.733,145.116c-0.526,54.156-21.031,105.683-57.836,144.065l-26.289,26.815h-233.448
				l153.003-158.787c5.784-5.784,9.464-14.196,9.464-22.609c0-8.412-2.629-16.825-8.413-23.134
				c-1.052-1.052-1.052-1.052-1.052-2.103c-5.784-6.309-14.196-9.464-22.609-9.464c-8.413,0-16.825,3.681-22.609,9.464
				l-155.106,160.89L2590.664,116.002L2590.664,116.002z M2071.19,994.587l125.662-130.394H2430.3l-125.662,130.394H2071.19z
				 M2437.661,614.445l149.323-155.106h233.448l-149.323,155.106H2437.661z M2620.108,667.023l-139.333,144.591h-233.448
				l139.333-144.591H2620.108L2620.108,667.023z M2390.341,323.16l149.323-155.106v245.541l-149.323,155.106V323.16L2390.341,323.16
				z M2200.007,520.33l139.333-144.591V621.28l-139.333,144.59V520.33L2200.007,520.33z M2022.292,704.88l127.766-131.446v245.541
				l-127.766,131.446"/>
		</g>
	</g>
</g>
</svg>
