<?xml version="1.0" encoding="utf-8"?>
<!-- Generator: Adobe Illustrator 26.0.3, SVG Export Plug-In . SVG Version: 6.00 Build 0)  -->
<svg version="1.1" id="pokt" xmlns="http://www.w3.org/2000/svg" xmlns:xlink="http://www.w3.org/1999/xlink" x="0px" y="0px"
	 viewBox="0 0 500 500" style="enable-background:new 0 0 500 500;" xml:space="preserve">
<style type="text/css">
	.st0{fill:#1D8AED;}
</style>
<path class="st0" d="M322.6,16.5v91c0,29.5-24.4,53.4-54.5,53.4h-0.8c-15.1-0.1-28.7,0-28.7,0c-2.6,0-5.4-0.3-7.9,0
	c-16.9,1.7-31.7,9.3-44,22.7c-0.4,0.3-0.7,0.8-1,1.1c-10,12.6-15.4,29-15.4,46.7v0.9c0,11.3,2.4,22.2,6.7,31.9
	c4.3,9.7,2.1,21-6.2,27.7c-8.1,6.7-17.7,14.5-24.2,19.6c-18.8-21-29.8-48.3-29.8-78.2v-0.9c0-65,53-119.3,125.1-119.3
	c4.5,0,19.2,0,26,0V6.7C262.2,6.3,256.2,6,250.3,6C113,6,1.7,115.2,1.7,250C1.7,360.1,76,453.1,178,483.4v-90.3
	c0-29.8,24.6-54,55-54h0.3c15.1,0.1,28.7,0,28.7,0c2.6,0,5.4,0.3,7.9,0c16.9-1.7,31.7-9.3,44-22.7c0.4-0.3,0.7-0.8,1-1.1
	c10-12.6,15.4-29,15.4-46.7v-0.9c0-8.8-3.8-20.7-7.6-30.2c-4.2-10.7-1-22.9,7.9-30.1c7.7-6.3,15.5-12.6,23.3-18.7
	c18.8,21,29.8,48.3,29.8,78.2v0.9c0,65-53,119.3-125.1,119.3c-4.5,0-19.2,0-26,0v106.3c5.8,0.4,11.7,0.7,17.7,0.7
	c137.3,0,248.6-109.2,248.6-244C498.9,139.9,424.6,46.9,322.6,16.5z"/>
</svg>
