<?xml version="1.0" encoding="utf-8"?>
<!-- Generator: Adobe Illustrator 25.2.2, SVG Export Plug-In . SVG Version: 6.00 Build 0)  -->
<svg version="1.1" id="pols" xmlns="http://www.w3.org/2000/svg" xmlns:xlink="http://www.w3.org/1999/xlink" x="0px" y="0px"
	 viewBox="0 0 500 500" style="enable-background:new 0 0 500 500;" xml:space="preserve">
<style type="text/css">
	.st0{fill-rule:evenodd;clip-rule:evenodd;}
	.st1{fill:#FF3465;}
</style>
<path class="st0" d="M452.4,64.6c-31.5-31.8-71.6-47.7-120-47.7H133.9v125v66.7c43.3,13.8,74.7,54.3,74.7,102.1
	c0,47.9-31.4,88.4-74.7,102.1v70.8h108V354.2h90.8c48.4,0,88.5-15.9,120-47.7c31.5-31.8,47.4-72.1,47.4-120.9
	C500,136.6,484.1,96.4,452.4,64.6z M369.5,243.6c-14,15.1-31.8,22.7-53.7,22.7h-74V105h74c21.8,0,39.6,7.6,53.7,22.7
	c14,15.1,20.9,34.4,20.9,58C390.6,209.2,383.4,228.5,369.5,243.6z"/>
<path class="st1" d="M78.2,389.7c43.2,0,78.2-35,78.2-78.2c0-43.2-35-78.2-78.2-78.2S0,268.3,0,311.5C0,354.7,35,389.7,78.2,389.7z"
	/>
</svg>
