<?xml version="1.0" encoding="iso-8859-1"?>
<!-- Generator: Adobe Illustrator 19.0.0, SVG Export Plug-In . SVG Version: 6.00 Build 0)  -->
<svg version="1.1" id="Layer_2" xmlns="http://www.w3.org/2000/svg" xmlns:xlink="http://www.w3.org/1999/xlink" x="0px" y="0px"
	 viewBox="0 0 500 500" style="enable-background:new 0 0 500 500;" xml:space="preserve">
<polygon style="fill:#5D6CAC;" points="448.198,98.709 484.937,96.987 450.638,106.459 "/>
<polygon style="fill:#495692;" points="448.198,98.709 403.279,130.425 450.638,106.459 "/>
<polygon style="fill:#3F4B80;" points="450.638,106.459 403.279,130.425 423.371,145.063 "/>
<polygon style="fill:#313A62;" points="403.279,130.425 361.805,126.981 423.371,145.063 "/>
<polygon style="fill:#3F4B80;" points="423.371,145.063 404.284,156.544 361.805,126.981 "/>
<polygon style="fill:#313A62;" points="423.371,145.063 432.125,153.243 404.284,156.544 "/>
<polygon style="fill:#495692;" points="404.284,156.544 432.125,153.243 464.128,149.081 473.743,156.544 "/>
<polygon style="fill:#4F60A3;" points="404.284,156.544 424.806,171.182 473.743,156.544 "/>
<polygon style="fill:#3F4B80;" points="464.128,149.081 491.969,124.828 473.743,156.544 "/>
<polygon style="fill:#4F60A3;" points="491.969,124.828 497.673,126.981 473.743,156.544 "/>
<polygon points="491.969,124.828 496.561,110.908 497.673,126.981 "/>
<polygon style="fill:#313A62;" points="424.806,171.182 439.951,166.652 446.906,189.264 "/>
<polygon style="fill:#313A62;" points="446.906,189.264 449.92,250.973 422.223,263.746 "/>
<polygon style="fill:#3F4B80;" points="446.906,189.264 424.806,171.182 422.223,263.746 "/>
<polygon style="fill:#495692;" points="424.806,171.182 375.726,234.613 422.223,263.746 "/>
<polygon style="fill:#3F4B80;" points="424.806,171.182 368.837,176.492 375.726,234.613 "/>
<polygon style="fill:#4B5897;" points="424.806,171.182 361.805,126.981 368.837,176.492 "/>
<polygon style="fill:#313A62;" points="368.837,176.492 359.509,217.464 375.726,234.613 "/>
<polygon style="fill:#313A62;" points="368.837,176.492 361.805,126.981 302.536,96.403 "/>
<polygon style="fill:#3F4B80;" points="368.837,176.492 359.509,217.464 302.536,96.403 "/>
<polygon style="fill:#4B5897;" points="359.509,217.464 268.093,103.445 302.536,96.403 "/>
<polygon style="fill:#5161A4;" points="268.093,103.445 260.774,179.362 359.509,217.464 "/>
<polygon style="fill:#4B5897;" points="260.774,179.362 250.585,247.529 359.509,217.464 "/>
<polygon style="fill:#3F4B80;" points="359.509,217.464 310.142,240.641 250.585,247.529 "/>
<polygon style="fill:#5161A4;" points="310.142,240.641 359.509,217.464 357.93,240.641 "/>
<polygon style="fill:#4B5897;" points="310.142,240.641 327.506,286.707 357.93,240.641 "/>
<polygon style="fill:#3F4B80;" points="310.142,240.641 301.1,281.541 327.506,286.707 "/>
<polygon style="fill:#4B5897;" points="301.1,281.541 289.333,303.498 327.506,286.707 "/>
<polygon style="fill:#313A62;" points="301.1,281.541 266.658,318.71 289.333,303.498 "/>
<polygon style="fill:#3F4B80;" points="301.1,281.541 273.547,283.55 266.658,318.71 "/>
<polygon style="fill:#313A62;" points="310.142,240.641 251.59,267.908 250.585,247.529 "/>
<polygon style="fill:#3F4B80;" points="250.585,247.529 190.024,257.575 251.59,267.908 "/>
<polygon style="fill:#3F4B80;" points="250.585,247.529 159.313,193.713 260.774,179.362 "/>
<polygon style="fill:#4B5897;" points="260.774,179.362 268.093,103.445 159.313,193.713 "/>
<polygon style="fill:#4B5897;" points="159.313,193.713 250.585,247.529 190.024,257.575 "/>
<polygon style="fill:#313A62;" points="159.313,193.713 190.024,257.575 160.748,279.532 "/>
<polygon style="fill:#3F4B80;" points="159.313,193.713 119.847,284.124 160.748,279.532 "/>
<polygon style="fill:#4B5897;" points="159.313,193.713 107.793,210.934 119.847,284.124 "/>
<polygon style="fill:#5161A4;" points="107.793,210.934 86.41,233.752 119.847,284.124 "/>
<polygon style="fill:#313A62;" points="119.847,284.124 160.748,279.532 142.379,309.382 "/>
<polygon style="fill:#4B5897;" points="119.847,284.124 68.614,339.232 142.379,309.382 "/>
<polygon style="fill:#313A62;" points="119.847,284.124 86.41,290.582 68.614,339.232 "/>
<polygon style="fill:#3F4B80;" points="119.847,284.124 86.41,233.752 86.41,290.582 "/>
<polygon style="fill:#313A62;" points="86.41,233.752 47.949,234.326 86.41,257.575 "/>
<polygon style="fill:#3F4B80;" points="86.41,257.575 51.25,250.01 47.949,234.326 "/>
<polygon style="fill:#4B5897;" points="47.949,234.326 29.149,269.343 51.25,250.01 "/>
<polygon style="fill:#5161A4;" points="51.25,250.01 29.149,269.343 27.571,280.967 "/>
<polygon style="fill:#313A62;" points="29.149,269.343 3.03,277.092 27.571,280.967 "/>
<polygon style="fill:#3F4B80;" points="68.614,339.232 96.01,328.146 72.202,377.693 "/>
<polygon style="fill:#1F243E;" points="68.614,339.232 58.282,383.864 72.202,377.693 "/>
<polygon style="fill:#313A62;" points="72.202,377.693 58.282,383.864 47.231,402.597 "/>
<polygon style="fill:#3F4B80;" points="72.202,377.693 75.79,396.492 47.231,402.597 "/>
</svg>
