<?xml version="1.0" encoding="utf-8"?>
<!-- Generator: Adobe Illustrator 25.1.0, SVG Export Plug-In . SVG Version: 6.00 Build 0)  -->
<svg version="1.1" id="pond" xmlns="http://www.w3.org/2000/svg" xmlns:xlink="http://www.w3.org/1999/xlink" x="0px" y="0px"
	 viewBox="0 0 500 500" style="enable-background:new 0 0 500 500;" xml:space="preserve">
<style type="text/css">
	.st0{fill-rule:evenodd;clip-rule:evenodd;fill:#2DB8E3;}
	.st1{fill-rule:evenodd;clip-rule:evenodd;fill:#3840C7;}
</style>
<path class="st0" d="M323.8,81.8c-6.4-6.4-15-9.9-24-9.9h-0.1c-9,0-17.7,3.6-24,10.1L9.9,348.9c-6.4,6.4-10,15.1-9.9,24.1
	c0,9.1,3.6,17.6,10,24.1c6.4,6.4,15,9.9,24,9.9c9.1,0,17.7-3.6,24.2-10l265.7-266.9C337.1,116.6,337,95.1,323.8,81.8z"/>
<path class="st1" d="M478,75.1c-12.7-5.3-27.4-2.4-37.1,7.5l-265.7,267c-13.3,13.3-13.2,34.9,0.1,48.2c13.3,13.2,34.9,13.2,48.2-0.1
	l207.5-208.4v184.4c0,18.8,15.3,34,34.1,34.1c18.8,0,34-15.3,34.1-34.1V106.6C499.1,92.8,490.8,80.3,478,75.1z"/>
</svg>
