<?xml version="1.0" encoding="utf-8"?>
<!-- Generator: Adobe Illustrator 25.4.1, SVG Export Plug-In . SVG Version: 6.00 Build 0)  -->
<svg version="1.1" id="pool" xmlns="http://www.w3.org/2000/svg" xmlns:xlink="http://www.w3.org/1999/xlink" x="0px" y="0px"
	 viewBox="0 0 500 500" style="enable-background:new 0 0 500 500;" xml:space="preserve">
<style type="text/css">
	.st0{fill:url(#SVGID_1_);}
	.st1{fill:#FFFFFF;}
</style>
<linearGradient id="SVGID_1_" gradientUnits="userSpaceOnUse" x1="250" y1="502" x2="250" y2="2" gradientTransform="matrix(1 0 0 -1 0 502)">
	<stop  offset="0" style="stop-color:#7E46F2"/>
	<stop  offset="1" style="stop-color:#46279A"/>
</linearGradient>
<circle class="st0" cx="250" cy="250" r="250"/>
<path class="st1" d="M261.3,68.4C318,68.4,364,115.2,364,172.8v60.1c0,57.7-46,104.4-102.7,104.4c-8.9,0-17.6-1.2-25.8-3.3l0,7.1
	c0,42.2-33.8,76.5-75.8,77.2l-1.3,0V188.5l0.1,0l0-15.7C158.5,115.2,204.5,68.4,261.3,68.4z M261.3,146.7
	c-14.2,0-25.7,11.7-25.7,26.1v60.1c0,14.4,11.5,26.1,25.7,26.1s25.7-11.7,25.7-26.1v-60.1C286.9,158.4,275.4,146.7,261.3,146.7z"/>
</svg>
