<?xml version="1.0" encoding="utf-8"?>
<!-- Generator: Adobe Illustrator 25.2.0, SVG Export Plug-In . SVG Version: 6.00 Build 0)  -->
<svg version="1.1" id="ppay" xmlns="http://www.w3.org/2000/svg" xmlns:xlink="http://www.w3.org/1999/xlink" x="0px" y="0px"
	 viewBox="0 0 500 500" style="enable-background:new 0 0 500 500;" xml:space="preserve">
<style type="text/css">
	.st0{fill:url(#SVGID_1_);}
	.st1{fill:#FFFFFF;}
</style>
<linearGradient id="SVGID_1_" gradientUnits="userSpaceOnUse" x1="250" y1="-10.3052" x2="250" y2="502" gradientTransform="matrix(1 0 0 -1 0 502)">
	<stop  offset="0" style="stop-color:#A32CCD"/>
	<stop  offset="1" style="stop-color:#FE453D"/>
</linearGradient>
<circle class="st0" cx="250" cy="250" r="250"/>
<path class="st1" d="M250,269.5l160.2-36.2C401.8,152.6,333.3,89.8,250,89.8c-83.3,0-151.8,62.8-160.2,143.5L250,269.5z"/>
<path class="st1" d="M93,284.9c2.2,10.6,5.8,20.8,10.2,30.4l147,9.6l147-9.6c4.5-9.6,7.7-19.9,10.2-30.4l-157,12.2L93,284.9z"/>
<path class="st1" d="M171.5,389.7c23.4,12.8,50,20.5,78.5,20.5c28.5,0,55.4-7.4,78.5-20.5H171.5z"/>
<path class="st1" d="M250,348l-130.7-4.5c6.7,9.6,14.7,18.3,23.4,25.9h214.6c8.6-7.7,16.7-16.3,23.4-25.9L250,348z"/>
</svg>
