<?xml version="1.0" encoding="iso-8859-1"?>
<!-- Generator: Adobe Illustrator 19.0.0, SVG Export Plug-In . SVG Version: 6.00 Build 0)  -->
<svg version="1.1" id="Layer_1" xmlns="http://www.w3.org/2000/svg" xmlns:xlink="http://www.w3.org/1999/xlink" x="0px" y="0px"
	 viewBox="0 0 500 500" style="enable-background:new 0 0 500 500;" xml:space="preserve">
<path style="fill:#3CB055;" d="M494.875,249.25C495.637,383.664,385.02,494.045,249.98,494
	C115.317,493.955,5.157,383.943,5.053,249.075C4.951,118.013,110.397,3.757,250.525,4C390.087,4.243,495.984,118.233,494.875,249.25
	z M324.899,380.891c1.867-1.558,2.996-2.281,3.851-3.247c6.853-7.745,14.17-15.148,20.367-23.39
	c14.449-19.216,23.489-40.806,25.387-64.945c2.1-26.712-4.537-51.438-18.317-74.281c-18.395-30.491-44.643-52.452-75.949-68.555
	c-39.807-20.476-82.408-28.439-126.935-27.031c-1.694,0.054-3.375,0.498-5.438,0.818c0,1.606,0,2.954,0,4.302
	c0.003,47.41-0.054,94.821,0.079,142.231c0.017,6.196,0.468,12.494,1.638,18.568c6.017,31.24,21.32,56.755,47.892,74.793
	c24.509,16.638,52.224,21.425,81.22,20.677c1.487-0.038,3.436-1.517,4.315-2.877c11.081-17.159,16.863-36.054,17.39-56.428
	c0.716-27.706-7.487-53.093-21.081-76.893c-16.805-29.422-39.937-53.089-67.097-73.03c-1.022-0.75-1.975-1.593-2.96-2.393
	c0.178-0.299,0.355-0.597,0.533-0.896c1.079,0.424,2.197,0.768,3.23,1.284c15.654,7.823,30.611,16.781,44.496,27.469
	c30.88,23.768,52.84,53.683,63.082,91.653c7.345,27.231,7.845,54.885,5.049,82.74C325.374,374.22,325.207,376.992,324.899,380.891z"
	/>
<path style="fill:#FFFFFF;" d="M324.899,380.891c0.307-3.899,0.474-6.67,0.751-9.431c2.796-27.855,2.297-55.509-5.049-82.74
	c-10.242-37.969-32.202-67.885-63.082-91.653c-13.885-10.688-28.843-19.645-44.496-27.469c-1.033-0.516-2.151-0.86-3.23-1.284
	c-0.178,0.299-0.355,0.597-0.533,0.896c0.985,0.8,1.938,1.643,2.96,2.393c27.159,19.941,50.292,43.608,67.097,73.03
	c13.594,23.8,21.797,49.187,21.081,76.893c-0.526,20.375-6.309,39.27-17.39,56.428c-0.879,1.36-2.828,2.839-4.315,2.877
	c-28.997,0.747-56.712-4.04-81.22-20.677c-26.571-18.038-41.874-43.553-47.892-74.793c-1.17-6.074-1.621-12.371-1.638-18.568
	c-0.133-47.41-0.077-94.821-0.079-142.231c0-1.348,0-2.696,0-4.302c2.063-0.321,3.745-0.765,5.438-0.818
	c44.527-1.408,87.129,6.555,126.935,27.031c31.307,16.104,57.555,38.064,75.949,68.555c13.78,22.843,20.417,47.568,18.317,74.281
	c-1.898,24.139-10.938,45.729-25.387,64.945c-6.198,8.242-13.515,15.645-20.367,23.39
	C327.896,378.609,326.767,379.333,324.899,380.891z"/>
</svg>
