<?xml version="1.0" encoding="utf-8"?>
<!-- Generator: Adobe Illustrator 23.0.4, SVG Export Plug-In . SVG Version: 6.00 Build 0)  -->
<svg version="1.1" id="ppp" xmlns="http://www.w3.org/2000/svg" xmlns:xlink="http://www.w3.org/1999/xlink" x="0px" y="0px"
	 viewBox="0 0 500 500" style="enable-background:new 0 0 500 500;" xml:space="preserve">
<style type="text/css">
	.st0{fill:#43878D;}
	.st1{fill:#74C2C2;}
</style>
<path class="st0" d="M76.2,304.8l-57-67.9C7.6,222.9,9,202.2,22.5,190l197.1-178c13-11.7,32.9-11.1,45.1,1.3l61.7,62.8
	c4.8,4.9,12.6,5.1,17.7,0.6l59.7-53.2c8.3-7.4,21-6.7,28.5,1.6l15.4,17.3c7.4,8.3,6.7,21-1.6,28.5l-99.3,88.6
	c-8.2,7.3-20.7,6.9-28.4-0.9L250.1,89c-5.5-5.6-14.4-5.8-20.2-0.6L96.7,208.6c-5.8,5.2-6.4,14.1-1.4,20.1l29.6,35.3
	c7.2,8.5,6,21.2-2.5,28.4l-17.8,14.9C96.1,314.4,83.4,313.3,76.2,304.8z"/>
<path class="st1" d="M422.7,194.4l57,67.9c11.7,13.9,10.3,34.6-3.2,46.8l-197.1,178c-13,11.7-32.9,11.1-45.1-1.3l-61.7-62.8
	c-4.8-4.9-12.6-5.1-17.7-0.6l-59.7,53.2c-8.3,7.4-21,6.7-28.5-1.6l-15.4-17.3c-7.4-8.3-6.7-21,1.6-28.5l99.3-88.6
	c8.2-7.3,20.7-6.9,28.4,0.9l68.4,69.6c5.5,5.6,14.4,5.8,20.2,0.6l133.1-120.2c5.8-5.2,6.4-14.1,1.4-20.1l-29.6-35.3
	c-7.2-8.5-6-21.2,2.5-28.4l17.8-14.9C402.9,184.7,415.6,185.8,422.7,194.4z"/>
</svg>
