<?xml version="1.0" encoding="iso-8859-1"?>
<!-- Generator: Adobe Illustrator 19.0.0, SVG Export Plug-In . SVG Version: 6.00 Build 0)  -->
<svg version="1.1" id="Layer_1" xmlns="http://www.w3.org/2000/svg" xmlns:xlink="http://www.w3.org/1999/xlink" x="0px" y="0px"
	 viewBox="0 0 2000 2000" style="enable-background:new 0 0 2000 2000;" xml:space="preserve">
<g>
	<path style="fill:#1A1A19;" d="M1556.788,998.4c0.002,322.615-0.136,645.231,0.393,967.845
		c0.028,16.812-3.739,21.514-21.085,21.487c-356.376-0.55-712.754-0.558-1069.131,0c-17.722,0.028-22.625-3.682-22.609-22.151
		c0.546-644.605,0.525-1289.21,0.078-1933.815c-0.012-16.931,3.99-21.517,21.292-21.49c357.002,0.547,714.005,0.537,1071.006,0.018
		c16.339-0.024,20.503,3.563,20.474,20.26C1556.639,353.169,1556.786,675.784,1556.788,998.4z M817.295,1204.365
		c0,16.883,0,33.765,0,50.648c0.001,198.215-0.014,396.43,0.047,594.644c0.003,9.351-3.678,19.841,13.487,19.672
		c76.277-0.753,152.567-0.519,228.849-0.116c10.967,0.058,13.919-3.772,13.612-14.155c-0.648-21.866-0.198-43.764-0.198-65.649
		c-0.002-138.188,0.086-276.375-0.178-414.562c-0.021-10.756,0.84-21.109,11.565-25.154c9.585-3.615,20.427-5.62,30.674-5.473
		c60.776,0.87,120.887-4.554,180.953-13.899c62.802-9.771,94.992-49.519,95.548-110.026c1.567-170.688,0.653-341.4,0.427-512.102
		c-0.03-22.867,0.61-45.585-3.597-68.604c-7.407-40.527-29.662-67.309-67.417-80.955c-50.43-18.227-103.968-20.695-156.408-22.151
		c-107.466-2.984-215.072-0.901-322.621-0.923c-24.608-0.005-24.75,0.105-24.75,25.388
		C817.286,775.42,817.286,989.892,817.295,1204.365z"/>
	<path style="fill:#CCB749;" d="M774.653,940.743c0.013,127.515-0.301,255.031,0.392,382.542
		c0.091,16.753-4.753,21.479-21.164,20.874c-36.207-1.336-72.495-0.315-108.732-1.107c-23.014-0.503-30.524-7.808-34.599-30.983
		c-1.073-6.101-1.535-12.387-1.537-18.589c-0.07-231.276-0.07-462.553-0.036-693.829c0.008-59.117,6.171-65.185,65.462-65.185
		c26.878,0,53.795,0.865,80.619-0.342c15.984-0.719,19.943,5.059,19.881,20.327C774.415,683.212,774.64,811.978,774.653,940.743z"/>
	<path style="fill:#CCB749;" d="M744.006,317.163c0.214-105.559,83.421-185.874,192.092-185.417
		c102.18,0.43,186.495,84.2,185.84,184.639c-0.688,105.468-85.357,190.282-189.703,190.029
		C828.745,506.163,743.795,420.752,744.006,317.163z"/>
	<path style="fill:#1A1A19;" d="M1073.078,933.256c0.016-88.155,0.285-176.311-0.263-264.463
		c-0.086-13.842,2.315-18.98,18.028-19.314c32.986-0.702,49.121,3.249,49.529,49.994c1.434,164.418,0.575,328.856,0.535,493.287
		c-0.007,27.723-32.848,47.521-57.556,34.628c-9.686-5.054-10.46-14.083-10.433-24.041
		C1073.164,1113.317,1073.062,1023.287,1073.078,933.256z"/>
</g>
</svg>
