<?xml version="1.0" encoding="iso-8859-1"?>
<!-- Generator: Adobe Illustrator 19.0.0, SVG Export Plug-In . SVG Version: 6.00 Build 0)  -->
<svg version="1.1" id="Layer_1" xmlns="http://www.w3.org/2000/svg" xmlns:xlink="http://www.w3.org/1999/xlink" x="0px" y="0px"
	 viewBox="0 0 500 500" style="enable-background:new 0 0 500 500;" xml:space="preserve">
<linearGradient id="SVGID_1_" gradientUnits="userSpaceOnUse" x1="249.8334" y1="3.0001" x2="249.8334" y2="495.7768">
	<stop  offset="0" style="stop-color:#118EBE"/>
	<stop  offset="0.9995" style="stop-color:#254562"/>
</linearGradient>
<path style="fill:url(#SVGID_1_);" d="M3,496.667C3,332.112,3,167.556,3,3c164.556,0,329.111,0,493.667,0
	c0,164.555,0,329.111,0,493.667C332.111,496.667,167.556,496.667,3,496.667z M438.585,61.195c-126.57,0-251.701,0-377.231,0
	c0,126.142,0,251.263,0,376.707c126.221,0,251.283,0,377.231,0C438.585,311.921,438.585,187.095,438.585,61.195z"/>
<linearGradient id="SVGID_2_" gradientUnits="userSpaceOnUse" x1="209.8714" y1="95.1512" x2="209.8714" y2="405.8476">
	<stop  offset="0" style="stop-color:#118EBE"/>
	<stop  offset="0.9995" style="stop-color:#254562"/>
</linearGradient>
<path style="fill:url(#SVGID_2_);" d="M97.597,98.034c1.283-0.062,94.038-0.946,121.635-0.991
	c50.347-0.082,94.766,39.567,101.673,90.63c5.288,39.097-6.259,73.069-36.122,99.726c-17.098,15.262-37.618,21.93-60.45,21.822
	c-15.214-0.072-30.428-0.014-47.035-0.014c0,32.495,0,63.002,0,94.191c-27.215,0-52.972,0-79.701,0
	C97.597,301.765,97.597,200.732,97.597,98.034z M178.152,170.475c0,22.051,0,43.172,0,65.015c15.351,0,29.523,0.335,43.659-0.232
	c3.605-0.144,7.751-2.427,10.525-4.958c11.26-10.271,11.168-43.458-0.157-53.688c-3.102-2.802-7.459-5.665-11.372-5.861
	C206.77,170.047,192.676,170.475,178.152,170.475z"/>
<path style="fill:#F36F1F;" d="M402.191,346.071c0,19.288,0,37.107,0,56.229c-62.686,0-124.846,0-187.778,0
	c0-18.699,0-37.087,0-56.229C277.036,346.071,338.941,346.071,402.191,346.071z"/>
</svg>
