<?xml version="1.0" encoding="utf-8"?>
<!-- Generator: Adobe Illustrator 25.4.1, SVG Export Plug-In . SVG Version: 6.00 Build 0)  -->
<svg version="1.1" id="premia" xmlns="http://www.w3.org/2000/svg" xmlns:xlink="http://www.w3.org/1999/xlink" x="0px" y="0px"
	 viewBox="0 0 500 500" style="enable-background:new 0 0 500 500;" xml:space="preserve">
<style type="text/css">
	.st0{fill-rule:evenodd;clip-rule:evenodd;fill:#5294FF;}
</style>
<path class="st0" d="M136,117.6h228c13,0,20.5,14.7,12.8,25.2L268.3,292c-7.6,10.5-0.1,25.2,12.8,25.2h95.6c5.1,0,9.8-2.4,12.8-6.5
	L497,163.1c4-5.6,4-13.1,0-18.7L402.9,15c-3-4.1-7.8-6.5-12.8-6.5H110c-5.1,0-9.8,2.4-12.8,6.5L3,144.4c-4,5.6-4,13.1,0,18.7
	L237.2,485c6.3,8.7,19.3,8.7,25.7,0l47.8-65.8c4-5.6,4-13.1,0-18.7L123.1,142.8C115.5,132.3,123,117.6,136,117.6z"/>
</svg>
