<?xml version="1.0" encoding="iso-8859-1"?>
<!-- Generator: Adobe Illustrator 19.0.0, SVG Export Plug-In . SVG Version: 6.00 Build 0)  -->
<svg version="1.1" id="Layer_1" xmlns="http://www.w3.org/2000/svg" xmlns:xlink="http://www.w3.org/1999/xlink" x="0px" y="0px"
	 viewBox="2000 0 500 500" style="enable-background:new 2000 0 500 500;" xml:space="preserve">
<title>qrl</title>
<linearGradient id="SVGID_1_" gradientUnits="userSpaceOnUse" x1="2045.5558" y1="409.4511" x2="2045.5558" y2="481.7234" gradientTransform="matrix(5.4865 0 0 -5.4865 -8973.0293 2743.2712)">
	<stop  offset="0.13" style="stop-color:#0987FB"/>
	<stop  offset="0.14" style="stop-color:#0989FB"/>
	<stop  offset="0.53" style="stop-color:#05A3FD"/>
	<stop  offset="0.87" style="stop-color:#00C7FF"/>
</linearGradient>
<path style="fill:url(#SVGID_1_);" d="M2235.634,118.978c-87.902,5.563-129.098,68.416-136.346,80.827h-0.659
	c-9.247,0.008-16.736,7.51-16.728,16.757c0.003,3.222,0.935,6.375,2.686,9.08c-2.398,4.504-12.044,24.357-14.204,56.049
	l-22.337-21.981c-4.352-3.987-5.866-10.207-3.834-15.748c25.794-80.913,87.427-120.22,87.427-120.22
	c8.388,3.862,18.319,0.193,22.181-8.195c0.764-1.66,1.251-3.435,1.442-5.253c95.052-43.649,175.534-9.041,192.362-0.734
	c0.008,9.252,7.514,16.747,16.767,16.74c2.771-0.002,5.497-0.692,7.936-2.006c10.257,7.206,19.782,15.4,28.44,24.465l-21.841,21.84
	c-38.572-43.152-96.651-51.177-113.188-52.614c-4.298-8.18-14.414-11.327-22.594-7.029
	C2239.808,112.708,2237.162,115.535,2235.634,118.978L2235.634,118.978z M2387.804,371.007c-2.774,2.968-2.617,7.623,0.351,10.397
	c1.369,1.28,3.175,1.989,5.05,1.982h61.341v10.261c0.006,30.12-24.406,54.541-54.526,54.547c-0.007,0-0.014,0-0.022,0H2101.88
	c-30.12,0.006-54.541-24.406-54.547-54.526c0-0.007,0-0.014,0-0.022v-10.261l59.591-0.086c3.154,0.047,6.032-1.794,7.312-4.677
	c1.334-2.985,0.675-6.485-1.653-8.782l-97.213-96.295c-10.24-10.133-13.988-25.125-9.721-38.885
	c15.122-48.714,65.63-158.457,216.655-181.82c0,0,111.254-14.042,189.025,55.087c0,0,70.134,55.303,84.251,135.018
	c1.847,10.445-1.458,23.018-8.998,30.471L2387.804,371.007z M2064.604,396.347c0,20.283,16.442,36.725,36.725,36.725h298.119
	c20.282,0,36.725-16.442,36.725-36.725H2064.604z M2469.322,268.07c6.457-6.406,8.898-15.828,6.362-24.562
	c-8.458-28.894-33.484-93.119-94.631-134.467c-0.274-9.219-7.969-16.47-17.188-16.196c-2.71,0.081-5.36,0.82-7.72,2.154
	c-105.281-50.907-193.929-7.345-207.614,0.054c-7.418-5.5-17.89-3.946-23.39,3.472c-2.14,2.885-3.293,6.383-3.289,9.975
	c0.003,1.033,0.101,2.063,0.292,3.078l-0.292-0.378c-62.4,39.965-86.314,104.666-95.495,131.777
	c-2.607,7.692-0.603,16.197,5.163,21.916l112.508,113.609c3.297,3.336,8.643,3.465,12.097,0.292
	c3.55-3.261,3.783-8.782,0.522-12.332c-0.1-0.108-0.202-0.214-0.306-0.317l-6.967-10.121
	c-23.201-41.769-14.657-81.227-4.029-104.601l35.04,21.095c-15.896,39.259,3.042,83.97,42.301,99.867
	c39.259,15.896,83.97-3.042,99.867-42.301c13.062-32.258,2.765-69.267-25.08-90.143l19.691-34.132
	c22.445,17.628,78.44,73.45,28.354,162.118c-2.524,4.05-1.287,9.38,2.764,11.904c3.487,2.173,8.022,1.59,10.846-1.394
	L2469.322,268.07z M2411.059,160.142l-27.004,27.835c-3.038,3.145-8.051,3.231-11.195,0.192c-0.132-0.128-0.26-0.261-0.384-0.398
	c-12.638-14.15-47.829-46.511-108.489-51.501c-5.794,7.199-16.326,8.338-23.525,2.544c-0.98-0.789-1.868-1.686-2.647-2.674
	c-22.34,1.621-44.11,7.804-63.966,18.168l14.226,26.777c0.405,0.764,1.353,1.055,2.117,0.65c0.014-0.008,0.029-0.016,0.043-0.024
	c68.622-37.535,133.635,6.157,133.635,6.157c84.251,58.328,56.167,144.739,56.167,144.739l34.943-34.932
	c2.085-32.404-8.35-56.221-12.648-64.484c-9.251-0.496-16.348-8.398-15.852-17.649c0.496-9.251,8.398-16.348,17.649-15.852
	c9.251,0.496,16.348,8.398,15.852,17.649c-0.149,2.773-0.984,5.466-2.43,7.837c9.419,17.52,13.653,44.923,14.949,54.968
	l23.601-23.59c3.068-3.068,3.089-7.561,1.739-11.73C2445.613,207.604,2427.737,179.855,2411.059,160.142L2411.059,160.142z
	 M2190.883,200.669c-4.267,2.334-9.618,0.785-11.979-3.467l-18.924-34.748c-18.608,12.308-34.308,28.527-46.003,47.526
	c3.614,8.491-0.339,18.305-8.831,21.919c-1.284,0.547-2.632,0.93-4.012,1.142c-10.65,15.727-14.366,48.52-15.543,63.599
	l34.813,34.219c-3.888-19.227-11.547-79.93,34.327-123.136c0.919-0.86,2.356-0.832,3.24,0.065l9.581,9.57
	c0.908,0.914,0.904,2.391-0.01,3.299c-0.032,0.032-0.065,0.062-0.098,0.092c-5.674,5.079-10.647,10.891-14.787,17.282l34.813,21.052
	c21.071-31.942,62.463-43.465,97.008-27.004l20.004-34.651C2254.947,171.116,2208.306,191.185,2190.883,200.669L2190.883,200.669z
	 M2099.168,207.323c-5.369,0-9.721,4.352-9.721,9.721c0,5.369,4.352,9.721,9.721,9.721s9.721-4.352,9.721-9.721
	C2108.89,211.675,2104.537,207.323,2099.168,207.323z M2139.134,99.309c-5.369,0-9.721,4.352-9.721,9.721
	c0,5.369,4.353,9.721,9.721,9.721s9.721-4.352,9.721-9.721C2148.855,103.661,2144.503,99.309,2139.134,99.309z M2251.469,116.591
	c-5.369,0-9.721,4.352-9.721,9.721c0,5.369,4.353,9.721,9.721,9.721s9.721-4.352,9.721-9.721
	C2261.19,120.943,2256.837,116.591,2251.469,116.591z M2364.883,99.309c-5.369,0-9.721,4.352-9.721,9.721
	c0,5.369,4.353,9.721,9.721,9.721s9.721-4.352,9.721-9.721C2374.604,103.661,2370.252,99.309,2364.883,99.309z M2403.768,207.323
	c-5.369,0-9.721,4.352-9.721,9.721c0,5.369,4.352,9.721,9.721,9.721s9.721-4.352,9.721-9.721
	C2413.49,211.675,2409.137,207.323,2403.768,207.323z"/>
</svg>
