<?xml version="1.0" encoding="utf-8"?>
<!-- Generator: Adobe Illustrator 24.1.0, SVG Export Plug-In . SVG Version: 6.00 Build 0)  -->
<svg version="1.1" id="PRO" xmlns="http://www.w3.org/2000/svg" xmlns:xlink="http://www.w3.org/1999/xlink" x="0px" y="0px"
	 viewBox="0 0 500 500" style="enable-background:new 0 0 500 500;" xml:space="preserve">
<style type="text/css">
	.st0{fill:#38A6FA;}
</style>
<path class="st0" d="M432,415.4c0,9.7-8.8,17.6-18.5,17.6c0,0-270.7,0-271.5,0c-9.7,0-18.5-7.9-18.5-18.5l0,0l0,0l0,0l0,0v-6.2
	c0-0.9,0.9-13.2,8.8-28.2c13.2-24.7,37.9-42.3,73.2-54.7l108.4-36.1c2.6-0.9,24.7-8.8,45.8-27.3c30-25.6,45.8-60,46.7-98.7l7.9,5.3
	C432,180,432,200.2,432,201.1C432,201.1,432,415.4,432,415.4z M339.4,162.3c0,19.4-7.1,35.3-21.2,48.5c-11.5,10.6-23.8,15-24.7,15.9
	l-108.4,36.1C120.8,284,89,321,74.1,348.4c-2.6,5.3-5.3,10.6-7.1,15.9c0,0.9-0.9,0.9-0.9,1.8V202c0-19.4,15-30.9,17.6-32.6l0,0l0,0
	l148.1-97c16.8-11.5,34.4,0,34.4,0l73.2,48.5V162.3z M499,411.8V202c0-9.7-2.6-58.2-47.6-88.2l-44.1-29.1V18.6
	c0-10.6-8.8-18.5-18.5-18.5l0,0h-29.1l0,0c-10.6,0-18.5,7.9-18.5,18.5v22l-37-24.7c-27.3-17.6-70.5-24.7-108.4,0L47.6,113l0,0l0,0
	C38.8,118.2,0,147.3,0,201.1V411c0,20.3,4.4,37,14.1,51.1c7.1,11.5,17.6,20.3,30,26.4c22,10.6,43.2,11.5,44.1,11.5h323.6
	c0.9,0,22,0,44.1-11.5c13.2-6.2,22.9-15,30.9-26.4C494.6,448.9,499,432.1,499,411.8"/>
</svg>
