<?xml version="1.0" encoding="utf-8"?>
<!-- Generator: Adobe Illustrator 25.4.1, SVG Export Plug-In . SVG Version: 6.00 Build 0)  -->
<svg version="1.1" id="pros" xmlns="http://www.w3.org/2000/svg" xmlns:xlink="http://www.w3.org/1999/xlink" x="0px" y="0px"
	 viewBox="0 0 500 500" style="enable-background:new 0 0 500 500;" xml:space="preserve">
<style type="text/css">
	.st0{fill:url(#SVGID_1_);}
	.st1{fill:url(#SVGID_00000150821808383495344310000003563083658208539807_);}
</style>
<linearGradient id="SVGID_1_" gradientUnits="userSpaceOnUse" x1="259.3495" y1="65.5111" x2="541.2426" y2="326.2677" gradientTransform="matrix(1 0 0 -1 0 501)">
	<stop  offset="0" style="stop-color:#00FFFF"/>
	<stop  offset="1" style="stop-color:#5900F7;stop-opacity:0"/>
</linearGradient>
<path class="st0" d="M384.9,117.1l-1.4-1.4c-0.7-0.7-0.7-0.7-1.4-1.4l-72.7,73.3c0.7,0.7,0.7,0.7,1.4,1.4l1.4,1.4
	c81.9,83.3,98.3,171.7,74.1,196.1c-8.5,8.6-23.5,10.8-34.2,10.1c-46.3-0.7-109-33.8-160.3-84.8l-1.4-1.4c-0.7-0.7-0.7-0.7-1.4-1.4
	l-72.7,73.3c0.7,0.7,0.7,0.7,1.4,1.4l1.4,1.4C190.4,456.2,276.6,499.3,350,500c0.7,0,2.1,0,2.9,0c42.7,0,79.1-14.4,105.4-40.9
	c39.2-39.5,50.6-99.8,31.3-169.5C473.9,230.6,436.2,168.8,384.9,117.1z"/>
<linearGradient id="SVGID_00000156561557970271807410000017621886201769769136_" gradientUnits="userSpaceOnUse" x1="-85.3902" y1="152.7325" x2="267.933" y2="445.8681" gradientTransform="matrix(1 0 0 -1 0 501)">
	<stop  offset="0" style="stop-color:#5900F7;stop-opacity:0"/>
	<stop  offset="1" style="stop-color:#FFFFFF"/>
</linearGradient>
<path style="fill:url(#SVGID_00000156561557970271807410000017621886201769769136_);" d="M105,147.3c0-10.8,1.4-25.9,10-34.5
	c7.1-7.2,18.5-10.1,32.8-10.1c10.7,0,22.8,2.2,35.6,5.7c41.3,11.5,86.9,40.2,126.1,79.7l72.7-73.3c-52-51.7-112.5-89.1-170.9-105.6
	C142-10,82.2,0.8,42.3,41C15.2,68.3,1.7,105.6,1.7,150.2c1.4,74.7,43.5,161.6,114,233.5l73.4-75.4C138.5,257.2,105.7,194,105,147.3z
	"/>
</svg>
