<?xml version="1.0" encoding="utf-8"?>
<!-- Generator: Adobe Illustrator 25.0.1, SVG Export Plug-In . SVG Version: 6.00 Build 0)  -->
<svg version="1.1" id="prq" xmlns="http://www.w3.org/2000/svg" xmlns:xlink="http://www.w3.org/1999/xlink" x="0px" y="0px"
	 viewBox="0 0 500 500" style="enable-background:new 0 0 500 500;" xml:space="preserve">
<style type="text/css">
	.st0{fill:#005CC7;}
</style>
<path class="st0" d="M105.7,338.8v54.7h54.8v-13.7h75.3v120.1C109.6,493.1,6.8,389.6,0,263.6h120.4v74.2L105.7,338.8z"/>
<path class="st0" d="M338.6,379.8v13.7h54.8v-54.7h-13.7v-74.2H500c-6.8,126-110.6,228.5-236.8,235.3V379.8H338.6z"/>
<path class="st0" d="M235.8,123h103.7v-16.6h54.8V167h-54.8v-16.6H235.8v113.3l117.4,1v74.2h-13.7v13.7H160.5v-13.7h-12.7V161.1
	h13.7v-54.7h-54.8v54.7h13.7v74.2H0C6.8,109.4,110.6,6.8,235.8,0V123z"/>
</svg>
