<?xml version="1.0" encoding="iso-8859-1"?>
<!-- Generator: Adobe Illustrator 19.0.0, SVG Export Plug-In . SVG Version: 6.00 Build 0)  -->
<svg version="1.1" id="Layer_1" xmlns="http://www.w3.org/2000/svg" xmlns:xlink="http://www.w3.org/1999/xlink" x="0px" y="0px"
	 viewBox="0 0 500 500" style="enable-background:new 0 0 500 500;" xml:space="preserve">
<linearGradient id="SVGID_1_" gradientUnits="userSpaceOnUse" x1="36.7371" y1="120.1894" x2="463.8049" y2="383.1314">
	<stop  offset="0" style="stop-color:#DE3925"/>
	<stop  offset="1" style="stop-color:#F17F0B"/>
</linearGradient>
<path style="fill:url(#SVGID_1_);" d="M227.394,425.164c15.614-9.388,30.826-8.775,45.815,1.141
	c40.431-21.919,80.714-43.757,121.144-65.675c-0.199-17.533,7.245-30.509,22.639-38.726c0-46.986,0-93.808,0-139.43
	c-5.352-4.927-10.427-8.9-14.635-13.642c-5.825-6.566-8.267-14.648-7.802-23.439c0.143-2.697-0.652-4.231-3.09-5.52
	c-12.265-6.487-110.094-60.899-118.59-65.587c-15.455,9.928-31.071,10.072-46.693,0.033c-6.21,3.492-108.154,60.676-117.201,65.613
	c-1.752,0.956-3.028,1.96-3,4.294c0.199,16.49-7.382,28.4-21.638,36.307c-0.286,0.159-0.525,0.403-0.987,0.765
	c0,46.671,0,93.482,0,140.542c6.093,3.331,11.628,7.478,15.733,13.377c5.89,8.463,7.737,17.716,6.422,27.863
	c-0.837,6.459-3.029,12.247-6.911,17.42c-9.67,12.884-22.636,17.632-38.391,15.575c-8.092-1.057-15.631-4.211-21.185-9.727
	c-4.211-4.182-7.095-10.287-9.038-16.052c-5.047-14.975-1.734-28.614,9.124-40.073c3.229-3.407,7.481-5.845,11.726-9.079
	c0-46.087,0-92.784,0-139.723c-2.172-1.394-4.48-2.707-6.608-4.267c-16.667-12.225-20.897-33.243-11.332-52.17
	c6.033-11.939,16.65-16.103,28.476-18.367c9.067-1.735,17.718,0.306,25.55,5.236c2.251,1.417,4.157,1.542,6.461,0.228
	c18.249-10.405,113.919-64.305,116.822-65.988c-0.374-13.823,4.171-25.518,15.013-34.167c7.25-5.784,15.698-8.583,25.095-8.464
	c17.425,0.22,39.076,14.211,38.543,42.568c3.101,1.776,6.349,3.675,9.632,5.511c14.839,8.302,99.972,55.931,108.152,60.62
	c2.088,1.197,3.895,1.618,6.164,0.189c13.201-8.315,26.531-7.314,40.388-1.185c18.594,8.224,24.579,38.296,13.708,53.829
	c-2.274,3.249-4.714,6.475-7.572,9.194c-2.865,2.725-6.346,4.802-9.949,7.452c0,46.38,0,93.183,0,140.251
	c11.717,5.911,19.624,15.081,22.265,28.164c2.039,10.099-0.167,19.521-4.907,28.646c-5.609,10.798-15.304,15.078-26.275,17.089
	c-11.035,2.023-21.497,0.061-30.634-7.148c-40.492,22.033-80.769,43.95-121.169,65.933c0.187,13.61-4.219,25.147-14.865,33.635
	c-8.156,6.503-17.679,9.235-28.105,8.254c-19.065-1.794-37.095-18.305-35.232-43.895c-9.759-5.982-19.762-12.113-29.594-18.139
	c-17.288,6.27-34.564,2.394-41.37-9.215c-8.312-14.177-8.5-32.317,9.847-46.296c0-51.098,0-102.259,0-153.283
	c-17.645-12.488-18.9-31.22-9.828-46.576c4.373-7.402,11.878-10.127,19.631-11.968c7.993-1.899,15.669-0.318,22.954,3.719
	c8.279-4.482,30.526-16.158,33.178-17.953c1.266-0.857,2.51-2.581,2.707-4.054c1.715-12.787,11.029-23.427,23.788-26.822
	c11.909-3.169,25.591,1.577,32.96,11.652c3.176,4.342,5.274,9.214,6.14,14.618c0.211,1.319,1.15,3.037,2.256,3.619
	c12.292,6.465,24.681,12.744,37.049,19.063c0.185,0.094,0.433,0.064,0.652,0.09c16.444-6.899,34.527-4.304,41.377,5.698
	c9.762,14.253,11.29,33.097-6.588,47.778c0.276,3.956,2.525,35.641,3.296,47.292c0.222,3.355,0.783,6.287,3.137,9.135
	c11.001,13.313,9.049,29.407-0.601,41.729c-2.786,3.557-7.916,5.572-12.318,7.501c-7.317,3.207-14.899,2.952-22.472,0.312
	c-1.364-0.475-3.349-0.31-4.649,0.348c-12.99,6.577-25.921,13.273-38.784,20.095c-1.126,0.597-2.174,2.252-2.373,3.551
	c-2.309,15.082-14.848,26.66-29.704,27.228c-15.669,0.598-29.182-9.587-32.609-24.581c-0.124-0.541-0.392-1.112-0.315-1.628
	c0.853-5.742-2.848-8.247-7.134-10.651c-4.728-2.651-9.225-5.714-13.946-8.674c0.567-11.623,1.121-22.979,1.72-35.233
	c2.676,1.408,24.468,14.095,33.627,19.351c1.192,0.684,3.098,1.181,4.247,0.714c9.606-3.907,18.899-3.294,28.052,1.335
	c0.489,0.247,1.021,0.407,1.851,0.732c7.556-3.893,32.448-16.693,37.078-19.337c1.058-0.604,2.248-2.059,2.302-3.175
	c0.658-13.524,7.121-23.068,19.266-28.878c0.293-0.14,0.54-0.376,1.305-0.921c-0.999-14.427-2.018-29.15-3.06-44.192
	c-10.204-5.705-16.213-14.419-17.511-26.636c-13.082-6.695-26.3-13.46-39.451-20.191c-11.203,5.998-22.202,6.411-33.493,0.296
	c-11.804,6.371-23.607,12.741-35.531,19.176c-1.035,11.122-6.016,19.891-15.569,26.057c0,51.141,0,102.312,0,153.675
	c9.645,6.537,15.208,15.548,15.52,27.877C207.317,412.839,217.23,418.924,227.394,425.164z"/>
</svg>
