<svg aria-hidden="true" data-testid="test-icon" fill="currentColor" viewBox="0 0 24 24" xmlns="http://www.w3.org/2000/svg"><path fill-rule="evenodd" clip-rule="evenodd" d="M9.241 3c.347 0 .654.22.764.545l4.754 14.136 1.995-5.933a.804.804 0 01.763-.545h3.678c.445 0 .805.357.805.797 0 .44-.36.797-.805.797h-3.098l-2.575 7.658a.804.804 0 01-.763.545.804.804 0 01-.764-.545L9.241 6.319l-1.995 5.933a.804.804 0 01-.763.545H2.805A.801.801 0 012 12c0-.44.36-.797.805-.797h3.098l2.575-7.658A.804.804 0 019.241 3z"/></svg>
