<?xml version="1.0" encoding="iso-8859-1"?>
<!-- Generator: Adobe Illustrator 19.0.0, SVG Export Plug-In . SVG Version: 6.00 Build 0)  -->
<svg version="1.1" id="Layer_1" xmlns="http://www.w3.org/2000/svg" xmlns:xlink="http://www.w3.org/1999/xlink" x="0px" y="0px"
	 viewBox="0 0 500 500" style="enable-background:new 0 0 500 500;" xml:space="preserve">
<path id="XMLID_206_" style="fill:#1441F2;" d="M250.524,495.758C116.679,499.264,3.433,383.441,3.556,249.265
	C3.675,118.158,113.643,2.731,250.486,2.676C385.08,2.622,497.62,115.473,497.425,249.91
	C497.228,386.37,381.969,499.363,250.524,495.758z M459.99,249.9c0.019-115.191-93.48-209.665-207.631-209.797
	C135.624,39.968,41.115,133.048,41.017,248.25c-0.099,116.484,93.221,210.77,208.667,210.825
	C365.959,459.13,459.971,365.624,459.99,249.9z M469.578,241.847c6.26-0.364,11.575-0.672,17.236-1.001c0-2.534,0-4.171,0-6.353
	c-5.988,0.527-11.498,1.013-17.236,1.518C469.578,237.934,469.578,239.388,469.578,241.847z M13.866,234.476
	c0.167,2.429,0.28,4.073,0.44,6.4c5.968,0,11.461,0,17.565,0c-0.316-1.891-0.582-3.485-0.832-4.982
	C25.25,235.416,20.097,234.99,13.866,234.476z M201.151,17.559c1.193,6.061,2.263,11.498,3.453,17.542
	c2.139-0.452,3.708-0.783,5.854-1.236c-1.116-5.83-2.119-11.074-3.211-16.785C205.002,17.256,203.377,17.384,201.151,17.559z
	 M296.523,34.936c1.183-6.25,2.178-11.506,3.286-17.359c-2.362,0-4.124,0-6.318,0c-0.969,5.757-1.848,10.978-2.798,16.622
	C293.036,34.496,294.469,34.677,296.523,34.936z M321.993,475.949c-1.916-6.315-3.474-11.449-5.175-17.056
	c-2.026,0.538-3.628,0.963-5.812,1.542c1.617,5.545,3.113,10.678,4.748,16.282C317.868,476.457,319.48,476.258,321.993,475.949z
	 M184.122,458.722c-1.782,6.193-3.303,11.478-4.824,16.764c1.003,0.487,2.006,0.974,3.009,1.461
	c6.866-2.861,4.802-10.907,7.761-16.521C187.748,459.761,186.302,459.347,184.122,458.722z M112.109,419.674
	c-3.982,5.052-7.316,9.283-11.1,14.083c2.08,1.224,3.637,2.14,5.339,3.142c3.669-4.653,6.88-8.725,10.389-13.175
	C115.199,422.378,113.937,421.274,112.109,419.674z M479.742,189.064c-6.171,1.617-11.687,3.063-17.72,4.645
	c1.102,2.372,1.811,3.896,2.605,5.605c5.362-1.426,10.328-2.748,15.748-4.19C480.16,193.068,479.99,191.446,479.742,189.064z
	 M21.153,188.98c0,2.654,0,4.424,0,6.411c5.442,1.352,10.401,2.585,15.697,3.901c0.62-2.13,1.084-3.724,1.679-5.768
	C32.846,192.038,27.651,190.68,21.153,188.98z M464.04,146.907c-5.792,2.761-10.631,5.068-15.94,7.598
	c1.084,2.026,1.867,3.489,2.835,5.297c5.293-2.434,10.175-4.68,15.452-7.108C465.584,150.714,464.96,149.174,464.04,146.907z
	 M34.612,152.688c5.278,2.429,10.161,4.676,15.45,7.111c0.975-1.807,1.765-3.271,2.882-5.34c-5.499-2.566-10.519-4.909-16-7.467
	C36.054,149.165,35.424,150.704,34.612,152.688z M170.407,45.252c-2.475-5.899-4.613-10.995-7.01-16.71
	c-2.318,1.618-3.669,2.56-5.18,3.615c2.34,5.436,4.455,10.35,6.695,15.552C166.972,46.787,168.359,46.167,170.407,45.252z
	 M403.945,93.404c4.557-4.825,8.235-8.719,12.281-13.004c-1.372-1.712-2.431-3.034-3.939-4.914
	c-4.581,4.907-8.34,8.934-12.854,13.769C401.07,90.76,402.171,91.772,403.945,93.404z M100.992,88.575
	c-4.121-4.354-7.893-8.34-12.02-12.701c-1.654,2.025-2.701,3.307-3.948,4.834c4.017,4.211,7.708,8.08,11.771,12.339
	C98.386,91.352,99.511,90.153,100.992,88.575z M336.287,47.75c2.344-5.76,4.375-10.75,6.58-16.166
	c-2.003-0.877-3.514-1.538-5.566-2.436c-2.297,5.622-4.394,10.756-6.619,16.202C332.697,46.212,334.09,46.809,336.287,47.75z
	 M349.677,445.799c2.765,5.19,5.285,9.919,8.027,15.066c2.005-1.095,3.465-1.892,5.335-2.912
	c-2.827-5.312-5.431-10.205-8.309-15.613C352.695,443.734,351.325,444.671,349.677,445.799z M146.127,442.229
	c-3.002,5.951-5.49,10.883-8.222,16.299c2.348,0.804,3.913,1.339,5.756,1.97c2.631-5.066,5.018-9.66,7.643-14.715
	C149.685,444.671,148.315,443.731,146.127,442.229z M400.012,433.657c-4.03-5.021-7.405-9.226-11.065-13.787
	c-1.713,1.338-3.03,2.367-4.815,3.761c3.658,4.579,7.016,8.782,10.654,13.335C396.517,435.87,397.94,434.969,400.012,433.657z
	 M456.187,366.258c-5.044-2.962-9.654-5.67-14.702-8.635c-1.116,1.963-1.928,3.39-3.068,5.395c5.212,3.005,9.985,5.757,15.207,8.768
	C454.655,369.561,455.354,368.053,456.187,366.258z M47.629,371.788c5.466-3.231,10.056-5.945,15.112-8.934
	c-1.348-2.049-2.246-3.414-3.394-5.159c-5.037,2.99-9.633,5.719-14.656,8.7C45.706,368.257,46.498,369.711,47.629,371.788z
	 M456.004,325.636c6.078,2.11,11.28,3.917,16.938,5.881c0.596-2.289,1.008-3.869,1.518-5.828c-5.47-1.932-10.473-3.699-15.799-5.58
	C457.784,321.934,457.15,323.253,456.004,325.636z M28.345,331.564c5.615-2.03,10.788-3.9,16.855-6.094
	c-1.403-2.31-2.311-3.805-3.248-5.348c-5.589,2.057-10.392,3.825-15.586,5.737C27.069,327.883,27.609,329.441,28.345,331.564z
	 M468.278,279.082c-0.538,2.312-0.911,3.915-1.39,5.971c6.039,0.812,11.524,1.549,17.916,2.408c-0.37-2.724-0.613-4.506-0.839-6.169
	C478.525,280.526,473.867,279.87,468.278,279.082z M34.519,284.985c-0.862-2.351-1.433-3.91-2.136-5.825
	c-5.243,0.735-10.098,1.416-15.483,2.171c0,2.003,0,3.779,0,6.099C22.777,286.614,28.09,285.877,34.519,284.985z M56.06,113.854
	c5.304,3.795,9.687,6.931,14.6,10.447c1.232-2.024,2.177-3.575,3.228-5.3c-4.797-3.409-9.017-6.409-13.628-9.686
	C58.892,110.794,57.765,112.011,56.06,113.854z M426.746,119.308c1.557,1.849,2.735,3.246,4.06,4.819
	c4.885-3.608,9.214-6.805,14.2-10.487c-1.825-1.734-3.121-2.965-4.439-4.218C435.847,112.797,431.802,115.691,426.746,119.308z
	 M133.802,64.062c-3.515-5.353-6.551-9.977-9.86-15.018c-1.957,1.545-3.258,2.572-4.871,3.846c3.24,4.881,6.198,9.338,9.327,14.052
	C130.267,65.946,131.584,65.244,133.802,64.062z M83.273,390.83c-5.108,4.478-9.156,8.027-14.309,12.544
	c1.733,1.676,2.949,2.852,4.414,4.27c5.162-4.505,9.353-8.162,14.235-12.422C85.847,393.434,84.775,392.35,83.273,390.83z
	 M431.24,402.591c-4.574-3.946-8.796-7.589-13.356-11.523c-1.454,1.925-2.461,3.258-3.688,4.882
	c4.444,3.854,8.514,7.384,12.928,11.212C428.617,405.505,429.751,404.245,431.24,402.591z M376.813,49.307
	c-3.348,5.155-6.267,9.65-9.466,14.575c1.96,1.152,3.371,1.981,5.285,3.106c3.264-5.029,6.26-9.643,9.453-14.563
	C380.024,51.207,378.734,50.443,376.813,49.307z M253.209,29.983c0-5.929,0-11.077,0-16.735c-1.898,0-3.489,0-5.344,0
	c0,5.806,0,11.124,0,16.735C249.737,29.983,251.236,29.983,253.209,29.983z M225.853,467.702
	c-0.654,5.864-1.247,11.182-1.899,17.027c2.499,0.174,4.138,0.288,5.995,0.417c0.645-5.673,1.228-10.798,1.866-16.405
	C229.62,468.359,227.995,468.076,225.853,467.702z M269.091,468.84c0.759,5.973,1.41,11.096,2.128,16.746
	c2.087-0.486,3.704-0.863,5.899-1.375c-0.72-5.757-1.379-11.028-2.089-16.715C272.75,468.012,271.291,468.342,269.091,468.84z"/>
<path id="XMLID_167_" style="fill:#1441F2;" d="M315.185,338.746c6.267,5.712,12.539,11.292,18.65,17.044
	c4.819,4.536,6.163,9.892,1.164,14.906c-4.874,4.888-9.992,3.188-14.337-1.305c-6.64-6.866-13.163-13.845-20.08-21.139
	c-22.625,11.592-46.16,7.459-69.152,7.635c-36.856,0.283-67.923-30.866-68.231-67.768c-0.259-30.98-0.272-61.966-0.016-92.947
	c0.308-37.333,28.601-67.653,66.079-69.32c18.741-0.834,38.052-0.871,56.335,2.687c30.77,5.988,51.983,34.4,52.221,65.814
	c0.23,30.298-0.105,60.6,0.158,90.897c0.165,18.993-6.503,35.063-19.134,48.932C317.953,335.156,317.184,336.24,315.185,338.746z
	 M301.297,324.555c11.816-11.191,17.629-23.206,17.738-37.522c0.234-30.509,0.141-61.022,0.053-91.532
	c-0.078-26.977-21.361-49.313-48.317-50.31c-13.641-0.505-27.334-0.507-40.973,0.032c-26.537,1.049-47.792,23.435-47.877,50.027
	c-0.097,30.511-0.095,61.022,0.002,91.533c0.072,22.785,17.028,45.362,39.358,48.563c17.158,2.46,34.875,1.148,52.345,1.204
	c3.423,0.011,6.85-1.396,13.507-2.86c-6.536-5.627-11.281-9.477-15.751-13.623c-4.808-4.458-6.474-9.773-1.229-14.811
	c5.206-5,10.405-3.084,14.856,1.661C290.291,312.548,295.489,318.259,301.297,324.555z"/>
</svg>
