<?xml version="1.0" encoding="utf-8"?>
<!-- Generator: Adobe Illustrator 23.0.2, SVG Export Plug-In . SVG Version: 6.00 Build 0)  -->
<svg version="1.1" id="qbit" xmlns="http://www.w3.org/2000/svg" xmlns:xlink="http://www.w3.org/1999/xlink" x="0px" y="0px"
	 viewBox="0 0 500 500" style="enable-background:new 0 0 500 500;" xml:space="preserve">
<style type="text/css">
	.st0{fill:#255C84;}
</style>
<path class="st0" d="M294.2,428.7c-14.1,3.4-28.8,5.3-43.9,5.3C148.6,434,66.2,351.6,66.2,250S148.6,65.9,250.2,65.9
	S434.3,148.3,434.3,250c0,17.6-2.5,34.7-7.1,50.8c22.2,5.7,41.6,18.3,55.9,35.3c9.9-26.8,15.3-55.8,15.3-86.1
	c0-137.1-111.1-248.2-248.2-248.2S2,112.9,2,250s111.1,248.2,248.2,248.2c26.9,0,52.8-4.3,77.1-12.2
	C310.9,471,299,451.2,294.2,428.7z"/>
<g>
	<circle class="st0" cx="400.1" cy="405.7" r="73.9"/>
</g>
</svg>
