<?xml version="1.0" encoding="utf-8"?>
<!-- Generator: Adobe Illustrator 25.4.1, SVG Export Plug-In . SVG Version: 6.00 Build 0)  -->
<svg version="1.1" id="qi" xmlns="http://www.w3.org/2000/svg" xmlns:xlink="http://www.w3.org/1999/xlink" x="0px" y="0px"
	 viewBox="0 0 500 500" style="enable-background:new 0 0 500 500;" xml:space="preserve">
<style type="text/css">
	.st0{fill:#151619;}
</style>
<path class="st0" d="M248.5,157.4c-8.5-7.7-25.3-18.4-54.6-18.3c-29.2,0.1-24.5,15.2-24.5,15.2s-0.6,12.3,18.5,12.7
	s39.6,1.1,56.2,7.4C260.7,180.6,257,165.1,248.5,157.4L248.5,157.4z M179.4,185.5c-1.8,1.1-2.2,4-0.2,4.4
	c11.5,2.1,29.8,5.9,50.2,2.6c1.9-0.3,1.6-2.9,0.2-4.3C222.5,181.2,203.1,171.3,179.4,185.5L179.4,185.5z"/>
<path class="st0" d="M419.6,383.2c-0.8-1.1-2.4-1.4-3.5-0.6c-0.4,0.3-0.8,0.7-0.9,1.2c-11.9,35.3-21.6,26.7-26.1,19.1
	c-1.6-2.7-2.7-5.6-3.5-8.6c-11.3-45.1-1-86.7-1-86.7c6.2,19.2,22.4,24.9,30.6,26.6c1.4,0.3,2.7-0.6,3-2c0.1-0.6,0-1.2-0.3-1.7
	c-31.8-62.2-13-88.6-13-88.6c5.5,6.1,14.5,6.6,20.2,6.3c1.4-0.1,2.5-1.3,2.4-2.7c0-0.6-0.3-1.1-0.6-1.5c-23-25.4-24.8-34-25.7-77.1
	c-0.5-23.8-8.9-36.4-16.7-42.9c-8.9-7.5-16-17-19.9-28C333.7,8.7,275.6-2.8,221.6,0.5c-66.9,4.1-102.6,55.3-119.5,80.8
	c-17.9,27-31.8,66.9-30.9,79.1c0.9,12.2,12.2,10.3,12.2,24.4c0,14.1-21.8,25.9-13.2,65.5c3.8,17.5,19.1,30.6,12.2,70.5
	c-12.3,71.8,42.7,159,56.4,172c1.7,1.6,4.6,0.3,4.3-2c-2.1-16,1-38.3,1-38.3c27.6,59.1,104.7,48.1,128.9,43.1c1.4-0.3,2.3-1.6,2-3
	c-0.2-0.7-0.6-1.4-1.3-1.7c-24.4-13-30-39.3-30-39.3c24.3,11.5,39.8,9.6,47.3,7.1c1.3-0.4,2-1.9,1.6-3.2c-0.2-0.6-0.6-1-1.1-1.3
	c-7.3-4.6-18.5-23.5-26.9-42.1c-7.1-15.6-4.5-33.9,6.5-47c9.9-11.8,22.8-28.2,37.5-45.7c3.1-3.7,7.4-0.1,9,3.9
	c21.5,53.8,49.5,94.4,68.7,105.6c14,8.6,29.3,10.2,36.2,4.8C441.5,418.8,426.5,393,419.6,383.2L419.6,383.2z M186.9,333.1
	c-23.1,1.4-17.8-28.6-34.7-27.8c-18.1,0.8-12.7,23.7-24.9,25s-10.7-33.6-2.2-37.6c13.5-6.4,29.2-7.9,41.8-7.5
	c14.9,0.5,29.2-0.1,35.9,14.3C210.8,316.5,210,331.8,186.9,333.1L186.9,333.1z M332.7,119c-30.7,18.2-32.5,27.2-36.8,59.2
	c-1,7-2,15.3,1.3,19.9c7.3,10.5,21.1,18.3,17.3,36c-9,42.2-32.9,91.8-64.9,107.3c-3.9,1.9-8.3-1.9-9.2-6.1
	c-3.6-16.7-12.1-47.2-14.4-57.1c-11.4-56.9-65.7-57.7-67.2-46.8c-0.4,3.2,11,7.5,18.3,9.9c6.7,2.2,6.9,11.7,0.3,14
	c-1.7,0.6-3.6,0.8-5.4,0.9c-13.4-0.9-30.5,0.1-38.1,0.7c-5.3,0.4-10.1-3.3-11-8.6c-3-17.4,2.3-23.7,8.7-40.2
	c3.2-8.2,7.3-24.8,8.7-33.4c0.7-4.6,0.4-10.1-0.1-14.2c-0.6-4.9-0.8-9.8-0.7-14.7c0.5-15.8,2-28.7,14.1-28.7
	c21.7,0,67.5,0.1,74.8-10.6c7.6-11.2-34.9-0.3-80.5-1.8c-1.8-0.1-3.4-1.5-3.5-3.3c0-0.3-0.1-0.6-0.1-0.8c-0.3-3.2,2.1-6,5.3-6.3
	c0.1,0,0.3,0,0.4,0c24.4-0.3,42.9-2,47.8-9.1c5-7.3-19.7-4-47.6-3.8c-3.6,0-6.5-0.1-6.3-3.6v-0.1c0.2-2.9,2.5-5.3,5.4-5.5
	c16.4-1.1,23.4-2.3,24.1-7.6c0.7-5.3-1.7-4.7-19.9-3.7c-4,0.2-2.8-2.8-0.6-6c5.7-8.3,31-32.4,87.1-30.7c96.1,3.1,93.1,71.1,96,87.7
	C336.5,114.8,335.2,117.6,332.7,119L332.7,119z"/>
</svg>
