<?xml version="1.0" encoding="iso-8859-1"?>
<!-- Generator: Adobe Illustrator 19.0.0, SVG Export Plug-In . SVG Version: 6.00 Build 0)  -->
<svg version="1.1" id="Layer_1" xmlns="http://www.w3.org/2000/svg" xmlns:xlink="http://www.w3.org/1999/xlink" x="0px" y="0px"
	 viewBox="0 0 500 500" style="enable-background:new 0 0 500 500;" xml:space="preserve">
<linearGradient id="SVGID_1_" gradientUnits="userSpaceOnUse" x1="249.1738" y1="4" x2="249.1738" y2="497.0254">
	<stop  offset="4.783163e-04" style="stop-color:#36A7DD"/>
	<stop  offset="1" style="stop-color:#13307E"/>
</linearGradient>
<path style="fill:url(#SVGID_1_);" d="M248.499,497.278C114.737,498.189-1.999,386.88,2.105,242.437
	C5.763,113.706,112.2,0.498,255.095,3.213c130.076,2.471,245.511,110.338,241.132,255.99
	C492.386,387.003,386.971,497.928,248.499,497.278z M304.562,267.332c1.458,1.957,2.419,3.297,3.431,4.598
	c24.304,31.229,48.737,62.359,72.821,93.757c5.017,6.54,11.264,7.403,18.138,5.873c7.057-1.57,10.058-6.802,10.054-14.008
	c-0.041-71.618-0.034-143.237-0.009-214.855c0.002-6.83-2.976-11.923-9.456-13.737c-6.503-1.82-13.176-1.49-17.896,4.55
	c-10.258,13.127-20.336,26.395-30.607,39.512c-15.432,19.707-30.966,39.333-46.928,59.591
	c-14.187-18.059-27.903-35.429-41.514-52.881c-7.375-9.456-19.583-9.605-27.006-0.13c-4.388,5.6-8.653,11.295-13.038,16.897
	c-9.32,11.908-18.683,23.782-28.516,36.292c-10.646-13.502-20.507-25.879-30.228-38.365c-15.614-20.056-31.157-40.166-46.681-60.292
	c-4.907-6.362-11.542-7.034-18.449-5.156c-7.09,1.927-9.314,7.462-9.306,14.521c0.083,71.344,0.076,142.688,0.011,214.032
	c-0.006,6.831,2.706,11.786,9.189,13.816c6.693,2.096,13.52,1.205,18.011-4.463c13.726-17.325,26.909-35.079,40.456-52.548
	c12.008-15.485,24.221-30.813,36.851-46.855c11.928,15.269,23.922,29.139,34.224,44.168c14.461,21.095,26.887,21.897,41.605,0.463
	C280.191,296.862,292.414,282.817,304.562,267.332z M377.047,174.803c-19.624,25.033-39.249,50.066-59.225,75.547
	c19.988,25.512,39.773,50.764,60.972,77.822c0-52.852,0-102.803,0-152.755C378.212,175.213,377.629,175.008,377.047,174.803z
	 M180.534,250.379c-20.054-25.575-39.77-50.719-60.815-77.557c0,52.614,0,102.715,0,155.301
	C140.897,301.051,160.624,275.832,180.534,250.379z M242.221,294.138c4.115,5.252,8.584,5.843,12.811,0.638
	c12.015-14.796,23.778-29.797,35.588-44.652c-11.764-14.894-23.052-29.312-34.492-43.607c-4.671-5.837-9.718-5.867-14.127-0.288
	c-11.345,14.356-22.619,28.767-34.494,43.885C219.321,265.084,230.813,279.578,242.221,294.138z"/>
</svg>
