<?xml version="1.0" encoding="iso-8859-1"?>
<!-- Generator: Adobe Illustrator 19.0.0, SVG Export Plug-In . SVG Version: 6.00 Build 0)  -->
<svg version="1.1" id="Layer_1" xmlns="http://www.w3.org/2000/svg" xmlns:xlink="http://www.w3.org/1999/xlink" x="0px" y="0px"
	 viewBox="1000 -999 2500 2499" style="enable-background:new 1000 -999 2500 2499;" xml:space="preserve">
<title>qlc</title>
<path style="fill:#763C8A;" d="M1243.04,239.121c-3.07,269.568,140.45,952.448,1016.477,1014.802
	c56.2,3.279,99.101,51.497,95.822,107.697c-0.01,0.162-0.02,0.325-0.03,0.488c-3.852,53.707-49.103,94.983-102.937,93.894
	c-307.025-5.582-1188.522-179.247-1211.354-1216.378c-1.031-55.485,43.112-101.3,98.596-102.331
	c1.968-0.037,3.937-0.015,5.904,0.064C1200.277,139.143,1243.585,184.335,1243.04,239.121z M2243.663-755.027
	c269.568-1.563,951.611,145.753,1009.108,1022.115c2.835,56.193,50.687,99.449,106.881,96.614c0.249-0.013,0.497-0.026,0.746-0.04
	c53.776-3.474,95.386-48.497,94.62-102.379c-3.963-307.025-172.66-1189.527-1209.679-1218.276
	c-55.478-1.327-101.528,42.571-102.855,98.049c-0.047,1.946-0.037,3.892,0.03,5.837
	C2144.026-798.382,2188.917-754.854,2243.663-755.027z M2243.663-371.692c269.568-1.563,602.104,157.699,632.863,624.545
	c2.835,56.224,50.712,99.505,106.936,96.67c0.249-0.013,0.497-0.026,0.746-0.04c53.718-3.588,95.225-48.603,94.452-102.435
	c-3.963-307.025-190.3-816.017-833.434-820.594c-56.013-0.787-102.058,43.982-102.845,99.994c-0.018,1.297-0.011,2.595,0.02,3.892
	C2143.975-414.936,2188.916-371.457,2243.663-371.692z M1530.695,135.458c-55.995-1.606-102.69,42.485-104.296,98.481
	c-0.037,1.299-0.05,2.599-0.037,3.898c2.289,643.134,510.276,831.592,817.301,836.783c53.761,1.002,98.92-40.21,102.826-93.838
	c3.446-56.221-39.337-104.591-95.558-108.036c-0.208-0.013-0.417-0.025-0.625-0.036c-466.79-32.656-624.657-365.862-621.977-635.375
	C1628.903,182.476,1585.528,137.216,1530.695,135.458z M2258.344,483.122c-252.542-18.756-247.239-212.796-243.778-250.644
	c0.502-5.136,0.726-10.271,0.949-15.463c4.243-105.058,82.171-158.202,140.841-183.434c45.244-19.745,95.342-25.575,143.911-16.747
	c137.212,25.902,177.405,151.056,188.234,237.693c6.691,52.036,51.96,90.382,104.389,88.423
	c55.956-1.883,99.79-48.77,97.907-104.726c-0.026-0.781-0.062-1.561-0.106-2.342c-20.71-350.176-313.054-414.428-313.054-414.428
	c-252.207-61.014-397.179,43.486-474.996,143.855c-58.949,75.919-88.591,170.036-89.316,266.163
	c-2.233,335.997,255.166,437.036,414.819,457.747c66.652,8.708,126.438-40.248,124.261-107.403
	C2350.853,529.727,2310.3,487.176,2258.344,483.122L2258.344,483.122z M2664.901,661.085c40.695-40.718,40.695-106.71,0-147.428
	l-139.278-139.278c-40.737-40.701-106.747-40.701-147.484,0c-40.695,40.718-40.695,106.71,0,147.428l139.557,139.557
	C2558.478,701.803,2624.273,701.678,2664.901,661.085L2664.901,661.085z"/>
</svg>
