<?xml version="1.0" encoding="utf-8"?>
<!-- Generator: Adobe Illustrator 25.2.0, SVG Export Plug-In . SVG Version: 6.00 Build 0)  -->
<svg version="1.1" id="qnt" xmlns="http://www.w3.org/2000/svg" xmlns:xlink="http://www.w3.org/1999/xlink" x="0px" y="0px"
	 viewBox="0 0 500 500" style="enable-background:new 0 0 500 500;" xml:space="preserve">
<path d="M126.7,34.7l124.1,145.4l83.3-49c0,0-100.5-134.4-127.3-124.9C181.6,15.8,126.7,34.7,126.7,34.7z"/>
<path d="M337.2,131.1c0,0,18.9-33.2,28.3-77.5c0,0,94.3,37.9,58.1,132.8L337.2,131.1z"/>
<path d="M423.6,186.5l7.9,99.6l36.1-4.7c0,0,9.4-3.2,7.9-20.5c-1.6-19-4.7-58.5-4.7-58.5s1.6-9.5-20.4-12.6
	C423.6,184.9,423.6,186.5,423.6,186.5z"/>
<path d="M431.4,286.1l-72.3,58.5l33,64.8c0,0,7.9,25.3,31.4-3.2c22-28.5,31.4-33.2,29.8-50.6C451.9,338.2,447.1,297.1,431.4,286.1z"
	/>
<path d="M357.6,344.5l-99-44.3l-86.4,175.5c0,0-6.3,12.6,15.7,14.2c22,3.2,58.1,11.1,77-7.9C283.8,464.7,357.6,344.5,357.6,344.5z"
	/>
<path d="M258.6,298.7l-9.4-117L35.5,196c0,0-12.6,1.6-11,25.3c1.6,31.6,4.7,66.4,4.7,66.4s-1.6,14.2,26.7,15.8
	C84.2,305,255.5,305,258.6,298.7z"/>
</svg>
