<?xml version="1.0" encoding="iso-8859-1"?>
<!-- Generator: Adobe Illustrator 19.0.0, SVG Export Plug-In . SVG Version: 6.00 Build 0)  -->
<svg version="1.1" id="Layer_1" xmlns="http://www.w3.org/2000/svg" xmlns:xlink="http://www.w3.org/1999/xlink" x="0px" y="0px"
	 viewBox="0 0 2000 2000" style="enable-background:new 0 0 2000 2000;" xml:space="preserve">
<path style="fill:#1F2338;" d="M22.909,261.043c0-1.913,0-3.825,0-5.738c4.043-3.061,8.51-5.697,12.067-9.245
	c70.402-70.231,140.693-140.574,211.034-210.867c3.584-3.581,7.417-6.914,11.696-10.884
	C361.979,128.59,465.347,231.967,567.678,334.306c290.014-170.062,578.288-170.185,870.096,0.503
	c102.219-102.225,205.751-205.762,307.04-307.057c77.925,77.937,155.489,155.514,234.683,234.721
	c-101.907,101.899-205.237,205.22-307.616,307.591c169.059,289.255,168.827,577.517-1.637,868.122
	c102.234,102.229,205.583,205.573,307.671,307.656c-77.699,77.696-155.286,155.28-235.016,235.007
	c-2.537-3.271-5.603-8.23-9.613-12.248c-95.925-96.094-192.08-191.959-287.738-288.318c-8.485-8.547-13.717-8.533-23.817-2.549
	c-245.935,145.719-499.637,160.339-760.369,42.985c-31.623-14.233-61.395-32.578-95.873-51.083
	c-102.405,102.429-205.954,206.001-311.36,311.431c-2.753-3.558-5.571-8.138-9.267-11.842
	c-69.897-70.061-139.875-140.04-209.938-209.935c-3.539-3.53-7.988-6.148-12.013-9.191c0-1.913,0-3.825,0-5.738
	c4.026-3.044,8.477-5.661,12.016-9.193c95.087-94.929,189.856-190.179,285.38-284.665c11.525-11.4,13.232-18.56,4.285-32.976
	c-72.259-116.435-111.321-243.643-116.977-380.43c-6.759-163.474,33.339-315.2,119.951-454.19
	c6.625-10.632,4.659-15.867-3.332-23.817c-96.949-96.447-193.545-193.249-290.319-289.872
	C30.713,266.024,26.598,263.748,22.909,261.043z M1122.506,885.073c101.157,101.17,202.315,202.34,303.274,303.311
	c82.408-172.548,43.709-420.218-153.84-562.698c-191.99-138.47-459.817-108.222-615.878,68.59
	c-158.907,180.036-156.374,449.805,5.369,622.955c162.815,174.299,395.713,175.588,529.228,106.438
	c-101.81-101.777-202.998-202.932-303.426-303.327C964.935,1042.641,1042.247,965.33,1122.506,885.073z"/>
</svg>
