<?xml version="1.0" encoding="utf-8"?>
<!-- Generator: Adobe Illustrator 26.0.3, SVG Export Plug-In . SVG Version: 6.00 Build 0)  -->
<svg version="1.1" id="qtum" xmlns="http://www.w3.org/2000/svg" xmlns:xlink="http://www.w3.org/1999/xlink" x="0px" y="0px"
	 viewBox="0 0 500 500" style="enable-background:new 0 0 500 500;" xml:space="preserve">
<style type="text/css">
	.st0{fill-rule:evenodd;clip-rule:evenodd;fill:#0645F7;}
</style>
<path class="st0" d="M479.8,495.8c-10.3,0.1-18.6-8.2-18.7-18.5c-0.1-10.3,8.2-18.6,18.5-18.7c10.3-0.1,18.6,8.2,18.7,18.5
	c0,0,0,0.1,0,0.1C498.3,487.5,490,495.8,479.8,495.8z M470,295.5c-10.4-0.2-18.7-8.7-18.5-19.1c0.2-10.4,8.7-18.7,19.1-18.5
	c10.4,0.2,18.6,8.7,18.5,19.1c-0.2,10.3-8.5,18.5-18.8,18.5L470,295.5z M470,239.3c-10.4,0-18.8-8.4-18.8-18.8s8.4-18.8,18.8-18.8
	c10.4,0,18.8,8.4,18.8,18.8c0,0,0,0.1,0,0.1c0,10.2-8.2,18.6-18.5,18.7L470,239.3z M432.4,206.1v34.2h-37.5v-41.6
	c0-5,2-9.7,5.5-13.2l44.2-43.8c5.8-5.9,14.6-7.5,22.1-4c9.3,4.4,13.2,15.5,8.8,24.8c-0.9,2-2.2,3.8-3.7,5.3L432.4,206.1z
	 M466.4,362.7c-7.5,3.5-16.3,1.8-22.1-4l-44.2-43.8c-3.5-3.5-5.5-8.3-5.5-13.2v-42.4h37.8v34.2l39.1,39.1c7.2,7.3,7.2,19.1-0.1,26.3
	c-1.4,1.4-2.9,2.5-4.7,3.4L466.4,362.7z M376,180.8v135.4l107.6,107.6c7.5,7.3,7.6,19.3,0.3,26.8c-7.3,7.5-19.3,7.6-26.8,0.3l0,0
	L343.7,337.3c-3.6-3.5-5.6-8.3-5.6-13.3V172.9c0-5,2-9.8,5.6-13.3L413,90.3c7.3-7.5,19.2-7.7,26.8-0.4c7.5,7.3,7.7,19.2,0.4,26.8
	L376,180.8z M332.5,146.6c-3.6,3.6-8.4,5.5-13.4,5.5H168.4c-5,0.1-9.9-1.9-13.4-5.5L85.7,77.2c-7.5-7.3-7.6-19.3-0.3-26.7
	s19.3-7.6,26.7-0.3l64.1,64.2h135.3l63.6-63.8c5.8-5.9,14.8-7.6,22.3-4c9.4,4.7,13.1,16.1,8.4,25.5c-0.9,1.8-2.1,3.4-3.5,4.8
	L332.5,146.6z M311.5,89.9c-3.5,3.6-8.4,5.6-13.4,5.6h-41.9V57.7h34.4L329.3,19c5.8-5.9,14.7-7.6,22.2-4.1
	c9.4,4.7,13.1,16.1,8.4,25.5c-0.9,1.8-2.1,3.4-3.5,4.8L311.5,89.9z M271.4,41c-10.4,0-18.8-8.4-18.8-18.8S261,3.4,271.4,3.4
	s18.8,8.4,18.8,18.8c-0.2,10.1-8.3,18.2-18.4,18.4L271.4,41z M195.1,95.5c-5,0-9.9-2-13.4-5.6l-44.2-44.3
	c-7.5-7.3-7.6-19.3-0.3-26.7s19.3-7.6,26.7-0.3L203,57.7h34.4v37.8H195.1z M215.6,40.6c-10.4,0-18.8-8.4-18.8-18.8S205.3,3,215.6,3
	c10.4,0,18.8,8.4,18.8,18.8S226,40.6,215.6,40.6C215.6,40.6,215.6,40.6,215.6,40.6z M149.1,173.2v151c0,5-1.9,9.8-5.5,13.4L74.4,407
	c-5.8,5.9-14.8,7.6-22.3,4c-9.3-4.8-13-16.2-8.3-25.5c0.9-1.8,2.1-3.5,3.6-4.9l64-64.4V181.1l-64-64c-7.5-7.3-7.6-19.3-0.3-26.8
	c7.3-7.5,19.3-7.6,26.8-0.3l69.9,69.7C147.2,163.2,149.2,168.2,149.1,173.2z M86.5,185.2c3.8,3.5,6,8.4,6,13.6v42H54.7v-34.2
	L16,167.9c-7.5-7.2-7.7-19.1-0.5-26.6s19.1-7.7,26.6-0.5c0.1,0.1,0.1,0.1,0.2,0.2L86.5,185.2z M16.7,201.8
	c10.4-0.3,19,7.9,19.3,18.3c0.3,10.4-7.9,19-18.3,19.3c-10.4,0.3-19-7.9-19.3-18.3c0-0.2,0-0.3,0-0.5c0-10.3,8.4-18.7,18.7-18.8
	L16.7,201.8z M16.7,258.1c10.4-0.3,19,7.9,19.3,18.3s-7.9,19-18.3,19.3s-19-7.9-19.3-18.3c0-0.1,0-0.2,0-0.3
	c-0.1-10.4,8.2-18.9,18.6-19c0,0,0.1,0,0.1,0L16.7,258.1z M54.3,293.5v-34.2h38.2v42c-0.1,5-2.3,9.8-6,13.2l-43.8,43.8
	c-5.8,5.9-14.6,7.5-22.1,4c-9.3-4.4-13.2-15.5-8.7-24.8c0.9-2,2.2-3.7,3.7-5.2L54.3,293.5z M155,346.7c3.5-3.6,8.3-5.6,13.3-5.6H319
	c5,0,9.9,2,13.4,5.6L445,459.5c7.5,7.3,7.6,19.3,0.3,26.7c-7.3,7.5-19.3,7.6-26.7,0.3L310.9,378.9H176l-63.7,63.7
	c-5.8,5.9-14.7,7.6-22.2,4.1c-9.4-4.7-13.1-16.1-8.4-25.5c0.9-1.8,2.1-3.4,3.5-4.8L155,346.7z M181.8,403.4
	c3.6-3.5,8.4-5.4,13.4-5.5h42.3v37.8h-34.5l-38.2,38.6c-7.3,7.5-19.2,7.7-26.7,0.4c-7.5-7.3-7.7-19.2-0.4-26.7L181.8,403.4z
	 M215.7,456.8c10.4-0.1,18.8,8.3,18.9,18.7c0.1,10.4-8.3,18.8-18.7,18.9c-10.4,0.1-18.8-8.3-18.9-18.7c0,0,0-0.1,0-0.1
	C197.1,465.3,205.3,456.9,215.7,456.8L215.7,456.8z M298.6,398.1c5,0,9.8,2,13.4,5.5l44.2,44.3c7.5,7.3,7.6,19.3,0.3,26.8
	c-7.3,7.5-19.3,7.6-26.8,0.3l0,0l-39.1-39.1h-34.4v-38h42.3L298.6,398.1z M271.9,456.8c10.4,0.2,18.7,8.7,18.5,19.1
	s-8.7,18.7-19.1,18.5c-10.3-0.2-18.5-8.5-18.5-18.8c0-10.4,8.4-18.8,18.8-18.8C271.7,456.8,271.7,456.8,271.9,456.8L271.9,456.8z"/>
<path class="st0" d="M432.6,206.1v34.2h-37.8v-41.6c0-5,2-9.7,5.5-13.2l44.2-43.8c5.8-5.9,14.6-7.5,22.1-4
	c9.3,4.4,13.2,15.5,8.8,24.8c-0.9,2-2.2,3.8-3.7,5.3L432.6,206.1z M466.7,362.7c-7.5,3.5-16.3,1.8-22.1-4l-44.2-43.8
	c-3.5-3.5-5.5-8.3-5.5-13.2v-42.4h37.8v34.2l39.1,39.1c7.2,7.4,7,19.1-0.3,26.3c-1.4,1.4-3,2.5-4.7,3.4V362.7z M332.5,147.4
	c-3.6,3.6-8.4,5.5-13.4,5.5H168.4c-5.1-0.1-10-2.4-13.4-6.3L85.7,77.2c-7.5-7.3-7.6-19.3-0.3-26.7s19.3-7.6,26.7-0.3l64.1,64.2
	h135.3l63.6-63.8c5.8-5.9,14.8-7.6,22.3-4c9.4,4.7,13.1,16.1,8.4,25.5c-0.9,1.8-2.1,3.4-3.5,4.8L332.5,147.4z M311.5,89.9
	c-3.5,3.6-8.4,5.6-13.4,5.6h-41.9V57.7h34.4L329.3,19c5.8-5.9,14.7-7.6,22.2-4.1c9.4,4.7,13.1,16.1,8.4,25.5
	c-0.9,1.8-2.1,3.4-3.5,4.8L311.5,89.9z M271.4,41c-10.4,0-18.8-8.4-18.8-18.8S261,3.4,271.4,3.4s18.8,8.4,18.8,18.8
	c-0.2,10.1-8.3,18.2-18.4,18.4L271.4,41z M195.1,95.5c-5,0-9.9-2-13.4-5.6l-44.2-44.3c-7.5-7.3-7.6-19.3-0.3-26.7s19.3-7.6,26.7-0.3
	L203,57.7h34.4v37.8H195.1z M215.6,40.6c-10.4,0-18.8-8.4-18.8-18.8S205.3,3,215.6,3c10.4,0,18.8,8.4,18.8,18.8S226,40.6,215.6,40.6
	C215.6,40.6,215.6,40.6,215.6,40.6z M149.1,173.2v151c0,5-1.9,9.8-5.5,13.4L74.4,407c-5.8,5.9-14.8,7.6-22.3,4
	c-9.3-4.8-13-16.2-8.3-25.5c0.9-1.8,2.1-3.5,3.6-4.9l64-64.4V181.1l-64-64c-7.5-7.3-7.6-19.3-0.3-26.8c7.3-7.5,19.3-7.6,26.8-0.3
	l69.9,69.7C147.2,163.2,149.2,168.2,149.1,173.2z M86.5,185.2c3.8,3.5,6,8.4,6,13.6v42H54.7v-34.2L16,167.9
	c-7.5-7.2-7.7-19.1-0.5-26.6s19.1-7.7,26.6-0.5c0.1,0.1,0.1,0.1,0.2,0.2L86.5,185.2z M16.7,201.8c10.4-0.3,19,7.9,19.3,18.3
	c0.3,10.4-7.9,19-18.3,19.3c-10.4,0.3-19-7.9-19.3-18.3c0-0.2,0-0.3,0-0.5c0-10.3,8.4-18.7,18.7-18.8L16.7,201.8z M16.7,258.1
	c10.4-0.3,19,7.9,19.3,18.3s-7.9,19-18.3,19.3s-19-7.9-19.3-18.3c0-0.1,0-0.2,0-0.3c-0.1-10.4,8.2-18.9,18.6-19c0,0,0.1,0,0.1,0
	L16.7,258.1z M54.3,293.5v-34.2h38.2v42c-0.1,5-2.3,9.8-6,13.2l-43.8,43.8c-5.8,5.9-14.6,7.5-22.1,4c-9.3-4.4-13.2-15.5-8.7-24.8
	c0.9-2,2.2-3.7,3.7-5.2L54.3,293.5z M155,346.7c3.5-3.6,8.3-5.6,13.3-5.6H319c5,0,9.9,2,13.4,5.6L445,459.5
	c7.5,7.3,7.6,19.3,0.3,26.7c-7.3,7.5-19.3,7.6-26.7,0.3L310.9,378.9H176l-63.7,63.7c-5.8,5.9-14.7,7.6-22.2,4.1
	c-9.4-4.7-13.1-16.1-8.4-25.5c0.9-1.8,2.1-3.4,3.5-4.8L155,346.7z M181.8,403.4c3.6-3.5,8.4-5.4,13.4-5.5h42.3v37.8h-34.5
	l-38.2,38.6c-7.3,7.5-19.2,7.7-26.7,0.4c-7.5-7.3-7.7-19.2-0.4-26.7L181.8,403.4z M215.7,456.8c10.4-0.1,18.8,8.3,18.9,18.7
	c0.1,10.4-8.3,18.8-18.7,18.9c-10.4,0.1-18.8-8.3-18.9-18.7c0,0,0-0.1,0-0.1C197.1,465.3,205.3,456.9,215.7,456.8L215.7,456.8z
	 M298.6,398.1c5,0,9.8,2,13.4,5.5l44.2,44.3c7.5,7.3,7.6,19.3,0.3,26.8c-7.3,7.5-19.3,7.6-26.8,0.3l0,0l-39.1-39.1h-34.4v-38h42.3
	L298.6,398.1z M271.9,456.8c10.4,0.2,18.7,8.7,18.5,19.1s-8.7,18.7-19.1,18.5c-10.3-0.2-18.5-8.5-18.5-18.8
	c0-10.4,8.4-18.8,18.8-18.8C271.7,456.8,271.7,456.8,271.9,456.8L271.9,456.8z"/>
</svg>
