<?xml version="1.0" encoding="utf-8"?>
<!-- Generator: Adobe Illustrator 26.0.3, SVG Export Plug-In . SVG Version: 6.00 Build 0)  -->
<svg version="1.1" id="quick" xmlns="http://www.w3.org/2000/svg" xmlns:xlink="http://www.w3.org/1999/xlink" x="0px" y="0px"
	 viewBox="0 0 500 500" style="enable-background:new 0 0 500 500;" xml:space="preserve">
<style type="text/css">
	.st0{fill:#408AC9;}
	.st1{fill:url(#SVGID_1_);}
	.st2{fill:#262F72;}
	.st3{fill:#161E41;}
	.st4{fill:#FFFFFF;}
	.st5{fill:#0F1F65;}
</style>
<path class="st0" d="M484.9,265.1c0,22.8-3.3,44.9-9.3,65.7c-13.1,45.2-39.5,84.7-74.5,114.2c0,0,0,0,0,0
	c-5.6,4.7-11.4,9.1-17.4,13.3c-37.9,26.3-84,41.7-133.7,41.7c-61.5,0-117.4-23.6-159.3-62.2c0,0,0,0,0,0
	C45,395.5,16.1,335.4,15.1,268.5c0-1.1,0-2.3,0-3.4C15.1,135.4,120.3,30.2,250,30.2c28.9,0,56.6,5.2,82.2,14.8
	c2.4,0.9,4.7,1.8,7,2.7C424.7,82.8,484.9,166.9,484.9,265.1z"/>
<linearGradient id="SVGID_1_" gradientUnits="userSpaceOnUse" x1="47.2064" y1="258.966" x2="472.0469" y2="258.966" gradientTransform="matrix(0.6411 0.7674 -0.7674 0.6411 282.2833 -100.1866)">
	<stop  offset="0" style="stop-color:#89ACDA"/>
	<stop  offset="0.1911" style="stop-color:#87AADA;stop-opacity:0"/>
</linearGradient>
<path class="st1" d="M386.2,428.1c-50.1,41.9-113.8,56.7-173.5,46.1c0,0,0,0,0,0c-6.5-1.2-12.9-2.6-19.3-4.4
	c-40.3-11.1-77.6-34.1-106.4-68.6c-35.6-42.6-51.7-95.1-49.2-146.6c0,0,0,0,0-0.1c2.8-56.2,27.7-111.1,73.6-150.6
	c0.8-0.7,1.6-1.3,2.4-2c90-75.2,224-63.2,299.2,26.8C488.2,218.9,476.2,352.9,386.2,428.1z"/>
<path class="st2" d="M421.3,362c0,34-10.5,63.2-20.2,83c-40.8,34.3-93.5,55-151,55c-61.5,0-117.4-23.6-159.3-62.3
	c25.9,21.5,58.5,36.3,99.4,36.3c42.4,0,71.8-10.7,92.1-26.1c52-39.5,44.3-109.8,44.3-109.8c-7.5,9.2-17.5,16-27.2,20.5
	c3.2-6,6.1-12.8,6.2-19.9c-4.9,5.1-10.3,8.6-15.4,10.7l5.9-19.6l-1.5-8c0.8-11-1.3-21.6-6-31.5l-1.2-6.2l-7.9-8
	c-2.8-3.5-6-6.8-9.6-10c0,0-0.1-0.1-0.1-0.1c-0.3-0.3-0.7-0.6-1-0.9c0.2,0.2,0.5,0.5,0.9,1l-1.3-1.3c0,0-30.5-19.3-72.7-19.3
	c-42.2,0-50.4,9.6-50.4,19.3c0,9.8,8.3,14.7,8.3,14.7c-25.7-1.2-46.4-10.6-60.4-30.6l0.3-0.3c46.7-33,101.8-41.7,165.2-26.3
	c3.2,0.8,6.4,1.6,9.6,2.5c-3.9-7.4-9.4-14-15.8-19.6c-7-6.2-15-11.3-23.5-15.2c0,0,15.3-0.6,21.5-0.3c6.1,0.3,51.9-0.6,98.8,31.9
	C396.1,254,421.3,304.3,421.3,362z"/>
<path class="st3" d="M270.4,242.7c-68.1-27.7-126-21.7-177.3,6.1l0-0.1c46.8-33.1,102-42,165.5-26.5
	C264,229.8,268.3,236.7,270.4,242.7z"/>
<path class="st4" d="M405.2,192.2c-23.7-17.1-51.7-28.3-81.3-32.2c29.7,0.4,58.3,6.5,86.2,21.5c-1.3-5-4-9.6-7.4-14
	c22.5,9.2,44,23.7,64.7,41.6c0,0,0,0,0,0c-43.4-51.3-111.4-84.7-163.1-85.3c-16.2,13.1-33.3,22-51.2,27.4
	c9.3-8.4,15.7-19.2,19.3-32.6c26.6-10.3,48.5-28.2,66.3-53.1c-5.6,2.2-10.9,3.6-15.9,4.3c6.3-7.3,11.7-14.7,16.3-22.1
	C349,32.1,355.4,16.1,359.9,0c-7.4,16.3-16.6,31.3-27.6,45c-15.6,19.4-34.9,36.1-57.7,50.3c-0.5-11.8-3.8-21.4-9.8-28.8
	c0,0-6.2,15.5-30.2,30.1c-17.3,10.5-31.7,15.8-46.7,21.2c-7.7,2.8-20.7,12.3-20.7,28.6c0,16.3,19,17.8,19,17.8s-4.9,2.5-10.1,2.5
	c-5.2,0-10.7-4.5-10.7-4.5s-19.6,23.8-41.3,23.8c-15.2,0-8.9-22.6-8.9-22.6c-38.5,27.9-43.7,59.8-34.4,94.9c4-3.3,8.1-6.4,12.3-9.4
	c0.1-0.1,0.2-0.1,0.3-0.2c46.7-33,101.8-41.7,165.2-26.3c3.2,0.8,6.4,1.6,9.6,2.5c-3.9-7.4-9.4-14-15.8-19.6
	c-7-6.2-15-11.3-23.5-15.2c0,0,15.3-0.6,21.5-0.3c6.1,0.3,51.9-0.6,98.8,31.9c47,32.5,72.1,82.9,72.1,140.6c0,34-10.5,63.2-20.2,83
	c35.1-29.5,61.4-69,74.5-114.2v-1.9C474.8,269.9,446.6,222,405.2,192.2z M117.9,209.4C117.8,209.4,117.8,209.5,117.9,209.4
	c-0.3,0.5-0.4,0.8-0.4,0.8s-0.5-5.1-6-5.1c-5.4,0-14.7,11.2-15.1,11.7c0,0,0,0,0,0s4.5-23.5,17.9-23.5
	C125.8,193.3,119.7,206,117.9,209.4z M191.5,154.8c0,0-3.4-9.5,10.5-18c11.3-7,20.4-9.2,28-11.7c1.7-0.5,3.3-1.1,4.8-1.7
	c8.5-3.4,14-9,14-9C242,140.3,225.8,156.8,191.5,154.8z"/>
<path class="st3" d="M282.2,447.9c-20.3,15.4-49.6,26.1-92.1,26.1c-40.9,0-73.5-14.7-99.4-36.3c0,0,0,0,0,0
	C45,395.5,16.1,335.4,15.1,268.5c18.7,42,64.4,116.6,152.4,116.4c86.3-0.1,120.1-60.8,113.5-94.7c-0.4-1.9-0.9-3.7-1.5-5.4v0
	c-0.2-0.6-0.4-1.2-0.7-1.7c-4.4-10.4-7.6-15.1-9.3-17.1c0,0,0,0,0,0c-0.4-0.4-0.7-0.8-0.9-1c0.3,0.3,0.7,0.6,1,0.9
	c0,0,0.1,0.1,0.1,0.1c3.5,3.2,6.7,6.5,9.6,10c3.7,4.5,6.7,9.3,9.1,14.3c4.7,9.9,6.8,20.5,6,31.5c-0.7,9.5-3.5,19.3-8.6,29
	c1.4-0.4,2.8-0.9,4.3-1.5c5.2-2.1,10.5-5.6,15.4-10.7c-0.1,7.1-3,13.8-6.2,19.9c9.7-4.4,19.7-11.3,27.2-20.5
	C326.5,338.1,334.2,408.4,282.2,447.9z"/>
<path class="st3" d="M421.3,362c0,34-10.5,63.2-20.2,83c0,0,0,0,0,0c-5.6,4.7-0.2,0.5,0,0c5.9-13,13.9-46.4,11.8-74.3
	c-3.2-42.4-7.3-79.8-58.6-124.5c-42.7-37.1-84.1-40.5-101.9-41.2c-7-6.2-15-11.3-23.5-15.2c0,0,15.3-0.6,21.5-0.3
	c6.1,0.3,51.9-0.6,98.8,31.9C396.1,254,421.3,304.3,421.3,362z"/>
<path class="st3" d="M248.8,114.4c-6.8,25.9-23,42.4-57.3,40.4c0,0,21.4-3,30.8-15.4c4.4-5.9,6.6-10.8,7.7-14.3
	c1.7-0.5,3.3-1.1,4.8-1.7C243.3,120,248.8,114.4,248.8,114.4z"/>
<path class="st3" d="M117.9,209.4c0.5-1.1,5.1-11.9-4.2-11.9c-9.7,0-17.1,18.7-17.3,19.3c0,0,0,0,0,0s4.5-23.5,17.9-23.5
	C125.8,193.3,119.7,206,117.9,209.4z"/>
<path class="st3" d="M359.2,22c-1.6,14.6-2.3,23.4-15,53c-12.7,29.6-39.7,48.9-39.7,48.9c-16.2,13.1-33.3,22-51.2,27.4
	c9.3-8.4,15.7-19.2,19.3-32.6c26.6-10.3,48.5-28.2,66.3-53.1c-5.6,2.2-10.9,3.6-15.9,4.3c19.5-22.6,30.4-46,37-69.8
	C359.9,0,360.8,7.4,359.2,22z"/>
<path class="st3" d="M467.5,209.1c-0.6-0.4-10.4-6.2-30.4-11.8c-14.8-4.1-26.5-5-31.9-5.1c-23.7-17.1-51.7-28.3-81.3-32.2
	c29.7,0.4,58.3,6.5,86.2,21.5c-1.3-5-4-9.6-7.4-14C425.3,176.7,446.7,191.2,467.5,209.1z"/>
<path class="st5" d="M305.6,338.6c-6.3,6.5-13.3,10.5-19.7,12.2c16.3-31.1,9.4-62.1-16-84.8c0,0-0.1-0.1-0.1-0.1
	c-0.3-0.3-0.7-0.6-1-0.9c-0.1-0.1-0.1-0.1-0.2-0.2c-0.1,0-0.1-0.1-0.2-0.2c0,0-0.1,0-0.1-0.1c0.3,0.2,4.9,2.1,7.9,3.9
	c3.1,1.8,20.7,13.2,26.5,33.1C308.5,321.5,305.6,338.6,305.6,338.6z"/>
<path class="st5" d="M346.9,348.2c0,17.5-1.5,37-23.6,65.2c-16,20.5-33,30.5-41.1,34.5c52-39.5,44.3-109.8,44.3-109.8
	s5.9-6.1,8.1-12.5c2.2-6.4,3.6-12.7,3.6-12.7S346.9,330.7,346.9,348.2z"/>
</svg>
