<?xml version="1.0" encoding="utf-8"?>
<!-- Generator: Adobe Illustrator 24.2.2, SVG Export Plug-In . SVG Version: 6.00 Build 0)  -->
<svg version="1.1" id="rae" xmlns="http://www.w3.org/2000/svg" xmlns:xlink="http://www.w3.org/1999/xlink" x="0px" y="0px"
	 viewBox="0 0 500 500" style="enable-background:new 0 0 500 500;" xml:space="preserve">
<style type="text/css">
	.st0{fill:#384051;}
</style>
<path class="st0" d="M492.4,157.2l-177.3-102c-3.8-2.2-8.7-0.9-10.9,2.9c-1.3,2.2-1.4,4.9-0.4,7.3l72.8,162.3c1.8,4,6.5,5.8,10.5,4
	c0.2-0.1,0.5-0.2,0.7-0.4L492.4,171c3.8-2.2,5.1-7.1,2.9-10.9C494.6,158.9,493.6,157.9,492.4,157.2z"/>
<path class="st0" d="M123.5,227.6l72.7-162.3c1.8-4,0-8.7-4-10.6c-2.3-1.1-5.1-0.9-7.3,0.4L7.6,157.2c-3.8,2.3-5.1,7.2-2.9,11
	c0.7,1.2,1.7,2.2,2.9,2.9l104.7,60.2c3.8,2.2,8.7,0.9,10.9-2.9C123.3,228.1,123.4,227.9,123.5,227.6z"/>
<path class="st0" d="M243.3,444.6l-85.7-191.3c-0.9-2-0.9-4.4,0-6.4l85.7-191.4c1.8-4,6.5-5.9,10.5-4.1c1.8,0.8,3.3,2.3,4.1,4.1
	l84.5,191.9c0.9,2,0.9,4.4,0,6.4l-84.5,190.7c-1.8,4-6.5,5.9-10.6,4.1C245.5,447.8,244.1,446.4,243.3,444.6z"/>
</svg>
