<?xml version="1.0" encoding="utf-8"?>
<!-- Generator: Adobe Illustrator 25.2.1, SVG Export Plug-In . SVG Version: 6.00 Build 0)  -->
<svg version="1.1" id="rari" xmlns="http://www.w3.org/2000/svg" xmlns:xlink="http://www.w3.org/1999/xlink" x="0px" y="0px"
	 viewBox="0 0 500 500" style="enable-background:new 0 0 500 500;" xml:space="preserve">
<style type="text/css">
	.st0{fill:url(#SVGID_1_);}
	.st1{fill:#FFFFFF;}
</style>
<radialGradient id="SVGID_1_" cx="127.0811" cy="129.6877" r="373.3062" gradientUnits="userSpaceOnUse">
	<stop  offset="0.1678" style="stop-color:#2B6FFE"/>
	<stop  offset="0.5059" style="stop-color:#5899FF"/>
	<stop  offset="0.8038" style="stop-color:#FF74F1"/>
</radialGradient>
<circle class="st0" cx="250" cy="242" r="239"/>
<path class="st1" d="M329.9,241.7c16.8,6.7,24.2,19.8,23.7,38.1c-0.3,10.9-0.1,21.9-0.1,33.5c-5.9,0-11.2,0-16.4,0
	c-12.5,0-25-0.1-37.5,0.1c-3.5,0-4.7-1.2-4.6-4.6c0.2-9.5,0.1-19,0.1-28.5c0-10.3-4.4-14.9-14.9-15c-15-0.2-30,0-45,0
	c-7.7,0-15.3,0-23.5,0c-0.1,2-0.3,3.7-0.3,5.5c0,12.7,0,25.3,0,38c0,2.4,0.2,4.7-3.5,4.6c-17.7-0.1-35.3-0.1-53-0.1
	c-0.5,0-0.9-0.3-1.7-0.5c0-47.1,0-94.2,0-141.8c1.6-0.1,3.2-0.2,4.8-0.2c46.5,0,93-0.3,139.5,0.3c10.3,0.1,21,1.9,30.8,5.1
	c24.8,8.2,31.8,41.9,12.7,58.8C337.6,237.8,333.4,239.6,329.9,241.7z M211.5,225.5c1.9,0.1,3.4,0.3,4.9,0.3c21.7,0,43.3,0,65,0
	c7.5,0,10.5-1.9,10.5-6.3c0-4.4-3.2-6.4-10.5-6.4c-21.7,0-43.3,0-65,0c-1.6,0-3.2,0.1-4.9,0.2C211.5,217.6,211.5,221.3,211.5,225.5z
	"/>
</svg>
