<?xml version="1.0" encoding="iso-8859-1"?>
<!-- Generator: Adobe Illustrator 19.0.0, SVG Export Plug-In . SVG Version: 6.00 Build 0)  -->
<svg version="1.1" id="Layer_1" xmlns="http://www.w3.org/2000/svg" xmlns:xlink="http://www.w3.org/1999/xlink" x="0px" y="0px"
	 viewBox="-749 751 500 500" style="enable-background:new -749 751 500 500;" xml:space="preserve">
<path style="fill:#415CF5;" d="M-701.04,1074.281c-5.304,9.658-9.369,16.95-13.331,24.298c-6.854,12.714-14.49,13.586-25.284,2.87
	c-2.498-6.602-0.239-12.448,2.995-17.96c8.451-14.407,17.079-28.709,26.499-44.499c-9.28-59.922,3.679-116.355,41.537-166.262
	c30.156-39.754,70.149-65.567,118.407-77.542c96.998-24.07,208.768,22.341,253.078,134.824c6.31-7.792,9.798-16.439,14.29-24.461
	c4.883-8.72,11.485-10.703,19.755-5.937c1.752,1.01,3.103,2.715,4.153,3.661c3.092,7.153,0.899,12.975-2.177,18.599
	c-4.01,7.333-7.942,14.725-12.332,21.829c-4.393,7.109-9.31,13.894-14.606,21.721c9.408,61.694-3.624,118.882-42.591,169.215
	c-29.98,38.725-69.274,64.05-116.664,75.796c-52.816,13.091-103.808,6.764-152.002-18.737
	C-647.54,1166.178-680.516,1126.917-701.04,1074.281z M-317.67,958.722c-19.402-85.904-108.207-161.171-219.001-139.016
	c-105.59,21.114-156.672,121.272-147.725,191.184c3.248-2.523,6.248-4.557,8.909-6.966c27.315-24.723,58.48-43.123,92.772-56.282
	c35.263-13.531,71.644-22.399,109.366-25.502c9.712-0.799,19.394-1.968,30.617-3.124c-10.234-10.236-19.382-19.384-28.529-28.533
	c-9.077-9.078-18.153-18.157-27.453-27.458c6.493-7.264,12.33-13.548,18.889-18.873c19.169,16.166,83.782,81.945,87.078,87.601
	c-26.112,26.114-51.763,51.766-76.86,76.865c-4.844-4.761-10.703-10.52-17.166-16.874c14.174-14.198,28.425-28.472,44.288-44.361
	c-6.326,0-10.076-0.394-13.717,0.066c-19.451,2.454-39.067,4.145-58.271,7.909c-46.488,9.113-89.691,26.473-127.72,55.25
	c-14.286,10.811-28.134,22.286-38.125,36.91c19.305,85.507,108.108,160.806,218.91,138.636
	c106.136-21.236,156.69-121.908,147.725-191.182c-3.247,2.524-6.245,4.563-8.91,6.971c-27.328,24.702-58.478,43.127-92.775,56.281
	c-35.267,13.526-71.651,22.39-109.374,25.499c-9.707,0.8-19.384,1.96-30.609,3.112c19.323,19.33,37.544,37.557,55.99,56.009
	c-6.507,7.264-12.342,13.55-18.894,18.875c-19.604-16.567-83.77-81.914-88.565-90.194c25.575-25.575,51.225-51.225,75.507-75.507
	c7.242,6.457,13.382,11.932,20.146,17.963c-14.316,14.34-28.565,28.613-44.323,44.397c21.408,0.774,39.955-1.926,58.416-5.167
	c41.454-7.276,81.01-19.968,117.253-41.888C-356.4,997.159-335.048,980.583-317.67,958.722z"/>
</svg>
