<?xml version="1.0" encoding="utf-8"?>
<!-- Generator: Adobe Illustrator 19.0.0, SVG Export Plug-In . SVG Version: 6.00 Build 0)  -->
<svg version="1.1" id="Layer_1" xmlns="http://www.w3.org/2000/svg" xmlns:xlink="http://www.w3.org/1999/xlink" x="0px" y="0px"
	 viewBox="2000 0 500 500" style="enable-background:new 2000 0 500 500;" xml:space="preserve">
<style type="text/css">
	.st0{fill:#7CC245;}
	.st1{fill:#FCCB32;}
	.st2{fill:#EE3F26;}
	.st3{fill:#CF3627;}
	.st4{fill:#F05048;}
	.st5{fill:#2591D4;}
	.st6{fill:#F47F22;}
	.st7{fill:#4CAA4C;}
	.st8{fill:#1E85CA;}
	.st9{fill:#35A9E1;}
	.st10{fill:#0161AD;}
	.st11{fill:#51B34B;}
	.st12{fill:#444344;}
	.st13{fill:#C03225;}
</style>
<path class="st0" d="M2207.5,434.9l-31.4-65.2l-56.2,88.6c4.9,3,9.9,5.9,15,8.6c6.4,3.4,13,6.5,19.7,9.3
	c21.5,8.9,44.1,14.8,67.2,17.3c4.8,0.5,9.7,0.9,14.5,1.2L2207.5,434.9L2207.5,434.9z"/>
<path class="st1" d="M2487.1,182.5c-1.6-5.6-3.3-11.1-5.3-16.6l-173.4,153.2l-23.9,21.1l2,19.5l13.1,130.2c8.6-1.8,17-4,25.4-6.7
	c99.3-31.9,171.2-125,171.2-234.9C2496.1,225.6,2492.9,203.5,2487.1,182.5z"/>
<path class="st2" d="M2146.1,380l38.3,79.5l132.9-117.4l-24.1-238.5L2146.1,380z"/>
<path class="st3" d="M2162.9,371.2l126.7-238l0.9,9.1l13.6-25.5l0-0.1l-238.6,74.8l94.4,196.2l5.7-10.8L2162.9,371.2z"/>
<path class="st4" d="M2195.9,439.7l25.9,53.8c9.1,1,18.3,1.6,27.7,1.6c26.3,0,51.7-4.2,75.5-11.8l-14.6-144.6L2195.9,439.7z"/>
<path class="st1" d="M2310.3,338.6l14.6,144.6c99.3-31.9,171.2-125,171.2-234.9c0-22.8-3.2-44.9-9-65.9L2310.3,338.6z"/>
<path class="st5" d="M2276.5,3.3c-9-1-18-1.5-27-1.5c-88,0-165.2,46.1-208.8,115.4c-11.1,17.7-19.9,36.6-26.2,56.5l65.5,25.2
	l209.7-65.7l0.1,0l22.5-123.2C2300.4,6.8,2288.5,4.6,2276.5,3.3L2276.5,3.3z"/>
<path class="st6" d="M2436,87.2c-24-27.8-53.9-49.9-87.5-64.7c-11.8-5.2-23.9-9.4-36.3-12.6l-22.5,123.2l-0.1,0.1l20.7,205.4
	l176.8-156.1C2477.4,147.3,2459.9,114.8,2436,87.2z"/>
<path class="st7" d="M2162.9,371.2l-83-172.4l-65.5-25.2c-7.7,24.2-11.7,49.4-11.7,74.7c0,87.6,45.7,164.6,114.6,208.3
	c5.7,3.6,11.5,7,17.5,10.1l42.1-66.3L2162.9,371.2z"/>
<path class="st0" d="M2195.9,439.7l-18.9-39.2l-42.1,66.3c6.4,3.4,13,6.5,19.7,9.3c21.5,8.9,44.1,14.8,67.2,17.3L2195.9,439.7z"/>
<path class="st6" d="M2436,87.2c-24-27.8-53.9-49.9-87.5-64.7l-58.9,110.6L2436,87.2z M2289.6,133.2l20.7,205.4l176.8-156.1
	c-9.8-35.2-27.2-67.7-51.1-95.3l-146.4,45.9L2289.6,133.2L2289.6,133.2z"/>
<path class="st2" d="M2162.9,371.2l33,68.5l114.5-101.1l-20.7-205.4L2162.9,371.2z"/>
<path class="st8" d="M2289.6,133.1L2276.5,3.3c-9-1-18-1.5-27.1-1.5c-88,0-165.2,46.1-208.8,115.4l39.3,81.7L2289.6,133.1z"/>
<path class="st3" d="M2289.6,133.1l-209.7,65.7l83,172.4l126.7-238L2289.6,133.1z"/>
<path class="st9" d="M2289.7,133.1l58.9-110.6c-22.9-10.1-47.2-16.6-72-19.3L2289.7,133.1L2289.7,133.1z"/>
<path class="st4" d="M2195.9,439.7l25.9,53.8c9.1,1,18.3,1.6,27.7,1.6c26.3,0,51.7-4.2,75.5-11.8l-14.6-144.6L2195.9,439.7z"/>
<path class="st1" d="M2310.3,338.6l14.6,144.6c99.3-31.9,171.2-125,171.2-234.9c0-22.8-3.2-44.9-9-65.9L2310.3,338.6z"/>
<path class="st0" d="M2154.6,476.2c21.5,8.9,44.1,14.8,67.2,17.3l-25.9-53.8L2154.6,476.2z"/>
<path class="st10" d="M2040.6,117.2c-20.1,31.9-32.6,68-36.5,105.4l75.8-23.8L2040.6,117.2L2040.6,117.2z"/>
<path class="st7" d="M2079.9,198.8l-75.8,23.8c-0.9,8.6-1.3,17.2-1.3,25.8c0,87.6,45.7,164.6,114.6,208.3l45.5-85.5L2079.9,198.8z"
	/>
<path class="st11" d="M2162.9,371.2l-45.5,85.5c11.8,7.5,24.3,14,37.2,19.4l41.3-36.4L2162.9,371.2L2162.9,371.2z"/>
<g>
	<path class="st12" d="M2294.8,56l-5.9,17.3c51.4,27.8,101.2,77.3,128.2,120.5l17.7-5.3C2405.9,141.3,2351.2,86.5,2294.8,56
		L2294.8,56z"/>
	<path class="st2" d="M2380.5,15.9c-33.1,0-61.9,18.1-77.1,44.9c-2,3.5-3.8,7.1-5.3,10.9c-0.4,1-0.7,2-1,3c-0.3,0.9-0.7,1.8-0.9,2.7
		c46.3,26.9,90.4,70.5,116.8,109.9c0.4-0.2,0.8-0.3,1.2-0.4c2.9-1.2,5.8-2.6,8.5-4.1c2.1-1.2,4.2-2.4,6.2-3.7
		c24.3-15.8,40.5-43.2,40.5-74.4C2469.3,55.7,2429.6,15.9,2380.5,15.9L2380.5,15.9z"/>
	<path class="st13" d="M2297,74.7c-0.3,0.9-0.7,1.8-0.9,2.7c46.3,26.9,90.4,70.5,116.8,109.9c0.4-0.2,0.8-0.3,1.2-0.4
		c2.9-1.2,5.8-2.6,8.5-4.1C2394.6,143.5,2346.5,100,2297,74.7L2297,74.7z"/>
</g>
</svg>
