<?xml version="1.0" encoding="iso-8859-1"?>
<!-- Generator: Adobe Illustrator 19.0.0, SVG Export Plug-In . SVG Version: 6.00 Build 0)  -->
<svg version="1.1" id="Layer_1" xmlns="http://www.w3.org/2000/svg" xmlns:xlink="http://www.w3.org/1999/xlink" x="0px" y="0px"
	 viewBox="0 0 500 500" style="enable-background:new 0 0 500 500;" xml:space="preserve">
<path d="M411.413,274.602c-32.342,0-64.825,0-97.715,0c-0.865-12.599-0.912-24.362-2.594-35.885
	c-8.064-55.25-34.744-100.913-73.531-140.079c-36.121-36.474-79.071-62.887-125.289-84.421c-2.954-1.376-5.796-2.991-8.246-6.217
	c63.854,0,127.707,0,191.985,0C363.647,57.395,428.631,206.65,411.413,274.602z M170.615,191.604c0,99.381,0,198.559,0,299.851
	c42.193-26.992,82.804-52.973,123.954-79.297C277.435,375.133,177.762,197.874,170.615,191.604z"/>
</svg>
