<svg width="24" height="24" viewBox="0 0 24 24" fill="none" xmlns="http://www.w3.org/2000/svg">
<g clip-path="url(#clip0_21585_44140)">
<path d="M23.4698 11.96C23.4698 11.7 23.3898 10.76 22.6098 10.08C22.0698 9.60997 21.4698 9.51997 21.2698 9.48997C20.6698 9.40997 20.1998 9.54997 19.8698 9.64997C19.4998 9.75997 19.2098 9.90997 19.0098 10.03C18.0198 9.34997 17.1098 8.93997 16.4298 8.68997C15.1598 8.21997 14.0898 8.07997 13.4198 7.98997C12.9198 7.92997 12.4998 7.89997 12.1798 7.87997C12.5898 6.04997 12.9998 4.21997 13.4198 2.39997C14.6598 2.66997 15.8998 2.92997 17.1398 3.19997C17.2298 4.09997 17.9898 4.79997 18.9198 4.79997C19.9098 4.79997 20.7098 3.99997 20.7098 3.00997C20.7098 2.01997 19.9098 1.21997 18.9198 1.21997C18.2498 1.21997 17.6598 1.58997 17.3598 2.13997C17.3598 2.13997 17.3598 2.13997 17.3498 2.12997C15.9698 1.82997 14.5898 1.51997 13.2098 1.21997C12.9398 1.32997 12.6698 1.43997 12.3998 1.53997C11.9298 3.64997 11.4698 5.76997 10.9998 7.87997C9.81978 7.86997 8.06979 8.00997 6.15979 8.78997C5.35979 9.11997 4.67978 9.49997 4.11978 9.86997C3.90978 9.70997 3.49978 9.44997 2.93979 9.32997C2.69978 9.27997 1.99978 9.13997 1.21978 9.48997C0.539784 9.78997 0.179776 10.29 0.0397757 10.51C-0.0902243 10.71 -0.410217 11.24 -0.390217 11.96C-0.360217 12.88 0.209784 13.49 0.469784 13.73C0.709784 13.95 0.949778 14.08 1.11978 14.16C1.04978 14.89 0.99979 16.4 1.81979 17.92C2.72979 19.6 4.17978 20.36 5.47978 21.04C5.83978 21.23 7.59979 22.12 10.1598 22.38C11.2998 22.5 13.5498 22.58 16.1298 21.68C17.0398 21.36 18.3898 20.87 19.7298 19.69C20.2098 19.27 21.3098 18.28 21.7698 16.89C22.0298 16.11 22.0898 15.22 22.0898 15.22C22.1198 14.81 22.1098 14.46 22.0898 14.2C22.2898 14.12 22.7598 13.9 23.1098 13.39C23.5098 12.81 23.4998 12.21 23.4898 11.94L23.4698 11.96ZM5.58978 13.75C5.58978 12.76 6.38979 11.96 7.37979 11.96C8.36979 11.96 9.16978 12.76 9.16978 13.75C9.16978 14.74 8.36979 15.54 7.37979 15.54C6.38979 15.54 5.58978 14.74 5.58978 13.75ZM16.0698 18.53C15.9898 18.7 15.8398 18.78 15.6598 18.87C14.8998 19.25 14.7798 19.3 14.7798 19.3C13.6998 19.71 13.8698 19.69 13.5598 19.78C13.0098 19.94 12.5998 19.96 12.0498 20C11.6598 20.02 11.0498 20.06 10.2598 19.95C9.92978 19.9 9.38978 19.83 8.71978 19.57C8.43978 19.46 7.73979 19.2 7.37979 18.8C7.37979 18.8 7.37978 18.8 7.03978 18.42C7.03978 18.41 6.96978 18.14 7.14978 17.95C7.29978 17.79 7.54978 17.76 7.75978 17.88C7.95978 18.03 8.24978 18.22 8.61978 18.42C8.94978 18.6 9.37979 18.82 9.95979 18.96C10.3298 19.05 10.6898 19.05 11.4098 19.07C12.0198 19.08 12.3198 19.09 12.6998 19.03C13.3298 18.94 13.7898 18.76 14.0398 18.65C14.4098 18.5 14.8998 18.26 15.4198 17.88C15.4898 17.86 15.6398 17.82 15.8098 17.88C15.8798 17.9 15.9898 17.94 16.0598 18.04C16.1998 18.24 16.0698 18.5 16.0598 18.52L16.0698 18.53ZM15.7098 15.61C14.7198 15.61 13.9198 14.81 13.9198 13.82C13.9198 12.83 14.7198 12.03 15.7098 12.03C16.6998 12.03 17.4998 12.83 17.4998 13.82C17.4998 14.81 16.6998 15.61 15.7098 15.61Z" fill="black"/>
</g>
<defs>
<clipPath id="clip0_21585_44140">
<rect width="24" height="24" fill="white"/>
</clipPath>
</defs>
</svg>
