<svg width="24" height="25" viewBox="0 0 24 25" fill="none" xmlns="http://www.w3.org/2000/svg">
<path fill-rule="evenodd" clip-rule="evenodd" d="M6.51838 3.52414C5.5886 3.52414 4.83585 4.2769 4.83585 5.20668V11.6965C4.83585 12.0887 4.5179 12.4066 4.12569 12.4066C3.73348 12.4066 3.41553 12.0887 3.41553 11.6965V5.20668C3.41553 3.49248 4.80418 2.10382 6.51838 2.10382H19.3122C21.0264 2.10382 22.4151 3.49247 22.4151 5.20668V13.8925C22.4151 15.6067 21.0264 16.9954 19.3122 16.9954H15.5538C15.1616 16.9954 14.8437 16.6774 14.8437 16.2852C14.8437 15.893 15.1616 15.575 15.5538 15.575H19.3122C20.242 15.575 20.9947 14.8223 20.9947 13.8925V5.20668C20.9947 4.2769 20.242 3.52414 19.3122 3.52414H6.51838Z" fill="black"/>
<path fill-rule="evenodd" clip-rule="evenodd" d="M3.63407 6.48502C3.63407 6.09281 3.95202 5.77486 4.34423 5.77486H21.1477C21.54 5.77486 21.8579 6.09281 21.8579 6.48502C21.8579 6.87723 21.54 7.19518 21.1477 7.19518H4.34423C3.95202 7.19518 3.63407 6.87723 3.63407 6.48502Z" fill="black"/>
<path d="M6.51841 5.20668C6.82011 5.20668 7.06468 4.9621 7.06468 4.6604C7.06468 4.3587 6.82011 4.11412 6.51841 4.11412C6.2167 4.11412 5.97213 4.3587 5.97213 4.6604C5.97213 4.9621 6.2167 5.20668 6.51841 5.20668Z" fill="black"/>
<path d="M8.57244 5.20668C8.87414 5.20668 9.11872 4.9621 9.11872 4.6604C9.11872 4.3587 8.87414 4.11412 8.57244 4.11412C8.27074 4.11412 8.02616 4.3587 8.02616 4.6604C8.02616 4.9621 8.27074 5.20668 8.57244 5.20668Z" fill="black"/>
<path d="M10.6155 5.20668C10.9172 5.20668 11.1618 4.9621 11.1618 4.6604C11.1618 4.3587 10.9172 4.11412 10.6155 4.11412C10.3138 4.11412 10.0692 4.3587 10.0692 4.6604C10.0692 4.9621 10.3138 5.20668 10.6155 5.20668Z" fill="black"/>
<path fill-rule="evenodd" clip-rule="evenodd" d="M13.4442 12.3738C13.4442 11.9816 13.7622 11.6637 14.1544 11.6637H18.5079C18.9001 11.6637 19.2181 11.9816 19.2181 12.3738C19.2181 12.766 18.9001 13.084 18.5079 13.084H14.1544C13.7622 13.084 13.4442 12.766 13.4442 12.3738Z" fill="black"/>
<path fill-rule="evenodd" clip-rule="evenodd" d="M11.8495 9.59879C11.8495 9.20658 12.1675 8.88863 12.5597 8.88863H18.5083C18.9005 8.88863 19.2185 9.20658 19.2185 9.59879C19.2185 9.991 18.9005 10.309 18.5083 10.309H12.5597C12.1675 10.309 11.8495 9.991 11.8495 9.59879Z" fill="black"/>
<path d="M10.2223 16.908C10.2223 18.1863 9.1953 19.2133 7.91701 19.2133C6.63872 19.2133 5.61172 18.1863 5.61172 16.908C5.61172 16.6676 5.65542 16.4491 5.72097 16.2415C5.90671 16.6348 6.30003 16.908 6.76983 16.908C7.40351 16.908 7.92794 16.3945 7.92794 15.7608C7.92794 15.3019 7.6548 14.8977 7.26148 14.7229C7.47999 14.6573 7.6985 14.6136 7.92794 14.6136C9.20623 14.6136 10.2332 15.6406 10.2332 16.9189L10.2223 16.908ZM13.642 16.7113C13.6639 16.7769 13.6748 16.8424 13.6748 16.908C13.6748 16.9735 13.6639 17.05 13.642 17.1046C13.5655 17.3341 13.4672 17.5526 13.3579 17.7602C12.2654 20.0655 10.1895 21.5186 7.90609 21.5186C6.19077 21.5186 4.57379 20.6992 3.42661 19.3007C2.98959 18.7981 2.63997 18.2191 2.37775 17.5963C2.3122 17.4324 2.23572 17.2685 2.18109 17.1046C2.15924 17.0391 2.14832 16.9735 2.14832 16.908C2.14832 16.8424 2.15924 16.766 2.18109 16.7113C2.24665 16.5474 2.3122 16.3726 2.37775 16.2197C2.63997 15.5969 2.98959 15.0288 3.42661 14.5153C4.58472 13.1168 6.19077 12.2974 7.90609 12.2974C10.1895 12.2974 12.2545 13.7505 13.3579 16.0449C13.4563 16.2634 13.5546 16.4819 13.642 16.7113ZM12.473 16.908C12.473 16.908 12.4293 16.8206 12.4183 16.7769C12.3528 16.613 12.2654 16.4491 12.1889 16.2962C12.1452 16.2197 12.1015 16.1323 12.0578 16.0449C11.1182 14.4388 9.5777 13.4446 7.91701 13.4446C7.54554 13.4446 7.17407 13.5101 6.81353 13.6085C6.05967 13.8379 5.38228 14.2312 4.81415 14.7447C4.77045 14.7775 4.73768 14.8103 4.69397 14.8431C4.65027 14.8758 4.61749 14.9195 4.57379 14.9632C4.09307 15.4767 3.6779 16.0995 3.37198 16.8206C3.37198 16.8534 3.35013 16.8752 3.3392 16.8971C3.3392 16.9189 3.36105 16.9517 3.37198 16.9735C3.66697 17.6946 4.08214 18.3174 4.57379 18.8309C4.61749 18.8746 4.65027 18.9183 4.69397 18.962C4.72675 18.9948 4.77045 19.0275 4.81415 19.0603C5.38228 19.5738 6.07059 19.9562 6.81353 20.1966C7.17407 20.2949 7.53462 20.3605 7.91701 20.3605C9.58862 20.3605 11.1182 19.3662 12.0578 17.7602C12.1015 17.6837 12.1452 17.5963 12.1889 17.5089C12.2654 17.3559 12.3419 17.203 12.4183 17.0282C12.4402 16.9845 12.462 16.9408 12.473 16.8971V16.908Z" fill="black"/>
<path fill-rule="evenodd" clip-rule="evenodd" d="M7.90609 12.4067C6.22698 12.4067 4.65057 13.2086 3.51076 14.585L3.50982 14.5861C3.08006 15.0911 2.73633 15.6496 2.47845 16.2621C2.43541 16.3625 2.39258 16.4719 2.34929 16.5825C2.32728 16.6388 2.30509 16.6955 2.28254 16.7519C2.26744 16.7896 2.25757 16.8513 2.25757 16.908C2.25757 16.9612 2.2664 17.0151 2.28474 17.0701C2.31988 17.1755 2.36311 17.2778 2.40818 17.3845C2.43152 17.4397 2.45536 17.4962 2.47883 17.5548C2.73695 18.1676 3.08056 18.7362 3.50905 19.229L3.51111 19.2314C4.63967 20.6071 6.2267 21.4093 7.90609 21.4093C10.1404 21.4093 12.1816 19.9872 13.2592 17.7134L13.2612 17.7093C13.3683 17.5056 13.4642 17.2927 13.5384 17.0701L13.5404 17.064C13.5555 17.0263 13.5655 16.9647 13.5655 16.908C13.5655 16.8555 13.5569 16.8023 13.539 16.748C13.4534 16.5233 13.3569 16.3088 13.2589 16.091C12.17 13.8281 10.1398 12.4067 7.90609 12.4067ZM3.34293 14.445C4.51931 13.0248 6.1548 12.1881 7.90609 12.1881C10.2388 12.1881 12.3381 13.6724 13.4564 15.9975L13.4576 16L13.4582 16.0014C13.5561 16.2191 13.6556 16.44 13.7441 16.6724L13.7457 16.6767C13.7711 16.7528 13.784 16.8301 13.784 16.908C13.784 16.9813 13.7724 17.071 13.7447 17.142C13.6663 17.3765 13.5662 17.5989 13.4557 17.809C12.3479 20.1446 10.238 21.6278 7.90609 21.6278C6.15535 21.6278 4.50889 20.7916 3.34314 19.3712C2.89828 18.8593 2.54312 18.2706 2.27706 17.6387L2.2763 17.6369C2.25612 17.5864 2.234 17.534 2.2114 17.4804C2.1643 17.3688 2.11517 17.2524 2.07745 17.1392C2.05208 17.0631 2.03906 16.9859 2.03906 16.908C2.03906 16.8336 2.05104 16.7423 2.07965 16.6708C2.10082 16.6178 2.12231 16.5629 2.14399 16.5075C2.18805 16.3949 2.23287 16.2804 2.2772 16.177C2.54363 15.5443 2.89894 14.9668 3.34293 14.445ZM6.78478 13.5031C7.15145 13.4031 7.53296 13.3353 7.91701 13.3353C9.62351 13.3353 11.1967 14.3567 12.1521 15.9897L12.1557 15.9959C12.1998 16.084 12.2419 16.1686 12.2838 16.242L12.2868 16.2472C12.3013 16.2763 12.3163 16.3062 12.3317 16.3367C12.3686 16.4093 12.4072 16.4855 12.4438 16.5632L12.5822 16.0096V17.3708L12.478 17.1624C12.414 17.3031 12.3501 17.4308 12.2871 17.5568L12.2858 17.5594C12.2427 17.6456 12.1979 17.7353 12.1527 17.8144L12.1521 17.8154C11.1968 19.4482 9.63457 20.4697 7.91701 20.4697C7.5219 20.4697 7.15127 20.4019 6.78478 20.302L6.77986 20.3006C6.02526 20.0565 5.32451 19.6678 4.74463 19.1447C4.70353 19.1139 4.65487 19.0774 4.61672 19.0392C4.59228 19.0148 4.57114 18.9906 4.55252 18.9694L4.55166 18.9684C4.53225 18.9462 4.51543 18.927 4.49654 18.9081L4.49486 18.9065C3.99492 18.3843 3.57284 17.7515 3.27268 17.0193C3.27129 17.0167 3.26941 17.0133 3.26662 17.0083C3.26312 17.0019 3.25833 16.9933 3.25377 16.9842C3.24724 16.9711 3.22995 16.9365 3.22995 16.8971V16.8713L3.24148 16.8482C3.24697 16.8372 3.25315 16.8275 3.25659 16.8221L3.25721 16.8211C3.25993 16.8169 3.26153 16.8143 3.26272 16.8124V16.7984L3.2714 16.7779C3.58238 16.0449 4.00464 15.4113 4.49403 14.8886L4.49649 14.8859C4.50979 14.8726 4.52084 14.8606 4.53317 14.8471C4.53959 14.8401 4.54637 14.8327 4.55401 14.8245C4.57439 14.8027 4.59874 14.7779 4.62842 14.7557C4.64701 14.7417 4.66356 14.7276 4.68296 14.7109L4.68386 14.7102C4.70145 14.6951 4.7215 14.6779 4.74448 14.6604C5.32336 14.1381 6.01351 13.7378 6.78172 13.5039L6.78478 13.5031ZM12.3146 16.8116C12.3234 16.8426 12.3391 16.8792 12.3501 16.9037C12.3512 16.906 12.3522 16.9083 12.3532 16.9105C12.3449 16.9303 12.334 16.9525 12.3206 16.9793L12.3182 16.9844C12.243 17.1563 12.1678 17.3069 12.0912 17.46C12.0472 17.5479 12.005 17.6323 11.9632 17.7055C11.0393 19.2844 9.5425 20.2512 7.91701 20.2512C7.54819 20.2512 7.1985 20.1882 6.84473 20.0918C6.11601 19.8557 5.44244 19.4809 4.88741 18.9793L4.87971 18.9729C4.83421 18.9388 4.7974 18.9109 4.77123 18.8847C4.75234 18.8658 4.73551 18.8467 4.71611 18.8245L4.71525 18.8235C4.69685 18.8025 4.67599 18.7786 4.65193 18.7545C4.16992 18.2509 3.76264 17.6399 3.4731 16.9322L3.4697 16.9247C3.46659 16.9185 3.46303 16.9119 3.46012 16.9067C3.46777 16.8914 3.47563 16.8716 3.47923 16.8476C3.77918 16.1457 4.18429 15.5394 4.65237 15.0392C4.66871 15.0227 4.68489 15.0051 4.69849 14.9902C4.70407 14.9841 4.70921 14.9785 4.71375 14.9736C4.73162 14.9545 4.74551 14.941 4.75953 14.9305C4.78424 14.9119 4.80563 14.8936 4.82426 14.8776L4.82517 14.8768C4.84457 14.8602 4.86112 14.8461 4.87971 14.8321L4.88741 14.8258C5.44368 14.323 6.1065 13.9381 6.84381 13.7135C7.19774 13.617 7.55864 13.5538 7.91701 13.5538C9.53082 13.5538 11.0377 14.5197 11.9617 16.0969C12.0041 16.1817 12.0481 16.2697 12.0925 16.3477C12.1078 16.3783 12.1234 16.4089 12.1389 16.4396C12.2015 16.5631 12.2643 16.6871 12.3146 16.8116ZM7.54368 14.7637C7.84413 14.9914 8.03719 15.3571 8.03719 15.7608C8.03719 16.4562 7.4625 17.0172 6.76983 17.0172C6.35326 17.0172 5.99158 16.8207 5.7614 16.5177C5.73584 16.6425 5.72097 16.7717 5.72097 16.908C5.72097 18.1259 6.69906 19.104 7.91701 19.104C9.13496 19.104 10.113 18.1259 10.113 16.908V16.6971C10.0028 15.5844 9.07099 14.7229 7.92794 14.7229C7.79789 14.7229 7.67074 14.7378 7.54368 14.7637ZM10.3188 17.159C10.1942 18.3786 9.17085 19.3225 7.91701 19.3225C6.57838 19.3225 5.50246 18.2466 5.50246 16.908C5.50246 16.6539 5.54873 16.4241 5.61679 16.2086L5.70074 15.9428L5.81977 16.1949C5.98839 16.552 6.34445 16.7987 6.76983 16.7987C7.34452 16.7987 7.81868 16.3328 7.81868 15.7608C7.81868 15.3453 7.57115 14.9801 7.2171 14.8227L6.94765 14.703L7.23008 14.6182C7.45489 14.5508 7.68445 14.5044 7.92794 14.5044C9.26657 14.5044 10.3425 15.5803 10.3425 16.9189V17.1827L10.3188 17.159Z" fill="black"/>
</svg>
