<svg aria-hidden="true" data-testid="test-icon" fill="currentColor" viewBox="0 0 24 24" xmlns="http://www.w3.org/2000/svg"><path d="M21.795 11.175a.764.764 0 00-.49-.189l-.98.095C20.128 7.304 16.599 4.094 12.58 4c-.392 0-.687.283-.687.66 0 .567-.098 1.417.687 1.417 2.647 0 5.098 2.172 5.49 4.72v.378l-1.079.095c-.588 0-.882.755-.392 1.038l2.255 2.927a.92.92 0 00.98 0l2.06-3.116c.195-.283.097-.66-.099-.944zM11.964 18.584c0-.283-.295-.567-.687-.567-.588 0-1.078-.094-1.666-.283-2.157-.66-3.726-2.643-3.824-4.815h1.079c.588 0 .882-.755.392-1.038L5.1 8.859a.776.776 0 00-.98.095l-1.96 3.021c-.393.378 0 1.133.49 1.039l.98-.095c.196 2.832 2.058 5.476 4.803 6.514.589.19 1.079.378 1.667.473.392.094.784.094 1.176.094.393 0 .687-.283.687-.66v-.756z"/></svg>
