<?xml version="1.0" encoding="utf-8"?>
<!-- Generator: Adobe Illustrator 23.0.3, SVG Export Plug-In . SVG Version: 6.00 Build 0)  -->
<svg version="1.1" id="ren" xmlns="http://www.w3.org/2000/svg" xmlns:xlink="http://www.w3.org/1999/xlink" x="0px" y="0px"
	 viewBox="0 0 500 500" style="enable-background:new 0 0 500 500;" xml:space="preserve">
<style type="text/css">
	.st0{fill-rule:evenodd;clip-rule:evenodd;fill:#070707;}
</style>
<polygon id="Fill-7-Copy" class="st0" points="98.9,105.6 135.1,84.6 139.9,93 273.2,15.4 263.4,9.7 253.6,4 248.8,1.2 31.8,127.8 
	31.8,133.5 94.1,97.1 "/>
<polygon id="Fill-10-Copy" class="st0" points="98.9,185.3 203.4,124.4 208.2,132.9 341.5,55.3 331.7,49.5 321.9,43.8 317.1,41.1 
	31.8,207.5 31.8,213.2 94.1,176.7 "/>
<polygon id="Fill-13-Copy" class="st0" points="98.9,225.2 237.5,144.4 242.4,152.8 375.6,75.1 365.8,69.5 356.1,63.8 351.2,60.9 
	31.8,247.3 31.8,253 94.1,216.7 "/>
<polygon id="Fill-16-Copy" class="st0" points="98.9,265 272.6,163.7 277.5,172.2 409.7,95.1 400,89.3 390.2,83.7 385.4,80.8 
	31.8,287.2 31.8,292.8 94.1,256.4 "/>
<polygon id="Fill-19-Copy" class="st0" points="98.9,304.8 306.8,183.6 311.6,192.2 443.9,114.9 434.1,109.3 424.4,103.6 
	419.5,100.7 31.8,327 31.8,332.6 94.1,296.3 "/>
<polygon id="Fill-22-Copy" class="st0" points="458.5,123.5 453.6,120.6 31.8,366.9 31.8,372.5 94.1,336.2 98.9,344.7 306.8,223.5 
	311.6,232 465.8,142.1 465.8,130.7 465.8,127.8 "/>
<polygon id="Fill-24-Copy" class="st0" points="58.5,396.7 93.4,376.3 98.3,384.8 305.8,263.8 310.6,272.4 465.8,181.8 465.8,170.4 
	465.8,159 465.8,153.4 53.7,393.9 "/>
<polyline id="Fill-26-Copy" class="st0" points="305.8,303.7 310.6,312.3 465.8,221.8 465.8,210.3 465.8,198.9 465.8,193.3 
	87.8,413.8 92.7,416.6 128.2,395.9 133.1,404.4 "/>
<polygon id="Fill-28-Copy" class="st0" points="126.9,436.6 162.4,415.8 167.2,424.4 305.8,343.5 310.6,352.1 465.8,261.5 
	465.8,250.1 465.8,238.8 465.8,233.1 121.9,433.6 "/>
<polygon id="Fill-30-Copy" class="st0" points="161,456.5 196.5,435.8 201.4,444.3 305.8,383.4 310.6,391.9 465.8,301.3 465.8,290 
	465.8,278.6 465.8,272.9 156.1,453.6 "/>
<polygon id="Fill-32-Copy" class="st0" points="190.3,473.5 195.1,476.4 230.7,455.6 235.5,464.2 305.8,423.2 310.6,431.7 
	465.8,341.2 465.8,329.8 465.8,318.4 465.8,312.7 "/>
<polygon id="Fill-34-Copy" class="st0" points="229.3,496.4 264.8,475.5 269.6,484.1 305.8,463 310.6,471.6 465.8,381.1 
	465.8,369.7 465.8,358.3 465.8,352.6 224.4,493.5 "/>
<polygon id="Fill-37-Copy" class="st0" points="307.3,35.3 297.5,29.6 287.8,24 282.9,21.1 31.8,167.6 31.8,173.3 94.1,137 
	98.9,145.4 169.2,104.5 174.2,113 "/>
</svg>
