<?xml version="1.0" encoding="utf-8"?>
<!-- Generator: Adobe Illustrator 25.2.0, SVG Export Plug-In . SVG Version: 6.00 Build 0)  -->
<svg version="1.1" id="rep" xmlns="http://www.w3.org/2000/svg" xmlns:xlink="http://www.w3.org/1999/xlink" x="0px" y="0px"
	 viewBox="0 0 500 500" style="enable-background:new 0 0 500 500;" xml:space="preserve">
<style type="text/css">
	.st0{fill-rule:evenodd;clip-rule:evenodd;}
	.st1{fill:#FFFFFF;}
	.st2{fill:#2AE7A8;}
</style>
<circle class="st0" cx="249.8" cy="249.7" r="245.7"/>
<path class="st1" d="M394.2,309l-30.8-51.5c-1.2-1.9-3.6-2.5-5.5-1.3l-20,12.8c-1.8,1.2-2.4,3.5-1.3,5.4l17.6,29.4
	c0.5,0.9,0.3,2.1-0.6,2.7l-102.6,65.8c-0.6,0.4-1.5,0.4-2.1,0l-102.7-65.8c-0.9-0.6-1.2-1.7-0.6-2.7l17.6-29.4
	c1.1-1.8,0.5-4.2-1.3-5.4l-20-12.8c-1.9-1.2-4.4-0.6-5.5,1.3L105.4,309c-2.2,3.7-1.1,8.5,2.5,10.7l137.6,88.1c2.6,1.7,6,1.7,8.6,0
	l137.6-88.1C395.3,317.4,396.4,312.7,394.2,309z"/>
<path class="st2" d="M157.9,228.9l20,12.8c1.9,1.2,4.4,0.6,5.5-1.3l64.7-108.2c0.8-1.3,2.6-1.3,3.4,0l64.7,108.2
	c1.2,1.9,3.6,2.5,5.5,1.3l20-12.8c1.8-1.2,2.4-3.5,1.3-5.4L265.8,94.2c-1.5-2.4-4-3.9-6.8-3.9h-18.2c-2.8,0-5.4,1.5-6.8,3.9
	l-77.3,129.3C155.5,225.3,156.1,227.7,157.9,228.9z"/>
</svg>
