<?xml version="1.0" encoding="utf-8"?>
<!-- Generator: Adobe Illustrator 23.0.3, SVG Export Plug-In . SVG Version: 6.00 Build 0)  -->
<svg version="1.1" id="req" xmlns="http://www.w3.org/2000/svg" xmlns:xlink="http://www.w3.org/1999/xlink" x="0px" y="0px"
	 viewBox="0 0 500 500" style="enable-background:new 0 0 500 500;" xml:space="preserve">
<style type="text/css">
	.st0{fill:#00E6A0;}
	.st1{fill:#008C62;}
</style>
<path class="st0" d="M19.2,447V55C19.2,25.9,42.9,2.2,72,2.2h383.1c10,0,18.1,8.1,18.1,18.1v104.2c0,10.9-4.3,21.4-11.9,29.1
	L334.7,281.9l130.9,130.9c19.6,19.6,19.6,51.3,0,70.9l0,0c-19.6,19.6-51.3,19.6-70.9,0L225.5,314.4c-18.5-18.5-18.5-48.5,0.1-67
	L376.5,98l-255.8,0.3V447c0,27.9-22.5,50.5-50.4,50.8h0C42.2,498,19.2,475.2,19.2,447z"/>
<path class="st1" d="M467.9,7.5c3.3,3.2,5.3,7.8,5.3,12.8v104.2c0,10.9-4.3,21.4-11.9,29.1L334.7,281.9l130.9,130.9
	c19.6,19.6,19.6,51.3,0,70.9l0,0c-19.6,19.6-51.3,19.6-70.9,0L225.5,314.4c-18.5-18.5-18.5-48.5,0.1-67L376.5,98
	C376.5,98,466.9,6.6,467.9,7.5z"/>
</svg>
