<?xml version="1.0" encoding="iso-8859-1"?>
<!-- Generator: Adobe Illustrator 19.0.0, SVG Export Plug-In . SVG Version: 6.00 Build 0)  -->
<svg version="1.1" id="Layer_1" xmlns="http://www.w3.org/2000/svg" xmlns:xlink="http://www.w3.org/1999/xlink" x="0px" y="0px"
	 viewBox="1500 0 500 500" style="enable-background:new 1500 0 500 500;" xml:space="preserve">
<g>
	<path style="fill:#CC1E46;" d="M1725.044,4.598c48.261-4.95,97.925,4.732,140.654,27.725c25.742,13.64,48.89,32.059,68.218,53.85
		c32.781,36.805,53.958,83.777,59.897,132.691c5.682,45.397-1.658,92.343-21.072,133.777c-14.122,30.55-34.727,58.042-59.926,80.337
		c-36.805,32.766-83.776,53.912-132.681,59.865c-45.021,5.609-91.55-1.592-132.726-20.632
		c-30.714-14.075-58.172-34.373-80.637-59.609c-37.606-41.763-59.973-96.893-62.201-153.026
		c-1.99-44.023,8.245-88.516,29.255-127.262c15.131-28.214,36.007-53.263,60.756-73.549
		C1631.522,28.456,1677.506,9.406,1725.044,4.598 M1685.765,145.293c-10.761-14.289-27.371-24.597-45.502-25.32
		c-18.917-1.115-37.559,7.881-49.92,21.944c-9.375,10.81-13.837,25.126-14.004,39.291c-0.075,27.084-0.085,54.172-0.029,81.266
		c-0.317,3.587,2.924,6.105,6.316,5.727c76.652,0.211,153.331-0.246,229.973,0.246c-0.246,16.76-0.03,33.52,1.192,50.234
		c-21.865,15.915-47.478,27.145-74.261,31.319c-3.481,0.798-9.36-0.135-10.129,4.641c-0.332,8.997-0.03,18.025-0.135,27.025
		c-0.513,3.164,1.965,6.405,5.26,6.361c32.375-2.501,63.83-14.495,89.739-34.017c9.581,12.449,23.256,22.261,39.063,24.627
		c22.337,3.98,45.819-6.798,59.174-24.762c8.456-11.424,11.439-25.892,11.38-39.879c-0.076-25.727,0.226-51.455-0.15-77.168
		c0.287-4.086-3.557-6.164-7.189-5.847c-76.406-0.15-152.812,0.091-229.189-0.12c-0.452-15.131,0.663-30.324-0.983-45.411
		c-0.172-2.101-0.663-4.965,1.548-6.211c23.408-16.006,50.342-27.597,78.676-30.732c3.076-0.076,4.491-3.543,4.28-6.208
		c0-8.599,0.211-17.227-0.106-25.818c0.12-3.587-3.422-5.651-6.678-5.004C1742.227,114.08,1711.328,126.12,1685.765,145.293z"/>
	<path style="fill:#CC1E46;" d="M1607.209,185.872c0.361-14.468,13.596-27.189,28.14-26.602
		c14.891-0.287,28.305,12.827,28.592,27.671c0.317,15.478,0.12,30.956,0.091,46.433c-18.934,0.42-37.852,0.133-56.794,0.16
		C1607.151,217.636,1607.18,201.75,1607.209,185.872"/>
	<path style="fill:#CC1E46;" d="M1848.41,267.133c18.917-0.029,37.835-0.106,56.752,0.044c0.15,15.131,0.061,30.263,0.061,45.397
		c0.12,11.53-7.1,23-18.043,27.054c-11.861,4.582-26.361,0.044-33.626-10.355c-3.493-4.917-5.326-10.82-5.23-16.851
		C1848.38,297.334,1848.275,282.235,1848.41,267.133"/>
</g>
</svg>
