<?xml version="1.0" encoding="utf-8"?>
<!-- Generator: Adobe Illustrator 23.0.3, SVG Export Plug-In . SVG Version: 6.00 Build 0)  -->
<svg version="1.1" id="rif" xmlns="http://www.w3.org/2000/svg" xmlns:xlink="http://www.w3.org/1999/xlink" x="0px" y="0px"
	 viewBox="0 0 500 500" style="enable-background:new 0 0 500 500;" xml:space="preserve">
<style type="text/css">
	.st0{fill:#149DD9;}
</style>
<path class="st0" d="M118.9,174.1h111.5c0.6,0,1.3-0.6,1.3-1.3v-36.1c0-0.6-0.6-1.3-1.3-1.3H118.9c-0.6,0-1.3,0.6-1.3,1.3v36.1
	C117.6,173.7,118.2,174.1,118.9,174.1z M194.3,108h36.1c0.6,0,1.3-0.6,1.3-1.3V70.7c0-0.6-0.6-1.3-1.3-1.3h-36.1
	c-0.6,0-1.3,0.6-1.3,1.3v36.1C193.1,107.4,193.7,108,194.3,108z M40.1,267.9H4c-0.6,0-1.3,0.6-1.3,1.3v36.1c0,0.6,0.6,1.3,1.3,1.3
	h36.1c0.6,0,1.3-0.6,1.3-1.3v-36.1C41.3,268.5,40.7,267.9,40.1,267.9z M172.4,267.9h-36.1c-0.6,0-1.3,0.6-1.3,1.3v111.5
	c0,0.6,0.6,1.3,1.3,1.3h36.1c0.6,0,1.3-0.6,1.3-1.3V269.2C173.7,268.5,173.1,267.9,172.4,267.9L172.4,267.9z M393,231.8h36.1
	c0.6,0,1.3-0.6,1.3-1.3v-36.1c0-0.6-0.6-1.3-1.3-1.3H393c-0.6,0-1.3,0.6-1.3,1.3v36.1C391.8,231.4,392.2,231.8,393,231.8z
	 M326.7,231.8h36.1c0.6,0,1.3-0.6,1.3-1.3V119.1c0-0.6-0.6-1.3-1.3-1.3h-36.1c-0.6,0-1.3,0.6-1.3,1.3v111.5
	C325.5,231.4,326.1,231.8,326.7,231.8z M194.3,41.7h36.1c0.6,0,1.3-0.6,1.3-1.3V4.4c0-0.6-0.6-1.3-1.3-1.3h-36.1
	c-0.6,0-1.3,0.6-1.3,1.3v36.1C193.1,41.3,193.7,41.7,194.3,41.7z M106.4,267.9H70.3c-0.6,0-1.3,0.6-1.3,1.3v36.1
	c0,0.6,0.6,1.3,1.3,1.3h36.1c0.6,0,1.3-0.6,1.3-1.3v-36.1C107.4,268.5,107,267.9,106.4,267.9z M380.5,325.9H269
	c-0.6,0-1.3,0.6-1.3,1.3v36.1c0,0.6,0.6,1.3,1.3,1.3h111.5c0.6,0,1.3-0.6,1.3-1.3v-36.1C381.5,326.3,381.1,325.9,380.5,325.9
	L380.5,325.9z M456.6,260.2h-158c-0.6,0-1.3,0.6-1.3,1.3v35c0,0.6,0.6,1.3,1.3,1.3h158c0.6,0,1.3-0.6,1.3-1.3v-35
	C457.8,260.6,457.2,260.2,456.6,260.2L456.6,260.2z M304.8,391.9h-36.1c-0.6,0-1.3,0.6-1.3,1.3v36.1c0,0.6,0.6,1.3,1.3,1.3h36.1
	c0.6,0,1.3-0.6,1.3-1.3v-36.1C306.1,392.6,305.7,391.9,304.8,391.9z M201.8,203.5c0-0.6-0.6-1.3-1.3-1.3h-158
	c-0.6,0-1.3,0.6-1.3,1.3v35c0,0.6,0.6,1.3,1.3,1.3h158c0.6,0,1.3-0.6,1.3-1.3L201.8,203.5L201.8,203.5z M495.2,193.5h-36.1
	c-0.6,0-1.3,0.6-1.3,1.3v36.1c0,0.6,0.6,1.3,1.3,1.3h36.1c0.6,0,1.3-0.6,1.3-1.3v-36.1C496.4,193.9,496,193.5,495.2,193.5z
	 M238.1,297.7h-35c-0.6,0-1.3,0.6-1.3,1.3v158c0,0.6,0.6,1.3,1.3,1.3h35c0.6,0,1.3-0.6,1.3-1.3V299
	C239.4,298.3,238.7,297.7,238.1,297.7L238.1,297.7z M297.3,201.2V43c0-0.6-0.6-1.3-1.3-1.3h-35c-0.6,0-1.3,0.6-1.3,1.3v158.2
	c0,0.6,0.6,1.3,1.3,1.3h35C296.7,202.4,297.3,201.8,297.3,201.2z M304.8,458.2h-36.1c-0.6,0-1.3,0.6-1.3,1.3v36.1
	c0,0.6,0.6,1.3,1.3,1.3h36.1c0.6,0,1.3-0.6,1.3-1.3v-36.1C306.1,458.7,305.7,458.2,304.8,458.2z"/>
</svg>
