<?xml version="1.0" encoding="iso-8859-1"?>
<!-- Generator: Adobe Illustrator 19.0.0, SVG Export Plug-In . SVG Version: 6.00 Build 0)  -->
<svg version="1.1" id="Layer_1" xmlns="http://www.w3.org/2000/svg" xmlns:xlink="http://www.w3.org/1999/xlink" x="0px" y="0px"
	 viewBox="0 0 500 500" style="enable-background:new 0 0 500 500;" xml:space="preserve">
<path style="fill:#F5CA45;" d="M108.313,355.255c13.943,0.199,26.276,4.454,37.912,10.749c14.03,7.589,27.246,2.271,34.063-6.174
	c4.721-5.849,5.138-12.81,5.934-19.788c0.942-8.259,0.951-16.888,3.507-24.652c9.261-28.132,29.827-43.804,58.658-46.994
	c13.262-1.467,27.09,1.2,39.222,8.169c6.299,3.618,12.839,5.339,20.061,4.931c13.592-0.768,22.386-9.322,23.569-22.927
	c0.566-6.506,1.325-12.996,2.042-19.488c3.373-30.547,30.962-57.095,66.484-59.401c25.722-1.67,52.786,15.897,63.375,40.889
	c20.227,47.738-12.573,92.645-57.78,98.742c-14.262,1.923-28.624-2.937-41.632-10.167c-13.179-7.325-30.455-3.467-36.531,11.528
	c-2.011,4.963-2.182,10.918-2.146,16.412c0.072,11.026-2.768,21.24-7.278,31.085c-14.025,30.616-53.447,51.453-95.433,30.379
	c-6.007-3.015-11.66-5.422-18.513-5.16c-14.024,0.537-24.318,10.67-25.217,24.801c-0.531,8.338-1.05,16.782-2.781,24.921
	c-7.408,34.817-41.554,52.847-66.469,51.67c-32.807-1.55-57.975-23.174-66.028-53.361c-8.883-33.301,11.603-68.959,40.794-80.233
	C91.806,358.218,100.231,357.179,108.313,355.255z M44.782,266.229c10.044,34.724,41.075,56.02,77.051,50.873
	c35.904-5.136,59.014-36.85,57.37-67.38c-0.294-5.459,0.661-11.313,2.456-16.494c5.065-14.618,21.482-20.839,35.467-13.983
	c2.94,1.441,5.688,3.347,8.73,4.493c14.145,5.327,28.44,8.693,43.79,5.187c30.636-6.997,54.325-38.356,53.007-70.337
	c-1.229-29.846-23.917-61.356-58.402-65.83c-40.189-5.214-76.149,26.675-77.714,63.519c-0.218,5.132-0.507,10.281-1.164,15.37
	c-2.075,16.078-14.041,24.758-31.28,21.978c-3.986-0.643-7.71-3.103-11.472-4.9c-12.451-5.948-25.801-9.758-39.308-8.145
	c-36.641,4.377-61.583,34.991-60.8,67.621C43.224,254.223,43.119,260.482,44.782,266.229z M108.595,5.167
	C69.81,4.935,40.032,38.312,39.964,73.741c-0.07,36.549,30.324,68.954,68.276,68.968c37.234,0.014,69.089-30.126,68.367-68.579
	C177.603,37.832,147.81,5.402,108.595,5.167z"/>
</svg>
