<svg fill="currentColor" viewBox="0 0 24 24" xmlns="http://www.w3.org/2000/svg" aria-hidden="true" data-testid="test-icon"><path d="M17.61 11.07c.06-.11.1-.24.1-.37s-.03-.26-.1-.37l-1.27-2.26 1.27-2.26c.06-.11.1-.24.1-.36s-.03-.25-.1-.36a.7.7 0 00-.27-.27.787.787 0 00-.37-.1h-3.8v-.78c0-.26-.07-.52-.18-.76a1.976 1.976 0 00-1.11-1.04c-.25-.09-.51-.13-.77-.13H5.06a.694.694 0 00-.52.21c-.14.14-.22.33-.22.52v14.25c-.39.14-.72.39-.96.72-.23.34-.36.74-.36 1.15v.15c0 .26.05.53.15.77a2.022 2.022 0 001.08 1.09c.24.1.5.15.77.15h.14c.26 0 .52-.05.77-.15.24-.1.46-.25.65-.43a1.992 1.992 0 00.58-1.42v-.15c0-.41-.13-.81-.37-1.15-.24-.33-.58-.59-.96-.72V8.66h3.11v.85a2 2 0 002.06 1.93h6c.13 0 .26-.04.37-.1.11-.07.2-.16.27-.27h-.01zM5.8 3.47h5.31c.14-.01.27.03.38.11.11.08.18.21.2.34v3.4a2.9 2.9 0 00-.59-.09H5.8V3.47zm7.37 2.83h2.55l-.85 1.48c-.06.11-.09.24-.09.37s.03.26.09.37l.85 1.48h-2.55V6.3zM5.66 19.03c0 .14-.06.27-.16.37-.1.1-.23.15-.37.15h-.14a.514.514 0 01-.52-.52v-.15c0-.07.01-.14.04-.2s.06-.12.11-.17c.05-.05.11-.09.17-.11.06-.03.13-.04.2-.04h.14c.14 0 .27.05.37.15.1.1.16.23.16.37v.15zm4.72-9.5v-.85h.72c.14-.01.27.03.38.11.11.08.18.21.2.34v.85h-.72a.551.551 0 01-.59-.48v.02l.01.01zM12.73 16.19a.488.488 0 00-.24 0c-.06.02-.11.06-.16.1l-.09.06v.08l-.11.16c-.04.09-.05.19-.06.28.03.26 0 .52-.08.77s-.2.48-.37.68c-.24.22-.55.34-.87.35H9.18c-.2 0-.38.08-.52.22s-.22.33-.22.52.08.38.22.52.33.22.52.22h1.59c.69 0 1.35-.27 1.86-.75a3.304 3.304 0 00.92-2.53c0-.1-.02-.19-.05-.28a.776.776 0 00-.16-.24.742.742 0 00-.2-.16h-.41z"/><path d="M12.98 14.33c-.06.07-.11.16-.14.25-.03.09-.04.19-.03.28 0 .1.04.19.08.27.05.08.11.16.18.22.11.09.25.15.39.17a.723.723 0 00.8-.8.74.74 0 00-.16-.4.742.742 0 00-.79-.24c-.14.04-.26.13-.35.24l.02.01zM15.14 12.86a.69.69 0 00-.4.31c-.09.15-.13.33-.1.5.03.17.11.33.25.45.13.12.3.18.48.18.07.01.14.01.22 0 .1-.02.19-.07.27-.13.08-.06.15-.14.2-.22.05-.09.08-.18.09-.28a.769.769 0 00-.17-.56.727.727 0 00-.53-.25c-.1 0-.2.01-.3.05v-.03l-.01-.02zM19.77 11.7a.73.73 0 00-.56-.07.75.75 0 00-.45.35.73.73 0 00-.07.56c.05.19.18.35.35.45.11.06.24.09.36.09.13 0 .26-.03.37-.1.11-.07.2-.16.27-.27.05-.08.08-.18.09-.27.01-.1 0-.19-.02-.29a.906.906 0 00-.13-.26.674.674 0 00-.22-.19h.01zM17.47 12.69c-.1.01-.19.04-.27.09-.08.05-.16.11-.22.19s-.1.17-.13.26c-.02.09-.03.19-.02.29.02.18.11.34.24.45.13.12.3.18.48.18h.1a.742.742 0 00.63-.82.618.618 0 00-.09-.27.794.794 0 00-.19-.22.794.794 0 00-.26-.13c-.09-.02-.19-.03-.29-.02h.02zM20.35 9.7a.776.776 0 00-.24-.16.672.672 0 00-.42-.04c-.14.03-.27.1-.37.2-.07.07-.13.15-.17.24a.66.66 0 000 .28c-.02.09-.02.18 0 .27.04.09.1.18.17.25.13.14.32.21.51.22.09.02.19.02.28 0 .09-.04.17-.09.24-.16a.79.79 0 00.22-.52c0-.11 0-.21-.04-.31s-.1-.19-.17-.26l-.01-.01z"/></svg>
