<svg width="24" height="24" viewBox="0 0 24 24" fill="none" xmlns="http://www.w3.org/2000/svg">
<g clip-path="url(#clip0_3422_38137)">
<path opacity="0.3" d="M11 21.5C16.2467 21.5 20.5 17.2467 20.5 12C20.5 6.75329 16.2467 2.5 11 2.5C5.75329 2.5 1.5 6.75329 1.5 12C1.5 17.2467 5.75329 21.5 11 21.5Z" fill="white"/>
<path d="M9.4998 18.4C9.3998 18.6 9.2998 18.8 9.1998 18.9C8.9998 19.1 8.7998 19.4 8.5998 19.6C8.0998 20.1 7.4998 20.5 6.7998 20.8C6.0998 21.1 5.3998 21.2 4.6998 21.2C4.6998 20.9 4.69981 20.6 4.7998 20.3C3.89981 20.8 2.8998 21 1.9998 21C1.9998 20 2.1998 19.1 2.6998 18.2C2.3998 18.3 2.0998 18.3 1.7998 18.3C1.7998 17.4 1.9998 16.6 2.3998 15.8C2.7998 15 3.3998 14.3 4.0998 13.8C4.2998 13.7 4.4998 13.6 4.6998 13.5V13.6C4.9998 13.7 5.4998 13.8 5.9998 14C6.2998 14.1 6.5998 14.3 6.89981 14.4C7.29981 14.6 7.5998 14.9 7.8998 15.2C8.1998 15.5 8.4998 15.8 8.6998 16.2C8.8998 16.5 8.9998 16.8 9.1998 17.1C9.1998 17.5 9.3998 18 9.4998 18.4Z" fill="url(#paint0_linear_3422_38137)"/>
<path d="M8.9998 17.0999C8.7998 17.8999 8.3998 18.5999 7.7998 19.1999C7.1998 19.7999 6.4998 20.0999 5.6998 20.2999L5.9998 18.5999L4.2998 19.5999C3.8998 19.7999 3.3998 19.8999 2.9998 19.9999C3.0998 19.5999 3.2998 19.0999 3.4998 18.6999L4.4998 16.9999L2.7998 17.1999C2.9998 16.3999 3.2998 15.6999 3.8998 15.0999C4.4998 14.4999 5.1998 14.0999 5.9998 13.8999C6.2998 13.9999 6.59981 14.1999 6.89981 14.2999C7.29981 14.4999 7.5998 14.7999 7.8998 15.0999C8.1998 15.3999 8.4998 15.6999 8.6998 16.0999C8.7998 16.4999 8.8998 16.7999 8.9998 17.0999Z" fill="#FFD05C"/>
<path d="M8.9998 17.0999C8.7998 17.8999 8.3998 18.5999 7.7998 19.1999C7.1998 19.7999 6.4998 20.0999 5.6998 20.2999L5.9998 18.5999L4.2998 19.5999C3.8998 19.7999 3.3998 19.8999 2.9998 19.9999C3.0998 19.5999 3.2998 19.0999 3.4998 18.6999L4.4998 16.9999L2.7998 17.1999C2.9998 16.3999 3.2998 15.6999 3.8998 15.0999C4.4998 14.4999 5.1998 14.0999 5.9998 13.8999C6.2998 13.9999 6.59981 14.1999 6.89981 14.2999C7.29981 14.4999 7.5998 14.7999 7.8998 15.0999C8.1998 15.3999 8.4998 15.6999 8.6998 16.0999C8.7998 16.4999 8.8998 16.7999 8.9998 17.0999Z" fill="url(#paint1_radial_3422_38137)"/>
<path d="M8.7999 22.6998C8.8999 22.5998 8.9999 22.4998 9.0999 22.3998C10.0999 21.2998 10.5999 19.7998 10.5999 18.2998C10.4999 16.7998 9.8999 15.2998 8.7999 14.2998C7.6999 13.1998 6.2999 12.5998 4.7999 12.4998C3.2999 12.3998 1.7999 12.9998 0.699902 13.9998C0.599902 14.0998 0.499902 14.1998 0.399902 14.2998C0.499902 13.2998 0.799902 12.2998 1.2999 11.3998C1.7999 10.4998 2.4999 9.69985 3.2999 9.09985C4.0999 8.49985 4.9999 7.99985 5.8999 7.79985C6.8999 7.49985 7.8999 7.49985 8.8999 7.59985C9.8999 7.69985 10.8999 8.09985 11.6999 8.59985C12.5999 9.09985 13.2999 9.79985 13.8999 10.5998C14.4999 11.3998 14.8999 12.3998 15.0999 13.2998C15.2999 14.2998 15.2999 15.2998 15.1999 16.2998C14.8999 17.7998 14.1999 19.2998 13.0999 20.3998C11.9999 21.6998 10.3999 22.4998 8.7999 22.6998Z" fill="url(#paint2_linear_3422_38137)"/>
<path d="M9.4 18.4999C9.3 17.6999 9 16.8999 8.6 16.1999C8.4 15.7999 8.1 15.4999 7.8 15.1999C7.5 14.8999 7.2 14.5999 6.8 14.3999C6.1 13.9999 5.3 13.6999 4.5 13.5999C5.2 10.0999 7.1 6.9999 9.9 4.7999C12.7 2.5999 16.1 1.3999 19.6 1.3999H21.6V3.3999C21.6 4.3999 21.5 5.3999 21.3 6.4999C20.7 9.4999 19.3 12.1999 17.1 14.2999C15.1 16.3999 12.4 17.7999 9.4 18.4999Z" fill="url(#paint3_radial_3422_38137)"/>
<path d="M17.1 5.89967C16.7 5.49967 16.2 5.19967 15.6 4.99967C15 4.79967 14.4 4.79967 13.9 4.89967C13.3 4.99967 12.8 5.29967 12.3 5.59967C11.8 5.99967 11.5 6.39967 11.3 6.99967C11.1 7.59967 11 8.19967 11 8.79967C11.1 9.39967 11.3 9.89967 11.6 10.3997C11.9 10.8997 12.4 11.2997 12.9 11.5997C13.4 11.8997 14 11.9997 14.6 11.9997C15.1 11.9997 15.5 11.8997 16 11.7997C16.4 11.5997 16.8 11.3997 17.2 10.9997C17.5 10.6997 17.8 10.2997 18 9.79967C18.2 9.39967 18.3 8.89967 18.3 8.39967C18.3 7.89967 18.2 7.49967 18 6.99967C17.7 6.69967 17.4 6.29967 17.1 5.89967Z" fill="white"/>
<path d="M14.6001 11.1C15.1001 11.1 15.6001 10.9 16.1001 10.6C16.5001 10.3 16.9001 9.89997 17.1001 9.39997C17.3001 8.89997 17.4001 8.39997 17.3001 7.89997C17.2001 7.39997 16.9001 6.89997 16.6001 6.49997C16.2001 6.09997 15.7001 5.89997 15.2001 5.79997C14.7001 5.69997 14.1001 5.79997 13.7001 5.99997C13.2001 6.19997 12.8001 6.49997 12.5001 6.99997C12.2001 7.39997 12.1001 7.99997 12.1001 8.49997C12.1001 8.89997 12.2001 9.19997 12.3001 9.49997C12.4001 9.79997 12.6001 10.1 12.9001 10.4C13.1001 10.6 13.4001 10.8 13.8001 11C13.9001 11 14.2001 11.1 14.6001 11.1Z" fill="url(#paint4_linear_3422_38137)"/>
<path d="M10.7998 12.1997C8.2998 13.1997 6.3998 15.1997 5.2998 17.6997C6.4998 17.1997 7.5998 16.4997 8.5998 15.4997C9.4998 14.5997 10.2998 13.3997 10.7998 12.1997Z" fill="#2E7DAF"/>
<path d="M10.7998 12.1997C8.2998 13.1997 6.3998 15.1997 5.2998 17.6997C6.4998 17.1997 7.5998 16.4997 8.5998 15.4997C9.4998 14.5997 10.2998 13.3997 10.7998 12.1997Z" fill="url(#paint5_linear_3422_38137)"/>
<path d="M21.4001 6.3999L16.6001 1.6999C17.6001 1.4999 18.6001 1.3999 19.7001 1.3999H21.7001V3.3999C21.7001 4.3999 21.6001 5.3999 21.4001 6.3999Z" fill="#2E7DAF"/>
<path d="M21.4001 6.3999L16.6001 1.6999C17.6001 1.4999 18.6001 1.3999 19.7001 1.3999H21.7001V3.3999C21.7001 4.3999 21.6001 5.3999 21.4001 6.3999Z" fill="url(#paint6_linear_3422_38137)"/>
<path d="M21.4001 6.3999L16.6001 1.6999C17.6001 1.4999 18.6001 1.3999 19.7001 1.3999H21.7001V3.3999C21.7001 4.3999 21.6001 5.3999 21.4001 6.3999Z" fill="url(#paint7_linear_3422_38137)"/>
</g>
<defs>
<linearGradient id="paint0_linear_3422_38137" x1="-10.8838" y1="25.0979" x2="7.77621" y2="16.1979" gradientUnits="userSpaceOnUse">
<stop stop-color="#FFFF00"/>
<stop offset="1" stop-color="#FBB03B"/>
</linearGradient>
<radialGradient id="paint1_radial_3422_38137" cx="0" cy="0" r="1" gradientUnits="userSpaceOnUse" gradientTransform="translate(-586.521 -8161.34) rotate(40.1286) scale(31.1755 31.1755)">
<stop stop-color="#FFFF00"/>
<stop offset="1" stop-color="#FBB03B"/>
</radialGradient>
<linearGradient id="paint2_linear_3422_38137" x1="1.0868" y1="21.275" x2="15.6268" y2="8.03505" gradientUnits="userSpaceOnUse">
<stop stop-color="#6BFFE8"/>
<stop offset="0.05" stop-color="#68F8E5"/>
<stop offset="0.5" stop-color="#49B6C8"/>
<stop offset="0.83" stop-color="#358DB6"/>
<stop offset="1" stop-color="#2E7DAF"/>
</linearGradient>
<radialGradient id="paint3_radial_3422_38137" cx="0" cy="0" r="1" gradientUnits="userSpaceOnUse" gradientTransform="translate(8.55169 -0.78514) rotate(85.8273) scale(18.2785 19.5218)">
<stop offset="0.01" stop-color="#ECF5FC"/>
<stop offset="1" stop-color="#CEE4F3"/>
</radialGradient>
<linearGradient id="paint4_linear_3422_38137" x1="12.1703" y1="10.6277" x2="17.303" y2="5.92837" gradientUnits="userSpaceOnUse">
<stop stop-color="#2E7DAF"/>
<stop offset="0.2708" stop-color="#358DB6"/>
<stop offset="0.5" stop-color="#49B6C8"/>
<stop offset="1" stop-color="#6BFFE8"/>
</linearGradient>
<linearGradient id="paint5_linear_3422_38137" x1="5.5959" y1="17.1975" x2="10.8376" y2="12.3632" gradientUnits="userSpaceOnUse">
<stop stop-color="#2E7DAF"/>
<stop offset="0.2708" stop-color="#358DB6"/>
<stop offset="0.5" stop-color="#49B6C8"/>
<stop offset="1" stop-color="#6BFFE8"/>
</linearGradient>
<linearGradient id="paint6_linear_3422_38137" x1="16.8746" y1="5.9749" x2="21.7206" y2="1.5204" gradientUnits="userSpaceOnUse">
<stop stop-color="#6BFFE8"/>
<stop offset="0.05" stop-color="#68F8E5"/>
<stop offset="0.5" stop-color="#49B6C8"/>
<stop offset="0.83" stop-color="#358DB6"/>
<stop offset="1" stop-color="#2E7DAF"/>
</linearGradient>
<linearGradient id="paint7_linear_3422_38137" x1="16.8746" y1="5.9749" x2="21.7206" y2="1.5204" gradientUnits="userSpaceOnUse">
<stop stop-color="#2E7DAF"/>
<stop offset="0.2708" stop-color="#358DB6"/>
<stop offset="0.5" stop-color="#49B6C8"/>
<stop offset="1" stop-color="#6BFFE8"/>
</linearGradient>
<clipPath id="clip0_3422_38137">
<rect width="24" height="24" fill="white"/>
</clipPath>
</defs>
</svg>