<?xml version="1.0" encoding="utf-8"?>
<!-- Generator: Adobe Illustrator 26.0.3, SVG Export Plug-In . SVG Version: 6.00 Build 0)  -->
<svg version="1.1" id="rose" xmlns="http://www.w3.org/2000/svg" xmlns:xlink="http://www.w3.org/1999/xlink" x="0px" y="0px"
	 viewBox="0 0 500 500" style="enable-background:new 0 0 500 500;" xml:space="preserve">
<style type="text/css">
	.st0{fill-rule:evenodd;clip-rule:evenodd;fill:#0293F6;}
</style>
<path class="st0" d="M449.3,98.9c-37.8-48.4-93.3-79-154.7-79c-118.7,0-205.5,110.3-205.5,229.8c0,83.3,55.3,145.6,116.8,145.6
	c5.7,0,11.4-0.5,17.1-1.6c-41.2-30-67.5-84.8-67.5-144.1c0-94.5,63.9-168.1,139.2-168.1c82.1,0,139.3,81.6,139.3,168.1
	c-0.2,63.9-23,127.4-63.1,174.3c-35,40.9-80.3,66.9-130.1,75.1c0,0,4.2,0.3,9.6,0.3c137.9,0,249.7-111.8,249.7-249.8
	C500,193.1,481.1,140.8,449.3,98.9z M411.4,249.8c0-83.3-55.3-145.7-116.8-145.7c-5.8,0-11.4,0.5-17.1,1.6
	c41.2,30,67.5,84.8,67.5,144.1c0,94.5-63.9,168.1-139.2,168.1c-82.2,0-139.3-81.6-139.3-168.1c0.2-63.9,23-127.4,63.1-174.3
	c35-40.9,80.3-66.9,130.1-75.1c0,0-4.1-0.3-9.6-0.3C112.3,0,0.5,111.8,0.5,249.8c0,56.7,18.9,108.9,50.7,150.8
	c37.8,48.4,93.3,79,154.7,79C324.6,479.6,411.4,369.3,411.4,249.8z"/>
</svg>
