<?xml version="1.0" encoding="iso-8859-1"?>
<!-- Generator: Adobe Illustrator 19.0.0, SVG Export Plug-In . SVG Version: 6.00 Build 0)  -->
<svg version="1.1" id="Layer_1" xmlns="http://www.w3.org/2000/svg" xmlns:xlink="http://www.w3.org/1999/xlink" x="0px" y="0px"
	 viewBox="0 0 500 500" style="enable-background:new 0 0 500 500;" xml:space="preserve">
<path style="fill:#BE0911;" d="M195.481,463.148c-2.456,0.214-4.656,0.59-6.798-0.662c-5.294-3.095-10.675-6.039-15.969-9.134
	c-2.076-1.214-3.219-3.065-3.081-5.611c0.092-1.689-0.002-3.388-0.002-5.082c0.001-63.261,0.003-126.522,0.006-189.782
	c0-1.694-0.123-3.401,0.036-5.081c0.397-4.183,3.312-6.907,7.284-6.241c5.203,0.872,10.384,2.053,15.445,3.54
	c3.766,1.107,5.887,3.904,5.825,8.076c-0.055,3.67,0.003,7.342,0.003,11.013c0.002,62.414,0.005,124.827-0.004,187.241
	C198.226,455.312,198.884,459.355,195.481,463.148z M307.156,35.744c-4.178,3.879-3.392,7.971-3.393,11.842
	c-0.025,64.671-0.025,129.343-0.029,194.014c0,1.694-0.03,3.391,0.045,5.083c0.166,3.727,1.996,6.341,5.597,7.361
	c3.477,0.985,6.919,1.993,10.563,2.532c11.228,1.66,12.405,0.829,12.406-10.816c0.003-62.695,0.002-125.39,0.003-188.084
	c0-2.818,0-5.636,0-9.869C323.47,43.987,316.854,35.974,307.156,35.744z M256.46,219.822c4.293,2.742,7.706,0.861,8.204-4.149
	c0.139-1.401,0.08-2.823,0.08-4.236c0.002-65.271,0.006-130.542-0.024-195.814c-0.001-2.212,0.455-4.535-0.847-6.559
	c-13.791-9.598-12.207-9.178-25.562-0.185c-0.42,0.283-0.589,0.939-0.94,1.531c0,65.151,0,130.408,0,196.361
	C243.979,211.316,250.099,215.758,256.46,219.822z M264.378,293.467c-1.37-3.232-3.648-3.336-5.214-4.51
	c-4.036-3.029-8.294-5.762-12.364-8.747c-2.191-1.607-4.47-2.512-7.033-1.391c-2.497,1.093-2.493,3.509-2.503,5.808
	c-0.006,1.413-0.032,2.825-0.032,4.238c0.004,64.422,0.01,128.845,0.015,193.267c0,2.508,0,5.017,0,7.057
	c12.724,10.162,13.06,10.188,25.308,2.177c0.467-0.305,0.848-0.742,1.822-1.611C264.378,423.749,264.378,357.99,264.378,293.467z
	 M379.154,75.333c-4.566-2.219-7.416,0.001-7.783,5.269c-0.137,1.968-0.059,3.953-0.059,5.93
	c-0.004,50.844-0.006,101.687-0.006,152.531c0,1.977-0.084,3.96,0.039,5.93c0.353,5.633,3.124,7.597,8.308,5.456
	c6.707-2.771,13.255-5.931,19.022-10.862c0-50.47,0-101.008,0-152.192C392.762,81.905,385.908,78.615,379.154,75.333z
	 M108.53,256.404c-2.005,0.405-3.505,1.624-5.168,3.247c0,50.545,0,101.298,0,152.425c5.921,5.181,12.919,8.75,19.953,12.077
	c4.069,1.925,6.898-0.412,7.29-5.19c0.161-1.964,0.061-3.95,0.062-5.925c0.005-51.093,0.008-102.186,0.009-153.28
	c0-1.976,0.097-3.961-0.054-5.925c-0.392-5.093-3.22-7.142-7.901-5.212c-3.783,1.56-7.816,2.841-10.899,5.796
	C111.843,256.932,109.971,256.31,108.53,256.404z M198.264,180.774c-0.051-45.138-0.054-90.276-0.01-135.415
	c0.003-3.454-0.175-6.712-2.869-9.194c-2.93-0.599-5.541-0.291-8.124,1.356c-4.215,2.687-8.402,5.416-13.071,7.382
	c-3.372,1.42-4.645,4.251-4.633,8.187c0.134,42.317,0.1,84.634,0.035,126.951c-0.005,3.277,0.646,6.075,3.125,8.172
	c7.575,0.955,14.949,3.134,22.498,1.905C198.067,187.497,198.268,184.238,198.264,180.774z M332.213,449.615
	c0.054-43.726,0.075-87.452,0.179-131.178c0.007-3.053-1.05-5.402-3.039-7.377c-7.822-0.869-15.42-3.432-23.088-1.775
	c-1.865,2.78-2.565,5.308-2.56,8.265c0.074,45.702,0.074,91.405,0.009,137.107c-0.005,3.238,0.582,6.062,2.841,8.423
	c2.27,0.32,4.581,0.862,6.592-0.526c6.147-4.24,13.437-6.709,18.455-11.185C332.04,450.137,332.213,449.876,332.213,449.615z
	 M37.341,130.278c-0.023,34.897-0.023,69.794-0.006,104.69c0.001,1.162,0.025,2.231-1.312,2.691
	c-0.736,2.891,1.173,3.993,4.134,5.391c9.674-5.206,16.436-14.177,24.032-21.438c0-33.45-0.015-66.109,0.018-98.768
	c0.004-4.295,0.129-8.526-5.062-10.202c-6.783,1.972-12.422,6.178-18.498,9.489c-2.046,1.115-4.398,2.538-4.636,5.455
	C37.315,128.061,37.342,129.099,37.341,130.278z M103.076,96.172c0.011,28.535,0.022,57.07,0.032,85.605
	c0.001,3.107-0.148,6.223,0.022,9.321c0.265,4.831,2.604,6.884,7.044,5.784c5.671-1.405,11.229-3.264,16.83-4.948
	c2.492-0.75,3.543-2.584,3.612-5.065c0.054-1.977,0.064-3.955,0.064-5.933c0.001-31.925-0.001-63.851-0.007-95.776
	c0-1.695,0.09-3.402-0.07-5.083c-0.445-4.665-3.37-6.915-7.478-4.881c-6.963,3.448-14.202,6.644-20.048,12.586
	C103.076,90.562,103.075,93.367,103.076,96.172z M398.905,402.246c-0.014-28.536-0.029-57.071-0.04-85.607
	c-0.001-2.825,0.156-5.658-0.009-8.473c-0.301-5.145-2.766-6.986-7.843-5.618c-4.835,1.303-9.584,2.937-14.337,4.528
	c-5.046,1.688-5.083,1.797-5.326,6.982c-0.066,1.41-0.052,2.825-0.052,4.237c0.001,31.926,0.004,63.852,0.011,95.778
	c0,1.695-0.084,3.401,0.077,5.083c0.449,4.685,3.354,6.937,7.462,4.892c6.951-3.461,14.228-6.59,20.057-12.603
	C398.905,408.42,398.906,405.333,398.905,402.246z M441.181,277.559c0,33.124,0,66.304,0,99.712c1.445,1.381,3.125,2.987,4.676,4.47
	c2.109-0.081,1.511-2.256,2.731-2.884c0.538,0.831,1.109,1.714,1.779,2.75c1.872-3.025-0.445-6.615,1.506-9.45
	c1.906-0.673,1.969,0.999,2.878,1.822c1.921,1.738,4.951,2.408,6.302-0.332c1.315-2.669,3.187-1.582,4.908-1.92
	c0.149-2.8,0.421-5.599,0.427-8.399c0.04-17.215,0.02-34.43,0.02-51.646c0-15.522-0.058-31.044,0.041-46.565
	c0.026-4.015-0.814-7.197-5.252-8.519c-3.945,2.125-6.834,5.505-10.01,8.54C452.469,272.84,446.651,274.938,441.181,277.559z
	 M443.332,112.348c-4.498,1.967-5.601,4.731-5.581,8.539c0.119,23.109,0.102,46.22,0.01,69.329
	c-0.015,3.748,1.088,6.535,4.633,8.149c2.437-0.647,4.6-1.805,6.515-3.531c5.003-4.508,9.397-9.643,14.767-13.8
	c2.175-1.684,2.803-4.561,2.774-7.598c-0.144-15.485-0.067-30.973-0.067-47.26C458.872,120.088,451.072,115.506,443.332,112.348z
	 M37.223,373.65c6.048,6.394,13.989,9.607,21.246,13.379c4.021-1.78,5.758-4.082,5.74-8.033c-0.105-23.41-0.091-46.82,0.004-70.23
	c0.015-3.811-1.306-6.432-5.277-8.125c-8.327,5.316-15.337,12.302-21.713,20.002C37.223,338.312,37.223,355.981,37.223,373.65z
	 M440.295,274.217c-1.957,1.239-2.534,4.079-2.528,6.798c0.074,32.462,0.088,64.924-0.012,97.385
	c-0.013,4.182,1.399,6.956,5.868,8.506c7.439-3.195,14.365-7.872,21.479-12.198c1.131-0.688,1.107-1.833,0.858-2.982
	c-1.721,0.338-3.593-0.749-4.908,1.92c-1.351,2.741-4.381,2.07-6.302,0.332c-0.91-0.823-0.973-2.495-2.878-1.822
	c-1.95,2.834,0.366,6.425-1.506,9.45c-0.67-1.036-1.241-1.919-1.779-2.75c-1.22,0.628-0.622,2.804-2.731,2.884
	c-1.551-1.482-3.231-3.088-4.676-4.47c0-33.408,0-66.588,0-99.712c5.47-2.621,11.288-4.719,10.005-12.421
	C446.771,267.188,444.369,271.639,440.295,274.217z M35.594,132.609c-0.025,33.341-0.026,66.683,0,100.024
	c0.001,1.676,0.28,3.351,0.429,5.027c1.338-0.461,1.313-1.53,1.312-2.691c-0.017-34.897-0.017-69.794,0.006-104.69
	c0.001-1.179-0.026-2.217-1.33-2.692C35.866,129.26,35.595,130.935,35.594,132.609z M35.605,323.274
	c0.003,15.92,0,31.84-0.008,47.76c-0.001,1.226,0.486,2.116,1.626,2.616c0-17.669,0-35.338,0-53.007
	C36.093,321.157,35.605,322.048,35.605,323.274z M108.53,256.404c1.441-0.094,3.313,0.528,3.292-1.988
	C110.466,254.65,108.971,254.654,108.53,256.404z"/>
</svg>
