<?xml version="1.0" encoding="utf-8"?>
<!-- Generator: Adobe Illustrator 24.2.0, SVG Export Plug-In . SVG Version: 6.00 Build 0)  -->
<svg version="1.1" id="Layer_1" xmlns="http://www.w3.org/2000/svg" xmlns:xlink="http://www.w3.org/1999/xlink" x="0px" y="0px"
	 viewBox="0 0 500 500" style="enable-background:new 0 0 500 500;" xml:space="preserve">
<style type="text/css">
	.st0{fill:#FFFFFF;}
</style>
<circle cx="249.9" cy="250.1" r="247.9"/>
<path class="st0" d="M364.2,221.6v-34.9c0-1.5-1.2-2.8-2.8-2.8h-43.2c-1.5,0-2.8-1.2-2.8-2.8V129c0-1.5-1.2-2.8-2.8-2.8h-34.9
	c-1.5,0-2.8,1.2-2.8,2.8v52.3c0,1.5-1.2,2.8-2.8,2.8h-44.8c-1.5,0-2.8-1.2-2.8-2.8V129c0-1.5-1.2-2.8-2.8-2.8h-34.9
	c-1.5,0-2.8,1.2-2.8,2.8v52.3c0,1.5-1.2,2.8-2.8,2.8h-43.2c-1.5,0-2.8,1.2-2.8,2.8v34.9c0,1.5,1.2,2.8,2.8,2.8h43.2
	c1.5,0,2.8,1.2,2.8,2.8v54.3c0,1.5-1.2,2.8-2.8,2.8h-43.2c-1.5,0-2.8,1.2-2.8,2.8v34.9c0,1.5,1.2,2.8,2.8,2.8h43.2
	c1.5,0,2.8,1.2,2.8,2.8v52.3c0,1.5,1.2,2.8,2.8,2.8h34.9c1.5,0,2.8-1.2,2.8-2.8v-52.3c0-1.5,1.2-2.8,2.8-2.8h44.8
	c1.5,0,2.8,1.2,2.8,2.8v52.3c0,1.5,1.2,2.8,2.8,2.8h34.9c1.5,0,2.8-1.2,2.8-2.8v-52.3c0-1.5,1.2-2.8,2.8-2.8h43.2
	c1.5,0,2.8-1.2,2.8-2.8v-34.9c0-1.5-1.2-2.8-2.8-2.8h-43.2c-1.5,0-2.8-1.2-2.8-2.8v-54.3c0-1.5,1.2-2.8,2.8-2.8h43.2
	C363,224.4,364.2,223.2,364.2,221.6z M272.4,284.2h-44.8c-1.5,0-2.8-1.2-2.8-2.8v-54.3c0-1.5,1.2-2.8,2.8-2.8h44.8
	c1.5,0,2.8,1.2,2.8,2.8v54.3C275.2,282.9,273.9,284.2,272.4,284.2z"/>
</svg>
