<?xml version="1.0" encoding="utf-8"?>
<!-- Generator: Adobe Illustrator 26.0.2, SVG Export Plug-In . SVG Version: 6.00 Build 0)  -->
<svg version="1.1"
	 id="svg5" inkscape:version="1.1 (ce6663b3b7, 2021-05-25)" sodipodi:docname="rsv.svg" xmlns:inkscape="http://www.inkscape.org/namespaces/inkscape" xmlns:sodipodi="http://sodipodi.sourceforge.net/DTD/sodipodi-0.dtd" xmlns:svg="http://www.w3.org/2000/svg"
	 xmlns="http://www.w3.org/2000/svg" xmlns:xlink="http://www.w3.org/1999/xlink" x="0px" y="0px" viewBox="0 0 500 500"
	 style="enable-background:new 0 0 500 500;" xml:space="preserve">
<style type="text/css">
	.st0{fill:#FFFFFF;}
</style>
<sodipodi:namedview  bordercolor="#666666" borderopacity="1.0" fit-margin-bottom="0" fit-margin-left="0" fit-margin-right="0" fit-margin-top="0" id="namedview7" inkscape:current-layer="layer1" inkscape:cx="221.95724" inkscape:cy="248.11381" inkscape:document-units="mm" inkscape:pagecheckerboard="0" inkscape:pageopacity="0.0" inkscape:pageshadow="2" inkscape:window-height="1001" inkscape:window-maximized="1" inkscape:window-width="1920" inkscape:window-x="0" inkscape:window-y="0" inkscape:zoom="0.6690478" pagecolor="#ffffff" showgrid="false">
	</sodipodi:namedview>
<g id="layer1" transform="translate(-64.426824,-98.060048)" inkscape:groupmode="layer" inkscape:label="rsv">
	<g id="g95" transform="translate(-68.152026,-18.30157)">
		<path id="path93" sodipodi:nodetypes="csssssssc" class="st0" d="M355.8,615.8c-112.4-14.2-198-93.4-220.1-203.7
			c-4.2-21-4.2-70.8,0-91.8c20.7-103.2,97.6-180.2,200.9-200.8c21-4.2,70.8-4.2,91.8,0c103.3,20.6,180.3,97.6,200.9,200.8
			c4.2,21,4.2,70.8,0,91.8c-20.6,102.8-98,180.5-200,200.6C415.6,615.4,368.5,617.4,355.8,615.8L355.8,615.8z"/>
	</g>
	<g id="g8" transform="translate(-1.9528743,4.357869)">
		<path id="path930" sodipodi:nodetypes="cssssssscccccccssscssssssccccccccccccccccccccccccssssscc" d="M289.6,593.1
			C177.3,579,91.6,499.7,69.5,389.4c-4.2-21-4.2-70.8,0-91.8c20.7-103.2,97.6-180.2,200.9-200.8c21-4.2,70.8-4.2,91.8,0
			c103.3,20.6,180.3,97.6,200.9,200.8c4.2,21,4.2,70.8,0,91.8c-20.6,102.8-98,180.5-200,200.6C349.4,592.7,302.3,594.7,289.6,593.1
			L289.6,593.1z M300.9,406.6l0.5-36.3h16.3H334l15.8,36.8l15.8,36.8h20.2c11.1,0,20.7-0.4,21.2-0.9c0.5-0.5-5.9-16.1-14.1-34.7
			c-8.3-18.6-15.4-35.3-15.8-37.2c-0.6-2.7,0.4-4,4.4-5.6c6.8-2.8,15.9-13.1,18.8-21.2c1.6-4.6,2.3-15.5,2.3-37.4
			c0-29.2-0.2-31.4-4-38.9c-2.2-4.4-7-10.6-10.7-13.7c-12.2-10.4-16.1-11-74.9-10.5l-52.6,0.4l-0.5,16.2l-0.5,16.2l-18.7,0.5
			l-18.7,0.5v17.5v17.5l19.6,0.5l19.6,0.5v9.1v9.1l-19.6,0.5l-19.6,0.5v17.5v17.5l19.6,0.5l19.6,0.5v37.6v37.6l19.6,0.2l19.6,0
			L300.9,406.6z M301.3,306.8v-25.1h27.5c27.5,0,27.5,0,30.9,4.4c3,3.8,3.5,6.7,3.5,20.7c0,13.9-0.5,16.9-3.5,20.7
			c-3.5,4.4-3.5,4.4-30.9,4.4h-27.5V306.8z"/>
	</g>
</g>
</svg>
