<?xml version="1.0" encoding="iso-8859-1"?>
<!-- Generator: Adobe Illustrator 19.0.0, SVG Export Plug-In . SVG Version: 6.00 Build 0)  -->
<svg version="1.1" id="Layer_2" xmlns="http://www.w3.org/2000/svg" xmlns:xlink="http://www.w3.org/1999/xlink" x="0px" y="0px"
	 viewBox="0 0 500 500" style="enable-background:new 0 0 500 500;" xml:space="preserve">
<polygon style="fill:#FFFFFF;" points="272.014,3.498 305.29,3.498 326.28,25 400,45.99 336.007,63.908 353.925,140.188 
	379.01,170.392 317.065,402.304 232.082,402.304 100,496.502 184.983,113.567 206.485,75.171 215.188,44.966 236.689,20.904 "/>
<polygon style="fill:#DE4435;" points="272.014,3.498 305.29,3.498 326.28,25 "/>
<polygon style="fill:#EB8D3A;" points="327.869,25.452 400,45.99 338.005,63.348 "/>
<polygon style="fill:#E73F3C;" points="325.64,27.816 316.809,52.773 335.751,62.5 "/>
<polygon style="fill:#EC903B;" points="323.08,27.048 314.633,50.981 275.597,7.21 "/>
<polygon style="fill:#E1423E;" points="238.385,20.069 269.806,4.586 311.305,50.981 "/>
<polygon style="fill:#DD4137;" points="236.087,21.578 282.125,41.766 216.278,43.746 "/>
<polygon style="fill:#393B78;" points="214.74,46.52 279.949,44.4 206.937,73.6 "/>
<polygon style="fill:#E24335;" points="205.871,76.266 286.092,44.4 186.38,111.072 "/>
<polygon style="fill:#373C7D;" points="189.718,112.159 289.292,45.158 336.305,65.178 "/>
<polygon style="fill:#EC8E36;" points="191.382,114.59 336.972,68.017 352.938,135.986 "/>
<polygon style="fill:#E1433A;" points="187.927,116.51 352.938,139.292 314.633,402.304 "/>
<polygon style="fill:#373D7B;" points="185.367,119.198 311.561,402.304 233.106,402.304 "/>
<polygon style="fill:#373C7D;" points="183.281,121.237 230.204,403.643 100,496.502 "/>
<polygon style="fill:#383D79;" points="356.312,143.062 379.01,170.392 319.181,394.381 "/>
</svg>
