<?xml version="1.0" encoding="utf-8"?>
<!-- Generator: Adobe Illustrator 23.0.3, SVG Export Plug-In . SVG Version: 6.00 Build 0)  -->
<svg version="1.1" id="s" xmlns="http://www.w3.org/2000/svg" xmlns:xlink="http://www.w3.org/1999/xlink" x="0px" y="0px"
	 viewBox="0 0 500 500" style="enable-background:new 0 0 500 500;" xml:space="preserve">
<style type="text/css">
	.st0{fill:#FF9933;}
</style>
<path class="st0" d="M250.8,4.9C116.1,4.7,6.7,113.7,6.5,248.4C6.5,292,18.1,334.8,40.1,372.3L6,494l125.4-32.3
	c117.5,66,266.3,24.4,332.3-93.1c66-117.5,24.4-266.3-93.1-332.3C334,15.6,292.7,4.9,250.8,4.9z M321.9,349.2
	c-17.2,10.2-36.3,16.9-56.2,19.5L254.5,417h-73.2l11-47.6c-7.7-0.7-15.4-1.8-23-3.4c-14.7-2.5-29-6.9-42.6-12.9l-2.1-1l15-64.7h10.2
	l0.8,0.8c3,2.5,6.6,5.3,11,8.3c5.9,3.8,12.2,6.9,18.8,9.4c7.9,3.3,16.1,5.9,24.5,7.8c9.8,2.2,19.8,3.3,29.9,3.2
	c12.1,0.9,24.2-0.9,35.5-5.3c6.7-3.2,11.5-9.4,12.9-16.7l15.8-68.3c14.1,3.7,27.4,9.8,39.5,18c13.2,9.8,20.7,25.6,20.1,42.1
	C358.7,312.5,344.7,336.6,321.9,349.2z M363.1,205.6h-9.7l-0.8-0.6c-10.3-7.6-21.7-13.6-33.9-17.6c-13.1-4.5-26.9-6.8-40.8-6.9
	c-11.8-0.5-23.5,1.3-34.5,5.3c-5.4,2.5-9.4,7.2-11.1,12.9c-1.3,3.6-1.7,5.4-2.8,9.7l-14.6,63.3c-15-3.8-29-10.7-41.3-20.2
	c-11.7-10-18.3-24.7-18.1-40.1c-0.3-25.9,13.3-50,35.7-63c17.3-10.6,36.7-17.4,56.8-19.9l11.1-48.1h73.2l-11.1,48.1
	c5.3,0.8,10.7,1.4,16.2,2.5c13.1,2.2,25.8,6,38,11.3l2.2,1L363.1,205.6z"/>
</svg>
