<?xml version="1.0" encoding="iso-8859-1"?>
<!-- Generator: Adobe Illustrator 19.0.0, SVG Export Plug-In . SVG Version: 6.00 Build 0)  -->
<svg version="1.1" id="Layer_1" xmlns="http://www.w3.org/2000/svg" xmlns:xlink="http://www.w3.org/1999/xlink" x="0px" y="0px"
	 viewBox="2000 0 500 500" style="enable-background:new 2000 0 500 500;" xml:space="preserve">
<path style="fill:#FFCE45;" d="M2250,496.877c-33.328,0-65.659-6.528-96.096-19.401c-14.629-6.187-28.738-13.846-41.936-22.762
	c-13.072-8.831-25.365-18.974-36.536-30.145c-11.171-11.171-21.314-23.464-30.145-36.536c-8.916-13.198-16.575-27.307-22.762-41.936
	c-12.874-30.437-19.401-62.768-19.401-96.096s6.527-65.659,19.401-96.096c6.188-14.629,13.846-28.738,22.762-41.936
	c8.831-13.072,18.974-25.365,30.145-36.536s23.464-21.314,36.536-30.145c13.198-8.916,27.307-16.575,41.936-22.762
	C2184.342,9.651,2216.673,3.124,2250,3.124c33.328,0,65.659,6.527,96.096,19.401c14.629,6.187,28.738,13.846,41.936,22.762
	c13.072,8.831,25.365,18.974,36.536,30.145c11.172,11.171,21.314,23.464,30.145,36.536c8.916,13.198,16.575,27.307,22.762,41.936
	c12.874,30.437,19.401,62.768,19.401,96.096s-6.528,65.659-19.401,96.096c-6.187,14.629-13.846,28.738-22.762,41.936
	c-8.832,13.072-18.974,25.365-30.145,36.536c-11.171,11.172-23.464,21.314-36.536,30.145c-13.198,8.916-27.307,16.575-41.936,22.762
	C2315.659,490.349,2283.328,496.877,2250,496.877z M2250,5.183c-33.051,0-65.112,6.473-95.293,19.238
	c-14.506,6.136-28.498,13.73-41.585,22.572c-12.964,8.758-25.154,18.816-36.233,29.895c-11.079,11.079-21.137,23.269-29.895,36.233
	c-8.842,13.088-16.436,27.079-22.572,41.585c-12.766,30.182-19.239,62.243-19.239,95.293c0,33.051,6.473,65.112,19.239,95.294
	c6.136,14.506,13.73,28.498,22.572,41.585c8.758,12.964,18.816,25.154,29.895,36.233c11.079,11.079,23.269,21.137,36.233,29.895
	c13.088,8.842,27.079,16.436,41.585,22.572c30.181,12.766,62.243,19.238,95.293,19.238s65.112-6.473,95.293-19.238
	c14.506-6.136,28.498-13.73,41.585-22.572c12.964-8.758,25.154-18.816,36.233-29.895c11.079-11.079,21.137-23.269,29.895-36.233
	c8.842-13.088,16.436-27.079,22.572-41.585c12.766-30.182,19.239-62.243,19.239-95.294c0-33.051-6.473-65.112-19.239-95.293
	c-6.135-14.506-13.73-28.498-22.572-41.585c-8.758-12.964-18.816-25.154-29.895-36.233c-11.079-11.079-23.27-21.137-36.233-29.895
	c-13.088-8.842-27.079-16.436-41.585-22.572C2315.112,11.656,2283.051,5.183,2250,5.183z"/>
<path style="fill:#FFCE45;" d="M2250.002,57.585l188.327,188.326l-188.327,188.327l-188.326-188.327L2250.002,57.585z"/>
<path style="fill:#FEBE44;" d="M2250,307.365l-188.482-61.462L2250,57.58l188.482,188.323L2250,307.365z"/>
<path style="fill:#FFFFFF;" d="M2127.077,233.611h86.046L2250,192.636l40.974,40.974h86.046L2250,96.35L2127.077,233.611z"/>
<path style="opacity:0.42;fill:#D9A547;enable-background:new    ;" d="M2250,434.226V57.58l188.323,188.323L2250,434.226
	L2250,434.226z"/>
</svg>
