<?xml version="1.0" encoding="utf-8"?>
<!-- Generator: Adobe Illustrator 24.2.2, SVG Export Plug-In . SVG Version: 6.00 Build 0)  -->
<svg version="1.1" id="Layer_1" xmlns="http://www.w3.org/2000/svg" xmlns:xlink="http://www.w3.org/1999/xlink" x="0px" y="0px"
	 viewBox="0 0 500 500" style="enable-background:new 0 0 500 500;" xml:space="preserve">
<path d="M239.1,417.6c-45.7,0-80.7-20.3-82.3-21.2l17-44.1c0.2,0.1,35.1,19.5,69.6,18c19.3-0.9,43.3-6.4,43.3-44.7
	c0-22.8-14.1-41.5-44.1-60.2c-2.1-1.3-4.2-2.6-6.3-3.9c-32.8-20.4-69-36.7-69-99.6c0-52,34.9-79.9,87.7-79.9
	c43.3,0,76,17.8,77.4,18.6l-14.1,42c-0.3-0.1-32.2-13.5-63.3-13.5c-30.3,0-38.2,15.2-39,31.6c-1.3,28.9,15.1,40.1,45.9,59.5
	c2,1.3,4,2.5,6.1,3.8c30.3,18.8,69.1,43.4,69.1,101.5c0,59-36.1,89.4-91.6,91.9C243.3,417.6,241.2,417.6,239.1,417.6z"/>
<circle cx="457.6" cy="244.1" r="38.7"/>
<circle cx="42.6" cy="244" r="38.7"/>
</svg>
