<svg width="24" height="24" fill="currentColor" xmlns="http://www.w3.org/2000/svg"><path fill-rule="evenodd" clip-rule="evenodd" d="M10.502 1.403a3 3 0 012.998.001l3.194 1.825c.21.041.406.15.554.316L20.5 5.404c.37.214.69.503.937.848a1.004 1.004 0 01.25.414A3 3 0 0122 7.999V16.001a3 3 0 01-1.5 2.595l-.004.002-3.249 1.857a.998.998 0 01-.554.316L13.5 22.596l-.002.001a3.002 3.002 0 01-1.023.363.995.995 0 01-.95 0 3.001 3.001 0 01-1.023-.363l-.002-.001-3.193-1.825a.998.998 0 01-.554-.316l-3.249-1.857-.004-.002A3 3 0 012 16.001v-3.984V8a3 3 0 01.314-1.333 1.003 1.003 0 01.25-.414 3 3 0 01.936-.848l.004-.002 3.249-1.857a1 1 0 01.553-.316l3.196-1.826zM7.55 5.393L5.04 6.828 12 10.855l6.961-4.027-2.51-1.435-3.95 2.283a1 1 0 01-1.001 0L7.55 5.393zm6.89-1.148L12.5 3.136a1 1 0 00-1 0l-.004.002L9.56 4.245 12 5.655l2.44-1.41zM20 8.538l-7 4.049v7.991l2.5-1.428V14.6a1 1 0 01.5-.866l4-2.311V8.538zm0 5.195l-2.5 1.444v2.83l2-1.143h.002a1 1 0 00.498-.865v-2.266zm-9 6.845v-7.991l-7-4.05v2.886l4 2.311a1 1 0 01.5.866v4.55l2.5 1.428zm-4.5-2.571v-2.83L4 13.733v2.266a1 1 0 00.499.864l.001.001 2 1.143z"/></svg>