<svg width="24" height="24" fill="currentColor" xmlns="http://www.w3.org/2000/svg"><path fill-rule="evenodd" clip-rule="evenodd" d="M11.635 1.245a.9.9 0 01.98 0l10 6.5a.9.9 0 01.41.755v7a.9.9 0 01-.41.755l-10 6.5a.9.9 0 01-.98 0l-10-6.5a.9.9 0 01-.41-.755v-7a.9.9 0 01.41-.755l10-6.5zm-8.61 8.984l3.567 2.496a.865.865 0 00.034.024l4.6 3.22v4.373l-8.2-5.33v-4.783zm10 10.113v-4.373l4.6-3.22a.81.81 0 00.033-.024l3.567-2.496v4.783l-8.2 5.33zm7.491-11.814l-7.49-4.87v4.373l4.1 2.87 3.39-2.373zM15.556 12l-3.43-2.401L8.694 12l3.43 2.401L15.555 12zm-8.43-1.099l4.1-2.87V3.658l-7.492 4.87L7.125 10.9z"/></svg>
