<svg width="23" height="22" viewBox="0 0 23 22" fill="currentColor" xmlns="http://www.w3.org/2000/svg">
<path fill-rule="evenodd" clip-rule="evenodd" d="M10.6346 0.245407C10.9329 0.0515392 11.3173 0.0515392 11.6156 0.245407L21.6156 6.74541C21.871 6.91143 22.0251 7.19538 22.0251 7.50001V14.5C22.0251 14.8046 21.871 15.0886 21.6156 15.2546L11.6156 21.7546C11.3173 21.9485 10.9329 21.9485 10.6346 21.7546L0.634608 15.2546C0.379195 15.0886 0.225098 14.8046 0.225098 14.5V7.50001C0.225098 7.19538 0.379195 6.91143 0.634608 6.74541L10.6346 0.245407ZM2.0251 9.2286L5.59178 11.7253C5.60305 11.7336 5.61448 11.7416 5.62607 11.7493L10.2251 14.9686V19.3416L2.0251 14.0116V9.2286ZM12.0251 19.3416V14.9686L16.6241 11.7493C16.6357 11.7416 16.6472 11.7336 16.6584 11.7253L20.2251 9.22859V14.0116L12.0251 19.3416ZM19.5162 7.52764L12.0251 2.65842V7.03142L16.1251 9.90142L19.5162 7.52764ZM14.5557 11L11.1251 8.5986L7.69451 11L11.1251 13.4014L14.5557 11ZM6.1251 9.90142L10.2251 7.03142V2.65842L2.73399 7.52764L6.1251 9.90142Z"/>
</svg>
