<svg width="20" height="23" viewBox="0 0 20 23" fill="currentColor" xmlns="http://www.w3.org/2000/svg">
<path fill-rule="evenodd" clip-rule="evenodd" d="M8.50231 0.402732C8.95784 0.14023 9.47438 0.00204468 10.0002 0.00204468C10.526 0.00204468 11.0425 0.140241 11.4981 0.402765C11.4988 0.403166 11.4995 0.403567 11.5002 0.403968L14.6938 2.22891C14.904 2.27048 15.1 2.37902 15.2476 2.54534L18.5002 4.40396C18.8701 4.61757 19.1892 4.90714 19.4371 5.25235C19.4974 5.31272 19.551 5.38187 19.5958 5.45927C19.6343 5.52594 19.6643 5.59521 19.6861 5.6658C19.8918 6.07927 19.9997 6.53547 20.0002 6.99897V10.9808C20.0004 10.993 20.0004 11.0052 20.0002 11.0173V15.001C19.9996 15.5271 19.8608 16.0438 19.5975 16.4993C19.3342 16.9547 18.9558 17.333 18.5002 17.596L18.4963 17.5982L15.2471 19.4549C15.1047 19.6148 14.9117 19.7286 14.6934 19.7713L11.5002 21.596C11.4996 21.5964 11.499 21.5967 11.4984 21.5971C11.1812 21.7799 10.8343 21.9025 10.4754 21.9601C10.3341 22.0366 10.1722 22.08 10.0002 22.08C9.82815 22.08 9.66627 22.0366 9.52491 21.9601C9.16601 21.9025 8.81922 21.7799 8.50202 21.5971C8.5014 21.5967 8.50078 21.5964 8.50017 21.596L5.30698 19.7713C5.08859 19.7286 4.89566 19.6148 4.75326 19.4549L1.50403 17.5982L1.50017 17.596C1.04456 17.333 0.666137 16.9547 0.402859 16.4993C0.139582 16.0438 0.000706837 15.5271 0.000167236 15.001L0.000166699 11.0173C-5.52683e-05 11.0052 -5.58644e-05 10.993 0.000166699 10.9808L0.000167236 6.99897C0.000642642 6.53548 0.108492 6.07928 0.314187 5.66581C0.335982 5.59521 0.365993 5.52594 0.404559 5.45927C0.449332 5.38187 0.502892 5.31272 0.563247 5.25235C0.811103 4.90714 1.13019 4.61758 1.50017 4.40397L1.50402 4.40174L4.75275 2.54534C4.90035 2.37902 5.09636 2.27048 5.30649 2.22891L8.50231 0.402732ZM5.54962 4.39348L3.03916 5.82804L10.0002 9.85474L16.9612 5.82804L14.4507 4.39348L10.5004 6.67586C10.1909 6.85471 9.80943 6.85471 9.49989 6.67586L5.54962 4.39348ZM12.4408 3.24495L10.5002 2.13603C10.3481 2.04826 10.1757 2.00204 10.0002 2.00204C9.82463 2.00204 9.65219 2.04825 9.50017 2.13602L9.49631 2.13825L7.55956 3.24495L10.0002 4.65508L12.4408 3.24495ZM18.0002 7.53753L11.0002 11.5868V19.5782L13.5002 18.1497V13.6C13.5002 13.2428 13.6906 12.9128 13.9999 12.7341L18.0002 10.4229V7.53753ZM18.0002 12.7327L15.5002 14.1771V17.0068L17.5002 15.864C17.5007 15.8637 17.5012 15.8634 17.5018 15.8631C17.6529 15.7754 17.7785 15.6497 17.8659 15.4984C17.9537 15.3466 18 15.1743 18.0002 14.999V12.7327ZM9.00017 19.5782V11.5868L2.00017 7.53753V10.4229L6.00044 12.7341C6.30969 12.9128 6.50017 13.2428 6.50017 13.6V18.1497L9.00017 19.5782ZM4.50017 17.0068V14.1771L2.00017 12.7327V14.9994C2.00042 15.1746 2.04671 15.3467 2.1344 15.4984C2.22185 15.6497 2.34743 15.7754 2.49859 15.8631C2.49912 15.8634 2.49964 15.8637 2.50017 15.864L4.50017 17.0068Z" />
</svg>
