<svg width="24" height="24" viewBox="0 0 24 24" fill="currentColor" xmlns="http://www.w3.org/2000/svg">
<path fill-rule="evenodd" clip-rule="evenodd" d="M5.7 4.8C5.4613 4.8 5.23239 4.89482 5.0636 5.0636C4.89482 5.23239 4.8 5.4613 4.8 5.7V18.3C4.8 18.5387 4.89482 18.7676 5.0636 18.9364C5.23239 19.1052 5.46131 19.2 5.7 19.2H6.6V12.9C6.6 12.4029 7.00294 12 7.5 12H16.5C16.9971 12 17.4 12.4029 17.4 12.9V19.2H18.3C18.5387 19.2 18.7676 19.1052 18.9364 18.9364C19.1052 18.7676 19.2 18.5387 19.2 18.3V8.77279L15.2272 4.8H8.4V7.5H14.7C15.1971 7.5 15.6 7.90294 15.6 8.4C15.6 8.89706 15.1971 9.3 14.7 9.3H7.5C7.00294 9.3 6.6 8.89706 6.6 8.4V4.8H5.7ZM5.7 3C4.98392 3 4.29716 3.28446 3.79081 3.79081C3.28446 4.29716 3 4.98392 3 5.7V18.3C3 19.0161 3.28446 19.7028 3.79081 20.2092C4.29716 20.7155 4.98391 21 5.7 21H18.3C19.0161 21 19.7028 20.7155 20.2092 20.2092C20.7155 19.7028 21 19.0161 21 18.3V8.4C21 8.1613 20.9052 7.93239 20.7364 7.7636L16.2364 3.2636C16.0676 3.09482 15.8387 3 15.6 3H5.7ZM15.6 19.2V13.8H8.4V19.2H15.6Z"/>
</svg>
