<?xml version="1.0" encoding="utf-8"?>
<!-- Generator: Adobe Illustrator 25.2.0, SVG Export Plug-In . SVG Version: 6.00 Build 0)  -->
<svg version="1.1" id="scrt" xmlns="http://www.w3.org/2000/svg" xmlns:xlink="http://www.w3.org/1999/xlink" x="0px" y="0px"
	 viewBox="0 0 500 500" style="enable-background:new 0 0 500 500;" xml:space="preserve">
<path d="M426.4,73.2C379.2,26,316.5,0,249.8,0C112.1,0,0,112.2,0,250s112.1,250,249.8,250c66.7,0,129.4-26,176.6-73.2
	c47.2-47.2,73.1-110,73.1-176.8C499.5,183.2,473.6,120.4,426.4,73.2z M249.8,482.7C121.6,482.7,17.3,378.3,17.3,250
	S121.6,17.3,249.8,17.3S482.3,121.7,482.3,250S378,482.7,249.8,482.7z"/>
<path d="M331.8,255.9c-16-14.3-37-23.9-57.2-33.1l-0.1-0.1c-35.8-16.4-66.8-30.5-64.6-63.9c0.9-12.8,10.2-20.4,17.8-24.6
	c8.6-4.7,19.9-7.5,30.4-7.5c1.2,0,2.5,0.1,3.7,0.1c30.5,2,54.6,15,78.2,41.9l1.4,1.6l1.6-1.4l9.2-8l1.6-1.4l-1.5-1.6
	c-26.2-30.1-54.8-45.2-89.6-47.6c-1.5-0.2-3.1-0.2-4.9-0.2c-1,0-2.2,0-3.4,0.1H253c-22.9,0-47.9,7.5-66.9,20.1
	c-22.8,15.1-35.5,35.8-35.8,58.3c-0.9,54.9,43.9,73.3,83.5,89.6l0.1,0l0.4,0.1c35,14.5,65.2,27,64.5,60.5
	c-0.3,22.1-31.9,34.3-53.6,34.3h-0.9h-2.1v0c-32.4-1-61.2-14.9-85.9-41.4l-1.5-1.6l-1.6,1.5l-8.9,8.3l-1.6,1.5l1.5,1.6
	c28,30.1,62.6,46.4,99.9,46.8h1.7c24.2,0,50.4-6.5,70.2-17.5c24.8-13.5,39.2-33.3,40.8-55.6C358.4,292.4,350.2,272.4,331.8,255.9z
	 M215.7,208.2c14.2,12.2,33.6,20.9,52.2,29.4l0.4,0.1c19.8,9.1,38.5,17.7,52,29.7c15,13.2,21.4,28.5,20,48.1
	c-1.2,19.5-15.7,32.5-28.9,40.3c2.5-5.2,4-10.9,4.1-16.9c0.3-20.2-7.5-36.4-23.8-49.5c-14.2-11.5-33.1-19.2-51.4-26.8
	c-38.1-15.6-74-30.4-73.3-74.1c0.2-16.8,10.3-32.7,28.4-44.8c0.6-0.4,1.2-0.8,1.9-1.2c-2.1,4.7-3.4,9.6-3.6,14.8
	C192.1,177.7,199.4,194.3,215.7,208.2z"/>
</svg>
