<?xml version="1.0" encoding="utf-8"?>
<!-- Generator: Adobe Illustrator 25.2.2, SVG Export Plug-In . SVG Version: 6.00 Build 0)  -->
<svg version="1.1" id="sdt" xmlns="http://www.w3.org/2000/svg" xmlns:xlink="http://www.w3.org/1999/xlink" x="0px" y="0px"
	 viewBox="0 0 500 500" style="enable-background:new 0 0 500 500;" xml:space="preserve">
<style type="text/css">
	.st0{fill-rule:evenodd;clip-rule:evenodd;}
</style>
<path class="st0" d="M104.5,309.7l7.5,52.4l-37.3,7.5L44.8,362L0,287.2l14.9-134.7l52.2-67.3l67.2-7.5l67.2-37.4L291,85.2
	l-22.4,22.4c64.7,10,107,17.5,126.9,22.4c29.9,7.5,82.1,44.9,89.6,52.4c7.5,7.5,3.9,41.9,0,67.3c-2.6,17-7.6,29.4-14.9,37.4
	L500,459.3h-67.2l14.9-15l-59.7-127.2l-164.2,22.4l-59.7,119.7H97l22.4-37.4l44.8-157.1l-29.9-29.9l-67.2,15l-7.5,59.8l22.4,22.4
	L104.5,309.7L104.5,309.7z M209.5,398l22.3-45.9l29.7-7.7l22.3,114.9h-74.3l14.9-7.7L209.5,398z M352.7,346l22.3-15.1l37.2,64.2
	l-7.4,64.2h-66.9l14.9-22.7V346L352.7,346z"/>
</svg>
