<?xml version="1.0" encoding="utf-8"?>
<!-- Generator: Adobe Illustrator 23.0.3, SVG Export Plug-In . SVG Version: 6.00 Build 0)  -->
<svg version="1.1" id="seele" xmlns="http://www.w3.org/2000/svg" xmlns:xlink="http://www.w3.org/1999/xlink" x="0px" y="0px"
	 viewBox="0 0 500 500" style="enable-background:new 0 0 500 500;" xml:space="preserve">
<path id="path_3_" d="M250,199L250,199c28.5,0,51.6,23.1,51.6,51.5v0.1c0,28.4-23.1,51.5-51.5,51.5H250c-28.4,0-51.5-23.1-51.5-51.5
	v-0.1C198.5,222.1,221.5,199,250,199z"/>
<path id="path_2_" d="M496.3,250c0,22.6-3,45.1-9.1,66.8c-4.4,15.8-20.8,25-36.6,20.6c-2.4-0.7-4.6-1.6-6.8-2.8l0,0
	c-11.7-6.8-17.4-20.6-13.8-33.7c4.6-16.6,6.9-33.7,6.9-50.9c0-42.4-14.3-83.6-40.6-116.9c-27-34.2-65.1-58-107.6-67.3
	c-13.8-2.9-23.7-15-23.7-29.1l0,0c-0.1-16.4,13.2-29.7,29.6-29.8c2.2,0,4.4,0.2,6.6,0.7c59,12.9,111.3,46.9,147.1,95.6
	c7.7,10.7,14.6,22,20.6,33.8C486.9,171.9,496.3,210.7,496.3,250z"/>
<path id="path_1_" d="M126.1,460.8c-19.6-11.2-37.5-25.1-53.3-41.3c-11.4-11.8-11.1-30.6,0.7-42c1.7-1.7,3.7-3.1,5.8-4.3l0,0
	c11.7-6.8,26.6-4.8,36.1,4.9c42,43.2,102.2,63.7,161.9,55c43.2-6.2,82.9-27.2,112.3-59.4c9.4-10.5,24.8-12.9,37-5.9l0,0
	c14.2,8.3,18.9,26.5,10.6,40.6c-1.1,1.8-2.3,3.5-3.8,5.1c-40.8,44.5-96.3,72.7-156.2,79.3c-52.5,5.8-105.5-5.3-151.3-31.7
	L126.1,460.8z"/>
<path id="path" d="M127.4,34c19.6-11.3,40.7-19.9,62.7-25.5c15.9-4.1,32.1,5.5,36.1,21.4c0.6,2.4,0.9,4.9,0.9,7.4l0,0
	c0,13.6-9.1,25.4-22.3,28.8c-45,11.5-84.2,39.1-110,77.7c-7.3,11-13.5,22.7-18.3,35c-16.2,40.5-17.9,85.4-4.7,126.9
	c4.4,13.4-1.1,28-13.3,35.1l0,0c-14.2,8.3-32.4,3.5-40.6-10.6c-1.1-1.9-2-3.9-2.7-6C-7.1,253.5,3.2,176.4,43.5,114
	C64.7,81,93.4,53.6,127.4,34z"/>
</svg>
