<?xml version="1.0" encoding="utf-8"?>
<!-- Generator: Adobe Illustrator 25.4.1, SVG Export Plug-In . SVG Version: 6.00 Build 0)  -->
<svg version="1.1" id="sefi" xmlns="http://www.w3.org/2000/svg" xmlns:xlink="http://www.w3.org/1999/xlink" x="0px" y="0px"
	 viewBox="0 0 500 500" style="enable-background:new 0 0 500 500;" xml:space="preserve">
<style type="text/css">
	.st0{fill:#1B1B1B;}
</style>
<path class="st0" d="M496.8,213c-6-39.2-25.4-80.1-51.9-109.5c-31.7-35.1-70.5-51.5-109.3-46.2c-94.2,12.8-114.1,94.5-131.8,166.4
	l-0.1,0.2l-0.2,0.7c-15.7,63.7-29.2,118.7-86.8,126.4c-38,5.3-67.1-45.7-72.8-82.9l-0.8-5.2l-0.1,0c-6-49.4,6.1-96.7,36-141
	l-3.1,57.3l25.3-9.8L108.8,55L1.6,105.1l0.9,25.3l53.8-25.7c-35,51.4-49.3,108.4-41.1,165.9l0.5,3c6.3,41.4,24.3,84.6,48.2,115.7
	c29.6,39,67.3,58.6,105.9,55.3c42.4-3.5,74.4-22.7,97.9-58.6c20.3-31.2,31.2-69.6,41.8-106.7l0-0.3c18.7-65.6,34.8-122.3,92.7-127.3
	c22.1-1.7,37.7,12.2,46.8,24.1c10.2,13.4,18.1,32.2,20.8,50.1c0.3,2.2,0.6,4.3,0.8,6.4c3.8,45.6-23.3,105.7-52.1,146.1l3.2-58.5
	l-25.3,9.8l-7.4,114.5L496.3,394l-0.9-25.3l-52.9,25.2C480,340.9,506.8,278.8,496.8,213z M400.2,123.6
	c-35.1,2.8-61.6,19.6-81.2,51.1c-17.2,27.6-27.1,63-36.7,97.1l-0.2,0.6c-10.4,36.2-20.3,70.5-37.2,96.8
	c-18.7,29.1-43.3,44-77.3,46.8c-33.7,2.9-59.7-18.5-76.6-39c9.5,3,19.7,4,30,2.7c34.7-4.7,60.3-22.3,78.6-53.6
	c15.9-27.4,24.3-61.8,32.4-95.1c16.9-69.2,32.9-134.8,107.9-145.1c28.8-4,58.7,9.1,84.1,37.1c0.9,0.9,1.7,1.9,2.6,2.8
	C417.8,123.5,409.1,122.7,400.2,123.6z"/>
</svg>
