<svg width="24" height="24" viewBox="0 0 24 24" fill="none" xmlns="http://www.w3.org/2000/svg">
<path d="M22.8299 12.85C22.8899 12.78 22.9399 12.71 22.9799 12.63C22.9899 12.6 23.0099 12.57 23.0199 12.54C23.0599 12.43 23.0899 12.32 23.0899 12.19C23.0899 12.07 23.0599 11.95 23.0199 11.84C23.0099 11.81 22.9899 11.78 22.9799 11.75C22.9399 11.67 22.8899 11.59 22.8299 11.53C22.8099 11.51 22.7999 11.49 22.7799 11.47C22.7099 11.4 22.6199 11.33 22.5199 11.29L3.42989 2.09997C3.05989 1.91997 2.61989 1.98997 2.31989 2.25997C2.01989 2.53997 1.91989 2.97997 2.06989 3.35997L5.46989 12.19L2.06989 21.03C1.92989 21.4 2.01989 21.82 2.29989 22.1C2.29989 22.1 2.31989 22.12 2.32989 22.13C2.62989 22.41 3.06989 22.47 3.43989 22.3L22.5299 13.11C22.6299 13.06 22.7099 13 22.7799 12.93C22.7999 12.91 22.8099 12.89 22.8299 12.87V12.85ZM4.83989 4.99997L17.7099 11.2H7.21989L4.83989 4.99997ZM7.21989 13.2H17.7099L4.83989 19.4L7.21989 13.2Z" fill="black"/>
</svg>
