<svg aria-hidden="true" data-testid="test-icon" fill="currentColor" viewBox="0 0 24 24" xmlns="http://www.w3.org/2000/svg"><path fill-rule="evenodd" clip-rule="evenodd" d="M5.455 19.364a.818.818 0 01-.819-.819v-3.272c0-.452.367-.819.819-.819h13.09c.452 0 .819.367.819.819v3.273a.818.818 0 01-.819.818H5.456zM3 18.545A2.455 2.455 0 005.455 21h13.09A2.454 2.454 0 0021 18.546v-3.273a2.454 2.454 0 00-2.454-2.455H5.455A2.455 2.455 0 003 15.273v3.273zm3.273-1.636c0 .452.366.818.818.818h.008a.818.818 0 100-1.636h-.008a.818.818 0 00-.818.818zm-.818-7.364a.818.818 0 01-.819-.818V5.455c0-.452.367-.819.819-.819h13.09c.452 0 .819.367.819.819v3.272a.818.818 0 01-.819.818H5.456zM3 8.727a2.455 2.455 0 002.455 2.455h13.09A2.454 2.454 0 0021 8.727V5.455A2.455 2.455 0 0018.546 3H5.455A2.455 2.455 0 003 5.455v3.272zm3.273-1.636c0 .452.366.818.818.818h.008a.818.818 0 100-1.636h-.008a.818.818 0 00-.818.818z"/><path d="M9.5 7.09c0 .453.366.82.818.82h.008a.818.818 0 000-1.637h-.008a.818.818 0 00-.818.818z"/></svg>
