<?xml version="1.0" encoding="utf-8"?>
<!-- Generator: Adobe Illustrator 25.4.1, SVG Export Plug-In . SVG Version: 6.00 Build 0)  -->
<svg version="1.1"
	 id="sfi" inkscape:version="0.92.4 (5da689c313, 2019-01-14)" sodipodi:docname="saffron_finance_logo.svg" xmlns:cc="http://creativecommons.org/ns#" xmlns:dc="http://purl.org/dc/elements/1.1/" xmlns:inkscape="http://www.inkscape.org/namespaces/inkscape" xmlns:rdf="http://www.w3.org/1999/02/22-rdf-syntax-ns#" xmlns:sodipodi="http://sodipodi.sourceforge.net/DTD/sodipodi-0.dtd" xmlns:svg="http://www.w3.org/2000/svg"
	 xmlns="http://www.w3.org/2000/svg" xmlns:xlink="http://www.w3.org/1999/xlink" x="0px" y="0px" viewBox="0 0 500 500"
	 style="enable-background:new 0 0 500 500;" xml:space="preserve">
<path id="path1019" inkscape:connector-curvature="0" d="M222.1,373.6c0.6-126.4,0.6-126.4-6.4-127.4c-29.4-4.4-48.2-11.1-69.1-24.5
	c-28-18-45.4-42.6-52.4-74c-4.8-21.6-3.1-40.3,6.1-67.7c9.4-28,9.7-37.6,1.6-53.1l-6.2-11.9l25-8.5c28.3-9.6,27.9-9.7,35.2,6.6
	c7.3,16.1,6.5,40.3-2,66.2c-8.6,26-10.4,38.3-8.1,54.5c4.5,31.4,25.1,51.7,61.5,60.6c19.7,4.8,69.3,4.7,86.8-0.1
	c17.6-4.9,34.7-14.2,43.4-23.9c19.5-21.5,23-49.3,11-86.7c-10.9-34-10.3-63.2,1.6-78.9c3.6-4.7,3.6-4.7,23.4,0.6
	c36.2,9.7,33.6,7.8,26.3,19.6c-8.5,13.8-8.3,24.9,1.3,57.4c11,37.1,10,60-3.9,90.4c-9.7,21.2-32.7,43.7-55.6,54.4
	c-17.9,8.4-48.6,18-57.6,18c-10.4,0-11.5,1.3-9.8,11.6c0.9,5.2,1.6,62,1.7,126.3l0.1,116.8h-27.2h-27.2L222.1,373.6z M95.4,435.8
	v-24.1h49.1h49.1v24.1v24.1h-49.1H95.4V435.8z M304,435.8v-24.1h49.1h49.1v24.1v24.1h-49.1H304V435.8z M95.4,357.6v-24.1h49.1h49.1
	v24.1v24.1h-49.1H95.4V357.6z M304,357.6v-24.1h49.1h49.1v24.1v24.1h-49.1H304V357.6z M95.4,279.4v-24.1h49.1h49.1v24.1v24.1h-49.1
	H95.4V279.4z M304,279.4v-24.1h49.1h49.1v24.1v24.1h-49.1H304V279.4z M270.1,168.5c-5.7-11.3-13.3-29-17-39.2l-6.6-18.7l-3.4,12.6
	c-4.1,15.1-27.2,63.8-30.3,63.7c-1.2-0.1-11.8-4.8-23.6-10.5L167.7,166l28.5-53.6l28.5-53.6l22.2,0l22.2,0l28.6,53.3
	c15.8,29.3,28.3,53.6,28,53.9c-1.5,1.3-43.2,23.1-44.2,23.1C280.9,189.1,275.8,179.9,270.1,168.5L270.1,168.5z"/>
</svg>
