<?xml version="1.0" encoding="utf-8"?>
<!-- Generator: Adobe Illustrator 25.2.0, SVG Export Plug-In . SVG Version: 6.00 Build 0)  -->
<svg version="1.1" id="sfp" xmlns="http://www.w3.org/2000/svg" xmlns:xlink="http://www.w3.org/1999/xlink" x="0px" y="0px"
	 viewBox="0 0 500 500" style="enable-background:new 0 0 500 500;" xml:space="preserve">
<style type="text/css">
	.st0{fill-rule:evenodd;clip-rule:evenodd;fill:#050101;}
</style>
<path id="sfp_1_" class="st0" d="M467.1,289.3v35.1c0,97.4-143.1,153.5-187,168.3l0,0l-16,5.4v-60.6l7.8-2.9
	c68.2-25.4,137.1-69.3,137.1-110.3l0,0v-35.1H467.1z M250.4,1.8l58.5,17.8v61.8l-58.5-17.9l-3.8,1.2v139.1h62.3v57.3h-62.3v236.1
	l-16.2-6c-7.5-2.8-19.7-7.5-34.7-14.2l0,0l-7.1-3.2V20.7L250.4,1.8z M170.2,26.5v61.5l-79.2,24.3v91.5h79.2V469l-17.5-8.9
	C98,432.3,32.9,385.5,32.9,320.1l0,0v-30.8h58v30.8c0,13.5,7.1,27.7,21.2,42.4l0,0V261.2H32.9V68.4L170.2,26.5z M326.5,25l140.6,43
	v193.2h-82.6v83.6c0,0-18.5,23.9-58,43.9c0-11.1,0-181.1,0-284.7L326.5,25z M384.5,104.6v99.3h24.5v-91.8L384.5,104.6z"/>
</svg>
