<svg width="24" height="24" viewBox="0 0 24 24" fill="currentColor" xmlns="http://www.w3.org/2000/svg">
<g clip-path="url(#clip0_20501_44611)">
<path fill-rule="evenodd" clip-rule="evenodd" d="M16.1999 5.69999C15.4267 5.69999 14.7999 6.32679 14.7999 7.09999C14.7999 7.87319 15.4267 8.49999 16.1999 8.49999C16.9731 8.49999 17.5999 7.87319 17.5999 7.09999C17.5999 6.32679 16.9731 5.69999 16.1999 5.69999ZM13.3999 7.09999C13.3999 5.55359 14.6535 4.29999 16.1999 4.29999C17.7463 4.29999 18.9999 5.55359 18.9999 7.09999C18.9999 8.64638 17.7463 9.89999 16.1999 9.89999C14.6535 9.89999 13.3999 8.64638 13.3999 7.09999Z" />
<path fill-rule="evenodd" clip-rule="evenodd" d="M7.8 10.6C7.0268 10.6 6.4 11.2268 6.4 12C6.4 12.7732 7.0268 13.4 7.8 13.4C8.5732 13.4 9.2 12.7732 9.2 12C9.2 11.2268 8.5732 10.6 7.8 10.6ZM5 12C5 10.4536 6.2536 9.20001 7.8 9.20001C9.3464 9.20001 10.6 10.4536 10.6 12C10.6 13.5464 9.3464 14.8 7.8 14.8C6.2536 14.8 5 13.5464 5 12Z" />
<path fill-rule="evenodd" clip-rule="evenodd" d="M16.1999 15.5C15.4267 15.5 14.7999 16.1268 14.7999 16.9C14.7999 17.6732 15.4267 18.3 16.1999 18.3C16.9731 18.3 17.5999 17.6732 17.5999 16.9C17.5999 16.1268 16.9731 15.5 16.1999 15.5ZM13.3999 16.9C13.3999 15.3536 14.6535 14.1 16.1999 14.1C17.7463 14.1 18.9999 15.3536 18.9999 16.9C18.9999 18.4464 17.7463 19.7 16.1999 19.7C14.6535 19.7 13.3999 18.4464 13.3999 16.9Z" />
<path fill-rule="evenodd" clip-rule="evenodd" d="M9.00839 12.7046C9.20304 12.3705 9.63161 12.2575 9.96563 12.4522L14.7466 15.2382C15.0807 15.4328 15.1937 15.8614 14.999 16.1954C14.8044 16.5294 14.3758 16.6424 14.0418 16.4478L9.26077 13.6618C8.92674 13.4671 8.81375 13.0386 9.00839 12.7046Z" />
<path fill-rule="evenodd" clip-rule="evenodd" d="M14.9918 7.8042C15.1866 8.1381 15.0739 8.56675 14.74 8.7616L9.96602 11.5476C9.63212 11.7425 9.20348 11.6297 9.00862 11.2958C8.81376 10.9619 8.92648 10.5333 9.26038 10.3384L14.0344 7.55244C14.3683 7.35758 14.7969 7.4703 14.9918 7.8042Z" />
</g>
<defs>
<clipPath id="clip0_20501_44611">
<rect width="17.95" height="15.4" fill="white" transform="translate(3.0249 4.29999)"/>
</clipPath>
</defs>
</svg>
