<svg width="24" height="25" viewBox="0 0 24 25" fill="currentColor" xmlns="http://www.w3.org/2000/svg">
<g clip-path="url(#clip0_20336_43550)">
<path d="M19.9751 13.2975H13.9751C13.4251 13.2975 12.9751 12.8475 12.9751 12.2975C12.9751 11.7475 13.4251 11.2975 13.9751 11.2975H18.9751V6.29749C18.9751 5.74749 19.4251 5.29749 19.9751 5.29749C20.5251 5.29749 20.9751 5.74749 20.9751 6.29749V12.2975C20.9751 12.8475 20.5251 13.2975 19.9751 13.2975Z" />
<path d="M7.64507 20.6975C7.48507 20.6975 7.31507 20.6575 7.16507 20.5775C4.63507 19.1875 3.12507 16.8275 3.02507 14.0875C2.92507 11.2775 4.31507 8.59749 6.64507 7.08749C11.9351 3.66749 16.7151 7.44749 20.6951 11.6075C21.0751 12.0075 21.0651 12.6375 20.6651 13.0175C20.2651 13.3975 19.6351 13.3875 19.2551 12.9875C15.1051 8.66749 11.5551 6.29749 7.72507 8.76749C6.01507 9.87749 4.95507 11.9375 5.02507 14.0175C5.09507 16.0575 6.19507 17.7675 8.12507 18.8175C8.60507 19.0875 8.78507 19.6875 8.52507 20.1775C8.34507 20.5075 8.00507 20.6975 7.64507 20.6975Z" />
</g>
<defs>
<clipPath id="clip0_20336_43550">
<rect width="17.95" height="15.4" fill="white" transform="translate(3.0249 5.29749)"/>
</clipPath>
</defs>
</svg>
