<svg aria-hidden="true" data-testid="test-icon" xmlns="http://www.w3.org/2000/svg" viewBox="0 0 24 24.28"><path d="M17.59 2.145a15.524 15.524 0 00-1.713 2.032l-.162-.053a11.721 11.721 0 00-2.869-.556 22.007 22.007 0 00-1.743 0 10.134 10.134 0 00-2.843.56c-.038.015-.071.026-.105.038a15.285 15.285 0 00-1.769-2.017 12.3 12.3 0 0110.027-.53c.349.131.691.285 1.025.451zM23.359 16.336a11.664 11.664 0 01-2.094 3.669 13.013 13.013 0 01-1.638 1.6 12.092 12.092 0 01-4.724 2.328 12.394 12.394 0 01-5.8 0 12.068 12.068 0 01-4.724-2.328 13.012 13.012 0 01-1.638-1.6A11.521 11.521 0 01.646 8.766 12.19 12.19 0 011.6 6.711c.176-.3.393-.635.5-.773.359 1.543.8 2.9.965 3.389a.84.84 0 01-.041.082 13.535 13.535 0 00-1.455 5.272v.071a3.25 3.25 0 00.075 1.14 7.31 7.31 0 002.5 3.389 14.415 14.415 0 007.5 3.4c2.375.161 5.88-1.225 8.214-3.25a11.724 11.724 0 001.032-1.035 5.665 5.665 0 00.55-.732c-.008 0 0-.007.015-.015s.022-.019.015-.026 0-.015.015-.019.019-.011.015-.019 0-.015.015-.019a.017.017 0 00.011-.022c0-.007 0-.015.007-.015s.015-.011.015-.019.008-.019.015-.019a.016.016 0 00.015-.015.392.392 0 01.049-.086c.056-.086.281-.486.31-.553a5.148 5.148 0 00.411-1.341 3.8 3.8 0 00.034-.673c0-.015 0-.041-.007-.082-.007-.075-.011-.187-.019-.3-.008-.168-.023-.4-.034-.519a10.95 10.95 0 00-1.418-4.551 1.305 1.305 0 01-.082-.157.215.215 0 01-.015-.03c.116-.348.591-1.8.969-3.464l.007.007.056.075c.1.131.355.519.471.706a11.466 11.466 0 011.058 9.826z" fill="#F00500" fill-opacity=".7"/><path d="M18.509 11.857a1.264 1.264 0 01-.364.372 6.277 6.277 0 01-2.388.9 2.938 2.938 0 01-1.236.034c-.105-.053-.12-.094-.083-.229a1.827 1.827 0 01.732-.879c.2-.147 1.025-.646 1.408-.856a4.978 4.978 0 011.487-.6.765.765 0 01.282 0c.068.026.143.225.173.466a6.127 6.127 0 01-.011.792zM9.704 13.1a.408.408 0 01-.263.113 4.242 4.242 0 01-.74-.019 7.774 7.774 0 01-2.257-.65 2.842 2.842 0 01-.777-.522l-.105-.109-.011-.143a3.936 3.936 0 01.015-.777 1.02 1.02 0 01.116-.331c.03-.038.03-.038.165-.038a1.626 1.626 0 01.529.1 10.355 10.355 0 011.987.992 3.446 3.446 0 011.149.894.75.75 0 01.192.49z" fill="#806b6b"/><path d="M14.999 18.3c0 .011-.045.191-.1.406s-.1.387-.1.394a.644.644 0 01-.12 0h-.12l-.165.391c-.09.214-.173.413-.184.443l-.022.053-.079-.128-.079-.128v-1.04l-.03.008c-.064.015-.518.075-.717.094a10.228 10.228 0 01-2.468-.053c-.131-.019-.244-.034-.248-.03s0 .244.008.541l.011.533-.064.1c-.034.053-.068.1-.068.1s-.049-.049-.135-.222a2.548 2.548 0 01-.21-.571l-.026-.109-.116.008-.116.011-.03-.139a3.61 3.61 0 01-.041-.255l-.011-.12-.1-.086c-.056-.049-.113-.1-.124-.105a.082.082 0 01-.026-.064v-.045h.938l.015.049.015.049.161.008c.09 0 .376.011.631.019l.47.011.12-.188.124-.188h.158v-.782l-.206-.09a2.016 2.016 0 01-1.2-1.033 1.444 1.444 0 01-.037-.488 1.487 1.487 0 01.023-.488.545.545 0 01.387-.383 8.927 8.927 0 011.119-.019h1.044l.117.056a.653.653 0 01.281.222.62.62 0 01.117.443 3.306 3.306 0 01-.056.721 1.555 1.555 0 01-.218.432 2 2 0 01-.841.59l-.09.034v.788l.083.008.083.008.113.169.109.169h.5c.278 0 .522 0 .545.008.038.008.045 0 .083-.06l.045-.068h.432a1.363 1.363 0 01.415.016z"/><path d="M13.018 19.374c-.072.041-.12.06-.131.053s-.064-.049-.12-.09l-.1-.083-.105.113c-.229.248-.236.259-.3.263-.105.011-.128-.007-.255-.2-.068-.1-.12-.18-.12-.18s-.049-.008-.105-.011l-.1-.011-.049.1-.049.1-.086-.026a1.838 1.838 0 01-.2-.079l-.113-.056v-.212h2v.1c-.011.129-.002.125-.167.219z"/><path d="M22.358 14.775c0-.015 0-.041-.007-.083a7.923 7.923 0 00-5.835 1.814 4.537 4.537 0 00-4.355-3.53c-3.589 0-4.919 3.53-4.919 3.53a6.44 6.44 0 00-5.674-1.874v.071a3.285 3.285 0 00.075 1.145 7.346 7.346 0 002.5 3.406 14.365 14.365 0 007.5 3.418c2.374.161 5.876-1.232 8.209-3.267a11.742 11.742 0 001.032-1.04 5.693 5.693 0 00.55-.736c-.008 0 0-.007.015-.015s.023-.019.015-.026 0-.015.015-.019.019-.011.015-.019 0-.015.015-.019a.017.017 0 00.011-.022c0-.008 0-.015.007-.015s.015-.011.015-.019.007-.019.015-.019a.016.016 0 00.015-.015.39.39 0 01.049-.086 9.68 9.68 0 00.31-.556 5.2 5.2 0 00.411-1.348 4.576 4.576 0 00.016-.676zm-9.345 4.582c-.071.041-.12.06-.131.053s-.064-.049-.12-.09l-.1-.083-.1.113c-.228.248-.236.259-.3.263-.1.011-.127-.007-.254-.2l-.12-.18s-.049-.007-.1-.011l-.1-.011-.049.1-.049.1-.086-.026a1.828 1.828 0 01-.2-.079l-.112-.056v-.214h1.988v.1c-.006.13-.002.126-.167.22zm1.869-.676c-.056.214-.1.387-.1.394a.632.632 0 01-.12 0h-.12l-.161.394c-.09.214-.172.413-.183.443l-.022.053-.078-.128-.079-.128v-1.034l-.03.008c-.064.015-.516.075-.714.094a10.141 10.141 0 01-2.456-.053 2.474 2.474 0 00-.247-.03s0 .244.007.541l.011.533-.064.1c-.034.053-.067.1-.067.1s-.049-.049-.135-.222a2.547 2.547 0 01-.209-.571l-.026-.109-.116.008-.116.011-.03-.139a3.706 3.706 0 01-.041-.255l-.011-.12-.1-.086c-.056-.049-.112-.1-.123-.105a.083.083 0 01-.026-.064v-.045h.934l.015.049.015.049.161.008c.09 0 .374.011.628.019l.467.011.12-.188.123-.188h.157v-.782l-.206-.09a2.009 2.009 0 01-1.2-1.033 1.442 1.442 0 01-.037-.488 1.5 1.5 0 01.022-.488.545.545 0 01.385-.383 8.877 8.877 0 011.114-.019h1.039l.116.056a.65.65 0 01.28.222.623.623 0 01.116.443 3.326 3.326 0 01-.056.721 1.562 1.562 0 01-.217.432 1.992 1.992 0 01-.837.59l-.09.034v.788l.082.008.082.007.112.169.108.169h.5c.277 0 .52 0 .542.008.037.008.045 0 .082-.06l.045-.068h.43a1.8 1.8 0 01.43.015 2.592 2.592 0 00-.106.393z" fill="#fff"/><path d="M1.56 14.669a3.483 3.483 0 00-.376.071M22.685 14.778a3.374 3.374 0 00-.334-.049" fill="none"/><path d="M22.328 14.486a10.755 10.755 0 00-.034-.522 11.052 11.052 0 00-1.417-4.574 1.313 1.313 0 01-.082-.158.225.225 0 01-.015-.03c.116-.349.591-1.81.968-3.481.512-2.268.837-4.92-.157-5.716 0 0-1.72-.128-4.022 2.141a15.5 15.5 0 00-1.7 2.032l-.161-.053a11.62 11.62 0 00-2.856-.556 21.78 21.78 0 00-1.734 0 10.046 10.046 0 00-2.83.56l-.1.038A15.267 15.267 0 006.427 2.15C4.027-.13 2.248.002 2.248.002c-1.054.822-.7 3.594-.15 5.938.359 1.551.8 2.914.964 3.406a.865.865 0 01-.041.083 13.667 13.667 0 00-1.454 5.3 6.436 6.436 0 015.678 1.874s1.331-3.53 4.919-3.53a4.537 4.537 0 014.355 3.53 7.94 7.94 0 015.835-1.814c-.011-.077-.018-.19-.026-.303zM3.76 7.929s-1.4-3.512-1.039-5.517a1.939 1.939 0 01.348-.86s1.585.158 4.142 3.012a7.3 7.3 0 00-1.136.74.013.013 0 01-.007 0 9.015 9.015 0 00-2.306 2.621zm5.932 5.217a.406.406 0 01-.262.113 4.209 4.209 0 01-.736-.019 7.71 7.71 0 01-2.246-.65 2.829 2.829 0 01-.774-.522l-.1-.109-.011-.143a3.943 3.943 0 01.015-.777 1.021 1.021 0 01.116-.331c.03-.038.03-.038.164-.038a1.612 1.612 0 01.527.1 10.274 10.274 0 011.977.992 3.431 3.431 0 011.144.894.753.753 0 01.188.49zm8.807-1.243a1.261 1.261 0 01-.363.372 6.231 6.231 0 01-2.377.9 2.909 2.909 0 01-1.23.034c-.1-.053-.12-.094-.082-.229a1.825 1.825 0 01.729-.879c.2-.146 1.02-.646 1.4-.856a4.939 4.939 0 011.48-.6.756.756 0 01.28 0c.067.026.142.225.172.466a6.138 6.138 0 01-.008.791zm-.62-6.6h-.007a6.973 6.973 0 00-1.1-.74c2.471-2.854 4-3.012 4-3.012a2.043 2.043 0 01.336.86c.348 2.006-1 5.521-1 5.521a8.933 8.933 0 00-2.228-2.625z" fill="#ffa409"/><path d="M15.864 4.178c-.008.008-.011.019-.019.026M20.769 9.163c-.019.053-.026.079-.026.079" fill="none"/><path d="M21.107 2.409c-.293-.038-1.679-.045-3.249 2.9h-.008a7.008 7.008 0 00-1.1-.74c2.482-2.854 4.019-3.012 4.019-3.012a1.993 1.993 0 01.338.852z" fill="#ff9300" fill-opacity=".3"/><path d="M20.101 7.93a8.913 8.913 0 00-2.242-2.625c1.57-2.941 2.952-2.933 3.248-2.9.352 2.013-1.006 5.525-1.006 5.525zM21.163 2.42l-.056-.011z" fill="#ff8300" fill-opacity=".2"/><path d="M8.29 4.324c-.037-.053-.079-.105-.116-.158M3.062 9.308c.041.128.068.2.068.2" fill="none"/><g><path d="M7.238 4.561a7.349 7.349 0 00-1.142.74.013.013 0 01-.007 0c-1.626-2.944-3.057-2.933-3.365-2.9a1.936 1.936 0 01.349-.86s1.596.166 4.165 3.02z" fill="#ff9300" fill-opacity=".3"/><path d="M6.093 5.3a9 9 0 00-2.321 2.625s-1.4-3.511-1.044-5.521c.304-.033 1.739-.04 3.365 2.896zM2.728 2.409l-.06.011z" fill="#ff8300" fill-opacity=".2"/></g><path d="M16.328 9.845s-1.2.075-1.052-.864a1.241 1.241 0 011.352-1.014c.263.038 1.314.413 1.127 1.2s-.451.638-.6.676a5.952 5.952 0 01-.827.002zM7.505 9.845s-1.2.075-1.052-.864a1.241 1.241 0 011.352-1.014c.263.038 1.314.413 1.127 1.2s-.451.638-.6.676a5.951 5.951 0 01-.827.002z" fill="#fff"/></svg>
