<svg width="16" height="17" viewBox="0 0 16 17" fill="currentColor" xmlns="http://www.w3.org/2000/svg">
<g clip-path="url(#clip0_3827_26988)">
<path fill-rule="evenodd" clip-rule="evenodd" d="M7.76686 1.64564C7.91756 1.58936 8.08353 1.58948 8.23416 1.64596L13.5675 3.64596C13.8277 3.74354 14.0001 3.99229 14.0001 4.27018V8.94124C13.9967 9.45896 13.9169 9.97335 13.7634 10.4678C13.6543 10.8195 13.2808 11.016 12.9291 10.9069C12.5775 10.7977 12.3809 10.4242 12.49 10.0726C12.6045 9.70395 12.664 9.32052 12.6667 8.93459V4.73218L7.99958 2.982L6.12663 3.68139C5.7817 3.81019 5.39767 3.63499 5.26887 3.29006C5.14006 2.94514 5.31527 2.56111 5.66019 2.43231L7.76686 1.64564Z" />
<path fill-rule="evenodd" clip-rule="evenodd" d="M3.7786 3.85941C3.90633 4.20474 3.72992 4.58822 3.3846 4.71595L3.33333 4.73491V8.93734C3.33333 10.6397 4.47884 12.1371 5.77234 13.269C6.40508 13.8226 7.04097 14.2601 7.52 14.5595C7.70837 14.6772 7.87138 14.7729 7.99899 14.8453C9.21681 14.1593 10.3154 13.2789 11.2509 12.2383C11.4971 11.9645 11.9186 11.9421 12.1924 12.1882C12.4662 12.4344 12.4886 12.8559 12.2424 13.1297C11.123 14.3749 9.79203 15.4122 8.31112 16.1936C8.12098 16.294 7.89414 16.2964 7.70186 16.2003L8 15.604C7.70186 16.2003 7.70207 16.2004 7.70186 16.2003L7.69948 16.1991L7.69516 16.1969L7.68083 16.1896C7.66878 16.1835 7.6518 16.1747 7.63021 16.1633C7.58705 16.1407 7.52542 16.1078 7.44796 16.0649C7.29312 15.9792 7.07452 15.8534 6.81333 15.6902C6.29236 15.3646 5.59492 14.8854 4.89433 14.2724C3.52116 13.0709 2 11.235 2 8.93734V4.27068C2 3.99168 2.17373 3.74219 2.4354 3.64541L2.92207 3.46541C3.2674 3.33768 3.65088 3.51409 3.7786 3.85941Z" />
<path fill-rule="evenodd" clip-rule="evenodd" d="M0.195262 1.13276C0.455612 0.872413 0.877722 0.872413 1.13807 1.13276L15.8047 15.7994C16.0651 16.0598 16.0651 16.4819 15.8047 16.7422C15.5444 17.0026 15.1223 17.0026 14.8619 16.7422L0.195262 2.07557C-0.0650874 1.81522 -0.0650874 1.39311 0.195262 1.13276Z" />
</g>
<defs>
<clipPath id="clip0_3827_26988">
<rect width="16" height="16" transform="translate(0 0.9375)"/>
</clipPath>
</defs>
</svg>
