<svg width="16" height="17" viewBox="0 0 16 17" fill="currentColor" xmlns="http://www.w3.org/2000/svg">
<g clip-path="url(#clip0_3827_26956)">
<g clip-path="url(#clip1_3827_26956)">
<path fill-rule="evenodd" clip-rule="evenodd" d="M7.76592 1.64596C7.91684 1.58937 8.08316 1.58937 8.23408 1.64596L13.5674 3.64596C13.8276 3.74354 14 3.99229 14 4.27018V8.93685C14 11.2345 12.4788 13.0704 11.1057 14.2719C10.4051 14.8849 9.70764 15.3641 9.18667 15.6897C8.92549 15.8529 8.70688 15.9787 8.55204 16.0644C8.47458 16.1073 8.41295 16.1402 8.36979 16.1629C8.3482 16.1742 8.33122 16.183 8.31917 16.1891L8.30484 16.1964L8.30052 16.1986L8.29909 16.1993C8.29887 16.1994 8.29814 16.1998 8 15.6035C7.70186 16.1998 7.70166 16.1997 7.70145 16.1996L7.69948 16.1986L7.69516 16.1964L7.68083 16.1891C7.66878 16.183 7.6518 16.1742 7.63021 16.1629C7.58705 16.1402 7.52542 16.1073 7.44796 16.0644C7.29312 15.9787 7.07452 15.8529 6.81333 15.6897C6.29236 15.3641 5.59492 14.8849 4.89433 14.2719C3.52116 13.0704 2 11.2345 2 8.93685V4.27018C2 3.99229 2.17238 3.74354 2.43258 3.64596L7.76592 1.64596ZM8 15.6035L7.70145 16.1996C7.88913 16.2934 8.11046 16.2936 8.29814 16.1998L8 15.6035ZM8 14.8454C8.12776 14.7729 8.29114 14.6771 8.48 14.559C8.95903 14.2596 9.59492 13.8221 10.2277 13.2685C11.5212 12.1367 12.6667 10.6392 12.6667 8.93685V4.73218L8 2.98218L3.33333 4.73218V8.93685C3.33333 10.6392 4.47884 12.1367 5.77234 13.2685C6.40508 13.8221 7.04097 14.2596 7.52 14.559C7.70886 14.6771 7.87224 14.7729 8 14.8454Z" />
</g>
</g>
<defs>
<clipPath id="clip0_3827_26956">
<rect width="16" height="16" transform="translate(0 0.9375)"/>
</clipPath>
<clipPath id="clip1_3827_26956">
<rect width="16" height="16" transform="translate(0 0.9375)"/>
</clipPath>
</defs>
</svg>
