<svg width="24" height="24" viewBox="0 0 24 24" fill="none" xmlns="http://www.w3.org/2000/svg">
<path d="M9 24C10.1046 24 11 23.1046 11 22C11 20.8954 10.1046 20 9 20C7.89543 20 7 20.8954 7 22C7 23.1046 7.89543 24 9 24Z" fill="black"/>
<path d="M20 24C21.1046 24 22 23.1046 22 22C22 20.8954 21.1046 20 20 20C18.8954 20 18 20.8954 18 22C18 23.1046 18.8954 24 20 24Z" fill="black"/>
<path d="M9.62 18C8.21 18 6.98 16.99 6.7 15.58L5.03 7.24C5.03 7.24 5.02 7.18 5.01 7.15L4.18 3H1C0.45 3 0 2.55 0 2C0 1.45 0.45 1 1 1H5C5.48 1 5.89 1.34 5.98 1.8L6.82 6H23C23.3 6 23.58 6.13 23.77 6.36C23.96 6.59 24.04 6.89 23.98 7.19L22.38 15.58C22.09 17.01 20.86 18.03 19.38 18H9.68C9.68 18 9.64 18 9.62 18ZM7.22 8L8.66 15.19C8.75 15.66 9.16 16 9.64 16C9.64 16 9.65 16 9.66 16H19.4C19.87 16 20.32 15.67 20.42 15.2L21.79 8H7.22Z" fill="black"/>
</svg>
