<?xml version="1.0" encoding="utf-8"?>
<!-- Generator: Adobe Illustrator 25.1.0, SVG Export Plug-In . SVG Version: 6.00 Build 0)  -->
<svg version="1.1" id="shr" xmlns="http://www.w3.org/2000/svg" xmlns:xlink="http://www.w3.org/1999/xlink" x="0px" y="0px"
	 viewBox="0 0 500 500" style="enable-background:new 0 0 500 500;" xml:space="preserve">
<style type="text/css">
	.st0{fill:#238CFD;}
</style>
<path class="st0" d="M225.7,357.4L3.3,213.9l2.2-11.5C27.4,85.7,130.8,1,251.2,1c122.3,0,225.6,87.4,245.6,207.9
	c1.6,9.5-4.8,18.4-14.3,20c-9.5,1.6-18.4-4.8-20-14.3C445.3,111,356.4,35.8,251.2,35.8c-99.7,0-185.9,67.3-209.1,161.7l178.3,115
	l71-74.5c6.6-7,17.7-7.2,24.6-0.6c7,6.6,7.2,17.7,0.6,24.6L225.7,357.4z"/>
<path class="st0" d="M251.2,499c-120.5,0-223.5-85.9-245-204.3c-1.7-9.5,4.6-18.5,14-20.2c9.5-1.7,18.5,4.6,20.2,14
	C59,390.3,147.6,464.2,251.2,464.2c97,0,182.3-67.4,207.1-161.9l-182-114.6l-71.1,74.6c-6.6,7-17.7,7.2-24.6,0.6
	c-7-6.6-7.2-17.7-0.6-24.6l90.8-95.3l226.8,142.8l-2.4,11.8C471.2,414.3,368.6,499,251.2,499z"/>
</svg>
