<?xml version="1.0" encoding="utf-8"?>
<!-- Generator: Adobe Illustrator 24.1.2, SVG Export Plug-In . SVG Version: 6.00 Build 0)  -->
<svg version="1.1" id="SHUF" xmlns="http://www.w3.org/2000/svg" xmlns:xlink="http://www.w3.org/1999/xlink" x="0px" y="0px"
	 viewBox="0 0 500 500" style="enable-background:new 0 0 500 500;" xml:space="preserve">
<style type="text/css">
	.st0{fill:#B62121;}
	.st1{opacity:0.4;}
	.st2{fill:url(#SVGID_1_);}
	.st3{fill:#EAA92B;}
	.st4{fill:#53FC18;}
	.st5{fill:url(#SVGID_2_);}
	.st6{fill:#58E236;}
	.st7{fill:url(#SVGID_3_);}
	.st8{fill:url(#SVGID_4_);}
</style>
<path class="st0" d="M120.7,367.3c-14.8-74.5-34.8-122.1-53.2-151.1c-9.3-14.5-18.2-24.5-26.1-30.7c-7.3-5.7-13.5-8.7-18.1-9.4
	l-2.8,0.3l-0.1-3.6l1.9-0.2l0-0.3c0.3,0,0.9,0.2,1.1,0.2c52.9-2.3,96.8,26.4,130,62.8c33.8,37,57,82.8,67.9,113.4l0.8,1.9
	l-100.9,18.4L120.7,367.3z"/>
<g class="st1">
	<g class="st1">
		
			<linearGradient id="SVGID_1_" gradientUnits="userSpaceOnUse" x1="420.1419" y1="149.8662" x2="160.5139" y2="219.1933" gradientTransform="matrix(0.5847 0.8112 -0.8112 0.5847 88.6548 -66.4674)">
			<stop  offset="0" style="stop-color:#FFFFFF"/>
			<stop  offset="0.1205" style="stop-color:#FBFBFB"/>
			<stop  offset="0.2454" style="stop-color:#EEEEEE"/>
			<stop  offset="0.3724" style="stop-color:#DADADA"/>
			<stop  offset="0.5008" style="stop-color:#BCBCBC"/>
			<stop  offset="0.6304" style="stop-color:#979797"/>
			<stop  offset="0.761" style="stop-color:#696969"/>
			<stop  offset="0.8898" style="stop-color:#343434"/>
			<stop  offset="1" style="stop-color:#000000"/>
		</linearGradient>
		<path class="st2" d="M120.7,367.3c-14.8-74.5-34.8-122.1-53.2-151.1c-9.3-14.5-18.2-24.5-26.1-30.7c-7.3-5.7-13.5-8.7-18.1-9.4
			l-2.8,0.3l-0.1-3.6l1.9-0.2l0-0.3c0.3,0,0.9,0.2,1.1,0.2c52.9-2.3,96.8,26.4,130,62.8c33.8,37,57,82.8,67.9,113.4l0.8,1.9
			l-100.9,18.4L120.7,367.3z"/>
	</g>
</g>
<path class="st3" d="M34.4,173.4c0-7.7-6.2-14-13.9-14c-7.7,0-14,6.2-14,13.9c0,7.7,6.2,14,13.9,14c0,0,0,0,0,0
	C28.1,187.4,34.4,181.1,34.4,173.4C34.4,173.4,34.4,173.4,34.4,173.4z"/>
<path class="st4" d="M186.5,351.6c-9.1-75.6-25-124.5-41-154.8c-8-15.2-16.1-25.9-23.5-32.7c-6.8-6.6-12.8-9.9-17.4-11.1
	c-0.8,0.1-1.7-0.1-2.8,0l-0.1-3.4c0.6-0.1,1.4,0.1,2,0.1l0-0.3c0.3,0,0.9,0.2,1.1,0.2c53,1.9,94.4,33.9,124.5,72.9
	c30.7,39.8,50.1,87.2,58.6,118.6l0.5,1.9L186.4,353L186.5,351.6z"/>
<g class="st1">
	<g class="st1">
		
			<linearGradient id="SVGID_2_" gradientUnits="userSpaceOnUse" x1="450.3164" y1="82.2518" x2="192.4048" y2="151.1231" gradientTransform="matrix(0.5847 0.8112 -0.8112 0.5847 88.6548 -66.4674)">
			<stop  offset="0" style="stop-color:#FFFFFF"/>
			<stop  offset="0.1205" style="stop-color:#FBFBFB"/>
			<stop  offset="0.2454" style="stop-color:#EEEEEE"/>
			<stop  offset="0.3724" style="stop-color:#DADADA"/>
			<stop  offset="0.5008" style="stop-color:#BCBCBC"/>
			<stop  offset="0.6304" style="stop-color:#979797"/>
			<stop  offset="0.761" style="stop-color:#696969"/>
			<stop  offset="0.8898" style="stop-color:#343434"/>
			<stop  offset="1" style="stop-color:#000000"/>
		</linearGradient>
		<path class="st5" d="M186.5,351.6c-9.1-75.6-25-124.5-41-154.8c-8-15.2-16.1-25.9-23.5-32.7c-6.8-6.6-12.8-9.9-17.4-11.1
			c-0.8,0.1-1.7-0.1-2.8,0l-0.1-3.4c0.6-0.1,1.4,0.1,2,0.1l0-0.3c0.3,0,0.9,0.2,1.1,0.2c53,1.9,94.4,33.9,124.5,72.9
			c30.7,39.8,50.1,87.2,58.6,118.6l0.5,1.9L186.4,353L186.5,351.6z"/>
	</g>
</g>
<path class="st3" d="M116,151.6c0.6-7.7-5.1-14.4-12.8-15.1c-7.7-0.6-14.4,5.1-15.1,12.8c-0.6,7.7,5.1,14.4,12.8,15.1c0,0,0,0,0,0
	C108.6,165,115.3,159.3,116,151.6C116,151.6,116,151.6,116,151.6z"/>
<path class="st6" d="M381.6,363.8c15.2-74.5,35.1-121.9,53.5-151c7.1-11.5,15.9-21.9,26.1-30.7c7.3-5.8,13.4-8.7,18.1-9.4
	c0.8-0.1,1.7,0.1,2.8,0l0.2-3.4c-0.6,0.1-1.4-0.1-2-0.1l0-0.3l-1.1,0.1c-53-2.2-96.8,26.1-130.2,62.5c-33.9,37.1-57.1,82.6-68,113.4
	l-0.6,2l101,18.4L381.6,363.8z"/>
<g class="st1">
	<g class="st1">
		
			<linearGradient id="SVGID_3_" gradientUnits="userSpaceOnUse" x1="500.2609" y1="-65.152" x2="393.9159" y2="-36.7551" gradientTransform="matrix(0.5847 0.8112 -0.8112 0.5847 88.6548 -66.4674)">
			<stop  offset="0" style="stop-color:#FFFFFF"/>
			<stop  offset="0.2264" style="stop-color:#FCFCFC"/>
			<stop  offset="0.3626" style="stop-color:#F4F4F4"/>
			<stop  offset="0.475" style="stop-color:#E6E6E6"/>
			<stop  offset="0.5744" style="stop-color:#D1D1D1"/>
			<stop  offset="0.6652" style="stop-color:#B7B7B7"/>
			<stop  offset="0.7498" style="stop-color:#979797"/>
			<stop  offset="0.8297" style="stop-color:#707070"/>
			<stop  offset="0.9057" style="stop-color:#444444"/>
			<stop  offset="0.9761" style="stop-color:#121212"/>
			<stop  offset="1" style="stop-color:#000000"/>
		</linearGradient>
		<path class="st7" d="M381.6,363.8c15.2-74.5,35.1-121.9,53.5-151c7.1-11.5,15.9-21.9,26.1-30.7c7.3-5.8,13.4-8.7,18.1-9.4
			c0.8-0.1,1.7,0.1,2.8,0l0.2-3.4c-0.6,0.1-1.4-0.1-2-0.1l0-0.3l-1.1,0.1c-53-2.2-96.8,26.1-130.2,62.5
			c-33.9,37.1-57.1,82.6-68,113.4l-0.6,2l101,18.4L381.6,363.8z"/>
	</g>
</g>
<path class="st3" d="M496.4,170.3c0-7.7-6.2-14-13.9-14s-14,6.2-14,13.9c0,7.7,6.2,14,13.9,14c0,0,0,0,0,0
	C490.1,184.2,496.4,178,496.4,170.3C496.4,170.3,496.4,170.3,496.4,170.3z"/>
<path class="st0" d="M322.8,351.6c3.3-76,15.3-126.1,29-157.4c6.8-15.8,14.1-26.9,21-34.4c6.3-6.8,11.8-10.7,16.5-12
	c0.8-0.1,1.7-0.2,2.8-0.3l-0.3-3.3l-1.9,0.2l0-0.3c-0.4,0-0.8,0.1-1.1,0.4c-52.7,6.2-91.6,41-118.6,82.1
	c-27.8,42.1-43.3,90.8-49.4,122.8l-0.4,2l102.8,2.2L322.8,351.6z"/>
<g class="st1">
	<g class="st1">
		
			<linearGradient id="SVGID_4_" gradientUnits="userSpaceOnUse" x1="459.054" y1="-13.1582" x2="340.387" y2="18.529" gradientTransform="matrix(0.5847 0.8112 -0.8112 0.5847 88.6548 -66.4674)">
			<stop  offset="0" style="stop-color:#FFFFFF"/>
			<stop  offset="0.2264" style="stop-color:#FCFCFC"/>
			<stop  offset="0.3626" style="stop-color:#F4F4F4"/>
			<stop  offset="0.475" style="stop-color:#E6E6E6"/>
			<stop  offset="0.5744" style="stop-color:#D1D1D1"/>
			<stop  offset="0.6652" style="stop-color:#B7B7B7"/>
			<stop  offset="0.7498" style="stop-color:#979797"/>
			<stop  offset="0.8297" style="stop-color:#707070"/>
			<stop  offset="0.9057" style="stop-color:#444444"/>
			<stop  offset="0.9761" style="stop-color:#121212"/>
			<stop  offset="1" style="stop-color:#000000"/>
		</linearGradient>
		<path class="st8" d="M322.8,351.6c3.3-76,15.3-126.1,29-157.4c6.8-15.8,14.1-26.9,21-34.4c6.3-6.8,11.8-10.7,16.5-12
			c0.8-0.1,1.7-0.2,2.8-0.3l-0.3-3.3l-1.9,0.2l0-0.3c-0.4,0-0.8,0.1-1.1,0.4c-52.7,6.2-91.6,41-118.6,82.1
			c-27.8,42.1-43.3,90.8-49.4,122.8l-0.4,2l102.8,2.2L322.8,351.6z"/>
	</g>
</g>
<path class="st3" d="M394.1,158.1c7.6-1.2,12.8-8.4,11.6-16c-1.2-7.6-8.4-12.8-16-11.6c-7.6,1.2-12.8,8.4-11.6,16
	C379.3,154.1,386.5,159.3,394.1,158.1C394.1,158.1,394.1,158.1,394.1,158.1z"/>
<path class="st3" d="M103.6,339.8l0,34.6l291.5,0l0-34.6L103.6,339.8z"/>
</svg>
