<?xml version="1.0" encoding="iso-8859-1"?>
<!-- Generator: Adobe Illustrator 19.0.0, SVG Export Plug-In . SVG Version: 6.00 Build 0)  -->
<svg version="1.1" id="Layer_1" xmlns="http://www.w3.org/2000/svg" xmlns:xlink="http://www.w3.org/1999/xlink" x="0px" y="0px"
	 viewBox="0 0 500 500" style="enable-background:new 0 0 500 500;" xml:space="preserve">
<g>
	<path style="fill:#21ED82;" d="M371.842,369.426c-1.116,0.604-1.988,0.405-2.823,0.405c-40.171,0.011-80.35,0.511-120.511-0.118
		c-50.428-0.791-88.242-23.735-110.542-68.963c-34.189-69.34,5.422-152.998,80.693-170.619
		c46.618-10.914,87.716,0.848,120.761,36.24c20.122,21.551,30.477,47.631,32.083,77.14c0.294,5.395,0.338,10.783,0.338,16.178
		c0.003,35.546,0.002,71.091,0.002,106.637C371.842,367.349,371.842,368.372,371.842,369.426z M322.986,321.003
		c0.047-0.891,0.106-1.484,0.106-2.077c0.002-23.635-0.004-47.271-0.003-70.906c0-3.947-0.36-7.858-0.993-11.756
		c-7.404-45.619-55.863-73.112-98.643-55.951c-35.18,14.113-53.629,51.481-43.423,87.954c8.556,30.578,36.844,52.515,68.543,52.801
		c24.147,0.218,48.298,0.058,72.447,0.06C321.602,321.129,322.183,321.056,322.986,321.003z"/>
	<path style="fill:#808D8E;" d="M47.339,114.149c3.084,2.576,6.24,4.75,9.564,6.687C17.72,184.188,8.214,251.329,31.302,322.143
		c16.486,50.562,47.951,90.347,92.387,119.389c93.35,61.011,215.123,45.755,290.64-30.803
		c78.738-79.824,88.46-204.108,25.577-294.14c-35.751-51.186-84.647-83.279-146.026-95.048
		c-61.187-11.732-118.207,0.153-171.025,33.529c-2.015-3.389-4.178-6.545-6.937-9.852c34.927-22.975,72.974-36.399,114.37-39.466
		c65.156-4.827,123.688,12.998,174.231,54.535c107.555,88.392,116.966,244.422,30.863,345.498
		c-88.159,103.49-241.877,113.79-342.66,27.882C-10.981,345.27-13.938,203.137,47.339,114.149z"/>
	<path style="fill:#21ED82;" d="M79.973,102.229c-13.56,0.046-24.484-10.852-24.496-24.437
		c-0.011-13.18,10.877-24.065,24.241-24.233c13.307-0.167,24.431,10.856,24.459,24.239
		C104.205,91.325,93.448,102.184,79.973,102.229z"/>
</g>
</svg>
