<?xml version="1.0" encoding="utf-8"?>
<!-- Generator: Adobe Illustrator 25.0.1, SVG Export Plug-In . SVG Version: 6.00 Build 0)  -->
<svg version="1.1" id="skl" xmlns="http://www.w3.org/2000/svg" xmlns:xlink="http://www.w3.org/1999/xlink" x="0px" y="0px"
	 viewBox="0 0 500 500" style="enable-background:new 0 0 500 500;" xml:space="preserve">
<path d="M0,30.5v439h406.5v-49.2H48.7V79.7h357.8V30.5H0z"/>
<path d="M446.8,199.2c0-10.4-4-19.5-12.1-27.2c-8.1-7.7-19.3-11.6-33.9-11.6c-12.3,0-22,2.5-29.2,7.7c-7.2,5.2-10.8,12-10.8,20.6
	c0,4.5,0.9,8.6,2.7,12.2s4.7,6.8,9,9.8s9.9,5.4,17,7.7c7,2.3,15.9,4.3,26.7,6.3c27.1,5,47.8,13.4,62.1,24.9
	c14.4,11.8,21.5,29,21.5,51.9v4.5c0,12.2-2.2,23.1-6.5,33.1c-4.3,9.8-10.5,18.1-18.6,25.2c-8.1,7-17.9,12.2-29.6,16.1
	c-11.7,3.6-24.7,5.7-39.3,5.7c-17,0-31.9-2.5-44.9-7.3c-13-4.8-23.8-11.6-32.3-20.2c-8.5-8.6-15.3-18.6-19.5-30.2
	c-4.5-11.6-6.7-24.3-6.7-37.9v-2.3h48.7c0,15.6,4.5,28.1,13.5,37.6c9,9.3,22.9,14.1,41.9,14.1c14.8,0,25.8-3.2,33-9.8
	c7.2-6.6,10.8-14.3,10.8-23.1c0-4.3-0.7-8.2-2.2-12.2c-1.6-3.9-4-7.3-7.9-10.4c-3.6-3.2-8.7-5.9-15.3-8.4
	c-6.5-2.5-14.6-4.5-24.5-6.3c-13-2.3-24.9-5.2-35.9-8.8c-10.8-3.6-20.2-8.4-28.3-14.3c-8.1-5.9-14.1-13.4-18.6-22.4
	c-4.5-9.1-6.7-20-6.7-32.9v-2.3c0-10.7,2.2-20.6,6.5-29.7c4.3-9.1,10.3-17,18.2-23.8s17-12,28-15.6c11-3.6,23.1-5.7,36.8-5.7
	c15.3,0,28.7,2.3,40.6,6.6c11.9,4.3,21.8,10.2,29.8,17.7c8.1,7.5,13.5,16.3,18.2,25.9c5.8,11.6,6.1,35.1,6.1,35.1L446.8,199.2z"/>
</svg>
