<?xml version="1.0" encoding="iso-8859-1"?>
<!-- Generator: Adobe Illustrator 19.0.0, SVG Export Plug-In . SVG Version: 6.00 Build 0)  -->
<svg version="1.1" id="Layer_1" xmlns="http://www.w3.org/2000/svg" xmlns:xlink="http://www.w3.org/1999/xlink" x="0px" y="0px"
	 viewBox="0 0 500 500" style="enable-background:new 0 0 500 500;" xml:space="preserve">
<path style="fill:#0076F6;" d="M241.196,53.645C187.409,170.009,133.665,286.282,79.927,402.541
	C40.369,385.9,6.43,340.813,9.838,286.251c1.967-31.492,14.487-58.388,37.44-80.247c22.96-21.866,50.593-32.321,82.34-33.298
	c1.244-41.866,18.769-74.902,52.753-99.207C201.561,59.774,230.143,52.315,241.196,53.645z M297.03,65.68
	c0.312-0.675,0.536-1.392,0.778-2.097c0.043-0.124-0.019-0.293-0.057-0.435c-0.038-0.14-0.107-0.271-0.308-0.762
	c-14.851-6.578-30.622-9.751-46.911-9.809c-3.104,6.403-162.86,350.446-162.9,353.382c12.127,5.952,37.062,9.272,48.569,7.642
	C189.877,297.488,243.457,181.586,297.03,65.68z M148.193,413.91c16.842,0,32.977,0,49.276,0
	c48.746-105.465,97.416-210.767,146.137-316.18c-9.835-12.139-21.216-22.297-35.43-29.961
	C254.72,183.428,201.566,298.431,148.193,413.91z M261.295,408.677c8.169-17.667,16.324-35.34,24.489-53.009
	c14.381-31.119,28.772-62.233,43.151-93.353c13.183-28.532,26.341-57.075,39.565-85.588c1.042-2.247,1.488-4.452,1.458-6.928
	c-0.077-6.311-0.777-12.529-1.9-18.733c-2.533-13.998-7.554-27.027-14.844-39.344c-0.37,0.441-0.739,0.731-0.914,1.11
	c-46.115,99.722-92.216,199.449-138.31,299.181c-0.122,0.264-0.144,0.58-0.176,0.876c-0.015,0.136,0.048,0.286,0.095,0.423
	c0.048,0.14,0.121,0.272,0.294,0.648c14.695,0,29.501,0,44.527,0C259.609,412.152,260.485,410.43,261.295,408.677z M319.725,413.942
	c2.783-4.136,104.185-223.879,104.984-227.659c-11.268-5.778-23.14-9.819-36.095-11.627
	c-36.663,79.366-73.24,158.544-109.791,237.734c-0.159,0.344,0.054,0.858,0.116,1.552
	C292.581,413.942,306.179,413.942,319.725,413.942z M468.94,225.035c-7.251-10.365-15.672-19.357-25.895-27.02
	c-0.504,0.876-0.916,1.481-1.219,2.136c-15.411,33.273-30.818,66.548-46.215,99.828c-10.622,22.959-21.228,45.926-31.845,68.887
	c-6.218,13.448-12.462,26.884-18.639,40.35c-0.645,1.405-1.871,2.745-1.124,4.961c12.537-0.137,25.105,0.54,37.975-0.954
	C411.044,350.321,439.987,287.689,468.94,225.035z M482.472,252.601c-23.655,51.173-47.102,101.893-70.895,153.363
	C475.625,383.789,505.521,309.622,482.472,252.601z"/>
</svg>
