<svg width="24" height="24" viewBox="0 0 24 24" fill="none" xmlns="http://www.w3.org/2000/svg">
<path d="M6.55828 14.2167C6.55828 15.2795 5.69933 16.1384 4.63656 16.1384C3.57379 16.1384 2.71484 15.2795 2.71484 14.2167C2.71484 13.1539 3.57379 12.295 4.63656 12.295H6.55828V14.2167ZM7.51914 14.2167C7.51914 13.1539 8.37809 12.295 9.44086 12.295C10.5036 12.295 11.3626 13.1539 11.3626 14.2167V19.021C11.3626 20.0838 10.5036 20.9427 9.44086 20.9427C8.37809 20.9427 7.51914 20.0838 7.51914 19.021V14.2167Z" fill="#E01E5A"/>
<path d="M9.44077 6.50072C8.378 6.50072 7.51905 5.64177 7.51905 4.579C7.51905 3.51624 8.378 2.65729 9.44077 2.65729C10.5035 2.65729 11.3625 3.51624 11.3625 4.579V6.50072H9.44077ZM9.44077 7.47614C10.5035 7.47614 11.3625 8.33508 11.3625 9.39785C11.3625 10.4606 10.5035 11.3196 9.44077 11.3196H4.62191C3.55915 11.3196 2.7002 10.4606 2.7002 9.39785C2.7002 8.33508 3.55915 7.47614 4.62191 7.47614H9.44077Z" fill="#36C5F0"/>
<path d="M17.1422 9.39785C17.1422 8.33508 18.0011 7.47614 19.0639 7.47614C20.1267 7.47614 20.9856 8.33508 20.9856 9.39785C20.9856 10.4606 20.1267 11.3196 19.0639 11.3196H17.1422V9.39785ZM16.1813 9.39785C16.1813 10.4606 15.3224 11.3196 14.2596 11.3196C13.1968 11.3196 12.3379 10.4606 12.3379 9.39785V4.579C12.3379 3.51624 13.1968 2.65729 14.2596 2.65729C15.3224 2.65729 16.1813 3.51624 16.1813 4.579V9.39785Z" fill="#2EB67D"/>
<path d="M14.2596 17.0993C15.3224 17.0993 16.1813 17.9582 16.1813 19.021C16.1813 20.0838 15.3224 20.9427 14.2596 20.9427C13.1968 20.9427 12.3379 20.0838 12.3379 19.021V17.0993H14.2596ZM14.2596 16.1384C13.1968 16.1384 12.3379 15.2795 12.3379 14.2167C12.3379 13.1539 13.1968 12.295 14.2596 12.295H19.0785C20.1412 12.295 21.0002 13.1539 21.0002 14.2167C21.0002 15.2795 20.1412 16.1384 19.0785 16.1384H14.2596Z" fill="#ECB22E"/>
</svg>
