<svg width="56" height="56" viewBox="0 0 56 56" fill="none" xmlns="http://www.w3.org/2000/svg">
<path d="M14.3792 18.6503L19.1687 18.0102L22.3767 16.3233C22.3767 16.3233 26.3906 17.0764 22.3165 13.311C19.8238 11.0142 18.0842 11.2853 14.1984 8.39351C11.2539 6.19456 10.0867 4.77879 8.46758 4.84657C6.93885 7.61786 13.3399 16.1652 14.3792 18.6503Z" fill="url(#paint0_linear_20230_43539)"/>
<path d="M7.71898 26.2035C7.71898 26.2035 4.59375 23.1009 5.45978 15.6154C5.82044 11.9842 6.73207 8.42913 8.16329 5.07246C8.2006 4.99982 8.25892 4.9401 8.33066 4.90107C8.40239 4.86204 8.48421 4.84552 8.56547 4.85364C8.64672 4.86177 8.72365 4.89417 8.78624 4.94663C8.84882 4.99909 8.89416 5.06917 8.91635 5.14776C9.56399 7.5877 15.0614 11.3606 18.0511 16.4438L7.71898 26.2035Z" fill="url(#paint1_linear_20230_43539)"/>
<path d="M47.6908 4.85395C46.0642 4.78618 44.9044 6.20194 41.9524 8.4009C38.0741 11.2927 36.3345 11.0517 33.8419 13.3109C29.7301 17.0762 33.7515 16.3232 33.7515 16.3232L36.9521 18.0251L41.7491 18.6652C42.7883 16.165 49.1894 7.61771 47.6908 4.85395Z" fill="url(#paint2_linear_20230_43539)"/>
<path d="M38.0742 16.4364C41.0865 11.3682 46.5613 7.59538 47.2089 5.14038C47.2311 5.06179 47.2765 4.9917 47.339 4.93924C47.4016 4.88678 47.4786 4.85438 47.5598 4.84626C47.6411 4.83813 47.7229 4.85466 47.7946 4.89369C47.8664 4.93271 47.9247 4.99243 47.962 5.06507C49.3901 8.42279 50.3016 11.9774 50.6655 15.608C51.5315 23.0935 48.4063 26.1961 48.4063 26.1961L38.0742 16.4364Z" fill="url(#paint3_linear_20230_43539)"/>
<path d="M49.152 46.6193C58.9419 35.3233 42.7133 12.1816 28.2921 12.6636C22.8323 12.2644 10.0076 17.4455 5.92597 29.6603C-5.67126 56.3716 38.4509 59.5947 49.152 46.6193Z" fill="url(#paint4_radial_20230_43539)"/>
<path d="M37.7138 31.0983C40.7915 31.0983 43.2865 28.9034 43.2865 26.1958C43.2865 23.4882 40.7915 21.2933 37.7138 21.2933C34.6361 21.2933 32.1411 23.4882 32.1411 26.1958C32.1411 28.9034 34.6361 31.0983 37.7138 31.0983Z" fill="url(#paint5_radial_20230_43539)"/>
<path d="M18.4125 31.0983C21.4903 31.0983 23.9852 28.9034 23.9852 26.1958C23.9852 23.4882 21.4903 21.2933 18.4125 21.2933C15.3348 21.2933 12.8398 23.4882 12.8398 26.1958C12.8398 28.9034 15.3348 31.0983 18.4125 31.0983Z" fill="url(#paint6_radial_20230_43539)"/>
<path d="M29.9865 36.4907C29.6069 36.5086 29.2333 36.3912 28.9322 36.1593C28.683 35.943 28.5288 35.6373 28.5029 35.3083V33.5763C28.5029 33.545 28.5092 33.514 28.5214 33.4852C28.5336 33.4563 28.5515 33.4303 28.5739 33.4085C28.5964 33.3867 28.6231 33.3697 28.6523 33.3584C28.6815 33.3471 28.7126 33.3418 28.7439 33.3428C28.8065 33.3428 28.8667 33.3672 28.9117 33.4107C28.9567 33.4543 28.9829 33.5137 28.9849 33.5763V35.3008C29.0052 35.4943 29.0997 35.6724 29.2485 35.7978C29.4089 35.9033 29.5893 35.9744 29.7785 36.0068C29.9677 36.0392 30.1616 36.0322 30.3479 35.9861C30.7597 35.9211 31.132 35.704 31.3914 35.3777C31.6508 35.0514 31.7783 34.6397 31.7486 34.2239C31.7466 34.1612 31.769 34.1002 31.8112 34.0538C31.8534 34.0074 31.912 33.9793 31.9746 33.9754C32.0065 33.9695 32.0395 33.971 32.0707 33.9799C32.102 33.9888 32.1308 34.0048 32.1549 34.0267C32.1789 34.0486 32.1976 34.0757 32.2095 34.106C32.2213 34.1363 32.226 34.1689 32.2231 34.2013C32.2631 34.7366 32.099 35.2672 31.7636 35.6863C31.4283 36.1055 30.9467 36.3821 30.4157 36.4605C30.2736 36.4813 30.1301 36.4913 29.9865 36.4907Z" fill="#051140"/>
<path d="M27.2742 36.4902C27.1338 36.5011 26.9928 36.5011 26.8525 36.4902C26.3201 36.4135 25.8367 36.1376 25.4998 35.7183C25.1629 35.2989 24.9977 34.7674 25.0376 34.231C25.0415 34.1684 25.0696 34.1098 25.116 34.0676C25.1624 34.0254 25.2234 34.003 25.2861 34.0051C25.3493 34.0089 25.4088 34.0368 25.4522 34.083C25.4955 34.1292 25.5197 34.1902 25.5195 34.2536C25.4917 34.669 25.6198 35.0798 25.8789 35.4057C26.1379 35.7316 26.5093 35.9492 26.9202 36.0158C27.1066 36.0614 27.3004 36.0682 27.4895 36.0358C27.6787 36.0034 27.8591 35.9325 28.0197 35.8275C28.1702 35.7003 28.2648 35.5191 28.2833 35.3229V33.5758C28.2833 33.5119 28.3087 33.4506 28.3539 33.4054C28.3991 33.3602 28.4604 33.3348 28.5243 33.3348C28.5882 33.3348 28.6495 33.3602 28.6947 33.4054C28.7399 33.4506 28.7653 33.5119 28.7653 33.5758V35.3003C28.7552 35.4642 28.7127 35.6244 28.6403 35.7718C28.5679 35.9191 28.4671 36.0507 28.3435 36.1588C28.0384 36.3941 27.6589 36.5117 27.2742 36.4902Z" fill="#051140"/>
<path d="M31.417 32.1374C31.2137 31.5651 30.8296 31.4295 28.593 31.4295C26.3564 31.4295 25.9799 31.5651 25.7766 32.1374C25.5732 32.7097 26.0853 33.1917 28.593 33.7941C31.0932 33.1917 31.5827 32.6495 31.417 32.1374Z" fill="url(#paint7_radial_20230_43539)"/>
<path d="M29.1461 32.4467C29.5754 32.4467 29.8992 32.2961 29.8992 32.1079C29.8992 31.9196 29.5528 31.769 29.1461 31.769C28.7395 31.769 28.3931 31.9196 28.3931 32.1079C28.3931 32.2961 28.7169 32.4467 29.1461 32.4467Z" fill="white"/>
<path d="M18.552 29.1856C16.6217 29.255 14.7277 28.6477 13.1977 27.4686C13.17 27.4444 13.1474 27.4149 13.1311 27.3819C13.1148 27.3489 13.1051 27.3131 13.1027 27.2764C13.1002 27.2396 13.105 27.2028 13.1168 27.168C13.1286 27.1331 13.1471 27.1009 13.1714 27.0732C13.1956 27.0455 13.225 27.0229 13.258 27.0066C13.291 26.9903 13.3269 26.9806 13.3636 26.9782C13.4003 26.9757 13.4371 26.9805 13.472 26.9923C13.5069 27.0041 13.539 27.0226 13.5667 27.0469C14.9966 28.132 16.7583 28.6882 18.552 28.6208C20.3459 28.6894 22.1081 28.1331 23.5373 27.0469C23.5933 26.9979 23.6663 26.9732 23.7405 26.9782C23.8146 26.9831 23.8838 27.0173 23.9327 27.0732C23.9816 27.1291 24.0063 27.2022 24.0014 27.2764C23.9965 27.3505 23.9623 27.4196 23.9063 27.4686C22.3763 28.6477 20.4824 29.255 18.552 29.1856Z" fill="#051140"/>
<path d="M37.5894 29.1859C35.659 29.2553 33.7651 28.648 32.2351 27.4689C32.2084 27.4429 32.1872 27.4119 32.1728 27.3776C32.1583 27.3434 32.1509 27.3065 32.1509 27.2693C32.1509 27.2321 32.1583 27.1953 32.1728 27.161C32.1872 27.1268 32.2084 27.0957 32.2351 27.0698C32.2885 27.0178 32.3601 26.9887 32.4346 26.9887C32.5092 26.9887 32.5808 27.0178 32.6342 27.0698C34.0635 28.156 35.8256 28.7124 37.6195 28.6437C39.4132 28.7111 41.1749 28.1549 42.6048 27.0698C42.6607 27.0208 42.7338 26.9961 42.8079 27.0011C42.8821 27.006 42.9512 27.0402 43.0001 27.0961C43.0491 27.1521 43.0738 27.2251 43.0689 27.2993C43.0639 27.3734 43.0297 27.4426 42.9738 27.4915C41.4327 28.6692 39.5272 29.2689 37.5894 29.1859Z" fill="#051140"/>
<path d="M28.1533 23.2213C31.8507 23.2213 34.848 20.2239 34.848 16.5265C34.848 12.8291 31.8507 9.83173 28.1533 9.83173C24.4558 9.83173 21.4585 12.8291 21.4585 16.5265C21.4585 20.2239 24.4558 23.2213 28.1533 23.2213Z" fill="url(#paint8_radial_20230_43539)"/>
<path d="M27.7873 19.9456C30.3493 19.9456 32.4262 17.8687 32.4262 15.3067C32.4262 12.7447 30.3493 10.6678 27.7873 10.6678C25.2253 10.6678 23.1484 12.7447 23.1484 15.3067C23.1484 17.8687 25.2253 19.9456 27.7873 19.9456Z" fill="url(#paint9_radial_20230_43539)"/>
<path d="M27.7884 16.7227C30.0177 16.7227 31.8248 14.9155 31.8248 12.6862C31.8248 10.457 30.0177 8.64978 27.7884 8.64978C25.5591 8.64978 23.752 10.457 23.752 12.6862C23.752 14.9155 25.5591 16.7227 27.7884 16.7227Z" fill="url(#paint10_radial_20230_43539)"/>
<path d="M27.7851 13.7701C29.6816 13.7701 31.219 12.2327 31.219 10.3361C31.219 8.43961 29.6816 6.90216 27.7851 6.90216C25.8885 6.90216 24.3511 8.43961 24.3511 10.3361C24.3511 12.2327 25.8885 13.7701 27.7851 13.7701Z" fill="url(#paint11_radial_20230_43539)"/>
<path d="M27.7881 11.0895C29.3519 11.0895 30.6196 9.8218 30.6196 8.25799C30.6196 6.69417 29.3519 5.42645 27.7881 5.42645C26.2243 5.42645 24.9565 6.69417 24.9565 8.25799C24.9565 9.8218 26.2243 11.0895 27.7881 11.0895Z" fill="url(#paint12_radial_20230_43539)"/>
<path d="M27.7886 7.8663C29.0197 7.8663 30.0177 6.86831 30.0177 5.63722C30.0177 4.40613 29.0197 3.40814 27.7886 3.40814C26.5576 3.40814 25.5596 4.40613 25.5596 5.63722C25.5596 6.86831 26.5576 7.8663 27.7886 7.8663Z" fill="url(#paint13_radial_20230_43539)"/>
<path d="M27.7853 5.25325C28.6837 5.25325 29.4119 4.52498 29.4119 3.62662C29.4119 2.72826 28.6837 2 27.7853 2C26.887 2 26.1587 2.72826 26.1587 3.62662C26.1587 4.52498 26.887 5.25325 27.7853 5.25325Z" fill="url(#paint14_radial_20230_43539)"/>
<path d="M28.1129 44.9924C36.6752 44.9924 43.6185 46.9203 43.6185 49.3C43.6185 51.6797 36.6752 53.6075 28.1129 53.6075C19.5505 53.6075 12.6147 51.7173 12.6147 49.3C12.6147 46.8826 19.558 44.9924 28.1129 44.9924Z" fill="url(#paint15_radial_20230_43539)"/>
<defs>
<linearGradient id="paint0_linear_20230_43539" x1="14.575" y1="12.558" x2="17.1881" y2="9.28213" gradientUnits="userSpaceOnUse">
<stop stop-color="#9EAAEA"/>
<stop offset="0.14" stop-color="#8192DF"/>
<stop offset="0.3" stop-color="#5066C9"/>
<stop offset="0.44" stop-color="#233EB4"/>
<stop offset="0.52" stop-color="#0D2AAC"/>
<stop offset="1" stop-color="#FF6CD0"/>
</linearGradient>
<linearGradient id="paint1_linear_20230_43539" x1="16.8236" y1="14.9075" x2="7.91477" y2="15.5401" gradientUnits="userSpaceOnUse">
<stop stop-color="#2525C6"/>
<stop offset="1" stop-color="#4D91EE"/>
</linearGradient>
<linearGradient id="paint2_linear_20230_43539" x1="39.264" y1="14.4404" x2="35.8752" y2="11.0516" gradientUnits="userSpaceOnUse">
<stop stop-color="#9EAAEA"/>
<stop offset="0.14" stop-color="#8192DF"/>
<stop offset="0.3" stop-color="#5066C9"/>
<stop offset="0.44" stop-color="#233EB4"/>
<stop offset="0.52" stop-color="#0D2AAC"/>
<stop offset="1" stop-color="#FF6CD0"/>
</linearGradient>
<linearGradient id="paint3_linear_20230_43539" x1="40.3937" y1="13.6876" x2="48.6775" y2="14.8172" gradientUnits="userSpaceOnUse">
<stop stop-color="#2525C6"/>
<stop offset="1" stop-color="#4D91EE"/>
</linearGradient>
<radialGradient id="paint4_radial_20230_43539" cx="0" cy="0" r="1" gradientUnits="userSpaceOnUse" gradientTransform="translate(28.3445 34.3969) rotate(90) scale(20.3328 29.9267)">
<stop stop-color="#B2E5F5"/>
<stop offset="0.251083" stop-color="#A2D5FC"/>
<stop offset="0.56" stop-color="#66AFF9"/>
<stop offset="0.78" stop-color="#4593E3"/>
<stop offset="0.91" stop-color="#3389E2"/>
<stop offset="1" stop-color="#9CFFFC"/>
</radialGradient>
<radialGradient id="paint5_radial_20230_43539" cx="0" cy="0" r="1" gradientUnits="userSpaceOnUse" gradientTransform="translate(36.8628 27.7439) scale(4.16446 5.95518)">
<stop stop-color="#65AEF8" stop-opacity="0.5"/>
<stop offset="0.26" stop-color="#6BB2F9" stop-opacity="0.33"/>
<stop offset="0.58" stop-color="#72B6F9" stop-opacity="0.15"/>
<stop offset="0.83" stop-color="#76B9FA" stop-opacity="0.04"/>
<stop offset="0.98" stop-color="#77BAFA" stop-opacity="0"/>
</radialGradient>
<radialGradient id="paint6_radial_20230_43539" cx="0" cy="0" r="1" gradientUnits="userSpaceOnUse" gradientTransform="translate(15736.5 -57.0072) rotate(180) scale(61.634 77.5364)">
<stop stop-color="#65AEF8" stop-opacity="0.5"/>
<stop offset="0.26" stop-color="#6BB2F9" stop-opacity="0.33"/>
<stop offset="0.58" stop-color="#72B6F9" stop-opacity="0.15"/>
<stop offset="0.83" stop-color="#76B9FA" stop-opacity="0.04"/>
<stop offset="0.98" stop-color="#77BAFA" stop-opacity="0"/>
</radialGradient>
<radialGradient id="paint7_radial_20230_43539" cx="0" cy="0" r="1" gradientUnits="userSpaceOnUse" gradientTransform="translate(28.7207 34.02) rotate(-63.435) scale(2.52586 3.24466)">
<stop offset="0.47" stop-color="#051140"/>
<stop offset="1" stop-color="#FF6CD0"/>
</radialGradient>
<radialGradient id="paint8_radial_20230_43539" cx="0" cy="0" r="1" gradientUnits="userSpaceOnUse" gradientTransform="translate(29.5991 17.3021) scale(5.20369)">
<stop stop-color="#2F42D0"/>
<stop offset="1" stop-color="#3684A6" stop-opacity="0"/>
</radialGradient>
<radialGradient id="paint9_radial_20230_43539" cx="0" cy="0" r="1" gradientUnits="userSpaceOnUse" gradientTransform="translate(27.8325 17.7617) scale(4.20964)">
<stop stop-color="white"/>
<stop offset="1" stop-color="#FFB9D7"/>
</radialGradient>
<radialGradient id="paint10_radial_20230_43539" cx="0" cy="0" r="1" gradientUnits="userSpaceOnUse" gradientTransform="translate(28.0218 14.8701) scale(4.03644)">
<stop stop-color="white"/>
<stop offset="1" stop-color="#FFC0E1"/>
</radialGradient>
<radialGradient id="paint11_radial_20230_43539" cx="0" cy="0" r="1" gradientUnits="userSpaceOnUse" gradientTransform="translate(27.8453 11.8272) scale(3.43398)">
<stop stop-color="white"/>
<stop offset="1" stop-color="#FFCCDC"/>
</radialGradient>
<radialGradient id="paint12_radial_20230_43539" cx="0" cy="0" r="1" gradientUnits="userSpaceOnUse" gradientTransform="translate(27.9086 9.28216) scale(2.83153)">
<stop stop-color="white"/>
<stop offset="1" stop-color="#FFCCDE"/>
</radialGradient>
<radialGradient id="paint13_radial_20230_43539" cx="0" cy="0" r="1" gradientUnits="userSpaceOnUse" gradientTransform="translate(27.9091 6.45053) scale(2.22908)">
<stop stop-color="white"/>
<stop offset="1" stop-color="#FFCCD5"/>
</radialGradient>
<radialGradient id="paint14_radial_20230_43539" cx="0" cy="0" r="1" gradientUnits="userSpaceOnUse" gradientTransform="translate(27.8154 4.04834) scale(1.62662)">
<stop stop-color="white"/>
<stop offset="1" stop-color="#FFCCC8"/>
</radialGradient>
<radialGradient id="paint15_radial_20230_43539" cx="0" cy="0" r="1" gradientUnits="userSpaceOnUse" gradientTransform="translate(29.0991 49.4582) rotate(1.36393) scale(15.8189 4.17443)">
<stop offset="0.32" stop-color="#9CFFFC"/>
<stop offset="0.33" stop-color="#9BFEFC" stop-opacity="0.98"/>
<stop offset="0.52" stop-color="#88ECF9" stop-opacity="0.64"/>
<stop offset="0.69" stop-color="#78DEF7" stop-opacity="0.37"/>
<stop offset="0.84" stop-color="#6DD4F5" stop-opacity="0.17"/>
<stop offset="0.94" stop-color="#67CDF4" stop-opacity="0.05"/>
<stop offset="1" stop-color="#64CBF4" stop-opacity="0"/>
</radialGradient>
</defs>
</svg>
