<?xml version="1.0" encoding="utf-8"?>
<!-- Generator: Adobe Illustrator 23.0.2, SVG Export Plug-In . SVG Version: 6.00 Build 0)  -->
<svg version="1.1" id="slt" xmlns="http://www.w3.org/2000/svg" xmlns:xlink="http://www.w3.org/1999/xlink" x="0px" y="0px"
	 viewBox="0 0 500 500" style="enable-background:new 0 0 500 500;" xml:space="preserve">
<style type="text/css">
	.st0{fill:#3BB46C;}
</style>
<title>Asset 1</title>
<path class="st0" d="M408.6,77.9L299.2,14.7c-28.7-16.5-64.1-16.5-92.8,0L96.9,77.9c-28.7,16.6-46.4,47.3-46.4,80.4v126.2
	c0.1,33.1,17.7,63.8,46.4,80.4l109.4,63.3c9.5,5.5,20,9.2,30.8,11v58.5h34.2v-59c9.8-2,19.2-5.5,27.8-10.5L408.6,365
	c28.7-16.6,46.4-47.3,46.4-80.5V158.3C454.9,125.1,437.3,94.5,408.6,77.9z M223.5,44.4c18.1-10.4,40.5-10.4,58.6,0l22.8,13.2
	l-86.2,55.6c-8.2,4.6-11.1,15.1-6.5,23.3c4.6,8.2,15.1,11.1,23.3,6.5c0.6-0.3,1.2-0.7,1.7-1.1l101-65.1l53.3,30.8
	c3.9,2.3,7.5,5,10.8,8l-106,68.4c-24.3-23.4-62.7-23.4-87,0l-106-68.4c3.3-3.1,6.9-5.8,10.8-8L223.5,44.4z M252.7,258.1
	c-15.9,0.1-29-12.7-29.1-28.6c-0.1-15.9,12.7-29,28.6-29.1c15.9-0.1,29,12.7,29.1,28.6c0,0.1,0,0.1,0,0.2l0,0
	c0,16-12.9,28.9-28.8,29c0,0,0,0,0,0l0,0L252.7,258.1z M223.5,398.6L114,335.4c-18.1-10.5-29.3-29.9-29.3-50.9v-14.3l94.4,60.8
	c7.6,5.6,18.3,3.9,23.9-3.7c5.6-7.6,3.9-18.3-3.7-23.9c-0.5-0.4-1.1-0.8-1.7-1.1L84.7,229.5v-71.2c0-4.3,0.5-8.6,1.5-12.8
	l105.6,68.1c-8.9,33.4,10.9,67.8,44.4,76.7l0.9,0.3v113.7C232.4,402.9,227.8,401,223.5,398.6z M420.8,284.5
	c0,21-11.1,40.4-29.3,50.9l-109.4,63.2c-3.4,2-7,3.6-10.7,4.8V289.6c32.4-9.9,51.1-43.6,42.3-76.3l105.6-68.1
	c1,4.2,1.5,8.5,1.5,12.8L420.8,284.5z"/>
</svg>
