<?xml version="1.0" encoding="iso-8859-1"?>
<!-- Generator: Adobe Illustrator 19.0.0, SVG Export Plug-In . SVG Version: 6.00 Build 0)  -->
<svg version="1.1" id="Layer_1" xmlns="http://www.w3.org/2000/svg" xmlns:xlink="http://www.w3.org/1999/xlink" x="0px" y="0px"
	 viewBox="0 0 500 500" style="enable-background:new 0 0 500 500;" xml:space="preserve">
<path d="M35.423,373.019c0-82.33,0-164.743,0-247.803C106.327,84.077,177.787,42.615,249.51,1
	c71.559,41.126,143.212,82.306,215.091,123.617c0,82.543,0,165.049,0,247.887c-71.123,41.267-142.532,82.699-214.015,124.175
	C178.958,455.512,107.366,414.366,35.423,373.019z M250.608,479.52c66.488-38.571,132.876-77.084,198.981-115.432
	c0-77.189,0-154.078,0-230.885C382.65,94.718,316.048,56.426,249.482,18.155C182.859,56.805,116.475,95.317,50.416,133.64
	c0,77.241,0,154.049,0,230.883C117.276,402.93,183.898,441.2,250.608,479.52z"/>
<path style="fill:#FFC80D;" d="M250.608,479.52c-66.71-38.32-133.332-76.591-200.192-114.997c0-76.834,0-153.643,0-230.883
	c66.059-38.323,132.443-76.834,199.066-115.485c66.566,38.271,133.167,76.562,200.107,115.048c0,76.807,0,153.695,0,230.885
	C383.484,402.437,317.096,440.949,250.608,479.52z M163.07,126.616c-0.11,1.094-0.248,1.83-0.248,2.567
	c-0.012,15.552-0.062,31.104,0.079,46.654c0.013,1.484,0.884,3.311,1.953,4.384c20.692,20.771,41.473,41.452,62.232,62.156
	c0.694,0.692,1.341,1.431,2.106,2.251c-0.848,0.888-1.473,1.571-2.127,2.225c-21.284,21.257-42.59,42.493-63.801,63.822
	c-1.052,1.057-1.817,2.92-1.827,4.414c-0.123,18.525-0.085,37.051-0.072,55.577c0.001,0.9,0.152,1.799,0.272,3.135
	c22.837,0,45.458,0,68.476,0c0,6.175,0,11.9,0,17.819c11.462,0,22.519,0,34.003,0c0-6.12,0-12.01,0-18.355
	c21.848,0,43.274,0,64.748,0c0-16.87,0-33.27,0-49.843c-34.6-0.382-68.875-0.76-103.983-1.148
	c25.54-25.505,50.532-50.464,75.744-75.641c-23.148-23.128-45.843-45.803-68.538-68.479c0.143-0.259,0.285-0.517,0.428-0.776
	c31.22,0,62.439,0,93.791,0c0-17.188,0-34.021,0-51.19c-19.695,0-39.109,0-59.039,0c0-6.869,0-13.413,0-20.038
	c-11.778,0-23.038,0-34.827,0c0,6.828,0,13.464,0,20.465C209.02,126.616,186.128,126.616,163.07,126.616z"/>
<path d="M163.07,126.616c23.058,0,45.95,0,69.37,0c0-7.001,0-13.637,0-20.465c11.79,0,23.049,0,34.827,0c0,6.624,0,13.169,0,20.038
	c19.93,0,39.344,0,59.039,0c0,17.169,0,34.002,0,51.19c-31.352,0-62.572,0-93.791,0c-0.143,0.259-0.285,0.517-0.428,0.776
	c22.695,22.675,45.39,45.351,68.538,68.479c-25.212,25.178-50.204,50.136-75.744,75.641c35.108,0.388,69.383,0.766,103.983,1.148
	c0,16.573,0,32.973,0,49.843c-21.474,0-42.9,0-64.748,0c0,6.345,0,12.235,0,18.355c-11.484,0-22.541,0-34.003,0
	c0-5.919,0-11.644,0-17.819c-23.018,0-45.639,0-68.476,0c-0.12-1.336-0.272-2.235-0.272-3.135
	c-0.013-18.526-0.051-37.052,0.072-55.577c0.01-1.494,0.776-3.356,1.827-4.414c21.212-21.329,42.517-42.565,63.801-63.822
	c0.654-0.654,1.28-1.337,2.127-2.225c-0.765-0.82-1.412-1.559-2.106-2.251c-20.758-20.704-41.54-41.386-62.232-62.156
	c-1.069-1.073-1.94-2.9-1.953-4.384c-0.141-15.55-0.091-31.102-0.079-46.654C162.823,128.446,162.961,127.709,163.07,126.616z"/>
</svg>
