<?xml version="1.0" encoding="iso-8859-1"?>
<!-- Generator: Adobe Illustrator 19.0.0, SVG Export Plug-In . SVG Version: 6.00 Build 0)  -->
<svg version="1.1" id="Layer_1" xmlns="http://www.w3.org/2000/svg" xmlns:xlink="http://www.w3.org/1999/xlink" x="0px" y="0px"
	 viewBox="0 0 500 500" enable-background="new 0 0 500 500" xml:space="preserve">
<path d="M494.744,76.112c-4.308,17.514-8.204,33.355-12.196,49.587c-2.147,0.232-4.199,0.648-6.249,0.642
	c-10.859-0.034-19.077,4.913-23.312,14.566c-5.222,11.903-9.86,24.161-13.521,36.626c-5.298,18.039-9.515,36.397-14.119,54.637
	c-0.418,1.657-0.297,3.45-0.482,5.92c3.625-1.989,6.524-3.58,9.477-5.201c17.233,0,34.511,0,52.954,0
	c-1.99,14.228-6.314,27.314-9.741,41.212c-20.569,0-40.875,0-61.726,0c-1.997,8.081-3.674,15.724-5.785,23.246
	c-5.981,21.315-11.772,42.696-18.348,63.83c-5.087,16.35-13.733,30.986-23.798,44.864c-25.257,34.825-73.552,28.784-94.436,1.307
	c-9.682-12.738-16.824-26.71-22.199-41.626c-12.268-34.041-20.468-69.225-29.067-104.303c-8.38-34.186-17.016-68.31-25.782-102.399
	c-1.729-6.724-4.312-13.267-6.958-19.706c-2.101-5.115-5.08-9.755-11.547-11.045c-6.363,1.451-8.851,6.952-10.694,12.28
	c-4.556,13.172-9.178,26.385-12.564,39.885c-10.041,40.033-19.283,80.267-29.259,120.317c-6.376,25.596-12.193,51.5-23.941,75.311
	c-5.6,11.351-12.603,22.188-20.213,32.325c-10.166,13.541-24.326,20.916-41.481,21.433c-11.202,0.338-22.423,0.064-34.757,0.064
	c2.411-16.726,7.652-32.43,11.331-49.005c1.976-0.268,3.988-0.69,6.016-0.792c10.619-0.538,18.83-5.214,23.302-14.89
	c4.185-9.053,8.253-18.293,11.02-27.842c6.246-21.556,11.663-43.352,17.379-65.06c0.215-0.818,0.027-1.742,0.027-3.744
	c-3.629,1.904-6.638,3.482-10.061,5.278c-16.775,0-34.041,0-52.748,0c3.397-14.053,6.625-27.405,9.952-41.168
	c20.737,0,40.752,0,61.662,0c2.077-8.161,3.883-16.042,6.096-23.808c6.563-23.033,12.891-46.144,20.09-68.979
	c4.498-14.267,12.447-26.919,21.248-39.059c26.547-36.618,75.022-29.787,96.632,0.001c12.33,16.997,20.631,35.862,26.077,55.829
	c10.855,39.806,20.783,79.864,31.139,119.807c6.7,25.841,13.354,51.695,20.329,77.462c1.491,5.509,3.786,10.944,6.581,15.925
	c5.565,9.92,13.337,10.252,18.241,0.228c4.765-9.74,8.663-20.117,11.347-30.622c9.539-37.332,18.112-74.909,27.609-112.252
	c6.726-26.447,13.966-52.78,21.716-78.945c5.034-16.998,13.71-32.367,24.34-46.611c12.916-17.309,29.887-26.141,51.66-25.564
	C475.067,76.313,484.161,76.112,494.744,76.112z"/>
</svg>
