<?xml version="1.0" encoding="utf-8"?>
<!-- Generator: Adobe Illustrator 21.0.0, SVG Export Plug-In . SVG Version: 6.00 Build 0)  -->
<svg version="1.1" id="Laag_1" xmlns="http://www.w3.org/2000/svg" xmlns:xlink="http://www.w3.org/1999/xlink" x="0px" y="0px"
	 viewBox="0 0 192.3 110" style="enable-background:new 0 0 192.3 110;" xml:space="preserve">
<style type="text/css">
	.st0{fill:#AA0E20;}
</style>
<title>sngls</title>
<polygon class="st0" points="113.3,61.6 96.2,94.8 74,52.7 74,52.6 69.5,44.4 64.6,52.7 96.2,110 127.8,52.7 122.8,44.4 "/>
<polygon class="st0" points="96.2,0 92.3,6.2 74.4,36.2 78.9,44.8 96.2,17.3 113.1,44.8 117.7,35.8 102.7,10.6 "/>
<path class="st0" d="M96.2,16.3C43.1,16.3,0,55.9,0,56s43.1,39.7,96.2,39.7S192.3,56,192.3,56S149.2,16.3,96.2,16.3z M96.2,86.8
	C54.8,86.8,8.1,56,8.1,56s46.7-30.9,88.1-30.9s88.1,30.1,88.1,30.9S137.5,86.8,96.2,86.8L96.2,86.8z"/>
</svg>
