<?xml version="1.0" encoding="iso-8859-1"?>
<!-- Generator: Adobe Illustrator 19.0.0, SVG Export Plug-In . SVG Version: 6.00 Build 0)  -->
<svg version="1.1" id="Layer_1" xmlns="http://www.w3.org/2000/svg" xmlns:xlink="http://www.w3.org/1999/xlink" x="0px" y="0px"
	 viewBox="0 0 500 500" style="enable-background:new 0 0 500 500;" xml:space="preserve">
<path d="M252.233,8c132.361,0.69,241.411,108.078,241.023,243.139c-0.386,134.078-108.968,241.748-241.676,241.535
	c-132.404-0.212-241.425-107.992-241.04-243.015C10.922,115.286,119.83,8.343,252.233,8z M352.615,276.598
	c43.383,0.93,84.069-35.024,84.25-84.165c0.17-46.238-38.187-84.582-84.455-84.124c-49.954,0.495-83.755,41.606-83.835,83.946
	C268.485,239.387,307.855,277.478,352.615,276.598z M150.741,276.598c44.859,1.089,84.32-36.854,84.482-83.893
	c0.145-42.173-33.266-83.654-83.376-84.384c-46.223-0.673-84.93,37.68-84.922,83.714
	C66.934,241.662,107.738,277.335,150.741,276.598z M335.66,368.989c1.138-43.212-34.569-84.4-83.68-84.488
	c-49.847-0.09-84.196,41.764-84.052,84.257c0.154,45.453,37.662,83.835,83.436,84.114
	C297.719,453.154,336.304,414.436,335.66,368.989z M252.25,111.623c17.212-0.137,31.172-14.219,31.191-31.466
	c0.02-17.441-14.577-31.963-31.899-31.735c-17.065,0.225-31.171,14.533-31.19,31.638C220.332,97.647,234.599,111.764,252.25,111.623
	z M104.937,367.142c17.243,0.019,31.39-14.108,31.278-31.236c-0.111-17.106-14.35-30.972-31.686-30.857
	c-16.846,0.111-30.759,13.982-30.938,30.842C73.411,352.89,87.687,367.122,104.937,367.142z M398.847,367.14
	c17.247-0.053,31.6-14.391,31.356-31.319c-0.248-17.146-14.525-30.91-31.91-30.762c-16.885,0.144-30.719,14.039-30.782,30.918
	C367.447,353.187,381.532,367.194,398.847,367.14z M432.817,256.457c19.389-2.832,26.282,0.404,34.374,15.768
	c6.946-23.466-1.743-83.341-15.681-105.736C459.435,199.919,452.885,229.5,432.817,256.457z M50.205,170.187
	c-13.788,33.04-18.352,67.021-14.296,102.448c7.001-15.692,18.742-20.583,35.688-15.585
	C51.074,230.495,45.127,201.673,50.205,170.187z M337.538,90.463c3.386,0,5.232,0.101,7.064-0.015
	c28.089-1.787,52.993,6.121,74.543,24.358c0.754,0.638,1.889,0.825,2.847,1.223c-20.774-27.742-46.737-48.572-78.251-62.871
	C351.265,66.772,350.422,78.9,337.538,90.463z M160.004,53.602c-22.582,6.164-74.387,48.207-79.16,64.569
	c24.47-22.252,52.98-30.94,85.893-26.884C153.528,77.633,152.469,71.282,160.004,53.602z M286.377,271.087
	c-17.873-15.966-28.937-35.615-34.397-60.246c-1.545,5.396-2.463,9.029-3.636,12.578c-1.262,3.819-2.593,7.634-4.212,11.311
	c-1.511,3.433-3.292,6.771-5.222,9.99c-1.931,3.22-4.06,6.343-6.346,9.322c-2.45,3.193-5.115,6.23-7.815,9.219
	c-2.308,2.556-4.798,4.947-7.208,7.411c11.874-2.099,23.07-4.341,34.718-4.386C263.837,266.243,274.918,268.967,286.377,271.087z
	 M155.815,405.745c-1.961,7.059-4.941,12.817-10.641,17.071c-5.878,4.387-12.784,3.901-21.218,4.184
	c28.484,20.121,58,33.038,90.982,37.96C187.496,452.955,167.865,433.391,155.815,405.745z M348.517,405.656
	c-5.284,8.69-9.556,17.396-15.409,24.862c-5.744,7.327-12.554,14.09-19.895,19.818c-7.308,5.702-15.859,9.812-23.865,14.62
	c32.794-5.254,62.42-17.83,90.332-37.884C359.135,426.317,353.248,422.155,348.517,405.656z M154.574,334.081
	c4.752-8.408,8.652-16.671,13.813-24.052c5.068-7.248,11.417-13.6,17.968-21.236c-18.72,6.326-36.885,7.599-55.84,4.02
	C149.07,310.605,152.03,315.656,154.574,334.081z M317.596,289.77c14.239,12.637,24.383,27.819,31.339,45.345
	c0.971-8.597,3.026-16.574,7.252-23.916c4.132-7.177,10.139-12.632,16.603-17.862C353.978,297.121,335.849,294.805,317.596,289.77z
	 M274.982,125.13c-15.569,6.707-30.802,6.483-46.34-0.125c11.439,14.167,18.797,29.942,23.26,49.216
	C256.505,154.999,263.692,139.245,274.982,125.13z M179.431,44.476c13.301,2.465,21.082,8.772,24.214,21.94
	c5.748-15.649,15.098-26.479,29.187-33.104C214.867,34.45,197.706,37.892,179.431,44.476z M322.643,44.302
	c-16.695-6.212-33.69-10.008-51.338-11.425c5.941,4.668,12.242,8.494,17.039,13.705c4.739,5.147,7.957,11.694,12.035,17.921
	C303.613,53.029,311.296,46.777,322.643,44.302z M74.263,375.557c10.183,14.771,21.363,28.359,35.803,39.447
	c-4.933-11.166-2.238-20.898,6.255-30.876C100.039,387.259,86.68,383.78,74.263,375.557z M429.487,375.465
	c-12.385,8.806-26.009,11.297-42.358,8.867c9.429,9.705,11.134,19.655,6.575,30.812
	C408.107,403.809,419.482,390.326,429.487,375.465z M39.201,291.973c0.574,13.45,10.19,42.45,16.627,50.026
	c-1.311-14.34,3.08-26.598,11.771-38.726C55.276,304.785,46.061,301.745,39.201,291.973z M448.785,341.718
	c7.915-15.865,13.578-32.257,16.538-48.984c-4.271,3.081-8.19,7.02-12.928,9.008c-4.597,1.93-10.034,1.857-15.64,2.749
	C445.316,315.641,448.992,327.966,448.785,341.718z M179.368,82.06c9.409-2.703,13.183-7.402,12.054-14.584
	c-0.913-5.809-5.783-9.856-11.88-9.872c-6.214-0.017-11.416,4.455-12.278,10.554C166.375,74.445,170.507,79.296,179.368,82.06z
	 M336.614,69.703c0.103-6.553-5.648-12.149-12.431-12.099c-6.732,0.051-11.745,4.898-11.939,11.543
	c-0.199,6.834,5.087,12.57,11.792,12.796C330.33,82.155,336.513,76.138,336.614,69.703z M47.695,278.742
	c2.459,9.798,6.488,13.304,14.031,12.509c5.986-0.631,10.171-5.178,10.397-11.297c0.239-6.449-3.695-11.402-10.013-12.608
	C55.578,266.1,50.888,269.709,47.695,278.742z M456.003,279.101c-0.004-6.273-6.298-12.386-12.618-12.255
	c-6.227,0.129-11.586,5.625-11.714,12.013c-0.142,7.11,4.855,12.294,11.915,12.359C450.387,291.28,456.008,285.795,456.003,279.101z
	 M142.877,403.145c-0.132-6.27-5.006-10.993-11.385-11.033c-6.74-0.043-11.702,4.957-11.555,11.642
	c0.132,6.025,5.36,11.25,11.333,11.326C137.476,415.159,143.01,409.47,142.877,403.145z M383.873,403.209
	c-0.109-6.341-4.867-11.029-11.27-11.106c-6.735-0.081-11.824,4.962-11.659,11.554c0.151,6.02,5.401,11.325,11.302,11.421
	C378.451,415.179,383.982,409.532,383.873,403.209z M302.055,81.34c-0.326,10.063-4.119,18.708-8.801,27.161
	c9.734-4.877,18.951-9.495,29.191-14.625C313.249,92.9,307.356,87.881,302.055,81.34z M202.127,80.105
	c-5.41,7.88-11.663,12.533-20.351,14.004c9.844,4.87,19.135,9.466,29.372,14.529C205.191,99.846,202.478,91.031,202.127,80.105z
	 M149.149,360.052c-5.797,6.196-11.955,12.777-18.376,19.639c8.757-0.247,14.971,4.453,20.372,10.145
	C150.456,379.559,149.784,369.528,149.149,360.052z M352.516,390.35c5.116-7.02,12.258-10.25,19.959-11.064
	c-6.342-6.701-12.493-13.202-18.065-19.089C353.824,369.525,353.186,379.687,352.516,390.35z M421.244,269.175
	c-5.273,3.781-9.235,6.799-13.38,9.541c-3.945,2.609-8.081,4.93-11.889,7.229c8.954,1.839,17.418,3.577,26.385,5.419
	C419.002,284.777,418.322,277.642,421.244,269.175z M81.386,291.236c9.213-1.832,17.714-3.523,26.549-5.281
	c-3.99-2.332-8.174-4.562-12.127-7.146c-4.131-2.701-8.04-5.742-13.358-9.582C85.439,277.737,84.861,284.698,81.386,291.236z"/>
</svg>
