<?xml version="1.0" encoding="iso-8859-1"?>
<!-- Generator: Adobe Illustrator 19.0.0, SVG Export Plug-In . SVG Version: 6.00 Build 0)  -->
<svg version="1.1" id="Layer_1" xmlns="http://www.w3.org/2000/svg" xmlns:xlink="http://www.w3.org/1999/xlink" x="0px" y="0px"
	 viewBox="1000 -1000 2500 2500" style="enable-background:new 1000 -1000 2500 2500;" xml:space="preserve">
<circle style="fill:#5B6DEE;" cx="2250" cy="250" r="1217.57"/>
<path style="fill:#FFFFFF;" d="M2044.559,175.473c-42.453-0.238-84.839,3.41-126.627,10.897
	c34.396-318.127,299.522-559.011,615.165-558.986c193.265,0,325.688,94.63,325.688,290.561s-158.942,290.561-390.84,290.561
	C2296.779,208.493,2215.75,175.473,2044.559,175.473 M2032.055,291.507c-231.886,0-390.84,94.629-390.84,290.561
	s132.423,290.561,325.688,290.561c315.679,0,580.781-240.86,615.165-558.986c-41.788,7.488-84.174,11.135-126.627,10.897
	C2284.25,324.527,2203.221,291.507,2032.055,291.507"/>
</svg>
