<?xml version="1.0" encoding="utf-8"?>
<!-- Generator: Adobe Illustrator 25.0.1, SVG Export Plug-In . SVG Version: 6.00 Build 0)  -->
<svg version="1.1" id="snx" xmlns="http://www.w3.org/2000/svg" xmlns:xlink="http://www.w3.org/1999/xlink" x="0px" y="0px"
	 viewBox="0 0 500 500" style="enable-background:new 0 0 500 500;" xml:space="preserve">
<style type="text/css">
	.st0{fill:#00D1FF;}
</style>
<path class="st0" d="M120.8,155.9c-3.5-4-7.8-6-12.9-6H3.1c-0.9,0-1.7-0.3-2.3-0.9c-0.6-0.6-0.9-1.2-0.9-1.9V76.6
	c0-0.7,0.3-1.3,0.9-1.9c0.6-0.6,1.3-0.9,2.3-0.9h110.7c27.9,0,52,11.4,72.3,34.2l26.9,32.8l-52.4,63.8L120.8,155.9z M314.2,107.6
	c20.3-22.6,44.5-33.8,72.6-33.8h110.3c0.9,0,1.6,0.2,2.1,0.7c0.5,0.5,0.7,1.2,0.7,2.1v70.5c0,0.7-0.2,1.4-0.7,1.9
	c-0.5,0.6-1.2,0.9-2.1,0.9H392.5c-5.1,0-9.4,2-12.9,6l-77.2,93.8l77.5,94.5c3.5,3.8,7.7,5.6,12.6,5.6h104.7c0.9,0,1.6,0.3,2.1,0.9
	c0.5,0.6,0.7,1.4,0.7,2.3v70.5c0,0.7-0.2,1.4-0.7,1.9c-0.5,0.6-1.2,0.9-2.1,0.9H386.9c-28.2,0-52.3-11.4-72.3-34.2l-64.2-78.2
	L186.1,392c-20.3,22.8-44.5,34.2-72.6,34.2H3.1c-0.9,0-1.6-0.3-2.1-0.9c-0.5-0.6-0.7-1.3-0.7-2.3v-70.5c0-0.7,0.2-1.3,0.7-1.9
	c0.5-0.6,1.2-0.9,2.1-0.9h104.7c4.9,0,9.2-2,12.9-6l75.8-92.3L314.2,107.6z"/>
</svg>
