<svg aria-hidden="true" data-testid="test-icon" viewBox="0 0 24 24" fill="currentColor" xmlns="http://www.w3.org/2000/svg"><path d="M5.25 15.956a.655.655 0 01.462-.191h15.96c.292 0 .438.352.231.558l-3.152 3.15a.654.654 0 01-.463.192H2.328a.327.327 0 01-.231-.558l3.152-3.151zM5.25 4.191A.673.673 0 015.711 4h15.96c.292 0 .438.352.231.558l-3.152 3.15a.654.654 0 01-.463.192H2.328a.327.327 0 01-.231-.558l3.152-3.151zM18.75 10.186a.663.663 0 00-.462-.186H2.328c-.292 0-.438.343-.231.544l3.152 3.07c.121.117.287.186.463.186h15.96c.292 0 .438-.343.231-.544l-3.152-3.07z"/></svg>
