<svg width="24" height="24" viewBox="0 0 24 24" fill="none" xmlns="http://www.w3.org/2000/svg">
<path d="M4.81293 16.5716C4.94141 16.4432 5.11808 16.3683 5.30545 16.3683H22.2973C22.6078 16.3683 22.7631 16.7428 22.5436 16.9622L19.187 20.3169C19.0585 20.4454 18.8818 20.5203 18.6944 20.5203H1.70257C1.39207 20.5203 1.23682 20.1457 1.45631 19.9264L4.81293 16.5716Z" stroke="#B5A3FF" stroke-width="1.6"/>
<path d="M4.81293 3.77162C4.94677 3.6432 5.12343 3.5683 5.30545 3.5683H22.2973C22.6078 3.5683 22.7631 3.94283 22.5436 4.1622L19.187 7.51693C19.0585 7.64534 18.8818 7.72024 18.6944 7.72024H1.70257C1.39207 7.72024 1.23682 7.34571 1.45631 7.12634L4.81293 3.77162Z" stroke="#00E9F1" stroke-width="1.6"/>
<path d="M19.187 10.2474C19.0585 10.1223 18.8818 10.0493 18.6944 10.0493H1.70257C1.39207 10.0493 1.23682 10.4143 1.45631 10.628L4.81293 13.8968C4.94141 14.022 5.11808 14.095 5.30545 14.095H22.2973C22.6078 14.095 22.7631 13.73 22.5436 13.5163L19.187 10.2474Z" stroke="#00E9F1" stroke-width="1.6"/>
</svg>
