<?xml version="1.0" encoding="utf-8"?>
<!-- Generator: Adobe Illustrator 19.0.0, SVG Export Plug-In . SVG Version: 6.00 Build 0)  -->
<svg version="1.1" id="Layer_1" xmlns="http://www.w3.org/2000/svg" xmlns:xlink="http://www.w3.org/1999/xlink" x="0px" y="0px"
	 viewBox="12 0.5 500 500" style="enable-background:new 12 0.5 500 500;" xml:space="preserve">
<style type="text/css">
	.st0{fill:#5E8BC3;}
	.st1{fill:#9AC8D7;}
	.st2{fill:#CBE6E9;}
	.st3{fill:#4B575C;}
</style>
<g id="_x23_5e8bc3ff">
	<path class="st0" d="M14.8,45.8c82.4-0.4,164.9-0.1,247.3-0.1c-0.2,11.3,0,22.6-0.1,33.9c-61,0.4-122-0.8-183,0.3
		c-8.1,0.2-16.2,0-24.3,0.3c5.6,18.4,20.9,31,34.1,44c48.4,48.3,96.8,96.6,145,145.1c9,9.1,18.5,17.6,28.3,25.8
		c-0.1,14.2,0.4,28.4-0.3,42.6c-13.2-3.4-23.9-12.5-33.2-22.1c-7-7.5-14.1-15-21.6-22c-50.4-50.1-99.6-101.4-151.1-150.3
		c-2.1-2-4.1-4.2-6.6-5.8c-0.7,42.1-0.9,84.3-0.6,126.5c0.2,36.3,0.2,72.7-0.4,109c-0.6,13.8,3.2,27.2,7.7,40.1
		c2.1,12.8,1.1,25.8,1.4,38.6c0.1,1,0.1,2.9,0.2,3.8c-13.7,0.4-24.2-9.7-32.4-19.5c-3.1-4.3-7.9-7.7-9-13.1
		c-2.3-8.1-1.6-16.6-1.2-24.9C14.7,280.6,14.4,163.2,14.8,45.8z"/>
	<path class="st0" d="M270.1,366.7c2.1-2.7,3.8-5.7,6.4-7.9c1.6,9.2,3.3,18.4,6.5,27.1c3.8,10.9,10.7,21.3,21.2,26.7
		c0.2,13,0.4,25.9,0.3,38.9c0,1-0.1,3-0.1,4.1c-6.7,0.5-13.6-1.9-18.3-6.7c-8.2-8.1-12-19.5-15.3-30.2c0.1-7.6-0.6-15.1-0.6-22.7
		C270,386.2,270.4,376.5,270.1,366.7z"/>
	<path class="st0" d="M404.4,358.6c2.5,21.2,10.6,43.4,28.3,56.5c0,12.5,0.2,24.9,0,37.4c-0.1,0.8-0.3,2.3-0.4,3.1
		c-6.7,0.4-13.5-2-18.2-6.8c-8.2-8.1-12-19.4-15.3-30.2c0.1-6.9-0.5-13.8-0.6-20.6c-0.3-10.4,0.1-20.9-0.2-31.3
		C400.1,364,402.1,361.2,404.4,358.6z"/>
	<path class="st0" d="M136.3,363.3c1.3-1.3,2.5-2.8,4.2-3.5c2.8,16.7,6.2,34.7,18.5,47.2c7.1,6.5,17.3,4.6,26.1,5.8
		c0.1,10.9-0.2,21.9,0.1,32.9c0,3.1,0,6.2,0.1,9.4c-7.8-0.4-15.6,0.7-23.3-0.1c-5.6-0.7-11.6-3.2-14.5-8.4
		c-6.2-9.9-11.1-21.4-21.4-27.8c0-0.8-0.1-2.3-0.2-3c0.4-13.3-0.5-26.6-0.9-39.9C128.6,371.5,132.4,367.4,136.3,363.3z"/>
</g>
<g id="_x23_9ac8d7ff">
	<path class="st1" d="M262,45.7c82.4,0.1,164.7-0.2,247.1,0.2c0.4,107.4,0,214.8,0.2,322.2c0,13,0.2,26,0,39
		c-0.2,3.6-0.2,7.7-2.5,10.7c-10,14.7-24,26.9-40.7,33.5c-10.6,4.1-22.2,5.9-33.5,4.4c0-0.8,0.1-2.3,0.1-3c0.2-12.5,0.1-24.9,0-37.4
		c8.4-2.3,17.2-3.4,24.9-7.4c6.9-4.4,8.7-13.2,9.1-20.8c0.4-15.3,0-30.7,0.1-46c-0.3-64.7,0.5-129.4-0.5-194.1
		c-2.1,0.9-3.7,2.7-5.3,4.3c-49,46-95,94.9-143,141.9c-10.5,9.9-19.7,21.1-30.5,30.7c-7.5,6.4-16.2,11.9-25.9,13.9
		c0.6-14.2,0.1-28.4,0.3-42.6c47.8-45.2,93.6-92.5,140.2-138.9c13.1-12.9,25.8-26.2,39.3-38.6c10.1-9.7,19.8-20.3,26.2-32.9
		c0.8-1.3,1.1-2.8,1.2-4.2c-31.3-0.8-62.6-1.2-94-1.1c-37.7,0.1-75.4,0.7-113,0.2C262.1,68.3,261.9,57,262,45.7z"/>
	<path class="st1" d="M49.2,137.5c2.5,1.5,4.5,3.7,6.6,5.8c51.5,48.9,100.7,100.2,151.1,150.3c-23.6,8.7-43.9,24.1-66.5,35
		c-30.8,14.7-60.7,31.4-92.3,44.5c0.6-36.3,0.6-72.7,0.4-109C48.2,221.8,48.5,179.6,49.2,137.5z"/>
	<path class="st1" d="M241.6,402.6c11.4-10.3,18.8-24.1,28.5-35.9c0.3,9.8-0.2,19.5,0.1,29.3c0,7.6,0.7,15.1,0.6,22.7
		c-2.3,1-4.8,1.7-6.4,3.8c-3.1,3.8-3.7,8.7-5.7,13.1c-1.5,3.6-4.6,6.2-7.1,9c-4.7,5-10.4,9.8-17.6,10.4c-16.2,0.3-32.4,0-48.7,0.1
		c0-3.1,0.1-6.3-0.2-9.4c-0.3-10.9,0-21.9-0.1-32.9c14.7-0.1,29.7,1.2,44.1-2.5C234,409.2,237.9,405.7,241.6,402.6z"/>
	<path class="st1" d="M362.7,407.8c15.7-9.9,23.9-27.2,35.4-41c0.2,10.4-0.1,20.9,0.2,31.3c0,6.9,0.7,13.8,0.6,20.6
		c-2.3,0.9-4.8,1.7-6.3,3.7c-3.2,3.9-3.8,9.2-6,13.7c-1.4,3.2-4.2,5.4-6.4,8c-4.1,4.3-8.7,8.6-14.6,10.2c-3.4,1.1-6.9,0.6-10.4,0.7
		c-16.8,0.2-33.5-0.4-50.3,0.4c0-1.3-0.1-2.6-0.2-3.9c0.1-13-0.1-26-0.3-38.9c13.9,0.2,27.9,1,41.7-0.5
		C351.7,411.5,357.8,411.2,362.7,407.8z"/>
	<path class="st1" d="M98.7,407.8c11.2-8.5,17.1-21.6,26.2-32c0.4,13.3,1.3,26.6,0.9,39.9c-0.3,3.3,0.7,6.6,0,9.8
		c-1.6,11-9.7,19.6-18.6,25.6c-2,1.1-3.8,2.9-6.2,3c-14.4,2-29,0.2-43.5,1.2c-0.1-1.2-0.2-2.4-0.3-3.7c-0.3-12.9,0.7-25.9-1.4-38.6
		c10.6-0.2,21.3,0,31.8-1.5C91.4,410.9,95.6,410.3,98.7,407.8z"/>
</g>
<g id="_x23_cbe6e9ff">
	<path class="st2" d="M79,79.9c61-1.1,122,0.1,183-0.3c37.7,0.5,75.4-0.1,113-0.2c31.3-0.1,62.6,0.3,94,1.1
		c-0.1,1.5-0.5,2.9-1.2,4.2c-6.4,12.6-16.1,23.2-26.2,32.9c-13.6,12.4-26.2,25.7-39.3,38.6c-46.6,46.4-92.4,93.8-140.2,138.9
		c-9.7-8.3-19.3-16.8-28.3-25.8c-48.2-48.5-96.7-96.8-145-145.1c-13.2-13-28.5-25.6-34.1-44C62.8,79.9,70.9,80.1,79,79.9
		 M192.4,114.4c-8.8,2.4-15.3,10.8-15.7,19.8c-1.2,11.1,8.5,21.7,19.5,22.3c7.9,0.4,16-3.5,20.1-10.3c2.7-4.5,4.3-10,2.9-15.2
		C216.6,119.7,203.9,110.5,192.4,114.4 M329.1,114.3c-12.3,3-19.9,18.2-14.3,29.7c2.7,4.9,6.7,9.4,12.1,11.3
		c8.5,3.1,18.9,0.4,24.3-6.9c2.5-3.6,5-7.7,4.8-12.3C356.6,122.7,342.4,110.1,329.1,114.3z"/>
	<path class="st2" d="M461.1,151.2c1.6-1.6,3.2-3.4,5.3-4.3c1,64.7,0.1,129.4,0.5,194.1c-0.1,15.3,0.3,30.7-0.1,46
		c-0.4,7.6-2.2,16.4-9.1,20.8c-7.8,4-16.6,5.1-24.9,7.4C415,402,407,379.9,404.4,358.6c-2.3,2.5-4.3,5.4-6.4,8.1
		c-11.5,13.9-19.7,31.1-35.4,41c-4.9,3.5-11,3.7-16.8,4.4c-13.9,1.5-27.8,0.7-41.7,0.5c-10.5-5.4-17.4-15.8-21.2-26.7
		c-3.1-8.8-4.9-18-6.5-27.1c-2.6,2.2-4.3,5.2-6.4,7.9c-9.7,11.8-17.1,25.6-28.5,35.9c-3.8,3.1-7.6,6.6-12.5,7.8
		c-14.4,3.7-29.4,2.4-44.1,2.5c-8.8-1.2-19,0.6-26.1-5.8c-12.3-12.5-15.8-30.6-18.5-47.2c-1.7,0.7-2.9,2.2-4.2,3.5
		c-3.8,4.1-7.7,8.2-11.4,12.5c-9.1,10.4-15,23.5-26.2,32c-3.1,2.6-7.3,3.1-11.1,3.8c-10.5,1.5-21.2,1.3-31.8,1.5
		c-4.5-12.9-8.3-26.3-7.7-40.1c31.6-13.1,61.5-29.8,92.3-44.5c22.6-10.9,42.9-26.3,66.5-35c7.6,7,14.6,14.5,21.6,22
		c9.3,9.6,20,18.7,33.2,22.1c9.8-2,18.4-7.5,25.9-13.9c10.8-9.6,20-20.8,30.5-30.7C366.1,246.1,412.2,197.2,461.1,151.2z"/>
</g>
<g id="_x23_4b575cff">
	<path class="st3" d="M192.4,114.4c11.6-3.8,24.2,5.3,26.8,16.7c1.4,5.2-0.2,10.7-2.9,15.2c-4.1,6.8-12.3,10.7-20.1,10.3
		c-11-0.6-20.6-11.2-19.5-22.3C177.1,125.2,183.6,116.8,192.4,114.4z"/>
	<path class="st3" d="M329.1,114.3c13.2-4.2,27.5,8.4,26.9,21.7c0.2,4.6-2.3,8.7-4.8,12.3c-5.5,7.3-15.9,10-24.3,6.9
		c-5.4-1.9-9.4-6.4-12.1-11.3C309.2,132.5,316.9,117.3,329.1,114.3z"/>
</g>
</svg>
