<?xml version="1.0" encoding="utf-8"?>
<!-- Generator: Adobe Illustrator 26.0.3, SVG Export Plug-In . SVG Version: 6.00 Build 0)  -->
<svg version="1.1" id="sov" xmlns="http://www.w3.org/2000/svg" xmlns:xlink="http://www.w3.org/1999/xlink" x="0px" y="0px"
	 viewBox="0 0 500 500" style="enable-background:new 0 0 500 500;" xml:space="preserve">
<path d="M259.1,221.6h-87.5l37.7,50.8l0.5,0.5c0,0.5,0.5,0.5,0.5,1l6,8l18.1,24.6c1,1,2,2,3,3c6.5,5,16.1,3.5,21.1-3l19.1-25.6
	l23.1-30.7l6-8c-0.5-6.5-1-13.1-2-19.1c-0.5-6.5-3.5-12.6-8.5-17.1c-5-3.5-11.1-6-17.6-6h-0.5c0,1,0,1.5,0,2.5
	C278.2,213.1,269.7,221.6,259.1,221.6z"/>
<path d="M397.4,120H246.5c-10.6,0-19.1-8.5-19.1-19.1c0-1,0-1.5,0-2.5c-9.6-0.5-19.1,1.5-27.7,5c-10.1,4.5-19.1,10.6-26.2,19.1
	c-7.5,8.5-14.1,18.1-19.1,28.2c-4.5,10.6-8.5,21.6-10.6,32.7h114.2h0.5h0.5c7.5,0.5,15.1,1.5,22.1,4c8,2,15.6,6.5,21.1,12.6
	c1.5,1.5,2.5,3.5,3.5,5.5c1,2,1.5,4,2,6c1,3.5,1,7.5,1,11.6c0,6.5-1,12.6-1.5,18.6L397.4,120z"/>
<path d="M142.9,182.9c1.5-11.6,4-23.1,8-34.2c4-11.6,9.6-22.1,16.1-32.2c7-10.1,16.6-18.6,27.2-25.1c10.6-6,22.1-9.6,34.2-10.1
	c1.5,0,3,0,4.5,0c3.5,0,10.1,0,13.6,0h179.5l28.7-38.7c2-2.5,3-5.5,3-9.1c0-8-6.5-15.1-15.1-15.1H49.9c-3,0-6.5,1-9.1,3
	c-6.5,5-8,14.1-3,21.1L142.9,182.9z"/>
<path d="M232.4,335.3L150,221.6l-28.2-38.7L1.6,17.9l-1,0.5l83.5,164.5l19.6,38.7l98.6,194.6l28.7,56.3c2,3.5,4.5,6.5,8,8
	c9.1,4.5,20.6,1,25.1-8l28.7-55.3l0.5-1.5l-57.8-78C234,337.3,233.5,336.3,232.4,335.3z"/>
<path d="M439.6,98.4L423.6,120L326,250.3l-23.1,30.7l-40.7,54.3c-1,1.5-2.5,2.5-4,3.5l43.8,58.8l60.9-117.2l16.1-30.7L500,17.9
	l-1-0.5L439.6,98.4z"/>
</svg>
