<svg aria-hidden="true" data-testid="test-icon" viewBox="0 0 24 24" fill="currentColor" xmlns="http://www.w3.org/2000/svg"><path d="M14.295 20.512a.849.849 0 01-.424-.11l-6.858-3.957a.846.846 0 01-.424-.736V7.803a.845.845 0 01.424-.735l6.841-3.958a.847.847 0 01.847 0l6.876 3.966a.846.846 0 01.423.736v7.906a.844.844 0 01-.423.735l-6.876 3.95a.848.848 0 01-.406.11zm-6.012-5.285l6.012 3.467 6.012-3.467V8.285l-6.012-3.467-6.012 3.467v6.942z"/><path d="M14.295 12.606a.847.847 0 01-.424-.118L7.013 8.53a.846.846 0 010-1.462l6.841-3.958a.848.848 0 01.847 0l6.876 3.966a.847.847 0 010 1.463L14.7 12.488a.847.847 0 01-.406.118zM9.13 7.803l5.165 2.977 5.165-2.977-5.165-2.985L9.13 7.803z"/><path d="M14.295 20.512a.847.847 0 01-.847-.845V11.76a.845.845 0 011.445-.598.845.845 0 01.248.598v7.906a.845.845 0 01-.846.845z"/><path d="M14.295 12.606a.848.848 0 01-.787-1.173.846.846 0 01.363-.409l5.589-3.221-5.606-3.222a.848.848 0 11.847-1.471l6.876 3.966a.846.846 0 010 1.462l-6.876 3.95a.848.848 0 01-.406.118zM3.185 11.988a.848.848 0 01-.786-1.172.846.846 0 01.363-.41l1.025-.591a.85.85 0 011.243.957.849.849 0 01-.397.514l-1.024.584a.847.847 0 01-.424.118zM3.185 15.37a.848.848 0 01-.786-1.172.846.846 0 01.363-.408l1.025-.592a.85.85 0 011.243.957.849.849 0 01-.397.514l-1.024.583a.847.847 0 01-.424.119zM5.929 20.782a.847.847 0 01-.837-.735.845.845 0 01.413-.846l1.177-.676a.847.847 0 11.847 1.462l-1.177.677a.847.847 0 01-.423.118zM9.29 22a.847.847 0 01-.431-1.573l.364-.211a.847.847 0 11.846 1.463l-.364.211a.847.847 0 01-.415.11zM2.847 18.99a.848.848 0 01-.787-1.172.846.846 0 01.363-.41l2.185-1.25a.848.848 0 011.24.946.846.846 0 01-.393.516L3.27 18.914a.849.849 0 01-.423.076z"/><defs><clipPath id="prefix__clip0_359_27730"><rect width="20" fill="#fff" transform="translate(2 3)"/></clipPath></defs></svg>
