<?xml version="1.0" encoding="utf-8"?>
<!-- Generator: Adobe Illustrator 24.1.0, SVG Export Plug-In . SVG Version: 6.00 Build 0)  -->
<svg version="1.1" id="SPN" xmlns="http://www.w3.org/2000/svg" xmlns:xlink="http://www.w3.org/1999/xlink" x="0px" y="0px"
	 viewBox="0 0 500 500" style="enable-background:new 0 0 500 500;" xml:space="preserve">
<style type="text/css">
	.st0{fill:#6200EA;}
</style>
<path class="st0" d="M385,295c1.3,2.3,16.3,30,2,82.7c-1.7-0.4-3.3-0.9-4.9-1.5H382c-4.9-1.7-9.4-4.5-13.2-8.1
	c0,0,1.4,32.7-19.5,60.1c-0.1,0.2-0.3,0.4-0.4,0.6l-0.1-0.1c-5.3-5.4-9.3-12-11.7-19.2c0,0-11.3,25.8-42.9,50.5
	c-2.7,2.2-5.5,4.2-8.3,6.2c-16,11.2-24.9,18.6-29.9,23.5c-0.3,0.3-0.6,0.7-0.9,1c-0.3,0.3-0.6,0.6-0.9,0.9c-3.9,4.2-4.2,6.1-4.2,6.6
	c0-0.5-0.4-2.4-4.3-6.6c-0.3-0.3-0.6-0.6-0.9-0.9c-0.3-0.3-0.6-0.6-0.9-1c-5-4.9-13.9-12.3-29.9-23.5c-2.8-2-5.6-4-8.3-6.2
	c-5.7-4.4-11.1-9.2-16.3-14.3c-20.5-20.3-26.5-35.6-26.7-36.1c-2.4,7.2-6.4,13.8-11.7,19.2l-0.1,0.1c-0.2-0.2-0.3-0.4-0.4-0.6
	c-20.9-27.4-19.5-60.2-19.5-60.2c-3.7,3.6-8.2,6.4-13.1,8.1h-0.1c-1.6,0.7-3.2,1.2-4.9,1.5c-14.2-52.6,0.7-80.4,2-82.7
	c0,0,0.1-0.1,0.1-0.2c-0.1-0.1-0.1-0.1-0.2-0.2c-3.9-2.8-63.8-48.6-24.6-167.2c0,0,11.4,2.8,18,12.7c0,0-0.6-35.2,45.1-81.7
	c8.1,6.5,13.4,15.8,15,26c0,0,13.8-21,41.4-38.6C239.4,26.9,250,14.1,250,1.2c0,0,66.2,39.4,81.6,83.3c2.4-16.8,15-26,15-26
	c45.7,46.5,45.1,81.7,45.1,81.7c6.6-9.9,18-12.7,18-12.7c39.2,118.6-20.7,164.3-24.6,167.2c-0.1,0-0.1,0.1-0.2,0.2
	C384.9,294.8,384.9,294.9,385,295L385,295z M250,200.1c-117.9-68.8-144.3,62-46.5,66.9c0,0-12,7.5-25.4,8.9
	c4.6,2.3,9.8,2.9,14.8,1.9C154,318.9,169.1,404.1,250,404.1c80.8,0,95.9-85.2,57.1-126.4c5,1.1,10.2,0.4,14.8-1.8
	c-13.4-1.4-25.4-8.9-25.4-8.9C394.3,262.2,367.9,131.4,250,200.1z M299.4,227.8c0,7.9-4.1,14.2-9.2,14.2c-5.1,0-9.2-6.4-9.2-14.2
	s4.1-14.2,9.2-14.2C295.3,213.6,299.4,220,299.4,227.8L299.4,227.8z M209.8,213.6c5.1,0,9.2,6.4,9.2,14.2c0,7.9-4.1,14.2-9.2,14.2
	c-5.1,0-9.2-6.4-9.2-14.2S204.7,213.6,209.8,213.6z M265.6,283.7c-8.8-2.8-10.6,11.8-10.6,11.8C272.5,297.4,273.4,286.2,265.6,283.7
	z M244.9,295.5c0,0-1.6-14.5-10.5-11.8C226.6,286.2,227.5,297.4,244.9,295.5L244.9,295.5z M250,349.6c27.5,0.1,47.8-13.6,46.5-15.8
	c-1-2.5-21.3,4.4-46.5,4.2c-25.2,0.2-45.6-6.7-46.6-4.2C202.2,335.8,222.4,349.6,250,349.6L250,349.6L250,349.6z"/>
</svg>
