<?xml version="1.0" encoding="utf-8"?>
<!-- Generator: Adobe Illustrator 25.0.1, SVG Export Plug-In . SVG Version: 6.00 Build 0)  -->
<svg version="1.1" id="srm" xmlns="http://www.w3.org/2000/svg" xmlns:xlink="http://www.w3.org/1999/xlink" x="0px" y="0px"
	 viewBox="0 0 500 500" style="enable-background:new 0 0 500 500;" xml:space="preserve">
<style type="text/css">
	.st0{fill:url(#SVGID_1_);}
	.st1{fill:url(#SVGID_2_);}
	.st2{fill:url(#SVGID_3_);}
</style>
<linearGradient id="SVGID_1_" gradientUnits="userSpaceOnUse" x1="125.5" y1="447.9245" x2="125.5" y2="246.9245" gradientTransform="matrix(1.7612 0 0 1.7612 28.9715 -376.9364)">
	<stop  offset="0" style="stop-color:#05AAC5"/>
	<stop  offset="1" style="stop-color:#71E0EC"/>
</linearGradient>
<path class="st0" d="M250,411.9c-75.9,0-137.5-61.6-137.5-137.5c0-73.8,124.5-204.1,129.8-209.6l6.5-6.9l6.7,6.7
	c5.5,5.5,132.1,135.8,132.1,209.6C387.5,350.3,325.9,411.9,250,411.9L250,411.9z M248.9,84.5c-10.9,11.8-33.8,37.3-56.5,67.3
	c-40.3,53.2-61.6,95.5-61.6,122.4c0,65.7,53.5,119.2,119.2,119.2s119.2-53.5,119.2-119.2c0-26.9-21.7-69.2-62.7-122.4
	C283.5,122.1,260,96.3,248.9,84.5z"/>
<linearGradient id="SVGID_2_" gradientUnits="userSpaceOnUse" x1="125.6" y1="472.9245" x2="125.6" y2="230.6495" gradientTransform="matrix(1.7612 0 0 1.7612 28.9715 -376.9364)">
	<stop  offset="0" style="stop-color:#05AAC5"/>
	<stop  offset="1" style="stop-color:#71E0EC"/>
</linearGradient>
<path class="st1" d="M250,456c-100.2,0-181.6-81.5-181.6-181.6c0-97.9,136.7-234.6,142.5-240.2c3.5-3.5,9.5-3.5,13,0
	c3.5,3.5,3.5,9.5,0,13c-1.4,1.4-137,137-137,227.2c0,90,73.3,163.3,163.3,163.3s163.3-73.3,163.3-163.3c0-37-24-88.1-69.4-148.1
	c-34.9-46-69.9-80.8-70.3-81.2c-3.7-3.5-3.7-9.3,0-13c3.5-3.7,9.3-3.7,13,0c6,5.8,145.1,144.2,145.1,242.3
	C431.6,374.4,350.2,456,250,456L250,456z"/>
<linearGradient id="SVGID_3_" gradientUnits="userSpaceOnUse" x1="125.5" y1="497.9245" x2="125.5" y2="214.0368" gradientTransform="matrix(1.7612 0 0 1.7612 28.9715 -376.9364)">
	<stop  offset="0" style="stop-color:#05AAC5"/>
	<stop  offset="1" style="stop-color:#71E0EC"/>
</linearGradient>
<path class="st2" d="M250,500c-121.9,0-221-99.2-221-221c0-50.4,25.4-112.4,75.2-184C141,42.1,177.1,4.4,178.7,2.8
	c3.5-3.7,9.3-3.7,13-0.2c3.7,3.5,3.7,9.3,0.2,13c-0.4,0.4-36.8,38.4-72.7,90C72.1,173.1,47.3,233,47.3,279
	c0,111.7,90.9,202.7,202.7,202.7S452.7,390.8,452.7,279c0-46-25-105.8-72.4-173.3c-36.3-51.6-73.1-89.6-73.4-90
	c-3.5-3.7-3.5-9.5,0.2-13c3.7-3.5,9.5-3.5,13,0.2C326.3,9.2,471,159.6,471,279C471,400.8,371.9,500,250,500z"/>
</svg>
