<svg aria-hidden="true" data-testid="test-icon" fill="currentColor" viewBox="0 0 24 24" xmlns="http://www.w3.org/2000/svg"><path d="M11.204 2.55c.25-.734 1.341-.734 1.592 0l2.023 5.928c.112.329.433.551.796.551h6.546c.811 0 1.148.988.492 1.442l-5.296 3.663a.776.776 0 00-.304.891l2.023 5.928c.25.734-.632 1.345-1.288.891l-5.296-3.663a.871.871 0 00-.984 0l-5.296 3.663c-.656.454-1.539-.157-1.288-.89l2.023-5.929a.776.776 0 00-.304-.89L1.347 10.47c-.656-.454-.32-1.442.492-1.442h6.546a.834.834 0 00.796-.55l2.023-5.928z"/></svg>
