<svg aria-hidden="true" data-testid="test-icon" fill="currentColor" viewBox="0 0 24 24" xmlns="http://www.w3.org/2000/svg"><path d="M7.81 2.578a.2.2 0 01.38 0l1.263 3.841a.2.2 0 00.128.128l3.841 1.263a.2.2 0 010 .38L9.581 9.453a.2.2 0 00-.128.128L8.19 13.422a.2.2 0 01-.38 0L6.547 9.581a.2.2 0 00-.128-.128L2.578 8.19a.2.2 0 010-.38l3.841-1.263a.2.2 0 00.128-.128L7.81 2.578zM5.153 17.422a.2.2 0 01.269-.27l1.488.752a.2.2 0 00.18 0l1.489-.751a.2.2 0 01.268.269l-.751 1.488a.2.2 0 000 .18l.751 1.488a.2.2 0 01-.268.27l-1.489-.752a.2.2 0 00-.18 0l-1.488.751a.2.2 0 01-.269-.269l.752-1.488a.2.2 0 000-.18l-.752-1.488zM19.993 11.81a.2.2 0 01.268.268l-1.466 2.903a.2.2 0 000 .18l1.466 2.903a.2.2 0 01-.268.268l-2.903-1.465a.2.2 0 00-.18 0l-2.903 1.465a.2.2 0 01-.268-.268l1.465-2.903a.2.2 0 000-.18l-1.466-2.903a.2.2 0 01.27-.268l2.902 1.465a.2.2 0 00.18 0l2.903-1.465z"/></svg>
