<svg width="24" height="25" viewBox="0 0 24 25" fill="currentColor" xmlns="http://www.w3.org/2000/svg">
<path d="M11.1028 12.0139C11.1028 12.4424 11.4434 12.7829 11.8718 12.7829H16.1672L14.4095 14.5406C14.1129 14.8372 14.1129 15.3316 14.4095 15.6282C14.7061 15.9248 15.2005 15.9248 15.4971 15.6282L18.5731 12.5522C18.8697 12.2556 18.8697 11.7613 18.5731 11.4646L15.4971 8.38866C15.2005 8.09205 14.7061 8.09205 14.4095 8.38866C14.1129 8.68527 14.1129 9.17963 14.4095 9.47624L16.1672 11.2339H11.8718C11.4434 11.2339 11.1028 11.5745 11.1028 12.0029V12.0139Z" />
<path fill-rule="evenodd" clip-rule="evenodd" d="M10.7327 4.4848C11.9657 3.80791 13.3671 3.43414 14.8599 3.43414C19.6459 3.43414 23.5166 7.30482 23.5166 12.0908C23.5166 16.8768 19.6459 20.7475 14.8599 20.7475C13.363 20.7475 11.964 20.3608 10.7379 19.6996C10.364 19.498 10.2244 19.0316 10.426 18.6578C10.6275 18.284 11.094 18.1443 11.4678 18.3459C12.4827 18.8932 13.6323 19.2095 14.8599 19.2095C18.7965 19.2095 21.9786 16.0274 21.9786 12.0908C21.9786 8.15423 18.7965 4.97213 14.8599 4.97213C13.6283 4.97213 12.4811 5.27947 11.4729 5.83297C11.1006 6.03736 10.6331 5.90126 10.4287 5.52897C10.2244 5.15669 10.3605 4.6892 10.7327 4.4848Z" />
<path fill-rule="evenodd" clip-rule="evenodd" d="M0.314941 12.1128C0.314941 11.6881 0.659232 11.3438 1.08394 11.3438H6.18127C6.60597 11.3438 6.95026 11.6881 6.95026 12.1128C6.95026 12.5375 6.60597 12.8818 6.18127 12.8818H1.08394C0.659232 12.8818 0.314941 12.5375 0.314941 12.1128Z" />
<path fill-rule="evenodd" clip-rule="evenodd" d="M3.64359 15.1888C3.64359 14.7641 3.98788 14.4198 4.41258 14.4198H8.99359C9.41829 14.4198 9.76258 14.7641 9.76258 15.1888C9.76258 15.6135 9.41829 15.9578 8.99359 15.9578H4.41258C3.98788 15.9578 3.64359 15.6135 3.64359 15.1888Z" />
<path fill-rule="evenodd" clip-rule="evenodd" d="M2.32531 9.02583C2.32531 8.60112 2.6696 8.25683 3.09431 8.25683H8.99359C9.41829 8.25683 9.76258 8.60112 9.76258 9.02583C9.76258 9.45053 9.41829 9.79482 8.99359 9.79482H3.09431C2.6696 9.79482 2.32531 9.45053 2.32531 9.02583Z" />
</svg>
