<?xml version="1.0" encoding="utf-8"?>
<!-- Generator: Adobe Illustrator 23.0.4, SVG Export Plug-In . SVG Version: 6.00 Build 0)  -->
<svg version="1.1" id="steem" xmlns="http://www.w3.org/2000/svg" xmlns:xlink="http://www.w3.org/1999/xlink" x="0px" y="0px"
	 viewBox="0 0 500 500" style="enable-background:new 0 0 500 500;" xml:space="preserve">
<style type="text/css">
	.st0{fill:#171FC9;}
	.st1{fill:#FFFFFF;}
</style>
<circle class="st0" cx="250.5" cy="250.1" r="245.9"/>
<path class="st1" d="M247,116.7l-18.9,14.6c-29.9,21.3-33,54.9-19.3,85.5l41.8,100.6c7.6,19.6,8.3,40.6,1.2,61.5l-0.1,0.4
	c-1.3,2.9,1.4,5,4.1,2.9l21.9-18.8c21-17.1,28.3-45.9,18.2-71l-46.7-115.6c-5.5-16.2-5.6-32.3-0.9-48.1l3.2-8.9
	C252.4,117.3,249.2,115,247,116.7z"/>
<path class="st1" d="M336.8,144.8l-14.9,11.5c-23.7,16.8-26.1,43.4-15.2,67.7l33,79.6c6,15.5,6.6,32.1,0.9,48.7l-0.1,0.4
	c-1.1,2.3,1.1,4,3.3,2.3l17.3-14.8c16.6-13.5,22.4-36.3,14.4-56.1l-36.9-91.5c-4.3-12.8-4.4-25.5-0.7-38l2.5-7
	C341,145.2,338.5,143.4,336.8,144.8z"/>
<path class="st1" d="M158.7,144.8l-14.9,11.5c-23.7,16.8-26.1,43.4-15.2,67.7l33,79.6c6,15.5,6.6,32.1,0.9,48.7l-0.1,0.4
	c-1.1,2.3,1.1,4,3.3,2.3l17.3-14.8c16.6-13.5,22.4-36.3,14.4-56.1l-36.9-91.5c-4.3-12.8-4.4-25.5-0.7-38l2.5-7
	C163,145.2,160.5,143.4,158.7,144.8z"/>
</svg>
