<?xml version="1.0" encoding="utf-8"?>
<!-- Generator: Adobe Illustrator 25.4.1, SVG Export Plug-In . SVG Version: 6.00 Build 0)  -->
<svg version="1.1" id="step" xmlns="http://www.w3.org/2000/svg" xmlns:xlink="http://www.w3.org/1999/xlink" x="0px" y="0px"
	 viewBox="0 0 500 500" style="enable-background:new 0 0 500 500;" xml:space="preserve">
<style type="text/css">
	.st0{fill-rule:evenodd;clip-rule:evenodd;fill:#64C557;}
	.st1{fill:#118AB2;}
	.st2{fill:#00F8B7;}
	.st3{fill:#09BD8E;}
	.st4{fill:#FFE3A3;}
	.st5{fill:#FFBB1D;}
	.st6{fill:#FF965E;}
	.st7{fill:#D94C00;}
	.st8{fill:#06D6A0;}
	.st9{fill:#FFD166;}
	.st10{fill:#F3722C;}
</style>
<path class="st0" d="M466.4,375l0-249.7L250,0.2l0,249.8L33.5,375L250,500l216.3-124.9l0.1,0.1V375L466.4,375L466.4,375z"/>
<path class="st1" d="M33.6,125.2l216.5-125l0,250l-216.5,125L33.6,125.2z"/>
<path class="st2" d="M250.1,0l216.5,125l-72.2,41.7L178,41.7L250.1,0z"/>
<path class="st3" d="M394.3,166.6l0,83.3l-216.5-125l0-83.3L394.3,166.6z"/>
<path class="st4" d="M177.7,125l216.5,125L322,291.7l-216.5-125L177.7,125z"/>
<path class="st5" d="M322.8,292.1l0,83.3l-216.5-125l0-83.3L322.8,292.1z"/>
<path class="st6" d="M105.7,250l216.5,125L250,416.7l-216.5-125L105.7,250z"/>
<path class="st7" d="M249.9,416.6l0,83.3l-216.5-125l0-83.3L249.9,416.6z"/>
<path class="st8" d="M394.4,166.6l72.2-41.7l0,250l-72.2,41.7L394.4,166.6z"/>
<path class="st9" d="M322.1,291.6l72.2-41.7l0,166.6l-72.2,41.7L322.1,291.6z"/>
<path class="st10" d="M249.7,416.6l72.2-41.7l0,83.3l-72.2,41.7L249.7,416.6z"/>
</svg>
