<?xml version="1.0" encoding="utf-8"?>
<!-- Generator: Adobe Illustrator 25.2.0, SVG Export Plug-In . SVG Version: 6.00 Build 0)  -->
<svg version="1.1" id="steth" xmlns="http://www.w3.org/2000/svg" xmlns:xlink="http://www.w3.org/1999/xlink" x="0px" y="0px"
	 viewBox="0 0 500 500" style="enable-background:new 0 0 500 500;" xml:space="preserve">
<style type="text/css">
	.st0{fill:#00A3FF;}
	.st1{opacity:0.6;fill:#00A3FF;enable-background:new    ;}
	.st2{opacity:0.2;fill:#00A3FF;enable-background:new    ;}
</style>
<path class="st0" d="M103.4,224.1l-4,6.1c-45,69-34.9,159.4,24.2,217.3c34.8,34.1,80.3,51.1,125.9,51.1
	C249.5,498.6,249.5,498.6,103.4,224.1z"/>
<path class="st1" d="M249.5,307.5l-146.1-83.4c146.1,274.5,146.1,274.5,146.1,274.5C249.5,438.8,249.5,370.3,249.5,307.5z"/>
<path class="st1" d="M395.7,224.1l4,6.1c45,69,34.9,159.4-24.2,217.3c-34.8,34.1-80.3,51.1-125.9,51.1
	C249.6,498.6,249.6,498.6,395.7,224.1z"/>
<path class="st2" d="M249.6,307.5l146.1-83.4C249.6,498.6,249.6,498.6,249.6,498.6C249.6,438.8,249.6,370.3,249.6,307.5z"/>
<path class="st2" d="M249.6,121.1V265l125.8-71.9L249.6,121.1z"/>
<path class="st1" d="M249.6,121.1l-125.9,72L249.6,265V121.1z"/>
<path class="st0" d="M249.6,0.1l-125.9,193l125.9-72.2V0.1z"/>
<path class="st1" d="M249.6,120.9l125.9,72.2L249.6,0V120.9z"/>
</svg>
