<?xml version="1.0" encoding="iso-8859-1"?>
<!-- Generator: Adobe Illustrator 19.0.0, SVG Export Plug-In . SVG Version: 6.00 Build 0)  -->
<svg version="1.1" id="Layer_1" xmlns="http://www.w3.org/2000/svg" xmlns:xlink="http://www.w3.org/1999/xlink" x="0px" y="0px"
	 viewBox="0 0 500 500" style="enable-background:new 0 0 500 500;" xml:space="preserve">
<g>
	<path style="fill:#6B38DD;" d="M188.99,487.531c-24.686-5.193-47.26-15.527-68.633-28.6
		c-42.344-25.899-73.694-61.746-94.83-106.483c-11.754-24.88-18.77-51.144-21.612-78.602c-3.107-30.015,0.243-59.257,7.28-88.498
		c14.02-58.253,48.48-101.953,95.707-136.616c31.863-23.386,67.952-37.161,106.904-43.059c26.112-3.954,52.315-3.585,78.334,1.535
		c0.351,0.069,0.615,0.574,0.918,0.876c-0.434,2.521-2.31,4.194-3.693,6.129C260.689,54.332,231.98,94.427,203.28,134.53
		c-23.316,32.58-46.623,65.167-69.943,97.744c-13.573,18.961-27.183,37.895-40.712,56.887c-1.2,1.684-3.239,3.089-2.636,6.412
		c44.761,0,89.593,0,135.269,0c-3.901,15.951-6.547,31.243-9.305,46.459c-2.984,16.462-6.074,32.952-8.976,49.447
		C201.335,423.558,195.024,455.52,188.99,487.531z"/>
	<path style="fill:#6B38DD;" d="M310.298,11.132c57.94,15.004,104.38,47.018,139.284,95.424
		c33.754,46.812,49.019,99.594,45.915,157.019c-2.677,49.521-19.653,94.451-49.8,133.978c-40.389,52.955-93.978,84.387-159.485,95.2
		c-26.526,4.379-53.249,4.413-79.721-1.484c0.474-0.975,0.818-2.041,1.439-2.912c37.244-52.26,74.216-104.718,111.934-156.635
		c13.389-18.429,26.123-37.298,39.479-55.735c15.616-21.557,31.357-43.024,46.997-64.564c1.223-1.684,3.197-3.11,2.645-6.28
		c-44.227,0-88.504,0-132.467,0c-1.954-3.149-0.805-5.748-0.354-8.246c5.063-28.049,10.168-56.091,15.327-84.123
		C297.727,78.888,304.026,45.013,310.298,11.132z"/>
	<path style="fill:#FDFCFD;" d="M310.298,11.132c-6.272,33.881-12.571,67.756-18.808,101.643
		c-5.159,28.032-10.264,56.073-15.327,84.123c-0.451,2.498-1.6,5.097,0.354,8.246c43.963,0,88.24,0,132.467,0
		c0.552,3.169-1.422,4.595-2.645,6.28c-15.64,21.54-31.382,43.006-46.997,64.564c-13.355,18.437-26.09,37.306-39.479,55.735
		c-37.718,51.916-74.69,104.374-111.934,156.635c-0.62,0.87-0.965,1.937-1.439,2.912c-5.832-1.246-11.664-2.491-17.498-3.737
		c6.032-32.011,12.342-63.973,17.986-96.053c2.902-16.496,5.993-32.985,8.976-49.447c2.758-15.216,5.404-30.508,9.305-46.459
		c-45.677,0-90.509,0-135.269,0c-0.603-3.323,1.436-4.728,2.636-6.412c13.529-18.992,27.139-37.926,40.712-56.887
		c23.32-32.577,46.627-65.164,69.943-97.744c28.7-40.103,57.409-80.198,86.086-120.317c1.383-1.935,3.259-3.607,3.693-6.129
		C299.103,7.425,304.61,9.788,310.298,11.132z"/>
</g>
</svg>
