<?xml version="1.0" encoding="iso-8859-1"?>
<!-- Generator: Adobe Illustrator 19.0.0, SVG Export Plug-In . SVG Version: 6.00 Build 0)  -->
<svg version="1.1" id="Layer_1" xmlns="http://www.w3.org/2000/svg" xmlns:xlink="http://www.w3.org/1999/xlink" x="0px" y="0px"
	 viewBox="1000 -1000 2500 2500" style="enable-background:new 1000 -1000 2500 2500;" xml:space="preserve">
<path style="fill:#01A4DF;" d="M1198.633-113.102L2268.014,560.81c0.695,0.478,1.613,0.478,2.308,0l1090.966-689.117
	c1.012-0.644,1.311-1.986,0.667-2.999c-0.171-0.268-0.398-0.496-0.667-0.667l-1080.92-688.846c-0.706-0.442-1.602-0.442-2.308,0
	L1198.633-116.768c-1.012,0.775-1.205,2.223-0.43,3.235C1198.327-113.37,1198.471-113.226,1198.633-113.102z M2268.014,1350.932
	c-14.21,0.013-28.12-4.089-40.049-11.811L1082.694,601.538c-0.793-0.838-0.793-2.149,0-2.987l48.738-75.89
	c0.838-0.793,2.149-0.793,2.987,0l1133.052,729.845c0.706,0.442,1.602,0.442,2.308,0L3343.64,562.438
	c24.618-15.751,39.471-42.999,39.37-72.224v-169.7c-0.063-1.198-1.086-2.118-2.283-2.055c-0.343,0.018-0.677,0.117-0.975,0.29
	l-1084.586,690.746c-24.23,15.412-55.189,15.412-79.419,0L1119.756,312.234c-54.25-34.03-87.178-93.577-87.158-157.617V-83.099
	c0.001-19.193,7.447-37.638,20.771-51.453l3.665-2.987l21.043-14.391L2240.86-909.606l1.222-0.679
	c23.806-13.606,53.197-12.873,76.297,1.901l1123.956,715.998c34.565,21.936,44.803,67.739,22.866,102.304
	c-5.846,9.212-13.654,17.02-22.866,22.867L2308.742,648.511c-24.129,15.085-54.748,15.085-78.876,0L1130.21-43.864
	c-1.039-0.6-2.367-0.244-2.967,0.795c-0.194,0.336-0.294,0.718-0.291,1.106v196.58c-0.123,31.538,15.979,60.924,42.629,77.79
	l1084.857,689.524c0.706,0.443,1.602,0.443,2.308,0L3363.325,215.98c28.007-17.853,64.478-14.855,89.194,7.331
	c15.723,15.007,24.355,35.971,23.758,57.698v208.527c0.187,61.467-31.05,118.768-82.814,151.915l-1086.079,697.942
	C2295.608,1346.867,2281.961,1350.867,2268.014,1350.932L2268.014,1350.932z"/>
</svg>
