<svg width="24" height="24" viewBox="0 0 24 24" fill="currentColor" xmlns="http://www.w3.org/2000/svg">
<path fill-rule="evenodd" clip-rule="evenodd" d="M16.2055 3.40057C16.6784 3.40057 17.0619 3.78398 17.0619 4.25694V7.12897L18.1878 7.50646C20.1667 8.16996 21.5003 10.0237 21.5003 12.1109V16.2095C21.5003 16.6824 21.1169 17.0658 20.644 17.0658C20.171 17.0658 19.7876 16.6824 19.7876 16.2095V12.1109C19.7876 10.7598 18.9243 9.55985 17.6433 9.13035L15.9333 8.55702C15.5843 8.44002 15.3491 8.11312 15.3491 7.74507V4.25694C15.3491 3.78398 15.7325 3.40057 16.2055 3.40057Z" />
<path fill-rule="evenodd" clip-rule="evenodd" d="M10.9316 3.40057C11.4046 3.40057 11.788 3.78398 11.788 4.25694V7.2681C11.788 7.64419 11.5426 7.97627 11.1831 8.08671L8.08885 9.03729C6.2094 9.61467 4.9266 11.3507 4.9266 13.3169V17.5532C4.9266 18.0262 4.54319 18.4096 4.07023 18.4096C3.59728 18.4096 3.21387 18.0262 3.21387 17.5532V13.3169C3.21387 10.5985 4.98742 8.19834 7.58588 7.40007L10.0752 6.63532V4.25694C10.0752 3.78398 10.4587 3.40057 10.9316 3.40057Z" />
<path fill-rule="evenodd" clip-rule="evenodd" d="M13.6889 1.40057C14.1618 1.40057 14.5453 1.78398 14.5453 2.25694V14.666C14.5453 15.1389 14.1618 15.5224 13.6889 15.5224C13.2159 15.5224 12.8325 15.1389 12.8325 14.666V2.25694C12.8325 1.78398 13.2159 1.40057 13.6889 1.40057Z" />
<path fill-rule="evenodd" clip-rule="evenodd" d="M8.16252 1.40045C8.63548 1.40045 9.01889 1.78386 9.01889 2.25682V13.9171C9.01889 14.39 8.63548 14.7734 8.16252 14.7734C7.68956 14.7734 7.30615 14.39 7.30615 13.9171V2.25682C7.30615 1.78386 7.68956 1.40045 8.16252 1.40045Z" />
<path fill-rule="evenodd" clip-rule="evenodd" d="M13.6887 15.7984C12.9332 15.7984 12.3206 16.4109 12.3206 17.1665C12.3206 17.922 12.9332 18.5346 13.6887 18.5346C14.4443 18.5346 15.0568 17.922 15.0568 17.1665C15.0568 16.4109 14.4443 15.7984 13.6887 15.7984ZM10.6079 17.1665C10.6079 15.465 11.9872 14.0856 13.6887 14.0856C15.3902 14.0856 16.7696 15.465 16.7696 17.1665C16.7696 18.868 15.3902 20.2473 13.6887 20.2473C11.9872 20.2473 10.6079 18.868 10.6079 17.1665Z" />
<path fill-rule="evenodd" clip-rule="evenodd" d="M4.20583 18.9731C3.45025 18.9731 2.83773 19.5856 2.83773 20.3412C2.83773 21.0968 3.45025 21.7093 4.20583 21.7093C4.96141 21.7093 5.57393 21.0968 5.57393 20.3412C5.57393 19.5856 4.96141 18.9731 4.20583 18.9731ZM1.125 20.3412C1.125 18.6397 2.50434 17.2604 4.20583 17.2604C5.90733 17.2604 7.28667 18.6397 7.28667 20.3412C7.28667 22.0427 5.90733 23.422 4.20583 23.422C2.50434 23.422 1.125 22.0427 1.125 20.3412Z" />
<path d="M8.16235 16.4549C9.2986 16.4549 10.2197 15.5338 10.2197 14.3975C10.2197 13.2613 9.2986 12.3401 8.16235 12.3401C7.0261 12.3401 6.10498 13.2613 6.10498 14.3975C6.10498 15.5338 7.0261 16.4549 8.16235 16.4549Z" />
<path d="M20.6335 19.7081C21.7698 19.7081 22.6909 18.787 22.6909 17.6508C22.6909 16.5145 21.7698 15.5934 20.6335 15.5934C19.4973 15.5934 18.5762 16.5145 18.5762 17.6508C18.5762 18.787 19.4973 19.7081 20.6335 19.7081Z" />
<path fill-rule="evenodd" clip-rule="evenodd" d="M20.6335 18.6638C21.193 18.6638 21.6466 18.2102 21.6466 17.6508C21.6466 17.0913 21.193 16.6377 20.6335 16.6377C20.0741 16.6377 19.6205 17.0913 19.6205 17.6508C19.6205 18.2102 20.0741 18.6638 20.6335 18.6638ZM22.6909 17.6508C22.6909 18.787 21.7698 19.7081 20.6335 19.7081C19.4973 19.7081 18.5762 18.787 18.5762 17.6508C18.5762 16.5145 19.4973 15.5934 20.6335 15.5934C21.7698 15.5934 22.6909 16.5145 22.6909 17.6508Z" />
</svg>
