<?xml version="1.0" encoding="iso-8859-1"?>
<!-- Generator: Adobe Illustrator 19.0.0, SVG Export Plug-In . SVG Version: 6.00 Build 0)  -->
<svg version="1.1" id="Layer_1" xmlns="http://www.w3.org/2000/svg" xmlns:xlink="http://www.w3.org/1999/xlink" x="0px" y="0px"
	 viewBox="1000 -1000 2500 2500" style="enable-background:new 1000 -1000 2500 2500;" xml:space="preserve">
<g id="Substratum">
	<g id="sub">
		<g id="Group">
			<g id="Vector" transform="translate(-157 -292)">
				<path id="path0_fill" style="fill:#E53431;" d="M2407,1764.544c675.034,0,1222.544-547.51,1222.544-1222.544
					S3082.034-680.544,2407-680.544S1184.456-133.034,1184.456,542S1731.966,1764.544,2407,1764.544z"/>
			</g>
			<g id="Vector_1_" transform="translate(-149 -286.738)">
				<path id="path1_fill" style="fill:#FFFFFF;" d="M2144.479-252.32c3.162-2.635,7.377-3.689,11.593-3.689
					s8.431,1.054,11.593,3.689l95.906,72.193c5.27,4.216,8.431,11.066,7.377,17.39c-1.054,6.85-5.27,12.647-11.593,15.282
					c-6.323,2.635-13.701,1.581-18.97-2.108l-84.313-63.235L1881-6.757l1207.263,905.842c4.743,3.689,7.905,9.485,7.905,15.282
					c0,5.796-2.635,11.593-7.904,15.282l-88.53,66.924c-3.162,2.635-7.377,3.689-11.593,3.689c-8.431,0-15.809-5.27-18.444-13.174
					c-2.635-7.904,0-16.336,6.85-21.605l68.505-51.115L1837.789,9.052c-4.743-3.689-7.904-9.485-7.904-15.282
					s3.162-11.593,7.904-15.282L2144.479-252.32L2144.479-252.32z M2451.169-252.32c6.851-5.27,16.336-5.27,22.659,0
					l613.907,460.562c6.851,4.743,9.485,13.701,6.851,21.078c-2.635,7.904-10.012,13.174-17.917,13.174h-307.217
					c-4.216,0-8.431-1.581-11.593-3.689L2355.262-63.141c-5.27-4.216-8.431-11.066-7.377-17.39
					c1.054-6.85,5.27-12.647,11.593-15.282c6.323-2.635,13.701-1.581,18.97,2.108l397.854,298.259h242.928l-556.469-417.351
					L2077.555,75.976c-8.431,6.324-20.551,4.743-26.875-3.689c-6.324-8.431-4.743-20.551,3.689-26.875L2451.169-252.32
					L2451.169-252.32z M1922.102,145.007c3.162-2.635,7.377-3.689,11.593-3.689c5.797,0,11.593,2.635,15.282,7.904
					c3.162,4.216,4.216,8.958,3.689,14.228c-0.527,5.27-3.162,9.485-7.377,12.647L1881,224.051l1207.263,905.842
					c4.743,3.689,7.904,9.485,7.904,15.282c0,5.796-2.635,11.593-7.904,15.282l-307.217,230.281
					c-3.162,2.635-7.377,3.689-11.593,3.689c-4.216,0-8.431-1.581-11.593-3.689l-88.529-66.397
					c-5.27-4.216-8.431-11.066-7.377-17.917s5.27-12.647,11.593-15.282c6.323-2.635,13.701-1.581,18.97,2.108l76.936,57.965
					l275.073-206.041L1837.262,238.806c-4.743-3.689-7.377-9.485-7.377-15.282c0-5.797,2.635-11.593,7.377-15.282L1922.102,145.007
					L1922.102,145.007z M1848.855,895.397h306.69c4.216,0,8.431,1.054,11.593,3.689l398.381,298.786
					c8.431,6.323,10.012,18.443,3.689,26.875c-6.323,8.431-18.444,10.012-26.875,3.689l-393.111-295.097h-242.928l556.469,417.351
					l384.153-288.246c8.431-6.324,20.551-4.743,26.875,3.689c6.323,8.431,4.742,20.552-3.689,26.875l-395.746,296.678
					c-3.162,2.635-7.377,3.689-11.593,3.689c-4.216,0-8.431-1.054-11.593-3.689l-613.907-460.562
					c-6.323-5.27-8.958-13.701-6.85-21.605C1833.573,900.139,1840.951,894.869,1848.855,895.397z"/>
			</g>
		</g>
	</g>
</g>
</svg>
