<?xml version="1.0" encoding="utf-8"?>
<!-- Generator: Adobe Illustrator 25.2.0, SVG Export Plug-In . SVG Version: 6.00 Build 0)  -->
<svg version="1.1" id="super" xmlns="http://www.w3.org/2000/svg" xmlns:xlink="http://www.w3.org/1999/xlink" x="0px" y="0px"
	 viewBox="0 0 500 500" style="enable-background:new 0 0 500 500;" xml:space="preserve">
<style type="text/css">
	.st0{fill:#7B00FF;}
	.st1{fill:#FFFFFF;}
</style>
<circle class="st0" cx="250.1" cy="249.9" r="249.9"/>
<path class="st1" d="M371.5,60.9c0.3,27-6.8,49.1-21.9,68.4c-22.1,28.2-52.5,43.1-86.1,52.2c-19.2,5.2-38.9,8.4-56.2,12
	c19.8,5.5,42,11,63.8,17.9c25,7.9,47.7,20.6,68.1,37.2c33,27,33.3,72.7,0.8,102.5c-18.1,16.6-40.4,24.3-63.4,30.6
	c-33.1,9-66.3,17.6-99.3,27.2c-16.7,4.9-30.1,15.5-40.9,29.5c-20.5-38.6-3.5-82.9,38.3-102c38.3-17.6,79.2-24.9,123.5-30.9
	c-7.1-1.6-11.5-2.6-15.8-3.6c-4.5-1-8.9-2.1-13.4-3.1c-37.7-8.7-73.3-21.9-104.2-46.1c-36.7-28.8-37.6-76.7-1.8-107
	c17.3-14.7,37.8-22.4,59.3-28.1c33.6-8.8,67.3-17.1,100.9-26.1C341.3,86.7,358.3,79,371.5,60.9z"/>
<path class="st1" d="M274.8,194.5c32-10.3,61.1-25.6,83.8-51.6c7.9,21.5-4.6,69.2-20.6,83.2C317,215.5,296.2,205.2,274.8,194.5z"/>
</svg>
