<?xml version="1.0" encoding="utf-8"?>
<!-- Generator: Adobe Illustrator 23.0.3, SVG Export Plug-In . SVG Version: 6.00 Build 0)  -->
<svg version="1.1" id="suqa" xmlns="http://www.w3.org/2000/svg" xmlns:xlink="http://www.w3.org/1999/xlink" x="0px" y="0px"
	 viewBox="0 0 500 500" style="enable-background:new 0 0 500 500;" xml:space="preserve">
<style type="text/css">
	.st0{fill:#E5642A;}
	.st1{fill:#1E3566;}
</style>
<path class="st0" d="M259.4,12.5v177.6c0,0,32.5,16.4,71.4,49.8c40.3,34.5,51,58.3,51,71.4c0,24.9-18.7,56-48,94.7
	c-33.7,44.4-72.5,82.3-72.5,82.3s115.5-80,165.3-131.3s70.2-85.3,70.2-114s-23.4-69.4-88.3-125.3S259.4,12.5,259.4,12.5z"/>
<path class="st1" d="M240.1,488.2V310.6c0,0-32.5-16.4-71.4-49.8c-40.3-34.5-51-58.3-51-71.4c0-24.9,18.7-56,48-94.7
	c33.7-44.4,72.5-82.3,72.5-82.3s-115.5,80-165.3,131.3s-70.2,85.3-70.2,114S26,327.2,90.9,383.1S240.1,488.2,240.1,488.2z"/>
</svg>
