<svg width="49" height="48" viewBox="0 0 49 48" fill="none" xmlns="http://www.w3.org/2000/svg">
<g clip-path="url(#clip0_4239_13815)">
<path d="M10.2996 4.59766L47.4996 29.9977L38.2996 43.5977L1.09961 17.9977L10.2996 4.59766Z" fill="url(#paint0_linear_4239_13815)"/>
<path d="M47.5005 29.9985C44.3005 34.5985 33.5005 32.7985 23.3005 25.5985C12.9005 18.5985 7.30045 9.19849 10.3005 4.59849C13.5005 -0.00151443 24.3005 1.79849 34.5005 8.99849C44.9005 15.7985 50.5005 25.3985 47.5005 29.9985Z" fill="url(#paint1_linear_4239_13815)"/>
<path d="M38.3001 43.3977C35.1001 47.9977 24.3001 46.1977 14.1001 38.9977C3.90007 31.7977 -1.89994 22.5977 1.30007 17.7977C4.50006 13.1977 15.3001 14.9977 25.5001 22.1977C35.7001 29.3977 41.3001 38.7977 38.3001 43.3977Z" fill="url(#paint2_linear_4239_13815)"/>
<path d="M47.5 30.0004L38.3 43.6004C35.1 48.2004 24.3 46.2004 14.1 39.2004C12.1 37.8004 10.3 36.4004 8.5 34.8004C9.9 34.6004 11.7 33.8004 13.5 31.8004C16.7 28.4004 18.3 27.6004 19.7 27.8004C21.1 27.8004 22.7 29.2004 25.3 32.6004C27.9 36.0004 31.5 37.0004 33.7 35.2004C33.9 35.0004 34.1 35.0004 34.3 34.8004C36.1 33.4004 36.7 32.8004 40.1 26.4004C40.9 24.8004 43.7 22.2004 47.5 23.4004C48.5 26.0004 48.5 28.2004 47.5 30.0004Z" fill="#0E0F23"/>
<path fill-rule="evenodd" clip-rule="evenodd" d="M46.1003 29.1981C43.3004 33.1981 33.5003 31.1981 24.1003 24.5981C14.5003 17.9981 8.90035 9.5981 11.7003 5.5981C14.5003 1.5981 24.3004 3.5981 33.7004 10.1981C43.1003 16.7981 48.7003 25.1981 46.1003 29.1981ZM37.3004 23.1981C35.9004 25.1981 31.1003 24.1981 26.3004 20.9981C21.7003 17.7981 18.9004 13.5981 20.3004 11.5981C21.7003 9.5981 26.5003 10.5981 31.3004 13.7981C35.9004 16.9981 38.7003 21.1981 37.3004 23.1981Z" fill="white"/>
<path d="M9.5002 9.19691C9.5002 8.99691 9.3002 8.79691 9.1002 8.99691C8.9002 9.19691 8.7002 9.1969 8.7002 9.3969C8.9002 9.9969 9.1002 10.3969 9.1002 10.7969C9.1002 10.9969 9.3002 11.1969 9.5002 10.9969C9.7002 10.9969 9.9002 10.7969 9.7002 10.5969C9.7002 10.1969 9.7002 9.79691 9.5002 9.19691Z" fill="white"/>
<path d="M10.5004 12.4C10.5004 12.2 10.3004 12 10.1004 12.2C9.90039 12.4 9.90039 12.4 9.90039 12.6C12.1004 17.6 16.7004 23 22.7004 27C22.9004 27.2 23.1004 27 23.3004 27C23.5004 26.8 23.3004 26.6 23.3004 26.4C17.1004 22.4 12.7004 17.2 10.5004 12.4Z" fill="white"/>
<path d="M34.6998 32C34.4998 32 34.2998 32 34.2998 32.2C34.2998 32.4 34.2998 32.6 34.4998 32.6C35.0998 32.8 35.8998 33 36.4998 33.2C36.6998 33.2 36.8998 33.2 36.8998 33C36.8998 32.8 36.8998 32.6 36.6998 32.6C36.0998 32.4 35.2998 32.2 34.6998 32Z" fill="white"/>
<path d="M38.3004 32.7969C38.1004 32.7969 37.9004 32.9969 37.9004 33.1969C37.9004 33.3969 38.1004 33.5969 38.3004 33.5969C39.9004 33.7969 41.7004 33.9969 43.1004 33.7969C43.3004 33.7969 43.5004 33.5969 43.5004 33.3969C43.5004 33.1969 43.3004 32.9969 43.1004 32.9969C41.5004 33.1969 39.9004 32.9969 38.3004 32.7969Z" fill="white"/>
</g>
<defs>
<linearGradient id="paint0_linear_4239_13815" x1="17.588" y1="0.986256" x2="24.9652" y2="26.3187" gradientUnits="userSpaceOnUse">
<stop stop-color="#03B8FF"/>
<stop offset="1" stop-color="#FA52A0"/>
</linearGradient>
<linearGradient id="paint1_linear_4239_13815" x1="23.6641" y1="-0.782315" x2="31.0415" y2="24.5503" gradientUnits="userSpaceOnUse">
<stop stop-color="#03B8FF"/>
<stop offset="1" stop-color="#FA52A0"/>
</linearGradient>
<linearGradient id="paint2_linear_4239_13815" x1="11.5321" y1="2.7499" x2="18.9095" y2="28.0825" gradientUnits="userSpaceOnUse">
<stop stop-color="#03B8FF"/>
<stop offset="1" stop-color="#FA52A0"/>
</linearGradient>
<clipPath id="clip0_4239_13815">
<rect width="48" height="48" fill="white" transform="translate(0.299805)"/>
</clipPath>
</defs>
</svg>
