<?xml version="1.0" encoding="utf-8"?>
<!-- Generator: Adobe Illustrator 25.1.0, SVG Export Plug-In . SVG Version: 6.00 Build 0)  -->
<svg version="1.1" id="sushi" xmlns="http://www.w3.org/2000/svg" xmlns:xlink="http://www.w3.org/1999/xlink" x="0px" y="0px"
	 viewBox="0 0 500 500" style="enable-background:new 0 0 500 500;" xml:space="preserve">
<style type="text/css">
	.st0{fill:#FFFFFF;}
	.st1{fill:url(#SVGID_1_);}
	.st2{fill:none;stroke:#FFFFFF;stroke-width:6.2261;stroke-linecap:round;stroke-miterlimit:10;}
</style>
<path class="st0" d="M360,97C257.3,23.2,146.4,1.9,112.3,49.3c-19.5,27.2-77,107.1-96.5,134.3C-18.2,231,37.4,329.3,140.1,403.1
	s213.6,95.2,247.7,47.8c19.5-27.2,77-107.1,96.5-134.3C518.4,269.1,462.7,170.8,360,97z"/>
<linearGradient id="SVGID_1_" gradientUnits="userSpaceOnUse" x1="295.3846" y1="372.5581" x2="172.759" y2="44.9177">
	<stop  offset="0.244" style="stop-color:#FC51A1"/>
	<stop  offset="1" style="stop-color:#1AB0ED"/>
</linearGradient>
<path class="st1" d="M477.3,247.6c-51.8-16.1-61.1,22.9-79.7,46.2c-19.3,24.3-26.8,39.3-51.1,61.7c-24.3,22.4-54.8,9.4-67.9,0
	c-13.1-9.4-19-20.6-47.1-54.8c-28-34.3-58.6-6.2-72.9,6.2c-14.3,12.5-34.6,32.4-48.9,40.5c-5.9,3.3-11.9,4.7-16.8,5.1
	C28.7,290.3-2.5,221.5,23.6,185.1C42.2,159.2,97,83,115.6,57.1c32.5-45.2,141.3-23.3,239.3,47.1
	C416.4,148.3,460.8,202.3,477.3,247.6z"/>
<path d="M475,315c-18.6,25.9-73.4,102.2-92,128.1c-32.5,45.2-139.8,23.3-237.7-47.1c-19.1-13.8-36.7-28.5-52.3-43.6
	c4.9-0.4,10.8-1.7,16.8-5.1c14.3-8.1,34.6-28,48.9-40.5c14.3-12.5,44.9-40.5,72.9-6.2c28,34.3,34,45.5,47.1,54.8
	c13.1,9.4,43.6,22.4,67.9,0c24.3-22.4,31.8-37.4,51.1-61.7c18.5-23.3,27.9-62.3,79.7-46.2C487.1,274.4,487.1,298.2,475,315z"/>
<path class="st2" d="M371.6,335.1c-4.8-1.1-9.8-2.3-14.8-3.8"/>
<path class="st2" d="M431.2,337.7c-13.8,2.8-30.3,2.6-48.7-0.5"/>
<path class="st2" d="M107.4,109.4c-0.5-3.1-0.8-6.1-1-9.1"/>
<path class="st2" d="M179,223.5c-36-35.4-60.6-72.3-69.2-103.4"/>
<path class="st0" d="M346.1,116.1c-92.9-66.2-190.5-88.5-218-49.9S153.5,189.8,246.4,256c92.9,66.2,190.5,88.5,218,49.9
	C492,267.3,439,182.3,346.1,116.1z M379.8,245.6c-13,18.2-60.9,6.3-107.1-26.7c-46.2-32.9-73.1-74.3-60.1-92.5
	c13-18.2,60.9-6.3,107.1,26.7C365.9,186,392.8,227.5,379.8,245.6z"/>
</svg>
