<?xml version="1.0" encoding="utf-8"?>
<!-- Generator: Adobe Illustrator 25.2.0, SVG Export Plug-In . SVG Version: 6.00 Build 0)  -->
<svg version="1.1" id="suter" xmlns="http://www.w3.org/2000/svg" xmlns:xlink="http://www.w3.org/1999/xlink" x="0px" y="0px"
	 viewBox="0 0 500 500" style="enable-background:new 0 0 500 500;" xml:space="preserve">
<style type="text/css">
	.st0{fill:#232227;}
	.st1{fill:#AF74FD;}
</style>
<path class="st0" d="M293,53.7l-146,146c-9.5,9.5-24.9,9.5-34.4,0l0,0c-9.5-9.5-9.5-24.9,0-34.4l146-146c9.5-9.5,24.9-9.5,34.4,0
	l0,0C302.5,28.8,302.5,44.2,293,53.7z"/>
<path class="st0" d="M373.9,333l-146,146c-9.5,9.5-24.9,9.5-34.4,0l0,0c-9.5-9.5-9.5-24.9,0-34.4l146-146c9.5-9.5,24.9-9.5,34.4,0
	l0,0C383.4,308,383.4,323.5,373.9,333z"/>
<path class="st0" d="M231.2,235.1L139,327.2c-9.5,9.5-24.9,9.5-34.4,0l0,0c-9.5-9.5-9.5-24.9,0-34.4l92.2-92.2
	c9.5-9.5,24.9-9.5,34.4,0l0,0C240.7,210.1,240.7,225.6,231.2,235.1z"/>
<path class="st1" d="M386.9,201.6l-92.2,92.2c-9.5,9.5-24.9,9.5-34.4,0l0,0c-9.5-9.5-9.5-24.9,0-34.4l92.2-92.2
	c9.5-9.5,24.9-9.5,34.4,0l0,0C396.5,176.7,396.5,192.1,386.9,201.6z"/>
</svg>
