<svg width="24" height="24" viewBox="0 0 24 24" fill="currentColor" xmlns="http://www.w3.org/2000/svg">
<path fill-rule="evenodd" clip-rule="evenodd" d="M9.42498 3.08197C10.9318 2.64612 12.5245 2.59908 14.0544 2.94525C15.5843 3.29141 17.0016 4.0195 18.1741 5.06157C19.3465 6.10363 20.2358 7.42572 20.7591 8.90446C20.9302 9.38793 20.677 9.91855 20.1935 10.0896C19.71 10.2607 19.1794 10.0075 19.0083 9.52401C18.5897 8.34101 17.8782 7.28335 16.9403 6.44969C16.0023 5.61604 14.8685 5.03357 13.6446 4.75664C12.4206 4.47971 11.1465 4.51734 9.94101 4.86602C8.73555 5.2147 7.63806 5.86307 6.75095 6.75062C6.74409 6.75749 6.73712 6.76424 6.73005 6.77089L4.12979 9.21423H7.35706C7.8699 9.21423 8.28564 9.62998 8.28564 10.1428C8.28564 10.6557 7.8699 11.0714 7.35706 11.0714H1.78552C1.27268 11.0714 0.856934 10.6557 0.856934 10.1428V4.57129C0.856934 4.05844 1.27268 3.6427 1.78552 3.6427C2.29837 3.6427 2.71411 4.05844 2.71411 4.57129V7.99605L5.44797 5.42717C6.555 4.32314 7.92293 3.51644 9.42498 3.08197ZM15.7144 13.8572C15.7144 13.3443 16.1301 12.9286 16.6429 12.9286H22.2145C22.7273 12.9286 23.1431 13.3443 23.1431 13.8572V19.4287C23.1431 19.9416 22.7273 20.3573 22.2145 20.3573C21.7016 20.3573 21.2859 19.9416 21.2859 19.4287V16.0039L18.552 18.5728C17.445 19.6769 16.0771 20.4836 14.575 20.918C13.0682 21.3539 11.4755 21.4009 9.94559 21.0548C8.41567 20.7086 6.99837 19.9805 5.82594 18.9384C4.65351 17.8964 3.76416 16.5743 3.24089 15.0955C3.0698 14.6121 3.32304 14.0815 3.80651 13.9104C4.28997 13.7393 4.82059 13.9925 4.99168 14.476C5.4103 15.659 6.12178 16.7167 7.05972 17.5503C7.99766 18.384 9.1315 18.9664 10.3554 19.2434C11.5794 19.5203 12.8535 19.4827 14.059 19.134C15.2645 18.7853 16.3619 18.1369 17.2491 17.2494C17.2532 17.2453 17.2573 17.2412 17.2615 17.2371C17.2643 17.2344 17.2671 17.2318 17.27 17.2291L19.8702 14.7858H16.6429C16.1301 14.7858 15.7144 14.37 15.7144 13.8572Z" />
</svg>
