<?xml version="1.0" encoding="utf-8"?>
<!-- Generator: Adobe Illustrator 25.2.0, SVG Export Plug-In . SVG Version: 6.00 Build 0)  -->
<svg version="1.1" id="swap" xmlns="http://www.w3.org/2000/svg" xmlns:xlink="http://www.w3.org/1999/xlink" x="0px" y="0px"
	 viewBox="0 0 500 500" style="enable-background:new 0 0 500 500;" xml:space="preserve">
<style type="text/css">
	.st0{fill:url(#SVGID_1_);}
	.st1{fill:url(#SVGID_2_);}
</style>
<linearGradient id="SVGID_1_" gradientUnits="userSpaceOnUse" x1="56.8057" y1="208.0577" x2="290.5329" y2="304.1235">
	<stop  offset="8.385144e-04" style="stop-color:#0091F6"/>
	<stop  offset="1" style="stop-color:#00C6FE"/>
</linearGradient>
<path class="st0" d="M204.1,298.2c-12,8.3-28.6,17.8-42.3,17.8c-20.5,0-38-6.6-50.6-19.2c-11.9-11.8-18.5-28.2-18.5-46.1
	c0-29.4,20.7-54.4,49.1-62.5v22.6l79.6-52.1l-79.6-52.1v20.3C80,136.3,32.6,188.2,32.6,250.7c0,71.4,55.5,125.3,129.1,125.3
	c29,0,58.5-10.1,82.7-35.9c17.7-18.8,52.3-96.1,59.4-106.5C304.9,232.1,217.6,288.8,204.1,298.2z"/>
<linearGradient id="SVGID_2_" gradientUnits="userSpaceOnUse" x1="435.9812" y1="330.3152" x2="257.7146" y2="163.933">
	<stop  offset="8.385144e-04" style="stop-color:#0091F6"/>
	<stop  offset="1" style="stop-color:#00C6FE"/>
</linearGradient>
<path class="st1" d="M294.7,203.3c12-8.3,28.6-17.8,42.3-17.8c20.5,0,38,6.6,50.6,19.2c11.9,11.8,18.5,28.2,18.5,46.1
	c0,29.4-20.7,54.4-49.1,62.5v-22.6l-79.6,52.1L357,395v-20.3c61.7-9.4,109.1-61.3,109.1-123.8c0-71.4-55.5-125.3-129.1-125.3
	c-29,0-58.5,10.1-82.7,35.9c-17.7,18.8-52.3,96.1-59.4,106.5C193.9,269.5,281.1,212.7,294.7,203.3z"/>
</svg>
