<?xml version="1.0" encoding="utf-8"?>
<!-- Generator: Adobe Illustrator 23.0.4, SVG Export Plug-In . SVG Version: 6.00 Build 0)  -->
<svg version="1.1" id="sxdt" xmlns="http://www.w3.org/2000/svg" xmlns:xlink="http://www.w3.org/1999/xlink" x="0px" y="0px"
	 viewBox="0 0 500 500" style="enable-background:new 0 0 500 500;" xml:space="preserve">
<style type="text/css">
	.st0{fill-rule:evenodd;clip-rule:evenodd;fill:#FFFFFE;}
	.st1{fill-rule:evenodd;clip-rule:evenodd;fill:#ED9D2F;}
</style>
<polyline id="Fill-1" class="st0" points="91.8,147.2 249.8,66.9 407.5,147.2 376.4,165.3 249.8,100.5 122.6,165.4 91.8,147.2 "/>
<path id="Fill-2" class="st1" d="M250,114l-117.8,58.6l79.9,37.8c0,0,19.3,8.3,37.7,8.3c18.4,0,37.6-8.3,37.6-8.3l75.8-37.8L250,114
	"/>
<path id="Fill-3" class="st1" d="M263.9,371.1l103.8-53.5V197l-56.1,32c0,0-47.7,23.3-47.7,95.1V371.1"/>
<polyline id="Fill-4" class="st1" points="484,181.5 484,215.4 421.3,247.3 421.3,213.5 484,181.5 "/>
<path id="Fill-5" class="st1" d="M188.3,228.9l-56.1-32v120.6L236,371.1V324C236,252.2,188.3,228.9,188.3,228.9"/>
<polyline id="Fill-6" class="st0" points="121.9,225.4 121.9,191.7 5,132.1 5,166 91.1,209.7 91.1,345.4 236,419 236,385.4 
	121.9,327.1 121.9,225.4 "/>
<polyline id="Fill-7" class="st1" points="15.9,215.4 78.6,247.3 78.6,213.5 15.9,181.5 15.9,215.4 "/>
<polyline id="Fill-8" class="st0" points="408.8,176 378,191.7 378,327.1 263.9,385.4 263.9,419 408.8,345.4 408.8,209.7 494.9,166 
	494.9,132.1 408.8,176 "/>
</svg>
