<?xml version="1.0" encoding="utf-8"?>
<!-- Generator: Adobe Illustrator 25.0.1, SVG Export Plug-In . SVG Version: 6.00 Build 0)  -->
<svg version="1.1" id="sxp" xmlns="http://www.w3.org/2000/svg" xmlns:xlink="http://www.w3.org/1999/xlink" x="0px" y="0px"
	 viewBox="0 0 500 500" style="enable-background:new 0 0 500 500;" xml:space="preserve">
<style type="text/css">
	.st0{fill:url(#SVGID_1_);}
	.st1{fill-rule:evenodd;clip-rule:evenodd;fill:#FFFFFF;}
</style>
<linearGradient id="SVGID_1_" gradientUnits="userSpaceOnUse" x1="5707.52" y1="2795.7874" x2="12507.8701" y2="7448.667" gradientTransform="matrix(5.900102e-02 0 0 5.900102e-02 -301.4531 -61.8584)">
	<stop  offset="0" style="stop-color:#FF3B3B"/>
	<stop  offset="1" style="stop-color:#FF9914"/>
</linearGradient>
<circle class="st0" cx="250" cy="250" r="250"/>
<path class="st1" d="M240.9,90.2c-14.5,1.7-28,8.3-38.2,18.8c-7.7,7.6-14.9,15.4-22.7,23c-3.9,4-7.8,7.9-11.7,11.8
	c-3.9,3.9-8.3,8.1-12.3,12.2c-4.1,4.1-7.5,7.8-11.2,11.6c-5.9,5.9-11.8,11.8-17.7,17.8c-4.5,4.7-9,9.5-13.4,14.2
	c-2.6,2.8-5.5,5.4-8,8.3c-10.3,12.5-15.9,28.2-15.9,44.4c0,1,0,1.9,0.1,2.9c0.2,9.3,2.6,18.4,7.1,26.6c2.5,4.9,5.5,9.6,8.8,14.1
	c2.2,3.1,3.8,3,6.7,0.6c0.6-0.5,1.1-1,1.5-1.5c2.8-3,5.6-6,8.5-9c4.1-4.3,8.3-8.6,12.3-12.9c4.1-4.3,8.5-9.1,12.8-13.6
	c2-2.2,4.2-4.2,6.3-6.4c4.4-4.6,8.7-9.4,13-14c4.4-4.6,8.8-8.9,13.1-13.3s9.5-10,14.4-14.9c4.8-5,8.9-9.2,13.4-13.7
	c5.8-6,11.5-12.2,17.3-18.2c3.6-3.7,7.3-7.2,10.8-10.8c5-5,9.6-9.9,14.5-14.9c4.9-5,8.5-8.3,12.7-12.6c9.3-9.4,18.7-18.9,28-28.5
	c0.6-0.6,1.2-1.2,1.7-1.9c2.3-2.9,2.5-3.5-0.3-5.6c-4.3-3.4-9-6.4-13.8-9c-8.6-4-18-6.1-27.5-6.1h-0.5
	C247.3,89.6,244.1,89.8,240.9,90.2L240.9,90.2L240.9,90.2z M323.3,151.4h-0.6c-8.3,0-16.1,3.6-21.4,10c-0.5,0.5-1,1-1.5,1.5
	l-15.2,14.9c-5,5-10.4,10.4-15.6,15.6c-4.3,4.3-8.7,8.6-12.9,12.9c-4.3,4.3-8.9,9.2-13.5,13.7c-4.6,4.5-9.5,9.3-14.3,13.9l-17,17.1
	l-31.5,31.5c-13.9,14-27.9,28-41.7,41.9c-2.7,2.6-2.7,3,0,5.8c6.7,6.7,13.4,13.4,19.9,20.2c4,4.2,9.3,7.1,15,8
	c5.4,1.1,11,0.9,16.4-0.5c4-1,7.7-3,10.7-5.7l16.5-16c3.9-3.7,7.8-7.4,11.6-11.2c7.7-7.6,15.2-15.2,22.9-22.8
	c6.2-6.1,12.6-12.2,18.9-18.3l25.9-25.2c8.1-7.9,16.2-15.9,24.3-23.8c1.6-2.4,5-3.1,7.4-1.4c0.9,0.6,1.6,1.5,2,2.5
	c4.1,6.1,6.4,13.2,6.4,20.6c0,1.3-0.1,2.5-0.2,3.8c-0.7,7.4-3.7,14.4-8.7,19.9c-6,6.4-12.3,12.5-18.5,18.7c-4.4,4.4-9,8.7-13.4,13.1
	c-5.7,5.7-11.3,11.4-17.1,17.1c-0.8,0.9-1.6,1.9-2.5,2.8l-5.6,5.8c-4.2,4.2-8.5,8.3-12.6,12.5c-4.1,4.2-8.9,9.2-13.3,13.8
	c-0.4,0.4-0.8,0.7-1.2,1.1c-5,4.6-9.6,9.3-14.3,13.9c-2.2,2.2-4.4,4.4-6.6,6.6c-3.8,3.8-7.7,7.6-11.3,11.5c-2.2,2.3-2.2,3.8,0.4,5.6
	c4.3,3.3,8.9,6.3,13.8,8.8c12,5.4,25.4,7.3,38.5,5.5c13-1.5,25.2-7.1,34.8-15.9c7.4-6.5,13.9-13.7,20.8-20.7c5-5,10-10.3,15.3-15.4
	l14.4-14.5c4.4-4.4,8.7-8.9,13.1-13.2c4.4-4.4,9.9-9.6,14.9-14.5c5-4.9,10-9.9,14.9-15.2c4-4,7.6-8.4,11-12.9
	c6.2-9.4,10.1-20.1,11.3-31.3c0.7-5.6,0.7-11.2,0-16.7c-1.5-9.9-5.1-19.3-10.5-27.7c-3.9-5.9-8.6-11.3-13.9-16
	c-13.8-13.7-27.5-27.5-41-41.4c-5.9-6.6-14.4-10.4-23.3-10.4h-0.2L323.3,151.4L323.3,151.4z"/>
</svg>
