<?xml version="1.0" encoding="iso-8859-1"?>
<!-- Generator: Adobe Illustrator 19.0.0, SVG Export Plug-In . SVG Version: 6.00 Build 0)  -->
<svg version="1.1" id="Layer_1" xmlns="http://www.w3.org/2000/svg" xmlns:xlink="http://www.w3.org/1999/xlink" x="0px" y="0px"
	 viewBox="0 0 2000 2000" style="enable-background:new 0 0 2000 2000;" xml:space="preserve">
<path style="fill:#0283C6;" d="M1130.575,857.5c50.939-6.18,98.671,2.705,144.807,21.757c49.134,20.29,92.048,49.707,128.211,88.717
	c20.238,21.832,37.297,45.887,47.387,74.184c6.584,18.466,8.587,37.447,6.885,57.224c-4.631,53.826-28.973,98.894-61.189,140.412
	c-29.625,38.179-65.5,69.83-104.824,97.802c-35.513,25.26-73.432,46.215-112.549,65.192c-25.133,12.192-51.124,22.293-78.084,29.333
	c-21.318,5.566-42.912,10.24-64.454,15.011c-11.779,2.609-23.757,4.211-35.527,6.962c-7.494,1.751-15.824,1.824-23.574,3.318
	c-15.268,2.944-30.754,4.01-46.109,6.013c-12.847,1.675-25.821,3.074-38.963,2.909c-12.22-0.153-24.492,1.376-36.777,1.381
	c-28.631,0.012-57.323,1.152-85.871-0.382c-16.785-0.902-33.689-1.162-50.529-3.421c-13.333-1.788-26.798-3.842-40.409-4.336
	c-9.585-0.348-19.031-4.055-28.631-4.576c-12.335-0.67-24.012-4.567-36.219-5.743c-8.902-0.858-17.699-3.109-26.455-5.12
	c-18.15-4.169-36.284-8.423-54.339-12.982c-9.117-2.302-18.038-5.38-27.065-8.047c-14.586-4.309-29.317-8.177-43.746-12.956
	c-14.952-4.953-29.623-10.755-44.407-16.211c-24.168-8.92-47.841-19.087-71.142-29.996c-23.102-10.815-45.799-22.503-68.173-34.832
	c-12.556-6.918-24.923-14.156-37.059-21.698c-18.048-11.215-36.028-22.565-53.22-35.162c-14.126-10.35-28.542-20.286-42.167-31.321
	c-12.538-10.153-24.975-20.396-37.2-30.945c-20.103-17.347-39.561-35.319-57.967-54.419c-10.399-10.791-20.259-22.102-30.451-33.276
	c2.887-1.874,4.082,0.107,5.418,1.367c48.537,45.782,102.826,83.583,160.679,116.571c49.903,28.455,101.823,52.474,155.31,73.346
	c49.41,19.281,99.91,35.103,151.187,48.373c37.588,9.727,75.66,17.588,114.03,23.562c30.18,4.699,60.507,8.428,90.989,11.056
	c48.226,4.159,96.501,5.616,144.792,3.239c28.219-1.39,56.389-4.152,84.431-8.308c36.254-5.372,71.874-13.255,106.929-23.767
	c42.849-12.849,84.595-28.645,124.003-49.926c23.302-12.583,45.416-27.111,65.808-44.26c19.742-16.603,37.087-35.141,51.284-56.69
	c10.143-15.396,17.836-32.023,22.326-49.723c4.443-17.512,7.92-35.463,6.203-53.783c-2.594-27.678-9.091-54.271-20.832-79.69
	c-11.102-24.033-25.337-46.025-41.013-67.143c-6.734-9.072-14.74-17.192-21.995-25.889c-13.904-16.669-29.65-31.518-45.797-45.907
	c-11.917-10.619-24.568-20.411-36.851-30.622C1135.418,862.224,1133.369,860.11,1130.575,857.5z M807.464,925.122
	c1.254-2.215-0.297-3.693-1.474-5.16c-15.257-19.004-28.845-39.133-40.849-60.339c-23.995-42.389-40.747-86.762-38.245-136.61
	c0.771-15.362,3.432-30.305,8.592-44.725c14.734-41.171,42.945-71.557,77.881-96.47c25.635-18.281,53.535-32.318,82.595-44.206
	c35.49-14.517,72.285-24.837,109.468-33.829c15.428-3.731,31.137-6.361,46.643-9.602c12.279-2.566,24.761-4.107,37.031-6.816
	c13.823-3.052,28.193-3.786,42.311-5.684c17.278-2.323,34.681-3.812,52.064-5.24c18.328-1.505,36.692-2.596,55.049-3.718
	c28.618-1.75,57.273-1.296,85.922-1.347c20.328-0.036,40.596,1.284,60.825,2.778c7.061,0.521,14.188,0.031,21.146,1.142
	c9.314,1.487,18.689,2.849,28.044,2.436c6.527-0.288,12.761,1.097,19.101,1.587c13.463,1.041,26.784,4.19,40.246,4.913
	c15.095,0.81,29.756,4.265,44.718,5.833c12.032,1.261,24.059,3.783,36.049,5.952c18.59,3.364,37.264,6.49,55.606,10.939
	c18.833,4.568,37.823,8.429,56.57,13.49c21.076,5.69,42.343,10.716,63.224,17.145c28.727,8.846,57.359,17.971,85.547,28.462
	c20.037,7.458,39.97,15.109,59.698,23.395c19.659,8.257,39.378,16.315,58.566,25.637c8.891,4.32,17.91,8.378,27.275,12.744
	c-0.128-3.319-2.155-4.012-3.725-5.006c-45.159-28.603-92.26-53.499-141.373-74.647c-37.815-16.283-76.296-30.761-115.507-43.243
	c-51.09-16.263-102.959-29.489-155.478-40.445c-39.249-8.188-78.695-14.957-118.39-20.228
	c-59.822-7.944-119.921-12.916-180.28-14.193c-76.674-1.622-153.124,1.048-229.278,11.028c-30.622,4.013-61.135,8.8-91.27,15.156
	c-32.488,6.852-64.837,14.927-96.159,26.277c-14.91,5.403-29.658,11.359-44.131,17.841c-21.764,9.747-42.709,21.139-63.007,33.678
	c-27.621,17.064-53.702,36.208-77.227,58.63c-8.899,8.482-17.455,17.313-25.566,26.653c-17.854,20.559-33.176,42.512-44.094,67.599
	c-10.887,25.015-15.646,50.704-11.487,77.834c2.192,14.297,6.868,27.803,14.11,40.233c14.278,24.506,34.447,43.513,57.779,59.175
	c30.346,20.371,64.024,33.898,98.323,45.742c17.401,6.009,35.458,10.118,53.219,15.086L807.464,925.122z M1078.767,805.499
	c-6.3-9.349-11.456-19.363-9.937-31.162c2.148-16.688,13.844-25.234,27.698-32.206c21.868-11.005,45.758-11.735,69.27-14.42
	c17.494-1.998,34.986-0.055,52.343,1.679c5.322,0.532,10.748,0.088,15.953,1.188c15.805,3.34,31.88,5.108,47.628,8.878
	c25.374,6.075,50.522,12.888,74.879,22.225c32.672,12.525,63.835,28.118,93.437,46.895c22.593,14.331,43.815,30.304,63.311,48.632
	c18.809,17.682,36.2,36.592,51.207,57.632c12.974,18.19,24.439,37.226,33.952,57.512c7.814,16.664,14.091,33.863,19.666,51.316
	c5.531,17.317,7.334,35.445,9.439,53.398c2.036,17.366-1.285,34.514-4.405,51.553c-1.821,9.946-4.62,19.62-7.77,29.267
	c-7.015,21.484-17.814,41.068-31.158,58.9c-18.585,24.836-40.646,46.503-65.323,65.558c-23.6,18.224-49.015,33.381-75.125,47.557
	c-6.243,3.389-13.304,5.421-18.885,10.348c1.478,1.344,2.538,1.155,3.858,0.646c32.938-12.687,65.718-25.712,96.819-42.593
	c25.067-13.606,49.227-28.507,71.687-46.223c27.506-21.696,51.638-46.38,70.376-76.073c27.461-43.515,38.398-90.983,31.757-141.965
	c-5.186-39.81-20.189-76.309-41.593-110.105c-27.185-42.922-61.663-79.197-101.357-110.807
	c-51.996-41.407-109.457-72.737-172.314-93.972c-33.733-11.396-68.31-19.606-103.57-25.316c-28.384-4.596-56.875-7.159-85.491-8.579
	c-27.519-1.366-54.991,0.772-82.106,5.358c-21.606,3.654-42.968,8.887-61.451,21.8c-20.048,14.006-25.358,33.49-14.108,54.948
	c12.309,23.478,32.405,39.997,54.237,54.613C1087.355,816.505,1082.658,811.274,1078.767,805.499z M684.593,516.754
	c-23,8.108-45.443,17.548-67.173,28.563c-35.234,17.86-68.641,38.521-99.256,63.751c-20.167,16.621-39.178,34.242-55.605,54.528
	c-19.385,23.939-35.389,49.835-46.298,78.896c-6.567,17.493-10.835,35.479-11.905,53.838c-1.024,17.577-0.561,35.405,3.724,52.815
	c5.255,21.351,12.983,41.689,24.061,60.713c10.782,18.516,23.703,35.333,37.86,51.488c17.95,20.483,38.259,38.097,59.715,54.563
	c13.553,10.401,28.004,19.562,42.904,27.845c11.581,6.437,23.432,12.448,35.463,18.111c16.174,7.612,32.734,14.227,49.5,20.27
	c16.423,5.919,33.265,10.575,50.191,14.983c27.311,7.113,54.874,11.999,83.131,12.597c21.704,0.459,43.403,1.001,64.511-5.602
	c14.451-4.52,27.783-11.037,36.333-23.996c10.025-15.194,7.99-31.496,2.226-47.688c-7.395-20.773-20.102-38.368-33.666-55.376
	c-1.983-2.487-3.45-6.379-8.271-6.764c5.528,10,9.939,19.853,11.432,30.499c1.325,9.448,1.105,18.954-4.798,27.47
	c-7.991,11.529-19.889,16.873-32.609,20.195c-28.908,7.55-58.087,4.452-86.874-0.524c-30.024-5.189-58.917-14.61-87.222-26.167
	c-42.223-17.239-78.677-42.718-110.389-75.035c-17.661-17.998-33.357-37.695-46.017-59.751
	c-23.832-41.519-33.745-85.737-26.257-133.218c5.162-32.732,18.092-62.604,36.245-90.226c24.738-37.642,56.475-68.425,92.778-94.802
	c29.039-21.099,60.263-38.268,93.001-52.877C689.068,516.183,686.912,515.937,684.593,516.754z M807.534,924.984
	c0.252-0.189,0.999,0.778,0.82-0.369c-0.296,0.169-0.593,0.338-0.889,0.506C807.464,925.122,807.528,924.997,807.534,924.984z"/>
</svg>
