<?xml version="1.0" encoding="utf-8"?>
<!-- Generator: Adobe Illustrator 26.0.0, SVG Export Plug-In . SVG Version: 6.00 Build 0)  -->
<svg version="1.1" id="TBTC" xmlns="http://www.w3.org/2000/svg" xmlns:xlink="http://www.w3.org/1999/xlink" x="0px" y="0px"
	 viewBox="0 0 500 500" style="enable-background:new 0 0 500 500;" xml:space="preserve">
<style type="text/css">
	.st0{fill-rule:evenodd;clip-rule:evenodd;fill:#080503;}
</style>
<path class="st0" d="M443.2,248.7c0,107.4-87.1,194.5-194.5,194.5c-107.4,0-194.5-87.1-194.5-194.5c0-107.4,87.1-194.5,194.5-194.5
	C356.2,54.3,443.2,141.3,443.2,248.7z M497.5,248.7c0,137.4-111.4,248.8-248.8,248.8C111.4,497.5,0,386.1,0,248.7
	C0,111.4,111.4,0,248.7,0C386.1,0,497.5,111.4,497.5,248.7z M248.7,192c14.5,0,26.1-11.8,26.1-26.1c0-14.5-11.8-26.1-26.1-26.1
	c-14.5,0-26.1,11.8-26.1,26.1C222.6,180.4,234.2,192,248.7,192z M333.7,232.7h-170c-1.7,0-3.1,1.4-3.1,3.1v28.6
	c0,1.7,1.4,3.1,3.1,3.1h64.5v87.3c0,1.7,1.4,3.1,3.1,3.1h35.2c1.7,0,3.1-1.4,3.1-3.1v-87.3h64.5c1.7,0,3.1-1.4,3.1-3.1v-28.6
	C336.8,234,335.5,232.7,333.7,232.7z"/>
</svg>
