<?xml version="1.0" encoding="utf-8"?>
<!-- Generator: Adobe Illustrator 23.0.4, SVG Export Plug-In . SVG Version: 6.00 Build 0)  -->
<svg version="1.1" id="Layer_1" xmlns="http://www.w3.org/2000/svg" xmlns:xlink="http://www.w3.org/1999/xlink" x="0px" y="0px"
	 viewBox="0 0 500 500" style="enable-background:new 0 0 500 500;" xml:space="preserve">
<style type="text/css">
	.st0{fill:#2871DA;}
</style>
<path class="st0" d="M250,35.3c57.3,0,111.2,22.3,151.8,62.9c40.5,40.5,62.9,94.4,62.9,151.8s-22.3,111.2-62.9,151.8
	c-40.5,40.5-94.4,62.9-151.8,62.9s-111.2-22.3-151.8-62.9c-40.5-40.5-62.9-94.4-62.9-151.8S57.7,138.7,98.2,98.2
	C138.8,57.6,192.7,35.3,250,35.3 M250,3.6C114,3.6,3.7,113.9,3.7,249.9C3.7,386,114,496.2,250,496.2S496.3,386,496.3,249.9
	C496.3,113.9,386,3.6,250,3.6L250,3.6z"/>
<path class="st0" d="M371.3,240.4c10.2,0,18.5-8.3,18.5-18.5s-8.3-18.5-18.5-18.5h-54.4l-0.3-46.5h57.1c10.2,0,18.5-8.3,18.5-18.5
	s-8.3-18.5-18.5-18.5H141c-10.2,0-18.5,8.3-18.5,18.5s8.3,18.5,18.5,18.5h54.8l0.3,46.5h-15.8c-38.3,0-69.4,31.1-69.4,69.4
	c0,38.3,31.1,69.4,69.4,69.4h16.9l0.3,35.2c0.1,10.1,8.3,18.3,18.5,18.3c0,0,0.1,0,0.1,0c10.2-0.1,18.4-8.4,18.3-18.6l-0.3-34.9H281
	l0.3,35.2c0.1,10.1,8.3,18.3,18.5,18.3c0,0,0.1,0,0.1,0c10.2-0.1,18.4-8.4,18.3-18.6l-0.3-34.9h52.6c10.2,0,18.5-8.3,18.5-18.5
	s-8.3-18.5-18.5-18.5h-52.9l-0.5-65H371.3z M232.7,156.9h46.9l0.3,46.5H233L232.7,156.9z M180.3,305.4c-17.9,0-32.5-14.6-32.5-32.5
	s14.6-32.5,32.5-32.5h16.1l0.5,65H180.3z M280.7,305.4h-46.9l-0.5-65h46.9L280.7,305.4z"/>
</svg>
