<?xml version="1.0" encoding="iso-8859-1"?>
<!-- Generator: Adobe Illustrator 19.0.0, SVG Export Plug-In . SVG Version: 6.00 Build 0)  -->
<svg version="1.1" id="Layer_1" xmlns="http://www.w3.org/2000/svg" xmlns:xlink="http://www.w3.org/1999/xlink" x="0px" y="0px"
	 viewBox="0 0 500 500" style="enable-background:new 0 0 500 500;" xml:space="preserve">
<path style="fill:#00C9FA;" d="M6.824,314.69c0-2.563,0-5.127,0-7.69c0.353-1.568,0.768-3.124,1.051-4.705
	c2.099-11.752,4.171-23.508,6.254-35.263c8.887-50.139,17.776-100.278,26.66-150.417c0.806-4.547,2.254-8.884,4.215-13.055
	c2.833-6.023,6.483-11.517,10.877-16.504c7.712-8.755,16.802-15.41,27.961-19.32c24.251-8.498,48.403-17.278,72.596-25.944
	c34.796-12.464,69.593-24.928,104.387-37.397c3.635-1.303,7.363-2.191,11.19-2.693c1.465-0.192,2.92-0.466,4.379-0.703
	c2.833,0,5.667,0,8.5,0c0.59,0.128,1.174,0.295,1.77,0.377c2.204,0.303,4.424,0.5,6.615,0.877
	c12.193,2.098,23.225,6.645,32.744,14.811c10.285,8.824,20.84,17.334,31.279,25.98c37.652,31.183,75.315,62.353,112.932,93.578
	c2.424,2.012,4.69,4.292,6.688,6.727c8.054,9.813,12.838,21.136,15.033,33.593c0.221,1.252,0.389,2.513,0.581,3.77
	c0,4.048,0,8.095,0,12.143c-0.234,1.32-0.469,2.64-0.702,3.961c-1.703,9.631-3.404,19.263-5.111,28.894
	c-9.028,50.942-18.069,101.883-27.07,152.83c-0.861,4.875-2.06,9.625-4.083,14.151c-4.482,10.029-11.064,18.482-19.345,25.636
	c-5.46,4.717-11.521,8.444-18.356,10.859c-6.169,2.18-12.325,4.398-18.486,6.604c-32.135,11.507-64.268,23.018-96.403,34.524
	c-21.085,7.55-42.173,15.087-63.255,22.646c-3.89,1.395-7.866,2.401-11.963,2.938c-1.065,0.139-2.12,0.35-3.18,0.528
	c-3.373,0-6.746,0-10.119,0c-0.592-0.121-1.179-0.306-1.776-0.354c-4.587-0.369-9.082-1.245-13.515-2.449
	c-9.036-2.454-17.214-6.496-24.433-12.572c-12.433-10.464-25.013-20.754-37.533-31.114C101.31,420.234,65.4,390.541,29.532,360.8
	c-2.22-1.841-4.298-3.917-6.145-6.132c-8.827-10.589-13.852-22.857-15.771-36.457C7.448,317.023,7.092,315.863,6.824,314.69z
	 M297.501,318.443c-1.264-0.075-2.188-0.177-3.112-0.178c-13.962-0.011-27.924,0.051-41.884-0.053
	c-3.215-0.024-6.494-0.302-9.624-0.999c-5.862-1.305-8.791-4.969-9.336-10.957c-0.061-0.671-0.062-1.347-0.086-2.021
	c-0.138-3.936,0.397-7.815,1.134-11.657c4.407-22.984,8.852-45.96,13.292-68.937c0.633-3.274,0.655-3.275,4.079-3.272
	c20.369,0.014,40.738,0.031,61.107,0.046c0.809,0.001,1.621,0.021,2.427-0.032c1.418-0.093,1.689-0.336,2.07-1.745
	c0.106-0.39,0.168-0.791,0.245-1.189c2.059-10.592,4.119-21.185,6.173-31.778c0.103-0.529,0.182-1.064,0.232-1.6
	c0.075-0.804-0.28-1.309-1.114-1.364c-0.739-0.049-1.482-0.061-2.223-0.061c-20.706,0.015-41.413,0.035-62.119,0.049
	c-2.814,0.002-2.933-0.137-2.402-2.881c1.757-9.071,3.527-18.139,5.292-27.209c1.121-5.759,2.258-11.516,3.353-17.28
	c0.398-2.092,0.113-2.407-1.947-2.485c-0.337-0.013-0.674-0.009-1.012-0.009c-5.193-0.001-10.389,0.087-15.579-0.041
	c-2.257-0.055-3.704,0.64-4.973,2.599c-4.669,7.208-10.115,13.821-16.118,19.961c-13.281,13.585-28.704,24.047-46.22,31.386
	c-1.908,0.8-2.827,1.891-3.193,3.91c-1.624,8.958-3.385,17.892-5.091,26.835c-0.532,2.79-0.385,2.968,2.567,2.972
	c7.891,0.01,15.783,0,23.674,0.008c3.145,0.003,3.228,0.112,2.557,3.257c-3.224,15.104-6.518,30.194-9.657,45.316
	c-1.903,9.171-4.175,18.28-4.857,27.676c-0.65,8.954-0.125,17.794,2.201,26.485c2.285,8.537,6.084,16.305,12.165,22.8
	c8.718,9.312,19.576,13.935,32.275,14.015c17.738,0.112,35.477,0.031,53.216,0.032c0.405,0,0.81,0.006,1.214-0.02
	c1.538-0.101,1.786-0.306,2.237-1.831c0.095-0.323,0.162-0.655,0.238-0.983c2.803-12.089,5.607-24.177,8.4-36.269
	C297.267,320.233,297.334,319.508,297.501,318.443z"/>
<path style="fill:#FFFFFF;" d="M297.501,318.443c-0.166,1.065-0.234,1.791-0.396,2.495c-2.793,12.091-5.598,24.18-8.4,36.269
	c-0.076,0.329-0.143,0.66-0.238,0.983c-0.451,1.525-0.699,1.73-2.237,1.831c-0.403,0.027-0.809,0.02-1.214,0.02
	c-17.739-0.001-35.478,0.08-53.216-0.032c-12.699-0.08-23.557-4.703-32.275-14.015c-6.081-6.495-9.88-14.264-12.165-22.8
	c-2.326-8.691-2.851-17.531-2.201-26.485c0.682-9.396,2.954-18.505,4.857-27.676c3.139-15.122,6.433-30.212,9.657-45.316
	c0.671-3.145,0.588-3.254-2.557-3.257c-7.891-0.008-15.783,0.002-23.674-0.008c-2.952-0.004-3.099-0.182-2.567-2.972
	c1.705-8.944,3.466-17.877,5.091-26.835c0.366-2.019,1.285-3.11,3.193-3.91c17.516-7.339,32.939-17.8,46.22-31.386
	c6.003-6.14,11.449-12.753,16.118-19.961c1.269-1.959,2.716-2.655,4.973-2.599c5.19,0.127,10.386,0.04,15.579,0.041
	c0.337,0,0.675-0.004,1.012,0.009c2.06,0.078,2.345,0.393,1.947,2.485c-1.095,5.764-2.232,11.521-3.353,17.28
	c-1.765,9.069-3.535,18.138-5.292,27.209c-0.531,2.745-0.413,2.883,2.402,2.881c20.706-0.014,41.413-0.034,62.119-0.049
	c0.741-0.001,1.484,0.012,2.223,0.061c0.834,0.055,1.189,0.56,1.114,1.364c-0.05,0.536-0.13,1.072-0.232,1.6
	c-2.054,10.593-4.114,21.186-6.173,31.778c-0.077,0.397-0.139,0.799-0.245,1.189c-0.382,1.409-0.652,1.653-2.07,1.745
	c-0.806,0.053-1.618,0.032-2.427,0.032c-20.369-0.015-40.738-0.032-61.107-0.046c-3.424-0.002-3.447-0.002-4.079,3.272
	c-4.441,22.977-8.885,45.954-13.292,68.937c-0.737,3.843-1.272,7.722-1.134,11.657c0.024,0.674,0.025,1.35,0.086,2.021
	c0.544,5.988,3.474,9.653,9.336,10.957c3.13,0.697,6.409,0.975,9.624,0.999c13.961,0.104,27.923,0.042,41.884,0.053
	C295.313,318.266,296.237,318.368,297.501,318.443z"/>
</svg>
