<svg width="24" height="24" viewBox="0 0 24 24" fill="none" xmlns="http://www.w3.org/2000/svg">
<path d="M2.28983 11.47C7.56984 9.27997 12.8598 7.13998 18.1798 5.04998C19.3298 4.59998 20.4798 4.14998 21.6298 3.69998C21.8998 3.62998 22.2498 3.57997 22.5098 3.76997C22.8398 4.00997 22.8498 4.52998 22.8498 4.71998C22.8498 6.20998 20.7398 18.98 20.5498 20.13C20.5298 20.25 20.4498 20.6 20.1398 20.87C19.7398 21.22 19.1598 21.17 18.9198 21.14C17.7098 21.01 16.6498 20.06 15.5098 19.28C13.0398 17.6 11.5798 17.67 11.1498 16.27C11.0098 15.81 11.0398 15.39 11.0798 15.12C11.4698 14.67 11.8798 14.22 12.2998 13.77C13.9698 11.97 15.6498 10.38 17.2998 8.96997C17.4198 8.69997 17.5798 8.28998 17.4398 8.15998C17.2598 7.98998 16.6998 8.32997 16.4298 8.49997C14.8398 9.48997 9.52983 13.17 8.17983 14.11C7.86983 14.27 7.34983 14.49 6.68983 14.52C5.81983 14.56 5.58984 14.23 3.71984 13.57C2.55984 13.16 2.10983 13.1 1.95983 12.69C1.79983 12.26 2.07983 11.77 2.29983 11.47H2.28983Z" fill="black"/>
</svg>
