<?xml version="1.0" encoding="utf-8"?>
<!-- Generator: Adobe Illustrator 23.0.3, SVG Export Plug-In . SVG Version: 6.00 Build 0)  -->
<svg version="1.1" id="tfuel" xmlns="http://www.w3.org/2000/svg" xmlns:xlink="http://www.w3.org/1999/xlink" x="0px" y="0px"
	 viewBox="0 0 500 500" style="enable-background:new 0 0 500 500;" xml:space="preserve">
<style type="text/css">
	.st0{fill:url(#SVGID_1_);}
	.st1{fill:url(#SVGID_2_);}
	.st2{fill:#FFFFFF;}
</style>
<linearGradient id="SVGID_1_" gradientUnits="userSpaceOnUse" x1="252.8009" y1="4.2282" x2="252.8009" y2="488.6711">
	<stop  offset="0" style="stop-color:#FF4F0F"/>
	<stop  offset="1" style="stop-color:#FFAD15"/>
</linearGradient>
<path class="st0" d="M228.7,5.2c0,0,74.9,43.9,74.9,117.1c0,50.5-13.7,55.8-13.7,77c0,29.9,27.4,38,35.9,38
	c8.4,0,41.4-3.7,41.4-48.1c0,0,55.6,54.9,55.6,121.9c0,51.7-21.1,87.6-51.7,108.7s-68.8,20.9-91.8,49.6
	c-13.8,17.1-14.8,24.3-14.8,24.3S95.7,470.4,83.1,311.2C74.3,199.3,207.9,132,222.8,78.2C232.6,43,228.7,5.2,228.7,5.2z"/>
<linearGradient id="SVGID_2_" gradientUnits="userSpaceOnUse" x1="364.9278" y1="4.2277" x2="364.9278" y2="488.8893">
	<stop  offset="0" style="stop-color:#FF4F0F"/>
	<stop  offset="1" style="stop-color:#FFAD15"/>
</linearGradient>
<path class="st1" d="M360.8,60.9c0,0,30.7,36.6,30.7,66.5c0,22.1-11.5,22.4-17.4,29.4c-6.3,7.5-6.1,14-6.1,14s-29.4-8.8-29.4-39.1
	s22.8-38.3,22.8-54.5C361.2,62.7,360.8,60.9,360.8,60.9z"/>
<polygon class="st2" points="348.1,267.4 157.7,267.4 157.7,329.9 221.7,329.9 221.7,393.9 284.2,393.9 284.2,329.9 348.1,329.9 "/>
</svg>
