<?xml version="1.0" encoding="iso-8859-1"?>
<!-- Generator: Adobe Illustrator 19.0.0, SVG Export Plug-In . SVG Version: 6.00 Build 0)  -->
<svg version="1.1" id="Layer_1" xmlns="http://www.w3.org/2000/svg" xmlns:xlink="http://www.w3.org/1999/xlink" x="0px" y="0px"
	 viewBox="0 0 500 500" style="enable-background:new 0 0 500 500;" xml:space="preserve">
<linearGradient id="SVGID_1_" gradientUnits="userSpaceOnUse" x1="250.996" y1="3" x2="250.996" y2="497.0496">
	<stop  offset="0" style="stop-color:#2CB6EC"/>
	<stop  offset="1" style="stop-color:#27E6BC"/>
</linearGradient>
<path style="fill:url(#SVGID_1_);" d="M122.755,495.078c-8.166-8.122-16.383-16.294-24.541-24.408c0-147.688,0-295.04,0-441.835
	C106.67,20.28,114.817,12.039,123.751,3c84.371,0,169.896,0,255.14,0c8.471,8.168,16.81,16.209,24.888,23.998
	c0,148.096,0,295.447,0,442.929c-8.365,7.919-16.784,15.888-26.57,25.153C294.084,495.078,208.535,495.078,122.755,495.078z
	 M354.01,445.354c0-131.114,0-261.314,0-391.891c-69.359,0-137.664,0-206.064,0c0,131.414,0,261.312,0,391.891
	C216.694,445.354,284.785,445.354,354.01,445.354z M226.934,129.587c0,16.888,0,32.632,0,49.494c-17.504,0-33.703,0-50.402,0
	c0,17.277,0,33.393,0,50.208c50.078,0,99.418,0,148.962,0c0-17.127,0-33.228,0-50.75c-17.056,0-33.195,0-49.989,0
	c0-16.872,0-32.311,0-48.953C258.71,129.587,243.477,129.587,226.934,129.587z M275.294,321.027c18.267,0,34.414,0,50.4,0
	c0-16.768,0-32.136,0-48.112c-49.929,0-99.283,0-149.152,0c0,16.316,0,31.991,0,49.422c17.209,0,33.715,0,51.471,0
	c0,17.898,0,34.047,0,50.553c15.942,0,30.533,0,47.281,0C275.294,356.043,275.294,339.182,275.294,321.027z"/>
</svg>
