<?xml version="1.0" encoding="utf-8"?>
<!-- Generator: Adobe Illustrator 23.0.4, SVG Export Plug-In . SVG Version: 6.00 Build 0)  -->
<svg version="1.1" id="thr" xmlns="http://www.w3.org/2000/svg" xmlns:xlink="http://www.w3.org/1999/xlink" x="0px" y="0px"
	 viewBox="0 0 500 500" style="enable-background:new 0 0 500 500;" xml:space="preserve">
<style type="text/css">
	.st0{fill:url(#SVGID_1_);}
	.st1{fill:#FFFFFF;}
</style>
<linearGradient id="SVGID_1_" gradientUnits="userSpaceOnUse" x1="175" y1="552.8831" x2="478.123" y2="552.8831" gradientTransform="matrix(1 0 0 1 -244 -301)">
	<stop  offset="0" style="stop-color:#3B007F"/>
	<stop  offset="1" style="stop-color:#AA003D"/>
</linearGradient>
<circle class="st0" cx="153.4" cy="251.9" r="151.1"/>
<g>
	<circle class="st1" cx="135.9" cy="291.7" r="11.3"/>
	<circle class="st1" cx="169.4" cy="291.7" r="11.3"/>
	<circle class="st1" cx="202.8" cy="291.7" r="11.3"/>
	<circle class="st1" cx="236.3" cy="291.7" r="11.3"/>
	<circle class="st1" cx="269.7" cy="291.7" r="11.3"/>
	<circle class="st1" cx="303.2" cy="291.7" r="11.3"/>
	<circle class="st1" cx="336.6" cy="291.7" r="11.3"/>
	<circle class="st1" cx="370.1" cy="291.7" r="11.3"/>
	<circle class="st1" cx="403.5" cy="291.7" r="11.3"/>
	<circle class="st1" cx="422.2" cy="325.6" r="7.8"/>
	<circle class="st1" cx="387.6" cy="325.6" r="7.8"/>
	<circle class="st1" cx="353" cy="325.6" r="7.8"/>
	<circle class="st1" cx="318.5" cy="325.6" r="7.8"/>
	<circle class="st1" cx="283.9" cy="325.6" r="7.8"/>
	<circle class="st1" cx="249.3" cy="325.6" r="7.8"/>
	<circle class="st1" cx="214.8" cy="325.6" r="7.8"/>
	<circle class="st1" cx="180.2" cy="325.6" r="7.8"/>
	<circle class="st1" cx="145.6" cy="325.6" r="7.8"/>
	<circle class="st1" cx="440.5" cy="349.4" r="7.6"/>
	<circle class="st1" cx="405.5" cy="349.4" r="7.6"/>
	<circle class="st1" cx="370.4" cy="349.4" r="7.6"/>
	<circle class="st1" cx="335.3" cy="349.4" r="7.6"/>
	<circle class="st1" cx="300.3" cy="349.4" r="7.6"/>
	<circle class="st1" cx="265.2" cy="349.4" r="7.6"/>
	<circle class="st1" cx="230.2" cy="349.4" r="7.6"/>
	<circle class="st1" cx="195.1" cy="349.4" r="7.6"/>
	<circle class="st1" cx="160" cy="349.4" r="7.6"/>
	<circle class="st1" cx="465" cy="373.5" r="5.8"/>
	<circle class="st1" cx="429.4" cy="373.5" r="5.8"/>
	<circle class="st1" cx="393.9" cy="373.5" r="5.8"/>
	<circle class="st1" cx="358.4" cy="373.5" r="5.8"/>
	<circle class="st1" cx="322.9" cy="373.5" r="5.8"/>
	<circle class="st1" cx="287.3" cy="373.5" r="5.8"/>
	<circle class="st1" cx="251.8" cy="373.5" r="5.8"/>
	<circle class="st1" cx="216.3" cy="373.5" r="5.8"/>
	<circle class="st1" cx="180.8" cy="373.5" r="5.8"/>
	<circle class="st1" cx="493.4" cy="394.9" r="4.4"/>
	<circle class="st1" cx="457.6" cy="394.9" r="4.4"/>
	<circle class="st1" cx="421.8" cy="394.9" r="4.4"/>
	<circle class="st1" cx="386" cy="394.9" r="4.4"/>
	<circle class="st1" cx="350.2" cy="394.9" r="4.4"/>
	<circle class="st1" cx="314.3" cy="394.9" r="4.4"/>
	<circle class="st1" cx="278.5" cy="394.9" r="4.4"/>
	<circle class="st1" cx="242.7" cy="394.9" r="4.4"/>
	<circle class="st1" cx="206.9" cy="394.9" r="4.4"/>
	<circle class="st1" cx="119.6" cy="259.7" r="7.8"/>
	<circle class="st1" cx="154.2" cy="259.7" r="7.8"/>
	<circle class="st1" cx="188.8" cy="259.7" r="7.8"/>
	<circle class="st1" cx="223.3" cy="259.7" r="7.8"/>
	<circle class="st1" cx="257.9" cy="259.7" r="7.8"/>
	<circle class="st1" cx="292.5" cy="259.7" r="7.8"/>
	<circle class="st1" cx="327" cy="259.7" r="7.8"/>
	<circle class="st1" cx="361.6" cy="259.7" r="7.8"/>
	<circle class="st1" cx="396.2" cy="259.7" r="7.8"/>
	<circle class="st1" cx="101.3" cy="235.8" r="7.6"/>
	<circle class="st1" cx="136.3" cy="235.8" r="7.6"/>
	<circle class="st1" cx="171.4" cy="235.8" r="7.6"/>
	<circle class="st1" cx="206.5" cy="235.8" r="7.6"/>
	<circle class="st1" cx="241.5" cy="235.8" r="7.6"/>
	<circle class="st1" cx="276.6" cy="235.8" r="7.6"/>
	<circle class="st1" cx="311.6" cy="235.8" r="7.6"/>
	<circle class="st1" cx="346.7" cy="235.8" r="7.6"/>
	<circle class="st1" cx="381.8" cy="235.8" r="7.6"/>
	<circle class="st1" cx="76.8" cy="211.8" r="5.8"/>
	<circle class="st1" cx="112.4" cy="211.8" r="5.8"/>
	<circle class="st1" cx="147.9" cy="211.8" r="5.8"/>
	<circle class="st1" cx="183.4" cy="211.8" r="5.8"/>
	<circle class="st1" cx="218.9" cy="211.8" r="5.8"/>
	<circle class="st1" cx="254.5" cy="211.8" r="5.8"/>
	<circle class="st1" cx="290" cy="211.8" r="5.8"/>
	<circle class="st1" cx="325.5" cy="211.8" r="5.8"/>
	<circle class="st1" cx="361" cy="211.8" r="5.8"/>
	<circle class="st1" cx="48.4" cy="190.4" r="4.4"/>
	<circle class="st1" cx="84.2" cy="190.4" r="4.4"/>
	<circle class="st1" cx="120" cy="190.4" r="4.4"/>
	<circle class="st1" cx="155.8" cy="190.4" r="4.4"/>
	<circle class="st1" cx="191.7" cy="190.4" r="4.4"/>
	<circle class="st1" cx="227.5" cy="190.4" r="4.4"/>
	<circle class="st1" cx="263.3" cy="190.4" r="4.4"/>
	<circle class="st1" cx="299.1" cy="190.4" r="4.4"/>
	<circle class="st1" cx="334.9" cy="190.4" r="4.4"/>
</g>
</svg>
