<?xml version="1.0" encoding="iso-8859-1"?>
<!-- Generator: Adobe Illustrator 19.0.0, SVG Export Plug-In . SVG Version: 6.00 Build 0)  -->
<svg version="1.1" id="Layer_2" xmlns="http://www.w3.org/2000/svg" xmlns:xlink="http://www.w3.org/1999/xlink" x="0px" y="0px"
	 viewBox="0 0 500 500" style="enable-background:new 0 0 500 500;" xml:space="preserve">
<path style="fill:#70EDF7;" d="M250.194,66.56h219.327c0,0,17.82-1.371,23.304,12.337s-2.285,21.476-8.225,26.959
	c-5.94,5.483-118.345,84.075-118.345,84.075L250.194,66.56z"/>
<polygon style="fill:#3B546B;" points="250.194,66.56 250.194,272.636 366.255,189.932 "/>
<polygon style="fill:#30D6F7;" points="250.194,66.56 134.134,189.932 250.194,272.636 "/>
<path style="fill:#0099D9;" d="M250.194,66.56H26.755c0,0-15.993,0.457-20.562,14.622s10.053,24.674,10.053,24.674l117.888,84.075
	L250.194,66.56z"/>
<path style="fill:#70EDF7;" d="M134.134,189.932l96.87,242.631c0,0,3.314,6.347,7.525,9.21s11.958,3.705,11.958,3.705V272.636
	L134.134,189.932z"/>
<path style="fill:#0099D9;" d="M250.486,272.636l115.769-82.705l-96.232,241.904c0,0-1.011,5.39-6.4,8.926s-6.737,3.537-8.59,4.042
	c-1.853,0.505-4.547,0.674-4.547,0.674V272.636z"/>
</svg>
