<?xml version="1.0" encoding="utf-8"?>
<!-- Generator: Adobe Illustrator 25.1.0, SVG Export Plug-In . SVG Version: 6.00 Build 0)  -->
<svg version="1.1" id="titan" xmlns="http://www.w3.org/2000/svg" xmlns:xlink="http://www.w3.org/1999/xlink" x="0px" y="0px"
	 viewBox="0 0 500 500" style="enable-background:new 0 0 500 500;" xml:space="preserve">
<style type="text/css">
	.st0{fill:url(#SVGID_1_);}
	.st1{fill:url(#SVGID_2_);}
	.st2{fill:#FFFFFF;}
</style>
<linearGradient id="SVGID_1_" gradientUnits="userSpaceOnUse" x1="3.0003" y1="336.041" x2="500.6765" y2="154.9017">
	<stop  offset="0" style="stop-color:#0ADAFF"/>
	<stop  offset="0.6341" style="stop-color:#2E59FE"/>
	<stop  offset="1" style="stop-color:#7961FA"/>
</linearGradient>
<path class="st0" d="M457.5,114.4c-18.5,0.3-44.1,2-75.3,6.9c-32.1-33.2-77.2-53.9-127-53.9c-97.6,0-176.8,79.2-176.8,176.8
	c0,0.9,0.1,1.8,0.1,2.6C53.8,264.7,33,282,16.5,297c-27.7,25.1-11,71.2,26.4,72.7c20.9,0.8,47.3-1.1,80.4-7.8
	c32.4,36.3,79.5,59.1,131.9,59.1c97.6,0,176.8-79.2,176.8-176.8c0-4.2-0.2-8.3-0.5-12.5c31.9-22,50.3-41.1,60.4-57.1
	C508.5,148.3,488.7,113.9,457.5,114.4z M143.8,311.4c-7.9-13.1-13.5-27.7-16.4-43.2C159.9,245,199.2,219.9,235,205
	c38-15.7,87.1-26.1,128.5-32.8c7.8,11.7,13.7,24.7,17.4,38.6c-26.9,16.3-63.5,35.8-112.9,57.4C218.1,290.2,176.5,303.4,143.8,311.4z
	 M255.2,114.2c25,0,48.3,7.1,68.1,19.3c-31.6,8-66.7,19.1-104.3,34.7c-33.1,13.7-63.2,29.4-90.2,45.6
	C142.5,156.6,193.9,114.2,255.2,114.2z M56.6,323.4c0,0,11.7-10.2,30.3-24.8c2.5,7.6,5.4,15,8.8,22.2
	C70,324.3,56.6,323.4,56.6,323.4z M255.2,374.3c-29.3,0-56.3-9.7-78-26c34.1-10.2,73.5-24.5,118.9-44.4c34.7-15.2,63.8-29.5,88.1-43
	C376,324.9,321.4,374.3,255.2,374.3z M421.4,183.8c-2.3-6.3-5-12.4-8-18.4c20.1-2.3,33-3.3,33-3.3S439.6,170.1,421.4,183.8z"/>
<linearGradient id="SVGID_2_" gradientUnits="userSpaceOnUse" x1="240.9256" y1="274.3315" x2="351.582" y2="274.3315">
	<stop  offset="0" style="stop-color:#0ADAFF"/>
	<stop  offset="0.6341" style="stop-color:#2E59FE"/>
	<stop  offset="1" style="stop-color:#7961FA"/>
</linearGradient>
<path class="st1" d="M296.3,219c-30.6,0-55.3,24.8-55.3,55.3s24.8,55.3,55.3,55.3c30.6,0,55.3-24.8,55.3-55.3S326.8,219,296.3,219z
	 M296.3,301.7c-15.1,0-27.4-12.3-27.4-27.4c0-15.1,12.3-27.4,27.4-27.4c15.1,0,27.4,12.3,27.4,27.4
	C323.6,289.4,311.4,301.7,296.3,301.7z"/>
<ellipse transform="matrix(0.1602 -0.9871 0.9871 0.1602 -21.9901 522.8169)" class="st2" cx="296.3" cy="274.3" rx="27.4" ry="27.4"/>
</svg>
