<?xml version="1.0" encoding="iso-8859-1"?>
<!-- Generator: Adobe Illustrator 19.0.0, SVG Export Plug-In . SVG Version: 6.00 Build 0)  -->
<svg version="1.1" id="Layer_1" xmlns="http://www.w3.org/2000/svg" xmlns:xlink="http://www.w3.org/1999/xlink" x="0px" y="0px"
	 viewBox="0 0 500 500" style="enable-background:new 0 0 500 500;" xml:space="preserve">
<path style="fill:#00BCE6;" d="M176.897,243.372c105.509,0,209.887,0,314.695,0c0,4.982,0,9.67,0,15.36
	c-103.684,0-207.474,0-311.778,0c0,4.342,0,7.717,0,11.774c103.608,0,207.486,0,311.757,0c0,5.734,0,10.796,0,16.546
	c-105.212,0-209.976,0-315.489,0c-8.625,28.043-26.563,47.715-53.695,57.524c-18.878,6.825-38.72,6.793-57.793-0.227
	C28.774,331.163,4.562,295.981,8.399,256.2c3.672-38.073,28.525-65.901,64.622-75.395c22.398-5.891,44.615-2.403,64.692,9.788
	C157.688,202.721,170.561,220.574,176.897,243.372z M57.607,263.861c-0.001,20.959,14.646,35.877,35.406,36.273
	c21.922,0.418,36.277-16.541,36.895-35.753c0.674-20.94-18.085-37.276-36.416-37.184C75.192,227.288,55.957,243.825,57.607,263.861z
	 M304.893,220.565c6.795,0,13.147,0,20.179,0c0,6.752,0,12.522,0,18.07c3.639,0,6.585,0,9.565,0c0-15.169,0-29.89,0-44.842
	c-3.315,0-6.259,0-10.111,0c0,5.995,0,11.721,0,17.402c-6.862,0-12.801,0-19.621,0c0-6.336,0-18.168,0-18.168l-9.762-0.063
	c0,0,0,30.946,0,45.936c3.289,0,6.092,0,9.75,0C304.893,232.612,304.893,226.992,304.893,220.565z M390.641,218.296
	c0.415-0.135,0.83-0.269,1.245-0.404c4.971,7.079,9.941,14.158,15.069,21.46c3.258-0.446,6.424-0.879,10.001-1.368
	c-5.292-7.745-10.091-14.769-14.871-21.765c4.907-7.425,9.73-14.723,14.876-22.51c-4.087,0-7.475,0-10.683,0
	c-4.927,7.021-9.672,13.782-14.417,20.543c-0.523-0.082-1.047-0.164-1.571-0.246c0-6.731,0-13.462,0-20.201
	c-3.707,0-6.218,0-8.793,0c0,15.288,0,30.161,0,44.745c3.216,0,5.925,0,9.143,0C390.641,231.458,390.641,224.877,390.641,218.296z
	 M449.804,230.656c-5.551,0-10.79,0-16.769,0c0.259-4.122,0.465-7.401,0.7-11.149c5.884,0,10.811,0,15.938,0
	c0-2.835,0-5.135,0-8.073c-5.603,0-10.943,0-15.986,0c0-3.786,0-6.923,0-10.518c5.7,0,10.862,0,15.798,0c0-2.725,0-4.963,0-7.048
	c-8.921,0-17.535,0-26.045,0c0,15.081,0,29.676,0,44.739c9.108,0,17.674,0,26.364,0
	C449.804,235.876,449.804,233.356,449.804,230.656z M356.15,211.67c0-3.663,0-10.896,0-10.896l15.513-0.587
	c0,0-0.202-4.151-0.316-6.482c-8.722,0-17.03,0-25.321,0c0,15.347,0,30.053,0,44.935c8.7,0,17.03,0,25.265,0
	c0-2.774,0-5.093,0-7.697c-5.191,0-10.051,0-14.92,0c0-3.823,0-7.136,0-10.988c5.335-0.293,10.017-0.55,14.967-0.822
	c0-2.394,0-4.474,0-7.464C365.987,211.67,361.273,211.67,356.15,211.67z M275.007,238.589c0-12.613,0-24.744,0-37.656
	c4.72,0,13.428,0,13.428,0v-8.328c0,0-26.818,0.029-35.831,0.029c0,3.62,0,5.883,0,8.613c3.984,0,7.619,0,12.017,0
	c0,12.552,0,24.652,0,37.341C268.717,238.589,271.606,238.589,275.007,238.589z M481.833,193.8
	c-2.727,6.142-5.351,12.052-8.63,19.439c-3.324-7.711-5.926-13.745-8.316-19.287c-3.65,0-6.328,0-9.529,0
	c2.617,5.861,7.331,16.432,7.331,16.432l5.762,11.296l-0.123,16.974l8.362-0.046v-16.559c0,0,10.822-20.463,14.373-28.249
	C487.398,193.8,484.627,193.8,481.833,193.8z"/>
</svg>
