<?xml version="1.0" encoding="iso-8859-1"?>
<!-- Generator: Adobe Illustrator 19.0.0, SVG Export Plug-In . SVG Version: 6.00 Build 0)  -->
<svg version="1.1" id="Layer_1" xmlns="http://www.w3.org/2000/svg" xmlns:xlink="http://www.w3.org/1999/xlink" x="0px" y="0px"
	 viewBox="1000 -1000 2500 2500" style="enable-background:new 1000 -1000 2500 2500;" xml:space="preserve">
<title>tnb</title>
<circle style="fill:none;stroke:#FFC04E;stroke-width:9;stroke-miterlimit:10;" cx="2250" cy="250" r="1193.348"/>
<path style="fill:#FFC04E;" d="M2236.323-132.14l6.972-33.521h-677.125l-201.126,844.73h221.239L1738.268-4.76h270.716
	l-161.236,683.829h201.126L2207.093-4.76h2.682l24.001-115.245l2.816-12.135H2236.323z M2618.731-165.661l-201.126,838.026H2839.3
	c50.782,0.284,101.295-7.385,149.705-22.727c80.048-25.878,177.46-80.048,192.88-191.807h60.338l20.113-80.45h-73.746
	c0,0,6.704-120.676-147.492-140.788c0,0,134.084-40.225,154.197-113.971h67.042l26.817-80.45h-73.746
	c0,0,26.817-194.422-261.464-207.83H2618.731z M1472.312-4.76h-214.535l40.225-160.901h214.535L1472.312-4.76z"/>
<path style="fill:#FFFFFF;" d="M2903.66,169.55h-170.957l40.225-181.014h130.732c49.948-0.037,90.47,40.424,90.507,90.373
	c0,0.045,0,0.089,0,0.134c0.037,49.948-40.424,90.47-90.373,90.507C2903.749,169.55,2903.705,169.55,2903.66,169.55z
	 M2858.541,518.168H2652.99l48.337-207.83h157.214c60.338,0,108.809,46.527,108.809,103.915S2918.61,518.168,2858.541,518.168z"/>
<path style="fill:#FFC04E;" d="M2390.788,585.21L2216.479,169.55l73.746-321.802l174.309,395.548L2390.788,585.21z"/>
</svg>
