<?xml version="1.0" encoding="iso-8859-1"?>
<!-- Generator: Adobe Illustrator 19.0.0, SVG Export Plug-In . SVG Version: 6.00 Build 0)  -->
<svg version="1.1" id="Layer_1" xmlns="http://www.w3.org/2000/svg" xmlns:xlink="http://www.w3.org/1999/xlink" x="0px" y="0px"
	 viewBox="0 0 500 500" style="enable-background:new 0 0 500 500;" xml:space="preserve">
<g>
	<path style="fill:#9C0149;" d="M342.928,121.476c9.273,15.912,18.597,31.794,27.809,47.74
		c39.856,68.988,79.684,137.993,119.485,207.013c0.614,1.064,1.662,1.991,1.604,3.313c-29.324,0-58.619,0-87.881,0
		c-9.598-17.055-19.611-33.279-28.576-50.106c5.012-14.062,8.732-28.525,9.553-43.387c0.785-14.205,0.648-28.462-1.481-42.703
		c-2.369-15.848-5.691-31.408-10.465-46.674c-7.578-24.233-17.333-47.579-28.821-70.211
		C343.363,124.902,342.292,123.394,342.928,121.476z"/>
	<path style="fill:#9C0149;" d="M56.744,294.228c8.249-14.48,16.434-28.997,24.758-43.434
		C121.23,181.887,160.992,113,200.775,44.125c0.606-1.05,0.779-2.505,2.473-3.09c14.368,25.481,28.748,50.983,43.292,76.776
		c-9.799,16.719-19.594,33.429-29.389,50.14c-0.964,0.023-1.954-0.088-2.89,0.087c-18.283,3.419-35.426,9.916-51.526,19.196
		c-13.366,7.704-25.55,16.959-37.109,27.195c-13.256,11.739-25.334,24.546-36.579,38.151
		c-10.501,12.705-20.141,26.077-29.419,39.704C58.954,293.277,58.494,294.758,56.744,294.228z"/>
	<path style="fill:#9C0149;" d="M366.807,461.274c-1.284,0.052-2.567,0.148-3.851,0.149c-101.997,0.01-203.995,0.013-305.992,0.017
		c-0.801,0-1.602,0-3.363,0c15.14-25.667,29.98-50.825,44.89-76.102c19.375,0,38.641,0,57.907,0
		c6.728,8.865,14.633,16.624,23.343,23.451c17.944,14.065,38.051,24.143,59.576,31.576c24.265,8.379,49.207,13.426,74.664,16.391
		c16.355,1.905,32.698,3.641,49.179,3.775C364.409,460.539,365.76,460.203,366.807,461.274z"/>
	<path style="fill:#C6015D;" d="M56.744,294.228c1.75,0.53,2.209-0.952,2.885-1.944c9.278-13.627,18.917-26.999,29.419-39.704
		c11.245-13.605,23.324-26.412,36.579-38.151c11.559-10.237,23.743-19.491,37.109-27.195c16.1-9.28,33.243-15.776,51.526-19.196
		c0.936-0.175,1.925-0.065,2.89-0.087c-10.173,17.791-20.307,35.605-30.529,53.367c-14.547,25.276-29.162,50.513-43.734,75.775
		c-0.393,0.681-0.622,1.458-0.927,2.19l-0.223-0.132c-0.247,0.062-0.49,0.137-0.729,0.224c-13.449-0.614-26.432,2.114-39.273,5.641
		c-30.547,8.392-56.369,24.258-76.764,48.702c-1.38,1.654-2.475,3.808-4.873,4.414c0.021-0.315-0.063-0.691,0.079-0.936
		c9.901-17.075,19.82-34.139,29.738-51.204c0.651-0.168,1.026-0.539,0.927-1.259l-0.177-0.009c1.463,0.052,1.403-0.853,1.172-1.865
		l-0.092,0.098c1.286-0.123,1.333-0.981,1.165-1.965l-0.094,0.119c1.172-0.197,1.222-1.047,1.147-1.971l-0.073,0.092
		c0.663-0.167,0.956-0.564,0.782-1.253l-0.117-0.018c2.652-0.076,2.438-1.89,2.241-3.694L56.744,294.228z"/>
	<path style="fill:#C6015D;" d="M342.928,121.476c-0.636,1.918,0.435,3.426,1.226,4.985c11.488,22.632,21.243,45.978,28.821,70.211
		c4.774,15.266,8.096,30.826,10.465,46.674c2.129,14.241,2.265,28.498,1.481,42.703c-0.821,14.862-4.541,29.325-9.553,43.387
		c-9.264-15.89-18.562-31.761-27.786-47.675c-16.051-27.695-32.057-55.416-48.082-83.126c-0.066-0.561-0.133-1.121-0.199-1.682
		c0.468-0.638,1.037-1.225,1.39-1.922c13.786-27.139,20.408-55.719,18.052-86.3c-1.169-15.171-4.507-29.716-10.157-43.779
		c-0.562-1.399-0.793-2.757-0.614-4.22c9.587,16.153,19.198,32.292,28.06,48.861c0.006,0.979-0.093,2.02,1.282,2.202l-0.154-0.136
		c-0.066,0.643,0.207,1.068,0.818,1.277l-0.056-0.081c-0.004,0.875,0.051,1.716,1.127,1.975l-0.093-0.121
		c-0.085,0.94-0.042,1.803,1.174,1.966l-0.102-0.113c-0.186,0.993-0.205,1.884,1.171,1.927l-0.081-0.038
		c-0.277,1.011-0.434,1.945,1.132,1.79l-0.125,0.098c-0.212,0.721,0.108,1.09,0.803,1.21L342.928,121.476z"/>
	<path style="fill:#C6005D;" d="M366.807,461.274c-1.046-1.071-2.397-0.735-3.648-0.745c-16.481-0.134-32.824-1.87-49.179-3.775
		c-25.457-2.965-50.398-8.011-74.664-16.391c-21.526-7.433-41.632-17.511-59.576-31.576c-8.71-6.827-16.615-14.586-23.343-23.451
		c2.087-0.059,4.174-0.167,6.261-0.169c48.101-0.036,96.202-0.06,144.302-0.086c0.312,0.094,0.624,0.188,0.936,0.283
		c9.903,16.588,22.791,30.594,37.715,42.692c18.078,14.654,38.483,24.649,61.297,29.712c6.854,1.521,13.826,2.136,20.682,3.524
		C407.33,461.287,387.068,461.28,366.807,461.274z"/>
	<path style="fill:#FE439A;" d="M20.098,358.132c2.399-0.606,3.494-2.761,4.873-4.414c20.395-24.444,46.217-40.31,76.764-48.702
		c12.841-3.528,25.824-6.256,39.273-5.641c-0.321,1.999-1.805,3.358-2.819,4.954c-6.201,9.767-10.389,20.365-10.532,31.921
		c-0.138,11.209,3.952,21.28,11.788,29.534c2.951,3.109,6.196,5.939,9.307,8.897c-46.132,0.665-92.267,0.836-139.273,0.808
		c2.674-4.497,4.51-8.835,7.546-12.525c1.073-0.237,1.324-1.007,1.279-1.97l-0.053,0.056c0.648-0.046,0.938-0.438,1.006-1.043
		l-0.062,0.071c1.018-0.313,1.224-1.038,1.003-1.979L20.098,358.132z"/>
	<path style="fill:#FE439A;" d="M307.972,60.733c-0.179,1.463,0.052,2.821,0.614,4.22c5.65,14.063,8.989,28.608,10.157,43.779
		c2.356,30.581-4.266,59.161-18.052,86.3c-0.354,0.696-0.922,1.284-1.39,1.922c-0.301-0.099-0.607-0.182-0.917-0.25
		c-1.146-2.462-2.104-5.035-3.471-7.367c-5.68-9.695-13.007-17.944-22.968-23.303c-11.508-6.191-23.546-6.187-35.738-1.795
		c-1.727,0.622-3.449,2.667-5.592,0.771c22.678-39.818,45.356-79.635,68.523-120.31c2.699,5.366,6.152,9.466,7.855,14.609
		c0.084,0.682,0.19,1.35,1.025,1.528L307.972,60.733z"/>
	<path style="fill:#FE439B;" d="M427.592,461.293c-6.856-1.387-13.828-2.002-20.682-3.524c-22.814-5.063-43.22-15.058-61.297-29.712
		c-14.925-12.098-27.813-26.104-37.715-42.692c0.324-0.085,0.648-0.171,0.972-0.256c7.798,0.981,15.57,0.642,23.236-0.939
		c9.933-2.048,18.91-6.263,25.662-13.969c7.292-8.321,11.043-18.244,11.248-29.401c1.456,0.615,2.027,1.976,2.755,3.223
		c22.245,38.154,44.499,76.303,66.744,114.456c0.471,0.808,1.203,1.536,0.934,2.849
		C435.524,461.512,431.563,461.684,427.592,461.293z"/>
	<path style="fill:#FEA2CE;" d="M141.96,299.283c34.465-1.876,68.984-0.226,103.454-2.419
		c14.639,25.988,28.929,51.359,43.541,77.298c-3.472,0.586-6.278,0.461-9.095,0.167c-0.115-1.546-1.205-1.598-2.405-1.687
		c-7.33-0.547-14.525-2.024-21.71-3.446c-14.607-2.891-28.862-7.025-42.848-12.191c-17.71-6.541-33.217-16.498-46.928-29.346
		c-9.151-8.576-16.929-18.346-24.232-28.507L141.96,299.283z"/>
	<path style="fill:#FEA2CE;" d="M308.869,385.108c-0.324,0.085-0.648,0.171-0.972,0.256c-0.312-0.094-0.624-0.188-0.936-0.283
		c-2.718-7.436-7.516-13.719-11.488-20.445c-13.13-22.237-26.465-44.354-39.709-66.524c-0.404-0.677-0.665-1.439-1.104-2.405
		c14.81-25.047,29.64-50.128,44.818-75.798c1.739,3.072,3.129,5.528,4.519,7.984c-0.87,0.652-0.231,0.749,0.323,0.877
		c0.697,0.315,0.831,0.912,0.797,1.593c-0.183,1.788,0.122,3.435,0.822,5.144c4.554,11.121,8.224,22.552,11.273,34.164
		c4.725,17.995,7.954,36.201,7.211,54.941c-0.109,2.753-0.786,5.376-0.99,8.072c-1.025,13.534-5.115,26.286-9.64,38.953
		C312.185,376.141,309.272,380.169,308.869,385.108z"/>
	<path style="fill:#FEA2CE;" d="M298.384,196.704c0.31,0.067,0.616,0.15,0.917,0.25c0.066,0.561,0.133,1.121,0.199,1.682
		c-3.755,3.669-5.444,8.632-7.934,13.053c-13.528,24.014-26.815,48.162-40.203,72.254c-0.85,1.53-1.857,2.973-2.829,4.518
		c-29.071,0.981-57.984-1.282-87.48-0.696c1.422-4.481,3.674-7.556,5.72-10.736c1.911,0.191,2.87-1.109,3.861-2.415
		c12.348-16.275,26.576-30.775,42.252-43.808c22.445-18.661,48.609-28.514,77.397-32.062
		C292.961,198.414,296.06,198.817,298.384,196.704z"/>
	<path style="fill:#FE84BE;" d="M298.384,196.704c-2.324,2.113-5.423,1.71-8.1,2.04c-28.788,3.548-54.952,13.401-77.397,32.062
		c-15.676,13.033-29.903,27.532-42.252,43.808c-0.991,1.306-1.95,2.606-3.861,2.415c10.9-19.267,21.753-38.561,32.713-57.795
		c10.318-18.108,20.748-36.152,31.128-54.224c2.143,1.895,3.865-0.149,5.592-0.771c12.192-4.392,24.229-4.396,35.738,1.795
		c9.961,5.359,17.288,13.608,22.968,23.303C296.28,191.669,297.238,194.242,298.384,196.704z"/>
	<path style="fill:#FE84BE;" d="M141.738,299.151c7.303,10.161,15.081,19.932,24.232,28.507
		c13.711,12.848,29.218,22.805,46.928,29.346c13.986,5.165,28.241,9.3,42.848,12.191c7.185,1.422,14.38,2.899,21.71,3.446
		c1.2,0.09,2.289,0.142,2.405,1.687c-19.922,0.091-39.844,0.214-59.766,0.265c-23.781,0.061-47.561,0.061-71.342,0.087
		c-3.111-2.957-6.356-5.788-9.307-8.897c-7.836-8.254-11.926-18.325-11.788-29.534c0.143-11.556,4.331-22.154,10.532-31.921
		c1.013-1.596,2.498-2.954,2.819-4.954C141.248,299.288,141.491,299.213,141.738,299.151z"/>
	<path style="fill:#FE84BE;" d="M308.869,385.108c0.403-4.939,3.315-8.967,4.924-13.47c4.525-12.667,8.615-25.419,9.64-38.953
		c0.204-2.696,0.881-5.319,0.99-8.072c0.743-18.74-2.487-36.946-7.211-54.941c-3.049-11.613-6.719-23.043-11.273-34.164
		c-0.7-1.71-1.005-3.356-0.822-5.144c5.793,8.463,10.554,17.544,15.74,26.368c15.42,26.234,30.697,52.552,46.023,78.842
		c0.954,1.637,2.249,3.147,2.136,5.226c-0.205,11.156-3.956,21.08-11.248,29.401c-6.753,7.706-15.73,11.921-25.662,13.969
		C324.439,385.75,316.667,386.089,308.869,385.108z"/>
	<path style="fill:#9C0149;" d="M56.796,294.266c0.197,1.804,0.411,3.619-2.241,3.694C55.028,296.563,55.579,295.213,56.796,294.266
		z"/>
	<path style="fill:#9C0149;" d="M340.13,116.676c-1.216-0.163-1.259-1.027-1.174-1.966
		C339.83,115.077,339.952,115.894,340.13,116.676z"/>
	<path style="fill:#C6015D;" d="M18.305,360.993c0.045,0.963-0.206,1.733-1.279,1.97C17.299,362.207,17.33,361.294,18.305,360.993z"
		/>
	<path style="fill:#C6015D;" d="M20.199,358.098c0.221,0.941,0.016,1.666-1.003,1.979C18.789,359.042,19.135,358.388,20.199,358.098
		z"/>
	<path style="fill:#9C0149;" d="M341.2,118.49c-1.377-0.042-1.358-0.934-1.171-1.927C340.845,116.947,341.015,117.723,341.2,118.49z
		"/>
	<path style="fill:#9C0149;" d="M51.836,302.858c0.231,1.012,0.291,1.918-1.172,1.865C50.84,303.967,51.078,303.25,51.836,302.858z"
		/>
	<path style="fill:#9C0149;" d="M52.909,300.991c0.167,0.985,0.121,1.843-1.165,1.965C51.912,302.171,52.037,301.359,52.909,300.991
		z"/>
	<path style="fill:#9C0149;" d="M342.251,120.242c-1.566,0.156-1.41-0.779-1.132-1.79
		C341.833,118.836,342.053,119.532,342.251,120.242z"/>
	<path style="fill:#9C0149;" d="M53.962,299.14c0.075,0.923,0.025,1.774-1.147,1.971C52.973,300.323,53.071,299.5,53.962,299.14z"/>
	<path style="fill:#9C0149;" d="M339.05,114.831c-1.076-0.259-1.131-1.1-1.127-1.975
		C338.759,113.251,338.911,114.037,339.05,114.831z"/>
	<path style="fill:#9C0149;" d="M337.314,111.796c-1.375-0.183-1.276-1.223-1.282-2.202
		C336.872,110.088,337.133,110.919,337.314,111.796z"/>
	<path style="fill:#9C0149;" d="M54.671,297.979c0.174,0.689-0.118,1.087-0.782,1.253C53.96,298.695,54.041,298.166,54.671,297.979z
		"/>
	<path style="fill:#9C0149;" d="M342.929,121.55c-0.695-0.12-1.014-0.489-0.803-1.21
		C342.768,120.495,342.849,121.022,342.929,121.55z"/>
	<path style="fill:#9C0149;" d="M50.841,304.733c0.099,0.72-0.276,1.091-0.927,1.259C50.085,305.471,50.163,304.881,50.841,304.733z
		"/>
	<path style="fill:#FE84BE;" d="M304.32,228.771c-0.554-0.128-1.192-0.225-0.323-0.877
		C304.106,228.186,304.214,228.478,304.32,228.771z"/>
	<path style="fill:#C6015D;" d="M19.259,360.006c-0.068,0.605-0.358,0.997-1.006,1.043
		C18.363,360.484,18.291,359.744,19.259,360.006z"/>
	<path style="fill:#C6015D;" d="M308.018,60.837c-0.835-0.178-0.941-0.846-1.025-1.528
		C307.647,59.608,307.944,60.148,308.018,60.837z"/>
	<path style="fill:#9C0149;" d="M337.979,112.937c-0.611-0.209-0.885-0.634-0.818-1.277
		C337.799,111.851,337.911,112.38,337.979,112.937z"/>
</g>
</svg>
