<svg width="25" height="25" viewBox="0 0 25 25" fill="none" xmlns="http://www.w3.org/2000/svg">
<g clip-path="url(#clip0_1113_10422)">
<path d="M12.6952 1.63222C12.8599 1.53714 13.0628 1.53714 13.2274 1.63222L22.0203 6.7088C22.185 6.80388 22.2865 6.9796 22.2865 7.16976V17.3229C22.2865 17.5131 22.185 17.6888 22.0203 17.7839L13.2274 22.8605C13.0628 22.9555 12.8599 22.9555 12.6952 22.8605L3.90227 17.7839C3.73759 17.6888 3.63614 17.5131 3.63614 17.3229V7.16976C3.63614 6.9796 3.73759 6.80388 3.90227 6.7088L12.6952 1.63222Z" stroke="#CACFD3" stroke-width="1.7" stroke-linejoin="round"/>
<path d="M12.505 7.74782C12.7117 7.40326 13.2111 7.40326 13.4178 7.74782L15.9526 11.9725C16.0537 12.1411 16.0537 12.3516 15.9526 12.5202L13.4178 16.7449C13.2111 17.0895 12.7117 17.0895 12.505 16.7449L9.97015 12.5202C9.86901 12.3516 9.86901 12.1411 9.97015 11.9725L12.505 7.74782Z" stroke="#CACFD3" stroke-width="1.7" stroke-linejoin="round"/>
</g>
<defs>
<clipPath id="clip0_1113_10422">
<rect width="24" height="24" fill="white" transform="translate(0.212036 0.207397)"/>
</clipPath>
</defs>
</svg>
