<svg width="24" height="24" viewBox="0 0 24 24" fill="none" xmlns="http://www.w3.org/2000/svg">
<g clip-path="url(#clip0_19848_43957)">
<path d="M12.4831 1.42482C12.6478 1.32974 12.8507 1.32974 13.0154 1.42482L21.8083 6.5014C21.973 6.59648 22.0744 6.7722 22.0744 6.96236V17.1155C22.0744 17.3057 21.973 17.4814 21.8083 17.5765L13.0154 22.6531C12.8507 22.7481 12.6478 22.7481 12.4831 22.6531L3.69024 17.5765C3.52555 17.4814 3.4241 17.3057 3.4241 17.1155V6.96236C3.4241 6.7722 3.52555 6.59648 3.69024 6.5014L12.4831 1.42482Z" stroke="#F0C800" stroke-width="1.7" stroke-linejoin="round"/>
<path d="M12.2929 7.54042C12.4997 7.19586 12.999 7.19586 13.2058 7.54042L15.7406 11.7651C15.8417 11.9337 15.8417 12.1442 15.7406 12.3128L13.2058 16.5375C12.999 16.8821 12.4997 16.8821 12.2929 16.5375L9.75811 12.3128C9.65697 12.1442 9.65697 11.9337 9.75811 11.7651L12.2929 7.54042Z" stroke="#D69700" stroke-width="1.7" stroke-linejoin="round"/>
</g>
<defs>
<clipPath id="clip0_19848_43957">
<rect width="24" height="24" fill="white"/>
</clipPath>
</defs>
</svg>
