<svg width="25" height="25" viewBox="0 0 25 25" fill="currentColor" xmlns="http://www.w3.org/2000/svg">
<g clip-path="url(#clip0_20318_43472)">
<path d="M16.8954 6.22249V4.09249C16.8954 3.48249 16.4054 2.99249 15.7954 2.99249H1.83535C1.22535 2.99249 0.735352 3.48249 0.735352 4.09249V8.60249C0.735352 9.21249 1.22535 9.70249 1.83535 9.70249H2.81535V11.8625H1.83535C1.22535 11.8625 0.735352 12.3525 0.735352 12.9625V21.8425C0.735352 22.4525 1.22535 22.9425 1.83535 22.9425H13.9254C14.2554 22.9825 14.5954 23.0125 14.9354 23.0125C19.6254 23.0125 23.4454 19.1925 23.4454 14.5025C23.4454 10.4825 20.6454 7.11249 16.8954 6.23249V6.22249ZM16.8954 20.4925C16.2754 20.6925 15.6254 20.8025 14.9354 20.8025C14.6454 20.8025 14.3554 20.7725 14.0754 20.7325C12.4954 20.5125 11.1054 19.7125 10.1254 18.5525C10.0854 18.5125 10.0554 18.4725 10.0254 18.4225C9.53535 17.8125 9.15535 17.1125 8.91535 16.3525C8.90535 16.3125 8.89535 16.2625 8.88535 16.2225C8.72535 15.6725 8.63535 15.0925 8.63535 14.4825C8.63535 14.3325 8.64535 14.1825 8.65535 14.0425C8.71535 13.2625 8.90535 12.5325 9.21535 11.8525C9.60535 11.0225 10.1554 10.2925 10.8454 9.70249C10.9054 9.65249 10.9754 9.59249 11.0354 9.54249C12.1054 8.70249 13.4554 8.19249 14.9254 8.19249C15.6054 8.19249 16.2654 8.30249 16.8854 8.50249C17.6554 8.75249 18.3554 9.14249 18.9654 9.65249C20.3554 10.8125 21.2454 12.5525 21.2454 14.5025C21.2454 17.3025 19.4154 19.6725 16.8954 20.4925ZM2.93535 14.0525H6.45535C6.45535 14.2025 6.43535 14.3425 6.43535 14.4925C6.43535 15.0925 6.49535 15.6725 6.61535 16.2325H2.93535V14.0525ZM2.93535 5.19249H14.6954V6.00249C13.1054 6.05249 11.6154 6.53249 10.3554 7.34249H3.91535C3.71535 7.34249 3.54535 7.41249 3.38535 7.50249H2.93535V5.19249ZM7.92535 9.70249C7.47535 10.3625 7.11535 11.0825 6.86535 11.8525H5.01535V9.70249H7.92535ZM2.93535 20.7425V18.5625H7.46535C7.91535 19.3825 8.49535 20.1125 9.17535 20.7425H2.93535Z"/>
</g>
<defs>
<clipPath id="clip0_20318_43472">
<rect width="22.71" height="20.01" fill="white" transform="translate(0.735352 2.99249)"/>
</clipPath>
</defs>
</svg>
