<svg width="24" height="25" viewBox="0 0 24 25" fill="currentColor" xmlns="http://www.w3.org/2000/svg">
<path fill-rule="evenodd" clip-rule="evenodd" d="M14.4823 1.27433C14.6188 1.45458 14.6552 1.69151 14.5791 1.90442L13.3465 5.35206L14.3787 5.71904L15.612 2.26922C15.6881 2.05626 15.8665 1.89608 16.0864 1.84326C16.3063 1.79044 16.5381 1.85211 16.7026 2.00726C17.8944 3.13096 18.778 5.09055 18.1282 6.90265C17.5152 8.6103 15.9923 9.70599 14.3052 9.86608L13.3757 12.4705C13.2513 12.819 12.8679 13.0007 12.5194 12.8763C12.1708 12.7519 11.9891 12.3685 12.1135 12.02L13.1947 8.99083C13.2909 8.72113 13.5479 8.54241 13.8343 8.54605C15.1612 8.56296 16.396 7.76131 16.8667 6.45027C17.1626 5.6251 16.9631 4.65423 16.4733 3.84092L15.4154 6.80003C15.291 7.14808 14.9082 7.32963 14.56 7.20581L12.2652 6.38987C12.0975 6.33027 11.9605 6.20645 11.8842 6.04571C11.808 5.88496 11.7988 5.70049 11.8587 5.53297L12.9207 2.56235C11.9905 2.87479 11.1875 3.4962 10.8983 4.31839L10.8969 4.32245C10.4281 5.62836 10.8852 7.03325 11.9254 7.85359C12.1588 8.0376 12.243 8.3533 12.1324 8.62911L10.5824 12.4946C10.4447 12.8381 10.0546 13.0049 9.71113 12.8671C9.36765 12.7294 9.20085 12.3393 9.33858 11.9958L10.7132 8.56768C9.51688 7.38298 9.024 5.57573 9.63485 3.87164C10.2789 2.04403 12.2783 1.12236 13.902 1.01038C14.1276 0.994824 14.3458 1.09408 14.4823 1.27433ZM8.64639 9.19134C8.80977 9.52338 8.67304 9.925 8.34099 10.0884L5.47765 11.4973L11.613 14.5854L17.6874 11.5279L17.0271 11.2343C16.689 11.0839 16.5368 10.6879 16.6871 10.3498C16.8375 10.0116 17.2335 9.85941 17.5717 10.0098L19.5244 10.8782C19.7663 10.9858 19.9222 11.2257 19.9222 11.4905V19.1909C19.9222 19.444 19.7796 19.6756 19.5534 19.7894L11.9142 23.6345C11.7247 23.7299 11.5012 23.7299 11.3117 23.6345L3.67251 19.7894C3.44639 19.6756 3.30371 19.444 3.30371 19.1909V11.4905C3.30371 11.2351 3.44883 11.002 3.67794 10.8893L7.74934 8.88594C8.08138 8.72256 8.48301 8.85929 8.64639 9.19134ZM18.5821 12.5779L12.283 15.7485V21.9485L18.5821 18.778V12.5779ZM10.9429 21.9485V15.7485L4.64383 12.5779V18.778L10.9429 21.9485Z" />
</svg>
