<svg width="24" height="24" viewBox="0 0 24 24" fill="currentColor" xmlns="http://www.w3.org/2000/svg">
<path fill-rule="evenodd" clip-rule="evenodd" d="M9.02518 5.4791C8.94424 5.59215 8.85724 5.80086 8.85724 6.20845V7.31352C8.85724 7.3214 8.85712 7.32925 8.85688 7.33706H15.1533C15.1531 7.32925 15.153 7.3214 15.153 7.31352V6.20845C15.153 5.80417 15.0663 5.59669 14.9854 5.48383C14.9066 5.37393 14.7756 5.27323 14.5269 5.19329C14.2678 5.10999 13.9255 5.06388 13.4823 5.04341C13.1286 5.02708 12.7492 5.02803 12.3303 5.02908C12.2245 5.02934 12.1162 5.02961 12.0051 5.02961C11.8849 5.02961 11.7679 5.02927 11.6539 5.02893C11.2447 5.02772 10.8737 5.02662 10.5267 5.04206C10.0831 5.06179 9.74096 5.10714 9.48214 5.18989C9.23403 5.26922 9.10372 5.36941 9.02518 5.4791ZM16.6526 7.33706C16.6529 7.32925 16.653 7.3214 16.653 7.31352V6.20845C16.653 5.59306 16.5199 5.0496 16.2043 4.60962C15.8866 4.16667 15.4443 3.91262 14.986 3.76527C14.5381 3.62127 14.0397 3.56756 13.5515 3.54501C13.1576 3.52682 12.7311 3.52796 12.3085 3.52908C12.207 3.52935 12.1057 3.52961 12.0051 3.52961C11.8972 3.52961 11.7884 3.52928 11.6794 3.52894C11.2647 3.52765 10.8462 3.52636 10.46 3.54354C9.9721 3.56525 9.47353 3.61785 9.02535 3.76113C8.56648 3.90784 8.12353 4.16177 7.80556 4.60587C7.49 5.04661 7.35724 5.59135 7.35724 6.20845V7.31352C7.35724 7.3214 7.35736 7.32925 7.3576 7.33706H2.70247C1.56698 7.33706 0.646484 8.25756 0.646484 9.39305V16.8874C0.646484 18.0229 1.56698 18.9434 2.70247 18.9434H21.2977C22.4332 18.9434 23.3537 18.0229 23.3537 16.8874V9.39305C23.3537 8.25756 22.4332 7.33706 21.2977 7.33706H16.6526ZM2.70247 8.83706C2.39541 8.83706 2.14648 9.08599 2.14648 9.39305V11.4258H5.78001V11.0908C5.78001 10.6766 6.1158 10.3408 6.53001 10.3408C6.94423 10.3408 7.28001 10.6766 7.28001 11.0908V11.4258H16.69V11.0908C16.69 10.6766 17.0258 10.3408 17.44 10.3408C17.8542 10.3408 18.19 10.6766 18.19 11.0908V11.4258H21.8537V9.39305C21.8537 9.08599 21.6048 8.83706 21.2977 8.83706H2.70247ZM21.8537 12.9258H18.19V13.7631C18.19 14.1773 17.8542 14.5131 17.44 14.5131C17.0258 14.5131 16.69 14.1773 16.69 13.7631V12.9258H7.28001V13.7631C7.28001 14.1773 6.94423 14.5131 6.53001 14.5131C6.1158 14.5131 5.78001 14.1773 5.78001 13.7631V12.9258H2.14648V16.8874C2.14648 17.1945 2.39541 17.4434 2.70247 17.4434H21.2977C21.6048 17.4434 21.8537 17.1945 21.8537 16.8874V12.9258Z" />
</svg>
