<?xml version="1.0" encoding="utf-8"?>
<!-- Generator: Adobe Illustrator 25.4.1, SVG Export Plug-In . SVG Version: 6.00 Build 0)  -->
<svg version="1.1" baseProfile="tiny" id="TORN" xmlns="http://www.w3.org/2000/svg" xmlns:xlink="http://www.w3.org/1999/xlink"
	 x="0px" y="0px" viewBox="0 0 500 500" overflow="visible" xml:space="preserve">
<path fill-rule="evenodd" fill="#44F1A6" d="M367.5,107.5c71.2,6.1,127.2,63.6,131.3,135c-3.2-118-101.5-211.1-219.5-207.8
	c-70,1.9-134.6,38-173,96.6C112.3,60,169.9,4.1,241.2,0C122.6,5.4,30.8,105.9,36.2,224.5c3.1,67.6,37.8,129.9,93.8,168
	c-70.7-6.7-126-64.1-130-135c2.9,118,100.9,211.3,218.9,208.4c69.4-1.7,133.7-37,172.3-94.7C384.6,441.3,327.8,496,257.5,500
	c118-3.9,210.5-102.7,206.6-220.7C461.8,209.7,425.8,145.6,367.5,107.5z M248.8,340c-23.5,0.1-46.1-9.3-62.5-26.2
	c-34.5-34.8-34.3-91,0.5-125.5s91-34.3,125.5,0.5s34.3,91-0.5,125.5C295,330.9,272.3,340.1,248.8,340z"/>
</svg>
