<?xml version="1.0" encoding="utf-8"?>
<!-- Generator: Adobe Illustrator 23.0.2, SVG Export Plug-In . SVG Version: 6.00 Build 0)  -->
<svg version="1.1" id="tpay" xmlns="http://www.w3.org/2000/svg" xmlns:xlink="http://www.w3.org/1999/xlink" x="0px" y="0px"
	 viewBox="0 0 500 500" style="enable-background:new 0 0 500 500;" xml:space="preserve">
<style type="text/css">
	.st0{fill:#3158A6;}
	.st1{fill:#FFFFFF;}
</style>
<path class="st0" d="M249.7,497.4C116.6,498.7,0.9,388.4,2.9,246.7C4.9,116.3,109.3,3.3,250.3,3.3c140.4,0,248.7,115,246.7,250.7
	C495.1,391.1,382.1,498.7,249.7,497.4z M249.7,480.7c123.7,0.7,230.7-99.6,230-230.7c0-127-102.3-229.3-228.7-230
	C123.3,20,19,123,19.7,250.7C19.7,381.1,126.6,481.4,249.7,480.7z"/>
<path class="st1" d="M249.7,480.7c-123,0.7-230-99.6-230-230C19,123,123.3,20,251.7,20C378,20.7,480.3,123,480.3,250
	C480.3,381.1,373.4,481.4,249.7,480.7z M249.7,465.3c117.7,0,212-94.3,215.3-209.3c3.3-119.7-91.6-220-212.6-220.6
	C131.3,34.7,35,131,35,250.7C35,369.7,131.3,465.3,249.7,465.3z"/>
<path class="st0" d="M249.7,465.3C130.6,465.3,35,369,35,250.7c0-119.7,96.3-216,217.3-215.3C372.7,36.7,467.6,137,465,256
	C461.6,371,367.3,466,249.7,465.3z M198.2,204.5c0,2,0,3.3,0,4.7c-4,18.1-8,36.1-12,54.2c-4.7,22.1-9.4,44.1-13.4,66.2
	c-2.7,16.7,6.7,33.4,22.1,42.1c10,5.3,20.7,8.7,32.1,8.7c20.7,0.7,41.5,0.7,61.5,0.7c14.7,0,14.7,0,18.1-14v-0.7
	c2.7-12.7,6-25.4,8.7-38.1c-3.3,0-5.3-0.7-8-0.7c-18.1,0-35.4,0-53.5,0c-13.4-0.7-20.1-9.4-17.4-22.1c6.7-32.1,13.4-64.2,20.7-95.6
	c0.7-4,2.7-5.3,6.7-4.7c20.1,0,40.1,0,60.2,0c5.3,0,7.4-2,8-6.7c2-10.7,4.7-21.4,7.4-31.4c0.7-4,2-8.7,3.3-13.4
	c-24.1,0-47.5,0-71.5,0c4.7-20.7,8.7-40.1,12.7-59.5c-1.3-0.7-2-0.7-2.7-0.7c-18.1,0-36.1,0-53.5,0c-1.3,0-4,2.7-4.7,4.7
	c-4,16.7-8,33.4-11.4,50.1c-0.7,4.7-3.3,6-7.4,6c-16.7,0-33.4,0-49.5,0c-6,0-8.7,1.3-9.4,7.4c-0.7,4-2,8-2.7,12
	c-2.7,10.7-4.7,20.7-7.4,32.1C156.7,204.5,177.5,204.5,198.2,204.5z M359.3,149.7c-0.7,2.7-1.3,4.7-2,6
	c-4.7,19.4-9.4,38.8-13.4,58.2c-1.3,4.7-2.7,6-7.4,6c-20.1,0-40.1,0-60.2,0c-4,0-6,1.3-6.7,5.3c-3.3,15.4-6.7,30.8-10,46.1
	c-2.7,12-4.7,24.1-7.4,35.4c-0.7,2.7-0.7,6.7,3.3,6c4-0.7,9.4,2.7,10.7-4.7c2.7-12,5.3-24.7,8-36.8c2.7-12.7,5.3-24.7,8-37.4
	c2.7,0,4.7,0,6.7,0c20.1,0,40.1,0,60.2,0c4,0,5.3-1.3,6-4.7c4-16,6.7-32.8,12-48.8C371.4,168.4,364,160.4,359.3,149.7z M333.2,326.9
	c-0.7,0-1.3,0-2,0c-0.7,2-1.3,4.7-2,6.7c-4.7,19.4-9.4,38.8-13.4,58.2c-0.7,3.3-2.7,4.7-6,4.7c-26.1,0-52.2,0-78.2,0
	c-16.7-0.7-33.4-4-48.1-13.4c-2.7-2-5.3-4-8-5.3c0.7,2.7,1.3,4.7,2.7,6.7c14.7,18.1,34.8,25.4,56.8,26.7c28.8,1.3,57.5,0.7,86.3,1.3
	c4,0,5.3-1.3,6.7-5.3c3.3-16.7,6.7-34.1,12-50.1C343.9,343.6,336.6,336.3,333.2,326.9z M301.1,90.9c-0.7,0-1.3,0-1.3,0
	c-3.3,15.4-6.7,31.4-10.7,47.5c4,0,6.7,0,10,0c4,0,6-0.7,6.7-4.7c1.3-6.7,2.7-13.4,4-20.1c0-1.3,0.7-3.3,0-4.7
	C307.2,102.9,304.5,96.9,301.1,90.9z M128.6,220.6c5.3,4.7,9.4,8,14,11.4c2,1.3,4,2.7,6,2.7c8.7,0,16.7,0,25.4,0
	c1.3,0,3.3-1.3,4-2.7c1.3-3.3,1.3-7.4,2.7-11.4C163.4,220.6,146.7,220.6,128.6,220.6z"/>
<path class="st1" d="M198.2,204.5c-20.7,0-41.5,0-62.9,0c2.7-11.4,4.7-21.4,7.4-32.1c0.7-4,2.7-8,2.7-12c0.7-6,3.3-7.4,9.4-7.4
	c16.7,0.7,33.4,0,49.5,0c4.7,0,6.7-1.3,7.4-6c3.3-16.7,7.4-33.4,11.4-50.1c0.7-2,2.7-4.7,4.7-4.7c18.1,0,36.1,0,53.5,0
	c0.7,0,1.3,0.7,2.7,0.7c-4,19.4-8.7,38.8-12.7,59.5c24.1,0,47.5,0,71.5,0c-1.3,5.3-2,9.4-3.3,13.4c-2.7,10.7-5.3,21.4-7.4,31.4
	c-0.7,4.7-2.7,6.7-8,6.7c-20.1-0.7-40.1,0-60.2,0c-4,0-6,0.7-6.7,4.7c-6.7,32.1-14,64.2-20.7,95.6c-2.7,12.7,4,22.1,17.4,22.1
	c18.1,0.7,35.4,0,53.5,0c2.7,0,4.7,0.7,8,0.7c-3.3,13.4-6,26.1-8.7,38.1v0.7c-3.3,14-3.3,14-18.1,14c-20.7,0-41.5,0-61.5-0.7
	c-11.4,0-22.1-3.3-32.1-8.7c-15.4-8.7-24.7-24.7-22.1-42.1c3.3-22.1,8.7-44.1,13.4-66.2c4-18.1,8-36.1,12-54.2
	C198.2,207.9,198.2,206.5,198.2,204.5z"/>
<path class="st1" d="M359.3,149.7c4.7,10.7,12,18.7,8,30.8c-4.7,16-8,32.8-12,48.8c-0.7,3.3-2.7,4.7-6,4.7c-20.1,0-40.1,0-60.2,0
	c-2,0-4,0-6.7,0c-2.7,12.7-5.3,25.4-8,37.4c-2.7,12-5.3,24.7-8,36.8c-1.3,7.4-6.7,4-10.7,4.7c-4.7,0.7-4-3.3-3.3-6
	c2-12,4.7-24.1,7.4-35.4c3.3-15.4,6.7-30.8,10-46.1c0.7-4,2.7-5.3,6.7-5.3c20.1,0,40.1,0,60.2,0c4.7,0,6.7-1.3,7.4-6
	c4-19.4,9.4-38.8,13.4-58.2C358,154.4,358.7,153.1,359.3,149.7z"/>
<path class="st1" d="M333.2,326.9c4,9.4,10.7,16.7,7.4,28.8c-4.7,16.7-8,33.4-12,50.1c-0.7,4-2.7,5.3-6.7,5.3
	c-28.8-0.7-57.5,0.7-86.3-1.3c-22.1-1.3-42.1-8-56.8-26.7c-1.3-2-2.7-4-2.7-6.7c2.7,2,5.3,4,8,5.3c14.7,9.4,30.8,12.7,48.1,13.4
	c26.1,0.7,52.2,0,78.2,0c3.3,0,4.7-0.7,6-4.7c4-19.4,8.7-38.8,13.4-58.2c0.7-2,1.3-4.7,2-6.7C331.9,326.9,332.6,326.9,333.2,326.9z"
	/>
<path class="st1" d="M301.1,90.9c2.7,6,6,12,8.7,18.1c0.7,1.3,0,2.7,0,4.7c-1.3,6.7-3.3,13.4-4,20.1c-0.7,4-2.7,5.3-6.7,4.7
	c-2.7,0-6,0-10,0c3.3-16.7,7.4-32.1,10.7-47.5C300.5,90.9,301.1,90.9,301.1,90.9z"/>
<path class="st1" d="M128.6,220.6c18.1,0,34.8,0,51.5,0c-0.7,4-1.3,8-2.7,11.4c-0.7,1.3-2.7,2.7-4,2.7c-8.7,0-16.7,0-25.4,0
	c-2,0-4-1.3-6-2.7C138,228.6,134,224.6,128.6,220.6z"/>
</svg>
