<?xml version="1.0" encoding="utf-8"?>
<!-- Generator: Adobe Illustrator 24.1.0, SVG Export Plug-In . SVG Version: 6.00 Build 0)  -->
<svg version="1.1" id="TRAC" xmlns="http://www.w3.org/2000/svg" xmlns:xlink="http://www.w3.org/1999/xlink" x="0px" y="0px"
	 viewBox="0 0 500 500" style="enable-background:new 0 0 500 500;" xml:space="preserve">
<style type="text/css">
	.st0{fill-rule:evenodd;clip-rule:evenodd;fill:url(#SVGID_1_);}
	.st1{fill-rule:evenodd;clip-rule:evenodd;fill:url(#SVGID_2_);}
	.st2{fill-rule:evenodd;clip-rule:evenodd;fill:url(#SVGID_3_);}
	.st3{fill-rule:evenodd;clip-rule:evenodd;fill:url(#SVGID_4_);}
	.st4{fill:#1D2667;}
</style>
<linearGradient id="SVGID_1_" gradientUnits="userSpaceOnUse" x1="67.615" y1="434.2879" x2="61.5058" y2="426.8771" gradientTransform="matrix(5.925 0 0 -4.867 16.256 2455.0464)">
	<stop  offset="0" style="stop-color:#FFFFFF;stop-opacity:0"/>
	<stop  offset="1" style="stop-color:#000000;stop-opacity:0.1"/>
</linearGradient>
<path class="st0" d="M344.9,329.6l93.4,79.2l0.1,0.1l0.9-1.3c8.6-10.5,16.3-21.7,23.1-33.4l0.4-0.6L357.1,312
	C353.5,318.2,349.4,324.1,344.9,329.6z"/>
<linearGradient id="SVGID_2_" gradientUnits="userSpaceOnUse" x1="64.9638" y1="438.5971" x2="61.4374" y2="431.9241" gradientTransform="matrix(6.51 0 0 -4.232 16.742 2134.1711)">
	<stop  offset="0" style="stop-color:#FFFFFF;stop-opacity:0"/>
	<stop  offset="1" style="stop-color:#000000;stop-opacity:0.1"/>
</linearGradient>
<path class="st1" d="M373.5,251.2h122.3l-0.2,2.9c-0.2,12.2-1.2,24.5-3.1,36.6l-0.3,3.5l-0.9,3.3c-2.3,12-5.4,23.9-9.5,35.4
	l-0.7,2.5l-114.9-42.2C371,279.7,373.5,265.5,373.5,251.2L373.5,251.2z"/>
<linearGradient id="SVGID_3_" gradientUnits="userSpaceOnUse" x1="51.34" y1="481.2707" x2="58.1817" y2="469.8516" gradientTransform="matrix(7.383 0 0 -6.886 14.826 3454.4758)">
	<stop  offset="0" style="stop-color:#FFFFFF;stop-opacity:0"/>
	<stop  offset="1" style="stop-color:#000000;stop-opacity:0.1"/>
</linearGradient>
<path class="st2" d="M463.4,127.3c6.6,11.5,12.2,23.6,16.9,36.1l1,2.2l0.7,2.5c4.1,11.8,7.3,23.9,9.6,36.2l0.8,2.9L372,228.5
	c-3.6-21.3-12.8-41.3-26.6-58l93.3-79l1,1.2c8.6,10.5,16.3,21.7,23.1,33.4l0.4,0.5L463.4,127.3L463.4,127.3z"/>
<linearGradient id="SVGID_4_" gradientUnits="userSpaceOnUse" x1="30.5205" y1="496.1814" x2="47.6152" y2="483.6581" gradientTransform="matrix(7.881 0 0 -7.625 9.614 3819.9326)">
	<stop  offset="0" style="stop-color:#FFFFFF;stop-opacity:0"/>
	<stop  offset="1" style="stop-color:#000000;stop-opacity:0.1"/>
</linearGradient>
<path class="st3" d="M273,128.1c-7-1.3-14.2-2-21.4-2V3.7c14.1,0,28.1,1.2,41.9,3.6l0.6,0.1l0.6,0.2c13.5,2.4,26.8,6.1,39.7,10.7
	l0.8,0.2l0.8,0.3c12.8,4.8,25.2,10.6,37,17.5l0.6,0.3v0l0.6,0.4c11.7,6.8,22.7,14.6,33.1,23.3l1.2,1l-78.2,94.1
	c-10.9-9.3-23.3-16.6-36.6-21.6C286.9,131.3,280,129.4,273,128.1L273,128.1z"/>
<path id="e" class="st4" d="M250.4,3.4v122.6c-68.2,0-123.5,55.5-123.5,124s55.3,124,123.5,124c36.5,0,71.1-16.2,94.4-44.1l93.5,79
	c-46.5,55.7-115.3,87.8-187.9,87.8C114.8,496.7,4.8,386.3,4.8,250.1S114.8,3.4,250.4,3.4z M366.3,292.9L481,335.4
	c-5,13.5-11.1,26.5-18.3,38.9l-105.6-61.8C360.7,306.3,363.8,299.7,366.3,292.9z M492.4,207.2c2.4,13.9,3.7,28.2,3.7,42.8H373.9
	c0-7.3-0.6-14.5-1.9-21.5L492.4,207.2z M409.1,61.8c10.9,9.3,21,19.5,30.2,30.5l-93.9,78.5c-4.6-5.5-9.7-10.7-15.1-15.3L409.1,61.8z
	"/>
</svg>
