<?xml version="1.0" encoding="utf-8"?>
<!-- Generator: Adobe Illustrator 25.4.1, SVG Export Plug-In . SVG Version: 6.00 Build 0)  -->
<svg version="1.1" baseProfile="tiny" id="Layer_1" xmlns="http://www.w3.org/2000/svg" xmlns:xlink="http://www.w3.org/1999/xlink"
	 x="0px" y="0px" viewBox="0 0 500 500" overflow="visible" xml:space="preserve">
<circle fill="#178DD0" cx="250" cy="250" r="250"/>
<path fill="#FFFFFF" d="M116.6,259.7c1.3-11.5,1.9-17.3,7-21.3c5-4,10.8-3.4,22.3-2.2c5.2,0.6,11.2,1.3,18.1,2.2
	c6.1,0.8,11.6,2.1,16.5,3.6c10.1,3.1,15.1,4.6,22.8,15c7.7,10.4,7.7,18.7,7.7,35.4c0,10.3,0,23.3,0,39.7c0,23,0,39.4,0,50.8
	c0,11,0,16.5-3.4,20c-3.4,3.4-9,3.4-20,3.4c-8.5,0-18.2,0-27.3,0c-0.6,0-1.3,0-1.9,0c-18.2,0-27.2,0-34-6.2
	c-6.7-6.2-7.5-14.7-9-31.7c-1.2-13.3-2.1-29.7-2.1-48.1C113.3,295.7,114.9,274.8,116.6,259.7z"/>
<path fill="#FFFFFF" d="M379.5,259.7c-1.3-11.5-1.9-17.3-7-21.3c-5-4-10.8-3.4-22.3-2.2c-5.2,0.6-11.2,1.3-18.1,2.2
	c-6.1,0.8-11.6,2.1-16.5,3.6c-10.1,3.1-15.1,4.6-22.8,15c-7.7,10.4-7.7,18.7-7.7,35.4c0,10.3,0,23.3,0,39.7c0,23,0,39.4,0,50.8
	c0,11,0,16.5,3.4,20c3.4,3.4,9,3.4,20,3.4c8.5,0,18.2,0,27.4,0c0.6,0,1.3,0,1.9,0c18.2,0,27.2,0,34-6.2c6.7-6.2,7.5-14.7,9-31.7
	c1.2-13.3,2.1-29.7,2.1-48.1C382.8,295.7,381.2,274.8,379.5,259.7z"/>
<path fill="#FFFFFF" d="M117.2,133c0-18,0-27,5.2-33.4c0.7-0.8,1.4-1.7,2.2-2.4c6-5.7,14.8-6.3,32.2-7.6c24.4-1.8,57.7-3.6,93.2-3.6
	s68.7,1.8,93.2,3.6c17.5,1.3,26.2,1.9,32.2,7.6c0.8,0.7,1.5,1.6,2.2,2.4c5.2,6.4,5.2,15.4,5.2,33.4c0,17.8,0,26.8-5.2,33.2
	c-0.7,0.8-1.4,1.7-2.2,2.4c-6,5.7-14.7,6.3-31.9,7.6c-23.8,1.8-56.6,3.5-93.5,3.5s-69.7-1.8-93.5-3.5c-17.2-1.3-25.9-1.9-31.9-7.6
	c-0.8-0.7-1.5-1.6-2.2-2.4C117.2,159.7,117.2,150.8,117.2,133z"/>
</svg>
