<?xml version="1.0" encoding="iso-8859-1"?>
<!-- Generator: Adobe Illustrator 19.0.0, SVG Export Plug-In . SVG Version: 6.00 Build 0)  -->
<svg version="1.1" id="Layer_1" xmlns="http://www.w3.org/2000/svg" xmlns:xlink="http://www.w3.org/1999/xlink" x="0px" y="0px"
	 viewBox="1000 -1000 2500 2500" style="enable-background:new 1000 -1000 2500 2500;" xml:space="preserve">
<circle style="fill:#30C0F2;" cx="2250" cy="250" r="1224.287"/>
<path style="opacity:0.4;fill:#298EA1;enable-background:new    ;" d="M2881.946-306.024l579.031,736.791
	c0,0-60.639,784.201-935.717,1012.461l-324.56-387.992L2881.946-306.024z"/>
<path style="fill:#FFFFFF;" d="M1789.865-456.636h928.486c0,0,24.65,123.25,156.117,131.467c0,0,435.485,1018.87-624.469,1454.355
	c0,0-977.787-312.234-632.685-1446.138C1617.315-316.952,1765.215-325.169,1789.865-456.636"/>
<path style="fill:#F8B642;stroke:#298EA1;stroke-width:5.263;stroke-miterlimit:10;" d="M1859.707-353.927h788.802
	c0,0,5.012,101.23,112.487,108.296c0,0,355.865,870.969-510.421,1243.35c0,0-804.414-258.99-522.335-1228.396
	C1728.24-230.677,1839.576-241.523,1859.707-353.927"/>
<path style="fill:#FFFFFF;" d="M2457.471,110.316h-23.993c2.383-48.232-8.217-153.241-137.958-182.411
	c-37.694-9.054-77.184-7.231-113.883,5.259c-50.615,18.077-111.09,63.515-113.308,177.152h-17.584
	c-37.401,0.09-67.697,30.387-67.788,67.788V461.58c0.09,37.401,30.387,67.697,67.788,67.788h406.726
	c37.401-0.09,67.697-30.387,67.788-67.788V178.104C2525.169,140.703,2494.872,110.407,2457.471,110.316z M2299.3,430.767h-90.384
	l23.911-119.471c-27.054-11.753-39.458-43.213-27.704-70.267c11.753-27.054,43.213-39.458,70.267-27.704
	c27.054,11.753,39.458,43.213,27.704,70.267c-5.392,12.411-15.293,22.312-27.704,27.704L2299.3,430.767z M2126.75,110.316
	c2.219-37.139,17.83-124.976,115.034-131.467c0,0,128.263-7.066,125.962,131.467H2126.75z"/>
</svg>
