<?xml version="1.0" encoding="iso-8859-1"?>
<!-- Generator: Adobe Illustrator 19.0.0, SVG Export Plug-In . SVG Version: 6.00 Build 0)  -->
<svg version="1.1" id="Layer_1" xmlns="http://www.w3.org/2000/svg" xmlns:xlink="http://www.w3.org/1999/xlink" x="0px" y="0px"
	 viewBox="0 0 2000 2000" style="enable-background:new 0 0 2000 2000;" xml:space="preserve">
<g>
	<path d="M201.758,20c43.588,10.159,89.705,20.836,135.788,31.66c408.391,95.929,816.812,191.726,1225.045,288.321
		c19.537,4.623,39.267,13.686,55.712,25.233c85.085,59.744,169.147,120.947,253.528,181.692
		c28.026,20.176,29.625,30.143,9.24,59.169c-315.506,449.231-630.975,898.488-947.014,1347.343
		c-7.275,10.333-22.636,23.788-31.433,22.006c-11.04-2.237-23.461-17.131-27.982-29.281
		C659.123,1366.928,444.396,787.419,229.579,207.942c-17.901-48.288-36.111-96.465-53.576-144.911
		C166.711,37.256,176.45,20.071,201.758,20z M265.92,89.035c250.491,291.021,496.512,576.847,743.532,863.835
		c179.852-188.625,356.946-374.357,536.963-563.155C1118.895,289.326,696.163,190.062,265.92,89.035z M267.713,146.019
		c-1.203,1.114-2.405,2.228-3.608,3.341c211.594,570.772,423.188,1141.544,634.782,1712.316c5.67-11.05,7.445-20.856,8.469-30.74
		c28.307-273.053,56.33-546.137,85.144-819.137c2.529-23.956-2.251-41.813-18.785-60.559
		C800.294,754.622,627.897,557.1,455.186,359.856C392.739,288.538,330.206,217.295,267.713,146.019z M934.764,1853.479
		c1.435,0.694,2.869,1.388,4.304,2.082c292.121-415.882,584.242-831.764,876.364-1247.646c-11.711,0.657-20.756,4.255-29.485,8.503
		c-230.204,112.049-459.357,226.348-691.309,334.653c-54.31,25.359-73.311,56.23-78.099,114.072
		c-15.029,181.512-36.852,362.461-56.011,543.632C951.902,1690.339,943.349,1771.91,934.764,1853.479z M1574.763,398.098
		c-169.859,178.15-338.398,354.915-506.937,531.68c1.359,1.645,2.719,3.29,4.078,4.935
		c246.494-120.654,492.987-241.309,743.042-363.707C1733.609,512.452,1655.5,456.222,1574.763,398.098z"/>
	<path style="fill:#FFFFFF;" d="M265.92,89.035c430.243,101.028,852.975,200.292,1280.495,300.68
		c-180.017,188.798-357.111,374.53-536.963,563.155C762.432,665.882,516.411,380.055,265.92,89.035z"/>
	<path style="fill:#FFFFFF;" d="M267.713,146.019c62.493,71.277,125.026,142.52,187.473,213.837
		C627.897,557.1,800.294,754.622,973.715,951.24c16.534,18.746,21.314,36.603,18.785,60.559
		c-28.814,273-56.837,546.083-85.144,819.137c-1.025,9.884-2.8,19.69-8.469,30.74C687.293,1290.904,475.699,720.132,264.105,149.36
		C265.308,148.246,266.51,147.132,267.713,146.019z"/>
	<path style="fill:#FFFFFF;" d="M934.764,1853.479c8.585-81.568,17.137-163.14,25.763-244.704
		c19.16-181.17,40.983-362.12,56.011-543.632c4.789-57.842,23.79-88.713,78.099-114.072
		c231.952-108.305,461.104-222.604,691.309-334.653c8.729-4.249,17.774-7.846,29.485-8.503
		c-292.121,415.882-584.242,831.764-876.364,1247.646C937.634,1854.866,936.199,1854.172,934.764,1853.479z"/>
	<path style="fill:#FFFFFF;" d="M1574.763,398.098c80.738,58.123,158.846,114.354,240.184,172.909
		c-250.055,122.398-496.548,243.052-743.042,363.707c-1.359-1.645-2.719-3.29-4.078-4.935
		C1236.365,753.013,1404.904,576.248,1574.763,398.098z"/>
</g>
</svg>
