<?xml version="1.0" encoding="utf-8"?>
<!-- Generator: Adobe Illustrator 23.0.4, SVG Export Plug-In . SVG Version: 6.00 Build 0)  -->
<svg version="1.1" id="ttc" xmlns="http://www.w3.org/2000/svg" xmlns:xlink="http://www.w3.org/1999/xlink" x="0px" y="0px"
	 viewBox="0 0 500 500" style="enable-background:new 0 0 500 500;" xml:space="preserve">
<style type="text/css">
	.st0{fill:#01028D;}
	.st1{fill:#FFFFFF;}
	.st2{fill:#AFB9C9;}
</style>
<path class="st0" d="M40.9,134.2v232.6c0,5.6,2.9,10.8,7.7,13.6l193.5,115.8c5,3,11.3,3,16.3,0L452,380.5c4.8-2.9,7.7-8.1,7.7-13.6
	V134.2c0-5.6-2.9-10.8-7.7-13.6L258.5,4.7c-5-3-11.3-3-16.3,0L48.6,120.5C43.8,123.4,40.9,128.6,40.9,134.2z"/>
<path class="st1" d="M354.9,148.9H144.5c-3.8,0-6.9,3.1-6.9,6.9v49.6c0,3.8,3.1,6.9,6.9,6.9h71.9v155.4c0,3.8,3.1,6.9,6.9,6.9h53.6
	c3.8,0,6.9-3.1,6.9-6.9V212.2h71.2c3.8,0,6.9-3.1,6.9-6.9v-49.6C361.8,152,358.7,148.9,354.9,148.9z"/>
<path class="st2" d="M216.3,212.2h47.6c2.5,0,3.8,2.9,2.2,4.8l-49.8,57.3L216.3,212.2z"/>
</svg>
