<?xml version="1.0" encoding="utf-8"?>
<!-- Generator: Adobe Illustrator 23.0.3, SVG Export Plug-In . SVG Version: 6.00 Build 0)  -->
<svg version="1.1" id="tube" xmlns="http://www.w3.org/2000/svg" xmlns:xlink="http://www.w3.org/1999/xlink" x="0px" y="0px"
	 viewBox="0 0 500 500" style="enable-background:new 0 0 500 500;" xml:space="preserve">
<style type="text/css">
	.st0{fill:#343434;}
	.st1{fill:#FFFFFF;}
</style>
<circle class="st0" cx="249.7" cy="249.7" r="245.7"/>
<path class="st1" d="M249.7,61.5c103.9,0,188.2,84.3,188.2,188.2s-84.2,188.2-188.2,188.2S61.5,353.6,61.5,249.7
	S145.8,61.5,249.7,61.5 M249.7,42.6c-28,0-55.1,5.5-80.6,16.3c-24.7,10.4-46.8,25.4-65.8,44.4c-19,19-33.9,41.2-44.4,65.8
	c-10.8,25.5-16.3,52.7-16.3,80.6s5.5,55.1,16.3,80.6c10.4,24.7,25.4,46.8,44.4,65.8c19,19,41.2,33.9,65.8,44.4
	c25.5,10.8,52.7,16.3,80.6,16.3s55.1-5.5,80.6-16.3c24.7-10.4,46.8-25.4,65.8-44.4c19-19,33.9-41.2,44.4-65.8
	c10.8-25.5,16.3-52.7,16.3-80.6s-5.5-55.1-16.3-80.6c-10.4-24.7-25.4-46.8-44.4-65.8c-19-19-41.2-33.9-65.8-44.4
	C304.8,48.1,277.7,42.6,249.7,42.6L249.7,42.6z"/>
<path class="st1" d="M382,189.2c-3.4,0-6.8-1.9-8.4-5.2c-22.5-44.2-73-75-122.9-75c-5.2,0-9.5-4.2-9.5-9.5s4.2-9.5,9.5-9.5
	c28.4,0,56.9,8.4,82.4,24.2c24.7,15.3,45.1,37,57.4,61.2c2.4,4.7,0.5,10.4-4.1,12.7C384.9,188.9,383.5,189.2,382,189.2z"/>
<path class="st1" d="M202.2,165.8l138.1,84.6l-138.1,84.2V165.8 M202.2,146.9c-3.2,0-6.4,0.8-9.3,2.4c-6,3.3-9.7,9.7-9.7,16.5v168.7
	c0,6.8,3.7,13.2,9.7,16.5c2.9,1.6,6.1,2.4,9.3,2.4c3.4,0,6.8-0.9,9.8-2.8l138.1-84.2c5.6-3.4,9.1-9.5,9.1-16.1
	c0-6.6-3.4-12.7-9-16.2l-138.1-84.6C209,147.8,205.6,146.9,202.2,146.9L202.2,146.9z"/>
</svg>
