<?xml version="1.0" encoding="utf-8"?>
<!-- Generator: Adobe Illustrator 23.0.1, SVG Export Plug-In . SVG Version: 6.00 Build 0)  -->
<svg version="1.1" id="TUSD" xmlns="http://www.w3.org/2000/svg" xmlns:xlink="http://www.w3.org/1999/xlink" x="0px" y="0px"
	 viewBox="0 0 500 500" style="enable-background:new 0 0 500 500;" xml:space="preserve">
<style type="text/css">
	.st0{fill:#002868;}
	.st1{fill:#FFFFFF;}
</style>
<path id="Coin_BG" class="st0" d="M250,500L250,500C112.5,500,0,387.5,0,250v0C0,112.5,112.5,0,250,0h0c137.5,0,250,112.5,250,250v0
	C500,387.5,387.5,500,250,500z"/>
<path id="BG_1_" class="st1" d="M376,400H124c-13.2,0-24-10.8-24-24V124c0-13.2,10.8-24,24-24h252c13.2,0,24,10.8,24,24v252
	C400,389.2,389.2,400,376,400z"/>
<g>
	<path class="st0" d="M158.54,369.8c-0.79,0-1.43-0.72-1.43-1.51v-40.31c0-0.79-0.64-1.51-1.43-1.51h-14.23
		c-0.8,0-1.51-0.64-1.51-1.43v-7.79c0-0.79,0.72-1.51,1.51-1.51h43.8c0.79,0,1.51,0.71,1.51,1.51v7.79c0,0.79-0.72,1.43-1.51,1.43
		H171.1c-0.79,0-1.51,0.71-1.51,1.51v40.31c0,0.79-0.64,1.51-1.43,1.51H158.54z"/>
	<path class="st0" d="M230.48,317.25c0-0.79,0.64-1.51,1.43-1.51h9.54c0.79,0,1.51,0.71,1.51,1.51v27.51
		c0,16.3-9.22,25.76-23.85,25.76c-14.55,0-23.69-9.46-23.69-25.76v-27.51c0-0.79,0.64-1.51,1.43-1.51h9.54
		c0.79,0,1.51,0.71,1.51,1.51v27.9c0,8.03,4.13,13.75,11.29,13.75s11.29-5.72,11.29-13.75V317.25z"/>
	<path class="st0" d="M286.77,333.39c-1.27,0-1.67-0.48-2.15-1.43c-1.67-3.9-5.33-6.36-10.89-6.36c-5.01,0-9.22,1.75-9.22,5.09
		c0,3.66,3.9,5.17,12.48,6.2c13.04,1.51,20.51,5.49,20.51,15.82c0,11.61-10.18,17.73-23.21,17.73c-11.29,0-20.99-5.49-22.5-17.01
		c-0.16-1.11,0.4-1.51,1.51-1.51h8.75c1.11,0,1.75,0.48,2.07,1.35c1.19,3.82,5.25,6.76,11.13,6.76c5.17,0,9.7-1.91,9.7-5.96
		c0-4.85-4.77-5.72-14.31-6.92c-10.97-1.43-18.6-4.61-18.6-14.71s8.67-17.33,22.26-17.33c12.24,0,20.75,6.6,22.5,16.46
		c0.24,1.11-0.08,1.83-1.27,1.83H286.77z"/>
	<path class="st0" d="M308.31,369.8c-0.79,0-1.43-0.72-1.43-1.51v-51.04c0-0.79,0.64-1.51,1.43-1.51h21.62
		c16.06,0,28.54,11.05,28.54,27.19c0,15.9-12.32,26.87-28.54,26.87H308.31z M329.93,359.06c8.67,0,15.42-6.84,15.42-16.3
		s-6.76-16.3-15.5-16.3h-8.98c-0.79,0-1.43,0.71-1.43,1.51v29.65c0,0.79,0.64,1.43,1.43,1.43H329.93z"/>
</g>
<path id="BG" class="st0" d="M392,286H108c-2.2,0-4-1.8-4-4V124c0-11,9-20,20-20h252c11,0,20,9,20,20v158
	C396,284.2,394.2,286,392,286z"/>
<path id="_x7C_" class="st1" d="M264.73,253.56h-26c-1.65,0-3-1.35-3-3v-110c0-1.65,1.35-3,3-3h26c1.65,0,3,1.35,3,3v110
	C267.73,252.21,266.38,253.56,264.73,253.56z"/>
<path id="_x2014_" class="st1" d="M309,169.56H191c-1.65,0-3-1.35-3-3v-26c0-1.65,1.35-3,3-3h118c1.65,0,3,1.35,3,3v26
	C312,168.21,310.65,169.56,309,169.56z"/>
<g>
</g>
<g>
</g>
<g>
</g>
<g>
</g>
<g>
</g>
<g>
</g>
</svg>
