<svg width="24" height="24" viewBox="0 0 24 24" fill="none" xmlns="http://www.w3.org/2000/svg">
<g clip-path="url(#clip0_21473_43961)">
<path fill-rule="evenodd" clip-rule="evenodd" d="M2 2C2 1.44772 2.44772 1 3 1H21C21.5523 1 22 1.44772 22 2V14C22 14.2652 21.8946 14.5196 21.7071 14.7071L17.7071 18.7071C17.5196 18.8946 17.2652 19 17 19H12.4142L8.70711 22.7071C8.42111 22.9931 7.99099 23.0787 7.61732 22.9239C7.24364 22.7691 7 22.4045 7 22V19H3C2.44772 19 2 18.5523 2 18V2ZM4 3V17H8C8.55228 17 9 17.4477 9 18V19.5858L11.2929 17.2929C11.4804 17.1054 11.7348 17 12 17H16.5858L20 13.5858V3H4ZM11 6C11.5523 6 12 6.44772 12 7V11C12 11.5523 11.5523 12 11 12C10.4477 12 10 11.5523 10 11V7C10 6.44772 10.4477 6 11 6ZM16 6C16.5523 6 17 6.44772 17 7V11C17 11.5523 16.5523 12 16 12C15.4477 12 15 11.5523 15 11V7C15 6.44772 15.4477 6 16 6Z" fill="black"/>
</g>
<defs>
<clipPath id="clip0_21473_43961">
<rect width="24" height="24" fill="white"/>
</clipPath>
</defs>
</svg>
