<svg aria-hidden="true" data-testid="test-icon" fill="currentColor" viewBox="0 0 30 30" xmlns="http://www.w3.org/2000/svg"><path d="M28 6.937c-.957.425-1.985.711-3.064.84a5.343 5.343 0 002.345-2.951 10.696 10.696 0 01-3.388 1.295 5.334 5.334 0 00-9.089 4.864A15.143 15.143 0 013.809 5.411a5.321 5.321 0 00-.721 2.683 5.33 5.33 0 002.372 4.439 5.323 5.323 0 01-2.416-.667v.067a5.335 5.335 0 004.279 5.23 5.336 5.336 0 01-2.409.092 5.34 5.34 0 004.983 3.705 10.699 10.699 0 01-6.625 2.284c-.43 0-.855-.025-1.273-.075a15.102 15.102 0 008.177 2.396c9.812 0 15.176-8.128 15.176-15.177 0-.231-.005-.461-.015-.69A10.855 10.855 0 0028 6.937z"/></svg>
