<svg width="24" height="24" viewBox="0 0 24 24" fill="none" xmlns="http://www.w3.org/2000/svg">
<g clip-path="url(#clip0_21204_44697)">
<path d="M8.16013 21.76C5.58013 21.76 2.93013 21.07 0.460134 19.7C0.100134 19.5 -0.079866 19.07 0.030134 18.67C0.140134 18.27 0.500134 18.02 0.930134 18.01C2.67013 18.09 4.44013 17.71 6.02013 16.95C-1.71987 12.35 2.04013 3.63999 2.08013 3.53999C2.21013 3.23999 2.49013 3.03999 2.82013 3.00999C3.15013 2.98999 3.46013 3.11999 3.64013 3.38999C5.35013 5.82999 8.06013 7.33999 11.0001 7.51999V7.43999C10.9801 5.86999 11.6501 4.35999 12.8501 3.31999C13.9301 2.37999 15.3201 1.91999 16.7501 2.00999C17.9801 2.09999 19.1101 2.58999 20.0101 3.40999C20.8501 3.10999 21.6501 2.68999 22.3801 2.17999C22.6901 1.95999 23.0901 1.95999 23.4101 2.17999C23.7201 2.38999 23.8701 2.76999 23.7801 3.13999C23.4401 4.54999 22.7501 5.83999 21.7801 6.89999C21.8001 7.06999 21.8101 7.24999 21.8101 7.41999C21.8101 12.87 19.4001 17.41 15.2001 19.88C13.0601 21.14 10.6501 21.77 8.18013 21.77L8.16013 21.76ZM4.46013 19.43C7.86013 20.4 11.3601 20.04 14.2801 18.32C17.9201 16.18 20.0001 12.2 20.0001 7.40999C20.0001 7.18999 19.9801 6.96999 19.9401 6.74999C19.8801 6.45999 19.9801 6.14999 20.1901 5.93999C20.5001 5.63999 20.7701 5.30999 21.0201 4.94999C20.6901 5.07999 20.3601 5.19999 20.0201 5.29999C19.6801 5.39999 19.3101 5.29999 19.0801 5.02999C18.4501 4.30999 17.5801 3.86999 16.6301 3.80999C15.6901 3.74999 14.7501 4.04999 14.0301 4.67999C13.2301 5.36999 12.7801 6.36999 12.8001 7.42999V8.43999C12.8001 8.92999 12.4101 9.32999 11.9201 9.33999C8.59013 9.43999 5.47013 8.10999 3.24013 5.74999C2.61013 8.27999 2.21013 13.4 8.26013 16.09C8.56013 16.22 8.76013 16.51 8.79013 16.83C8.82013 17.15 8.67013 17.47 8.40013 17.66C7.20013 18.47 5.86013 19.07 4.45013 19.43H4.46013Z" fill="black"/>
</g>
<defs>
<clipPath id="clip0_21204_44697">
<rect width="23.8" height="19.76" fill="white" transform="translate(0 2)"/>
</clipPath>
</defs>
</svg>
