<?xml version="1.0" encoding="utf-8"?>
<!-- Generator: Adobe Illustrator 26.0.3, SVG Export Plug-In . SVG Version: 6.00 Build 0)  -->
<svg version="1.1" id="twt" xmlns="http://www.w3.org/2000/svg" xmlns:xlink="http://www.w3.org/1999/xlink" x="0px" y="0px"
	 viewBox="0 0 500 500" style="enable-background:new 0 0 500 500;" xml:space="preserve">
<style type="text/css">
	.st0{fill:#3375BB;}
	.st1{fill:#FFFFFF;}
</style>
<path class="st0" d="M249.9,500c138.1,0,250-111.9,250-250S388,0,249.9,0s-250,111.9-250,250S111.8,500,249.9,500z"/>
<path class="st1" d="M251.7,417.7c-3.2,0-6.4-1-9.1-2.9c-18.3-13.1-33.8-21.5-47.5-29c-27.3-14.8-48.9-26.5-62.3-61.1
	c-12.1-31.2-17.4-80.7-18.8-176.4c-0.1-4.2,1.6-8.2,4.5-11.2c2.9-3,6.9-4.7,11.1-4.7c0.8,0,1.7,0,2.8,0
	c18.3,0.1,66.7,0.5,109.3-35.1c5.8-4.8,14.2-4.8,20,0c42.6,35.6,91.2,35.2,109.4,35.1c1,0,2,0,2.8,0c4.2,0,8.2,1.7,11.1,4.7
	c2.9,3,4.6,7,4.5,11.2c-1.4,95.6-6.7,145.1-18.9,176.3c-13.4,34.5-35,46.2-62.4,61.1c-13.7,7.4-29.3,15.9-47.6,29
	C258.1,416.7,254.9,417.7,251.7,417.7z M145.5,163.6c1.7,80.4,6.5,124.3,16.4,149.8c9.2,23.8,23,31.3,48.1,44.9
	c11.6,6.3,25.7,13.9,41.7,24.7c16.1-10.8,30.1-18.4,41.8-24.7c25.1-13.6,38.9-21.1,48.1-44.9c9.9-25.5,14.8-69.4,16.5-149.8
	c-10.4-0.3-24-1.4-39.5-4.9c-24.7-5.5-47.2-15.4-66.9-29.6C211.9,157.7,169.6,162.8,145.5,163.6z"/>
</svg>
