<?xml version="1.0" encoding="utf-8"?>
<!-- Generator: Adobe Illustrator 25.4.1, SVG Export Plug-In . SVG Version: 6.00 Build 0)  -->
<svg version="1.1" baseProfile="tiny" id="UFT" xmlns="http://www.w3.org/2000/svg" xmlns:xlink="http://www.w3.org/1999/xlink"
	 x="0px" y="0px" viewBox="0 0 500 500" overflow="visible" xml:space="preserve">
<path fill-rule="evenodd" fill="#2BBDF7" d="M378.9,166.3L378.9,166.3l27.1,0.2c3.1-0.2,6.2-0.2,9.3,0l66.1,0.4
	c10.1,0.6,18,9,18,19.3c0,4.9-1.8,9.3-4.7,12.7L462.5,255c-0.3,0.5-0.5,0.9-0.8,1.4l-79.6,139.4c-10.8,18.9-30.2,29.6-50.3,30l0,0
	h-0.9c-0.5,0-1,0-1.6,0l-235.5-1.2H67.6v-0.5c19.9-2.8,36.7-15.6,45.2-33.2h0.2L228.4,188c6.5-12.9,19.7-21.7,35-21.7h-1.1l0,0
	H378.9z"/>
<path fill-rule="evenodd" fill="#2B6DEF" d="M194.6,66.7h207.9c10,0.6,18,9,18,19.3c0,4.1-1.3,7.9-3.5,11.1l-56.1,98.5l-59.6,104.7
	l0,0h0.5l-19.1,33.4c-16.1,28.2-7,64,20.1,81l1.7,1c7.6,4.5,15.8,7,24.1,7.8v1.4h-98.3v0.1H59.8c-9.7-0.2-19.5-2.7-28.6-7.8
	C2,400.8-8.6,363.6,7.6,334L136.9,98.1C148.8,76.5,171.7,65,194.6,66.7z"/>
<path fill-rule="evenodd" fill="#003CB2" d="M262.7,166.3l114.5,0.1l-16.6,29.1L301,300.1l0,0h0.5l-19.1,33.4
	c-16.1,28.2-7,64,20.1,81l1.7,1c7.6,4.5,15.8,7,24.1,7.8v1.4H230v0.1H67.2c18-1.9,35-11.9,45.2-28.5l1.1-1.9l120.4-212.8
	c6.8-8.9,17.3-14.8,29.2-15.4L262.7,166.3z"/>
</svg>
