<?xml version="1.0" encoding="utf-8"?>
<!-- Generator: Adobe Illustrator 25.0.1, SVG Export Plug-In . SVG Version: 6.00 Build 0)  -->
<svg version="1.1" id="uma" xmlns="http://www.w3.org/2000/svg" xmlns:xlink="http://www.w3.org/1999/xlink" x="0px" y="0px"
	 viewBox="0 0 500 500" style="enable-background:new 0 0 500 500;" xml:space="preserve">
<style type="text/css">
	.st0{fill:#FF4A4A;}
</style>
<path class="st0" d="M320.4,312.5h-21.2c-3.9,0-7.3-3.1-7.3-7.3v-55.7l-37.1,23.1c-3.1,2-7.1,2-10.2,0l-36.9-23.1v55.7
	c0,3.9-3.1,7.3-7.3,7.3h-21c-3.9,0-7.3-3.1-7.3-7.3l0,0V197.8c0-5.3,4.3-9.6,9.6-9.6c2,0,3.7,0.6,5.3,1.8l58.4,40.2
	c2.4,1.8,5.7,1.8,8,0l58.4-40.2c4.3-2.9,10.4-1.8,13.3,2.5c1.2,1.6,1.6,3.5,1.8,5.3v107.5C327.5,309.2,324.3,312.5,320.4,312.5
	L320.4,312.5z"/>
<path class="st0" d="M140.8,312.4H9.4c-5.3,0-9.6-4.3-9.6-9.6l0,0v-108c0.2-4.1,3.3-7.3,7.5-7.3h21.2c3.9,0,7.3,3.1,7.3,7.3l0,0
	v82.2h79.6v-82.2c0-3.9,3.1-7.3,7.3-7.3h20.6c3.9,0,7.3,3.1,7.3,7.3v108C150.4,308,146.1,312.4,140.8,312.4L140.8,312.4z"/>
<path class="st0" d="M359.2,187.5h131.4c5.3,0,9.6,4.3,9.6,9.6v108c0,3.9-3.1,7.3-7.1,7.3l0,0H472c-3.9,0-7.3-3.1-7.3-7.3l0,0v-77.5
	c0-2.5-2.2-4.7-4.7-4.7l0,0h-70c-2.5,0-4.7,2.2-4.7,4.7l0,0v77.5c0,3.9-3.1,7.3-7.3,7.3h-21.2c-3.9,0-7.3-3.1-7.3-7.3l0,0v-108
	C349.6,191.8,353.9,187.5,359.2,187.5L359.2,187.5L359.2,187.5z"/>
<path class="st0" d="M414.3,245.7h21c3.9,0,7.3,3.1,7.3,7.3v21.4c0,3.9-3.1,7.3-7.3,7.3h-21c-3.9,0-7.3-3.1-7.3-7.3v-21.6
	C407.1,248.8,410.4,245.7,414.3,245.7z"/>
</svg>
