<?xml version="1.0" encoding="utf-8"?>
<!-- Generator: Adobe Illustrator 25.4.1, SVG Export Plug-In . SVG Version: 6.00 Build 0)  -->
<svg version="1.1" id="uncx" xmlns="http://www.w3.org/2000/svg" xmlns:xlink="http://www.w3.org/1999/xlink" x="0px" y="0px"
	 viewBox="0 0 500 500" style="enable-background:new 0 0 500 500;" xml:space="preserve">
<style type="text/css">
	.st0{clip-path:url(#SVGID_00000043459519465214274800000001620648630535889810_);fill:#00EC5B;}
	.st1{fill:url(#SVGID_00000002360801715125078820000000686592729243266694_);}
	.st2{fill:url(#K_00000003084730871027446880000002891873218489391518_);}
	.st3{fill:#FFFFFF;}
	.st4{fill:url(#M_00000111887729989847665430000007044812963572062891_);}
	
		.st5{clip-path:url(#SVGID_00000106119311384199188240000016633878413865743769_);fill:url(#SVGID_00000042718112211634260830000014265958608019916168_);}
	.st6{fill:url(#Q_00000143587693425343874860000005130176731183909264_);}
	
		.st7{clip-path:url(#SVGID_00000003083839119536615060000010237883533725801627_);fill:url(#SVGID_00000047020505345638263530000004322057581123171252_);}
	.st8{fill:url(#SVGID_00000051344580425902967580000004800571244289636233_);}
	.st9{fill:url(#SVGID_00000176756889726607278020000002497812204795995556_);}
</style>
<g>
	<defs>
		<path id="SVGID_1_" d="M493.9,218.2c0,0-70.9,27.3-78.8,32.9c0,0,76-35.1,66.4-136.2c0,0-58.7,111.9-109.2,130.9
			c0,0,32.5,41.5,35.3,60.3C407.5,306.2,475.2,286.1,493.9,218.2z"/>
	</defs>
	<clipPath id="SVGID_00000009591931379013193790000013998302159472308362_">
		<use xlink:href="#SVGID_1_"  style="overflow:visible;"/>
	</clipPath>
	<path style="clip-path:url(#SVGID_00000009591931379013193790000013998302159472308362_);fill:#00EC5B;" d="M443.5,306.2l50.4-77.6
		v77.6H443.5z"/>
</g>
<linearGradient id="SVGID_00000131345598281607565360000007116595854355555229_" gradientUnits="userSpaceOnUse" x1="454.6662" y1="94.4849" x2="454.6662" y2="284.3696" gradientTransform="matrix(1 0 0 -1 0 502.6)">
	<stop  offset="0" style="stop-color:#4ECC8D"/>
	<stop  offset="1" style="stop-color:#00D579"/>
</linearGradient>
<path style="fill:url(#SVGID_00000131345598281607565360000007116595854355555229_);" d="M424.7,408.1c0,0,100.7-107,69.2-189.9
	c0,0-60.5,77.7-84.6,85.4L424.7,408.1L424.7,408.1L424.7,408.1z"/>
<g>
	
		<linearGradient id="K_00000002371970043599869220000001501808960065648037_" gradientUnits="userSpaceOnUse" x1="493.9018" y1="291.9967" x2="372.234" y2="291.9967" gradientTransform="matrix(1 0 0 -1 0 502.6)">
		<stop  offset="0" style="stop-color:#00F649"/>
		<stop  offset="1" style="stop-color:#00D579"/>
	</linearGradient>
	<path id="K" style="fill:url(#K_00000002371970043599869220000001501808960065648037_);" d="M493.9,218.2c0,0-70.9,27.3-78.8,32.9
		c0,0,76-35.1,66.4-136.2c0,0-58.7,111.9-109.2,130.9c0,0,32.5,41.5,35.3,60.3C407.5,306.2,475.2,286.1,493.9,218.2z"/>
</g>
<path class="st3" d="M156.5,258c-0.1,0.1-51.7,68.7-53,73.1c0,0-13.8,28.3,30.6,31.2c0,0,23.7-1.6,88.8-26.4
	c0,0,57.1-17.9,20.3-59.7c0,0,46.3,14.9,61.7,36.6c0.9,1.2,1.6,2.6,2.6,3.7c6.5,8.2,29.4,41.6,4.5,81c0,0.1-0.1,0.1-0.1,0.2
	c-1.7,3.4-48.9,90.7-228.6,48.3c0,0,233.1,82.9,341.3-38.1l-4.5-44.7c0,0-3.4-50.3-17.9-77c-1.3-2.6-2.7-5.1-4.3-7.6
	c-8.1-12.7-27.7-50.3-78.6-72.1l-17.6,17.9l8.4-22.1c-0.1,0-41.4-15.6-53.8-11.6l-4.1,21.7l-5.9-22.3c-0.1,0-28.6-4.5-57.8,3.9
	l12,21.5c0,0,0,0.1-0.1,0.1c-1.6-0.5-16.6-3.8-28.3,21.4L60.9,215.2L156.5,258L156.5,258L156.5,258z"/>
<g>
	
		<linearGradient id="M_00000000927220421962831640000010758568299405739401_" gradientUnits="userSpaceOnUse" x1="481.4543" y1="265.0633" x2="9.094947e-13" y2="265.0633" gradientTransform="matrix(1 0 0 -1 0 502.6)">
		<stop  offset="0" style="stop-color:#00F649"/>
		<stop  offset="1" style="stop-color:#00D579"/>
	</linearGradient>
	<path id="M" style="fill:url(#M_00000000927220421962831640000010758568299405739401_);" d="M83.4,446.1c0,0-106.7-34.7-78.7-163.3
		c0,0,32.2-152.1,259.7-213.7c0,0,177.6-50.5,217.1-45.8c0,0-8.8,62.1-188.5,107.5l-118.5,66.8c-9.4,7.3-17.2,21.5-17.2,21.5
		l-6.1,13.9l-90.2-17.9l95.6,43l-53,73.1c0,0-11.7,26.6,30.6,31.2L223,336l12.4,2.4l16.2,48.7l-11.6,43.3l-81.9,15.7l-56.6,5.9
		L83.4,446.1L83.4,446.1L83.4,446.1z"/>
</g>
<g>
	<defs>
		<path id="SVGID_00000057109042516868068210000006683421013377947562_" d="M83.4,446.1c0,0-106.7-34.7-78.7-163.3
			c0,0,32.2-152.1,259.7-213.7c0,0,177.6-50.5,217.1-45.8c0,0-8.8,62.1-188.5,107.5l-118.5,66.8c-9.4,7.3-17.2,21.5-17.2,21.5
			l-6.1,13.9l-90.2-17.9l95.6,43l-53,73.1c0,0-11.7,26.6,30.6,31.2L223,336l12.4,2.4l16.2,48.7l-11.6,43.3l-81.9,15.7l-56.6,5.9
			L83.4,446.1L83.4,446.1L83.4,446.1z"/>
	</defs>
	<clipPath id="SVGID_00000122002094044479459680000005535088202985018558_">
		<use xlink:href="#SVGID_00000057109042516868068210000006683421013377947562_"  style="overflow:visible;"/>
	</clipPath>
	
		<linearGradient id="SVGID_00000123404982151170130460000011444453256519011262_" gradientUnits="userSpaceOnUse" x1="6.126526e-02" y1="267.2848" x2="-23.1252" y2="267.2848" gradientTransform="matrix(1 0 0 -1 0 502.6)">
		<stop  offset="0" style="stop-color:#00F649"/>
		<stop  offset="1" style="stop-color:#00D579"/>
	</linearGradient>
	
		<path style="clip-path:url(#SVGID_00000122002094044479459680000005535088202985018558_);fill:url(#SVGID_00000123404982151170130460000011444453256519011262_);" d="
		M-23.2,18.6H0V452h-23.2V18.6z"/>
</g>
<g>
	
		<linearGradient id="Q_00000057114898431225643330000009629684654342713745_" gradientUnits="userSpaceOnUse" x1="308.3493" y1="479.3796" x2="308.3493" y2="257.278" gradientTransform="matrix(1 0 0 -1 0 502.6)">
		<stop  offset="0" style="stop-color:#4ECC8D"/>
		<stop  offset="1" style="stop-color:#00D579"/>
	</linearGradient>
	<path id="Q" style="fill:url(#Q_00000057114898431225643330000009629684654342713745_);" d="M373.9,245.3
		c0,0,50.9-10.7,107.6-130.3c0,0-65.2,49.9-96.8,53.5c0,0,93-39.3,96.8-145.2c0,0-304.1,137.7-346.5,206.5l37.1,7.3
		c0,0,11.8-28.4,28.4-21.5l-12-21.6c0,0,17.7-10.6,57.8-3.9l5.9,22.3l4.1-21.7c0,0,11.7-5.6,53.8,11.6l-8.4,22.1l17.6-17.9
		C319.4,206.8,361,222.7,373.9,245.3L373.9,245.3L373.9,245.3z"/>
</g>
<g>
	<defs>
		<path id="SVGID_00000139259826425343139950000018038315875655544202_" d="M373.9,245.3c0,0,50.9-10.7,107.6-130.3
			c0,0-65.2,49.9-96.8,53.5c0,0,93-39.3,96.8-145.2c0,0-304.1,137.7-346.5,206.5l37.1,7.3c0,0,11.8-28.4,28.4-21.5l-12-21.6
			c0,0,17.7-10.6,57.8-3.9l5.9,22.3l4.1-21.7c0,0,11.7-5.6,53.8,11.6l-8.4,22.1l17.6-17.9C319.4,206.8,361,222.7,373.9,245.3
			L373.9,245.3L373.9,245.3z"/>
	</defs>
	<clipPath id="SVGID_00000109722102984718446780000003288716813061037997_">
		<use xlink:href="#SVGID_00000139259826425343139950000018038315875655544202_"  style="overflow:visible;"/>
	</clipPath>
	
		<linearGradient id="SVGID_00000073713109801457530270000001006072103232913294_" gradientUnits="userSpaceOnUse" x1="308.2273" y1="479.2576" x2="308.2273" y2="346.3628" gradientTransform="matrix(1 0 0 -1 0 502.6)">
		<stop  offset="0" style="stop-color:#4ECC8D"/>
		<stop  offset="1" style="stop-color:#00D579"/>
	</linearGradient>
	
		<path style="clip-path:url(#SVGID_00000109722102984718446780000003288716813061037997_);fill:url(#SVGID_00000073713109801457530270000001006072103232913294_);" d="
		M481.5,23.3L135,156.2V23.3H481.5z"/>
</g>
<linearGradient id="SVGID_00000107560902662103742230000015915648752000179353_" gradientUnits="userSpaceOnUse" x1="174.5087" y1="231.1191" x2="204.8342" y2="231.1191" gradientTransform="matrix(1 0 0 -1 0 502.6)">
	<stop  offset="0" style="stop-color:#00F649"/>
	<stop  offset="1" style="stop-color:#00D579"/>
</linearGradient>
<path style="fill:url(#SVGID_00000107560902662103742230000015915648752000179353_);" d="M204.8,262.4L204.8,262.4l-27.2,20.4
	c0,0-8.4-10,2.4-18.4C179.9,264.4,190.8,256.4,204.8,262.4"/>
<linearGradient id="SVGID_00000119083978938973059980000016055770496645563268_" gradientUnits="userSpaceOnUse" x1="326.0537" y1="133.0022" x2="83.3799" y2="133.0022" gradientTransform="matrix(1 0 0 -1 0 502.6)">
	<stop  offset="0" style="stop-color:#00F649"/>
	<stop  offset="1" style="stop-color:#FFFFFF"/>
</linearGradient>
<path style="fill:url(#SVGID_00000119083978938973059980000016055770496645563268_);" d="M83.4,446.1c0,0,126.5,9.5,149.6-38.7
	S223,336,223,336s33.1-10.6,32.6-34c0,0,1.3-9.5-12.4-25.6c0,0,50,13.3,61.9,33.2c1.8,3.1,3.8,5.9,5.9,8.7
	c11.5,14.9,41.2,67.5-37,115.8C181.4,491,83.4,446.1,83.4,446.1L83.4,446.1L83.4,446.1z"/>
</svg>
