<?xml version="1.0" encoding="utf-8"?>
<!-- Generator: Adobe Illustrator 25.2.0, SVG Export Plug-In . SVG Version: 6.00 Build 0)  -->
<svg version="1.1" id="unfi" xmlns="http://www.w3.org/2000/svg" xmlns:xlink="http://www.w3.org/1999/xlink" x="0px" y="0px"
	 viewBox="0 0 500 500" style="enable-background:new 0 0 500 500;" xml:space="preserve">
<style type="text/css">
	.st0{fill:#38F997;}
</style>
<path d="M272.7,500.5h-79.8h-79.8L0,387.4v-79.8v-79.8l113.1-113.1h79.8h79.8l113.1,113.1v79.8v79.8L272.7,500.5z M192.3,452.9h60.1
	l85.8-85.2v-60.1v-60.1l-85.2-85.8h-60.1h-60.1L47,247.4v60.1v60.1l85.2,85.2H192.3z"/>
<path class="st0" d="M386.5,386.2h-79.8h-79.8L113.7,273v-79.8v-79.8L226.9,0.3h79.8h79.8l113.1,113.1v79.8V273L386.5,386.2z
	 M306.7,338.5h60.1l85.2-85.2v-60.1v-60.1l-85.2-85.8h-60.1h-60.1l-85.7,85.2v60.1v60.1l85.2,85.2L306.7,338.5z"/>
</svg>
