<svg aria-hidden="true" data-testid="test-icon" xmlns="http://www.w3.org/2000/svg" viewBox="0 0 24 27.643"><path data-name="Path 1728" d="M9.41 6.287c-.3-.043-.314-.057-.171-.071a4.7 4.7 0 011.34.114 5.762 5.762 0 012.937 1.967l.257.3.371-.057a7.949 7.949 0 014.562.57 5.909 5.909 0 011.026.6 1.378 1.378 0 01.1.4 2.417 2.417 0 01-.157 1.554.417.417 0 00-.043.456.429.429 0 00.385.242c.342 0 .7-.542.87-1.3l.071-.3.128.143a5.614 5.614 0 011.38 2.738l.029.214-.129-.185a2.407 2.407 0 00-.684-.727 4.282 4.282 0 00-2.352-.5 9.638 9.638 0 01-2.609-.4c-1.169-.385-1.768-.884-3.151-2.723a13.1 13.1 0 00-1.38-1.62 4.836 4.836 0 00-2.78-1.415z" fill="#FF007A"/><path data-name="Path 1729" d="M20.031 8.097a3.083 3.083 0 01.257-1.226.982.982 0 01.128-.242c.014 0-.014.1-.057.214a2.723 2.723 0 00-.057 1.255c.1.642.143.727.827 1.426.314.328.684.741.827.912l.242.314-.242-.228a8.677 8.677 0 00-1.14-.9c-.1-.057-.114-.057-.185.014s-.071.143-.071.556a3.054 3.054 0 01-.314 1.454c-.114.214-.128.171-.029-.071a2.077 2.077 0 00.086-.884c0-1.24-.143-1.54-1.012-2.039a10.306 10.306 0 00-.8-.413 3.158 3.158 0 01-.385-.185 6.37 6.37 0 011.2.356c.5.2.585.214.642.2.04-.042.068-.156.083-.513z" fill="#FF007A"/><path data-name="Path 1730" d="M9.994 10.221a5.037 5.037 0 01-.9-3.065l.029-.3.143.029a3.345 3.345 0 01.912.342c.57.342.827.813 1.069 1.982.071.342.171.741.214.87a5.146 5.146 0 00.57 1.026c.157.228.057.342-.3.314a2.921 2.921 0 01-1.737-1.198z" fill="#FF007A"/><path data-name="Path 1731" d="M19.304 16.423c-2.823-1.141-3.821-2.124-3.821-3.792 0-.242.014-.442.014-.442a2.676 2.676 0 01.242.185c.57.456 1.212.656 2.994.912a12.42 12.42 0 012.181.456 4.165 4.165 0 013.051 3.322 5.766 5.766 0 01-.082 1.783 3.574 3.574 0 01-.456 1.026c-.014 0-.043-.071-.043-.185a2.32 2.32 0 00-.827-1.611 11.392 11.392 0 00-3.253-1.654z" fill="#FF007A"/><path data-name="Path 1732" d="M17.308 16.894a3.377 3.377 0 00-.143-.6l-.071-.214.128.157a2.51 2.51 0 01.456.827 1.78 1.78 0 01.1.8 1.819 1.819 0 01-.1.77 2.58 2.58 0 01-.6.955 3.431 3.431 0 01-2.138.941c-.171.014-.656.057-1.083.086a8.362 8.362 0 00-2.424.4c-.086.029-.171.057-.185.043a3.229 3.229 0 01.77-.456 7.759 7.759 0 012.138-.57 9.766 9.766 0 001.269-.257 2.465 2.465 0 001.883-2.882z" fill="#FF007A"/><path data-name="Path 1733" d="M18.604 19.189a3.327 3.327 0 01-.257-2.309c.029-.071.057-.143.086-.143a.613.613 0 01.2.1c.171.114.527.314 1.44.813a7.281 7.281 0 012.267 1.668 3.526 3.526 0 01.756 1.725 5.655 5.655 0 01-.071 1.7 4.2 4.2 0 01-2.067 2.737 1.981 1.981 0 01-.3.143 1.134 1.134 0 01.128-.314 2.83 2.83 0 00.128-2.21 9.077 9.077 0 00-1.141-2.053 13.544 13.544 0 01-1.169-1.857z" fill="#FF007A"/><path data-name="Path 1734" d="M7.985 23.551a7.75 7.75 0 013.55-1.711 5.282 5.282 0 011.839.071 3.175 3.175 0 011.8 1.155 4.257 4.257 0 01.656 1.939c.057.385.128.784.143.87a1.913 1.913 0 00.627 1.126 2.169 2.169 0 001.967.057.956.956 0 01.242-.071 2.185 2.185 0 01-.613.413 2.018 2.018 0 01-1.026.242 2.058 2.058 0 01-1.739-1.069 8.012 8.012 0 01-.47-.941 3.428 3.428 0 00-1.34-1.882 1.757 1.757 0 00-1.668-.157 1.074 1.074 0 00-.371 1.668 1.458 1.458 0 00.813.428.87.87 0 00.984-.87.683.683 0 00-.47-.7c-.456-.2-.955.029-.941.47a.392.392 0 00.271.385c.114.057.114.057.029.043a.529.529 0 01-.185-.927 1.026 1.026 0 011.525.328 1.494 1.494 0 01.029.969 1.333 1.333 0 01-1.625.77 2.325 2.325 0 01-1.24-.841 3.788 3.788 0 00-2.808-1.44l-.279-.042z" fill="#FF007A"/><path data-name="Path 1735" d="M.485.613c3.319 4.034 8.44 10.307 8.696 10.649.214.285.128.556-.228.756a2.181 2.181 0 01-.813.228 1.029 1.029 0 01-.684-.3c-.128-.128-.684-.941-1.939-2.894A188.589 188.589 0 003.735 6.3c-.057-.029-.057-.029 1.682 3.079a24.954 24.954 0 011.454 2.737c0 .185-.057.285-.285.542a3.172 3.172 0 00-.682 1.926 5.965 5.965 0 01-1.625 3.279 5.867 5.867 0 00-.9 1.269 2.411 2.411 0 00-.285 1.14 3.567 3.567 0 00.185 1.4 4.762 4.762 0 00.684 1.34 3.317 3.317 0 01.527 1.041c0 .114.029.114.542 0a5.639 5.639 0 002.794-1.369 1.29 1.29 0 00.428-1.084 1.163 1.163 0 00-.1-.6 2.559 2.559 0 00-1-.969A2.253 2.253 0 015.973 18.5a2.683 2.683 0 01.442-1.711 5.113 5.113 0 00.627-2.252c.043-.6.114-.841.285-1.026a1.063 1.063 0 01.784-.328 2.613 2.613 0 001.568-.642 1.34 1.34 0 00.485-1.041l.014-.328-.185-.2C9.324 10.207.043 0 .004 0c-.018 0 .21.271.481.613zm4.377 20.272a.589.589 0 00-.185-.784c-.242-.157-.613-.086-.613.128a.146.146 0 00.114.143c.128.071.143.143.043.3s-.1.3.029.4a.408.408 0 00.612-.187z" fill="#FF007A" fill-rule="evenodd"/><path data-name="Path 1736" d="M10.641 13.386a1.266 1.266 0 00-.77.841 1.228 1.228 0 00.071.77c.157.2.3.257.7.257.784 0 1.454-.342 1.525-.756a1.1 1.1 0 00-.642-1.026 1.449 1.449 0 00-.884-.086zm.912.713a.321.321 0 00-.143-.485c-.385-.242-.969-.043-.969.328 0 .185.3.385.585.385a.787.787 0 00.522-.231z" fill="#FF007A" fill-rule="evenodd"/></svg>
