<svg width="49" height="48" viewBox="0 0 49 48" fill="none" xmlns="http://www.w3.org/2000/svg">
<g clip-path="url(#clip0_4239_13793)">
<path d="M19.9704 10.9222C19.4464 10.8479 19.4214 10.8232 19.671 10.7984C20.1451 10.7241 21.2432 10.8232 22.0168 10.9965C23.8136 11.4176 25.4357 12.5074 27.1576 14.4145L27.6068 14.9346L28.2556 14.8356C31.0257 14.3897 33.8706 14.7365 36.2414 15.8263C36.8902 16.1235 37.9134 16.7179 38.0382 16.8665C38.0881 16.916 38.163 17.238 38.2129 17.56C38.3876 18.7241 38.3127 19.591 37.9384 20.2597C37.7387 20.6312 37.7387 20.7303 37.8635 21.0523C37.9633 21.2999 38.2628 21.4733 38.5373 21.4733C39.1362 21.4733 39.7601 20.5321 40.0596 19.2195L40.1843 18.6993L40.4089 18.947C41.6817 20.3588 42.6799 22.3154 42.8296 23.7024L42.8795 24.0739L42.6549 23.752C42.2806 23.1823 41.9312 22.8108 41.4571 22.4888C40.6086 21.9191 39.7102 21.7458 37.3394 21.6219C35.1933 21.4981 33.9704 21.3247 32.7726 20.9284C30.7262 20.2597 29.6781 19.3928 27.2574 16.1978C26.1843 14.786 25.5105 14.0182 24.8368 13.3742C23.3644 11.9625 21.892 11.2195 19.9704 10.9222Z" fill="#FF007A"/>
<path d="M38.5628 14.0667C38.6127 13.1255 38.7375 12.5063 39.012 11.9367C39.1118 11.7138 39.2117 11.5156 39.2366 11.5156C39.2616 11.5156 39.2117 11.689 39.1368 11.8871C38.9372 12.432 38.9122 13.1998 39.037 14.0667C39.2117 15.1813 39.2865 15.3299 40.4844 16.5435C41.0334 17.1131 41.6822 17.8314 41.9318 18.1286L42.356 18.6735L41.9318 18.2772C41.4077 17.7819 40.2099 16.8407 39.9354 16.7169C39.7607 16.6178 39.7357 16.6178 39.6109 16.7416C39.5111 16.8407 39.4862 16.9893 39.4862 17.7076C39.4612 18.8221 39.3115 19.5156 38.9372 20.2339C38.7375 20.6054 38.7126 20.5311 38.8872 20.1101C39.012 19.7881 39.037 19.6395 39.037 18.5744C39.037 16.4196 38.7874 15.8995 37.2651 15.0327C36.8908 14.8097 36.242 14.4878 35.8676 14.3144C35.4683 14.141 35.1689 13.9924 35.1938 13.9924C35.2437 13.9429 36.7161 14.3639 37.2901 14.6116C38.1635 14.9583 38.3133 14.9831 38.4131 14.9583C38.488 14.884 38.5379 14.6859 38.5628 14.0667Z" fill="#FF007A"/>
<path d="M20.9934 17.7593C19.9452 16.3227 19.2714 14.0936 19.4212 12.4342L19.4711 11.9141L19.7206 11.9636C20.1698 12.0379 20.9434 12.3351 21.3178 12.558C22.316 13.1525 22.7652 13.9698 23.1894 16.0007C23.3142 16.5952 23.4889 17.2887 23.5638 17.5116C23.6885 17.8831 24.1627 18.75 24.562 19.2949C24.8365 19.6912 24.6618 19.8893 24.0379 19.8398C23.0896 19.7407 21.8169 18.8738 20.9934 17.7593Z" fill="#FF007A"/>
<path d="M37.2896 28.5318C32.3484 26.5504 30.6016 24.8414 30.6016 21.9436C30.6016 21.5225 30.6265 21.1758 30.6265 21.1758C30.6515 21.1758 30.8262 21.3244 31.0508 21.4978C32.049 22.2903 33.172 22.6371 36.2914 23.0829C38.1131 23.3553 39.1613 23.5535 40.1096 23.8755C43.1292 24.8662 45.0009 26.8971 45.45 29.6464C45.5748 30.4389 45.5 31.9498 45.3003 32.7423C45.1256 33.3615 44.6265 34.5009 44.5017 34.5256C44.4768 34.5256 44.4269 34.4018 44.4269 34.2036C44.377 33.1634 43.8529 32.1727 42.9795 31.4049C41.9313 30.5132 40.5837 29.8445 37.2896 28.5318Z" fill="#FF007A"/>
<path d="M33.7959 29.3493C33.7459 28.9777 33.6212 28.5072 33.5463 28.309L33.4215 27.9375L33.6461 28.2099C33.9705 28.5815 34.2201 29.0273 34.4447 29.6465C34.6194 30.1171 34.6194 30.2657 34.6194 31.0335C34.6194 31.7765 34.5944 31.9499 34.4447 32.3709C34.1951 33.0397 33.8957 33.5103 33.3966 34.0304C32.4982 34.9468 31.3253 35.4421 29.6533 35.6651C29.3538 35.6898 28.5053 35.7641 27.7566 35.8137C25.885 35.9127 24.6372 36.1109 23.5142 36.5072C23.3645 36.5567 23.2148 36.6062 23.1898 36.5815C23.1399 36.5319 23.9135 36.0861 24.5374 35.7889C25.4108 35.3678 26.3092 35.1449 28.2807 34.7982C29.254 34.6496 30.2522 34.4514 30.5017 34.3524C32.9723 33.5846 34.1951 31.6774 33.7959 29.3493Z" fill="#FF007A"/>
<path d="M36.0672 33.3382C35.4183 31.9264 35.2686 30.589 35.618 29.3258C35.6679 29.202 35.7178 29.0781 35.7677 29.0781C35.8176 29.0781 35.9674 29.1524 36.1171 29.2515C36.4166 29.4496 37.0405 29.7964 38.6376 30.6633C40.659 31.753 41.8069 32.5952 42.6055 33.5611C43.3043 34.4032 43.7285 35.3691 43.9282 36.558C44.0529 37.2267 43.9781 38.8366 43.8034 39.5054C43.2544 41.6106 42.0066 43.2948 40.1848 44.2608C39.9103 44.4094 39.6857 44.5085 39.6608 44.5085C39.6358 44.5085 39.7356 44.2608 39.8854 43.9636C40.4843 42.7004 40.5592 41.4868 40.11 40.1246C39.8355 39.2825 39.2615 38.267 38.1135 36.558C36.741 34.5766 36.4166 34.0565 36.0672 33.3382Z" fill="#FF007A"/>
<path d="M17.4752 40.9165C19.3219 39.3809 21.5929 38.2911 23.6891 37.9443C24.5875 37.7957 26.0849 37.8452 26.9084 38.0682C28.231 38.4149 29.4289 39.1579 30.0528 40.0744C30.6517 40.966 30.9262 41.7338 31.2007 43.4428C31.3005 44.1115 31.4253 44.805 31.4503 44.9536C31.6499 45.8453 32.0492 46.5387 32.5483 46.9103C33.3219 47.4799 34.6695 47.5047 35.9922 47.0093C36.2168 46.935 36.4164 46.8607 36.4164 46.8855C36.4663 46.935 35.7925 47.3809 35.3433 47.6038C34.7194 47.9257 34.2203 48.0248 33.5465 48.0248C32.3487 48.0248 31.3255 47.4056 30.502 46.1672C30.3273 45.9196 29.9779 45.2013 29.6784 44.5326C28.805 42.5264 28.3558 41.9319 27.3326 41.2632C26.4342 40.6935 25.2863 40.5697 24.4128 40.9908C23.2649 41.5357 22.9654 42.997 23.764 43.8886C24.0884 44.2601 24.6874 44.5573 25.1865 44.6316C26.1098 44.7555 26.9084 44.0372 26.9084 43.1208C26.9084 42.5264 26.6838 42.1796 26.0849 41.9072C25.2863 41.5604 24.4128 41.9567 24.4378 42.7245C24.4378 43.0465 24.5875 43.2446 24.912 43.3932C25.1116 43.4923 25.1116 43.4923 24.9619 43.4675C24.2382 43.3189 24.0635 42.4273 24.6374 41.8576C25.3362 41.1641 26.8086 41.4614 27.3077 42.4273C27.5073 42.8236 27.5323 43.6161 27.3576 44.1115C26.9333 45.2013 25.7355 45.7709 24.5127 45.449C23.6891 45.2261 23.3398 45.0031 22.3415 43.9877C20.5947 42.2044 19.9209 41.8576 17.4253 41.4861L16.9512 41.4118L17.4752 40.9165Z" fill="#FF007A"/>
<path fill-rule="evenodd" clip-rule="evenodd" d="M4.34862 1.06502C10.1632 8.0743 19.1222 18.9721 19.5714 19.5666C19.9458 20.0619 19.796 20.5325 19.1721 20.8793C18.8228 21.0774 18.0991 21.2755 17.7497 21.2755C17.3504 21.2755 16.8762 21.0774 16.5518 20.7554C16.3272 20.5325 15.354 19.1207 13.1579 15.7276C11.4859 13.1269 10.0634 10.9721 10.0385 10.9474C9.93864 10.8978 9.93864 10.8978 12.9832 16.2972C14.9048 19.6904 15.5287 20.904 15.5287 21.0526C15.5287 21.3746 15.4288 21.548 15.0295 21.9938C14.3557 22.7368 14.0563 23.5789 13.8317 25.3375C13.5821 27.2941 12.9083 28.6811 10.9868 31.0341C9.86377 32.4211 9.68908 32.6687 9.41457 33.2384C9.0652 33.9319 8.96537 34.3282 8.91546 35.2198C8.86555 36.161 8.96537 36.7554 9.23988 37.6471C9.48944 38.4396 9.76395 38.9598 10.4377 39.9752C11.0117 40.8669 11.3611 41.5356 11.3611 41.7833C11.3611 41.9814 11.411 41.9814 12.3094 41.7833C14.4556 41.2879 16.2274 40.4458 17.2007 39.4056C17.7996 38.7616 17.9493 38.4149 17.9493 37.5232C17.9493 36.9536 17.9244 36.8297 17.7746 36.483C17.5251 35.9381 17.0509 35.4923 16.0278 34.7988C14.6802 33.8824 14.1062 33.1393 13.9565 32.1486C13.8317 31.3065 13.9814 30.7368 14.7301 29.1765C15.5037 27.5666 15.7033 26.8978 15.8281 25.2632C15.903 24.2229 16.0278 23.8019 16.3272 23.4799C16.6516 23.1331 16.9262 23.0093 17.6998 22.9102C18.9725 22.7368 19.796 22.4149 20.4449 21.7957C21.0189 21.2755 21.2684 20.7554 21.2934 19.9876L21.3183 19.418L20.9939 19.0712C19.821 17.7337 3.575 0 3.50013 0C3.47518 0 3.87447 0.470588 4.34862 1.06502ZM12.0099 36.2848C12.2844 35.8142 12.1347 35.2198 11.6855 34.9226C11.2613 34.6502 10.6124 34.774 10.6124 35.1455C10.6124 35.2446 10.6623 35.3437 10.8121 35.3932C11.0367 35.517 11.0616 35.6409 10.8869 35.9133C10.7123 36.1858 10.7123 36.4334 10.9369 36.6068C11.2862 36.8793 11.7604 36.7306 12.0099 36.2848Z" fill="#FF007A"/>
<path fill-rule="evenodd" clip-rule="evenodd" d="M22.1172 23.2559C21.5183 23.4292 20.9443 24.0732 20.7696 24.7172C20.6698 25.1134 20.7197 25.8317 20.8944 26.0546C21.1689 26.4014 21.4185 26.5004 22.1172 26.5004C23.4898 26.5004 24.6627 25.906 24.7875 25.1877C24.9122 24.5933 24.3882 23.776 23.6645 23.4045C23.2901 23.2063 22.5165 23.132 22.1172 23.2559ZM23.7144 24.4942C23.914 24.197 23.8391 23.8751 23.4648 23.6521C22.791 23.2311 21.7678 23.5778 21.7678 24.2218C21.7678 24.5438 22.2919 24.8905 22.791 24.8905C23.1154 24.8905 23.5646 24.6924 23.7144 24.4942Z" fill="#FF007A"/>
</g>
<defs>
<clipPath id="clip0_4239_13793">
<rect width="42" height="48" fill="white" transform="translate(3.5)"/>
</clipPath>
</defs>
</svg>
