<?xml version="1.0" encoding="utf-8"?>
<!-- Generator: Adobe Illustrator 25.1.0, SVG Export Plug-In . SVG Version: 6.00 Build 0)  -->
<svg version="1.1" id="unn" xmlns="http://www.w3.org/2000/svg" xmlns:xlink="http://www.w3.org/1999/xlink" x="0px" y="0px"
	 viewBox="0 0 500 500" style="enable-background:new 0 0 500 500;" xml:space="preserve">
<style type="text/css">
	.st0{fill:#7E6CFF;}
</style>
<path class="st0" d="M368.4,121.4c0.9,0,1.1,0.5,0.5,1.1l-36.2,36.3c-0.8,0.8-2.1,0.8-2.9,0l-6.7-6.7c-1.8-1.8-4.3-2.8-6.9-2.8
	c0,0-17.7,0-23.4-0.1c-0.6,0-0.9-0.8-0.4-1.1C312.8,130.6,341.2,121.6,368.4,121.4"/>
<path class="st0" d="M215.1,334.3h-22.7c-3.3,0-6.4-1.3-8.7-3.6l-16.1-16.1c-2.3-2.3-3.6-5.4-3.6-8.7v-22.7c0-3.3,1.3-6.4,3.6-8.7
	l16.1-16.1c2.3-2.3,5.4-3.6,8.7-3.6h22.7c3.3,0,6.4,1.3,8.7,3.6l16.1,16.1c2.3,2.3,3.6,5.4,3.6,8.7v22.7c0,3.3-1.3,6.4-3.6,8.7
	l-16.1,16.1C221.5,333,218.4,334.3,215.1,334.3"/>
<path class="st0" d="M103.3,119c0.6-0.1,1.2,0.4,1.2,1c-0.2,3.4-0.4,6.8-0.4,10.3c0,2.1,0.1,4.3,0.1,6.4c0,0.9-0.3,1.8-0.9,2.4
	L1.5,239.9c-0.6,0.6-1.7,0.2-1.7-0.8C2.2,179.6,49.3,130.2,103.3,119"/>
<path class="st0" d="M106,158.7c0.5-0.5,1.5-0.3,1.6,0.5c2.8,13.9,8.3,27.1,14.8,39.2c0.3,0.5,0.2,1.1-0.2,1.5l-89,88.7
	c-5.5,5.5-11.8,11.9-16.3,16.4c-1.3,1.3-3.4,0.9-4.2-0.7c-5.8-12.1-9.7-25.2-11.5-39c-0.1-1,0.2-2,0.9-2.7L106,158.7z"/>
<path class="st0" d="M147.6,290.6c0.6-0.6,1.6-0.2,1.6,0.7v22.2c0,2.6,1,5.1,2.8,6.9l5.8,6.8c0.4,0.4,0.4,1,0.5,0.9l-47.3,46.1
	c-1.3,1.2-2.3,1.6-3.3,1.4c-11.7-2-22.8-5.6-33.2-10.5c-0.6-0.3-0.7-1.1-0.3-1.6L147.6,290.6z"/>
<path class="st0" d="M114.9,301.2l0.2-0.2C115,301.1,114.9,301.2,114.9,301.2"/>
<path class="st0" d="M131.8,377.1c-0.9,0-1.1-0.5-0.5-1.1l36.2-36.3c0.8-0.8,2.1-0.8,2.9,0l6.7,6.7c1.8,1.8,4.3,2.8,6.9,2.8
	c0,0,17.7,0,23.4,0.1c0.6,0,0.9,0.7,0.4,1.1C187.5,368,159,376.9,131.8,377.1"/>
<path class="st0" d="M23.8,318.3c10-10,57-57,66.7-66.6c0.7-0.7,1.9-0.3,2.1,0.7c1.5,8.3,5.4,15.9,11.4,22h0
	c6.3,6.3,14.4,10.4,23.2,11.7c1,0.2,1.5,1.3,0.8,2.1c-9.4,9.4-53.7,53.8-68.1,68.2c-0.4,0-0.7,0.1-1.1,0.1
	c-13.8-9-25.8-20.6-35.2-34C22.6,321.1,22.8,319.4,23.8,318.3"/>
<path class="st0" d="M161.7,215.3v-22.7c0-3.3,1.3-6.4,3.6-8.7l16.1-16.1c2.3-2.3,5.4-3.6,8.7-3.6h22.7c3.3,0,6.4,1.3,8.7,3.6
	l16.1,16.1c2.3,2.3,3.6,5.4,3.6,8.7v22.7c0,3.3-1.3,6.4-3.6,8.7l-16.1,16.1c-2.3,2.3-5.4,3.6-8.7,3.6h-22.7c-3.3,0-6.4-1.3-8.7-3.6
	L165.3,224C163,221.7,161.7,218.6,161.7,215.3"/>
<path class="st0" d="M377,103.5c0.1,0.6-0.4,1.2-1,1.2c-3.4-0.2-6.8-0.4-10.3-0.4c-2.1,0-4.3,0.1-6.4,0.1c-0.9,0-1.8-0.3-2.4-0.9
	L256.2,1.7C255.5,1,256,0,256.9,0C316.4,2.3,365.8,49.4,377,103.5"/>
<path class="st0" d="M337.3,106.2c0.5,0.5,0.3,1.5-0.5,1.6c-13.9,2.8-27.1,8.3-39.2,14.8c-0.5,0.3-1.1,0.2-1.5-0.2l-88.7-89
	c-5.6-5.5-11.9-11.8-16.4-16.3c-1.3-1.3-0.9-3.4,0.7-4.2c12.1-5.8,25.2-9.7,39-11.5c1-0.1,2,0.2,2.7,0.9L337.3,106.2z"/>
<path class="st0" d="M205.4,147.8c0.6,0.6,0.2,1.6-0.7,1.6h-22.2c-2.6,0-5.1,1-6.9,2.9l-6.8,5.8c-0.4,0.4-1,0.4-0.9,0.5l-46.1-47.3
	c-1.3-1.3-1.6-2.3-1.4-3.3c2-11.7,5.6-22.8,10.5-33.2c0.3-0.6,1.1-0.7,1.6-0.3L205.4,147.8z"/>
<path class="st0" d="M118.8,132c0-0.9,0.5-1.1,1.1-0.5l36.3,36.2c0.8,0.8,0.8,2.1,0,2.9l-6.7,6.7c-1.8,1.8-2.8,4.3-2.8,6.9
	c0,0,0,17.7-0.1,23.4c0,0.6-0.8,0.9-1.1,0.4C128,187.6,119.1,159.2,118.8,132"/>
<path class="st0" d="M263.2,145.9c-4.1,4.1-9.6,6.4-15.4,6.4c-5.8,0-11.3-2.3-15.4-6.4h0c-4.1-4.1-6.4-9.6-6.4-15.4
	c0-5.8,2.3-11.3,6.4-15.4l0,0c4.1-4.1,9.6-6.4,15.4-6.4h0c5.8,0,11.3,2.3,15.4,6.4h0c4.1,4.1,6.4,9.6,6.4,15.4
	C269.6,136.2,267.3,141.8,263.2,145.9z"/>
<path class="st0" d="M177.7,24c10,10,57,57,66.6,66.7c0.7,0.7,0.3,1.9-0.7,2.1c-8.3,1.5-15.9,5.4-22,11.4h0
	c-6.3,6.3-10.4,14.4-11.7,23.2c-0.2,1-1.3,1.5-2.1,0.8c-9.4-9.4-53.8-53.7-68.2-68.1c0-0.4-0.1-0.7-0.1-1.1
	c9-13.8,20.6-25.8,34-35.2C174.9,22.8,176.6,22.9,177.7,24"/>
<path class="st0" d="M145.7,232.8c4.1,4.1,6.4,9.6,6.4,15.4c0,5.8-2.3,11.3-6.4,15.4v0c-4.1,4.1-9.6,6.4-15.4,6.4
	c-5.8,0-11.3-2.3-15.4-6.4v0c-4.1-4.1-6.4-9.6-6.4-15.4v0c0-5.8,2.3-11.3,6.4-15.4l0,0c4.1-4.1,9.6-6.4,15.4-6.4
	C136.1,226.4,141.6,228.7,145.7,232.8z"/>
<path class="st0" d="M284.7,164.5h22.7c3.3,0,6.4,1.3,8.7,3.6l16.1,16.1c2.3,2.3,3.6,5.4,3.6,8.7v22.7c0,3.3-1.3,6.4-3.6,8.7
	l-16.1,16.1c-2.3,2.3-5.4,3.6-8.7,3.6h-22.7c-3.3,0-6.4-1.3-8.7-3.6l-16.1-16.1c-2.3-2.3-3.6-5.4-3.6-8.7v-22.7
	c0-3.3,1.3-6.4,3.6-8.7l16.1-16.1C278.3,165.8,281.4,164.5,284.7,164.5"/>
<path class="st0" d="M396.5,379.8c-0.6,0.1-1.2-0.4-1.2-1c0.2-3.4,0.4-6.8,0.4-10.3c0-2.1-0.1-4.3-0.1-6.4c0-0.9,0.3-1.8,0.9-2.4
	L498.3,259c0.6-0.6,1.7-0.2,1.7,0.7C497.7,319.2,450.6,368.6,396.5,379.8"/>
<path class="st0" d="M393.8,340.1c-0.5,0.5-1.5,0.3-1.6-0.5c-2.8-13.9-8.3-27.1-14.8-39.2c-0.3-0.5-0.2-1.1,0.2-1.5l89-88.7
	c5.5-5.5,11.8-11.9,16.3-16.4c1.3-1.3,3.4-0.9,4.2,0.7c5.8,12.1,9.7,25.2,11.5,39c0.1,1-0.2,2-0.9,2.7L393.8,340.1z"/>
<path class="st0" d="M352.2,208.2c-0.6,0.6-1.6,0.2-1.6-0.7v-22.2c0-2.6-1-5.1-2.9-6.9l-5.8-6.8c-0.4-0.4-0.4-1-0.5-0.9l47.3-46.1
	c1.3-1.2,2.3-1.6,3.3-1.4c11.7,2,22.8,5.6,33.2,10.5c0.6,0.3,0.7,1.1,0.3,1.6L352.2,208.2z"/>
<path class="st0" d="M385,197.6l-0.2,0.2C384.9,197.7,385,197.6,385,197.6"/>
<path class="st0" d="M368,121.7c0.9,0,1.1,0.5,0.5,1.1L332.3,159c-0.8,0.8-2.1,0.8-2.9,0l-6.7-6.7c-1.8-1.8-4.3-2.8-6.9-2.8
	c0,0-17.7,0-23.4-0.1c-0.6,0-0.9-0.7-0.4-1.1C312.4,130.8,340.8,121.9,368,121.7"/>
<path class="st0" d="M476,180.5c-10,10-57,57-66.7,66.6c-0.7,0.7-1.9,0.3-2.1-0.7c-1.5-8.3-5.4-15.9-11.5-22
	c-6.3-6.3-14.4-10.4-23.2-11.7c-1-0.2-1.5-1.3-0.8-2.1c9.4-9.4,53.7-53.8,68.1-68.2c0.4,0,0.7-0.1,1.1-0.1c13.8,9,25.8,20.6,35.2,34
	C477.2,177.7,477.1,179.4,476,180.5"/>
<path class="st0" d="M338.1,283.5v22.7c0,3.3-1.3,6.4-3.6,8.7l-16.1,16.1c-2.3,2.3-5.4,3.6-8.7,3.6H287c-3.3,0-6.4-1.3-8.7-3.6
	L262.2,315c-2.3-2.3-3.6-5.4-3.6-8.7v-22.7c0-3.3,1.3-6.4,3.6-8.7l16.1-16.1c2.3-2.3,5.4-3.6,8.7-3.6h22.7c3.3,0,6.4,1.3,8.7,3.6
	l16.1,16.1C336.9,277.2,338.1,280.2,338.1,283.5"/>
<path class="st0" d="M122.9,395.3c-0.1-0.6,0.4-1.2,1-1.2c3.4,0.2,6.8,0.4,10.3,0.4c2.1,0,4.3-0.1,6.4-0.2c0.9,0,1.8,0.3,2.4,0.9
	l100.7,101.9c0.6,0.6,0.1,1.7-0.7,1.7C183.4,496.5,134.1,449.4,122.9,395.3"/>
<path class="st0" d="M162.6,392.6c-0.5-0.5-0.3-1.5,0.5-1.6c13.9-2.8,27.1-8.3,39.2-14.8c0.5-0.3,1.1-0.2,1.5,0.2l88.7,89
	c5.5,5.5,11.9,11.8,16.4,16.3c1.3,1.3,0.9,3.4-0.7,4.2c-12.1,5.8-25.2,9.7-39,11.5c-1,0.1-2-0.2-2.7-0.9L162.6,392.6z"/>
<path class="st0" d="M294.5,351c-0.6-0.6-0.2-1.6,0.7-1.6h22.2c2.6,0,5.1-1,6.9-2.9l6.8-5.8c0.4-0.4,1-0.4,0.9-0.5l46.1,47.3
	c1.3,1.3,1.6,2.3,1.4,3.3c-2,11.7-5.6,22.8-10.5,33.2c-0.3,0.6-1.1,0.7-1.6,0.3L294.5,351z"/>
<path class="st0" d="M381,366.8c0,0.9-0.5,1.1-1.1,0.5l-36.3-36.2c-0.8-0.8-0.8-2.1,0-2.9l6.7-6.7c1.8-1.8,2.8-4.3,2.8-6.9
	c0,0,0-17.8,0.1-23.4c0-0.6,0.8-0.9,1.1-0.4C371.8,311.2,380.8,339.7,381,366.8"/>
<path class="st0" d="M236.6,353c4.1-4.1,9.6-6.4,15.4-6.4s11.3,2.3,15.4,6.4c4.1,4.1,6.4,9.6,6.4,15.4s-2.3,11.3-6.4,15.4
	c-4.1,4.1-9.6,6.4-15.4,6.4c-5.8,0-11.3-2.3-15.4-6.4l0,0c-4.1-4.1-6.4-9.6-6.4-15.4C230.2,362.6,232.5,357,236.6,353z"/>
<path class="st0" d="M322.2,474.8c-10-10-57-57-66.6-66.7c-0.7-0.7-0.3-1.9,0.7-2.1c8.3-1.5,15.9-5.4,22-11.4v0
	c6.3-6.3,10.4-14.4,11.7-23.2c0.2-1,1.3-1.5,2.1-0.8c9.4,9.4,53.8,53.7,68.2,68.1c0,0.4,0.1,0.7,0.1,1.1c-9,13.8-20.6,25.8-34,35.2
	C325,476.1,323.3,475.9,322.2,474.8"/>
<path class="st0" d="M354.1,266.1c-4.1-4.1-6.4-9.6-6.4-15.4c0-5.8,2.3-11.3,6.4-15.4c4.1-4.1,9.6-6.4,15.4-6.4s11.3,2.3,15.4,6.4h0
	c4.1,4.1,6.4,9.6,6.4,15.4v0c0,5.8-2.3,11.3-6.4,15.4c-4.1,4.1-9.6,6.4-15.4,6.4C363.8,272.4,358.2,270.2,354.1,266.1z"/>
</svg>
