<?xml version="1.0" encoding="utf-8"?>
<!-- Generator: Adobe Illustrator 24.2.2, SVG Export Plug-In . SVG Version: 6.00 Build 0)  -->
<svg version="1.1" id="upp" xmlns="http://www.w3.org/2000/svg" xmlns:xlink="http://www.w3.org/1999/xlink" x="0px" y="0px"
	 viewBox="0 0 500 500" style="enable-background:new 0 0 500 500;" xml:space="preserve">
<style type="text/css">
	.st0{fill-rule:evenodd;clip-rule:evenodd;fill:#21A0B4;}
</style>
<path id="Fill-22_1_" class="st0" d="M425.8,269.4l-67.1,116.2c2.6,5.6,3.1,11.5,1.2,17.5c-2.5,8-8.9,14.6-17,16.8
	c-10.7,2.9-21.3-1.2-27.2-9.7H184.7c-6.2,8.8-17.2,12.8-28.2,9.4c-8-2.5-14.2-9.3-16.3-17.3c-1.5-5.5-1.1-10.8,1.1-15.9L73.7,269.6
	C61.4,267.9,52,257.4,52,244.9c0-13.3,10.4-24.3,23.6-25L141,106.6c-1.1-3-1.8-6.1-1.8-9.1c0-13.8,11.2-25,25.1-25
	c7.9,0,15.2,3.7,19.9,9.9H316c4.7-6.2,12-9.9,19.9-9.9c13.8,0,25,11.3,25,25c0,3.3-0.8,6.7-2.1,9.8l65,112.6
	c12.8,1.1,22.9,12,22.9,24.9C446.8,257.2,437.8,267.5,425.8,269.4 M490.2,223.8L389.6,49.7c-8.2-14.2-23.3-22.9-39.6-22.9H148.8
	c-16.3,0-31.5,8.7-39.7,22.9L8.6,223.8c-8.2,14.2-8.2,31.6,0,45.8l100.6,174.1c8.2,14.2,23.3,22.9,39.7,22.9H350
	c16.4,0,31.5-8.7,39.6-22.9l100.6-174.1C498.4,255.4,498.4,238,490.2,223.8"/>
<path id="Fill-23_1_" class="st0" d="M403.9,227.5l-42.3-73.2L204,242.6c0,0.2,0,0.3,0,0.5c0,13.8-11.2,25.1-25,25.1
	c-13.8,0-25-11.2-25-25.1c0-13.8,11.2-25,25-25c5.8,0,11.3,2,15.7,5.6L351,135.9l-8.3-14.4c-2.2,0.6-4.5,1-6.8,1
	c-11.6,0-21.5-8-24.2-19.1H188.5c-2.7,11.1-12.7,19.1-24.2,19.1c-2.5,0-5.1-0.4-7.5-1.2L95.3,227.8c4.4,4.7,6.8,10.7,6.8,17
	c0,6.9-2.8,13.3-7.8,18l47,81.4L302.4,251c-0.1-0.7-0.1-1.5-0.1-2.2c0-13.8,11.3-25,25-25c13.8,0,25,11.2,25,25
	c0,13.8-11.2,25-25,25c-5.2,0-10.1-1.6-14.3-4.6l-161.3,93.3l5.4,9.4c2.3-0.7,4.7-1,7.2-1c11.4,0,21.1,7.6,24.1,18.3h123.5
	c3.5-12.8,17.1-21.2,30.5-17.5l62.6-108.4c-5.2-4.7-8.2-11.4-8.2-18.4C396.7,238.3,399.3,232.1,403.9,227.5"/>
</svg>
