<?xml version="1.0" encoding="utf-8"?>
<!-- Generator: Adobe Illustrator 26.0.3, SVG Export Plug-In . SVG Version: 6.00 Build 0)  -->
<svg version="1.1" id="Layer_1" xmlns="http://www.w3.org/2000/svg" xmlns:xlink="http://www.w3.org/1999/xlink" x="0px" y="0px"
	 viewBox="0 0 500 500" style="enable-background:new 0 0 500 500;" xml:space="preserve">
<style type="text/css">
	.st0{fill:url(#SVGID_1_);}
	.st1{fill:#FFFFFF;}
	.st2{fill:url(#SVGID_00000126295761896830802710000009472548418483373246_);}
	.st3{fill:url(#SVGID_00000155828960286268483550000006031924406115892868_);}
	.st4{fill:url(#SVGID_00000015312675119792687800000010548967173174572722_);}
</style>
<radialGradient id="SVGID_1_" cx="430.9682" cy="108.4065" r="372.0926" gradientUnits="userSpaceOnUse">
	<stop  offset="0" style="stop-color:#AAD65C"/>
	<stop  offset="0.6225" style="stop-color:#4B9E58"/>
	<stop  offset="1" style="stop-color:#205533"/>
</radialGradient>
<circle class="st0" cx="250" cy="250" r="250"/>
<path class="st1" d="M225.9,131.5c0-20.2,0-58.1,0-58.1l47.7-0.7l0.7,58.4l91.3,0c0,0,0,24.9,0,37.8c-30.5,0-60.6,0-91.3,0
	c0,21,0,41.1,0,62.3c6.6,0,13.1-0.5,19.4,0.1c10.3,0.9,20.8,1.4,30.7,4.2c25,7,42.2,22.8,47.3,48.8c4,20.6,1.5,40.5-11.9,57.7
	C349,356,334,363.4,317,366.6c-8.6,1.6-17.6,1.9-26.4,2.5c-5.1,0.3-10.3,0.1-16.7,0.1c-0.7,19.9,0.1,39.4-0.5,59.3
	c-15.9,0-31.1,0-47.5,0c0-19.6,0-39,0-59.1c-31.4,0-61.6,0-92.2,0c0-12.8,0-25,0-38c30.5,0,60.6,0,91.9,0c0.5-21,0.2-62.8,0.2-62.8
	l-9.4,0.3c0,0-25.9,0.5-38.6-3c-24.3-6.7-42.8-20.4-49-45.7c-6.6-27-2.4-52.1,20.1-71.2c14-11.9,31.2-16.3,49.3-17.3
	C206.9,131.2,215.8,131.5,225.9,131.5z M274,268.6c-0.2-12.3-0.3-24.6-0.5-37.5c-16.6,0-32.1,0-47.5,0c0-20.5,0.3-41.1-0.1-61.4
	c-11.3-1.7-24.4-0.8-32.5,2c-7.2,2.5-13,6.7-16.4,13.7c-9.3,19.2,0.5,40.4,21.5,44.4c9,1.7,18.4,0.9,27.7,1.2c0,12.3,0,24.7,0,37.5
	C242.5,268.5,258.3,268.5,274,268.6c0.1,20.5,0.1,41,0.1,62c11.9,0.6,23,1.4,33.7-2.8c8.6-3.4,14.5-9.6,16.2-18.7
	c3.8-20.7-3.8-36.2-26.9-39.3C289.5,268.8,281.7,269,274,268.6z"/>
<radialGradient id="SVGID_00000168810053130745317120000005801072564176692639_" cx="430.9682" cy="108.4065" r="372.0926" gradientUnits="userSpaceOnUse">
	<stop  offset="0" style="stop-color:#AAD65C"/>
	<stop  offset="0.6225" style="stop-color:#4B9E58"/>
	<stop  offset="1" style="stop-color:#205533"/>
</radialGradient>
<path style="fill:url(#SVGID_00000168810053130745317120000005801072564176692639_);" d="M226.1,231c-9.2-0.3-18.7,0.5-27.7-1.2
	c-20.9-4-30.8-25.2-21.5-44.4c3.4-7,9.1-11.3,16.4-13.7c8.1-2.8,21.3-3.6,32.5-2c0.4,20.3,0.2,40.9,0.1,61.4L226.1,231z"/>
<radialGradient id="SVGID_00000101093828660521206530000005281047245813941921_" cx="430.9682" cy="108.4065" r="372.0926" gradientUnits="userSpaceOnUse">
	<stop  offset="0" style="stop-color:#AAD65C"/>
	<stop  offset="0.6225" style="stop-color:#4B9E58"/>
	<stop  offset="1" style="stop-color:#205533"/>
</radialGradient>
<path style="fill:url(#SVGID_00000101093828660521206530000005281047245813941921_);" d="M274,268.6c7.7,0.4,15.5,0.2,23.2,1.2
	c23.1,3.1,30.7,18.6,26.9,39.3c-1.7,9.1-7.6,15.3-16.2,18.7c-10.7,4.2-21.9,3.4-33.7,2.8C274.1,309.6,274.1,289.1,274,268.6
	L274,268.6z"/>
<radialGradient id="SVGID_00000064354668166172099970000013737403644967575464_" cx="430.9682" cy="108.4065" r="372.0926" gradientUnits="userSpaceOnUse">
	<stop  offset="0" style="stop-color:#AAD65C"/>
	<stop  offset="0.6225" style="stop-color:#4B9E58"/>
	<stop  offset="1" style="stop-color:#205533"/>
</radialGradient>
<path style="fill:url(#SVGID_00000064354668166172099970000013737403644967575464_);" d="M226,231.1c15.4,0,30.9,0,47.5,0
	c0.2,12.9,0.3,25.2,0.5,37.5l0.1-0.1c-15.8,0-31.6,0-48,0c0-12.9,0-25.2,0-37.5L226,231.1z"/>
</svg>
