<?xml version="1.0" encoding="utf-8"?>
<!-- Generator: Adobe Illustrator 24.1.2, SVG Export Plug-In . SVG Version: 6.00 Build 0)  -->
<svg version="1.1" id="USDS" xmlns="http://www.w3.org/2000/svg" xmlns:xlink="http://www.w3.org/1999/xlink" x="0px" y="0px"
	 viewBox="0 0 500 500" style="enable-background:new 0 0 500 500;" xml:space="preserve">
<style type="text/css">
	.st0{fill:url(#SVGID_1_);}
	.st1{fill:url(#SVGID_2_);}
	.st2{fill:url(#SVGID_3_);}
	.st3{fill:url(#SVGID_4_);}
	.st4{fill:url(#SVGID_5_);}
</style>
<linearGradient id="SVGID_1_" gradientUnits="userSpaceOnUse" x1="28.1107" y1="456.1479" x2="441.9087" y2="74.1805">
	<stop  offset="0" style="stop-color:#8568C5"/>
	<stop  offset="1" style="stop-color:#7C4497"/>
</linearGradient>
<path class="st0" d="M263.56,335.76c0,6.28-0.05,12.04,0.02,17.79c0.05,4.44-1.99,6.31-6.48,6.71c-17.9,1.6-18.54,1.12-19.12-16.68
	c-0.08-2.45-0.47-4.88-0.76-7.69c-4.69-0.81-9.02-1.4-13.28-2.31c-20.52-4.4-34.47-25.68-29.88-46c0.47-2.09,3.28-4.98,5.21-5.16
	c7.15-0.65,14.39-0.42,21.6-0.32c4.17,0.06,5.9,2.78,5.74,6.63c-0.61,14.78,7.05,18.1,19.93,17.88c5.25-0.09,10.54-0.19,15.73-0.86
	c6.65-0.87,9.98-5.23,10.99-11.75c2.64-16.89-2.17-23.55-19.3-26.06c-7.95-1.16-15.98-1.8-23.92-3.02
	c-24.47-3.74-36.02-16.79-36.53-41.61c-0.17-8.29-0.35-16.74,1.04-24.86c2.96-17.33,13.62-27.24,30.91-30.3
	c3.5-0.62,7.02-1.19,11.73-1.99c0-5.61,0.11-11.08-0.03-16.54c-0.16-5.98,2.57-8.42,8.55-8.4c20.46,0.05,18.18-0.86,18.29,16.78
	c0.02,2.7,0.3,5.41,0.46,8.24c3.06,0.62,5.46,1.21,7.9,1.58c25.76,3.92,33.63,27.01,32.21,46.94c-0.29,4.08-2.85,5.73-6.75,5.71
	c-6.65-0.02-13.31-0.04-19.96-0.01c-4.54,0.02-6.06-2.38-6.54-6.72c-1.71-15.33-3.92-17.19-19.26-17.37
	c-3.6-0.04-7.22-0.09-10.81,0.14c-10.02,0.65-13.64,4.31-14.47,14.51c-0.18,2.21-0.18,4.43-0.18,6.65
	c0.03,10.35,3.9,15.19,14.29,16.93c6.55,1.1,13.28,1.1,19.82,2.24c8.14,1.42,16.48,2.67,24.16,5.52
	c11.44,4.24,19.01,13.01,20.29,25.29c1.2,11.5,1.98,23.32,0.63,34.73c-2.1,17.78-13.76,28.58-31.45,31.87
	C271.37,334.8,268.34,335.09,263.56,335.76z"/>
<linearGradient id="SVGID_2_" gradientUnits="userSpaceOnUse" x1="-14.4047" y1="410.0896" x2="399.3933" y2="28.1221">
	<stop  offset="0" style="stop-color:#8568C5"/>
	<stop  offset="1" style="stop-color:#7C4497"/>
</linearGradient>
<path class="st1" d="M60.78,196.76C84,114.09,159.92,53.48,250,53.48s166,60.61,189.22,143.28h55.08C469.89,84.27,369.8,0,250,0
	S30.11,84.27,5.7,196.76H60.78z"/>
<linearGradient id="SVGID_3_" gradientUnits="userSpaceOnUse" x1="129.8153" y1="566.3279" x2="543.6133" y2="184.3605">
	<stop  offset="0" style="stop-color:#8568C5"/>
	<stop  offset="1" style="stop-color:#7C4497"/>
</linearGradient>
<path class="st2" d="M446.52,250c0,7.32-0.41,14.55-1.19,21.67h53.73c0.61-7.14,0.95-14.37,0.95-21.67c0-7.12-0.31-14.17-0.9-21.15
	h-53.71C446.13,235.8,446.52,242.85,446.52,250z"/>
<linearGradient id="SVGID_4_" gradientUnits="userSpaceOnUse" x1="-74.6538" y1="344.8197" x2="339.1443" y2="-37.1477">
	<stop  offset="0" style="stop-color:#8568C5"/>
	<stop  offset="1" style="stop-color:#7C4497"/>
</linearGradient>
<path class="st3" d="M53.48,250c0-7.15,0.39-14.2,1.14-21.15H0.9C0.31,235.83,0,242.88,0,250c0,7.3,0.33,14.53,0.95,21.67h53.73
	C53.89,264.55,53.48,257.32,53.48,250z"/>
<linearGradient id="SVGID_5_" gradientUnits="userSpaceOnUse" x1="69.4593" y1="500.9423" x2="483.2574" y2="118.9749">
	<stop  offset="0" style="stop-color:#8568C5"/>
	<stop  offset="1" style="stop-color:#7C4497"/>
</linearGradient>
<path class="st4" d="M439.08,303.76c-23.39,82.4-99.18,142.76-189.08,142.76S84.31,386.17,60.92,303.76H5.82
	C30.41,415.99,130.39,500,250,500s219.59-84.01,244.18-196.24H439.08z"/>
</svg>
