<svg aria-hidden="true" data-testid="test-icon" xmlns="http://www.w3.org/2000/svg" viewBox="0 0 24 20.87"><path data-name="Path1" d="M4.395.1L.018 9.291a.178.178 0 00.039.209l11.819 11.32a.18.18 0 00.25 0L23.944 9.5a.178.178 0 00.038-.208L19.606.1a.177.177 0 00-.161-.1H4.557a.177.177 0 00-.162.1z" fill="#50AF95" fill-rule="evenodd"/><path data-name="Path2" d="M13.517 10.263c-.085.006-.522.033-1.5.033-.777 0-1.328-.023-1.522-.033-3-.133-5.242-.657-5.242-1.285s2.24-1.152 5.242-1.286v2.049c.2.014.758.047 1.535.047.932 0 1.4-.039 1.483-.047V7.693c3 .134 5.23.658 5.23 1.285s-2.235 1.151-5.23 1.284zm0-2.782V5.647h4.18v-2.8H6.316v2.8h4.179V7.48c-3.4.157-5.951.832-5.951 1.642s2.555 1.484 5.951 1.642v5.876h3.021v-5.879c3.389-.157 5.939-.831 5.939-1.64s-2.548-1.483-5.939-1.641zm0 0z" fill="#fff" fill-rule="evenodd"/></svg>
