<svg width="49" height="48" viewBox="0 0 49 48" fill="none" xmlns="http://www.w3.org/2000/svg">
<g clip-path="url(#clip0_4239_14489)">
<path fill-rule="evenodd" clip-rule="evenodd" d="M9.68943 3.20628L0.937349 21.6978C0.904045 21.7666 0.893491 21.8443 0.907231 21.9195C0.920971 21.9948 0.958283 22.0636 1.01371 22.116L24.651 44.899C24.7181 44.9638 24.8076 45 24.9006 45C24.9936 45 25.083 44.9638 25.1502 44.899L48.7874 22.1174C48.8429 22.0651 48.8802 21.9962 48.8939 21.921C48.9077 21.8457 48.8971 21.768 48.8638 21.6993L40.1117 3.2077C40.0835 3.1456 40.0381 3.09299 39.9809 3.05616C39.9237 3.01934 39.8572 2.99985 39.7893 3.00003H10.0147C9.94647 2.99917 9.87946 3.01819 9.82175 3.05479C9.76403 3.09139 9.71808 3.144 9.68943 3.20628Z" fill="#50AF95"/>
<path fill-rule="evenodd" clip-rule="evenodd" d="M27.9376 23.597C27.7679 23.6098 26.8912 23.6624 24.9354 23.6624C23.3799 23.6624 22.2754 23.6155 21.888 23.597C15.8765 23.331 11.3894 22.2784 11.3894 21.0181C11.3894 19.7578 15.8765 18.7067 21.888 18.4364V22.5486C22.2811 22.5771 23.4067 22.644 24.9623 22.644C26.8289 22.644 27.7637 22.5657 27.932 22.5501V18.4393C33.9307 18.7081 38.4079 19.7607 38.4079 21.0181C38.4079 22.2755 33.9322 23.3281 27.932 23.5956L27.9376 23.597ZM27.9376 18.014V14.3341H36.3093V8.72266H13.5163V14.3341H21.8865V18.0125C15.0831 18.3269 9.9668 19.6825 9.9668 21.3069C9.9668 22.9313 15.0831 24.2854 21.8865 24.6012V36.3931H27.9362V24.5969C34.7241 24.2826 39.8319 22.9284 39.8319 21.3054C39.8319 19.6825 34.7283 18.3283 27.9362 18.0125L27.9376 18.014Z" fill="white"/>
</g>
<defs>
<clipPath id="clip0_4239_14489">
<rect width="48" height="42" fill="white" transform="translate(0.900391 3)"/>
</clipPath>
</defs>
</svg>
