<svg width="24" height="21" viewBox="0 0 24 21" fill="currentColor" xmlns="http://www.w3.org/2000/svg">
<path fill-rule="evenodd" clip-rule="evenodd" d="M1.46447 13.9791C2.40215 13.0414 3.67392 12.5146 5 12.5146H13C14.3261 12.5146 15.5979 13.0414 16.5355 13.9791C17.4732 14.9167 18 16.1885 18 17.5146V19.5146C18 20.0669 17.5523 20.5146 17 20.5146C16.4477 20.5146 16 20.0669 16 19.5146V17.5146C16 16.7189 15.6839 15.9559 15.1213 15.3933C14.5587 14.8307 13.7956 14.5146 13 14.5146H5C4.20435 14.5146 3.44129 14.8307 2.87868 15.3933C2.31607 15.9559 2 16.7189 2 17.5146V19.5146C2 20.0669 1.55228 20.5146 1 20.5146C0.447715 20.5146 0 20.0669 0 19.5146V17.5146C0 16.1885 0.526784 14.9167 1.46447 13.9791Z" />
<path fill-rule="evenodd" clip-rule="evenodd" d="M9 2.51459C7.34315 2.51459 6 3.85773 6 5.51459C6 7.17144 7.34315 8.51459 9 8.51459C10.6569 8.51459 12 7.17144 12 5.51459C12 3.85773 10.6569 2.51459 9 2.51459ZM4 5.51459C4 2.75316 6.23858 0.514587 9 0.514587C11.7614 0.514587 14 2.75316 14 5.51459C14 8.27601 11.7614 10.5146 9 10.5146C6.23858 10.5146 4 8.27601 4 5.51459Z" />
<path fill-rule="evenodd" clip-rule="evenodd" d="M19.0318 13.3946C19.1698 12.8598 19.7153 12.5383 20.25 12.6763C21.3227 12.9533 22.273 13.5787 22.9517 14.4542C23.6304 15.3298 23.9992 16.406 24 17.5138V19.5146C24 20.0669 23.5523 20.5146 23 20.5146C22.4477 20.5146 22 20.0669 22 19.5146V17.5153C21.9994 16.8507 21.7782 16.2048 21.371 15.6796C20.9638 15.1542 20.3936 14.779 19.75 14.6128C19.2153 14.4748 18.8937 13.9293 19.0318 13.3946Z" />
<path fill-rule="evenodd" clip-rule="evenodd" d="M15.0312 1.39655C15.1682 0.861522 15.713 0.538849 16.248 0.675837C17.3236 0.951214 18.2768 1.57671 18.9576 2.45373C19.6383 3.33074 20.0078 4.40937 20.0078 5.51959C20.0078 6.6298 19.6383 7.70844 18.9576 8.58545C18.2768 9.46246 17.3236 10.088 16.248 10.3633C15.713 10.5003 15.1682 10.1777 15.0312 9.64263C14.8943 9.1076 15.2169 8.56283 15.752 8.42584C16.3973 8.26061 16.9692 7.88531 17.3777 7.3591C17.7861 6.8329 18.0078 6.18571 18.0078 5.51959C18.0078 4.85346 17.7861 4.20628 17.3777 3.68007C16.9692 3.15386 16.3973 2.77856 15.752 2.61334C15.2169 2.47635 14.8943 1.93157 15.0312 1.39655Z" />
</svg>
