<svg width="24" height="25" fill="currentColor" xmlns="http://www.w3.org/2000/svg"><path fill-rule="evenodd" clip-rule="evenodd" d="M1.464 15.98A5 5 0 015 14.514h8a5 5 0 015 5v2a1 1 0 11-2 0v-2a3 3 0 00-3-3H5a3 3 0 00-3 3v2a1 1 0 11-2 0v-2a5 5 0 011.464-3.536zM9 4.515a3 3 0 100 6 3 3 0 000-6zm-5 3a5 5 0 1110 0 5 5 0 01-10 0zM19.032 15.395a1 1 0 011.218-.719A5 5 0 0124 19.514v2a1 1 0 11-2 0v-1.999a3 3 0 00-2.25-2.902 1 1 0 01-.718-1.218zM15.031 3.397a1 1 0 011.217-.721 5 5 0 010 9.687 1 1 0 11-.496-1.937 3 3 0 000-5.813 1 1 0 01-.72-1.216z"/></svg>
