<?xml version="1.0" encoding="utf-8"?>
<!-- Generator: Adobe Illustrator 23.0.4, SVG Export Plug-In . SVG Version: 6.00 Build 0)  -->
<svg version="1.1" id="uuu" xmlns="http://www.w3.org/2000/svg" xmlns:xlink="http://www.w3.org/1999/xlink" x="0px" y="0px"
	 viewBox="0 0 500 500" style="enable-background:new 0 0 500 500;" xml:space="preserve">
<style type="text/css">
	.st0{fill:#172956;}
	.st1{fill:#FFFFFF;}
</style>
<circle class="st0" cx="249.5" cy="249.6" r="247.8"/>
<path class="st1" d="M314.9,214.6c1.2-8.1,4.2-10.6,12.4-10.7c14.7,0,29.4-0.1,44.1,0c7.3,0.1,11.8,4.5,10.9,11.2
	c-5.4,37.2-9.5,74.7-16.9,111.5c-8.2,41-30.1,74-66.8,95.9c-20.7,12.3-44.8,18.4-81,18.4c-30.3-0.6-64.6-14.3-87.4-49.7
	c-17-26.4-19.4-55.6-15.1-86c9.9-68.7,19.7-137.5,29.4-206.3c1.4-9.9,4.7-12.9,14.6-13c14.3,0,28.5,0,42.8,0c8.7,0,11.5,3.2,10.2,12
	c-7.8,55.1-29.8,205.3-30.1,225.5c-0.6,37.8,23.8,55.4,62.2,50.1c29.1-4,48.6-23.2,55.1-55.3"/>
<path class="st1" d="M358.3,158c-7.4,0-14.9,0.1-22.3,0c-8.1-0.2-12.2-4.8-11.1-12.8c2.2-16.4,4.6-32.8,7.1-49.1
	c1-6.9,4.8-10.1,11.8-10.1c15.3-0.1,30.6-0.1,45.9,0c7.1,0,10.4,3.4,9.5,10.5c-2.2,17.6-4.8,35.2-7.5,52.8
	c-0.9,6.1-5.2,8.7-11.1,8.7C373.1,158.1,365.7,158,358.3,158z"/>
</svg>
