<?xml version="1.0" encoding="iso-8859-1"?>
<!-- Generator: Adobe Illustrator 19.0.0, SVG Export Plug-In . SVG Version: 6.00 Build 0)  -->
<svg version="1.1" id="Layer_1" xmlns="http://www.w3.org/2000/svg" xmlns:xlink="http://www.w3.org/1999/xlink" x="0px" y="0px"
	 viewBox="0 0 500 500" style="enable-background:new 0 0 500 500;" xml:space="preserve">
<path style="fill:#FE9A34;" d="M191.49,15.793c27.066,0,53.611,0,80.732,0c-28.569,123.8-57.073,247.317-85.63,371.066
	c-31.837,0-63.537,0-95.501,0C62.545,263.156,34.026,139.57,5.451,15.737c27.082,0,53.694,0,80.734,0
	c17.473,91.076,34.939,182.112,52.404,273.148c0.17,0.004,0.339,0.008,0.509,0.012C156.547,197.941,173.996,106.984,191.49,15.793z
	 M491.721,255.995c0.173-0.586,0.331-1.18,0.443-1.781c3.013-16.235,4.333-32.581,3.667-49.106
	c-0.632-15.713-2.987-31.076-8.491-45.854c-6.06-16.267-15.428-30.116-29.542-40.599c-10.33-7.672-21.812-12.67-34.246-15.541
	c-18.572-4.287-37.325-4.699-56.118-1.76c-18.708,2.926-35.593,10.031-49.836,22.781c-10.742,9.616-18.549,21.304-24.057,34.573
	c-5.569,13.416-9.201,27.333-9.269,41.897c-0.176,37.519-0.059,75.04-0.05,112.56c0,1.376-0.025,2.773,0.184,4.126
	c2.531,16.411,8.921,31.121,19.626,43.865c11.154,13.279,25.371,21.948,41.725,27.278c12.466,4.064,25.314,5.776,38.391,6.274
	c17.176,0.654,33.939-1.145,50.024-7.552c17.942-7.147,31.697-19.254,41.51-35.754c8.825-14.839,13.574-31.074,15.332-48.204
	c0.307-2.993,0.396-6.008,0.592-9.112c-22.412,0-44.315,0-66.283,0c-0.138,3.077-0.246,5.893-0.394,8.706
	c-0.537,10.19-2.511,20.069-7.057,29.258c-4.954,10.014-12.526,16.951-23.915,18.819c-15.853,2.601-29.598-4.627-36.713-19.079
	c-5.524-11.22-7.747-23.206-8.004-35.559c-0.25-12.018-0.064-24.045-0.048-36.069c0.001-0.882,0.172-1.764,0.294-2.931
	c47.347,0,94.482,0,141.649,0C491.467,256.543,491.637,256.282,491.721,255.995z M352.055,216.131
	c-0.074-0.915-0.205-1.799-0.207-2.683c-0.017-10.178-0.041-20.356-0.01-30.534c0.056-18.106,13.447-32.587,31.493-34.29
	c6.393-0.603,12.701-0.633,18.812,1.54c10.353,3.681,16.586,11.364,20.326,21.364c1.946,5.206,2.925,10.56,2.824,16.163
	c-0.148,8.186-0.026,16.376-0.052,24.564c-0.004,1.199-0.186,2.396-0.309,3.875C400.444,216.131,376.373,216.131,352.055,216.131z
	 M121.54,434.768c-0.866-7.172-5.623-12.211-12.204-15.322c-4.146-1.96-8.565-1.989-13.033-1.973
	c-14.47,0.051-28.942-0.136-43.41,0.019c-11.075,0.119-20.287,9.022-20.947,20.145c-0.362,6.104-0.463,12.244-0.278,18.356
	c0.372,12.298,8.012,21.172,19.845,22.271c7.742,0.719,15.599,0.211,23.404,0.226c0.34,0.001,0.68-0.271,1.05-0.429
	c0-4.313,0-8.553,0-12.982c-1.081-0.074-1.976-0.184-2.871-0.187c-6.278-0.021-12.557,0.007-18.835-0.034
	c-5.477-0.036-8.89-3.437-8.937-8.89c-0.043-4.976-0.028-9.953-0.024-14.93c0.005-6.76,3.384-10.126,10.158-10.141
	c14.696-0.034,29.391-0.071,44.087-0.102c5.119-0.011,9.059,3.758,9.166,8.921c0.096,4.592,0.016,9.188,0.042,13.781
	c0.005,0.888,0.138,1.775,0.226,2.832c4.375,0,8.538,0,12.743,0C121.724,448.933,122.384,441.76,121.54,434.768z M433.298,430.887
	c6.429,0.015,12.859-0.092,19.286,0.036c5.748,0.114,9.055,3.602,9.085,9.303c0.027,5.205,0.03,10.411-0.001,15.616
	c-0.034,5.572-3.43,9.01-9.039,9.023c-15.234,0.034-30.467,0.025-45.701-0.01c-5.031-0.012-8.589-3.654-8.641-8.75
	c-0.038-3.674,0.004-7.349-0.02-11.023c-0.005-0.814-0.137-1.627-0.225-2.595c-4.421,0-8.637,0-12.692,0
	c-0.201,0.291-0.282,0.353-0.281,0.414c0.009,6.031-0.784,12.199,0.216,18.062c1.794,10.512,10.907,17.51,21.697,17.583
	c15.31,0.104,30.621,0.063,45.931,0.009c12.961-0.046,22.53-10.483,22.242-22.324c-0.134-5.508,0.007-11.023-0.029-16.535
	c-0.083-12.748-9.457-22.146-22.205-22.241c-6.736-0.05-13.473-0.017-20.21-0.002c-0.814,0.002-1.628,0.128-2.614,0.211
	c0,4.366,0,8.527,0,13.031C431.353,430.773,432.325,430.885,433.298,430.887z M424.88,454.722
	c-0.034-5.586,0.043-11.177-0.186-16.755c-0.461-11.231-10.549-20.853-22.772-20.598c-15.533,0.324-31.078,0.026-46.616,0.128
	c-9.142,0.06-17.865,6.857-20.075,15.755c-1.849,7.442-0.779,15.058-0.692,22.605c0.001,0.117,0.178,0.232,0.333,0.42
	c4.173,0,8.399,0,12.901,0c0-1.081,0-1.908,0-2.735c0.003-4.516-0.059-9.034,0.025-13.549c0.099-5.33,3.69-9.053,8.95-9.076
	c15.233-0.068,30.467-0.066,45.699,0.012c5.221,0.027,8.696,3.712,8.725,8.93c0.026,4.593-0.015,9.186,0.017,13.779
	c0.006,0.872,0.213,1.742,0.339,2.705c4.435,0,8.608,0,12.946,0C424.669,455.591,424.882,455.156,424.88,454.722z M145.702,456.209
	c0.151-0.525,0.268-0.743,0.269-0.962c0.024-4.898,0.014-9.795,0.056-14.693c0.051-5.971,3.682-9.645,9.586-9.654
	c14.924-0.021,29.848-0.022,44.773,0.001c5.447,0.008,9.026,3.59,9.086,9.076c0.05,4.515-0.004,9.031,0.021,13.546
	c0.005,0.881,0.162,1.761,0.257,2.731c4.535,0,8.826,0,13.094,0c0.143-0.546,0.287-0.837,0.287-1.129
	c-0.001-5.586,0.286-11.193-0.094-16.755c-0.851-12.456-10.137-20.902-22.652-20.924c-15.154-0.027-30.308-0.033-45.461,0.002
	c-12.714,0.03-22.237,9.521-22.32,22.186c-0.031,4.745-0.017,9.49-0.004,14.235c0.002,0.741,0.108,1.481,0.175,2.34
	C137.361,456.209,141.571,456.209,145.702,456.209z M247.008,453.33c0.019-4.592-0.054-9.186,0.035-13.777
	c0.095-4.878,3.757-8.608,8.626-8.628c15.308-0.062,30.616-0.071,45.924,0.012c5.345,0.029,8.817,3.729,8.858,9.094
	c0.034,4.516-0.008,9.032,0.016,13.548c0.005,0.878,0.159,1.755,0.249,2.675c4.473,0,8.688,0,13.144,0
	c0-6.081,0.065-11.888-0.014-17.694c-0.151-11.195-9.57-20.917-20.804-21.05c-16.3-0.193-32.606-0.189-48.906,0
	c-10.574,0.122-19.916,9.336-20.476,19.884c-0.292,5.496-0.25,11.01-0.327,16.516c-0.01,0.733,0.171,1.468,0.288,2.398
	c4.419,0,8.649,0,13.21,0C246.905,455.127,247.005,454.229,247.008,453.33z M183.11,456.785
	c0.045,11.606,9.536,21.577,21.158,21.722c15.994,0.199,31.994,0.201,47.987-0.034c7.122-0.105,12.928-3.419,17.155-9.245
	c2.637-3.634,4.019-7.701,4-12.223c-0.019-4.708-0.004-9.416-0.004-14.347c-4.52,0-8.802,0-13.255,0
	c-0.071,1.163-0.166,2.064-0.173,2.966c-0.026,3.521,0.018,7.042-0.042,10.562c-0.087,5.132-3.579,8.665-8.68,8.677
	c-15.307,0.038-30.615,0.038-45.923,0.006c-5.168-0.011-8.724-3.632-8.794-8.859c-0.048-3.597,0.004-7.195-0.027-10.792
	c-0.007-0.883-0.162-1.764-0.259-2.758c-4.391,0-8.547,0-13.146,0C183.107,447.474,183.092,452.13,183.11,456.785z M283.845,444.871
	c-0.017,3.828-0.052,7.657,0.002,11.485c0.173,12.481,9.7,22.096,22.224,22.191c15.389,0.116,30.78,0.106,46.168,0.003
	c10.456-0.07,19.721-7.097,21.403-17.055c1.005-5.951,0.407-12.174,0.516-18.275c0.002-0.117-0.172-0.237-0.425-0.564
	c-4.057,0-8.269,0-12.633,0c-0.049,1.086-0.113,1.916-0.118,2.746c-0.019,3.522,0.046,7.046-0.045,10.565
	c-0.129,5.023-3.705,8.875-8.38,8.89c-15.542,0.05-31.085,0.043-46.628-0.006c-4.077-0.013-6.975-2.242-8.105-6.184
	c-0.413-1.441-0.491-3.01-0.518-4.525c-0.069-3.873-0.023-7.748-0.023-11.687c-4.604,0-8.84,0-13.25,0
	C283.958,443.386,283.848,444.128,283.845,444.871z M82.204,444.837c-0.043,3.75-0.097,7.501-0.072,11.25
	c0.085,12.664,9.504,22.337,22.161,22.452c15.462,0.141,30.927,0.139,46.389-0.001c11.078-0.1,20.101-7.816,21.544-18.791
	c0.712-5.411,0.221-10.981,0.261-16.479c0.001-0.125-0.158-0.25-0.413-0.629c-4.049,0-8.268,0-12.693,0
	c-0.064,1.115-0.155,2.012-0.16,2.91c-0.019,3.445,0.057,6.891-0.027,10.334c-0.133,5.421-3.782,8.983-9.2,8.991
	c-15.08,0.022-30.161,0.02-45.241-0.017c-1.198-0.003-2.481-0.126-3.577-0.564c-3.866-1.547-5.523-4.669-5.591-8.678
	c-0.074-4.34-0.017-8.682-0.017-13.189c-4.457,0-8.625,0-13.139,0C82.34,443.349,82.213,444.092,82.204,444.837z"/>
</svg>
