<?xml version="1.0" encoding="iso-8859-1"?>
<!-- Generator: Adobe Illustrator 19.0.0, SVG Export Plug-In . SVG Version: 6.00 Build 0)  -->
<svg version="1.1" id="Layer_1" xmlns="http://www.w3.org/2000/svg" xmlns:xlink="http://www.w3.org/1999/xlink" x="0px" y="0px"
	 viewBox="0 0 500 500" style="enable-background:new 0 0 500 500;" xml:space="preserve">
<path style="fill:#2A769A;" d="M495.982,249.332c0.047,135.751-109.804,245.661-245.518,245.649
	C114.779,494.969,4.855,384.929,4.999,249.259C5.143,113.74,115.028,3.979,250.536,4C386.056,4.021,495.935,113.848,495.982,249.332
	z M113.184,257.827c0,12.082,0,23.484,0,35.213c24.868,0,49.501,0,74.344,0c21.564,49.875,43.041,99.55,64.786,149.843
	c21.788-50.388,43.242-100.003,64.845-149.962c24.832,0,49.58,0,74.409,0c0-11.831,0-23.215,0-35.033c-19.656,0-39.075,0-59.239,0
	c3.755-8.686,7.233-16.73,10.795-24.968c16.348,0,32.372,0,48.466,0c0-11.765,0-23.16,0-34.898c-11.064,0-21.915,0-33.389,0
	c11.248-26.054,22.273-51.594,33.463-77.514c-16.117,0-31.587,0-47.281,0c-19.313,45.848-38.59,91.61-57.796,137.203
	c-23.112,0-45.727,0-68.552,0c-19.301-45.83-38.577-91.598-57.768-137.166c-15.918,0-31.383,0-47.276,0
	c11.172,25.882,22.193,51.413,33.514,77.639c-11.754,0-22.587,0-33.318,0c0,11.837,0,23.24,0,34.965c16.28,0,32.325,0,48.45,0
	c3.541,8.205,6.976,16.164,10.649,24.676C152.29,257.827,132.87,257.827,113.184,257.827z M232.997,293.299
	c6.462,15.331,12.756,30.262,19.327,45.852c6.614-15.725,12.877-30.614,19.286-45.852
	C258.438,293.299,245.98,293.299,232.997,293.299z"/>
</svg>
