<?xml version="1.0" encoding="iso-8859-1"?>
<!-- Generator: Adobe Illustrator 19.0.0, SVG Export Plug-In . SVG Version: 6.00 Build 0)  -->
<svg version="1.1" id="Layer_1" xmlns="http://www.w3.org/2000/svg" xmlns:xlink="http://www.w3.org/1999/xlink" x="0px" y="0px"
	 viewBox="0 0 500 500" style="enable-background:new 0 0 500 500;" xml:space="preserve">
<path d="M495.511,248.907C495.486,385.17,385.012,495.48,248.65,495.239C115.58,495.003,2.865,388.167,3,248.618
	C3.132,112.048,112.696,2.599,249.374,2.75C388.916,2.904,495.457,115.816,495.511,248.907z M249.359,453.82
	c15.062-23.127,29.602-45.452,43.514-66.813c20.981-3.074,40.893-5.579,60.648-8.996c21.551-3.728,42.705-9.398,62.108-19.711
	c8.079-4.294,15.854-10.018,22.132-16.642c9.604-10.133,9.217-22.709-0.221-33.06c-4.631-5.079-10.316-9.466-16.188-13.091
	c-12.946-7.99-27.186-13.05-41.958-16.649c-4.319-1.052-8.542-2.501-13.706-4.034c29.18-45.051,57.596-88.923,86.615-133.727
	c-25.089,0-48.797,0-72.954,0c-43.138,66.542-86.268,133.071-130.107,200.694c-43.74-67.454-86.998-134.165-130.058-200.57
	c-24.295,0-47.968,0-72.849,0c28.64,44.866,57.478,88.285,85.744,132.978c-3.139,0.905-4.762,1.556-6.447,1.831
	c-15.894,2.594-30.996,7.906-45.137,15.27c-8.628,4.493-17.032,10.339-23.795,17.275c-10.308,10.57-9.986,23.889,0.548,34.28
	c6.506,6.418,14.277,12.352,22.584,15.971c14.578,6.352,29.76,11.671,45.131,15.767c23.078,6.149,46.768,9.429,70.644,10.755
	c6.625,0.368,11.079,2.487,14.758,8.503c10.628,17.377,22.017,34.29,33.128,51.372C245.199,447.845,247.018,450.396,249.359,453.82z
	 M248.21,308.678c39.031-62.19,77.55-123.564,116.322-185.342c-77.351,0-153.4,0-230.582,0
	C172.271,185.495,209.989,246.679,248.21,308.678z M144.952,293.474c-4.547,1.676-8.807,2.728-12.546,4.746
	c-5.559,3.001-11.235,6.125-15.964,10.231c-5.133,4.456-4.926,8.655-0.151,13.504c2.799,2.842,6.181,5.323,9.709,7.2
	c15.759,8.384,32.902,12.144,51.903,15.202C166.492,326.736,155.863,310.323,144.952,293.474z M321.244,343.263
	c14.086-2.083,26.262-5.252,37.92-10.166c5.297-2.233,10.564-4.91,15.188-8.286c8.492-6.198,8.643-12.914,0.149-18.911
	c-6.293-4.443-13.498-7.595-21.325-11.887C342.195,310.95,332.155,326.435,321.244,343.263z"/>
</svg>
