<?xml version="1.0" encoding="utf-8"?>
<!-- Generator: Adobe Illustrator 23.0.4, SVG Export Plug-In . SVG Version: 6.00 Build 0)  -->
<svg version="1.1" id="vidt" xmlns="http://www.w3.org/2000/svg" xmlns:xlink="http://www.w3.org/1999/xlink" x="0px" y="0px"
	 viewBox="0 0 500 500" style="enable-background:new 0 0 500 500;" xml:space="preserve">
<style type="text/css">
	.st0{fill:#3EC0CE;}
	.st1{fill:#FFFFFF;}
</style>
<circle class="st0" cx="249.5" cy="249.5" r="246.9"/>
<path class="st1" d="M154.6,421.6c-6,0-12-2.2-16.7-6.6c-5.1-4.7-7.8-11.5-7.8-18.5V97.9c0-13.3,10.4-24.7,23.7-25.1
	c13.9-0.5,25.3,10.7,25.3,24.5v253.6c0,1.7,1.9,2.8,3.4,1.9l49.5-28.6c0.7-0.4,1.1-1.1,1.1-1.9l0-168.3c0-6.8,2.5-13.4,7.4-18.1
	c8.2-7.9,20.2-9.1,29.5-3.6L427.9,225c5.8,3.4,10.2,8.8,11.8,15.3c2.7,10.9-2.2,21.9-11.5,27.3L166.9,418.3
	C163.1,420.5,158.9,421.6,154.6,421.6z M282.2,200.1v91.3c0,1.7,1.9,2.8,3.4,1.9l78.4-45.2c1.5-0.9,1.5-3,0-3.9l-78.4-46
	C284.1,197.3,282.2,198.4,282.2,200.1z"/>
</svg>
