<?xml version="1.0" encoding="utf-8"?>
<!-- Generator: Adobe Illustrator 23.0.3, SVG Export Plug-In . SVG Version: 6.00 Build 0)  -->
<svg version="1.1" id="vin" xmlns="http://www.w3.org/2000/svg" xmlns:xlink="http://www.w3.org/1999/xlink" x="0px" y="0px"
	 viewBox="0 0 500 500" style="enable-background:new 0 0 500 500;" xml:space="preserve">
<style type="text/css">
	.st0{fill:#4CAFE4;}
	.st1{fill:#A5E0FE;}
</style>
<path class="st0" d="M332.6,250.8h-82.5c0,1,0.1,2,0.1,3c0,45.1-36.6,81.7-81.7,81.7s-81.7-36.6-81.7-81.7s36.6-81.7,81.7-81.7
	c6.5,0,12.8,0.8,18.9,2.2c14.6-26.3,36.3-48.2,62.4-63.1c-24-13.7-51.7-21.6-81.3-21.6C77.8,89.5,4.2,163.2,4.2,253.8
	S77.8,418,168.4,418c90.6,0,164.3-73.7,164.3-164.3C332.7,252.7,332.6,251.8,332.6,250.8z"/>
<path class="st1" d="M330.9,89.5c-89.8,0-162.9,72.4-164.2,161.9h82.5c1.3-44,37.3-79.4,81.7-79.4c45.1,0,81.7,36.6,81.7,81.7
	s-36.6,81.7-81.7,81.7c-6.5,0-12.8-0.8-18.9-2.2c-14.6,26.3-36.3,48.2-62.4,63.1c24,13.7,51.7,21.6,81.3,21.6
	c90.6,0,164.3-73.7,164.3-164.3S421.5,89.5,330.9,89.5z"/>
</svg>
