<?xml version="1.0" encoding="utf-8"?>
<!-- Generator: Adobe Illustrator 23.0.4, SVG Export Plug-In . SVG Version: 6.00 Build 0)  -->
<svg version="1.1" id="vsys" xmlns="http://www.w3.org/2000/svg" xmlns:xlink="http://www.w3.org/1999/xlink" x="0px" y="0px"
	 viewBox="0 0 500 500" style="enable-background:new 0 0 500 500;" xml:space="preserve">
<style type="text/css">
	.st0{fill:#FF8835;}
</style>
<path class="st0" d="M144,51.8H8.9c-4.9,0-7.9,5.4-5.3,9.6l241.1,388.1c2.4,3.9,8.2,3.9,10.6,0l69.1-111.2c1.3-2,1.3-4.6,0-6.7
	l-175-276.8C148.2,52.9,146.2,51.8,144,51.8z"/>
<path class="st0" d="M491.1,51.8h-178c-4.9,0-7.9,5.4-5.3,9.6l89.7,142.2c2.5,3.9,8.2,3.9,10.6,0l88.3-142.2
	C499,57.2,496,51.8,491.1,51.8z"/>
</svg>
