<?xml version="1.0" encoding="iso-8859-1"?>
<!-- Generator: Adobe Illustrator 19.0.0, SVG Export Plug-In . SVG Version: 6.00 Build 0)  -->
<svg version="1.1" id="Layer_1" xmlns="http://www.w3.org/2000/svg" xmlns:xlink="http://www.w3.org/1999/xlink" x="0px" y="0px"
	 viewBox="0 0 500 500" style="enable-background:new 0 0 500 500;" xml:space="preserve">
<path style="fill:#1A5C2E;" d="M256.648,494.687c-4.582,0-9.164,0-13.746,0c-1.212-0.146-2.421-0.377-3.637-0.426
	c-16.565-0.657-32.872-3.083-48.968-7.025C88.251,462.245,12.461,372.178,5.245,267.308c-0.302-4.396-0.628-8.789-0.943-13.184
	c0-3.273,0-6.546,0-9.819c0.157-1.701,0.394-3.398,0.459-5.102c0.513-13.432,2.151-26.722,4.893-39.881
	C32.024,91.938,122.836,12.405,231.917,4.673c4.479-0.318,8.96-0.621,13.439-0.931c3.109,0,6.219,0,9.328,0
	c1.376,0.144,2.751,0.31,4.129,0.428c7.9,0.675,15.845,1.009,23.694,2.059c46.569,6.23,87.886,24.542,124.108,54.419
	c0.619,0.51,1.19,1.078,1.883,1.711c-68.523,98-136.968,195.89-205.458,293.844c11.562,15.294,22.747,30.626,34.543,45.473
	c6.146,7.735,18.246,8.768,25.129-1.131c16.668-23.969,33.628-47.734,50.472-71.58c48.219-68.266,96.439-136.532,144.66-204.796
	c0.481-0.681,0.997-1.337,1.55-2.076c0.325,0.415,0.441,0.534,0.524,0.672c18.732,31.178,30.015,64.854,33.79,101.028
	c0.644,6.169,1.032,12.365,1.538,18.548c0,4.582,0,9.164,0,13.746c-0.152,1.289-0.388,2.574-0.442,3.867
	c-0.994,23.43-5.322,46.231-12.853,68.431c-31.499,92.858-115.84,158.155-213.595,165.372
	C264.453,494.046,260.551,494.376,256.648,494.687z M244.631,280.486c-17.73-23.101-35.392-46.113-52.812-68.81
	c-32.794,0-65.181,0-98.117,0c34.685,45.785,69.018,91.105,103.529,136.659C213.182,325.503,228.861,303.059,244.631,280.486z
	 M105.969,243.206c-6.223-8.25-12.1-16.043-18.17-24.091c-7.233,8.041-14.258,15.851-21.67,24.091
	C79.719,243.206,92.565,243.206,105.969,243.206z"/>
<path style="fill:#FFFFFF;" d="M244.631,280.486c-15.77,22.573-31.449,45.017-47.4,67.85
	c-34.51-45.554-68.844-90.875-103.529-136.659c32.935,0,65.322,0,98.117,0C209.238,234.372,226.901,257.385,244.631,280.486z"/>
<path style="fill:#FFFFFF;" d="M105.969,243.206c-13.404,0-26.25,0-39.84,0c7.411-8.239,14.437-16.05,21.67-24.091
	C93.869,227.164,99.747,234.956,105.969,243.206z"/>
<path style="fill:#FFFFFF;" d="M255.192,3.797c1.207,0.13,2.412,0.27,3.621,0.373c7.9,0.675,15.845,1.009,23.694,2.059
	c46.569,6.23,87.886,24.542,124.108,54.419c0.618,0.51,1.19,1.078,1.883,1.711c-68.523,98-136.967,195.89-205.458,293.844
	c11.562,15.294,22.747,30.626,34.543,45.473c6.146,7.735,18.246,8.768,25.129-1.131c16.668-23.969,33.628-47.734,50.472-71.58
	c48.219-68.266,96.439-136.532,144.66-204.796c0.481-0.681,0.997-1.337,1.55-2.076c0.325,0.415,0.441,0.534,0.524,0.672
	c18.732,31.178,30.015,64.854,33.79,101.028c0.592,5.668,0.971,11.359,1.42,17.042C491.304,110.681,385.728,6.077,255.192,3.797z"/>
</svg>
