<?xml version="1.0" encoding="utf-8"?>
<!-- Generator: Adobe Illustrator 24.1.0, SVG Export Plug-In . SVG Version: 6.00 Build 0)  -->
<svg version="1.1" id="WABI" xmlns="http://www.w3.org/2000/svg" xmlns:xlink="http://www.w3.org/1999/xlink" x="0px" y="0px"
	 viewBox="0 0 500 500" style="enable-background:new 0 0 500 500;" xml:space="preserve">
<style type="text/css">
	.st0{fill-rule:evenodd;clip-rule:evenodd;fill:#FF5847;}
</style>
<path class="st0" d="M250,65.4C149.8,65.4,68.3,148.2,68.3,250c0,101.8,81.5,184.6,181.7,184.6c100.2,0,181.7-82.8,181.7-184.6
	C431.7,148.2,350.2,65.4,250,65.4z M250,498.1C115.3,498.1,5.8,386.8,5.8,250C5.8,113.2,115.3,1.9,250,1.9
	c134.7,0,244.3,111.3,244.3,248.1C494.2,386.8,384.7,498.1,250,498.1z"/>
<path class="st0" d="M195.9,250l54.1,55l54.1-55L250,195L195.9,250z M250,381.7c-8.3,0-16.2-3.3-22.1-9.3l-98.4-99.9
	c-12.2-12.4-12.2-32.5,0-44.9l98.4-99.9c12.2-12.4,32-12.4,44.2,0l98.4,99.9c12.2,12.4,12.2,32.5,0,44.9l-98.4,99.9
	C266.2,378.3,258.3,381.7,250,381.7z"/>
</svg>
