<svg width="25" height="24" viewBox="0 0 25 24" fill="currentColor" xmlns="http://www.w3.org/2000/svg">
<path fill-rule="evenodd" clip-rule="evenodd" d="M5.20262 4.89C4.4736 4.89 3.88262 5.48099 3.88262 6.21V17.79C3.88262 18.519 4.4736 19.11 5.20262 19.11H19.1726C19.9016 19.11 20.4926 18.519 20.4926 17.79V15.895C20.4926 15.2875 20.9851 14.795 21.5926 14.795C22.2001 14.795 22.6926 15.2875 22.6926 15.895V17.79C22.6926 19.734 21.1167 21.31 19.1726 21.31H5.20262C3.25857 21.31 1.68262 19.734 1.68262 17.79V6.21C1.68262 4.26596 3.25857 2.69 5.20262 2.69H19.1726C21.1167 2.69 22.6926 4.26596 22.6926 6.21V8.105C22.6926 8.71252 22.2001 9.205 21.5926 9.205C20.9851 9.205 20.4926 8.71252 20.4926 8.105V6.21C20.4926 5.48099 19.9016 4.89 19.1726 4.89H5.20262Z"/>
<path fill-rule="evenodd" clip-rule="evenodd" d="M15.5726 10.15C15.4787 10.15 15.4026 10.2261 15.4026 10.32V13.67C15.4026 13.7639 15.4787 13.84 15.5726 13.84H21.9026C21.9965 13.84 22.0726 13.7639 22.0726 13.67V10.32C22.0726 10.2261 21.9965 10.15 21.9026 10.15H15.5726ZM13.2026 10.32C13.2026 9.0111 14.2637 7.95001 15.5726 7.95001H21.9026C23.2116 7.95001 24.2726 9.0111 24.2726 10.32V13.67C24.2726 14.9789 23.2116 16.04 21.9026 16.04H15.5726C14.2637 16.04 13.2026 14.9789 13.2026 13.67V10.32Z" />
<path d="M17.9627 12C17.9627 11.5416 17.5911 11.17 17.1327 11.17C16.6743 11.17 16.3027 11.5416 16.3027 12C16.3027 12.4584 16.6743 12.83 17.1327 12.83C17.5911 12.83 17.9627 12.4584 17.9627 12Z" />
</svg>
