<svg width="25" height="25" viewBox="0 0 25 25" fill="none" xmlns="http://www.w3.org/2000/svg">
<g clip-path="url(#clip0_1113_10415)">
<path d="M20.832 8.31238V6.41738C20.832 5.08085 19.7485 3.99738 18.412 3.99738H4.44197C3.10544 3.99738 2.02197 5.08085 2.02197 6.41738V17.9974C2.02197 19.3339 3.10544 20.4174 4.44197 20.4174H18.412C19.7485 20.4174 20.832 19.3339 20.832 17.9974V16.1024" stroke="#CACFD3" stroke-width="2.2" stroke-linecap="round" stroke-linejoin="round"/>
<path d="M21.142 9.25739H14.812C14.1106 9.25739 13.542 9.82598 13.542 10.5274V13.8774C13.542 14.5788 14.1106 15.1474 14.812 15.1474H21.142C21.8434 15.1474 22.412 14.5788 22.412 13.8774V10.5274C22.412 9.82598 21.8434 9.25739 21.142 9.25739Z" stroke="#CACFD3" stroke-width="2.2" stroke-linecap="round" stroke-linejoin="round"/>
<path d="M16.372 11.8774C16.5542 11.8774 16.702 12.0251 16.702 12.2074C16.702 12.3896 16.5542 12.5374 16.372 12.5374C16.1897 12.5374 16.042 12.3896 16.042 12.2074C16.042 12.0251 16.1897 11.8774 16.372 11.8774Z" fill="black" stroke="#CACFD3"/>
</g>
<defs>
<clipPath id="clip0_1113_10415">
<rect width="22.58" height="18.62" fill="white" transform="translate(0.921997 2.89737)"/>
</clipPath>
</defs>
</svg>
