<svg width="25" height="25" viewBox="0 0 25 25" fill="none" stroke="currentColor" xmlns="http://www.w3.org/2000/svg">
<g clip-path="url(#clip0_20304_43452)">
<path d="M21.5927 9.10248V7.20748C21.5927 5.87095 20.5092 4.78748 19.1727 4.78748H5.20271C3.86619 4.78748 2.78271 5.87095 2.78271 7.20748V18.7875C2.78271 20.124 3.86619 21.2075 5.20271 21.2075H19.1727C20.5092 21.2075 21.5927 20.124 21.5927 18.7875V16.8925" stroke-width="2.2" stroke-linecap="round" stroke-linejoin="round"/>
<path d="M21.9027 10.0475H15.5727C14.8713 10.0475 14.3027 10.6161 14.3027 11.3175V14.6675C14.3027 15.3689 14.8713 15.9375 15.5727 15.9375H21.9027C22.6041 15.9375 23.1727 15.3689 23.1727 14.6675V11.3175C23.1727 10.6161 22.6041 10.0475 21.9027 10.0475Z" stroke-width="2.2" stroke-linecap="round" stroke-linejoin="round"/>
<path d="M17.9627 12.9975C17.9627 12.5391 17.5911 12.1675 17.1327 12.1675C16.6743 12.1675 16.3027 12.5391 16.3027 12.9975C16.3027 13.4559 16.6743 13.8275 17.1327 13.8275C17.5911 13.8275 17.9627 13.4559 17.9627 12.9975Z"/>
</g>
<defs>
<clipPath id="clip0_20304_43452">
<rect width="22.58" height="18.62" fill="white" transform="translate(1.68262 3.6875)"/>
</clipPath>
</defs>
</svg>
