<?xml version="1.0" encoding="utf-8"?>
<!-- Generator: Adobe Illustrator 24.2.2, SVG Export Plug-In . SVG Version: 6.00 Build 0)  -->
<svg version="1.1" id="Layer_1" focusable="false" xmlns="http://www.w3.org/2000/svg" xmlns:xlink="http://www.w3.org/1999/xlink"
	 x="0px" y="0px" viewBox="0 0 500 500" style="enable-background:new 0 0 500 500;" xml:space="preserve">
<style type="text/css">
	.st0{fill-rule:evenodd;clip-rule:evenodd;fill:#FFFFFF;}
	.st1{fill-rule:evenodd;clip-rule:evenodd;fill:#5A5564;}
	.st2{fill-rule:evenodd;clip-rule:evenodd;fill:#F09242;}
	.st3{fill-rule:evenodd;clip-rule:evenodd;fill:#282138;}
</style>
<path id="Fill-1" class="st0" d="M250,0c138,0,250,111.9,250,250c0,138-112,250-250,250C111.9,500,0,388,0,250
	C0,111.9,111.9,0,250,0"/>
<path id="Fill-3" class="st1" d="M407.7,104.9L394,118.7c67.9,74.3,67.9,188,0,262.3l13.7,13.7c75.6-82,75.6-208.1,0-290.1V104.9z"
	/>
<path id="Fill-5" class="st1" d="M118.9,106.1c74.2-67.9,188.1-67.9,262.3,0L395,92.4c-81.9-75.6-208.2-75.6-290.1,0L118.9,106.1z"
	/>
<path id="Fill-7" class="st1" d="M106.1,381.1c-67.8-74.2-67.8-187.9,0-262.2l-13.7-13.7c-75.6,81.9-75.6,208.2,0,290.1L106.1,381.1
	z"/>
<path id="Fill-9" class="st1" d="M381.1,393.8c-74.2,67.9-188.1,67.9-262.3,0l-13.8,13.7c81.9,75.6,208.2,75.6,290.1,0L381.1,393.8z
	"/>
<path id="Fill-11" class="st2" d="M291.6,215c0,27.5-42.9,24.1-56.6,24.1v-48.4C248.7,190.8,291.6,186.5,291.6,215 M302.8,290.1
	c0,30-51.4,26.6-67.8,26.6v-53.2C251.4,263.5,302.8,258.8,302.8,290.1 M336.7,204.2c-2.7-28.6-27.4-38.2-58.7-41.2v-39.5h-24.1v38.7
	c-6.4,0-12.9,0-19.3,0.2v-38.9h-24v39.7h-15.4h-33.6v25.9c0,0,17.8-0.3,17.6,0c6.7-0.7,12.8,4,13.7,10.6v108.8
	c-0.1,2.3-1.2,4.4-2.9,5.9c-1.7,1.5-4,2.2-6.2,2.1c0.3,0.2-17.6,0-17.6,0l-4.8,28.9h31.5h17.3v40.4h24.2V346h19.3v39.6h24.2v-39.9
	c40.8-2.5,69.3-12.6,72.8-50.8c2.9-30.8-11.6-44.5-34.7-50C330,237.7,338.8,225.1,336.7,204.2"/>
<path class="st3" d="M249.9,19.5C122.7,19.6,19.7,122.7,19.7,249.9c0,127.2,103.1,230.3,230.4,230.3
	c127.2,0,230.3-103.1,230.4-230.3C480.3,122.7,377.2,19.7,249.9,19.6V19.5z M249.9,500C111.9,500,0,388,0,250C0,111.9,111.9,0,250,0
	C388,0,500,111.9,500,249.9C499.8,388,388,499.8,249.9,500z"/>
</svg>
