<?xml version="1.0" encoding="utf-8"?>
<!-- Generator: Adobe Illustrator 23.0.4, SVG Export Plug-In . SVG Version: 6.00 Build 0)  -->
<svg version="1.1" id="wct" xmlns="http://www.w3.org/2000/svg" xmlns:xlink="http://www.w3.org/1999/xlink" x="0px" y="0px"
	 viewBox="0 0 500 500" style="enable-background:new 0 0 500 500;" xml:space="preserve">
<style type="text/css">
	.st0{fill:#3DB6D3;}
	.st1{fill:#E2E1E1;}
</style>
<path class="st0" d="M88.8,141.1L208.3,21.6c22.4-22.4,58.7-22.4,81.1,0L409.9,142c7.6,7.6,7.4,19.9-0.3,27.3l-61.8,58.8
	c-7.5,7.1-19.3,7-26.6-0.3l-46.3-46.3c-14.5-14.5-38-14.5-52.5,0l-45.8,45.8c-7.4,7.4-19.3,7.5-26.8,0.2L89,168.2
	C81.4,160.8,81.3,148.6,88.8,141.1z"/>
<path class="st1" d="M432.8,194.8l54,47.4c11.3,9.9,11.8,27.2,1.3,37.8L290.9,477.8c-21.8,21.8-57.1,22-79,0.3L10.7,278.8
	c-10.5-10.4-10.2-27.6,0.8-37.6l52.2-47.7c8.1-7.4,20.5-7.2,28.3,0.4l46.9,45.5c13.6,13.2,35.1,13.3,48.8,0.4l48.6-45.8
	c8.1-7.6,20.7-7.5,28.6,0.3l46.1,45.2c13.8,13.5,35.8,13.5,49.6-0.1l44.2-43.7C412.3,188,424.6,187.6,432.8,194.8z"/>
</svg>
