<svg aria-hidden="true" data-testid="test-icon" fill="currentColor" viewBox="0 0 24 24" xmlns="http://www.w3.org/2000/svg"><path d="M21.195 19.982h-6.13a.805.805 0 010-1.61h4.88l-.664-1.456a.804.804 0 011.465-.666l1.182 2.594a.806.806 0 01-.733 1.138z"/><path d="M15.065 19.982h-6.13a.805.805 0 010-1.61h6.13a.805.805 0 010 1.61z"/><path d="M15.064 19.982a.805.805 0 01-.793-.678l-.415-2.594a.804.804 0 111.588-.254l.415 2.594a.804.804 0 01-.795.932zM8.934 19.982h-6.13a.805.805 0 01-.739-1.123l1.118-2.594a.804.804 0 111.477.636l-.634 1.473h4.908a.805.805 0 010 1.609v-.001z"/><path d="M8.935 19.982a.805.805 0 01-.799-.913l.353-2.594a.805.805 0 011.595.217l-.352 2.594a.805.805 0 01-.797.696zM20.015 17.387a.805.805 0 01-.734-.47L18.1 14.322a.806.806 0 011.465-.669l1.182 2.595a.804.804 0 01-.731 1.139z"/><path d="M20.014 17.387H14.65a.804.804 0 110-1.609h5.364a.804.804 0 110 1.61z"/><path d="M14.65 17.387H9.287a.804.804 0 110-1.609h5.363a.804.804 0 110 1.61z"/><path d="M14.65 17.387a.804.804 0 01-.794-.677l-.212-1.334a.805.805 0 011.59-.254l.212 1.332a.804.804 0 01-.797.933zM3.922 17.387a.804.804 0 01-.738-1.122l1.119-2.595a.805.805 0 011.477.636l-1.119 2.595a.804.804 0 01-.74.486z"/><path d="M9.286 17.387H3.922a.804.804 0 110-1.609h5.364a.804.804 0 110 1.61z"/><path d="M9.287 17.387a.805.805 0 01-.798-.913l.18-1.332a.805.805 0 011.596.217l-.181 1.333a.806.806 0 01-.797.695zM18.832 14.792a.805.805 0 01-.733-.471l-.967-2.123h-.561a.804.804 0 110-1.61h1.078a.805.805 0 01.733.47l1.181 2.596a.805.805 0 01-.731 1.138z"/><path d="M18.832 14.792H16.14a.805.805 0 010-1.609h2.692a.805.805 0 010 1.61zM5.04 14.792a.806.806 0 01-.737-1.122l1.118-2.595a.803.803 0 01.738-.486h1.222a.804.804 0 110 1.609h-.692l-.91 2.108a.803.803 0 01-.739.486z"/><path d="M7.733 14.792H5.041a.805.805 0 010-1.609h2.692a.805.805 0 010 1.61zM10.316 9.023A.805.805 0 019.8 7.6l2.367-1.974H9.64a.804.804 0 110-1.609h4.75a.805.805 0 01.517 1.424L10.83 8.837a.804.804 0 01-.514.186z"/><path d="M12.012 13.778c-1.448 0-2.38-.38-3.016-1.233a.804.804 0 011.288-.963c.229.305.595.587 1.728.587a1.573 1.573 0 000-3.145h-1.697a.805.805 0 110-1.609h1.697a3.182 3.182 0 110 6.363z"/><defs><clipPath id="prefix__clip0_12659_107961"><rect width="20" fill="#fff" transform="translate(2 4.018)"/></clipPath></defs></svg>