<svg width="24" height="24" viewBox="0 0 24 24" fill="currentColor" xmlns="http://www.w3.org/2000/svg">
<path d="M17.75 16.88C17.75 16.4 17.36 16 16.87 16H10.87C10.39 16 9.98996 16.39 9.98996 16.88C9.98996 17.96 9.43996 18.95 8.51996 19.53C7.05996 20.45 5.12996 20 4.20996 18.54C3.76996 17.83 3.62996 17 3.80996 16.18C3.98996 15.36 4.48996 14.67 5.19996 14.23C5.60996 13.97 5.72996 13.43 5.47996 13.02C5.21996 12.61 4.68996 12.48 4.26996 12.74C3.16996 13.43 2.39996 14.51 2.10996 15.78C1.81996 17.05 2.03996 18.36 2.72996 19.46C3.64996 20.94 5.23996 21.74 6.86996 21.74C7.74996 21.74 8.64996 21.5 9.44996 21C10.63 20.26 11.42 19.08 11.66 17.74H16.86C17.34 17.74 17.74 17.35 17.74 16.86L17.75 16.88Z" />
<path d="M19.23 12.61C18.03 11.95 16.54 11.84 15.26 12.26L12.64 7.46C12.41 7.04 11.88 6.88 11.45 7.11C11.03 7.34 10.87 7.87 11.1 8.3L14.1 13.8C14.21 14.01 14.4 14.16 14.63 14.22C14.85 14.29 15.09 14.26 15.3 14.14C16.17 13.66 17.44 13.62 18.38 14.14C19.89 14.97 20.44 16.88 19.61 18.39C19.21 19.12 18.54 19.65 17.74 19.88C16.94 20.11 16.09 20.02 15.36 19.61C14.94 19.38 14.4 19.53 14.17 19.95C13.94 20.37 14.09 20.91 14.51 21.14C15.24 21.54 16.05 21.75 16.86 21.75C17.31 21.75 17.77 21.69 18.22 21.56C19.47 21.2 20.51 20.37 21.14 19.23C22.44 16.88 21.58 13.91 19.23 12.61Z" />
<path d="M6.45996 17.64C6.58996 17.71 6.73996 17.75 6.87996 17.75C7.18996 17.75 7.48996 17.58 7.64996 17.29L10.65 11.79C10.88 11.37 10.73 10.84 10.31 10.61C9.33996 10.07 8.75996 9.05 8.75996 7.88C8.75996 6.16 10.16 4.76 11.88 4.76C13.6 4.76 15 6.16 15 7.88C15 8.36 15.39 8.76 15.88 8.76C16.37 8.76 16.76 8.37 16.76 7.88C16.76 5.19 14.57 3 11.88 3C9.18996 3 6.99996 5.19 6.99996 7.88C6.99996 9.37 7.64996 10.75 8.72996 11.65L6.10996 16.46C5.87996 16.88 6.03996 17.42 6.45996 17.65V17.64Z" />
</svg>
