<?xml version="1.0" encoding="utf-8"?>
<!-- Generator: Adobe Illustrator 25.4.1, SVG Export Plug-In . SVG Version: 6.00 Build 0)  -->
<svg version="1.1" id="wexpoly" xmlns="http://www.w3.org/2000/svg" xmlns:xlink="http://www.w3.org/1999/xlink" x="0px" y="0px"
	 viewBox="0 0 500 500" style="enable-background:new 0 0 500 500;" xml:space="preserve">
<style type="text/css">
	.st0{fill:#211E1F;}
	.st1{fill:#8247E5;}
</style>
<path class="st0" d="M483.3,154.4c-7.3-8.6-16.2-15.8-26.3-21.2l-23.4,52.5c3.9,2.8,7.5,6,10.7,9.5L483.3,154.4z"/>
<path class="st1" d="M318.6,441.1c-0.5,1.7-2.2,2.7-3.9,2.2c-1.1-0.3-1.9-1.1-2.2-2.2L140.4,56.6H199c25.2,0,48,14.9,58.2,37.9
	l58.4,132.8l49.6-104.9c10.5-22.2,32.9-36.4,57.5-36.4h55.1L318.6,441.1z"/>
<path class="st0" d="M186.2,234.3l11-25.8l47.3,104.8l-58.9,125.8c-0.6,1.8-2.5,2.7-4.3,2.1c-1-0.4-1.7-1.1-2.1-2.1L1,56.8h61.8
	C88.1,57,111.2,71.7,122,94.6l60.6,132L186.2,234.3z"/>
<path class="st0" d="M429.8,224.6l-11.4-3.8c-8.2-2.8-17.1-5.1-25.3-8.5c-11.4-4.7-18.4-13.9-22.8-25.3c-7.3-19-8.5-40.8-6.6-60.7
	h-0.3c-29.4,10.4-50.9,34.2-50.9,70.5c0,42.1,26.3,64.2,63.3,76.6l16.4,5.7l13.6,4.7c16.8,5.7,25,10.7,25,21.8
	c0,14.2-12,20.2-32.3,20.2c-8.8,0.1-17.5-1.7-25.6-5.1l-23.7,52.8c16.9,5.7,34.7,8.6,52.5,8.5c67.4,0,96.5-33.8,96.5-80.3
	C497.9,266,480.8,241.7,429.8,224.6z"/>
</svg>
