<?xml version="1.0" encoding="utf-8"?>
<!-- Generator: Adobe Illustrator 25.2.1, SVG Export Plug-In . SVG Version: 6.00 Build 0)  -->
<svg version="1.1" id="whale" xmlns="http://www.w3.org/2000/svg" xmlns:xlink="http://www.w3.org/1999/xlink" x="0px" y="0px"
	 viewBox="0 0 500 500" style="enable-background:new 0 0 500 500;" xml:space="preserve">
<circle cx="250" cy="303.2" r="28.5"/>
<path d="M250,0.2h-22.6v49.7H250c90,0,166.4,59.7,191.5,141.6H0.4L0,250l0,0.2c0,137.8,112.1,250,250,250s250-112.1,250-250
	C499.9,112.3,387.8,0.2,250,0.2z M250,450.4c-110.4,0-200.2-89.8-200.3-200.2l0.1-9.1h36.8v12c0,90.1,73.3,163.5,163.5,163.5h21.9
	v-49.7H250c-62.7,0-113.8-51-113.8-113.8v-12h313.9c0.1,3,0.2,6,0.2,9C450.3,360.6,360.4,450.4,250,450.4z"/>
</svg>
