<svg width="24" height="19" viewBox="0 0 24 19" fill="currentColor" xmlns="http://www.w3.org/2000/svg">
<path d="M18.3258 4.80676H15.9096C13.7398 4.80676 11.7 5.65207 10.1978 7.18648L4.50108 12.8832C4.2998 13.0534 4.20591 13.2787 4.20591 13.519C4.20591 13.7596 4.29965 13.9862 4.46995 14.1563C4.64153 14.3264 4.86684 14.4203 5.10718 14.4203C5.34752 14.4203 5.57434 14.3265 5.74445 14.1562L11.4412 8.45948C12.6328 7.26647 14.2213 6.60929 15.9111 6.60929H18.3258C20.479 6.60929 22.1975 8.36113 22.1975 10.5148V14.1199C22.1975 15.6107 20.9845 16.8237 19.4937 16.8237H6.16617C3.75904 16.8237 1.80253 14.8672 1.80253 12.46C1.80253 11.4198 2.17573 10.4115 2.85326 9.62065L4.64491 7.53046L6.9867 8.36864C7.12752 8.40056 7.22516 8.41183 7.32655 8.41183C7.72236 8.41183 8.11066 8.25077 8.39155 7.96983L10.5516 5.8098C10.7852 5.57284 10.8715 5.22735 10.7739 4.90815C10.68 4.58895 10.4134 4.35237 10.0867 4.28478L7.13879 3.67755L6.53043 0.726271C6.44782 0.306581 6.07229 0 5.64043 0C5.40009 0 5.17478 0.0939571 5.00579 0.26456L2.84538 2.42478C2.48686 2.78338 2.33278 3.29263 2.43342 3.7872L3.32906 6.29761L1.48409 8.44938C0.527241 9.56545 0 10.9902 0 12.46C7.51056e-05 15.8623 2.76539 18.6262 6.16617 18.6262H19.4937C21.9785 18.6262 24 16.6047 24 14.1199V10.5148C24 7.36786 21.4727 4.80676 18.3258 4.80676ZM5.09967 2.7192L5.61302 5.20294L8.09601 5.71554L7.25896 6.55297L5.05085 5.76436L4.26224 3.557L5.09967 2.7192ZM15.3215 11.4161C15.3215 10.9181 14.9179 10.5148 14.4203 10.5148C13.9227 10.5148 13.519 10.9181 13.519 11.4161C13.519 11.9136 13.9227 12.3173 14.4203 12.3173C14.9179 12.3173 15.3215 11.9155 15.3215 11.4161Z" />
</svg>
