<svg width="24" height="24" viewBox="0 0 24 24" fill="none" xmlns="http://www.w3.org/2000/svg">
<path fill-rule="evenodd" clip-rule="evenodd" d="M5 4C4.73478 4 4.48043 4.10536 4.29289 4.29289C4.10536 4.48043 4 4.73478 4 5V9C4 9.55228 3.55228 10 3 10C2.44772 10 2 9.55228 2 9L2 5C2 4.20435 2.31607 3.44129 2.87868 2.87868C3.44129 2.31607 4.20435 2 5 2L19 2C19.7957 2 20.5587 2.31607 21.1213 2.87868C21.6839 3.44129 22 4.20435 22 5V9C22 9.55229 21.5523 10 21 10C20.4477 10 20 9.55229 20 9V5C20 4.73478 19.8946 4.48043 19.7071 4.29289C19.5196 4.10536 19.2652 4 19 4L5 4ZM12 8C12.5523 8 13 8.44772 13 9V18.5858L16.2929 15.2929C16.6834 14.9024 17.3166 14.9024 17.7071 15.2929C18.0976 15.6834 18.0976 16.3166 17.7071 16.7071L12.7071 21.7071C12.5196 21.8946 12.2652 22 12 22C11.7348 22 11.4804 21.8946 11.2929 21.7071L6.29289 16.7071C5.90237 16.3166 5.90237 15.6834 6.29289 15.2929C6.68342 14.9024 7.31658 14.9024 7.70711 15.2929L11 18.5858V9C11 8.44772 11.4477 8 12 8Z" fill="black"/>
</svg>
