<?xml version="1.0" encoding="utf-8"?>
<!-- Generator: Adobe Illustrator 25.2.0, SVG Export Plug-In . SVG Version: 6.00 Build 0)  -->
<svg version="1.1" id="woo" xmlns="http://www.w3.org/2000/svg" xmlns:xlink="http://www.w3.org/1999/xlink" x="0px" y="0px"
	 viewBox="0 0 500 500" style="enable-background:new 0 0 500 500;" xml:space="preserve">
<style type="text/css">
	.st0{fill:#0C1926;}
</style>
<path class="st0" d="M5.1,92.4c25,0,50.2-0.3,75.4,0.4c2.4,0.1,5.7,5.7,6.8,9.3c20.3,66.9,40.4,133.9,61.2,203.2
	c13.6-31,27-60,39-89.5c11.4-28.2,30.4-45.9,61.5-45.7c31.1,0.2,49.8,18.5,60.8,46.7c11.4,29,24,57.5,37.1,88.5
	c4.8-15.5,8.6-28.9,13.1-42.1c0.9-2.6,4.3-6.1,6.6-6.2c24.7-0.4,49.4-0.3,75.8-0.3c-5.5,18.3-10.6,35.6-15.9,52.8
	c-9.4,30.6-18.9,61.2-28.2,91.9c-4.7,15.4-14.4,23.4-31.1,23.2c-68.7-0.7-58,7.9-84.4-55.9c-11.2-27.1-22.4-54.3-34.5-83.9
	c-12.2,30-23.6,57.7-34.7,85.6c-26.1,65.6-16.7,53.5-90.7,53.1c-7.7,0-19.8-10-22.2-17.7C67.8,302.6,36.3,198.8,4.6,95.1
	C4.4,94.6,4.8,94,5.1,92.4z"/>
<path class="st0" d="M374.2,216.3c12.5-41.1,24.6-80.9,36.9-120.6c0.4-1.4,2.9-3.1,4.5-3.1c25.8-0.2,51.5-0.1,78.5-0.1
	c-12.8,40.9-25.2,80.6-37.9,120.2c-0.5,1.5-2.8,3.5-4.2,3.5C426.6,216.4,401.1,216.3,374.2,216.3z"/>
</svg>
