<?xml version="1.0" encoding="iso-8859-1"?>
<!-- Generator: Adobe Illustrator 19.0.0, SVG Export Plug-In . SVG Version: 6.00 Build 0)  -->
<svg version="1.1" id="Layer_1" xmlns="http://www.w3.org/2000/svg" xmlns:xlink="http://www.w3.org/1999/xlink" x="0px" y="0px"
	 viewBox="0 0 500 500" style="enable-background:new 0 0 500 500;" xml:space="preserve">
<g>
	<path style="fill:#FBEE06;" d="M416.932,426.421c-18.791,19.186-40.89,33.747-65.198,44.684
		c-64.154,28.866-129.349,30.576-194.686,4.551c-44.318-17.653-80.303-46.515-107.786-85.653
		C16.976,344.026,1.929,292.729,4.815,236.788c3.062-59.345,25.23-111.122,65.817-154.784c1.916-2.061,4.006-3.959,6.014-5.931
		c0.582,1.549,1.246,3.069,1.736,4.644c20.838,66.865,41.66,133.734,62.486,200.603c6.534,20.979,13.07,41.956,19.555,62.776
		c20.661,0,40.725,0,60.95,0c8.74-32.34,17.398-64.377,26.055-96.413c0.54,0.052,1.081,0.104,1.621,0.155
		c8.752,32.105,17.504,64.211,26.228,96.215c20.701,0,40.729,0,60.945,0c9.447-33.807,18.799-67.271,28.15-100.734
		c0.486,0.034,0.972,0.067,1.458,0.101C382.865,304.42,399.899,365.421,416.932,426.421z"/>
	<path style="fill:#FBEE06;" d="M116.493,44.389c10.412-8.767,22.678-14.413,34.991-19.618c63.977-27.043,128.646-27.994,192.548-1
		c63.303,26.741,108.434,72.742,132.953,137.184c28.875,75.891,20.963,148.94-20.83,218.418c-0.709,1.178-1.749,2.158-2.634,3.23
		c-0.408-0.833-0.958-1.626-1.203-2.504c-16.529-59.28-33.028-118.568-49.546-177.851c-3.47-12.453-7.004-24.888-10.4-36.946
		c-18.82,0-36.732,0-54.614,0c-11.442,39.451-21.074,78.932-33.983,119.548c-9.743-41.292-18.973-80.405-28.232-119.648
		c-18.248,0-36.15,0-54.474,0c-9.255,39.088-18.448,77.912-27.641,116.735c-0.68-0.057-1.359-0.115-2.039-0.172
		c-0.751-2.134-1.565-4.248-2.245-6.404c-8.332-26.41-16.653-52.824-24.96-79.242C148.282,145.544,132.39,94.966,116.493,44.389z"/>
	<path style="fill:#020203;" d="M116.493,44.389c15.897,50.577,31.789,101.154,47.691,151.729
		c8.307,26.418,16.628,52.832,24.96,79.242c0.68,2.156,1.494,4.271,2.245,6.404c0.68,0.057,1.359,0.115,2.039,0.172
		c9.193-38.824,18.386-77.647,27.641-116.735c18.324,0,36.225,0,54.474,0c9.26,39.243,18.489,78.356,28.232,119.648
		c12.909-40.617,22.541-80.097,33.983-119.548c17.881,0,35.793,0,54.614,0c3.396,12.058,6.931,24.493,10.4,36.946
		c16.518,59.283,33.017,118.571,49.546,177.851c0.245,0.878,0.795,1.671,1.203,2.504c-9.893,16.53-22.194,31.049-36.59,43.819
		c-17.033-61-34.066-122.001-51.099-183.001c-0.486-0.034-0.972-0.067-1.458-0.101c-9.351,33.463-18.703,66.927-28.15,100.734
		c-20.216,0-40.244,0-60.945,0c-8.724-32.004-17.476-64.109-26.228-96.215c-0.54-0.052-1.081-0.104-1.621-0.155
		c-8.658,32.037-17.316,64.074-26.055,96.413c-20.225,0-40.29,0-60.95,0c-6.486-20.819-13.022-41.797-19.555-62.776
		c-20.825-66.869-41.648-133.738-62.486-200.603c-0.491-1.575-1.155-3.095-1.736-4.644C88.566,63.796,101.35,52.609,116.493,44.389z
		"/>
</g>
</svg>
