<?xml version="1.0" encoding="iso-8859-1"?>
<!-- Generator: Adobe Illustrator 19.0.0, SVG Export Plug-In . SVG Version: 6.00 Build 0)  -->
<svg version="1.1" id="Layer_1" xmlns="http://www.w3.org/2000/svg" xmlns:xlink="http://www.w3.org/1999/xlink" x="0px" y="0px"
	 viewBox="0 0 500 500" style="enable-background:new 0 0 500 500;" xml:space="preserve">
<g>
	<path style="fill:#8202FC;" d="M495.025,207.802c0,29.754,0.055,59.508-0.023,89.261c-0.04,15.453-3.46,19.487-18.567,23.16
		c-23.717,5.767-47.419,11.601-71.109,17.478c-18.274,4.533-26.129-1.344-26.135-19.779c-0.019-60.208-0.021-120.415-0.011-180.623
		c0.003-14.918,2.954-18.372,17.994-22.078c24.702-6.087,49.378-12.282,74.052-18.483c14.39-3.616,23.507,2.776,23.649,17.603
		c0.299,31.151,0.091,62.307,0.091,93.461C494.987,207.802,495.006,207.802,495.025,207.802z"/>
	<path style="fill:#8202FC;" d="M306.085,173.806c-3.547,0.813-5.902,1.335-8.248,1.893c-20.385,4.852-29.664,16.132-29.794,37.158
		c-0.205,33.278-0.08,66.557-0.095,99.836c-0.002,3.813,0,7.626,0,12.356c-19.701,4.737-38.851,9.996-58.289,13.773
		c-11.933,2.318-19.444-4.943-19.471-17.335c-0.135-62.353-0.03-124.707-0.111-187.061c-0.013-10.333,4.918-16.228,14.791-18.66
		c26.409-6.505,52.766-13.224,79.179-19.711c11.661-2.864,21.502,3.845,21.871,15.974
		C306.532,132.295,306.085,152.594,306.085,173.806z"/>
	<path style="fill:#8202FC;" d="M122.728,172.085c-5.268,1.437-9.907,2.805-14.597,3.964c-20.004,4.946-28.666,15.598-28.841,36.709
		c-0.241,29.069-0.065,58.141-0.068,87.212c-0.001,8.372,0,16.743,0,26.277c-18.172,4.368-35.883,9.298-53.881,12.706
		c-11.403,2.159-19.162-4.939-19.202-16.659c-0.214-63.044-0.132-126.09-0.077-189.135c0.008-9.403,5.31-14.917,14.08-17.145
		c27.013-6.863,54.022-13.748,81.114-20.289c11.648-2.812,21.092,5.678,21.377,19.398
		C123.017,133.667,122.728,152.224,122.728,172.085z"/>
	<path style="fill:#05FCDA;" d="M399.998,357.393c1.821,34.875,1.008,35.758-35.401,43.994
		c-17.014,3.848-33.974,7.953-50.889,12.214c-21.215,5.344-29.336-0.865-29.339-22.998c-0.01-58.459,0.027-116.918,0.074-175.377
		c0.013-16.458,2.64-19.725,18.88-23.825c18.936-4.781,37.877-9.541,56.5-14.23c3.857,3.791,2.789,7.835,2.797,11.465
		c0.09,39.906,0.139,79.813,0.019,119.72C362.535,342.794,367.291,349.267,399.998,357.393z"/>
	<path style="fill:#05FCDA;" d="M172.465,178.738c1.994,6.413,1.053,12.707,1.067,18.935c0.089,40.288,0.166,80.576,0.247,120.864
		c0.046,23.022,10.263,34.436,33.517,37.486c0.988,0.13,1.936,0.558,3.985,1.172c0,8.123,0.683,16.496-0.213,24.698
		c-0.737,6.756-5.766,11.067-12.384,12.777c-20.968,5.419-41.97,10.712-62.975,15.988c-6.433,1.616-12.85,3.556-19.397,4.407
		c-13.206,1.717-20.669-4.813-21.044-18.239c-0.313-11.202-0.056-22.42-0.054-33.631c0.01-50.098,0.346-100.201-0.22-150.293
		c-0.127-11.244,4.969-17.623,14.245-20.216c19.502-5.451,39.35-9.667,59.078-14.298
		C169.565,178.096,170.997,178.595,172.465,178.738z"/>
</g>
</svg>
