<?xml version="1.0" encoding="utf-8"?>
<!-- Generator: Adobe Illustrator 24.1.0, SVG Export Plug-In . SVG Version: 6.00 Build 0)  -->
<svg version="1.1" id="WXT" xmlns="http://www.w3.org/2000/svg" xmlns:xlink="http://www.w3.org/1999/xlink" x="0px" y="0px"
	 viewBox="0 0 500 500" style="enable-background:new 0 0 500 500;" xml:space="preserve">
<style type="text/css">
	.st0{fill:#053F33;}
</style>
<path class="st0" d="M429.9,103l-41.7,145.5c-5.5,19-9.8,38.3-13.1,57.9c0,0.1,0,0.3,0,0.3h-1.3c-1.1-10.9-4.1-21.8-5.9-31L322,103
	h-94l-45.7,172.6c-1.8,9.2-4.8,20.1-5.9,31h-1.3c0-0.1,0-0.3,0-0.3c-3.2-19.6-7.6-38.9-13.1-57.9L120.5,103H53.9l19.5,68.4h-71v49
	h84.9l13.9,48.7H2.5v49.1h112.7l22.3,78.5H217l53.8-205.7c1.7-7.6,3.2-15.9,3.7-21.8h1.3c0.4,5.7,2,14.1,3.7,21.8l53.8,205.7h79.5
	L496.5,103H429.9z"/>
</svg>
