<?xml version="1.0" encoding="utf-8"?>
<!-- Generator: Adobe Illustrator 23.0.4, SVG Export Plug-In . SVG Version: 6.00 Build 0)  -->
<svg version="1.1" id="XAS" xmlns="http://www.w3.org/2000/svg" xmlns:xlink="http://www.w3.org/1999/xlink" x="0px" y="0px"
	 viewBox="0 0 500 500" style="enable-background:new 0 0 500 500;" xml:space="preserve">
<style type="text/css">
	.st0{fill:url(#SVGID_1_);}
</style>
<linearGradient id="SVGID_1_" gradientUnits="userSpaceOnUse" x1="3.1666" y1="250.9816" x2="497.5671" y2="250.9816">
	<stop  offset="0" style="stop-color:#EEB80B"/>
	<stop  offset="1" style="stop-color:#EA5811"/>
</linearGradient>
<path class="st0" d="M484.8,156.5L410.2,35l-10.2-16.6h-19.4H120.8h-19.3L91.4,34.9L16.1,156.4l-13,20.9l15.5,19.1l205.2,253.7
	l27,33.4l27-33.4l204.5-253.7l15.3-19L484.8,156.5z M449.9,166H336.3L272.2,53.1h108.5L449.9,166z M296.4,166h-91.9l46.4-80.2
	L296.4,166z M120.8,53.1h108.9L164.4,166H51L120.8,53.1z M144.4,200.6L112,256.7l-45.3-56.1H144.4z M250.8,428.3L135.3,285.6
	l49.1-84.9h131.6l48.8,86L250.8,428.3z M356,200.6h78.3l-45.9,57L356,200.6z M455.2,174.6L455.2,174.6L455.2,174.6L455.2,174.6z"/>
</svg>
