<?xml version="1.0" encoding="iso-8859-1"?>
<!-- Generator: Adobe Illustrator 19.0.0, SVG Export Plug-In . SVG Version: 6.00 Build 0)  -->
<svg version="1.1" id="Layer_1" xmlns="http://www.w3.org/2000/svg" xmlns:xlink="http://www.w3.org/1999/xlink" x="0px" y="0px"
	 viewBox="1000 -1000 2500 2500" style="enable-background:new 1000 -1000 2500 2500;" xml:space="preserve">
<path d="M2250.584,1466.993l-14.044-7.022c-547.706-320.665-961.996-849.646-1130.521-1481.615
	c-26.917-99.477-46.812-201.294-60.856-304.281c-12.874-102.987-19.895-207.145-21.066-311.303c0-17.555-2.341-15.214,14.044-23.406
	c205.975-117.031,423.653-202.464,654.204-256.298c85.433-19.895,170.866-35.109,257.469-45.642
	c119.372-14.044,238.744-19.895,359.286-17.555c67.878,1.17,134.586,5.852,201.294,12.873
	c335.879,36.28,650.693,136.927,945.612,301.94c4.681,2.341,8.192,4.681,12.874,7.022c4.681,2.341,7.022,5.852,7.022,11.703v17.555
	c-1.17,60.856-3.511,120.542-8.192,181.398c-7.022,86.603-18.725,172.036-35.109,257.469
	c-35.109,183.739-90.114,360.456-166.184,530.151c-120.542,270.342-285.556,511.426-493.871,722.082
	c-149.8,152.141-317.155,283.215-502.064,392.054C2263.458,1458.801,2257.606,1462.312,2250.584,1466.993L2250.584,1466.993z
	 M1136.447-577.542v14.044c0,85.433,5.852,172.036,16.384,256.298c9.363,77.241,22.236,153.311,39.791,229.381
	c3.511,12.873,7.022,25.747,12.873,38.62c105.328,223.53,348.753,342.901,589.837,287.897
	c183.739-42.131,333.539-183.739,383.862-365.137c14.044-50.323,18.725-101.817,21.066-153.311
	c1.17-33.939,4.681-67.878,10.533-101.817c39.791-205.975,176.717-375.67,369.818-456.422c10.533-4.681,22.236-8.192,32.769-12.873
	c1.17-1.17,3.511-1.17,3.511-3.511c-30.428-10.533-211.826-29.258-320.665-31.598c-234.062-4.681-463.444,25.747-686.973,93.625
	C1443.069-732.023,1286.247-664.145,1136.447-577.542L1136.447-577.542z M2862.657,824.492c5.852-3.511,9.363-8.192,11.703-11.703
	c46.812-58.516,91.284-119.372,132.245-182.569c146.289-227.041,249.277-471.636,306.622-736.126
	c19.895-90.114,32.769-180.228,40.961-271.512c5.852-62.027,8.192-124.053,8.192-187.25c0-4.681,0-8.192-1.17-12.873l-17.555-10.533
	c-47.983-26.917-97.136-52.664-146.289-76.07c-72.559-33.939-145.119-64.367-221.189-88.944
	c-92.454-29.258-186.079-32.769-279.704-9.362c-268.001,64.367-440.037,327.687-388.543,598.029
	c28.087,149.8,108.839,266.831,237.573,348.753c8.192,5.852,17.555,10.533,25.747,16.384
	c94.795,57.345,168.525,135.756,221.189,232.892c56.175,101.817,80.751,211.827,73.73,327.687
	C2867.338,781.19,2864.998,802.256,2862.657,824.492L2862.657,824.492z M2250.584,1347.621c4.681-2.341,10.533-5.852,15.214-9.363
	c147.459-86.603,283.215-189.59,407.269-306.622c8.192-7.022,14.044-16.384,18.725-25.747c8.192-15.214,16.384-31.598,23.406-46.812
	c58.516-121.712,71.389-248.106,32.769-379.181c-76.07-252.787-319.495-397.906-564.09-367.478
	c-70.219,8.192-134.586,30.428-195.442,65.537c-115.861,65.537-239.914,92.455-373.329,79.581
	c-65.537-5.852-127.564-23.406-187.25-49.153c-46.812-21.066-91.284-46.812-131.075-78.411c-2.341-2.341-5.852-3.511-11.703-7.022
	c1.17,5.852,2.341,9.363,3.511,11.703c52.664,133.416,117.031,259.809,193.101,380.351
	c83.092,129.905,177.887,250.447,285.556,360.456c107.669,110.009,225.87,208.316,353.434,293.748
	C2179.195,1306.661,2234.2,1340.6,2250.584,1347.621L2250.584,1347.621z"/>
<path style="fill:#F7A800;" d="M1136.447-577.542c149.8-86.603,306.622-154.481,471.636-203.634
	c224.7-66.708,452.911-98.306,686.973-93.625c108.839,2.341,290.237,19.895,320.665,31.598c1.17,2.341-1.17,3.511-3.511,3.511
	c-10.533,4.681-22.236,8.192-32.769,12.873c-193.102,80.752-330.028,250.447-369.819,456.422
	c-5.852,33.939-9.363,67.878-10.533,101.817c-1.17,51.494-5.852,102.987-21.065,153.311
	c-51.494,181.398-200.123,323.006-383.862,365.137c-241.084,55.005-484.509-64.367-589.837-287.897
	c-5.852-12.873-10.533-25.747-12.873-38.62c-17.555-76.07-30.428-152.141-39.791-229.381
	c-10.533-85.433-16.384-170.866-16.384-256.298C1136.447-568.179,1136.447-571.69,1136.447-577.542L1136.447-577.542z"/>
<path style="fill:#67B2E8;" d="M2862.657,824.492c2.341-22.236,4.681-42.131,5.852-63.197
	c5.852-115.861-18.725-225.87-73.73-327.687c-52.664-97.136-126.394-174.376-221.189-232.892
	c-8.192-5.852-17.555-10.533-25.747-16.384c-129.905-81.922-209.486-197.783-237.573-348.753
	c-50.323-271.512,120.542-533.662,388.543-598.029c94.795-22.236,187.25-19.895,279.705,9.362
	c76.07,23.406,148.629,55.005,221.189,88.944c50.323,23.406,98.306,49.153,146.289,76.07c5.852,3.511,10.533,5.852,17.555,10.533
	c0,4.681,1.17,8.192,1.17,12.873c0,62.027-3.511,125.223-8.192,187.25c-8.192,91.284-22.236,182.569-40.961,271.512
	c-57.345,264.49-159.163,509.086-306.622,736.126c-40.961,63.197-85.433,124.053-132.245,182.569
	C2872.02,816.3,2869.679,820.981,2862.657,824.492z"/>
<path style="fill:#00C4B3;" d="M2250.584,1347.621c-17.555-7.022-71.389-39.791-128.734-78.411
	c-127.564-85.433-245.765-183.739-353.434-293.748s-203.634-230.551-285.556-360.456
	c-77.241-120.542-141.608-246.936-193.101-380.351c-1.17-3.511-2.341-5.852-3.511-11.703c5.852,3.511,8.192,4.681,11.703,7.022
	c40.961,31.598,84.262,58.516,131.075,78.411c59.686,25.747,121.712,43.302,187.25,49.153
	c132.245,12.873,256.298-14.044,373.329-79.581c60.856-33.939,126.394-56.175,195.442-65.537
	c244.595-30.428,488.02,114.691,564.09,367.478c38.62,129.905,26.917,256.298-32.769,379.181
	c-8.192,16.384-15.214,31.598-23.406,46.812c-4.681,9.362-10.533,18.725-18.725,25.747
	c-124.053,117.031-259.809,220.019-407.269,306.622C2261.117,1341.769,2255.265,1345.28,2250.584,1347.621L2250.584,1347.621z"/>
</svg>
