<?xml version="1.0" encoding="utf-8"?>
<!-- Generator: Adobe Illustrator 23.0.2, SVG Export Plug-In . SVG Version: 6.00 Build 0)  -->
<svg version="1.1" id="XIN" xmlns="http://www.w3.org/2000/svg" xmlns:xlink="http://www.w3.org/1999/xlink" x="0px" y="0px"
	 viewBox="0 0 500 500" style="enable-background:new 0 0 500 500;" xml:space="preserve">
<style type="text/css">
	.st0{fill:url(#SVGID_1_);}
	.st1{fill:url(#SVGID_2_);}
	.st2{fill:url(#SVGID_3_);}
</style>
<linearGradient id="SVGID_1_" gradientUnits="userSpaceOnUse" x1="58.0955" y1="58.9679" x2="58.0955" y2="445.1097">
	<stop  offset="0" style="stop-color:#42C0EF"/>
	<stop  offset="1" style="stop-color:#4B69B2"/>
</linearGradient>
<path class="st0" d="M101.6,97.1L22.9,60.7c-6.1-2.7-13,1.8-12.9,8.5L9.1,433.6c0.1,6.9,7.4,11.3,13.5,8l79.6-42.3
	c3-1.6,4.9-4.7,4.9-8.1V105.5C107.1,101.9,104.9,98.6,101.6,97.1z"/>
<linearGradient id="SVGID_2_" gradientUnits="userSpaceOnUse" x1="441.429" y1="58.9679" x2="441.429" y2="445.1097">
	<stop  offset="0" style="stop-color:#42C0EF"/>
	<stop  offset="1" style="stop-color:#4B69B2"/>
</linearGradient>
<path class="st1" d="M479.2,60.7l-83,36.4c-3.3,1.5-5.5,4.8-5.5,8.4v291.3c0,3.4,1.9,6.5,4.9,8.1l79.6,36.7c6.1,3.2,13.5-1.1,13.5-8
	l3.4-364.4C492.2,62.5,485.3,58,479.2,60.7z"/>
<linearGradient id="SVGID_3_" gradientUnits="userSpaceOnUse" x1="251.9754" y1="58.9679" x2="251.9754" y2="445.1097">
	<stop  offset="0" style="stop-color:#42C0EF"/>
	<stop  offset="1" style="stop-color:#4B69B2"/>
</linearGradient>
<path class="st2" d="M340.9,191.9l-80.3-47.5c-5.3-3.1-11.9-3.1-17.3,0L163,191.9c-5.2,3.1-8.3,8.6-8.3,14.6v95.8
	c0,6,3.2,11.5,8.3,14.6l80.3,47.5c5.3,3.1,11.9,3.1,17.3,0l80.3-47.5c5.2-3.1,8.3-8.6,8.3-14.6v-95.8
	C349.2,200.5,346.1,195,340.9,191.9z"/>
</svg>
