<?xml version="1.0" encoding="utf-8"?>
<!-- Generator: Adobe Illustrator 23.0.2, SVG Export Plug-In . SVG Version: 6.00 Build 0)  -->
<svg version="1.1" id="XLM" xmlns="http://www.w3.org/2000/svg" xmlns:xlink="http://www.w3.org/1999/xlink" x="0px" y="0px"
	 viewBox="0 0 500 500" style="enable-background:new 0 0 500 500;" xml:space="preserve">
<path d="M3.1,354.4c0-15.1,0-28.1,0-41.7c3.6-1.9,7.2-4.2,11.1-5.9c19.7-8.5,28.2-23,27-44.8c-2.3-40.6,6.9-79,27.9-113.9
	C104.1,90,155.7,56.3,223,47c53.9-7.5,102.6,6.2,149.5,37.1c-13.8,7-26,13.2-38.2,19.4c-73.7-34.2-141.9-28.1-203.3,27
	c-43.9,39.4-59.1,107.3-49,142.1C219.7,203.3,357.2,134,495.9,64.3c0,14.6,0,27.8,0,42C332.5,188.6,168.6,271.1,3.1,354.4z"/>
<path d="M165.2,396.6C234.1,429,298.1,425.3,358,379c52-40.2,69.6-110.4,59.9-151.8C279.9,296.7,142.3,366,3.4,435.9
	c0-14.9,0-27.7,0-42.1c163.3-82.2,327.2-164.7,492.3-247.8c0,14.4,0,27.4,0,41.6c-2.3,1.3-5.2,3.2-8.4,4.5
	c-21.7,8.8-30.6,24.3-29.1,48.1c2.3,38.1-6.4,74.3-25.4,107.4c-36.2,62.8-90.7,98.4-163,106.2c-51.4,5.5-97.9-8-142.6-37.8
	C140.8,409,153.1,402.8,165.2,396.6z"/>
</svg>
