<?xml version="1.0" encoding="utf-8"?>
<!-- Generator: Adobe Illustrator 25.1.0, SVG Export Plug-In . SVG Version: 6.00 Build 0)  -->
<svg version="1.1" id="xlq" xmlns="http://www.w3.org/2000/svg" xmlns:xlink="http://www.w3.org/1999/xlink" x="0px" y="0px"
	 viewBox="0 0 500 500" style="enable-background:new 0 0 500 500;" xml:space="preserve">
<style type="text/css">
	.st0{fill-rule:evenodd;clip-rule:evenodd;fill:url(#SVGID_1_);}
	.st1{fill-rule:evenodd;clip-rule:evenodd;fill:url(#SVGID_2_);}
	.st2{fill-rule:evenodd;clip-rule:evenodd;fill:url(#SVGID_3_);}
	.st3{fill-rule:evenodd;clip-rule:evenodd;fill:url(#SVGID_4_);}
	.st4{fill-rule:evenodd;clip-rule:evenodd;fill:url(#SVGID_5_);}
</style>
<linearGradient id="SVGID_1_" gradientUnits="userSpaceOnUse" x1="142.0334" y1="330.9608" x2="365.8149" y2="237.2059" gradientTransform="matrix(1 0 0 -1 0 502.36)">
	<stop  offset="0" style="stop-color:#5F6DED"/>
	<stop  offset="1" style="stop-color:#49B9D9"/>
</linearGradient>
<path class="st0" d="M179.5,64.6L53.1,295.9c-7.9,15.4-1.8,34.3,13.6,42.2c2.4,1.2,5,2.2,7.6,2.7c44,10.4,128-15.4,196.5,10.4
	S371,429.8,412.5,457.8c9.3,6.7,20.4,10.3,31.8,10.4h0.2c2.4,0,4.6-0.1,6.8-0.4l0,0c10.6-1.3,20.6-5.7,28.7-12.6
	c4.6-4,8.5-8.8,11.6-14.1c10.2-16.7,10.6-37.5,1-54.5l-176-321.8c-20.7-37.8-68.2-51.7-106-31C197.4,40.8,186.6,51.5,179.5,64.6z"/>
<linearGradient id="SVGID_2_" gradientUnits="userSpaceOnUse" x1="21.9081" y1="84.5916" x2="92.7192" y2="98.2023" gradientTransform="matrix(1 0 0 -1 0 502.36)">
	<stop  offset="0" style="stop-color:#5F6EED"/>
	<stop  offset="1" style="stop-color:#45C8D4"/>
</linearGradient>
<path class="st1" d="M94.9,385.8c-14.5-23.8-45.5-31.4-69.4-16.9C1.7,383.4-5.9,414.4,8.6,438.3C23,462,53.9,469.6,77.7,455.3
	C101.6,441,109.4,409.9,95,386C95,386,94.9,385.9,94.9,385.8z"/>
<linearGradient id="SVGID_3_" gradientUnits="userSpaceOnUse" x1="20.9957" y1="79.2241" x2="85.408" y2="94.6024" gradientTransform="matrix(1 0 0 -1 0 502.36)">
	<stop  offset="0" style="stop-color:#578BE5"/>
	<stop  offset="1" style="stop-color:#43CED3"/>
</linearGradient>
<path class="st2" d="M102.2,412.6c-0.4,27.9-23.3,50.2-51.2,49.8C23,462,0.7,439.1,1.1,411.2c0.2-13.1,5.4-25.5,14.6-34.8
	c-13.1,23.4-5.3,42.4,4.1,49.5C34.3,437,70.2,434.7,102.2,412.6z"/>
<linearGradient id="SVGID_4_" gradientUnits="userSpaceOnUse" x1="104.2886" y1="250.471" x2="479.3083" y2="146.1456" gradientTransform="matrix(1 0 0 -1 0 502.36)">
	<stop  offset="0" style="stop-color:#5788E6"/>
	<stop  offset="1" style="stop-color:#3FDDCF"/>
</linearGradient>
<path class="st3" d="M90.3,299.1c-10.8,2.9-22-3.6-24.9-14.4c-0.5-1.7-0.7-3.5-0.7-5.2c0-2.6,0.5-5.1,1.4-7.5l-13.1,23.9
	c-7.9,15.4-1.8,34.3,13.7,42.2c2.4,1.2,4.9,2.1,7.6,2.7c44,10.4,128-15.4,196.5,10.4c95.5,35.9,120.6,123.1,180.7,116.7
	c30.2-3.9,51.5-31.5,47.6-61.6c-0.9-6.9-3.1-13.6-6.4-19.7l-80.4-146.5c-34.2-62.6-124-49.1-179.1-24.7S116.2,291.3,90.3,299.1z"/>
<linearGradient id="SVGID_5_" gradientUnits="userSpaceOnUse" x1="408.6831" y1="122.1722" x2="94.1516" y2="214.407" gradientTransform="matrix(1 0 0 -1 0 502.36)">
	<stop  offset="0" style="stop-color:#4452CF"/>
	<stop  offset="1" style="stop-color:#0BD3B9"/>
</linearGradient>
<path class="st4" d="M60.4,282.4l-7.4,13.5c-7.9,15.4-1.8,34.3,13.6,42.2c2.4,1.2,5,2.2,7.6,2.7c44,10.4,128-15.4,196.5,10.4
	c63.6,23.9,95.5,71.2,132.9,100.3c5.4,5,12.5,7.7,19.9,7.7c15.9,0,28.8-12.9,28.8-28.8c0-10.6-7.7-21.8-12.8-31
	C332.1,205.4,218.1,275,88.7,318.1c-2.1,0.7-4.4,1-6.6,0.9c-13.7-0.1-24.7-11.2-24.7-24.8C57.5,290.1,58.5,286,60.4,282.4
	L60.4,282.4z"/>
</svg>
