<?xml version="1.0" encoding="utf-8"?>
<!-- Generator: Adobe Illustrator 23.0.4, SVG Export Plug-In . SVG Version: 6.00 Build 0)  -->
<svg version="1.1" id="xmx" xmlns="http://www.w3.org/2000/svg" xmlns:xlink="http://www.w3.org/1999/xlink" x="0px" y="0px"
	 viewBox="0 0 500 500" style="enable-background:new 0 0 500 500;" xml:space="preserve">
<style type="text/css">
	.st0{fill:#56B3ED;}
	.st1{fill:#6835CF;}
</style>
<polygon class="st0" points="484.4,497.9 249.5,441.3 249.5,414.4 484.4,471.3 "/>
<polygon class="st0" points="484.4,441.3 249.5,384.7 249.5,357.8 484.4,414.7 "/>
<polygon class="st0" points="484.4,383.7 249.5,327 249.5,300.1 484.4,357.1 "/>
<polygon class="st0" points="248.7,200.4 13.8,143.8 13.8,116.9 248.7,173.8 "/>
<polygon class="st0" points="248.7,143.8 13.8,87.1 13.8,60.3 248.7,117.2 "/>
<polygon class="st0" points="248.7,86.1 13.8,29.5 13.8,2.6 248.7,59.5 "/>
<polygon class="st1" points="13.2,315 13.5,284.3 484.6,57.7 484.6,88.2 "/>
<polygon class="st1" points="13.2,379.7 13.5,349 484.6,122.4 484.6,152.8 "/>
<polygon class="st1" points="13.2,443.1 13.5,412.3 484.6,185.7 484.6,216.2 "/>
</svg>
