<?xml version="1.0" encoding="utf-8"?>
<!-- Generator: Adobe Illustrator 23.0.3, SVG Export Plug-In . SVG Version: 6.00 Build 0)  -->
<svg version="1.1" id="xnk" xmlns="http://www.w3.org/2000/svg" xmlns:xlink="http://www.w3.org/1999/xlink" x="0px" y="0px"
	 viewBox="0 0 500 500" style="enable-background:new 0 0 500 500;" xml:space="preserve">
<style type="text/css">
	.st0{fill:#3C82B4;}
	.st1{fill:#2D4B69;}
	.st2{fill:#142846;}
	.st3{fill:#1E3C64;}
</style>
<path class="st0" d="M258.3,2.8v223.3c16.4,3.4,28.8,18,28.8,35.4c0,20-16.2,36.2-36.2,36.2c-20,0-36.2-16.2-36.2-36.2
	c0-17.4,12.3-31.9,28.7-35.4V2.8l-218.3,361l226.8,132.7l223.8-132.7L258.3,2.8z"/>
<path class="st0" d="M214.8,261.5c0-17.4,12.3-31.9,28.7-35.4V2.8l-218.3,361l192.8-87.5C215.9,271.8,214.8,266.8,214.8,261.5z"/>
<path class="st1" d="M250.9,297.6c-14.7,0-27.3-8.8-33-21.4L25.1,363.8l226.8,132.7l-0.8-198.9C251,297.6,251,297.6,250.9,297.6z"/>
<path class="st2" d="M283.9,276.3c-5.6,12.6-18.2,21.3-32.9,21.4l0.8,198.9l223.8-132.7L283.9,276.3z"/>
<path class="st3" d="M258.3,2.8v223.3c16.4,3.4,28.8,18,28.8,35.4c0,5.3-1.1,10.3-3.2,14.8l191.7,87.6L258.3,2.8z"/>
</svg>
