<?xml version="1.0" encoding="utf-8"?>
<!-- Generator: Adobe Illustrator 24.1.0, SVG Export Plug-In . SVG Version: 6.00 Build 0)  -->
<svg version="1.1" id="XNS" xmlns="http://www.w3.org/2000/svg" xmlns:xlink="http://www.w3.org/1999/xlink" x="0px" y="0px"
	 viewBox="0 0 500 500" style="enable-background:new 0 0 500 500;" xml:space="preserve">
<style type="text/css">
	.st0{fill:url(#SVGID_1_);}
	.st1{fill:url(#SVGID_2_);}
	.st2{fill:url(#SVGID_3_);}
	.st3{fill:url(#SVGID_4_);}
	.st4{fill:url(#SVGID_5_);}
	.st5{fill:url(#SVGID_6_);}
	.st6{fill:#BE5095;}
	.st7{fill:url(#SVGID_7_);}
	.st8{fill:url(#SVGID_8_);}
	.st9{fill:url(#SVGID_9_);}
	.st10{fill:url(#SVGID_10_);}
	.st11{fill:url(#SVGID_11_);}
	.st12{fill:#BD687B;}
	.st13{fill:url(#SVGID_12_);}
	.st14{fill:#AC5E90;}
	.st15{fill:#C85C7F;}
</style>
<linearGradient id="SVGID_1_" gradientUnits="userSpaceOnUse" x1="83.2251" y1="83.9019" x2="2.4105" y2="7.6006" gradientTransform="matrix(1 0 0 -1 0 502)">
	<stop  offset="0" style="stop-color:#C27E64"/>
	<stop  offset="1" style="stop-color:#CD8D56"/>
</linearGradient>
<path class="st0" d="M4.6,478.7v18h18.1l58.3-63v-18H62.9L4.6,478.7z"/>
<linearGradient id="SVGID_2_" gradientUnits="userSpaceOnUse" x1="207.0701" y1="66.7481" x2="144.8663" y2="19.5456" gradientTransform="matrix(1 0 0 -1 0 502)">
	<stop  offset="0" style="stop-color:#CB7365"/>
	<stop  offset="1" style="stop-color:#D57D56"/>
</linearGradient>
<path class="st1" d="M174.4,496.7l28.7-63.5v-17.5h-18.7l-28.7,63.5v17.5H174.4z"/>
<linearGradient id="SVGID_3_" gradientUnits="userSpaceOnUse" x1="430.6559" y1="213.6383" x2="481.0684" y2="148.308" gradientTransform="matrix(1 0 0 -1 0 502)">
	<stop  offset="0" style="stop-color:#D75080"/>
	<stop  offset="1" style="stop-color:#E34B76"/>
</linearGradient>
<path class="st2" d="M497.1,349.2v-18.6L436,297.8h-17.6v18.6l61.1,32.8H497.1z"/>
<linearGradient id="SVGID_4_" gradientUnits="userSpaceOnUse" x1="432.9246" y1="294.1762" x2="484.6253" y2="361.967" gradientTransform="matrix(1 0 0 -1 0 502)">
	<stop  offset="0" style="stop-color:#CF4794"/>
	<stop  offset="1" style="stop-color:#D739A3"/>
</linearGradient>
<path class="st3" d="M497.1,168.1v-18.6h-17.6l-61.1,32.8V201H436L497.1,168.1z"/>
<linearGradient id="SVGID_5_" gradientUnits="userSpaceOnUse" x1="144.2932" y1="482.8041" x2="210.6685" y2="438.7934" gradientTransform="matrix(1 0 0 -1 0 502)">
	<stop  offset="0" style="stop-color:#8554B2"/>
	<stop  offset="1" style="stop-color:#9C55A5"/>
</linearGradient>
<path class="st4" d="M155.7,2v17.5l28.7,63.5h18.7V65.5L174.4,2H155.7z"/>
<linearGradient id="SVGID_6_" gradientUnits="userSpaceOnUse" x1="417.7815" y1="422.8335" x2="497.0517" y2="497.6751" gradientTransform="matrix(1 0 0 -1 0 502)">
	<stop  offset="0" style="stop-color:#C43CAE"/>
	<stop  offset="1" style="stop-color:#CD2CC3"/>
</linearGradient>
<path class="st5" d="M494.9,20V2h-18.1l-58.3,63v18h18.1L494.9,20z"/>
<path class="st6" d="M322.2,173.6h-27.3v27.3h27.3V173.6z"/>
<linearGradient id="SVGID_7_" gradientUnits="userSpaceOnUse" x1="286.913" y1="70.0351" x2="348.6223" y2="24.8457" gradientTransform="matrix(1 0 0 -1 0 502)">
	<stop  offset="0" style="stop-color:#D66766"/>
	<stop  offset="1" style="stop-color:#E26A55"/>
</linearGradient>
<path class="st7" d="M296.4,415.8v17.5l28.7,63.5h18.7v-17.5l-28.7-63.5H296.4z"/>
<linearGradient id="SVGID_8_" gradientUnits="userSpaceOnUse" x1="285.2038" y1="434.7631" x2="349.4115" y2="480.363" gradientTransform="matrix(1 0 0 -1 0 502)">
	<stop  offset="0" style="stop-color:#AD4AA9"/>
	<stop  offset="1" style="stop-color:#AD3EBB"/>
</linearGradient>
<path class="st8" d="M343.8,2h-18.7l-28.7,63.5v17.5h18.7l28.7-63.5V2z"/>
<linearGradient id="SVGID_9_" gradientUnits="userSpaceOnUse" x1="416.2386" y1="83.9019" x2="497.0535" y2="7.6005" gradientTransform="matrix(1 0 0 -1 0 502)">
	<stop  offset="0" style="stop-color:#E15A68"/>
	<stop  offset="1" style="stop-color:#EB5A55"/>
</linearGradient>
<path class="st9" d="M494.9,496.7v-18l-58.3-63h-18.1v18l58.3,63H494.9z"/>
<linearGradient id="SVGID_10_" gradientUnits="userSpaceOnUse" x1="69.2517" y1="213.4893" x2="18.4141" y2="148.9163" gradientTransform="matrix(1 0 0 -1 0 502)">
	<stop  offset="0" style="stop-color:#AC757A"/>
	<stop  offset="1" style="stop-color:#AC8270"/>
</linearGradient>
<path class="st10" d="M2.4,330.6v18.6H20L81,316.4v-18.6H63.5L2.4,330.6z"/>
<linearGradient id="SVGID_11_" gradientUnits="userSpaceOnUse" x1="2.4133" y1="497.6756" x2="82.965" y2="421.6242" gradientTransform="matrix(1 0 0 -1 0 502)">
	<stop  offset="0" style="stop-color:#6466AA"/>
	<stop  offset="1" style="stop-color:#8563A1"/>
</linearGradient>
<path class="st11" d="M4.6,2v18l58.3,63H81V65L22.7,2L4.6,2z"/>
<path class="st12" d="M177.3,325.1h27.3v-27.3h-27.3V325.1z"/>
<linearGradient id="SVGID_12_" gradientUnits="userSpaceOnUse" x1="15.6623" y1="361.0071" x2="65.0191" y2="296.0912" gradientTransform="matrix(1 0 0 -1 0 502)">
	<stop  offset="0" style="stop-color:#857390"/>
	<stop  offset="1" style="stop-color:#986C8D"/>
</linearGradient>
<path class="st13" d="M2.4,149.5v18.6L63.5,201H81v-18.6L20,149.5H2.4z"/>
<path class="st14" d="M177.3,200.9h27.3v-27.3h-27.3V200.9z"/>
<path class="st15" d="M322.2,297.8h-27.3v27.3h27.3V297.8z"/>
</svg>
