<?xml version="1.0" encoding="utf-8"?>
<!-- Generator: Adobe Illustrator 25.2.0, SVG Export Plug-In . SVG Version: 6.00 Build 0)  -->
<svg version="1.1" id="xor" xmlns="http://www.w3.org/2000/svg" xmlns:xlink="http://www.w3.org/1999/xlink" x="0px" y="0px"
	 viewBox="0 0 500 500" style="enable-background:new 0 0 500 500;" xml:space="preserve">
<style type="text/css">
	.st0{fill:#E3232C;}
</style>
<path class="st0" d="M133.1,466.5c34.8,18.9,74.5,29.5,116.6,29.5s81.9-10.6,116.6-29.5L249.8,292.7L133.1,466.5z"/>
<path class="st0" d="M100.1,250.8v-40.4h129.7v-41.3H100.1v-40.2h299.5v40.2H270v41.5h129.7v40.2H270l130.1,193.7
	c57.6-44.7,94.7-114.9,94.7-193.5c0-135.3-109.7-245-245-245S4.8,115.7,4.8,251c0,78.6,37.1,148.6,94.7,193.5l130.1-193.7
	C229.6,250.8,100.1,250.8,100.1,250.8z"/>
</svg>
