<?xml version="1.0" encoding="utf-8"?>
<!-- Generator: Adobe Illustrator 26.0.2, SVG Export Plug-In . SVG Version: 6.00 Build 0)  -->
<svg version="1.1" id="xrd" xmlns="http://www.w3.org/2000/svg" xmlns:xlink="http://www.w3.org/1999/xlink" x="0px" y="0px"
	 viewBox="0 0 500 500" style="enable-background:new 0 0 500 500;" xml:space="preserve">
<style type="text/css">
	.st0{fill:#00C389;}
</style>
<path class="st0" d="M191.8,436.7c-4.1,0-8.2-1-11.9-2.8c-3.7-1.9-6.8-4.6-9.2-7.9L67.4,284.2H0v-51.6h80.7c4.1,0,8.2,1,11.9,2.8
	c3.7,1.9,6.8,4.6,9.3,7.9l84.4,115.8L315,67.6c2-4.6,5.4-8.5,9.6-11.2c4.2-2.7,9.2-4.2,14.3-4.2H500v51.6H355.9L215.7,421.2
	c-1.8,4.2-4.8,7.8-8.5,10.5c-3.7,2.7-8.1,4.3-12.7,4.8c-0.9,0-1.9,0-2.8,0"/>
</svg>
