<?xml version="1.0" encoding="utf-8"?>
<!-- Generator: Adobe Illustrator 23.0.3, SVG Export Plug-In . SVG Version: 6.00 Build 0)  -->
<svg version="1.1" id="xsn" xmlns="http://www.w3.org/2000/svg" xmlns:xlink="http://www.w3.org/1999/xlink" x="0px" y="0px"
	 viewBox="0 0 500 500" style="enable-background:new 0 0 500 500;" xml:space="preserve">
<style type="text/css">
	.st0{fill:#151828;}
</style>
<path class="st0" d="M31.7,282.8c0-20.7,0-41.4,0-62.1c0-3.1-0.1-6.3,0.2-9.4C33,200.8,41,197.1,49,204
	c56.4,49.1,124.6,71.2,195.9,86.5c44.1,9.4,86.9,22.5,125.9,46c9,5.4,17.7,11.5,25.6,18.5c22.2,19.7,19.7,51.7-5.4,67.8
	c-14.4,9.2-29.7,17.3-44.5,25.9c-23.7,13.6-47.4,27.2-71.1,40.9c-15.6,9-31.1,9.2-46.7,0.3c-58.2-33.4-116.4-66.9-174.6-100.4
	c-15.2-8.8-22.4-22.3-22.4-39.8C31.8,327.3,31.7,305.1,31.7,282.8C31.7,282.8,31.7,282.8,31.7,282.8z"/>
<path class="st0" d="M470.3,216.4c0,23,0,46.1,0,69.1c0,5.2-0.1,10.5-6,12.8c-5.5,2.1-9.6-0.7-13.6-4.3
	c-35.5-31.2-77.1-51.8-121.8-65.4c-32.8-10-66.4-17.2-99.6-25.9c-40.6-10.6-79.6-25.2-114.1-49.9c-9.3-6.6-17.8-14-21.9-25.3
	c-7.1-19.8,0.4-40.2,20.3-52c25.9-15.3,52.1-30,78.1-45c10.8-6.2,21.8-12.2,32.4-18.8c18.3-11.4,35.8-10,54,0.7
	c46.1,27,92.6,53.5,138.9,80.3c9.5,5.5,18.9,11,28.4,16.3c17,9.4,25.2,23.5,24.9,43C470,173.4,470.2,194.9,470.3,216.4
	C470.3,216.4,470.3,216.4,470.3,216.4z"/>
</svg>
