<?xml version="1.0" encoding="utf-8"?>
<!-- Generator: Adobe Illustrator 24.2.0, SVG Export Plug-In . SVG Version: 6.00 Build 0)  -->
<svg version="1.1" id="Layer_1" xmlns="http://www.w3.org/2000/svg" xmlns:xlink="http://www.w3.org/1999/xlink" x="0px" y="0px"
	 viewBox="0 0 500 500" style="enable-background:new 0 0 500 500;" xml:space="preserve">
<g>
	<path d="M110.6,382.8l14.9,14.9c23.4-12.1,49.9-19,78.1-19c51.7,0,98,23.1,129.2,59.5l59.6-59.6c-37.7-30.9-85.9-49.4-138.4-49.4
		C199.1,329.3,149,349.5,110.6,382.8z"/>
	<path d="M171.2,443.4l41.3,41.3c20.4,20.4,53.5,20.4,73.9,0L328,443c-21.2-17.6-48.5-28.2-78.2-28.2
		C219.9,414.8,192.4,425.6,171.2,443.4z"/>
	<path d="M208.8,178.9c105.7,0,201.1,43.8,269.1,114.2l6.2-6.2c20.4-20.4,20.4-53.5,0-73.9L286.4,15.3c-20.4-20.4-53.5-20.4-73.9,0
		L14.7,213C6.4,221.3,1.5,231.8,0,242.6C59.6,202.4,131.5,178.9,208.8,178.9z"/>
	<path d="M254,228.2c-82.9,0-158.5,31-216.1,81.9l15.5,15.5c42.8-30,94.9-47.6,151.2-47.6c79.1,0,150.1,34.9,198.4,90l62.2-62.2
		C408.3,257.5,334.5,228.2,254,228.2z"/>
</g>
</svg>
