<?xml version="1.0" encoding="utf-8"?>
<!-- Generator: Adobe Illustrator 24.1.0, SVG Export Plug-In . SVG Version: 6.00 Build 0)  -->
<svg version="1.1" id="XZT" xmlns="http://www.w3.org/2000/svg" xmlns:xlink="http://www.w3.org/1999/xlink" x="0px" y="0px"
	 viewBox="0 0 500 500" style="enable-background:new 0 0 500 500;" xml:space="preserve">
<style type="text/css">
	.st0{fill:#2C7DF7;}
</style>
<path class="st0" d="M303.8,500c-35.9,0-62-8.6-78.5-25.8c-16.4-17.2-24.6-35.7-24.6-55.6c0-7.3,1.4-13.4,4.3-18.3
	c2.8-4.9,6.9-9,11.7-11.7c5-2.9,11.1-4.3,18.3-4.3c7.3,0,13.4,1.4,18.3,4.3c5,2.9,8.9,6.8,11.7,11.7c2.9,5,4.3,11.1,4.3,18.3
	c0,8.8-2.1,15.9-6.3,21.5c-4.2,5.5-9.2,9.2-14.9,10.9c5,6.9,12.8,11.7,23.5,14.6c10.7,3.1,21.4,4.6,32.1,4.6c14.9,0,28.3-4,40.4-12
	c12-8,20.9-19.9,26.6-35.5c5.7-15.7,8.6-33.4,8.6-53.3c0-21.6-3.2-40-9.5-55.3c-6.1-15.5-15.2-26.9-27.2-34.4
	c-11.7-7.3-25.2-11.2-38.9-11.2c-9.2,0-20.6,3.8-34.4,11.5l-25.2,12.6v-12.6l113.4-151.2H200.7v156.9c0,13,2.9,23.7,8.6,32.1
	c5.7,8.4,14.5,12.6,26.4,12.6c9.2,0,17.9-3.1,26.3-9.2c8.5-6.2,15.8-13.7,21.8-22.3c0.8-1.7,1.7-3,2.9-3.7c1-0.9,2.4-1.4,3.7-1.4
	c2.1,0,4.6,1,7.4,3.2c2.7,3,4,6.6,4,10.6c-0.3,2.7-0.8,5.4-1.4,8c-6.5,14.5-15.5,25.6-26.9,33.2c-11.2,7.5-24.3,11.5-37.8,11.5
	c-34,0-57.5-6.7-70.5-20c-13-13.4-19.5-31.5-19.5-54.4V128.9H65.5V99.7h80.2V33.2l-18.3-18.3V0h53.3l20,10.3v89.3L408,99.1
	l20.6,20.6L301.5,246.8c7.7-3.1,15.8-5,24.1-5.7c13.7,0,29.2,4.4,46.4,13.2c17.4,8.6,30.7,20.4,40.1,35.5c9.4,14.9,15.4,29.2,18,43
	c2.9,13.8,4.3,26,4.3,36.7c0,24.4-5.2,47.2-15.5,68.2c-10.3,21-26,36.6-47,47C350.9,494.8,328.2,500,303.8,500z"/>
</svg>
