<?xml version="1.0" encoding="utf-8"?>
<!-- Generator: Adobe Illustrator 23.0.2, SVG Export Plug-In . SVG Version: 6.00 Build 0)  -->
<svg version="1.1" id="Layer_1" xmlns="http://www.w3.org/2000/svg" xmlns:xlink="http://www.w3.org/1999/xlink" x="0px" y="0px"
	 viewBox="0 0 500 500" style="enable-background:new 0 0 500 500;" xml:space="preserve">
<style type="text/css">
	.st0{fill:#8D8FC6;}
	.st1{fill:#579FD6;}
	.st2{fill:#F27046;}
	.st3{fill:#EB407A;}
</style>
<path class="st0" d="M126.5,33.9L3,247.6l123.4,213.8h246.9l4.1-7l119.4-206.7L373.4,33.9L126.5,33.9z M150,62.2h182.9l-120.2,38
	c2.2,3.6,3.8,7.5,4.6,11.6l138.4-43.6l27.6,134.3c4-1.2,8.2-1.8,12.4-1.8L372.5,89.5l87.8,152h-17.7c0.2,2.1,0.3,4.1,0.3,6.2
	c0,2.1-0.1,4.2-0.3,6.2h17.7l-90.7,157.2L395,294.8c-4.1-0.1-8.2-0.7-12.2-1.9l-29.9,136.9l-135.4-45.3c-0.7,4-2.1,8-3.9,11.6
	L323.7,433H150l9.3-15.9c-3.9-1.5-7.6-3.4-10.9-5.9l-9.1,15.7l-86.6-150l85.8,75.8c2.4-3.4,5.2-6.6,8.4-9.3L38.8,248l112.1-99.4
	c-3-2.9-5.5-6.3-7.4-10l-91.5,81.2l87.3-151.4l12.9,22.5c3.2-2.8,6.7-5.1,10.6-6.8L150,62.2z M215.5,134.5
	c-1.5,3.9-3.6,7.5-6.2,10.8l143.8,83.1c1.7-3.8,3.9-7.3,6.6-10.5L215.5,134.5z M169.1,158.9v174.7c1.9-0.3,3.8-0.4,5.7-0.4
	c2.2,0,4.5,0.1,6.7,0.5v-174c-1,0.1-2,0.1-3,0c-3.2,0-6.3-0.4-9.4-1.1V158.9z M353.2,267l-144,83.1c2.6,3.3,4.7,7,6.2,10.9
	l144.3-83.5C357.1,274.2,354.9,270.7,353.2,267L353.2,267z"/>
<path class="st1" d="M178.6,80.8c-21.9-0.1-39.6,17.6-39.7,39.4s17.6,39.6,39.4,39.7s39.6-17.6,39.7-39.4c0-0.1,0-0.1,0-0.2
	C218,98.6,200.4,80.9,178.6,80.8z M178.6,93.3c15,0,27.1,12.2,27.1,27.1s-12.2,27.1-27.1,27.1s-27.1-12.2-27.1-27.1c0,0,0,0,0,0
	c-0.1-14.9,12-27.1,26.9-27.1C178.5,93.3,178.6,93.3,178.6,93.3z"/>
<path class="st2" d="M174.9,333.2c-24,0-43.5,19.4-43.5,43.4c0,24,19.4,43.5,43.4,43.5c24,0,43.5-19.4,43.5-43.4c0,0,0-0.1,0-0.1
	C218.2,352.7,198.8,333.3,174.9,333.2z M174.9,345.5c17.2,0,31.1,13.8,31.2,31c0,17.2-13.8,31.1-31,31.2s-31.1-13.8-31.2-31
	c0,0,0-0.1,0-0.1C143.8,359.5,157.7,345.6,174.9,345.5C174.9,345.5,174.9,345.5,174.9,345.5L174.9,345.5z"/>
<path class="st3" d="M396.1,200.6c-26,0-47.1,21-47.2,47c0,26,21,47.1,47,47.2c26,0,47.1-21,47.2-47c0,0,0,0,0-0.1
	C443,221.7,422,200.6,396.1,200.6L396.1,200.6z M396.1,213c19.1,0,34.7,15.5,34.7,34.7c0,19.1-15.5,34.7-34.7,34.7
	c-19.1,0-34.7-15.5-34.7-34.7c-0.1-19.1,15.3-34.6,34.4-34.7C395.9,213,396,213,396.1,213z"/>
</svg>
