<?xml version="1.0" encoding="utf-8"?>
<!-- Generator: Adobe Illustrator 24.2.2, SVG Export Plug-In . SVG Version: 6.00 Build 0)  -->
<svg version="1.1" id="Layer_1" xmlns="http://www.w3.org/2000/svg" xmlns:xlink="http://www.w3.org/1999/xlink" x="0px" y="0px"
	 viewBox="0 0 500 500" style="enable-background:new 0 0 500 500;" xml:space="preserve">
<style type="text/css">
	.st0{fill:url(#SVGID_1_);}
	.st1{fill:#FFFFFF;}
</style>
<linearGradient id="SVGID_1_" gradientUnits="userSpaceOnUse" x1="38.0602" y1="127.3663" x2="462.0912" y2="372.1807">
	<stop  offset="0" style="stop-color:#0077FD"/>
	<stop  offset="1" style="stop-color:#095EB4"/>
</linearGradient>
<circle class="st0" cx="250.1" cy="249.8" r="244.8"/>
<rect x="240.3" y="156.3" class="st1" width="22" height="198.9"/>
<path class="st1" d="M348.6,195.8l-28.5,9.2c5.5-13.9,6.1-29.2,6.1-31.1l0-0.3c0-42.5-34.6-77.1-77.1-77.1
	c-42.5,0-77.1,34.6-77.1,77.1c0,25.6,12.6,49.4,33.8,63.8l24.5,18v-27.3l-11.7-8.6l-0.3-0.2c-15.2-10.3-24.3-27.4-24.3-45.7
	c0-30.4,24.7-55.1,55.1-55.1c30.3,0,55,24.6,55.1,55c-0.2,4.2-1.3,15.4-4.8,24l-9-32.2l-21.2,5.9l18.9,67.3l67.2-21.7L348.6,195.8z"
	/>
<path class="st1" d="M286.4,269.3l-14.1-10.4v27.3l1.2,0.9l0.1,0.1c20.4,14.6,30.7,31.7,30.7,50.8c0,30.4-24.7,55.1-55.1,55.1
	c-30.4,0-55.1-24.7-55.1-55.1c0-10.1,4.1-21.2,9.7-30.2l5,37.4l21.8-2.9l-9.2-69l-70.9,13.3l4.1,21.6l25.7-4.8
	c-5.4,10.7-8.2,22.4-8.2,34.6c0,42.5,34.6,77.1,77.1,77.1c42.5,0,77.1-34.6,77.1-77.1C326.2,311.8,312.4,288,286.4,269.3z"/>
</svg>
