<svg width="24" height="24" viewBox="0 0 24 24" fill="currentColor" xmlns="http://www.w3.org/2000/svg">
<path d="M23.6458 9.26946C23.5815 8.37845 23.5999 9.03982 23.3518 6.95469C23.3243 6.7526 23.2875 6.44029 23.1406 6.04531C22.9109 5.44825 22.5619 5.09 22.47 5.00733C22.0567 4.59398 21.6341 4.41945 21.5147 4.36434C21.2391 4.25411 21.0095 4.21737 20.8993 4.20819C19.0805 3.9418 18.2906 3.9418 18.2906 3.9418C16.6188 3.9418 17.372 3.82239 14.157 3.78565C12.3567 3.76728 12.7884 3.8132 9.86735 3.8132C9.85816 3.8132 6.50541 3.8132 4.98978 3.96936C4.47539 4.02447 4.3376 4.07958 3.68542 4.12551C3.34555 4.15307 3.1251 4.15307 2.8036 4.2633C2.51885 4.35515 2.30758 4.47457 2.11468 4.58479C1.82074 4.75013 1.57273 4.92467 1.3982 5.06245C1.22368 5.30128 0.994037 5.6687 0.782768 6.15553C0.507199 6.80771 0.415345 7.38641 0.332674 8.90204C0.250004 10.3258 0.25 11.4373 0.25 12.1262C0.25 13.4397 0.305117 14.1654 0.332674 14.4685C0.378602 15.1023 0.3786 14.7716 0.516384 16.2046C0.589869 16.967 0.617427 17.261 0.782768 17.7019C0.847067 17.8672 1.00322 18.2254 1.28797 18.6112C1.42576 18.795 1.61866 19.0521 1.93097 19.2818C2.33514 19.5757 2.73012 19.6768 2.9965 19.7319C4.41108 20.0442 5.4215 20.0809 5.4215 20.0809C8.54461 20.182 7.91999 20.2095 9.23354 20.2187C9.95002 20.2187 10.9145 20.2095 12.0627 20.1636C12.0627 20.1636 14.0376 20.1636 16.83 20.0809C19.1724 20.0166 17.3812 20.0166 19.1448 19.9432C19.3194 19.9432 19.944 19.9064 20.7431 19.7594C21.2208 19.6676 21.4596 19.5849 21.6984 19.4655C21.8178 19.4012 22.1853 19.2083 22.5527 18.8225C22.6721 18.7031 22.8834 18.4643 23.0579 18.106C23.1406 17.9407 23.1865 17.7937 23.2141 17.6835C23.609 15.5341 23.7284 13.7245 23.7468 12.3834C23.7652 11.0698 23.7009 10.087 23.6366 9.28783L23.6458 9.26946ZM9.71119 15.4698V8.43357L15.9023 11.9884L9.71119 15.4698Z"/>
</svg>
