<?xml version="1.0" encoding="utf-8"?>
<!-- Generator: Adobe Illustrator 25.0.1, SVG Export Plug-In . SVG Version: 6.00 Build 0)  -->
<svg version="1.1" id="zai" xmlns="http://www.w3.org/2000/svg" xmlns:xlink="http://www.w3.org/1999/xlink" x="0px" y="0px"
	 viewBox="0 0 500 500" style="enable-background:new 0 0 500 500;" xml:space="preserve">
<style type="text/css">
	.st0{fill-rule:evenodd;clip-rule:evenodd;fill:#FFFFFF;}
</style>
<circle class="st0" cx="250" cy="249.5" r="250"/>
<path d="M385,134.8l-19-19l-41.4,41.4l-39-39l0,0l-19-19l0,0l0,0l-17.1,17.1l0,0L99.9,265.9l19,19l0,0l39,39l-42.6,42.6l19,19
	l42.4-42.4c21,18.8,48.7,30.3,79.2,30.3c65.6,0,118.7-53.1,118.7-118.7c0-30.4-11.4-58.2-30.3-79.2L385,134.8z M136,267.7
	l132.5-132.5l39,39L175.1,306.7L136,267.7z M347.7,252.7c0,52.1-42.2,94.3-94.3,94.3c-22.6,0-43.3-7.9-59.5-21.2l132.6-132.6
	C339.8,209.4,347.7,230.2,347.7,252.7z"/>
</svg>
