<?xml version="1.0" encoding="utf-8"?>
<!-- Generator: Adobe Illustrator 23.0.3, SVG Export Plug-In . SVG Version: 6.00 Build 0)  -->
<svg version="1.1" id="zco" xmlns="http://www.w3.org/2000/svg" xmlns:xlink="http://www.w3.org/1999/xlink" x="0px" y="0px"
	 viewBox="0 0 500 500" style="enable-background:new 0 0 500 500;" xml:space="preserve">
<style type="text/css">
	.st0{fill:#009FEB;}
</style>
<path class="st0" d="M309.3,341.8l-45.7-79.1c23.2-6.1,40.2-27.1,40.2-52.2c0-29.8-24.2-54-54-54s-54,24.2-54,54
	c0,25.3,17.4,46.6,41,52.4l-45.6,78.9H309.3z"/>
<path class="st0" d="M249.6,95.2c50.1,0,94.7,23.9,123,61l-56.9,21.5c5,9.9,7.8,21,7.8,32.8c0,24.9-12.5,47.5-32.3,60.8l8.8,15.3
	l195.5-71.2C478.6,94.6,375,1.7,249.6,1.7c-97.8,0-182.4,56.6-222.9,138.8h113.6C168.4,112.5,207,95.2,249.6,95.2z"/>
<path class="st0" d="M249.6,404.8c-48,0-91-22-119.4-56.4l44.1-16l0.2-0.3l34.8-60.3c-15-9.9-25.8-25-30.4-42.5L5.3,294.6
	c21,115.8,122.4,203.7,244.3,203.7c98.1,0,183-56.9,223.3-139.6H359.6C331.5,387.1,292.6,404.8,249.6,404.8z"/>
</svg>
