<?xml version="1.0" encoding="iso-8859-1"?>
<!-- Generator: Adobe Illustrator 19.0.0, SVG Export Plug-In . SVG Version: 6.00 Build 0)  -->
<svg version="1.1" id="Layer_1" xmlns="http://www.w3.org/2000/svg" xmlns:xlink="http://www.w3.org/1999/xlink" x="0px" y="0px"
	 viewBox="0 0 2000 2000" style="enable-background:new 0 0 2000 2000;" xml:space="preserve">
<g>
	<path style="fill:#030302;" d="M1988.729,1002.545c-0.221,540.566-439.888,971.677-990.579,971.303
		C450.354,1973.477,10.698,1538.756,11,997.778c0.3-538.205,445.73-971.573,997.796-970.777
		C1549.434,27.781,1988.949,465.327,1988.729,1002.545z M1770.927,989.09c-9.445-206.48-79.26-387.506-229.988-532.351
		c-196.534-188.864-433.012-243.347-696.689-200.656c-296.78,48.05-621.732,333.969-614.706,757.469
		c6.758,407.341,345.577,744.474,771.309,742.56C1435.728,1754.158,1777.775,1405.882,1770.927,989.09z"/>
	<path style="fill:#DEA038;" d="M1770.878,989.111c6.896,416.771-335.15,765.047-770.025,767.001
		c-425.732,1.913-764.552-335.219-771.309-742.56c-7.026-423.5,317.927-709.419,614.706-757.469
		c263.677-42.691,500.155,11.792,696.689,200.656C1691.666,601.584,1761.481,782.61,1770.878,989.111z"/>
	<path style="fill:#030302;" d="M893.019,1464.525c-90.558,0-173.921,0-258.068,0c-16.713-98.052-4.847-182.802,61.797-262.097
		c117.094-139.322,212.91-295.502,342.048-437.391c-130.147,0-251.242,0-375.221,0c0-76.938,0-149.591,0-227.59
		c74.1,0,149.08,0,227.836,0c0-58.624,0-112.061,0-168.546c71.113,0,138.406,0,210.853,0c0,54.539,0,108.991,0,167.649
		c86.723,0,168.449,0,252.992,0c1.179,92.739,10.645,176.104-56.037,256.43c-116.135,139.9-212.759,295.534-337.731,441.331
		c141.257,0,274.036,0,408.707,0c0,78.229,0,151.103,0,228.403c-87.723,0-174.644,0-265.792,0c0,56.42,0,108.553,0,163.482
		c-71.785,0-139.321,0-211.386,0C893.019,1574.052,893.019,1521.963,893.019,1464.525z"/>
</g>
</svg>
