<?xml version="1.0" encoding="iso-8859-1"?>
<!-- Generator: Adobe Illustrator 19.0.0, SVG Export Plug-In . SVG Version: 6.00 Build 0)  -->
<svg version="1.1" id="Layer_1" xmlns="http://www.w3.org/2000/svg" xmlns:xlink="http://www.w3.org/1999/xlink" x="0px" y="0px"
	 viewBox="0 0 2000 2000" style="enable-background:new 0 0 2000 2000;" xml:space="preserve">
<g>
	<path style="fill:#4DC0BE;" d="M1450.843,1981.523c-12.414,10.972-22.291,0.534-32.382-4.304
		c-204.381-97.999-408.618-196.297-613.018-294.256c-151.183-72.454-302.408-144.825-454.037-216.337
		c-18.299-8.63-26.37-18.349-26.056-39.373c1.2-80.352,0.862-160.735,0.244-241.101c-0.133-17.276,3.767-27.236,21.306-35.708
		c238.963-115.438,477.387-231.99,715.896-348.365c8.043-3.924,21.032-5.577,21.1-15.327c0.07-10.011-13.25-11.406-21.163-15.213
		c-237.47-114.242-474.988-228.389-712.844-341.826c-17.359-8.279-24.813-17.492-24.53-37.417
		c1.14-80.354,0.271-160.735,0.76-241.102c0.059-9.621-6.207-23.552,11.145-26.613c0.586,9.098,7.804,11.597,14.499,14.77
		c27.415,12.992,54.843,25.956,82.164,39.143C583.3,250.588,732.513,323.009,882.023,394.809
		c186.063,89.353,372.365,178.212,558.563,267.284c0.016,84.242-0.083,168.483,0.191,252.724
		c0.035,10.577-3.526,22.251,6.036,31.143c-52.803,33.788-109.932,59.402-165.677,87.626
		c-190.691,96.548-381.42,193.019-572.101,289.585c-5.622,2.847-13.861,4.462-14.328,11.676c-0.544,8.4,8.642,7.873,14.016,10.465
		c171.783,82.886,343.522,165.865,515.448,248.453c72.272,34.718,144.95,68.589,217.443,102.837
		c-0.314,88.509-0.644,177.026-0.91,265.543C1440.68,1970.28,1439.07,1979.463,1450.843,1981.523z"/>
	<path style="fill:#077A8D;" d="M1440.586,662.093c-186.198-89.072-372.5-177.931-558.563-267.284
		c-149.511-71.8-298.723-144.221-448.094-216.313c-27.321-13.186-54.75-26.151-82.164-39.143
		c-6.695-3.173-13.913-5.672-14.499-14.77C425.688,85.713,514.186,47.002,602.474,7.82c16.11-7.15,28.641,0.808,41.767,7.13
		c118.708,57.178,237.222,114.76,356.054,171.681c236.698,113.38,473.563,226.412,710.335,339.637
		c2.443,1.168,4.566,3.008,6.839,4.534c1.765,10.908-5.541,13.319-13.819,16.822c-24.612,10.413-48.547,22.417-73.079,33.033
		C1567.338,608.022,1503.927,634.975,1440.586,662.093z"/>
	<path style="fill:#2E8D94;" d="M1450.843,1981.524c-11.773-2.06-10.163-11.243-10.138-19.378
		c0.266-88.517,0.596-177.034,0.91-265.543c0.266-1.565,1.09-2.749,2.458-3.538c4.588-8.666,2.541-18.048,2.551-27.105
		c0.138-130.661,0.263-261.322,0.038-391.983c-0.1-57.924-0.99-115.847-1.522-173.771c9.304-16.032,27.26-17.481,41.858-24.075
		c73.021-32.981,146.536-64.872,219.498-97.98c17.834-8.093,23.403-6.107,23.367,14.955c-0.482,281.471-0.325,562.943-0.016,844.415
		c0.016,14.597-3.963,22.504-18.745,28.87C1623.98,1903.913,1537.523,1942.978,1450.843,1981.524z"/>
	<path style="fill:#2F8D94;" d="M1440.586,662.093c63.34-27.118,126.752-54.071,189.985-81.436
		c24.531-10.616,48.467-22.62,73.079-33.033c8.278-3.503,15.583-5.913,13.819-16.822c13.591,3.428,12.085,14.531,12.098,24.49
		c0.107,82.141-0.362,164.287,0.441,246.42c0.157,16.101-7.201,22.449-20.35,28.194c-87.76,38.343-175.253,77.296-262.838,116.052
		c-9.568-8.89-6.007-20.564-6.042-31.141C1440.503,830.576,1440.602,746.334,1440.586,662.093z"/>
</g>
</svg>
