<?xml version="1.0" encoding="utf-8"?>
<!-- Generator: Adobe Illustrator 25.2.0, SVG Export Plug-In . SVG Version: 6.00 Build 0)  -->
<svg version="1.1" id="zks" xmlns="http://www.w3.org/2000/svg" xmlns:xlink="http://www.w3.org/1999/xlink" x="0px" y="0px"
	 viewBox="0 0 500 500" style="enable-background:new 0 0 500 500;" xml:space="preserve">
<style type="text/css">
	.st0{fill:#7300BE;}
	.st1{fill:#FFFFFF;}
</style>
<circle class="st0" cx="251.2" cy="246.4" r="98.9"/>
<circle class="st1" cx="252.4" cy="244.1" r="17.6"/>
<circle class="st0" cx="345" cy="353.8" r="23.3"/>
<circle class="st0" cx="375.1" cy="55.5" r="34.7"/>
<path class="st1" d="M292.6,268.4c-3.5-2.9-8.8-2.3-11.8,1.1c-7.2,8-17.5,12.6-28.3,12.6c-7.6,0-14.8-2.2-20.9-6.2l9.4-9.2
	c-5.2-2.6-9.4-7-11.7-12.3l-16.3,16l-0.8,0.9c-2.8,2.9-2.7,7.5,0.1,10.5l0.6,0.6c10.5,10.9,24.5,16.9,39.6,16.9
	c15.7,0,30.7-6.7,41.1-18.5C296.8,277,296.3,271.4,292.6,268.4z"/>
<path class="st1" d="M226.8,215.9c7-6.4,16.1-9.9,25.6-9.9c7.2,0,14.2,2,20.1,5.7l-10.3,10.1c5.3,2.4,9.6,6.6,12.1,11.9l17.6-17.2
	c3-3,3-7.8,0.1-10.8v0c-9.5-9.5-21.9-15.6-35.3-16.6c-15.4-1.2-30.3,4-41.5,14.4c-3.5,3.3-3.7,8.9-0.2,12.3
	C218.2,219.1,223.5,219,226.8,215.9z"/>
<path class="st0" d="M251,397.5c-2.7,0-4.9-2.2-4.8-4.9l0,0c0-2.7,2.2-4.9,4.9-4.8l0,0c2.7,0,4.9,2.2,4.8,4.9l0,0
	C255.8,395.4,253.7,397.5,251,397.5L251,397.5L251,397.5z M269,391.7c-0.4-2.6,1.4-5.1,4-5.5l0,0l0,0l0,0c2.7-0.4,5.1,1.4,5.5,4l0,0
	c0.4,2.7-1.4,5.1-4.1,5.5l0,0c-0.2,0-0.5,0.1-0.7,0.1l0,0C271.4,395.8,269.4,394.1,269,391.7z M227.4,395.7L227.4,395.7
	c-2.6-0.4-4.5-2.9-4-5.6l0,0c0.4-2.6,2.9-4.5,5.6-4l0,0l0,0l0,0c2.6,0.4,4.5,2.9,4,5.6l0,0c-0.4,2.4-2.5,4.1-4.8,4.1l0,0
	C227.9,395.7,227.7,395.7,227.4,395.7z M291.4,387.2c-0.8-2.6,0.6-5.3,3.1-6.1l0,0l0,0l0,0c2.5-0.8,5.3,0.6,6.1,3.1l0,0
	c0.8,2.5-0.6,5.3-3.1,6.1l0,0c-0.5,0.2-1,0.2-1.5,0.2l0,0C294,390.5,292.1,389.2,291.4,387.2z M204.5,390.1L204.5,390.1
	c-2.5-0.8-3.9-3.6-3.1-6.1l0,0c0.8-2.6,3.6-3.9,6.1-3.1l0,0l0,0l0,0c2.5,0.8,3.9,3.6,3.1,6.1l0,0c-0.7,2.1-2.6,3.3-4.6,3.3l0,0
	C205.5,390.4,205,390.3,204.5,390.1z M312.9,379.1c-1.2-2.4-0.3-5.3,2.1-6.5l0,0c2.4-1.2,5.3-0.3,6.5,2.1l0,0
	c1.2,2.4,0.3,5.3-2.1,6.5l0,0c-0.7,0.4-1.5,0.5-2.2,0.5l0,0C315.4,381.8,313.7,380.8,312.9,379.1z M182.6,381.1L182.6,381.1
	c-2.4-1.2-3.3-4.2-2.1-6.5l0,0c1.2-2.4,4.1-3.3,6.5-2.1l0,0l0,0l0,0c2.4,1.2,3.3,4.1,2.1,6.5l0,0c-0.9,1.7-2.6,2.6-4.3,2.6l0,0
	C184.1,381.6,183.4,381.4,182.6,381.1z M332.8,367.9c-1.6-2.2-1.1-5.2,1.1-6.8l0,0l0,0l0,0c2.2-1.6,5.2-1.1,6.8,1.1l0,0
	c1.6,2.2,1.1,5.2-1.1,6.8l0,0c-0.9,0.6-1.9,0.9-2.9,0.9l0,0C335.2,369.9,333.7,369.2,332.8,367.9z M162.5,368.7
	c-2.2-1.6-2.6-4.6-1.1-6.8l0,0c1.6-2.2,4.6-2.6,6.8-1.1l0,0c2.2,1.6,2.6,4.6,1.1,6.8l0,0c-0.9,1.3-2.4,2-3.9,2l0,0
	C164.4,369.6,163.4,369.3,162.5,368.7z M350.7,353.6c-1.9-1.9-1.9-5,0-6.9l0,0c0,0,0,0,0,0l0,0c1.9-1.9,5-1.9,6.9,0l0,0
	c1.9,1.9,1.9,5,0,6.9l0,0c-0.9,0.9-2.2,1.4-3.4,1.4l0,0C352.9,355,351.6,354.6,350.7,353.6z M144.6,353.3c-1.9-1.9-1.9-5,0-6.9l0,0
	c1.9-1.9,5-1.9,6.9,0l0,0c1.9,1.9,1.9,5,0,6.9l0,0c-0.9,0.9-2.2,1.4-3.4,1.4l0,0C146.8,354.7,145.5,354.3,144.6,353.3z M366.1,336.8
	c-2.2-1.6-2.6-4.6-1.1-6.8l0,0c1.6-2.2,4.6-2.6,6.8-1.1l0,0c2.2,1.6,2.6,4.6,1.1,6.8l0,0c-0.9,1.3-2.4,2-3.9,2l0,0
	C368,337.7,367,337.4,366.1,336.8z M129.3,335.3L129.3,335.3c-1.6-2.2-1.1-5.2,1.1-6.8l0,0c2.2-1.6,5.2-1.1,6.8,1.1l0,0l0,0l0,0
	c1.6,2.2,1.1,5.2-1.1,6.8l0,0c-0.9,0.6-1.9,0.9-2.9,0.9l0,0C131.7,337.3,130.2,336.6,129.3,335.3z M378.8,317.7
	c-2.4-1.2-3.3-4.2-2.1-6.5l0,0l0,0l0,0c1.2-2.4,4.2-3.3,6.5-2.1l0,0c2.4,1.2,3.3,4.2,2.1,6.5v0c-0.9,1.7-2.6,2.6-4.3,2.6l0,0
	C380.2,318.2,379.5,318.1,378.8,317.7z M116.9,315.2c-1.2-2.4-0.3-5.3,2.1-6.5l0,0c2.4-1.2,5.3-0.3,6.5,2.1l0,0
	c1.2,2.4,0.3,5.3-2.1,6.5l0,0c-0.7,0.4-1.5,0.5-2.2,0.5l0,0C119.5,317.8,117.8,316.8,116.9,315.2z M388.3,296.9
	c-2.5-0.8-3.9-3.6-3.1-6.1l0,0c0.8-2.5,3.6-3.9,6.1-3.1l0,0c2.5,0.8,3.9,3.6,3.1,6.1l0,0c-0.7,2.1-2.6,3.3-4.6,3.3l0,0
	C389.3,297.1,388.8,297.1,388.3,296.9z M107.9,293.3L107.9,293.3c-0.8-2.5,0.6-5.3,3.1-6.1l0,0c2.5-0.8,5.3,0.6,6.1,3.1l0,0
	c0.8,2.5-0.6,5.3-3.1,6.1l0,0c-0.5,0.2-1,0.2-1.5,0.2l0,0C110.5,296.7,108.6,295.4,107.9,293.3z M394.4,274.8
	c-2.6-0.4-4.5-2.9-4-5.6l0,0l0,0l0,0c0.4-2.6,2.9-4.5,5.6-4l0,0c2.6,0.4,4.5,2.9,4,5.6l0,0c-0.4,2.4-2.4,4.1-4.8,4.1l0,0
	C394.9,274.9,394.6,274.9,394.4,274.8z M102.4,270.3c-0.4-2.7,1.4-5.1,4-5.5l0,0c2.7-0.4,5.1,1.4,5.5,4l0,0c0.4,2.7-1.4,5.1-4,5.5
	l0,0c-0.3,0-0.5,0.1-0.8,0.1l0,0C104.9,274.4,102.8,272.7,102.4,270.3z M397,252.1c-2.7,0-4.8-2.2-4.8-4.9l0,0c0,0,0-0.1,0-0.1l0,0
	c0,0,0-0.1,0-0.2l0,0l0,0l0,0c0-2.7,2.2-4.9,4.9-4.9l0,0c2.7,0,4.9,2.2,4.9,4.9l0,0c0,0,0,0.1,0,0.2l0,0c0,0,0,0.1,0,0.2l0,0
	C401.8,249.9,399.7,252.1,397,252.1L397,252.1C397,252.1,397,252.1,397,252.1z M100.6,246.8c0-2.7,2.2-4.8,4.9-4.8l0,0
	c2.7,0,4.9,2.2,4.9,4.9l0,0c0,2.7-2.2,4.9-4.9,4.9l0,0C102.8,251.6,100.6,249.5,100.6,246.8z M390.4,224.9L390.4,224.9L390.4,224.9
	c-0.4-2.7,1.4-5.1,4-5.6l0,0c2.6-0.4,5.1,1.4,5.5,4.1l0,0c0.4,2.6-1.4,5.1-4,5.5l0,0c-0.3,0-0.5,0.1-0.8,0.1l0,0
	C392.8,229,390.8,227.3,390.4,224.9z M106.5,228.8c-2.7-0.4-4.5-2.9-4-5.6l0,0c0.4-2.6,2.9-4.5,5.6-4l0,0c2.6,0.4,4.4,2.9,4,5.5l0,0
	c-0.4,2.4-2.4,4.1-4.8,4.1l0,0C107,228.8,106.8,228.8,106.5,228.8z M385.3,203.4c-0.8-2.5,0.6-5.3,3.1-6.1l0,0
	c2.5-0.8,5.3,0.6,6.1,3.1l0,0c0.8,2.5-0.6,5.3-3.1,6.1l0,0c-0.5,0.2-1,0.2-1.5,0.2l0,0C387.8,206.8,385.9,205.5,385.3,203.4z
	 M111.1,206.4c-2.5-0.8-3.9-3.6-3.1-6.1l0,0c0.8-2.5,3.6-3.9,6.1-3.1l0,0c2.5,0.8,3.9,3.6,3.1,6.1l0,0c0,0,0,0,0,0l0,0
	c-0.7,2.1-2.6,3.4-4.6,3.4l0,0C112.1,206.6,111.6,206.5,111.1,206.4z M376.8,183L376.8,183L376.8,183c-1.2-2.4-0.3-5.3,2.1-6.5l0,0
	c2.4-1.2,5.3-0.3,6.5,2.1h0c1.2,2.4,0.3,5.3-2.1,6.5l0,0c-0.7,0.4-1.5,0.5-2.2,0.5l0,0C379.4,185.6,377.7,184.7,376.8,183z
	 M119.2,185c-2.4-1.2-3.3-4.1-2.1-6.5l0,0c1.2-2.4,4.2-3.3,6.5-2.1l0,0c2.4,1.2,3.3,4.2,2.1,6.5l0,0c0,0,0,0,0,0l0,0
	c-0.8,1.7-2.6,2.6-4.3,2.6l0,0C120.6,185.5,119.9,185.3,119.2,185z M365.2,164.1c-1.6-2.2-1.1-5.2,1.1-6.8l0,0
	c2.2-1.6,5.2-1.1,6.8,1.1l0,0c1.6,2.2,1.1,5.2-1.1,6.8l0,0c-0.9,0.6-1.9,0.9-2.9,0.9l0,0C367.7,166.1,366.2,165.4,365.2,164.1z
	 M130.5,165.1c-2.2-1.6-2.6-4.6-1.1-6.8l0,0c1.6-2.2,4.6-2.6,6.8-1.1l0,0c2.2,1.6,2.6,4.6,1.1,6.8l0,0l0,0l0,0c-0.9,1.3-2.4,2-3.9,2
	l0,0C132.4,166,131.4,165.7,130.5,165.1z M350.9,147.3c-1.9-1.9-1.9-5,0-6.9l0,0c1.9-1.9,5-1.9,6.9,0l0,0c1.9,1.9,1.9,5,0,6.9l0,0
	c-0.9,0.9-2.2,1.4-3.4,1.4l0,0C353.1,148.8,351.8,148.3,350.9,147.3z M144.8,147.2c-1.9-1.9-1.9-5,0-6.9l0,0c1.9-1.9,5-1.9,6.9,0
	l0,0c1.9,1.9,1.9,5,0,6.9l0,0c-0.9,0.9-2.2,1.4-3.4,1.4l0,0C147,148.7,145.7,148.2,144.8,147.2z M334.1,133
	c-2.2-1.6-2.6-4.6-1.1-6.8l0,0c1.6-2.2,4.6-2.6,6.8-1.1l0,0c2.2,1.6,2.6,4.6,1.1,6.8l0,0c-0.9,1.3-2.4,2-3.9,2l0,0
	C335.9,133.9,334.9,133.6,334.1,133z M161.7,131.8c-1.6-2.2-1.1-5.2,1.1-6.8l0,0c2.2-1.6,5.2-1.1,6.8,1.1l0,0
	c1.6,2.2,1.1,5.2-1.1,6.8l0,0l0,0l0,0c-0.9,0.6-1.9,0.9-2.9,0.9l0,0C164.1,133.8,162.6,133.1,161.7,131.8z M315.2,121.4
	c-2.4-1.2-3.3-4.1-2.1-6.5l0,0c1.2-2.4,4.1-3.3,6.5-2.1l0,0c2.4,1.2,3.3,4.1,2.1,6.5l0,0c-0.9,1.7-2.6,2.6-4.3,2.6l0,0
	C316.7,121.9,315.9,121.7,315.2,121.4z M180.8,119.2c-1.2-2.4-0.3-5.3,2.1-6.5l0,0c2.4-1.2,5.3-0.3,6.5,2.1l0,0
	c1.2,2.4,0.3,5.3-2.1,6.5l0,0c-0.7,0.4-1.5,0.5-2.2,0.5l0,0C183.4,121.9,181.7,120.9,180.8,119.2z M294.8,112.9L294.8,112.9
	L294.8,112.9c-2.5-0.8-3.9-3.6-3.1-6.1l0,0c0.8-2.5,3.6-3.9,6.1-3.1h0c2.6,0.8,3.9,3.6,3.1,6.1l0,0c-0.7,2.1-2.6,3.4-4.6,3.4l0,0
	C295.8,113.2,295.3,113.1,294.8,112.9z M201.6,109.7c-0.8-2.5,0.6-5.3,3.1-6.1l0,0c2.5-0.8,5.3,0.6,6.1,3.1l0,0
	c0.8,2.6-0.6,5.3-3.1,6.1l0,0l0,0l0,0c-0.5,0.2-1,0.2-1.5,0.2l0,0C204.2,113.1,202.3,111.8,201.6,109.7z M273.3,107.8
	c-2.6-0.4-4.5-2.9-4-5.6l0,0c0.4-2.6,2.9-4.5,5.5-4l0,0c2.6,0.4,4.5,2.9,4,5.5l0,0c-0.4,2.4-2.4,4.1-4.8,4.1l0,0
	C273.9,107.8,273.6,107.8,273.3,107.8z M223.7,103.7c-0.4-2.7,1.4-5.1,4.1-5.6v0c2.6-0.4,5.1,1.4,5.5,4l0,0c0.4,2.6-1.4,5.1-4.1,5.5
	l0,0c-0.3,0-0.5,0.1-0.8,0.1l0,0C226.1,107.8,224.1,106.1,223.7,103.7z M251.3,106L251.3,106L251.3,106L251.3,106L251.3,106
	L251.3,106z M246.5,101.2c0-2.7,2.2-4.8,4.9-4.8l0,0c2.7,0,4.9,2.2,4.9,4.9l0,0c0,2.7-2.2,4.9-4.9,4.9l0,0
	C248.6,106,246.4,103.9,246.5,101.2z"/>
<path class="st0" d="M257,477.9c-0.1-2.7,2-5,4.6-5.1l0,0l0,0l0,0c2.7-0.1,5,1.9,5.1,4.6l0,0c0.1,2.7-2,5-4.6,5.1l0,0
	c-0.1,0-0.1,0-0.2,0l0,0C259.2,482.5,257.1,480.5,257,477.9z M239.6,482.5c-2.7-0.1-4.7-2.4-4.6-5.1l0,0c0.1-2.7,2.4-4.7,5.1-4.6
	l0,0c2.7,0.1,4.7,2.4,4.6,5.1l0,0c-0.1,2.6-2.3,4.6-4.8,4.6l0,0C239.8,482.5,239.7,482.5,239.6,482.5z M278.9,476.3
	c-0.4-2.7,1.5-5.1,4.1-5.5l0,0c2.7-0.4,5.1,1.5,5.5,4.1l0,0c0.4,2.7-1.5,5.1-4.1,5.5l0,0c-0.2,0-0.5,0-0.7,0l0,0
	C281.3,480.5,279.2,478.7,278.9,476.3z M217.3,480.3c-2.6-0.4-4.5-2.8-4.1-5.5l0,0c0.4-2.7,2.9-4.5,5.5-4.1l0,0
	c2.7,0.4,4.5,2.8,4.1,5.5l0,0c-0.3,2.4-2.4,4.2-4.8,4.2l0,0C217.7,480.4,217.5,480.4,217.3,480.3z M300.6,472.7
	c-0.6-2.6,1-5.2,3.6-5.9l0,0l0,0l0,0c2.6-0.6,5.2,1,5.8,3.6l0,0c0.6,2.6-1,5.2-3.6,5.9l0,0c-0.4,0.1-0.8,0.1-1.1,0.1l0,0
	C303.1,476.4,301.1,474.9,300.6,472.7z M195.2,476.1L195.2,476.1c-2.6-0.6-4.2-3.3-3.6-5.9l0,0c0.6-2.6,3.3-4.2,5.9-3.6l0,0l0,0l0,0
	c2.6,0.6,4.2,3.3,3.6,5.9l0,0c-0.5,2.2-2.5,3.7-4.7,3.7l0,0C196,476.2,195.6,476.2,195.2,476.1z M321.8,467c-0.9-2.5,0.5-5.3,3-6.2
	l0,0l0,0l0,0c2.5-0.9,5.3,0.5,6.2,3l0,0c0.9,2.5-0.5,5.3-3,6.2l0,0c-0.5,0.2-1.1,0.3-1.6,0.3l0,0C324.4,470.3,322.5,469,321.8,467z
	 M173.7,469.7c-2.5-0.9-3.9-3.6-3-6.2l0,0c0.9-2.5,3.6-3.9,6.2-3l0,0l0,0l0,0c2.5,0.9,3.9,3.7,3,6.2l0,0c-0.7,2-2.6,3.3-4.6,3.3l0,0
	C174.8,470,174.2,469.9,173.7,469.7z M342.4,459.3c-1.1-2.4,0-5.3,2.4-6.4l0,0c2.4-1.1,5.3,0,6.4,2.4l0,0c1.1,2.4,0,5.3-2.4,6.4l0,0
	c-0.7,0.3-1.3,0.4-2,0.4l0,0C345,462.1,343.2,461.1,342.4,459.3z M152.9,461.3c-2.4-1.1-3.5-4-2.4-6.4l0,0c1.1-2.4,4-3.5,6.4-2.4
	l0,0c2.4,1.1,3.5,4,2.4,6.4l0,0c-0.8,1.8-2.6,2.8-4.4,2.8l0,0C154.3,461.8,153.6,461.7,152.9,461.3z M362.1,449.6
	c-1.3-2.3-0.5-5.3,1.8-6.6l0,0l0,0l0,0c2.3-1.3,5.3-0.5,6.6,1.8l0,0c1.3,2.3,0.5,5.3-1.8,6.6l0,0c-0.8,0.4-1.6,0.6-2.4,0.6l0,0
	C364.7,452.1,363,451.2,362.1,449.6z M133,451c-2.3-1.3-3.1-4.3-1.8-6.6l0,0c1.3-2.3,4.3-3.1,6.6-1.8l0,0c2.3,1.3,3.1,4.3,1.8,6.6
	l0,0c-0.9,1.6-2.5,2.4-4.2,2.4l0,0C134.6,451.7,133.8,451.5,133,451z M380.9,438.2c-1.6-2.2-1-5.2,1.1-6.8l0,0c0,0,0,0,0,0l0,0
	c2.2-1.6,5.2-1,6.8,1.1l0,0c1.6,2.2,1,5.2-1.1,6.8l0,0c-0.8,0.6-1.8,0.9-2.8,0.9l0,0C383.3,440.2,381.8,439.5,380.9,438.2z
	 M114.1,438.8c-2.2-1.6-2.7-4.6-1.1-6.8l0,0c1.6-2.2,4.6-2.7,6.8-1.1l0,0c2.2,1.6,2.7,4.6,1.1,6.8l0,0c-0.9,1.3-2.4,2-4,2l0,0
	C116,439.8,115,439.5,114.1,438.8z M398.5,425c-1.7-2-1.5-5.1,0.5-6.8l0,0c0,0,0,0,0,0l0,0c2-1.8,5.1-1.5,6.8,0.5l0,0
	c1.7,2,1.5,5.1-0.5,6.8l0,0c-0.9,0.8-2,1.2-3.2,1.2l0,0C400.8,426.6,399.4,426.1,398.5,425z M96.5,424.9L96.5,424.9
	c-2-1.8-2.2-4.8-0.5-6.8l0,0c1.8-2,4.8-2.2,6.8-0.5l0,0c0,0,0,0,0,0l0,0c2,1.7,2.2,4.8,0.5,6.8l0,0c-1,1.1-2.3,1.7-3.7,1.7l0,0
	C98.6,426.1,97.5,425.7,96.5,424.9z M414.7,410.2c-1.9-1.9-2-4.9-0.1-6.9l0,0l0,0l0,0c1.9-1.9,4.9-2,6.9-0.2l0,0
	c1.9,1.9,2,4.9,0.2,6.9l0,0c-1,1-2.2,1.5-3.5,1.5l0,0C416.8,411.5,415.6,411.1,414.7,410.2z M80.3,409.4c-1.8-1.9-1.8-5,0.2-6.9l0,0
	c1.9-1.8,5-1.8,6.9,0.2l0,0c1.8,1.9,1.8,5-0.2,6.9l0,0c-0.9,0.9-2.1,1.3-3.3,1.3l0,0C82.6,410.9,81.3,410.4,80.3,409.4z
	 M429.5,393.9c-2.1-1.7-2.5-4.7-0.8-6.8l0,0c1.7-2.1,4.7-2.5,6.8-0.8l0,0c2.1,1.7,2.5,4.7,0.8,6.8v0c-1,1.2-2.4,1.8-3.8,1.8l0,0
	C431.4,394.9,430.4,394.6,429.5,393.9z M65.6,392.5c-1.7-2.1-1.3-5.2,0.8-6.8l0,0c2.1-1.7,5.2-1.3,6.8,0.8l0,0
	c1.7,2.1,1.3,5.2-0.8,6.8l0,0c-0.9,0.7-2,1-3,1l0,0C68,394.3,66.6,393.7,65.6,392.5z M442.7,376.3c-2.2-1.5-2.9-4.5-1.4-6.7l0,0
	c0,0,0,0,0,0l0,0c1.5-2.2,4.5-2.9,6.7-1.4l0,0c2.2,1.4,2.9,4.5,1.4,6.7l0,0c-0.9,1.4-2.5,2.2-4.1,2.2l0,0
	C444.4,377.1,443.5,376.8,442.7,376.3z M52.6,374.2c-1.4-2.2-0.8-5.3,1.5-6.7l0,0c2.3-1.5,5.3-0.8,6.7,1.5l0,0
	c1.4,2.3,0.8,5.3-1.5,6.7l0,0c-0.8,0.5-1.7,0.8-2.6,0.8l0,0C55.1,376.4,53.6,375.6,52.6,374.2z M454.1,357.5
	c-2.4-1.2-3.3-4.2-2.1-6.5l0,0c1.2-2.4,4.2-3.3,6.5-2.1l0,0c2.4,1.2,3.3,4.2,2.1,6.5v0c-0.9,1.7-2.6,2.6-4.3,2.6l0,0
	C455.6,358.1,454.8,357.9,454.1,357.5z M41.4,354.7c-1.2-2.4-0.3-5.3,2.1-6.5l0,0c2.4-1.2,5.3-0.3,6.5,2.1l0,0
	c1.2,2.4,0.3,5.3-2.1,6.5l0,0c-0.7,0.4-1.5,0.5-2.2,0.5l0,0C44,357.4,42.3,356.4,41.4,354.7z M463.7,337.7c-2.5-1-3.7-3.8-2.7-6.3
	l0,0c1-2.5,3.8-3.7,6.3-2.7l0,0c2.5,1,3.7,3.8,2.7,6.3l0,0c-0.8,1.9-2.6,3-4.5,3l0,0C464.9,338.1,464.3,338,463.7,337.7z
	 M32.1,334.3c-1-2.5,0.2-5.3,2.7-6.3l0,0c2.5-1,5.3,0.2,6.3,2.7l0,0c1,2.5-0.2,5.3-2.7,6.3l0,0c-0.6,0.2-1.2,0.3-1.8,0.3l0,0
	C34.7,337.4,32.9,336.2,32.1,334.3z M471.4,317.2c-2.6-0.8-4-3.5-3.3-6l0,0c0.8-2.6,3.5-4,6-3.3l0,0c2.6,0.8,4,3.5,3.3,6l0,0
	c-0.6,2.1-2.6,3.5-4.6,3.5l0,0C472.3,317.4,471.8,317.3,471.4,317.2z M24.8,313.1c-0.7-2.6,0.7-5.3,3.3-6l0,0c2.6-0.7,5.3,0.7,6,3.3
	l0,0c0.8,2.6-0.7,5.3-3.3,6l0,0c-0.4,0.1-0.9,0.2-1.4,0.2l0,0C27.4,316.6,25.4,315.2,24.8,313.1z M477,295.9
	c-2.6-0.5-4.4-3.1-3.8-5.7l0,0c0,0,0,0,0,0l0,0c0.5-2.6,3.1-4.3,5.7-3.8l0,0c2.6,0.5,4.3,3.1,3.8,5.7l0,0c-0.4,2.3-2.5,3.9-4.8,3.9
	l0,0C477.7,296,477.3,296,477,295.9z M19.6,291.3c-0.5-2.6,1.2-5.2,3.9-5.7l0,0c2.6-0.5,5.2,1.2,5.7,3.9l0,0
	c0.5,2.6-1.2,5.2-3.9,5.7l0,0c-0.3,0.1-0.6,0.1-0.9,0.1l0,0C22,295.2,20,293.6,19.6,291.3z M480.6,274.2c-2.7-0.3-4.6-2.6-4.4-5.3
	l0,0l0,0l0,0c0.3-2.7,2.6-4.6,5.3-4.4l0,0c2.7,0.3,4.6,2.6,4.4,5.3v0c-0.2,2.5-2.4,4.4-4.8,4.4l0,0
	C481,274.3,480.8,274.3,480.6,274.2z M16.4,269.1c-0.3-2.7,1.7-5,4.4-5.3l0,0c2.7-0.2,5,1.7,5.3,4.4l0,0c0.3,2.7-1.7,5-4.4,5.3l0,0
	c-0.2,0-0.3,0-0.5,0l0,0C18.8,273.5,16.7,271.6,16.4,269.1z M482.2,252.3c-2.7,0-4.9-2.2-4.8-4.9l0,0c0-0.1,0-0.2,0-0.3l0,0
	c0-0.1,0-0.2,0-0.3l0,0l0,0l0,0c0-2.7,2.2-4.9,4.9-4.9l0,0c2.7,0,4.9,2.2,4.9,4.9l0,0c0,0.1,0,0.2,0,0.3l0,0c0,0.1,0,0.2,0,0.3l0,0
	C487,250.2,484.9,252.3,482.2,252.3L482.2,252.3L482.2,252.3z M20.3,251.5c-2.7,0-4.9-2.2-4.9-4.9l0,0c0-2.7,2.2-4.9,4.9-4.9l0,0
	c2.7,0,4.8,2.2,4.8,4.9l0,0C25.1,249.4,22.9,251.5,20.3,251.5L20.3,251.5L20.3,251.5z M476.3,225.4c-0.3-2.7,1.7-5,4.4-5.3l0,0
	c2.7-0.2,5,1.7,5.3,4.4l0,0c0.3,2.7-1.7,5-4.4,5.3l0,0c-0.2,0-0.3,0-0.5,0l0,0C478.7,229.9,476.6,228,476.3,225.4z M20.9,229.6
	c-2.7-0.3-4.6-2.6-4.4-5.3l0,0c0.3-2.7,2.6-4.6,5.3-4.4l0,0c2.7,0.3,4.6,2.6,4.4,5.3l0,0c-0.2,2.5-2.4,4.4-4.8,4.4l0,0
	C21.2,229.6,21,229.6,20.9,229.6z M473.3,204.2c-0.5-2.6,1.2-5.2,3.8-5.7l0,0c2.6-0.5,5.2,1.2,5.7,3.9l0,0c0.5,2.6-1.2,5.2-3.9,5.7
	l0,0c-0.3,0.1-0.6,0.1-0.9,0.1l0,0C475.8,208.1,473.7,206.5,473.3,204.2z M23.5,207.7c-2.6-0.5-4.4-3.1-3.8-5.7l0,0
	c0.5-2.6,3-4.3,5.7-3.8l0,0c2.6,0.5,4.4,3.1,3.8,5.7l0,0c-0.4,2.3-2.5,3.9-4.8,3.9l0,0C24.1,207.8,23.8,207.8,23.5,207.7z
	 M468.2,183.2c-0.8-2.6,0.7-5.3,3.3-6l0,0c2.6-0.8,5.3,0.7,6,3.3l0,0c0.8,2.6-0.7,5.3-3.3,6l0,0c-0.5,0.1-0.9,0.2-1.4,0.2l0,0
	C470.8,186.7,468.9,185.4,468.2,183.2z M28.3,186.3c-2.6-0.8-4.1-3.5-3.3-6l0,0c0.8-2.6,3.5-4,6-3.3l0,0c2.6,0.8,4,3.5,3.3,6l0,0
	l0,0l0,0c-0.6,2.1-2.5,3.5-4.6,3.5l0,0C29.2,186.5,28.7,186.4,28.3,186.3z M461.2,162.9c-1-2.5,0.2-5.3,2.7-6.3l0,0
	c2.5-1,5.3,0.2,6.3,2.7l0,0c1,2.5-0.2,5.3-2.7,6.3l0,0c-0.6,0.2-1.2,0.4-1.8,0.4l0,0C463.8,166,462,164.8,461.2,162.9z M35,165.4
	c-2.5-1-3.7-3.8-2.7-6.3l0,0c1-2.5,3.8-3.7,6.3-2.7l0,0c2.5,1,3.7,3.8,2.7,6.3l0,0c-0.8,1.9-2.6,3-4.5,3l0,0
	C36.2,165.7,35.6,165.6,35,165.4z M452.3,143.4c-1.2-2.4-0.3-5.3,2.1-6.5l0,0c2.4-1.2,5.3-0.3,6.5,2.1l0,0c1.2,2.4,0.3,5.3-2.1,6.5
	l0,0c-0.7,0.4-1.5,0.5-2.2,0.5l0,0C454.8,146,453.1,145,452.3,143.4z M43.8,145.2c-2.4-1.2-3.3-4.2-2.1-6.5l0,0
	c1.2-2.4,4.2-3.3,6.5-2.1l0,0c2.4,1.2,3.3,4.2,2.1,6.5l0,0l0,0l0,0c-0.9,1.7-2.6,2.6-4.3,2.6l0,0C45.2,145.8,44.5,145.6,43.8,145.2z
	 M441.5,124.7L441.5,124.7L441.5,124.7c-1.4-2.3-0.8-5.3,1.5-6.7l0,0c2.3-1.5,5.3-0.8,6.7,1.5l0,0c1.4,2.2,0.8,5.3-1.5,6.7l0,0
	c-0.8,0.5-1.7,0.8-2.6,0.8l0,0C444,127,442.4,126.2,441.5,124.7z M54.4,126c-2.2-1.4-2.9-4.5-1.4-6.7l0,0c1.5-2.2,4.5-2.9,6.7-1.4
	l0,0c2.3,1.5,2.9,4.5,1.4,6.7l0,0l0,0l0,0c-0.9,1.4-2.5,2.2-4.1,2.2l0,0C56.1,126.7,55.2,126.5,54.4,126z M429,107.2L429,107.2
	L429,107.2c-1.7-2.1-1.3-5.2,0.8-6.8l0,0c2.1-1.7,5.2-1.3,6.8,0.8h0c1.7,2.1,1.3,5.2-0.8,6.8l0,0c-0.9,0.7-2,1-3,1l0,0
	C431.4,109.1,430,108.4,429,107.2z M66.8,107.8c-2.1-1.7-2.5-4.7-0.8-6.8l0,0c1.7-2.1,4.7-2.5,6.8-0.8l0,0c2.1,1.7,2.5,4.7,0.8,6.8
	l0,0c-1,1.2-2.4,1.8-3.8,1.8l0,0C68.7,108.9,67.7,108.5,66.8,107.8z M414.9,90.9c-1.9-1.9-1.8-5,0.2-6.9l0,0c1.9-1.9,5-1.8,6.9,0.2
	v0c1.8,1.9,1.8,5-0.2,6.9l0,0c-0.9,0.9-2.1,1.3-3.4,1.3l0,0C417.1,92.5,415.9,92,414.9,90.9z M80.8,90.9c-1.9-1.9-2-4.9-0.2-6.9l0,0
	c1.9-1.9,4.9-2,6.9-0.2l0,0c1.9,1.9,2,4.9,0.2,6.9l0,0c-1,1-2.2,1.5-3.5,1.5l0,0C83,92.3,81.8,91.8,80.8,90.9z M399.3,76.1
	L399.3,76.1L399.3,76.1c-2-1.7-2.2-4.8-0.5-6.8l0,0c1.8-2,4.8-2.2,6.8-0.5h0c2,1.8,2.2,4.8,0.5,6.9l0,0c-1,1.1-2.3,1.7-3.7,1.7l0,0
	C401.4,77.3,400.3,76.9,399.3,76.1z M96.4,75.4c-1.7-2-1.5-5.1,0.5-6.8l0,0c2-1.7,5.1-1.5,6.8,0.5l0,0c1.8,2,1.5,5.1-0.5,6.8l0,0
	l0,0l0,0c-0.9,0.8-2.1,1.2-3.2,1.2l0,0C98.8,77.1,97.4,76.6,96.4,75.4z M382.4,62.8c-2.2-1.6-2.7-4.6-1.1-6.8l0,0
	c1.6-2.2,4.6-2.7,6.8-1.1l0,0c2.2,1.6,2.7,4.6,1.1,6.8l0,0c-0.9,1.3-2.4,2-4,2l0,0C384.3,63.7,383.3,63.4,382.4,62.8z M113.4,61.5
	c-1.6-2.2-1.1-5.2,1.1-6.8l0,0c2.2-1.6,5.2-1,6.8,1.1l0,0c1.6,2.2,1,5.2-1.1,6.8l0,0c-0.8,0.6-1.8,0.9-2.8,0.9l0,0
	C115.9,63.5,114.4,62.8,113.4,61.5z M364.4,51.1C364.4,51.1,364.4,51.1,364.4,51.1L364.4,51.1c-2.3-1.3-3.1-4.3-1.8-6.6l0,0
	c1.3-2.3,4.3-3.1,6.6-1.8l0,0c2.3,1.3,3.1,4.3,1.8,6.6l0,0c-0.9,1.6-2.5,2.4-4.2,2.4l0,0C366,51.8,365.1,51.6,364.4,51.1z
	 M131.7,49.2c-1.3-2.3-0.5-5.3,1.8-6.6l0,0c2.3-1.3,5.3-0.5,6.6,1.8l0,0c1.3,2.3,0.5,5.3-1.8,6.6l0,0c0,0,0,0,0,0l0,0
	c-0.8,0.4-1.6,0.7-2.4,0.7l0,0C134.2,51.6,132.6,50.8,131.7,49.2z M345.2,41.2c-2.4-1.1-3.5-4-2.4-6.4l0,0c1.1-2.4,4-3.5,6.4-2.4
	l0,0c2.4,1.1,3.5,4,2.4,6.4l0,0c-0.8,1.8-2.6,2.8-4.4,2.8l0,0C346.6,41.7,345.9,41.5,345.2,41.2z M151,38.7c-1.1-2.4,0-5.3,2.4-6.4
	v0c2.4-1.1,5.3,0,6.4,2.4l0,0c1.1,2.4,0,5.3-2.4,6.4l0,0l0,0l0,0c-0.7,0.3-1.3,0.4-2,0.4l0,0C153.6,41.6,151.8,40.5,151,38.7z
	 M325.3,33.2c-2.5-0.9-3.9-3.6-3-6.2l0,0c0.9-2.5,3.7-3.9,6.2-3l0,0c2.5,0.9,3.9,3.7,3,6.2l0,0c-0.7,2-2.6,3.3-4.6,3.3l0,0
	C326.3,33.5,325.8,33.4,325.3,33.2z M171.2,30.2c-0.9-2.5,0.5-5.3,3-6.2l0,0c2.5-0.9,5.3,0.5,6.2,3l0,0c0.9,2.5-0.5,5.3-3,6.2l0,0
	c-0.5,0.2-1.1,0.3-1.6,0.3l0,0C173.8,33.4,171.9,32.2,171.2,30.2z M304.6,27.2c-2.6-0.6-4.2-3.3-3.6-5.9l0,0
	c0.6-2.6,3.3-4.2,5.9-3.6l0,0c2.6,0.6,4.2,3.3,3.6,5.9l0,0c-0.5,2.2-2.5,3.7-4.7,3.7l0,0C305.4,27.3,305,27.3,304.6,27.2z
	 M192.2,23.5c-0.6-2.6,1-5.2,3.6-5.9l0,0c2.6-0.6,5.2,1,5.9,3.6l0,0c0.6,2.6-1,5.2-3.6,5.9l0,0c-0.4,0.1-0.8,0.1-1.1,0.1l0,0
	C194.7,27.3,192.7,25.8,192.2,23.5z M283.5,23.1C283.5,23.1,283.5,23.1,283.5,23.1L283.5,23.1c-2.7-0.4-4.5-2.8-4.1-5.5l0,0
	c0.4-2.7,2.8-4.5,5.5-4.1l0,0c2.7,0.4,4.5,2.8,4.1,5.5l0,0c-0.3,2.4-2.4,4.2-4.8,4.2l0,0C284,23.2,283.8,23.1,283.5,23.1z M213.7,19
	c-0.4-2.7,1.5-5.1,4.1-5.5l0,0c2.7-0.4,5.1,1.5,5.5,4.1l0,0c0.4,2.7-1.5,5.1-4.1,5.5l0,0c-0.2,0-0.4,0-0.7,0l0,0
	C216.1,23.1,214,21.4,213.7,19z M262.1,21.1c-2.7-0.1-4.7-2.4-4.6-5.1l0,0c0.1-2.7,2.4-4.8,5.1-4.6l0,0c2.7,0.1,4.7,2.4,4.6,5.1l0,0
	c-0.1,2.6-2.3,4.6-4.9,4.6l0,0C262.3,21.1,262.2,21.1,262.1,21.1z M235.5,16.5c-0.1-2.7,2-5,4.6-5.1l0,0c2.7-0.1,5,1.9,5.1,4.6l0,0
	c0.1,2.7-1.9,5-4.6,5.1l0,0l0,0l0,0c-0.1,0-0.1,0-0.2,0l0,0C237.8,21.1,235.6,19,235.5,16.5z"/>
</svg>
