<?xml version="1.0" encoding="iso-8859-1"?>
<!-- Generator: Adobe Illustrator 19.0.0, SVG Export Plug-In . SVG Version: 6.00 Build 0)  -->
<svg version="1.1" id="Layer_1" xmlns="http://www.w3.org/2000/svg" xmlns:xlink="http://www.w3.org/1999/xlink" x="0px" y="0px"
	 viewBox="-49 51 400 400" style="enable-background:new -49 51 400 400;" xml:space="preserve">
<path transform="translate(0.000000,400.000000) scale(0.100000,-0.100000)" d="M1270,3385c-315-38-634-168-903-368
	c-80-59-291-256-308-288c-10-19-13-14,213-314c206-275,205-274,218-254c87,144,273,314,454,413l49,27l81-80c151-150,230-220,241-212
	c5,5,204,147,440,317c237,169,494,354,572,410c105,74,139,104,130,112c-23,18-172,89-266,126C1918,3382,1578,3423,1270,3385z
	 M2559,2827c-231-169-388-291-389-299c0-3,29-27,64-52c130-93,254-233,346-394l43-74l-44-46c-24-26-94-99-156-162l-112-115l139-185
	c534-708,707-934,716-937c6-2,32,38,57,89c368,747,208,1637-398,2220c-44,43-84,78-90,78C2730,2950,2650,2895,2559,2827z M-194,2344
	c-228-462-265-968-105-1449c68-205,165-388,300-567C62,247,271,30,287,30c13,1,557,414,560,425c1,6-21,26-50,45
	c-65,44-210,187-263,260c-54,74-124,193-124,211c0,8,70,84,155,169s155,159,155,163c0,5-122,169-272,365c-536,703-589,772-592,772
	C-146,2440-168,2397-194,2344z M2506,785c-83-126-265-288-409-365l-65-34l-166,158l-166,158l-132-98c-73-55-332-248-576-431L548-159
	l123-60c482-233,1005-260,1494-79c203,75,388,180,555,315c77,62,250,236,250,251c0,13-415,572-424,572C2544,840,2526,815,2506,785z"
	/>
</svg>
