<?xml version="1.0" encoding="UTF-8"?><svg id="a" xmlns="http://www.w3.org/2000/svg" xmlns:xlink="http://www.w3.org/1999/xlink" viewBox="0 0 212.73 91.82"><defs><style>.c{fill:url(#b);}.d{fill:#fff;}</style><linearGradient id="b" x1="0" y1="45.91" x2="212.73" y2="45.91" gradientTransform="matrix(1, 0, 0, 1, 0, 0)" gradientUnits="userSpaceOnUse"><stop offset="0" stop-color="#91ceed"/><stop offset="1" stop-color="#00ede1"/></linearGradient></defs><rect class="c" width="212.73" height="91.82" rx="19.16" ry="19.16"/><g><g><g><path class="d" d="M165.83,41.48c-2.04,1.78-4.87,2.67-8.48,2.67s-6.49-.88-8.49-2.65c-2.01-1.77-3.01-4.49-3.01-8.17V16.53h5.94v16.8c0,.73,.06,1.45,.19,2.16,.13,.71,.39,1.33,.79,1.87,.4,.54,.96,.98,1.68,1.32,.72,.34,1.68,.51,2.89,.51,2.12,0,3.58-.47,4.39-1.42,.81-.95,1.21-2.43,1.21-4.45V16.53h5.94v16.8c0,3.66-1.02,6.38-3.06,8.15Z"/><path class="d" d="M180.94,16.53v27.02h-5.94V16.53h5.94Z"/></g><g><path class="d" d="M151.91,51.14v11.2l10.56-11.2h7.42l-10.56,10.67,11.58,16.35h-7.45l-8.14-12.15-3.41,3.44v8.7h-5.94v-27.02h5.94Z"/><path class="d" d="M174.19,54.49v-2.26c0-.6,.48-1.08,1.08-1.08h3.21c.6,0,1.08,.48,1.08,1.08v2.26c0,.6-.48,1.08-1.08,1.08h-3.21c-.6,0-1.08-.48-1.08-1.08Zm5.37,4.11v19.56h-5.37v-19.56h5.37Z"/><path class="d" d="M194.95,58.6v3.59h-3.94v9.69c0,.91,.15,1.51,.45,1.82s.91,.45,1.82,.45c.3,0,.59-.01,.87-.04,.28-.02,.54-.06,.79-.11v4.16c-.45,.08-.96,.13-1.51,.15-.56,.02-1.1,.04-1.63,.04-.83,0-1.62-.06-2.36-.17-.74-.11-1.4-.33-1.97-.66-.57-.33-1.02-.79-1.34-1.4-.33-.61-.49-1.4-.49-2.38v-11.54h-3.25v-3.59h3.25v-5.87h5.37v5.87h3.94Z"/></g></g><g><path class="d" d="M71.94,78.9c-2.83,0-5.36-1.6-6.46-4.08L43.69,25.46c-.7-1.59-.73-3.36-.08-4.97,.69-1.7,2.03-3.02,3.79-3.73,.87-.35,1.79-.53,2.74-.53,2.83,0,5.36,1.6,6.46,4.08l21.79,49.36c.7,1.59,.73,3.36,.08,4.97-.69,1.7-2.03,3.02-3.79,3.73-.87,.35-1.79,.53-2.74,.53Z"/><path class="d" d="M46.58,78.9c-2.83,0-5.36-1.6-6.46-4.08L18.33,25.46c-.7-1.59-.73-3.36-.08-4.97,.69-1.7,2.03-3.02,3.79-3.73,.87-.35,1.8-.53,2.74-.53,2.83,0,5.36,1.6,6.46,4.08l21.79,49.36c.7,1.59,.73,3.36,.08,4.97-.69,1.7-2.03,3.02-3.79,3.73-.87,.35-1.79,.53-2.74,.53Z"/><path class="d" d="M82.06,44.29c-2.83,0-5.36-1.6-6.46-4.08l-6.51-14.75c-.7-1.59-.73-3.36-.08-4.97,.69-1.7,2.03-3.02,3.79-3.73,.87-.35,1.79-.53,2.74-.53,2.83,0,5.36,1.6,6.46,4.08l6.51,14.75c.7,1.59,.73,3.36,.08,4.97-.69,1.7-2.03,3.02-3.79,3.73-.87,.35-1.79,.53-2.74,.53Z"/><path class="d" d="M112.28,78.96c-.55,0-1.11-.02-1.67-.06-4.92-.35-9.07-2.17-11.69-3.64-.32-.18-.64-.39-.94-.63l-.09-.07-.16-.09c-.55-.26-1.05-.59-1.5-1-1.19-1.07-1.87-2.52-1.91-4.09-.05-1.61,.57-3.15,1.74-4.34,1.27-1.29,3.07-2.03,4.93-2.03,1.36,0,2.67,.38,3.81,1.11,.25,.16,.37,.26,.56,.44,.19,.17,.41,.37,.77,.64l.08,.06,.15,.08c1.3,.65,3.31,1.45,5.47,1.6,.24,.02,.47,.03,.7,.03,2.35,0,4.32-.88,6.17-2.77,3.84-3.9,2.14-8.1,1.52-9.29-.57-1.12-2.86-4.77-8.14-4.77-.44,0-.91,.03-1.37,.08-.22,.03-.44,.04-.66,.04h-.11c-3.18,0-5.82-2.26-6.14-5.27-.35-3.29,2.19-6.28,5.67-6.68,.94-.11,1.89-.16,2.82-.16,8.34,0,15.75,4.33,19.33,11.31,1.84,3.57,2.53,7.52,1.99,11.43-.58,4.21-2.56,8.14-5.75,11.38-4.2,4.27-9.46,6.58-15.19,6.67h-.39Z"/><path class="d" d="M109.95,50.09c-1.55,0-3.03-.54-4.16-1.52-1.22-1.04-1.93-2.48-2.01-4.05-.08-1.6,.5-3.15,1.64-4.37l11.23-11.92-16.13,.02c-1.75,0-3.36-.66-4.54-1.86-1.09-1.11-1.68-2.57-1.65-4.1,.06-3.26,2.9-5.97,6.34-6.03l21.67-.03c3.99,0,7.57,2.23,9.14,5.68,1.56,3.44,.84,7.49-1.83,10.33l-14.86,15.78c-1.2,1.28-2.91,2.02-4.7,2.05h-.11Z"/></g></g></svg>