<svg id="Layer_1" data-name="Layer 1" xmlns="http://www.w3.org/2000/svg" viewBox="0 0 142 30"><defs><style>.cls-1{fill:#041836;}.cls-2{fill:#2e7daf;}.cls-3{fill:#fff;}.cls-4{fill:#b7e803;}</style></defs><path class="cls-1" d="M52,4.33l-4,11.8H44.84l-2.24-8-2.27,8H37.16l-4-11.8H36.5L38.83,13l2.32-8.62h3L46.52,13l2.31-8.62Z"/><path class="cls-1" d="M61.1,11.84a3.88,3.88,0,0,1,0,.54H54.75a2.16,2.16,0,0,0,.76,1.18,2,2,0,0,0,1.31.42A3,3,0,0,0,58,13.74a3.1,3.1,0,0,0,1-.69l1.56,1.57a4.63,4.63,0,0,1-1.7,1.19,5.67,5.67,0,0,1-2.27.42A5.34,5.34,0,0,1,54,15.66a4.05,4.05,0,0,1-1.67-1.61,5,5,0,0,1-.58-2.43,5.24,5.24,0,0,1,.58-2.47A4,4,0,0,1,54,7.5a5.17,5.17,0,0,1,2.49-.57A4.37,4.37,0,0,1,59.9,8.24,5.16,5.16,0,0,1,61.1,11.84ZM57.73,9.5A1.66,1.66,0,0,0,56.5,9a1.59,1.59,0,0,0-1.18.47,2.36,2.36,0,0,0-.64,1.28h3.5A1.82,1.82,0,0,0,57.73,9.5Z"/><path class="cls-1" d="M72.13,9.15a5.6,5.6,0,0,1,.52,2.47,5.44,5.44,0,0,1-.51,2.43,3.93,3.93,0,0,1-1.46,1.61,4.16,4.16,0,0,1-2.21.57,3.56,3.56,0,0,1-1.55-.33A3.11,3.11,0,0,1,65.73,15v1.17h-3V3.64h3V8.2a3.21,3.21,0,0,1,2.68-1.27,4.17,4.17,0,0,1,2.22.57A3.94,3.94,0,0,1,72.13,9.15Zm-2.5,2.41a2.49,2.49,0,0,0-.53-1.65,1.81,1.81,0,0,0-1.44-.63,1.7,1.7,0,0,0-1.39.63,2.45,2.45,0,0,0-.54,1.65,2.41,2.41,0,0,0,.54,1.63,1.72,1.72,0,0,0,1.39.62,1.84,1.84,0,0,0,1.44-.62A2.46,2.46,0,0,0,69.63,11.56Z"/><path class="cls-1" d="M82.61,12.41a3.62,3.62,0,0,1-.59,2,3.78,3.78,0,0,1-1.67,1.36,6.2,6.2,0,0,1-2.53.49,8.23,8.23,0,0,1-2.54-.41,6.46,6.46,0,0,1-2.12-1l1.15-2.17a5.33,5.33,0,0,0,1.58.94,4.55,4.55,0,0,0,1.68.32,2.46,2.46,0,0,0,1.5-.39,1.22,1.22,0,0,0,.52-1.07,1.24,1.24,0,0,0-.52-1.08A2.59,2.59,0,0,0,77.56,11h-2V9.32L78.3,6.69H73.78V4.33H82V6.12L78.82,9.06l.62.12a4.16,4.16,0,0,1,2.31,1A3,3,0,0,1,82.61,12.41Z"/><path class="cls-2" d="M93.5,13.15a1.46,1.46,0,0,0,1.15-.53,2.06,2.06,0,0,0,.45-1.38V4.33H99v6.91A5.34,5.34,0,0,1,98.34,14a4.64,4.64,0,0,1-1.94,1.81,6.37,6.37,0,0,1-2.91.64,6.48,6.48,0,0,1-2.93-.64,4.44,4.44,0,0,1-2-1.81,5.17,5.17,0,0,1-.71-2.71V4.33h3.91v6.91a1.94,1.94,0,0,0,.5,1.38A1.63,1.63,0,0,0,93.5,13.15Z"/><path class="cls-2" d="M105.37,4.33v11.8h-3.9V4.33Z"/><path class="cls-2" d="M119.53,16.13,117,12l-1.11,1.24v2.86H112V4.33h3.91V8.64l3.52-4.31h4.49l-4.23,4.72,4.48,7.08Z"/><path class="cls-2" d="M129.19,4.3a1.87,1.87,0,0,1-.54,1.38,1.89,1.89,0,0,1-1.38.54,1.93,1.93,0,0,1-1.38-.54,1.9,1.9,0,0,1-.53-1.38,1.89,1.89,0,0,1,.53-1.38,1.93,1.93,0,0,1,1.38-.54,1.89,1.89,0,0,1,1.38.54A1.85,1.85,0,0,1,129.19,4.3Zm0,2.63v9.2h-3.79V6.93Z"/><path class="cls-2" d="M137.41,16.15a7.48,7.48,0,0,1-1.5.15,3.46,3.46,0,0,1-2.47-.86,2.86,2.86,0,0,1-.95-2.27V9.82h-1.26V7.43h1.26V4.85h3.77V7.43h2.16V9.82h-2.16V12.6a.74.74,0,0,0,.21.57.61.61,0,0,0,.53.2,3.15,3.15,0,0,0,.95-.23l.64,2.59A3.85,3.85,0,0,1,137.41,16.15Z"/><path class="cls-1" d="M37.29,21.5,39,24.79l1.67-3.29h1.12v5.11h-.9V23l-1.59,3.13h-.62L37.07,23v3.66h-.89V21.5Z"/><path class="cls-1" d="M48.48,25.53H46l-.45,1.08h-1l2.23-5.11h1L50,26.61h-1Zm-.35-.84-.89-2.14-.91,2.14Z"/><path class="cls-1" d="M57.25,22.74a2.71,2.71,0,0,1,0,2.63,2.41,2.41,0,0,1-1,.91,2.92,2.92,0,0,1-1.4.33H52.81V21.5h2.12a2.91,2.91,0,0,1,1.37.32A2.47,2.47,0,0,1,57.25,22.74Zm-.87,2.19a1.75,1.75,0,0,0,.21-.87,1.72,1.72,0,0,0-.22-.88,1.55,1.55,0,0,0-.59-.6,1.8,1.8,0,0,0-.86-.22H53.79v3.39H55a1.63,1.63,0,0,0,.85-.22A1.46,1.46,0,0,0,56.38,24.93Z"/><path class="cls-1" d="M64.55,21.5v.86H61.79v1.26h2.47v.85H61.79v1.29h2.85v.85H60.81V21.5Z"/><path class="cls-1" d="M76.36,22.78a1.11,1.11,0,0,1-.89,1.13,1.38,1.38,0,0,1,.8.44,1.27,1.27,0,0,1,.29.85,1.2,1.2,0,0,1-.51,1,2.28,2.28,0,0,1-1.38.38H72.33V21.5H74.6a2.13,2.13,0,0,1,1.29.35A1.07,1.07,0,0,1,76.36,22.78Zm-1,.17a.54.54,0,0,0-.21-.45.91.91,0,0,0-.6-.15H73.31v1.24h1.24a1,1,0,0,0,.6-.17A.57.57,0,0,0,75.36,23Zm.18,2.13a.6.6,0,0,0-.26-.5,1.29,1.29,0,0,0-.73-.17H73.31v1.35h1.24a1.22,1.22,0,0,0,.73-.17A.6.6,0,0,0,75.54,25.08Z"/><path class="cls-1" d="M81.71,24.94v1.67h-1V25l-1.9-3.47h1l1.39,2.4,1.38-2.4h1Z"/><path class="cls-1" d="M91.84,21.5l1.69,3.29L95.2,21.5h1.12v5.11h-.9V23l-1.59,3.13h-.62L91.61,23v3.66h-.89V21.5Z"/><path class="cls-1" d="M104.55,22.72a2.53,2.53,0,0,1,.36,1.33,2.59,2.59,0,0,1-1.34,2.28,2.9,2.9,0,0,1-2.76,0,2.58,2.58,0,0,1-1-.95,2.55,2.55,0,0,1-.36-1.33,2.53,2.53,0,0,1,.36-1.33,2.56,2.56,0,0,1,1-.94,3,3,0,0,1,2.76,0A2.53,2.53,0,0,1,104.55,22.72Zm-3.85.45a1.73,1.73,0,0,0,0,1.76,1.78,1.78,0,0,0,.64.64,1.7,1.7,0,0,0,.86.23,1.7,1.7,0,0,0,1.48-.87,1.8,1.8,0,0,0,0-1.76,1.59,1.59,0,0,0-.63-.63,1.67,1.67,0,0,0-.85-.23,1.77,1.77,0,0,0-.87.23A1.59,1.59,0,0,0,100.7,23.17Z"/><path class="cls-1" d="M110.43,25.1h-1.34v1.5h-1V21.5h2.13a2.34,2.34,0,0,1,1.54.46,1.65,1.65,0,0,1,.54,1.3,1.93,1.93,0,0,1-.26,1,1.6,1.6,0,0,1-.76.64l1.12,1.69h-1.11Zm-.19-.85a1.31,1.31,0,0,0,.85-.24.89.89,0,0,0,.29-.72.82.82,0,0,0-.29-.7,1.37,1.37,0,0,0-.85-.23h-1.15v1.89Z"/><path class="cls-1" d="M119,25.53h-2.49l-.45,1.08h-1l2.24-5.11h1l2.21,5.11h-1.05Zm-.35-.84-.89-2.14-.9,2.14Z"/><path class="cls-1" d="M124.31,21.5v4.23h2.2v.88h-3.18V21.5Z"/><path class="cls-1" d="M130.48,21.5v5.11h-1V21.5Z"/><path class="cls-1" d="M135.76,22.31a1.09,1.09,0,0,0-.55.13.42.42,0,0,0-.2.37.5.5,0,0,0,.14.35,1.17,1.17,0,0,0,.36.23,4.45,4.45,0,0,0,.58.21,7.58,7.58,0,0,1,.86.3,1.85,1.85,0,0,1,.56.45,1.45,1.45,0,0,1,0,1.6,1.48,1.48,0,0,1-.69.53,2.53,2.53,0,0,1-1,.19,3.13,3.13,0,0,1-1.17-.23,3.07,3.07,0,0,1-1-.59L134,25a2.9,2.9,0,0,0,.86.56,2.23,2.23,0,0,0,.9.2,1.08,1.08,0,0,0,.64-.16.47.47,0,0,0,.24-.42.49.49,0,0,0-.14-.36,1.06,1.06,0,0,0-.37-.23c-.14-.06-.34-.12-.6-.2a6.52,6.52,0,0,1-.84-.3,1.33,1.33,0,0,1-.56-.44,1.18,1.18,0,0,1-.24-.77,1.29,1.29,0,0,1,.24-.78,1.62,1.62,0,0,1,.67-.52,2.59,2.59,0,0,1,1-.18,3.54,3.54,0,0,1,1.85.54l-.39.86a4.22,4.22,0,0,0-.81-.38A2.62,2.62,0,0,0,135.76,22.31Z"/><path class="cls-1" d="M14.41,27.75a13,13,0,1,0-13-13A13,13,0,0,0,14.41,27.75Z"/><path class="cls-3" d="M24.07,13.56a5.61,5.61,0,0,0-5.72-5.33,5.84,5.84,0,0,0-4,1.51,5.76,5.76,0,0,0-3.92-1.51,5.63,5.63,0,0,0-5.72,5.4v0a11.67,11.67,0,0,0,1.66,5.7,14.18,14.18,0,0,0,1.11,1.69c.15.2.28.36.38.48l.11.13,0,0v0h0a1.86,1.86,0,0,0,2.58.17,1.73,1.73,0,0,0,.18-2.49h0l-.07-.08c-.06-.07-.16-.19-.27-.34a11.05,11.05,0,0,1-.86-1.31,8.41,8.41,0,0,1-1.21-4,2.07,2.07,0,0,1,4.13,0,1.66,1.66,0,0,0,.2.77,1.83,1.83,0,0,0,1.71,1.13,1.79,1.79,0,0,0,1.83-1.75v-.23a2.07,2.07,0,0,1,4.12,0,7.41,7.41,0,0,1-.83,3.18A9.84,9.84,0,0,1,19,17.86l-.18.27,0,.06h0l0,0a1.87,1.87,0,0,1,1.43-.66A1.8,1.8,0,0,1,22,19.31a1.74,1.74,0,0,1-.29,1h0l0,0,.08-.11.27-.4a14.29,14.29,0,0,0,.78-1.41,10.86,10.86,0,0,0,1.17-4.68v0Z"/><path class="cls-4" d="M20.18,17.56a1.85,1.85,0,0,0-1.43.66,1.7,1.7,0,0,0-.4,1.09,1.8,1.8,0,0,0,1.83,1.75,1.87,1.87,0,0,0,1.45-.69l.08-.11a1.67,1.67,0,0,0,.3-1A1.8,1.8,0,0,0,20.18,17.56Z"/></svg>