<svg width="24" height="24" viewBox="0 0 24 24" fill="none" xmlns="http://www.w3.org/2000/svg">
<path d="M21.0114 2.75L13.1982 8.53117L14.6512 5.12414L21.0114 2.75Z" fill="url(#paint0_linear_11326_34060)"/>
<path d="M21.0114 2.75L13.1982 8.53117L14.6512 5.12414L21.0114 2.75Z" fill="url(#paint1_linear_11326_34060)"/>
<path d="M2.98926 2.75L10.7328 8.58512L9.34951 5.12413L2.98926 2.75Z" fill="url(#paint2_linear_11326_34060)"/>
<path d="M2.98926 2.75L10.7328 8.58512L9.34951 5.12413L2.98926 2.75Z" fill="url(#paint3_linear_11326_34060)"/>
<path d="M18.198 16.1545L16.1191 19.3303L20.5705 20.556L21.8457 16.224L18.198 16.1545Z" fill="url(#paint4_linear_11326_34060)"/>
<path d="M18.198 16.1545L16.1191 19.3303L20.5705 20.556L21.8457 16.224L18.198 16.1545Z" fill="url(#paint5_linear_11326_34060)"/>
<path d="M2.16211 16.224L3.42951 20.556L7.8732 19.3303L5.80205 16.1545L2.16211 16.224Z" fill="url(#paint6_linear_11326_34060)"/>
<path d="M2.16211 16.224L3.42951 20.556L7.8732 19.3303L5.80205 16.1545L2.16211 16.224Z" fill="url(#paint7_linear_11326_34060)"/>
<path d="M7.63394 10.7897L6.39746 12.6551L10.8025 12.8555L10.6557 8.11499L7.63394 10.7897Z" fill="url(#paint8_linear_11326_34060)"/>
<path d="M7.63394 10.7897L6.39746 12.6551L10.8025 12.8555L10.6557 8.11499L7.63394 10.7897Z" fill="url(#paint9_linear_11326_34060)"/>
<path d="M16.3667 10.7897L13.2987 8.06104L13.1982 12.8556L17.6032 12.6551L16.3667 10.7897Z" fill="url(#paint10_linear_11326_34060)"/>
<path d="M7.87305 19.3304L10.5392 18.0432L8.24401 16.2549L7.87305 19.3304Z" fill="#E27625"/>
<path d="M13.46 18.0432L16.1184 19.3304L15.7552 16.2549L13.46 18.0432Z" fill="#E27625"/>
<path d="M16.1184 19.3302L13.46 18.043L13.6763 19.7696L13.6531 20.5019L16.1184 19.3302Z" fill="url(#paint11_linear_11326_34060)"/>
<path d="M7.87305 19.3302L10.3461 20.5019L10.3306 19.7696L10.5392 18.043L7.87305 19.3302Z" fill="url(#paint12_radial_11326_34060)"/>
<path d="M10.3929 15.1136L8.18262 14.4662L9.74369 13.7493L10.3929 15.1136Z" fill="url(#paint13_linear_11326_34060)"/>
<path d="M13.6084 15.1136L14.2576 13.7493L15.8264 14.4662L13.6084 15.1136Z" fill="url(#paint14_linear_11326_34060)"/>
<path d="M7.87287 19.3303L8.2593 16.1545L5.80176 16.224L7.87287 19.3303Z" fill="#CC6228"/>
<path d="M15.7402 16.1545L16.1189 19.3303L18.1978 16.224L15.7402 16.1545Z" fill="#CC6228"/>
<path d="M17.6032 12.6548L13.1982 12.8552L13.6078 15.1138L14.257 13.7494L15.8258 14.4662L17.6032 12.6548Z" fill="#CC6228"/>
<path d="M8.18265 14.4662L9.74372 13.7494L10.3929 15.1138L10.8025 12.8552L6.39746 12.6548L8.18265 14.4662Z" fill="#CC6228"/>
<path d="M6.39746 12.6548L8.24449 16.2545L8.18263 14.4662L6.39746 12.6548Z" fill="#E27525"/>
<path d="M15.8254 14.4662L15.7559 16.2545L17.6029 12.6548L15.8254 14.4662Z" fill="#E27525"/>
<path d="M10.8022 12.8555L10.3926 15.114L10.9104 17.781L11.0263 14.2661L10.8022 12.8555Z" fill="#E27525"/>
<path d="M13.1969 12.8555L12.9805 14.2584L13.0887 17.781L13.6065 15.114L13.1969 12.8555Z" fill="#E27525"/>
<path d="M13.6066 15.1138L13.0889 17.7808L13.4598 18.0429L15.7551 16.2546L15.8246 14.4663L13.6066 15.1138Z" fill="url(#paint15_linear_11326_34060)"/>
<path d="M8.18262 14.4663L8.24448 16.2546L10.5397 18.0429L10.9107 17.7808L10.3929 15.1138L8.18262 14.4663Z" fill="url(#paint16_linear_11326_34060)"/>
<path d="M13.6537 20.502L13.6768 19.7697L13.4759 19.6001L10.5238 19.6001L10.3306 19.7697L10.3461 20.502L7.87305 19.3303L8.73859 20.0395L10.4929 21.2497L13.4991 21.2497L15.2611 20.0395L16.1189 19.3303L13.6537 20.502Z" fill="#C0AC9D"/>
<path d="M13.46 18.0433L13.089 17.7812L10.9097 17.7812L10.5388 18.0433L10.3301 19.77L10.5233 19.6004L13.4754 19.6004L13.6764 19.77L13.46 18.0433Z" fill="url(#paint17_linear_11326_34060)"/>
<path d="M21.3436 8.90885L22.0005 5.71767L21.0113 2.75L13.4609 8.33849L16.3667 10.7897L20.4703 11.9845L21.3745 10.9285L20.9804 10.6432L21.6063 10.0728L21.1272 9.70283L21.7532 9.22491L21.3436 8.90885Z" fill="url(#paint18_linear_11326_34060)"/>
<path d="M2 5.71791L2.66462 8.9091L2.23957 9.22516L2.87328 9.70308L2.39413 10.0731L3.02011 10.6435L2.62597 10.9287L3.53017 11.9847L7.63382 10.7899L10.5395 8.33873L2.9892 2.75024L2 5.71791Z" fill="url(#paint19_linear_11326_34060)"/>
<path d="M20.47 11.9845L16.3664 10.7898L17.6029 12.6552L15.7559 16.2549L18.1979 16.2241L21.8456 16.2241L20.47 11.9845Z" fill="url(#paint20_radial_11326_34060)"/>
<path d="M20.47 11.9845L16.3664 10.7898L17.6029 12.6552L15.7559 16.2549L18.1979 16.2241L21.8456 16.2241L20.47 11.9845Z" fill="url(#paint21_linear_11326_34060)"/>
<path d="M7.63358 10.7898L3.52998 11.9845L2.16211 16.2241L5.80205 16.2241L8.2441 16.2549L6.39711 12.6552L7.63358 10.7898Z" fill="url(#paint22_radial_11326_34060)"/>
<path d="M7.63358 10.7898L3.52998 11.9845L2.16211 16.2241L5.80205 16.2241L8.2441 16.2549L6.39711 12.6552L7.63358 10.7898Z" fill="url(#paint23_linear_11326_34060)"/>
<path d="M13.1992 12.8556L13.4619 8.33857L14.652 5.12427L9.35059 5.12427L10.5407 8.33857L10.8034 12.8556L10.9039 14.2739L10.9117 17.7812L13.091 17.7812L13.0987 14.2739L13.1992 12.8556Z" fill="url(#paint24_linear_11326_34060)"/>
<defs>
<linearGradient id="paint0_linear_11326_34060" x1="14.1751" y1="8.126" x2="24.2155" y2="-2.07259" gradientUnits="userSpaceOnUse">
<stop stop-color="#E17726"/>
<stop offset="1" stop-color="#E17726" stop-opacity="0"/>
</linearGradient>
<linearGradient id="paint1_linear_11326_34060" x1="17.1744" y1="8.16694" x2="14.5312" y2="-0.344985" gradientUnits="userSpaceOnUse">
<stop stop-color="#E27625"/>
<stop offset="1" stop-color="#FCA15C" stop-opacity="0.83"/>
</linearGradient>
<linearGradient id="paint2_linear_11326_34060" x1="11.4878" y1="8.60035" x2="1.60542" y2="-1.75635" gradientUnits="userSpaceOnUse">
<stop stop-color="#E27625"/>
<stop offset="1" stop-color="#E27625" stop-opacity="0"/>
</linearGradient>
<linearGradient id="paint3_linear_11326_34060" x1="6.93005" y1="8.21749" x2="4.22192" y2="-0.345899" gradientUnits="userSpaceOnUse">
<stop stop-color="#E27625"/>
<stop offset="1" stop-color="#FCA15C" stop-opacity="0.83"/>
</linearGradient>
<linearGradient id="paint4_linear_11326_34060" x1="15.1238" y1="16.1901" x2="20.7387" y2="24.1949" gradientUnits="userSpaceOnUse">
<stop offset="0.256463" stop-color="#E27625"/>
<stop offset="1" stop-color="#E27625" stop-opacity="0"/>
</linearGradient>
<linearGradient id="paint5_linear_11326_34060" x1="19.0335" y1="20.2787" x2="16.9575" y2="13.8429" gradientUnits="userSpaceOnUse">
<stop stop-color="#E27625"/>
<stop offset="1" stop-color="#FCA15C" stop-opacity="0.83"/>
</linearGradient>
<linearGradient id="paint6_linear_11326_34060" x1="8.32406" y1="16.1901" x2="1.05065" y2="22.8311" gradientUnits="userSpaceOnUse">
<stop offset="0.247205" stop-color="#E27625"/>
<stop offset="1" stop-color="#E27625" stop-opacity="0"/>
</linearGradient>
<linearGradient id="paint7_linear_11326_34060" x1="5.06855" y1="20.2787" x2="2.98806" y2="13.8462" gradientUnits="userSpaceOnUse">
<stop stop-color="#E27625"/>
<stop offset="1" stop-color="#FCA15C" stop-opacity="0.83"/>
</linearGradient>
<linearGradient id="paint8_linear_11326_34060" x1="7.2177" y1="12.079" x2="15.677" y2="5.1218" gradientUnits="userSpaceOnUse">
<stop stop-color="#E27625"/>
<stop offset="1" stop-color="#E27625" stop-opacity="0"/>
</linearGradient>
<linearGradient id="paint9_linear_11326_34060" x1="8.63922" y1="12.5569" x2="5.76845" y2="6.20062" gradientUnits="userSpaceOnUse">
<stop stop-color="#E27625"/>
<stop offset="1" stop-color="#FCA15C" stop-opacity="0.83"/>
</linearGradient>
<linearGradient id="paint10_linear_11326_34060" x1="15.44" y1="12.5535" x2="12.5148" y2="6.14973" gradientUnits="userSpaceOnUse">
<stop stop-color="#E27625"/>
<stop offset="1" stop-color="#FCA15C" stop-opacity="0.83"/>
</linearGradient>
<linearGradient id="paint11_linear_11326_34060" x1="14.7892" y1="18.043" x2="17.6516" y2="24.4464" gradientUnits="userSpaceOnUse">
<stop stop-color="#D5BFB2"/>
<stop offset="1" stop-color="#D5BFB2" stop-opacity="0"/>
</linearGradient>
<radialGradient id="paint12_radial_11326_34060" cx="0" cy="0" r="1" gradientUnits="userSpaceOnUse" gradientTransform="translate(10.5107 17.509) rotate(116.98) scale(12.5928 13.6543)">
<stop stop-color="#D5BFB2"/>
<stop offset="1" stop-color="#D5BFB2" stop-opacity="0"/>
</radialGradient>
<linearGradient id="paint13_linear_11326_34060" x1="9.28774" y1="13.7493" x2="9.28774" y2="15.1136" gradientUnits="userSpaceOnUse">
<stop stop-color="#041836"/>
<stop offset="1" stop-color="#17396B"/>
</linearGradient>
<linearGradient id="paint14_linear_11326_34060" x1="14.7174" y1="13.7493" x2="14.7174" y2="15.1136" gradientUnits="userSpaceOnUse">
<stop stop-color="#041836"/>
<stop offset="1" stop-color="#17396B"/>
</linearGradient>
<linearGradient id="paint15_linear_11326_34060" x1="15.5178" y1="14.4508" x2="8.48153" y2="22.5148" gradientUnits="userSpaceOnUse">
<stop offset="0.200338" stop-color="#F5841F"/>
<stop offset="1" stop-color="#F5841F" stop-opacity="0"/>
</linearGradient>
<linearGradient id="paint16_linear_11326_34060" x1="8.16656" y1="14.4508" x2="13.7797" y2="21.8033" gradientUnits="userSpaceOnUse">
<stop offset="0.32798" stop-color="#F5841F"/>
<stop offset="1" stop-color="#F5841F" stop-opacity="0"/>
</linearGradient>
<linearGradient id="paint17_linear_11326_34060" x1="12.0032" y1="17.7812" x2="12.0032" y2="19.77" gradientUnits="userSpaceOnUse">
<stop stop-color="#041836"/>
<stop offset="1" stop-color="#17396B"/>
</linearGradient>
<linearGradient id="paint18_linear_11326_34060" x1="15.9246" y1="10.012" x2="21.9717" y2="5.83055" gradientUnits="userSpaceOnUse">
<stop stop-color="#592B0D"/>
<stop offset="1" stop-color="#763E1A"/>
</linearGradient>
<linearGradient id="paint19_linear_11326_34060" x1="9.94157" y1="8.72543" x2="2.41488" y2="4.67259" gradientUnits="userSpaceOnUse">
<stop stop-color="#592B0D"/>
<stop offset="1" stop-color="#763E1A"/>
</linearGradient>
<radialGradient id="paint20_radial_11326_34060" cx="0" cy="0" r="1" gradientUnits="userSpaceOnUse" gradientTransform="translate(17.1687 13.1899) rotate(11.6894) scale(8.80836 9.81509)">
<stop offset="0.263819" stop-color="#F5841F"/>
<stop offset="1" stop-color="#F5841F" stop-opacity="0"/>
</radialGradient>
<linearGradient id="paint21_linear_11326_34060" x1="18.855" y1="15.9106" x2="15.945" y2="8.1841" gradientUnits="userSpaceOnUse">
<stop stop-color="#E27625"/>
<stop offset="1" stop-color="#FCA15C" stop-opacity="0.83"/>
</linearGradient>
<radialGradient id="paint22_radial_11326_34060" cx="0" cy="0" r="1" gradientUnits="userSpaceOnUse" gradientTransform="translate(8.87747 16.1901) rotate(-159.818) scale(15.5826 17.3415)">
<stop offset="0.299865" stop-color="#F5841F"/>
<stop offset="0.567167" stop-color="#F5841F" stop-opacity="0"/>
</radialGradient>
<linearGradient id="paint23_linear_11326_34060" x1="5.25731" y1="15.9106" x2="2.34448" y2="8.18654" gradientUnits="userSpaceOnUse">
<stop stop-color="#E27625"/>
<stop offset="1" stop-color="#FCA15C" stop-opacity="0.83"/>
</linearGradient>
<linearGradient id="paint24_linear_11326_34060" x1="11.9617" y1="5.1218" x2="11.9617" y2="30.5787" gradientUnits="userSpaceOnUse">
<stop offset="0.267932" stop-color="#F5841F"/>
<stop offset="1" stop-color="#FFC796" stop-opacity="0.89"/>
</linearGradient>
</defs>
</svg>
