<svg width="54" height="50" viewBox="0 0 54 50" fill="none" xmlns="http://www.w3.org/2000/svg">
<path d="M51.0304 0.333496L30.1953 15.7499L34.0698 6.66453L51.0304 0.333496Z" fill="url(#paint0_linear_11808_11417)"/>
<path d="M51.0304 0.333496L30.1953 15.7499L34.0698 6.66453L51.0304 0.333496Z" fill="url(#paint1_linear_11808_11417)"/>
<path d="M2.9707 0.333496L23.6202 15.8938L19.9314 6.66451L2.9707 0.333496Z" fill="url(#paint2_linear_11808_11417)"/>
<path d="M2.9707 0.333496L23.6202 15.8938L19.9314 6.66451L2.9707 0.333496Z" fill="url(#paint3_linear_11808_11417)"/>
<path d="M43.5289 36.0786L37.9854 44.5474L49.8557 47.8157L53.2562 36.2637L43.5289 36.0786Z" fill="url(#paint4_linear_11808_11417)"/>
<path d="M43.5289 36.0786L37.9854 44.5474L49.8557 47.8157L53.2562 36.2637L43.5289 36.0786Z" fill="url(#paint5_linear_11808_11417)"/>
<path d="M0.766602 36.2637L4.14635 47.8157L15.9962 44.5474L10.4731 36.0786L0.766602 36.2637Z" fill="url(#paint6_linear_11808_11417)"/>
<path d="M0.766602 36.2637L4.14635 47.8157L15.9962 44.5474L10.4731 36.0786L0.766602 36.2637Z" fill="url(#paint7_linear_11808_11417)"/>
<path d="M15.3568 21.7728L12.0596 26.7472L23.8063 27.2816L23.4148 14.6401L15.3568 21.7728Z" fill="url(#paint8_linear_11808_11417)"/>
<path d="M15.3568 21.7728L12.0596 26.7472L23.8063 27.2816L23.4148 14.6401L15.3568 21.7728Z" fill="url(#paint9_linear_11808_11417)"/>
<path d="M38.6446 21.7726L30.4632 14.4961L30.1953 27.2815L41.9419 26.7471L38.6446 21.7726Z" fill="url(#paint10_linear_11808_11417)"/>
<path d="M15.9961 44.5477L23.1059 41.115L16.9853 36.3462L15.9961 44.5477Z" fill="#E27625"/>
<path d="M30.8945 41.115L37.9837 44.5477L37.0151 36.3462L30.8945 41.115Z" fill="#E27625"/>
<path d="M37.9837 44.5474L30.8945 41.1147L31.4715 45.7191L31.4096 47.6719L37.9837 44.5474Z" fill="url(#paint11_linear_11808_11417)"/>
<path d="M15.9961 44.5474L22.5908 47.6719L22.5495 45.7191L23.1059 41.1147L15.9961 44.5474Z" fill="url(#paint12_radial_11808_11417)"/>
<path d="M22.7143 33.3033L16.8203 31.5767L20.9832 29.665L22.7143 33.3033Z" fill="url(#paint13_linear_11808_11417)"/>
<path d="M31.2891 33.3033L33.0202 29.665L37.2037 31.5767L31.2891 33.3033Z" fill="url(#paint14_linear_11808_11417)"/>
<path d="M15.9956 44.5474L17.0261 36.0786L10.4727 36.2637L15.9956 44.5474Z" fill="#CC6228"/>
<path d="M36.9736 36.0786L37.9835 44.5474L43.5271 36.2637L36.9736 36.0786Z" fill="#CC6228"/>
<path d="M41.9419 26.7466L30.1953 27.281L31.2875 33.3038L33.0187 29.6654L37.2021 31.5771L41.9419 26.7466Z" fill="#CC6228"/>
<path d="M16.8201 31.5771L20.9829 29.6654L22.7141 33.3038L23.8063 27.281L12.0596 26.7466L16.8201 31.5771Z" fill="#CC6228"/>
<path d="M12.0596 26.7466L16.985 36.346L16.82 31.5771L12.0596 26.7466Z" fill="#E27525"/>
<path d="M37.202 31.5771L37.0166 36.346L41.942 26.7466L37.202 31.5771Z" fill="#E27525"/>
<path d="M23.8072 27.2812L22.7148 33.3041L24.0956 40.4161L24.4048 31.0429L23.8072 27.2812Z" fill="#E27525"/>
<path d="M30.1923 27.2812L29.6152 31.0225L29.9038 40.4161L31.2845 33.3041L30.1923 27.2812Z" fill="#E27525"/>
<path d="M31.285 33.3039L29.9043 40.4159L30.8935 41.1148L37.0142 36.346L37.1997 31.5771L31.285 33.3039Z" fill="url(#paint15_linear_11808_11417)"/>
<path d="M16.8203 31.5771L16.9853 36.346L23.1058 41.1148L24.0951 40.4159L22.7143 33.3039L16.8203 31.5771Z" fill="url(#paint16_linear_11808_11417)"/>
<path d="M31.4111 47.6723L31.4728 45.7195L30.9371 45.2673L23.0648 45.2673L22.5495 45.7195L22.5908 47.6723L15.9961 44.5479L18.3042 46.4389L22.9823 49.6661L30.9988 49.6661L35.6975 46.4389L37.985 44.5479L31.4111 47.6723Z" fill="#C0AC9D"/>
<path d="M30.8932 41.1153L29.904 40.4165L24.0924 40.4165L23.1034 41.1153L22.5469 45.7198L23.0621 45.2675L30.9344 45.2675L31.4703 45.7198L30.8932 41.1153Z" fill="url(#paint17_linear_11808_11417)"/>
<path d="M51.9149 16.7571L53.6667 8.24728L51.0287 0.333496L30.8945 15.2361L38.6431 21.7726L49.5861 24.9588L51.9974 22.1427L50.9464 21.3821L52.6155 19.8611L51.3379 18.8744L53.0072 17.5999L51.9149 16.7571Z" fill="url(#paint18_linear_11808_11417)"/>
<path d="M0.333008 8.24777L2.10532 16.7576L0.971871 17.6004L2.66174 18.8749L1.38403 19.8616L3.0533 21.3825L2.00227 22.1432L4.41345 24.9592L15.3565 21.7731L23.1051 15.2366L2.97087 0.333984L0.333008 8.24777Z" fill="url(#paint19_linear_11808_11417)"/>
<path d="M49.5876 24.9589L38.6447 21.7729L41.942 26.7474L37.0166 36.3466L43.5288 36.2644L53.2559 36.2644L49.5876 24.9589Z" fill="url(#paint20_radial_11808_11417)"/>
<path d="M49.5876 24.9589L38.6447 21.7729L41.942 26.7474L37.0166 36.3466L43.5288 36.2644L53.2559 36.2644L49.5876 24.9589Z" fill="url(#paint21_linear_11808_11417)"/>
<path d="M15.3572 21.7729L4.41426 24.9589L0.766602 36.2644L10.4731 36.2644L16.9853 36.3466L12.0599 26.7474L15.3572 21.7729Z" fill="url(#paint22_radial_11808_11417)"/>
<path d="M15.3572 21.7729L4.41426 24.9589L0.766602 36.2644L10.4731 36.2644L16.9853 36.3466L12.0599 26.7474L15.3572 21.7729Z" fill="url(#paint23_linear_11808_11417)"/>
<path d="M30.1975 27.282L30.8982 15.2365L34.0718 6.66504L19.9346 6.66504L23.1082 15.2365L23.8089 27.282L24.0768 31.0641L24.0974 40.4168L29.909 40.4168L29.9296 31.0641L30.1975 27.282Z" fill="url(#paint24_linear_11808_11417)"/>
<defs>
<linearGradient id="paint0_linear_11808_11417" x1="32.8001" y1="14.6695" x2="59.5747" y2="-12.5267" gradientUnits="userSpaceOnUse">
<stop stop-color="#E17726"/>
<stop offset="1" stop-color="#E17726" stop-opacity="0"/>
</linearGradient>
<linearGradient id="paint1_linear_11808_11417" x1="40.7985" y1="14.7787" x2="33.7499" y2="-7.9198" gradientUnits="userSpaceOnUse">
<stop stop-color="#E27625"/>
<stop offset="1" stop-color="#FCA15C" stop-opacity="0.83"/>
</linearGradient>
<linearGradient id="paint2_linear_11808_11417" x1="25.6334" y1="15.9344" x2="-0.719527" y2="-11.6834" gradientUnits="userSpaceOnUse">
<stop stop-color="#E27625"/>
<stop offset="1" stop-color="#E27625" stop-opacity="0"/>
</linearGradient>
<linearGradient id="paint3_linear_11808_11417" x1="13.4795" y1="14.9135" x2="6.2578" y2="-7.92223" gradientUnits="userSpaceOnUse">
<stop stop-color="#E27625"/>
<stop offset="1" stop-color="#FCA15C" stop-opacity="0.83"/>
</linearGradient>
<linearGradient id="paint4_linear_11808_11417" x1="35.3311" y1="36.1735" x2="50.3042" y2="57.5197" gradientUnits="userSpaceOnUse">
<stop offset="0.256463" stop-color="#E27625"/>
<stop offset="1" stop-color="#E27625" stop-opacity="0"/>
</linearGradient>
<linearGradient id="paint5_linear_11808_11417" x1="45.7568" y1="47.0763" x2="40.221" y2="29.9143" gradientUnits="userSpaceOnUse">
<stop stop-color="#E27625"/>
<stop offset="1" stop-color="#FCA15C" stop-opacity="0.83"/>
</linearGradient>
<linearGradient id="paint6_linear_11808_11417" x1="17.1985" y1="36.1735" x2="-2.19728" y2="53.8827" gradientUnits="userSpaceOnUse">
<stop offset="0.247205" stop-color="#E27625"/>
<stop offset="1" stop-color="#E27625" stop-opacity="0"/>
</linearGradient>
<linearGradient id="paint7_linear_11808_11417" x1="8.5171" y1="47.0763" x2="2.96913" y2="29.9231" gradientUnits="userSpaceOnUse">
<stop stop-color="#E27625"/>
<stop offset="1" stop-color="#FCA15C" stop-opacity="0.83"/>
</linearGradient>
<linearGradient id="paint8_linear_11808_11417" x1="14.2469" y1="25.2107" x2="36.805" y2="6.65829" gradientUnits="userSpaceOnUse">
<stop stop-color="#E27625"/>
<stop offset="1" stop-color="#E27625" stop-opacity="0"/>
</linearGradient>
<linearGradient id="paint9_linear_11808_11417" x1="18.0376" y1="26.4852" x2="10.3822" y2="9.53515" gradientUnits="userSpaceOnUse">
<stop stop-color="#E27625"/>
<stop offset="1" stop-color="#FCA15C" stop-opacity="0.83"/>
</linearGradient>
<linearGradient id="paint10_linear_11808_11417" x1="36.1733" y1="26.476" x2="28.3728" y2="9.39927" gradientUnits="userSpaceOnUse">
<stop stop-color="#E27625"/>
<stop offset="1" stop-color="#FCA15C" stop-opacity="0.83"/>
</linearGradient>
<linearGradient id="paint11_linear_11808_11417" x1="34.4391" y1="41.1147" x2="42.0722" y2="58.1905" gradientUnits="userSpaceOnUse">
<stop stop-color="#D5BFB2"/>
<stop offset="1" stop-color="#D5BFB2" stop-opacity="0"/>
</linearGradient>
<radialGradient id="paint12_radial_11808_11417" cx="0" cy="0" r="1" gradientUnits="userSpaceOnUse" gradientTransform="translate(23.0299 39.6907) rotate(116.98) scale(33.5809 36.4113)">
<stop stop-color="#D5BFB2"/>
<stop offset="1" stop-color="#D5BFB2" stop-opacity="0"/>
</radialGradient>
<linearGradient id="paint13_linear_11808_11417" x1="19.7673" y1="29.665" x2="19.7673" y2="33.3033" gradientUnits="userSpaceOnUse">
<stop stop-color="#041836"/>
<stop offset="1" stop-color="#17396B"/>
</linearGradient>
<linearGradient id="paint14_linear_11808_11417" x1="34.2464" y1="29.665" x2="34.2464" y2="33.3033" gradientUnits="userSpaceOnUse">
<stop stop-color="#041836"/>
<stop offset="1" stop-color="#17396B"/>
</linearGradient>
<linearGradient id="paint15_linear_11808_11417" x1="36.3813" y1="31.5358" x2="17.6181" y2="53.0397" gradientUnits="userSpaceOnUse">
<stop offset="0.200338" stop-color="#F5841F"/>
<stop offset="1" stop-color="#F5841F" stop-opacity="0"/>
</linearGradient>
<linearGradient id="paint16_linear_11808_11417" x1="16.7775" y1="31.5358" x2="31.7459" y2="51.1423" gradientUnits="userSpaceOnUse">
<stop offset="0.32798" stop-color="#F5841F"/>
<stop offset="1" stop-color="#F5841F" stop-opacity="0"/>
</linearGradient>
<linearGradient id="paint17_linear_11808_11417" x1="27.0086" y1="40.4165" x2="27.0086" y2="45.7198" gradientUnits="userSpaceOnUse">
<stop stop-color="#041836"/>
<stop offset="1" stop-color="#17396B"/>
</linearGradient>
<linearGradient id="paint18_linear_11808_11417" x1="37.4643" y1="19.6989" x2="53.5899" y2="8.5483" gradientUnits="userSpaceOnUse">
<stop stop-color="#592B0D"/>
<stop offset="1" stop-color="#763E1A"/>
</linearGradient>
<linearGradient id="paint19_linear_11808_11417" x1="21.5105" y1="16.2678" x2="1.43936" y2="5.46025" gradientUnits="userSpaceOnUse">
<stop stop-color="#592B0D"/>
<stop offset="1" stop-color="#763E1A"/>
</linearGradient>
<radialGradient id="paint20_radial_11808_11417" cx="0" cy="0" r="1" gradientUnits="userSpaceOnUse" gradientTransform="translate(40.7841 28.1733) rotate(11.6894) scale(23.489 26.1736)">
<stop offset="0.263819" stop-color="#F5841F"/>
<stop offset="1" stop-color="#F5841F" stop-opacity="0"/>
</radialGradient>
<linearGradient id="paint21_linear_11808_11417" x1="45.281" y1="35.4284" x2="37.5208" y2="14.8244" gradientUnits="userSpaceOnUse">
<stop stop-color="#E27625"/>
<stop offset="1" stop-color="#FCA15C" stop-opacity="0.83"/>
</linearGradient>
<radialGradient id="paint22_radial_11808_11417" cx="0" cy="0" r="1" gradientUnits="userSpaceOnUse" gradientTransform="translate(18.6742 36.1738) rotate(-159.818) scale(41.5536 46.244)">
<stop offset="0.299865" stop-color="#F5841F"/>
<stop offset="0.567167" stop-color="#F5841F" stop-opacity="0"/>
</radialGradient>
<linearGradient id="paint23_linear_11808_11417" x1="9.02046" y1="35.4284" x2="1.25293" y2="14.8309" gradientUnits="userSpaceOnUse">
<stop stop-color="#E27625"/>
<stop offset="1" stop-color="#FCA15C" stop-opacity="0.83"/>
</linearGradient>
<linearGradient id="paint24_linear_11808_11417" x1="26.8975" y1="6.65845" x2="26.8975" y2="74.5436" gradientUnits="userSpaceOnUse">
<stop offset="0.267932" stop-color="#F5841F"/>
<stop offset="1" stop-color="#FFC796" stop-opacity="0.89"/>
</linearGradient>
</defs>
</svg>
