<svg width="241" height="210" viewBox="0 0 241 210" fill="none" xmlns="http://www.w3.org/2000/svg">
<g clip-path="url(#clip0_956_11337)">
<path d="M186.772 140.439C186.772 140.439 209.827 106.943 222.228 104.424C222.228 104.424 181.348 80.3099 154.418 79.2014C127.486 78.0908 121.875 78.1993 121.875 78.1993L114.439 77.811C114.439 77.811 108.826 77.7025 81.8957 78.8132C54.9637 79.9238 14.0859 104.036 14.0859 104.036C26.4862 106.552 49.5417 140.051 49.5417 140.051C49.5417 140.051 14.0859 174.674 14.0859 238.531C49.8629 284.619 101.383 258.378 121.617 257.775C134.599 257.387 190.471 292.58 229 246.602C229 187.493 186.776 140.439 186.776 140.439H186.772Z" fill="url(#paint0_linear_956_11337)"/>
<path d="M186.772 140.439C186.772 140.439 209.827 106.943 222.228 104.424C222.228 104.424 181.348 80.3099 154.418 79.2014C127.486 78.0908 121.875 78.1993 121.875 78.1993L114.439 77.811C114.439 77.811 108.826 77.7025 81.8957 78.8132C54.9637 79.9238 14.0859 104.036 14.0859 104.036C26.4862 106.552 49.5417 140.051 49.5417 140.051C49.5417 140.051 14.0859 174.674 14.0859 238.531C49.8629 284.619 101.383 258.378 121.617 257.775C134.599 257.387 190.471 292.58 229 246.602C229 187.493 186.776 140.439 186.776 140.439H186.772Z" fill="url(#paint1_radial_956_11337)"/>
<path d="M166.162 119.653C164.927 116.963 165.391 112.937 164.156 106.376C162.921 99.8138 160.193 100.443 160.193 100.443C160.193 100.443 153.836 91.5059 154.73 100.098C155.624 108.692 155.196 112.683 154.341 118.104C155.707 120.041 156.397 124.449 156.978 128.902C139.154 126.579 133.61 127.399 129.035 127.267C129.339 129.672 128.028 131.165 125.46 132.145C124.852 132.377 124.353 132.887 124.075 133.542C122.714 136.763 119.88 137.865 118.111 137.854C116.342 137.844 113.507 136.703 112.146 133.481C111.868 132.824 111.371 132.317 110.761 132.084C108.193 131.102 106.882 129.612 107.186 127.206C101.447 126.818 85.7544 127.399 79.5532 128.562C79.1646 127.206 80.9011 119.655 82.2663 117.718C81.4133 112.297 80.404 108.885 81.2983 100.291C82.1926 91.6968 76.0304 100.382 76.0304 100.382C76.0304 100.382 73.302 99.7531 72.067 106.315C70.832 112.876 70.5216 117.933 69.2865 120.623C68.0515 123.312 48.0066 166.403 48.1759 181.314C48.3473 196.222 54.3901 217.25 59.0004 223.059C63.6084 228.868 103.983 246.787 119.396 246.59C134.809 246.393 172.235 228.868 176.843 223.059C181.451 217.25 189.146 196.222 189.317 181.314C189.489 166.405 167.397 122.345 166.162 119.655V119.653Z" fill="url(#paint2_radial_956_11337)"/>
<path d="M166.162 119.653C164.927 116.963 165.391 112.937 164.156 106.376C162.921 99.8138 160.193 100.443 160.193 100.443C160.193 100.443 153.836 91.5059 154.73 100.098C155.624 108.692 155.196 112.683 154.341 118.104C155.707 120.041 156.397 124.449 156.978 128.902C139.154 126.579 133.61 127.399 129.035 127.267C129.339 129.672 128.028 131.165 125.46 132.145C124.852 132.377 124.353 132.887 124.075 133.542C122.714 136.763 119.88 137.865 118.111 137.854C116.342 137.844 113.507 136.703 112.146 133.481C111.868 132.824 111.371 132.317 110.761 132.084C108.193 131.102 106.882 129.612 107.186 127.206C101.447 126.818 85.7544 127.399 79.5532 128.562C79.1646 127.206 80.9011 119.655 82.2663 117.718C81.4133 112.297 80.404 108.885 81.2983 100.291C82.1926 91.6968 76.0304 100.382 76.0304 100.382C76.0304 100.382 73.302 99.7531 72.067 106.315C70.832 112.876 70.5216 117.933 69.2865 120.623C68.0515 123.312 48.0066 166.403 48.1759 181.314C48.3473 196.222 54.3901 217.25 59.0004 223.059C63.6084 228.868 103.983 246.787 119.396 246.59C134.809 246.393 172.235 228.868 176.843 223.059C181.451 217.25 189.146 196.222 189.317 181.314C189.489 166.405 167.397 122.345 166.162 119.655V119.653Z" fill="url(#paint3_radial_956_11337)"/>
<path d="M114.554 138.027C114.554 138.027 118.283 153.647 94.2813 150.098C70.2795 146.55 78.6122 184.015 78.6122 184.015L81.7377 207.778L67.2754 218.275L51.5065 204.759C51.5065 204.759 44.1245 180.781 53.5945 159.473C63.0646 138.166 72.0984 131.37 79.5043 128.899C86.9101 126.428 107.189 127.203 107.189 127.203C107.189 127.203 107.307 129.357 107.643 129.975C108.242 131.075 110.489 131.528 111.361 132.426C112.349 133.444 114.554 138.027 114.554 138.027Z" fill="url(#paint4_linear_956_11337)"/>
<path d="M121.931 138.027C121.931 138.027 118.202 153.647 142.204 150.098C166.206 146.55 157.873 184.015 157.873 184.015L154.748 207.778L169.21 218.275L184.979 204.759C184.979 204.759 192.361 180.781 182.891 159.473C173.421 138.166 164.387 131.37 156.981 128.899C149.575 126.428 129.296 127.203 129.296 127.203C129.296 127.203 129.179 129.357 128.842 129.975C128.243 131.075 125.997 131.528 125.124 132.426C124.137 133.444 121.931 138.027 121.931 138.027Z" fill="url(#paint5_linear_956_11337)"/>
<path d="M78.6012 109.183C77.9155 109.057 77.1559 109.357 76.5266 109.599C75.8973 109.842 75.2441 110.172 74.6451 110.536C74.044 110.901 73.4733 111.313 72.9373 111.766C72.6595 112.002 72.3926 112.25 72.1365 112.51C72.0085 112.64 71.8783 112.77 71.7611 112.909C71.696 112.985 71.6396 113.052 71.6027 113.147C71.5701 113.239 71.5506 113.334 71.5441 113.432C71.5397 113.635 71.5376 113.659 71.5376 113.501C71.5093 113.622 71.4855 114.058 71.6547 114.126C71.9282 114.234 71.926 114.171 72.0627 114.024C72.1257 113.956 72.1886 113.891 72.2515 113.826C72.36 113.716 72.4729 113.605 72.5857 113.499C72.8309 113.265 73.0848 113.039 73.3474 112.822C73.8617 112.399 74.4064 112.013 74.9772 111.671C75.5479 111.328 76.1468 111.026 76.7566 110.76C77.3838 110.484 78.0913 110.285 78.6576 109.894C78.803 109.795 78.8074 109.22 78.6034 109.183H78.6012Z" fill="#FFC683"/>
<path d="M79.2253 114.732C78.5481 114.719 77.834 115.118 77.2457 115.42C76.6097 115.745 75.9998 116.123 75.4116 116.526C74.2069 117.353 73.102 118.314 72.1144 119.392C71.8366 119.693 71.5674 120.003 71.3091 120.32C71.0204 120.674 70.6775 121.027 70.5819 121.485C70.5407 121.687 70.5038 122.316 70.8099 122.361C70.9748 122.387 71.0747 122.192 71.1593 122.079C71.2679 121.934 71.3807 121.789 71.4936 121.646C71.7215 121.359 71.9559 121.079 72.1991 120.806C72.6636 120.283 73.1628 119.791 73.6837 119.325C74.7517 118.366 75.9086 117.541 77.1372 116.804C77.847 116.379 78.661 116.042 79.2861 115.496C79.4076 115.387 79.4684 114.737 79.2275 114.732H79.2253Z" fill="#FFC683"/>
<path d="M78.627 123.066C78.156 123.082 77.7262 123.227 77.2943 123.405C76.8341 123.594 76.3826 123.8 75.9463 124.043C75.0911 124.518 74.2598 125.04 73.4697 125.62C71.8678 126.793 70.4092 128.151 69.1155 129.656C68.3971 130.492 67.6765 131.379 67.1186 132.333C66.9623 132.6 66.958 132.969 67.0405 133.262C67.0882 133.433 67.2532 133.741 67.4312 133.496C68.002 132.708 68.5338 131.906 69.1524 131.153C69.7711 130.4 70.4591 129.656 71.1754 128.971C72.582 127.626 74.1426 126.435 75.8052 125.424C76.7625 124.843 77.813 124.342 78.6682 123.613C78.7529 123.539 78.7941 123.066 78.627 123.071V123.066Z" fill="#FFC683"/>
<path d="M113.905 139.958C113.837 140.552 113.735 141.095 113.546 141.663C113.358 142.231 113.069 142.813 112.728 143.335C111.997 144.461 110.994 145.39 109.878 146.129C108.706 146.908 107.412 147.478 106.049 147.826C104.328 148.264 102.548 148.416 100.777 148.465C97.4559 148.559 94.1133 148.266 90.814 148.763C87.9988 149.186 85.1271 150.173 83.0955 152.249C80.8902 154.502 79.9069 157.652 79.2883 160.671C79.2101 161.053 79.1363 161.437 79.0647 161.819C79.0104 162.112 78.9953 162.526 79.1928 162.773C79.3903 163.021 79.5444 162.684 79.5878 162.513C80.3345 159.628 80.9531 156.615 82.9565 154.262C84.8471 152.042 87.7123 150.969 90.5166 150.502C93.8029 149.956 97.1369 150.225 100.449 150.16C103.677 150.097 107.015 149.676 109.783 147.886C112.114 146.381 114.072 143.951 114.263 141.095C114.289 140.711 114.276 140.329 114.228 139.947C114.217 139.869 114.18 139.617 114.056 139.622C113.933 139.626 113.911 139.875 113.902 139.956L113.905 139.958Z" fill="#FFC683"/>
<path d="M109.766 136.432C109.512 137.182 109.282 137.918 108.872 138.601C108.461 139.284 107.901 139.957 107.291 140.521C105.991 141.725 104.396 142.575 102.709 143.104C98.6287 144.382 94.2832 143.991 90.1027 144.677C88.9827 144.861 87.8713 145.135 86.8078 145.536C85.7442 145.937 84.6524 146.458 83.808 147.254C83.6865 147.369 83.6518 148.039 83.9035 147.944C84.8325 147.597 85.7225 147.174 86.6754 146.889C87.6282 146.605 88.6419 146.401 89.6425 146.241C91.7306 145.903 93.8534 145.837 95.9611 145.696C99.9506 145.432 104.172 144.896 107.265 142.113C108.733 140.794 109.987 138.898 110.074 136.874C110.081 136.725 110.089 136.48 109.979 136.356C109.89 136.254 109.803 136.317 109.764 136.434L109.766 136.432Z" fill="#FFC683"/>
<path d="M67.3794 143.986C66.7043 144.789 66.1769 145.68 65.6624 146.591C65.1415 147.513 64.6596 148.459 64.2103 149.418C63.2748 151.411 62.4434 153.455 61.7401 155.541C60.3271 159.728 59.3698 164.069 58.9422 168.468C58.5255 172.752 58.6188 177.084 59.2613 181.34C59.9038 185.596 61.0217 189.544 62.6583 193.399C64.2819 197.225 66.4091 200.839 69.0681 204.041C69.3785 204.414 69.7302 204.759 70.0688 205.108C70.2012 205.245 70.3271 205.08 70.3683 204.952C70.4269 204.766 70.3922 204.544 70.275 204.39C67.7875 201.115 65.5322 197.707 63.7979 193.967C62.0636 190.227 60.8828 186.464 60.1469 182.518C59.4111 178.572 59.1549 174.39 59.4132 170.31C59.6824 166.056 60.4682 161.839 61.7163 157.765C62.3501 155.698 63.0924 153.661 63.939 151.672C64.7899 149.674 65.7775 147.745 66.7217 145.791C66.9756 145.268 67.2188 144.743 67.4532 144.209C67.4727 144.164 67.4532 143.895 67.3772 143.986H67.3794Z" fill="#FFC683"/>
<path d="M166.162 119.653C164.927 116.963 165.391 112.937 164.156 106.376C162.921 99.8138 160.193 100.443 160.193 100.443C160.193 100.443 153.835 91.5059 154.729 100.098C155.624 108.692 155.196 112.683 154.341 118.104C155.706 120.041 156.396 124.449 156.978 128.902C139.154 126.579 133.61 127.399 129.035 127.267C129.339 129.672 128.028 131.165 125.46 132.145C124.852 132.377 124.353 132.887 124.075 133.542C122.714 136.763 119.879 137.865 118.11 137.854C116.341 137.844 113.507 136.703 112.146 133.481C111.868 132.824 111.371 132.317 110.761 132.084C108.193 131.102 106.882 129.612 107.186 127.206C101.447 126.818 85.7541 127.399 79.5529 128.562C79.1644 127.206 80.9008 119.655 82.2661 117.718C81.413 112.297 80.4037 108.885 81.298 100.291C82.1923 91.6968 76.0301 100.382 76.0301 100.382C76.0301 100.382 73.3017 99.7531 72.0667 106.315C70.8317 112.877 70.5213 117.933 69.2862 120.623C68.0512 123.312 53.424 161.283 53.5933 176.192C53.7647 191.101 58.3728 200.977 62.9808 206.784C67.5889 212.593 89.0946 234.085 118.11 234.278V234.339C147.126 234.146 168.632 212.654 173.24 206.845C177.848 201.036 182.456 191.162 182.627 176.253C182.799 161.344 167.395 122.343 166.16 119.653H166.162Z" fill="url(#paint6_linear_956_11337)"/>
<path d="M91.2575 154.322C90.3633 156.385 89.7729 158.589 89.1999 160.758C88.6268 162.927 88.1298 165.214 87.7217 167.467C86.8969 172.014 86.4151 176.621 86.2566 181.239C86.0982 185.881 86.2675 190.528 86.7689 195.146C87.2681 199.742 88.1037 204.3 89.252 208.779C90.4002 213.258 91.8197 217.629 93.7254 221.803C93.9598 222.319 94.2008 222.831 94.4461 223.341C94.5155 223.484 94.6479 223.469 94.7347 223.365C94.8389 223.243 94.8367 222.989 94.7781 222.85C93.0352 218.638 91.4702 214.347 90.2395 209.959C89.0154 205.597 88.1081 201.15 87.5242 196.658C86.9425 192.192 86.6777 187.684 86.7276 183.181C86.7775 178.623 87.1682 174.07 87.8737 169.567C88.5834 165.045 89.6513 160.593 90.9385 156.203C91.0991 155.656 91.238 155.105 91.3791 154.552C91.3986 154.481 91.3378 154.138 91.2575 154.322Z" fill="#FFC683"/>
<path d="M101.366 130.912C95.4576 130.428 89.4669 132.42 84.5398 135.595C79.3761 138.923 75.2434 143.645 72.4673 149.107C69.4003 155.139 68.0155 161.935 67.8614 168.671C67.7029 175.67 68.925 182.644 71.0608 189.297C72.1547 192.705 73.4744 196.037 74.9439 199.299C76.3916 202.512 77.9544 205.724 79.7646 208.75C80.2052 209.485 80.6676 210.206 81.1104 210.939C81.2059 211.095 81.3404 211.073 81.4316 210.93C81.5358 210.767 81.5011 210.498 81.4164 210.336C80.5742 208.735 79.795 207.102 78.9615 205.496C78.128 203.891 77.3662 202.368 76.6173 200.781C75.1066 197.588 73.7067 194.343 72.5259 191.013C70.2663 184.644 68.7361 177.983 68.556 171.208C68.3867 164.764 69.409 158.243 71.9724 152.306C74.3882 146.714 78.1888 141.825 83.1116 138.218C87.8108 134.773 93.413 132.593 99.2582 132.32C99.9702 132.287 100.686 132.279 101.401 132.287C101.737 132.292 101.737 130.942 101.366 130.912Z" fill="#FFC683"/>
<path d="M108.337 154.968C107.727 157.263 107.517 159.693 107.319 162.055C107.115 164.48 107.02 166.914 106.989 169.346C106.927 174.176 107.124 179.007 107.311 183.833C107.497 188.645 107.691 193.456 107.981 198.263C108.272 203.076 108.654 207.887 109.221 212.677C109.781 217.429 110.495 222.188 111.602 226.848C111.734 227.405 111.884 227.961 112.034 228.514C112.071 228.653 112.177 228.776 112.316 228.687C112.455 228.598 112.457 228.297 112.431 228.162C111.532 223.499 110.675 218.835 110.069 214.121C109.464 209.408 109.036 204.681 108.719 199.942C108.405 195.206 108.194 190.467 107.999 185.725C107.803 180.983 107.576 176.178 107.554 171.4C107.532 166.608 107.745 161.81 108.418 157.064C108.502 156.463 108.567 155.86 108.63 155.257C108.652 155.042 108.461 154.506 108.34 154.966L108.337 154.968Z" fill="#FFC683"/>
<path d="M157.206 109.896C157.781 110.282 158.489 110.483 159.12 110.761C159.752 111.039 160.329 111.329 160.902 111.672C161.475 112.015 162.02 112.398 162.534 112.824C162.796 113.04 163.048 113.266 163.296 113.5C163.543 113.734 163.749 114.001 164.003 114.214C164.183 114.363 164.283 113.912 164.294 113.836C164.331 113.587 164.324 113.255 164.17 113.04C164.292 113.65 164.335 113.778 164.296 113.42C164.285 113.322 164.259 113.229 164.224 113.138C164.185 113.049 164.131 112.984 164.068 112.91C163.944 112.769 163.812 112.637 163.68 112.505C163.424 112.244 163.157 111.997 162.879 111.761C162.343 111.308 161.772 110.896 161.173 110.531C160.574 110.167 159.947 109.846 159.292 109.594C158.636 109.343 157.903 109.054 157.228 109.182C157.017 109.221 157.07 109.803 157.208 109.896H157.206Z" fill="#FFC683"/>
<path d="M156.579 115.498C157.144 115.984 157.86 116.294 158.5 116.667C159.141 117.04 159.716 117.398 160.293 117.806C161.45 118.626 162.531 119.565 163.491 120.611C163.755 120.899 164.012 121.197 164.257 121.5C164.389 121.663 164.517 121.826 164.643 121.993C164.741 122.123 164.871 122.394 165.062 122.362C165.37 122.309 165.29 121.667 165.247 121.474C165.155 121.067 164.86 120.752 164.604 120.433C164.376 120.149 164.14 119.869 163.894 119.598C163.412 119.06 162.9 118.548 162.362 118.062C161.287 117.092 160.087 116.22 158.806 115.539C158.453 115.353 158.097 115.173 157.728 115.021C157.359 114.869 156.981 114.724 156.597 114.73C156.349 114.735 156.458 115.396 156.575 115.496L156.579 115.498Z" fill="#FFC683"/>
<path d="M157.192 123.609C157.977 124.266 158.922 124.741 159.803 125.262C160.632 125.752 161.431 126.292 162.206 126.865C163.777 128.028 165.212 129.366 166.475 130.856C167.189 131.7 167.799 132.605 168.444 133.498C168.622 133.746 168.787 133.405 168.824 133.247C168.893 132.941 168.858 132.596 168.7 132.323C168.199 131.468 167.563 130.67 166.929 129.91C166.295 129.153 165.616 128.433 164.902 127.752C163.471 126.388 161.889 125.192 160.174 124.208C159.71 123.941 159.232 123.696 158.737 123.488C158.242 123.279 157.75 123.082 157.207 123.065C157.035 123.058 157.111 123.54 157.192 123.607V123.609Z" fill="#FFC683"/>
<path d="M121.612 139.958C121.424 141.425 121.86 142.952 122.565 144.232C123.232 145.44 124.198 146.481 125.287 147.321C127.82 149.273 130.976 149.952 134.113 150.119C137.501 150.299 140.909 149.956 144.286 150.355C147.147 150.692 150.071 151.551 152.228 153.546C154.49 155.637 155.269 158.603 156.003 161.455C156.094 161.813 156.185 162.173 156.276 162.531C156.318 162.689 156.461 162.991 156.65 162.809C156.839 162.626 156.843 162.208 156.8 161.98C156.224 158.9 155.458 155.629 153.481 153.112C151.642 150.774 148.892 149.531 146.034 148.952C142.83 148.303 139.561 148.503 136.314 148.49C133.067 148.477 129.7 148.262 126.811 146.663C125.63 146.01 124.532 145.173 123.672 144.128C123.273 143.642 122.917 143.112 122.641 142.546C122.496 142.249 122.368 141.941 122.27 141.627C122.22 141.464 122.11 141.08 122.079 140.887C122.049 140.694 122.036 140.631 122.008 140.429C121.986 140.271 121.958 140.112 121.94 139.952C121.932 139.874 121.892 139.622 121.769 139.627C121.645 139.631 121.625 139.88 121.615 139.961L121.612 139.958Z" fill="#FFC683"/>
<path d="M125.766 136.76C125.846 138.582 126.832 140.317 128.082 141.603C129.332 142.89 130.902 143.859 132.59 144.456C136.727 145.911 141.166 145.562 145.453 146.128C146.586 146.278 147.706 146.486 148.809 146.781C149.912 147.076 150.906 147.551 151.956 147.948C152.208 148.044 152.136 147.365 152.019 147.254C151.257 146.547 150.311 146.059 149.354 145.671C148.396 145.282 147.437 145.018 146.445 144.812C144.435 144.397 142.373 144.291 140.328 144.17C136.402 143.933 132.23 143.545 129.052 140.981C128.321 140.391 127.665 139.699 127.144 138.914C126.65 138.17 126.367 137.363 126.094 136.519C126.066 136.434 126.011 136.243 125.885 136.313C125.76 136.382 125.76 136.651 125.764 136.762L125.766 136.76Z" fill="#FFC683"/>
<path d="M168.395 144.214C169.301 146.251 170.364 148.216 171.291 150.244C172.194 152.223 172.991 154.249 173.677 156.312C175.027 160.368 175.932 164.566 176.323 168.824C176.698 172.922 176.568 177.067 175.93 181.13C175.307 185.095 174.182 188.987 172.602 192.679C171.013 196.395 168.947 199.911 166.487 203.117C166.166 203.536 165.869 203.974 165.55 204.397C165.435 204.551 165.42 204.785 165.485 204.963C165.532 205.098 165.658 205.241 165.791 205.104C168.645 202.182 170.833 198.558 172.55 194.87C174.308 191.098 175.563 187.089 176.309 182.995C177.082 178.757 177.328 174.434 177.032 170.132C176.728 165.728 175.906 161.364 174.606 157.147C173.954 155.032 173.182 152.956 172.298 150.928C171.439 148.954 170.497 146.965 169.316 145.158C169.049 144.75 168.769 144.361 168.458 143.986C168.38 143.893 168.376 144.173 168.393 144.214H168.395Z" fill="#FFC683"/>
<path d="M144.471 154.557C145.053 156.782 145.735 158.98 146.286 161.214C146.837 163.448 147.306 165.617 147.695 167.843C148.474 172.303 148.943 176.81 149.08 181.335C149.216 185.838 149.032 190.348 148.537 194.825C148.033 199.367 147.206 203.873 146.047 208.293C144.895 212.684 143.391 216.946 141.737 221.172C141.526 221.71 141.309 222.245 141.09 222.781C141.02 222.95 140.996 223.18 141.103 223.343C141.19 223.475 141.337 223.495 141.413 223.334C143.404 219.202 144.938 214.862 146.162 210.445C147.391 206.011 148.292 201.482 148.873 196.918C149.455 192.354 149.715 187.61 149.633 182.942C149.551 178.32 149.151 173.691 148.4 169.127C147.66 164.626 146.616 160.166 145.166 155.839C144.992 155.323 144.793 154.821 144.578 154.32C144.497 154.134 144.452 154.492 144.467 154.557H144.471Z" fill="#FFC683"/>
<path d="M134.48 132.287C137.391 132.246 140.291 132.582 143.091 133.393C145.9 134.207 148.582 135.463 151.044 137.038C156.077 140.259 160.182 144.823 162.882 150.148C165.819 155.942 167.18 162.397 167.299 168.87C167.423 175.603 166.155 182.267 164.102 188.659C163.032 191.993 161.732 195.251 160.29 198.442C158.83 201.672 157.176 204.796 155.6 207.969C155.205 208.763 154.825 209.561 154.415 210.347C154.287 210.59 154.495 211.355 154.749 210.932C155.671 209.407 156.611 207.904 157.447 206.329C158.283 204.755 159.071 203.204 159.839 201.618C161.393 198.403 162.784 195.102 163.976 191.735C166.329 185.082 167.829 178.145 167.985 171.076C168.135 164.328 167.045 157.489 164.369 151.267C161.92 145.58 158.072 140.558 153.093 136.855C148.363 133.337 142.587 130.994 136.649 130.849C135.913 130.832 135.182 130.853 134.448 130.912C134.092 130.94 134.131 132.294 134.483 132.287H134.48Z" fill="#FFC683"/>
<path d="M127.222 155.268C127.47 157.639 127.832 159.992 128.008 162.372C128.184 164.752 128.271 167.164 128.29 169.563C128.332 174.333 128.119 179.101 127.926 183.864C127.735 188.606 127.535 193.345 127.244 198.083C126.953 202.814 126.567 207.54 126.007 212.247C125.445 216.959 124.668 221.629 123.767 226.288C123.652 226.881 123.546 227.477 123.433 228.069C123.4 228.241 123.372 228.544 123.528 228.672C123.684 228.8 123.786 228.661 123.828 228.505C125.074 223.896 125.812 219.145 126.424 214.414C127.036 209.684 127.444 204.898 127.756 200.126C128.071 195.322 128.279 190.51 128.468 185.699C128.659 180.842 128.876 175.981 128.874 171.118C128.874 166.272 128.642 161.409 127.863 156.619C127.772 156.06 127.646 155.511 127.502 154.962C127.474 154.854 127.418 154.737 127.305 154.808C127.192 154.88 127.216 155.164 127.227 155.266L127.222 155.268Z" fill="#FFC683"/>
<path opacity="0.42" d="M118.112 223.057C136.711 223.057 151.788 207.989 151.788 189.402C151.788 170.815 136.711 155.748 118.112 155.748C99.5137 155.748 84.4365 170.815 84.4365 189.402C84.4365 207.989 99.5137 223.057 118.112 223.057Z" fill="white"/>
<path opacity="0.33" d="M118.113 234.338C142.947 234.338 163.078 214.22 163.078 189.402C163.078 164.585 142.947 144.466 118.113 144.466C93.2799 144.466 73.1484 164.585 73.1484 189.402C73.1484 214.22 93.2799 234.338 118.113 234.338Z" fill="white"/>
<path d="M156.815 116.799C157.275 114.04 158.165 99.0034 158.165 99.0034H80.7944C80.7944 99.0034 81.6843 114.04 82.1445 116.799C80.3516 121.415 78.9863 130.628 78.9863 130.628C78.9863 130.628 90.2883 125.658 107.24 127.691C108.145 134.918 110.802 133.233 113.09 137.463C115.258 141.476 119.089 141.547 119.48 141.545C119.873 141.547 123.702 141.476 125.87 137.463C128.158 133.231 130.814 134.918 131.72 127.691C148.671 125.658 159.973 130.628 159.973 130.628C159.973 130.628 158.61 121.415 156.815 116.799Z" fill="url(#paint7_linear_956_11337)"/>
<path d="M121.805 136.935V101.909H158.418L160.549 130.837L121.805 136.935Z" fill="url(#paint8_linear_956_11337)"/>
<path d="M114.639 136.935V101.909H78.026L75.8945 130.837L95.2669 133.886L114.639 136.935Z" fill="url(#paint9_linear_956_11337)"/>
<path d="M107.18 127.197L114.154 106.203C114.154 106.203 109.216 112.841 99.6303 113.394C91.5883 113.858 81.0524 104.83 81.0524 104.83L77.332 111.312L77.5925 131.251L97.8244 132.594L107.18 127.197Z" fill="url(#paint10_linear_956_11337)"/>
<path d="M129.159 127.197L122.185 106.203C122.185 106.203 128.24 113.201 136.708 113.394C146.523 113.617 155.286 104.83 155.286 104.83L159.006 111.312L158.746 131.251L138.514 132.594L129.159 127.197Z" fill="url(#paint11_linear_956_11337)"/>
<path d="M174.88 209.782C174.88 209.782 175.286 220.214 172.962 227.183C170.637 234.153 160.491 249.377 158.165 252.086C153.12 254.216 133.428 258.164 121.416 257.969C118.51 249.071 126.955 238.533 131.262 234.019C135.566 229.504 174.88 209.777 174.88 209.777V209.782Z" fill="#062E6D"/>
<path d="M169.475 220.02C169.475 220.02 172.878 217.419 173.501 211.167C174.124 204.916 173.931 191.757 169.475 187.881C165.018 184.005 162.112 188.846 161.919 190.588C161.726 192.33 162.307 199.933 161.919 205.814C161.53 211.694 160.482 216.486 161.878 218.061C163.273 219.636 164.825 222.345 169.475 220.022V220.02Z" fill="url(#paint12_linear_956_11337)"/>
<path d="M161.173 187.224C162.725 186.747 165.018 187.684 166.181 191.363C167.344 195.042 168.497 199.324 168.792 203.669C169.087 208.014 170.878 217.567 169.886 220.923C168.894 224.279 169.15 231.758 161.176 234.02C152.812 233.96 155.526 223.116 155.526 223.116C155.526 223.116 157.64 215.782 157.657 210.53C157.674 205.279 157.464 202.01 157.269 198.331C157.075 194.652 155.912 188.843 161.176 187.222L161.173 187.224Z" fill="url(#paint13_linear_956_11337)"/>
<path d="M160.174 235.896C161.483 231.612 161.643 224.618 161.878 218.058C162.112 211.499 161.726 201.777 160.174 200.345C158.624 198.913 156.119 198.512 153.975 200.655C151.65 202.978 151.262 209.95 151.068 212.466C150.875 214.983 149.905 222.729 148.937 225.245C147.969 227.761 142.738 234.54 144.481 237.249C146.224 239.961 147.194 242.67 150.294 242.477C153.393 242.284 158.149 242.518 160.174 235.894V235.896Z" fill="url(#paint14_linear_956_11337)"/>
<path d="M147.867 243.973C147.867 243.973 150.68 239.381 152.037 234.928C153.394 230.474 154.362 227.377 153.78 223.309C153.198 219.242 153.656 213.019 150.487 210.531C147.774 208.401 143.318 212.468 142.932 223.891C142.856 226.147 137.661 228.583 135.936 230.689C134.212 232.797 131.888 234.539 131.888 237.444C131.888 240.348 132.27 247.207 147.87 243.971L147.867 243.973Z" fill="url(#paint15_linear_956_11337)"/>
<path d="M60.7928 209.781C60.7928 209.781 60.3869 220.213 62.7116 227.183C65.0363 234.152 75.9434 248.718 78.2681 251.43C82.9174 253.124 97.2237 257.176 113.846 257.823C116.752 248.925 108.717 238.534 104.41 234.02C100.106 229.506 60.7928 209.779 60.7928 209.779V209.781Z" fill="#062E6D"/>
<path d="M66.1988 220.02C66.1988 220.02 62.7954 217.419 62.1724 211.167C61.5495 204.916 61.7427 191.757 66.1988 187.881C70.655 184.005 73.5614 188.846 73.7546 190.588C73.9478 192.33 73.3661 199.933 73.7546 205.814C74.1431 211.694 75.1915 216.486 73.7958 218.061C72.398 219.634 70.8482 222.345 66.1988 220.022V220.02Z" fill="url(#paint16_linear_956_11337)"/>
<path d="M74.4994 187.224C72.9474 186.747 70.6553 187.684 69.4919 191.363C68.3284 195.042 67.1759 199.324 66.8807 203.669C66.5855 208.014 64.7947 217.567 65.7867 220.923C66.7786 224.279 66.5225 231.758 74.4972 234.02C82.8604 233.96 80.1472 223.116 80.1472 223.116C80.1472 223.116 78.033 215.782 78.0157 210.53C77.9983 205.279 78.2089 202.01 78.4042 198.331C78.5996 194.652 79.7608 188.843 74.4972 187.222L74.4994 187.224Z" fill="url(#paint17_linear_956_11337)"/>
<path d="M75.5004 235.896C74.1916 231.612 74.0309 224.618 73.7965 218.058C73.5621 211.499 73.9485 201.777 75.5004 200.345C77.0502 198.913 79.555 198.512 81.6996 200.655C84.0242 202.978 84.4128 209.95 84.6059 212.466C84.7991 214.983 85.7694 222.729 86.7374 225.245C87.7055 227.761 92.9366 234.54 91.1936 237.249C89.4507 239.961 88.4804 242.67 85.3808 242.477C82.2813 242.284 77.5256 242.518 75.5004 235.894V235.896Z" fill="url(#paint18_linear_956_11337)"/>
<path d="M86.7443 243.618C86.7443 243.618 84.2351 238.855 83.1694 234.323C82.1036 229.792 81.3374 226.638 82.1818 222.616C83.0239 218.597 82.9719 212.356 86.295 210.076C89.1406 208.126 93.3233 212.471 92.9695 223.896C92.9 226.152 97.9249 228.918 99.5094 231.133C101.094 233.347 103.301 235.237 103.113 238.135C102.924 241.033 102.099 247.853 86.7421 243.616L86.7443 243.618Z" fill="url(#paint19_linear_956_11337)"/>
<path opacity="0.42" d="M118.197 222.737C136.796 222.737 151.873 207.67 151.873 189.083C151.873 170.496 136.796 155.428 118.197 155.428C99.5987 155.428 84.5215 170.496 84.5215 189.083C84.5215 207.67 99.5987 222.737 118.197 222.737Z" fill="white"/>
<path opacity="0.33" d="M118.345 234.019C143.178 234.019 163.31 213.9 163.31 189.083C163.31 164.265 143.178 144.146 118.345 144.146C93.5113 144.146 73.3799 164.265 73.3799 189.083C73.3799 213.9 93.5113 234.019 118.345 234.019Z" fill="#BDFFF1"/>
<path d="M85.8154 104.507C85.8154 104.507 95.303 109.179 99.961 108.793C104.619 108.407 111.448 105.027 111.448 105.027C111.448 105.027 108.168 109.715 103.901 110.876C99.6333 112.036 94.0527 112.162 92.9045 110.876C91.7563 109.589 85.8176 104.507 85.8176 104.507H85.8154Z" fill="#062E6D"/>
<path d="M150.521 104.507C150.521 104.507 141.033 109.179 136.375 108.793C131.717 108.407 124.889 105.027 124.889 105.027C124.889 105.027 128.168 109.715 132.436 110.876C136.703 112.038 142.284 112.162 143.432 110.876C144.58 109.589 150.519 104.507 150.519 104.507H150.521Z" fill="#062E6D"/>
<path d="M202.864 76.5424C194.534 74.8006 170.897 70.3473 165.47 66.4732C164.166 65.5426 161.021 64.868 157.001 64.3821C155.154 59.7271 150.557 51.9572 147.744 45.1742C144.451 37.2351 140.77 35.8793 139.799 31.6213C138.831 27.361 135.925 27.7493 136.7 25.8123C137.475 23.8752 134.762 22.1334 134.762 22.1334C134.762 22.1334 142.317 25.6192 145.612 26.9749C148.905 28.3307 155.299 28.3307 161.887 26.2005C156.074 19.4241 150.65 14.9708 145.612 8.77352C141.293 3.46124 133.019 0.641334 129.531 0.253054C125.828 -0.159086 121.2 -0.135225 112.093 0.834389C102.985 1.804 102.212 5.09462 100.274 10.1292C98.3357 15.1639 96.5928 28.7168 92.7183 32.0096C88.8439 35.3023 86.7125 42.658 84.1925 48.8553C82.2281 53.686 77.4399 61.6902 75.4235 64.9873C73.3398 65.3908 71.7531 65.881 70.9196 66.4753C65.4954 70.3473 41.8583 74.8006 33.5256 76.5446C25.1951 78.2864 12.4062 85.8394 12.4062 85.8394C64.7184 109.073 118.967 107.525 118.967 107.525C118.967 107.525 171.665 109.073 223.977 85.8394C223.977 85.8394 211.191 78.2886 202.858 76.5446L202.864 76.5424Z" fill="url(#paint20_linear_956_11337)"/>
<path d="M202.864 76.5424C194.534 74.8006 170.897 70.3473 165.47 66.4732C164.166 65.5426 161.021 64.868 157.001 64.3821C155.154 59.7271 150.557 51.9572 147.744 45.1742C144.451 37.2351 140.77 35.8793 139.799 31.6213C138.831 27.361 135.925 27.7493 136.7 25.8123C137.475 23.8752 134.762 22.1334 134.762 22.1334C134.762 22.1334 142.317 25.6192 145.612 26.9749C148.905 28.3307 155.299 28.3307 161.887 26.2005C156.074 19.4241 150.65 14.9708 145.612 8.77352C141.293 3.46124 133.019 0.641334 129.531 0.253054C125.828 -0.159086 121.2 -0.135225 112.093 0.834389C102.985 1.804 102.212 5.09462 100.274 10.1292C98.3357 15.1639 96.5928 28.7168 92.7183 32.0096C88.8439 35.3023 86.7125 42.658 84.1925 48.8553C82.2281 53.686 77.4399 61.6902 75.4235 64.9873C73.3398 65.3908 71.7531 65.881 70.9196 66.4753C65.4954 70.3473 41.8583 74.8006 33.5256 76.5446C25.1951 78.2864 12.4062 85.8394 12.4062 85.8394C64.7184 109.073 118.967 107.525 118.967 107.525C118.967 107.525 171.665 109.073 223.977 85.8394C223.977 85.8394 211.191 78.2886 202.858 76.5446L202.864 76.5424Z" fill="url(#paint21_linear_956_11337)"/>
<path d="M202.864 76.5424C194.534 74.8006 170.897 70.3473 165.47 66.4732C164.166 65.5426 161.021 64.868 157.001 64.3821C155.154 59.7271 150.557 51.9572 147.744 45.1742C144.451 37.2351 140.77 35.8793 139.799 31.6213C138.831 27.361 135.925 27.7493 136.7 25.8123C137.475 23.8752 134.762 22.1334 134.762 22.1334C134.762 22.1334 142.317 25.6192 145.612 26.9749C148.905 28.3307 155.299 28.3307 161.887 26.2005C156.074 19.4241 150.65 14.9708 145.612 8.77352C141.293 3.46124 133.019 0.641334 129.531 0.253054C125.828 -0.159086 121.2 -0.135225 112.093 0.834389C102.985 1.804 102.212 5.09462 100.274 10.1292C98.3357 15.1639 96.5928 28.7168 92.7183 32.0096C88.8439 35.3023 86.7125 42.658 84.1925 48.8553C82.2281 53.686 77.4399 61.6902 75.4235 64.9873C73.3398 65.3908 71.7531 65.881 70.9196 66.4753C65.4954 70.3473 41.8583 74.8006 33.5256 76.5446C25.1951 78.2864 12.4062 85.8394 12.4062 85.8394C64.7184 109.073 118.967 107.525 118.967 107.525C118.967 107.525 171.665 109.073 223.977 85.8394C223.977 85.8394 211.191 78.2886 202.858 76.5446L202.864 76.5424Z" fill="url(#paint22_linear_956_11337)"/>
<path d="M12.4094 85.8369C64.7215 109.071 118.97 107.522 118.97 107.522C118.97 107.522 171.668 109.071 223.98 85.8369C155.956 108.828 85.4914 109.383 12.4072 85.8369H12.4094Z" fill="url(#paint23_linear_956_11337)"/>
<path d="M84.1967 48.9506C84.1967 48.9506 91.366 58.6315 116.36 58.4385C138.102 58.2693 149.102 48.5645 149.102 48.5645L156.955 64.3841C156.955 64.3841 145.082 77.1323 117.521 77.6095C89.9594 78.0846 75.6621 64.5251 75.6621 64.5251C75.6621 64.5251 82.6947 53.5036 84.1967 48.9527V48.9506Z" fill="url(#paint24_linear_956_11337)"/>
<path d="M116.356 59.213C132.075 59.6837 152.461 55.1371 150.473 51.1068C149.49 49.1134 148.543 47.1047 147.745 45.1742C144.452 37.2351 140.771 35.8793 139.8 31.6213C138.83 27.3632 135.926 27.7493 136.701 25.8123C137.476 23.8752 134.763 22.1334 134.763 22.1334C134.763 22.1334 142.318 25.6192 145.613 26.9749C148.906 28.3307 155.3 28.3307 161.888 26.2006C156.075 19.4241 150.651 14.9708 145.613 8.77352C141.294 3.46124 133.02 0.641334 129.532 0.253054C125.829 -0.159086 121.201 -0.135225 112.094 0.834389C102.988 1.80183 102.213 5.09462 100.275 10.1292C98.3366 15.1639 96.5937 28.7168 92.7193 32.0096C88.8449 35.3023 86.7134 42.658 84.1934 48.8553C82.7218 52.4734 100.637 58.7445 116.356 59.2152V59.213Z" fill="url(#paint25_linear_956_11337)"/>
<path d="M137.681 57.3583C135.419 57.508 124.022 58.38 116.358 58.4386C110.458 58.4841 105.553 57.9787 101.5 57.1826C99.5033 58.3496 116.336 59.3778 111.446 69.7529C107.738 77.6204 75.6621 64.5252 75.6621 64.5252C75.6621 64.5252 89.9594 78.0846 117.521 77.6096C145.082 77.1346 156.955 64.3842 156.955 64.3842C156.955 64.3842 134.649 74.7593 129.513 71.1889C125.14 68.1477 126.735 61.7379 137.681 57.3583Z" fill="url(#paint26_linear_956_11337)"/>
<path d="M129.253 50.8508C118.452 51.777 123.59 41.6013 121.055 24.0591L118.04 37.1393C121.165 47.1132 118.706 52.2195 109.08 51.0785C109.08 51.0785 127.2 58.8486 101.353 57.2694C106.113 58.3258 111.346 59.0655 116.358 59.2152C123.334 59.4234 131.23 58.6447 137.681 57.3605C123.362 56.8833 122.322 54.4538 129.253 50.8529V50.8508Z" fill="url(#paint27_linear_956_11337)"/>
<rect x="96.1309" y="166.541" width="44.2673" height="44.2673" rx="22.1337" fill="white"/>
<rect x="96.1309" y="166.541" width="44.2673" height="44.2673" rx="22.1337" fill="url(#paint28_radial_956_11337)"/>
<path d="M132.418 183.207C131.108 180.442 128.435 178.528 125.423 178.302C123.947 178.165 122.424 178.414 121.093 179.085C120.199 179.528 119.404 180.143 118.736 180.876C117.357 179.313 115.409 178.29 113.307 178.184C108.887 177.918 105.077 180.78 104.148 185.221C103.584 187.882 104.2 190.66 105.421 193C106.64 195.308 108.419 197.36 110.733 198.566C112.348 199.352 113.862 197.358 112.681 195.964C112.304 195.542 111.957 195.094 111.641 194.615C111.347 194.171 111.083 193.704 110.844 193.226C110.178 191.862 109.682 190.327 109.584 188.815C109.525 187.854 109.651 187.026 110.05 186.19C110.428 185.41 111.04 184.739 111.844 184.424C113.094 183.95 114.398 184.205 115.348 185.228C115.965 185.864 116.247 186.754 116.563 187.575C116.586 187.634 116.612 187.691 116.638 187.748C117.266 189.683 120.142 189.732 120.679 187.531C120.696 187.456 120.712 187.38 120.73 187.303C120.733 187.291 120.736 187.28 120.739 187.267C120.742 187.255 120.744 187.243 120.747 187.23C120.793 187.033 120.846 186.837 120.915 186.653C121.129 186.063 121.485 185.493 121.913 185.058C122.558 184.401 123.38 184.005 124.279 184.093C124.783 184.122 125.351 184.259 125.761 184.481C128.058 185.727 127.818 189 126.833 191.157C126.141 192.668 125.034 193.932 123.806 195.024C123.502 195.293 123.155 195.59 122.84 195.841C121.4 196.96 121.032 199.078 122.17 200.596C123.391 202.264 125.823 202.345 127.22 200.861C127.495 200.59 127.76 200.308 128.021 200.025C130.656 197.081 133.052 192.711 133.424 188.684C133.578 186.802 133.243 184.92 132.417 183.207H132.418Z" fill="url(#paint29_radial_956_11337)"/>
</g>
<defs>
<linearGradient id="paint0_linear_956_11337" x1="118.155" y1="257.825" x2="118.155" y2="77.8088" gradientUnits="userSpaceOnUse">
<stop stop-color="#44EDD6"/>
<stop offset="0.07" stop-color="#38C9C2"/>
<stop offset="0.18" stop-color="#299AA8"/>
<stop offset="0.29" stop-color="#1C7393"/>
<stop offset="0.39" stop-color="#125582"/>
<stop offset="0.49" stop-color="#0B3F76"/>
<stop offset="0.59" stop-color="#07326F"/>
<stop offset="0.69" stop-color="#062E6D"/>
</linearGradient>
<radialGradient id="paint1_radial_956_11337" cx="0" cy="0" r="1" gradientUnits="userSpaceOnUse" gradientTransform="translate(168.827 192.995) rotate(-166.275) scale(140.93 163.268)">
<stop stop-color="#00C2FF" stop-opacity="0.6"/>
<stop offset="0.56" stop-color="#2F67C1" stop-opacity="0.98"/>
<stop offset="1" stop-color="#3162BE"/>
</radialGradient>
<radialGradient id="paint2_radial_956_11337" cx="0" cy="0" r="1" gradientUnits="userSpaceOnUse" gradientTransform="translate(118.747 171.476) scale(72.9019 72.8556)">
<stop stop-color="#FFAA55"/>
<stop offset="0.35" stop-color="#FEAC54"/>
<stop offset="0.54" stop-color="#FEB454"/>
<stop offset="0.7" stop-color="#FDC254"/>
<stop offset="0.84" stop-color="#FCD654"/>
<stop offset="0.96" stop-color="#FBEF54"/>
<stop offset="1" stop-color="#FBF954"/>
</radialGradient>
<radialGradient id="paint3_radial_956_11337" cx="0" cy="0" r="1" gradientUnits="userSpaceOnUse" gradientTransform="translate(118.747 171.479) scale(72.9019 72.8556)">
<stop stop-color="#FFB855"/>
<stop offset="0.37" stop-color="#FEB553"/>
<stop offset="0.57" stop-color="#FBAD4F"/>
<stop offset="0.74" stop-color="#F59F48"/>
<stop offset="0.89" stop-color="#EE8B3F"/>
<stop offset="1" stop-color="#E77735"/>
</radialGradient>
<linearGradient id="paint4_linear_956_11337" x1="81.7659" y1="218.277" x2="81.7659" y2="127.088" gradientUnits="userSpaceOnUse">
<stop stop-color="#FF802C" stop-opacity="0"/>
<stop offset="0.16" stop-color="#FE7F2B" stop-opacity="0.01"/>
<stop offset="0.29" stop-color="#FD7D29" stop-opacity="0.06"/>
<stop offset="0.42" stop-color="#FC7A26" stop-opacity="0.13"/>
<stop offset="0.54" stop-color="#FA7521" stop-opacity="0.24"/>
<stop offset="0.65" stop-color="#F86F1B" stop-opacity="0.37"/>
<stop offset="0.76" stop-color="#F56814" stop-opacity="0.54"/>
<stop offset="0.87" stop-color="#F15F0B" stop-opacity="0.73"/>
<stop offset="0.98" stop-color="#ED5501" stop-opacity="0.95"/>
<stop offset="1" stop-color="#ED5400"/>
</linearGradient>
<linearGradient id="paint5_linear_956_11337" x1="154.719" y1="218.277" x2="154.719" y2="127.088" gradientUnits="userSpaceOnUse">
<stop stop-color="#FF802C" stop-opacity="0"/>
<stop offset="0.16" stop-color="#FE7F2B" stop-opacity="0.01"/>
<stop offset="0.29" stop-color="#FD7D29" stop-opacity="0.06"/>
<stop offset="0.42" stop-color="#FC7A26" stop-opacity="0.13"/>
<stop offset="0.54" stop-color="#FA7521" stop-opacity="0.24"/>
<stop offset="0.65" stop-color="#F86F1B" stop-opacity="0.37"/>
<stop offset="0.76" stop-color="#F56814" stop-opacity="0.54"/>
<stop offset="0.87" stop-color="#F15F0B" stop-opacity="0.73"/>
<stop offset="0.98" stop-color="#ED5501" stop-opacity="0.95"/>
<stop offset="1" stop-color="#ED5400"/>
</linearGradient>
<linearGradient id="paint6_linear_956_11337" x1="118.113" y1="234.339" x2="118.113" y2="96.3648" gradientUnits="userSpaceOnUse">
<stop stop-color="#FF802C" stop-opacity="0"/>
<stop offset="0.16" stop-color="#FE7F2B" stop-opacity="0.01"/>
<stop offset="0.29" stop-color="#FD7D29" stop-opacity="0.06"/>
<stop offset="0.42" stop-color="#FC7A26" stop-opacity="0.13"/>
<stop offset="0.54" stop-color="#FA7521" stop-opacity="0.24"/>
<stop offset="0.65" stop-color="#F86F1B" stop-opacity="0.37"/>
<stop offset="0.76" stop-color="#F56814" stop-opacity="0.54"/>
<stop offset="0.87" stop-color="#F15F0B" stop-opacity="0.73"/>
<stop offset="0.98" stop-color="#ED5501" stop-opacity="0.95"/>
<stop offset="1" stop-color="#ED5400"/>
</linearGradient>
<linearGradient id="paint7_linear_956_11337" x1="119.48" y1="141.545" x2="119.48" y2="99.0034" gradientUnits="userSpaceOnUse">
<stop stop-color="white"/>
<stop offset="0.17" stop-color="#FBFDFE"/>
<stop offset="0.33" stop-color="#F0F9FD"/>
<stop offset="0.48" stop-color="#DEF1FA"/>
<stop offset="0.62" stop-color="#C5E6F7"/>
<stop offset="0.76" stop-color="#A4D9F3"/>
<stop offset="0.8" stop-color="#9AD5F2"/>
</linearGradient>
<linearGradient id="paint8_linear_956_11337" x1="160.549" y1="119.421" x2="121.807" y2="119.421" gradientUnits="userSpaceOnUse">
<stop stop-color="white" stop-opacity="0"/>
<stop offset="0.26" stop-color="#FDFEFE" stop-opacity="0"/>
<stop offset="0.4" stop-color="#F6FBFE" stop-opacity="0.04"/>
<stop offset="0.51" stop-color="#EAF7FD" stop-opacity="0.1"/>
<stop offset="0.61" stop-color="#DAF2FC" stop-opacity="0.18"/>
<stop offset="0.69" stop-color="#C5EAFA" stop-opacity="0.29"/>
<stop offset="0.77" stop-color="#ABE1F8" stop-opacity="0.42"/>
<stop offset="0.85" stop-color="#8CD7F5" stop-opacity="0.57"/>
<stop offset="0.92" stop-color="#68CAF3" stop-opacity="0.75"/>
<stop offset="0.98" stop-color="#40BCEF" stop-opacity="0.95"/>
<stop offset="1" stop-color="#36B9EF"/>
</linearGradient>
<linearGradient id="paint9_linear_956_11337" x1="75.8945" y1="119.421" x2="114.639" y2="119.421" gradientUnits="userSpaceOnUse">
<stop stop-color="white" stop-opacity="0"/>
<stop offset="0.26" stop-color="#FDFEFE" stop-opacity="0"/>
<stop offset="0.4" stop-color="#F6FBFE" stop-opacity="0.04"/>
<stop offset="0.51" stop-color="#EAF7FD" stop-opacity="0.1"/>
<stop offset="0.61" stop-color="#DAF2FC" stop-opacity="0.18"/>
<stop offset="0.69" stop-color="#C5EAFA" stop-opacity="0.29"/>
<stop offset="0.77" stop-color="#ABE1F8" stop-opacity="0.42"/>
<stop offset="0.85" stop-color="#8CD7F5" stop-opacity="0.57"/>
<stop offset="0.92" stop-color="#68CAF3" stop-opacity="0.75"/>
<stop offset="0.98" stop-color="#40BCEF" stop-opacity="0.95"/>
<stop offset="1" stop-color="#36B9EF"/>
</linearGradient>
<linearGradient id="paint10_linear_956_11337" x1="77.332" y1="118.711" x2="114.154" y2="118.711" gradientUnits="userSpaceOnUse">
<stop stop-color="#36B9EF"/>
<stop offset="0.04" stop-color="#4DC1F0"/>
<stop offset="0.11" stop-color="#76CFF4"/>
<stop offset="0.19" stop-color="#9BDCF7"/>
<stop offset="0.27" stop-color="#BAE7F9"/>
<stop offset="0.36" stop-color="#D3EFFB"/>
<stop offset="0.46" stop-color="#E7F6FD"/>
<stop offset="0.58" stop-color="#F4FBFE"/>
<stop offset="0.73" stop-color="#FCFEFE"/>
<stop offset="1" stop-color="white"/>
</linearGradient>
<linearGradient id="paint11_linear_956_11337" x1="159.006" y1="118.711" x2="122.185" y2="118.711" gradientUnits="userSpaceOnUse">
<stop stop-color="#36B9EF"/>
<stop offset="0.04" stop-color="#4DC1F0"/>
<stop offset="0.11" stop-color="#76CFF4"/>
<stop offset="0.19" stop-color="#9BDCF7"/>
<stop offset="0.27" stop-color="#BAE7F9"/>
<stop offset="0.36" stop-color="#D3EFFB"/>
<stop offset="0.46" stop-color="#E7F6FD"/>
<stop offset="0.58" stop-color="#F4FBFE"/>
<stop offset="0.73" stop-color="#FCFEFE"/>
<stop offset="1" stop-color="white"/>
</linearGradient>
<linearGradient id="paint12_linear_956_11337" x1="173.694" y1="202.97" x2="161.161" y2="204.147" gradientUnits="userSpaceOnUse">
<stop offset="0.18" stop-color="#A6D5F2"/>
<stop offset="0.19" stop-color="#A7D5F2"/>
<stop offset="0.33" stop-color="#C6E4F6"/>
<stop offset="0.48" stop-color="#DFF0FA"/>
<stop offset="0.64" stop-color="#F1F8FC"/>
<stop offset="0.8" stop-color="#FBFDFE"/>
<stop offset="1" stop-color="white"/>
</linearGradient>
<linearGradient id="paint13_linear_956_11337" x1="170.179" y1="210.565" x2="155.102" y2="210.565" gradientUnits="userSpaceOnUse">
<stop offset="0.18" stop-color="#A7D5F2"/>
<stop offset="0.33" stop-color="#C6E4F6"/>
<stop offset="0.48" stop-color="#DFF0FA"/>
<stop offset="0.63" stop-color="#F1F8FC"/>
<stop offset="0.8" stop-color="#FBFDFE"/>
<stop offset="1" stop-color="white"/>
</linearGradient>
<linearGradient id="paint14_linear_956_11337" x1="165.075" y1="223.592" x2="142.253" y2="218.078" gradientUnits="userSpaceOnUse">
<stop offset="0.19" stop-color="#A6D5F2"/>
<stop offset="0.2" stop-color="#A7D5F2"/>
<stop offset="0.34" stop-color="#C6E4F6"/>
<stop offset="0.49" stop-color="#DFF0FA"/>
<stop offset="0.64" stop-color="#F1F8FC"/>
<stop offset="0.8" stop-color="#FBFDFE"/>
<stop offset="1" stop-color="white"/>
</linearGradient>
<linearGradient id="paint15_linear_956_11337" x1="154.644" y1="231.6" x2="137.99" y2="225.246" gradientUnits="userSpaceOnUse">
<stop offset="0.21" stop-color="#A6D5F2"/>
<stop offset="0.22" stop-color="#A7D5F2"/>
<stop offset="0.36" stop-color="#C6E4F6"/>
<stop offset="0.5" stop-color="#DFF0FA"/>
<stop offset="0.65" stop-color="#F1F8FC"/>
<stop offset="0.81" stop-color="#FBFDFE"/>
<stop offset="1" stop-color="white"/>
</linearGradient>
<linearGradient id="paint16_linear_956_11337" x1="61.9771" y1="202.97" x2="74.5098" y2="204.147" gradientUnits="userSpaceOnUse">
<stop offset="0.21" stop-color="#A6D5F2"/>
<stop offset="0.22" stop-color="#A7D5F2"/>
<stop offset="0.36" stop-color="#C6E4F6"/>
<stop offset="0.5" stop-color="#DFF0FA"/>
<stop offset="0.65" stop-color="#F1F8FC"/>
<stop offset="0.81" stop-color="#FBFDFE"/>
<stop offset="1" stop-color="white"/>
</linearGradient>
<linearGradient id="paint17_linear_956_11337" x1="65.4915" y1="210.565" x2="80.5683" y2="210.565" gradientUnits="userSpaceOnUse">
<stop offset="0.21" stop-color="#A6D5F2"/>
<stop offset="0.22" stop-color="#A7D5F2"/>
<stop offset="0.36" stop-color="#C6E4F6"/>
<stop offset="0.5" stop-color="#DFF0FA"/>
<stop offset="0.65" stop-color="#F1F8FC"/>
<stop offset="0.81" stop-color="#FBFDFE"/>
<stop offset="1" stop-color="white"/>
</linearGradient>
<linearGradient id="paint18_linear_956_11337" x1="70.5971" y1="223.592" x2="93.4212" y2="218.078" gradientUnits="userSpaceOnUse">
<stop offset="0.19" stop-color="#A6D5F2"/>
<stop offset="0.2" stop-color="#A7D5F2"/>
<stop offset="0.34" stop-color="#C6E4F6"/>
<stop offset="0.49" stop-color="#DFF0FA"/>
<stop offset="0.64" stop-color="#F1F8FC"/>
<stop offset="0.8" stop-color="#FBFDFE"/>
<stop offset="1" stop-color="white"/>
</linearGradient>
<linearGradient id="paint19_linear_956_11337" x1="80.7783" y1="230.834" x2="97.8094" y2="225.571" gradientUnits="userSpaceOnUse">
<stop offset="0.21" stop-color="#A6D5F2"/>
<stop offset="0.22" stop-color="#A7D5F2"/>
<stop offset="0.36" stop-color="#C6E4F6"/>
<stop offset="0.5" stop-color="#DFF0FA"/>
<stop offset="0.65" stop-color="#F1F8FC"/>
<stop offset="0.81" stop-color="#FBFDFE"/>
<stop offset="1" stop-color="white"/>
</linearGradient>
<linearGradient id="paint20_linear_956_11337" x1="118.198" y1="107.344" x2="118.198" y2="-0.198128" gradientUnits="userSpaceOnUse">
<stop stop-color="#34C2BE"/>
<stop offset="0.03" stop-color="#2DACB2"/>
<stop offset="0.1" stop-color="#21869D"/>
<stop offset="0.16" stop-color="#17668B"/>
<stop offset="0.23" stop-color="#0F4D7E"/>
<stop offset="0.3" stop-color="#0A3B74"/>
<stop offset="0.38" stop-color="#07316E"/>
<stop offset="0.47" stop-color="#062E6D"/>
</linearGradient>
<linearGradient id="paint21_linear_956_11337" x1="129.513" y1="7.35902" x2="140.364" y2="109.758" gradientUnits="userSpaceOnUse">
<stop stop-color="#20489D"/>
<stop offset="0.35" stop-color="#20499D" stop-opacity="0.99"/>
<stop offset="0.5" stop-color="#224C9E" stop-opacity="0.98"/>
<stop offset="0.61" stop-color="#2856A1" stop-opacity="0.92"/>
<stop offset="0.7" stop-color="#3267A6" stop-opacity="0.82"/>
<stop offset="0.78" stop-color="#407FAD" stop-opacity="0.69"/>
<stop offset="0.85" stop-color="#529DB6" stop-opacity="0.51"/>
<stop offset="0.92" stop-color="#68C3C2" stop-opacity="0.29"/>
<stop offset="0.99" stop-color="#82EFCF" stop-opacity="0.04"/>
<stop offset="1" stop-color="#86F6D1" stop-opacity="0"/>
</linearGradient>
<linearGradient id="paint22_linear_956_11337" x1="-82.5709" y1="48.5301" x2="234.892" y2="48.5301" gradientUnits="userSpaceOnUse">
<stop stop-color="#20489D"/>
<stop offset="0.35" stop-color="#20499D" stop-opacity="0.99"/>
<stop offset="0.42" stop-color="#204DA0" stop-opacity="0.95"/>
<stop offset="0.52" stop-color="#205AA7" stop-opacity="0.84"/>
<stop offset="0.64" stop-color="#206EB2" stop-opacity="0.65"/>
<stop offset="0.77" stop-color="#1F8BC2" stop-opacity="0.39"/>
<stop offset="0.91" stop-color="#1FAFD7" stop-opacity="0.06"/>
<stop offset="0.93" stop-color="#1FB5DA" stop-opacity="0"/>
</linearGradient>
<linearGradient id="paint23_linear_956_11337" x1="118.197" y1="107.505" x2="118.197" y2="85.7957" gradientUnits="userSpaceOnUse">
<stop stop-color="#82FFDC"/>
<stop offset="0.99" stop-color="#4A85BA"/>
</linearGradient>
<linearGradient id="paint24_linear_956_11337" x1="116.308" y1="77.6204" x2="116.308" y2="48.5645" gradientUnits="userSpaceOnUse">
<stop stop-color="#5DF0C7"/>
<stop offset="0.99" stop-color="#4A85BA"/>
</linearGradient>
<linearGradient id="paint25_linear_956_11337" x1="49.1922" y1="26.7351" x2="165.9" y2="26.7351" gradientUnits="userSpaceOnUse">
<stop stop-color="#20489D"/>
<stop offset="0.35" stop-color="#20499D" stop-opacity="0.99"/>
<stop offset="0.42" stop-color="#204DA0" stop-opacity="0.95"/>
<stop offset="0.52" stop-color="#205AA7" stop-opacity="0.84"/>
<stop offset="0.64" stop-color="#206EB2" stop-opacity="0.65"/>
<stop offset="0.77" stop-color="#1F8BC2" stop-opacity="0.39"/>
<stop offset="0.91" stop-color="#1FAFD7" stop-opacity="0.06"/>
<stop offset="0.93" stop-color="#1FB5DA" stop-opacity="0"/>
</linearGradient>
<linearGradient id="paint26_linear_956_11337" x1="117.106" y1="78.8265" x2="113.957" y2="22.0659" gradientUnits="userSpaceOnUse">
<stop stop-color="#82FFDC"/>
<stop offset="0.99" stop-color="#4A85BA"/>
</linearGradient>
<linearGradient id="paint27_linear_956_11337" x1="119.516" y1="82.5817" x2="119.516" y2="-2.67836" gradientUnits="userSpaceOnUse">
<stop stop-color="#5DF0C7"/>
<stop offset="0.99" stop-color="#4A85BA"/>
</linearGradient>
<radialGradient id="paint28_radial_956_11337" cx="0" cy="0" r="1" gradientUnits="userSpaceOnUse" gradientTransform="translate(96.1309 166.481) rotate(44.7377) scale(60.5943 99.1979)">
<stop stop-color="white"/>
<stop offset="0.344027" stop-color="white"/>
<stop offset="1" stop-color="#F5F7FF" stop-opacity="0.945257"/>
</radialGradient>
<radialGradient id="paint29_radial_956_11337" cx="0" cy="0" r="1" gradientUnits="userSpaceOnUse" gradientTransform="translate(124.154 200.31) rotate(-125.286) scale(25.5537 38.8343)">
<stop offset="0.0001" stop-color="#09FFD0"/>
<stop offset="1" stop-color="#009EFF"/>
</radialGradient>
<clipPath id="clip0_956_11337">
<rect width="240.594" height="210" fill="white" transform="translate(0.40625)"/>
</clipPath>
</defs>
</svg>
